<svg width="40" height="40" viewBox="0 0 40 40" fill="none" xmlns="http://www.w3.org/2000/svg">
<path d="M31.6513 24.6454C31.337 24.6454 31.0818 24.9002 31.0818 25.2148C31.0818 25.529 31.337 25.7842 31.6513 25.7842C31.9657 25.7842 32.2205 25.529 32.2205 25.2148C32.2205 24.9002 31.9657 24.6454 31.6513 24.6454ZM31.6513 25.662C31.5926 25.662 31.5344 25.6505 31.4801 25.6281C31.4258 25.6056 31.3765 25.5727 31.335 25.5311C31.2935 25.4896 31.2605 25.4403 31.2381 25.386C31.2156 25.3317 31.2041 25.2735 31.2041 25.2148C31.2041 24.9677 31.4039 24.7679 31.6513 24.7679C31.8984 24.7679 32.0984 24.9677 32.0984 25.2148C32.0984 25.462 31.8984 25.662 31.6513 25.662ZM31.8853 25.0828C31.8853 25.0574 31.8803 25.0323 31.8705 25.0089C31.8608 24.9855 31.8466 24.9642 31.8286 24.9463C31.8107 24.9284 31.7894 24.9142 31.766 24.9045C31.7425 24.8948 31.7174 24.8899 31.6921 24.8899H31.4177V25.5398H31.5397V25.2759H31.6272L31.7504 25.5398H31.8853L31.7566 25.2646C31.7942 25.2512 31.8267 25.2266 31.8497 25.1941C31.8728 25.1615 31.8852 25.1227 31.8853 25.0828ZM31.6921 25.1538H31.5397V25.0116H31.692C31.7313 25.0116 31.7633 25.0435 31.7633 25.0828C31.7633 25.1017 31.7557 25.1197 31.7424 25.1331C31.729 25.1464 31.7109 25.1538 31.692 25.1538H31.6921Z" fill="#A2AAAD"/>
<path d="M23.4313 10.8906C14.7333 10.8906 7.8077 15.6521 7.8077 15.6521C7.8077 15.6521 16.344 14.9651 16.344 16.7321C16.344 18.2814 9.58662 20.802 9.58662 20.802C9.58662 20.802 14.9163 20.9408 14.9163 22.229C14.9163 24.4027 3.84009 27.3266 3.84009 27.3266C3.84009 27.3266 7.7212 29.1094 13.7832 29.1094C24.6394 29.1094 36.1599 22.9533 36.1599 18.1561C36.1599 13.7387 29.6795 10.8906 23.4313 10.8906Z" fill="#A2AAAD"/>
<path d="M23.4309 11.279C17.1501 11.279 11.7589 13.831 9.36062 15.1709C9.36062 15.1709 16.7321 14.6518 16.7321 16.7321C16.7321 18.0296 13.5639 19.588 11.3503 20.5186C13.1689 20.6921 15.3049 21.1286 15.3049 22.229C15.3049 24.2562 8.51644 26.4227 5.09619 27.3856C6.64062 27.9021 9.72713 28.721 13.7827 28.721C24.691 28.721 35.7719 22.5741 35.7719 18.1561C35.7719 13.908 29.3659 11.279 23.4309 11.279Z" fill="#010101"/>
<path d="M11.7504 27.2996L10.4707 27.6396C10.4707 27.6396 11.6154 27.7668 13.4198 27.7668C26.3621 27.7668 34.9547 19.8927 34.9547 18.6391C34.9547 18.5011 34.9099 18.3842 34.9099 18.3842C30.3226 23.8421 21.2136 27.6041 11.7504 27.2996Z" fill="#FC4C02"/>
<path d="M23.5873 12.3447C18.7541 12.3447 13.4886 14.2195 13.4886 14.2195C13.4886 14.2195 18.9054 13.9471 18.9054 16.2122C18.9054 18.324 15.078 19.8731 15.078 19.8731C15.078 19.8731 17.4018 20.417 17.4018 21.7604C17.4018 24.8126 9.87036 26.7091 9.87036 26.7091C25.6747 27.4751 34.6993 19.0269 34.6993 17.4634C34.6993 16.0127 30.3035 12.3447 23.5873 12.3447L23.5873 12.3447ZM20.9888 22.509C20.9888 22.509 25.9489 20.1174 27.636 18.6988L21.6045 18.896L27.8163 17.2879C26.0288 15.9285 22.7522 15.0906 22.7522 15.0906C24.7402 15.0474 28.0577 15.4033 30.8042 17.6983C27.7219 20.3783 23.5976 21.8178 20.9888 22.509Z" fill="white"/>
<path d="M23.5872 12.6553C20.5557 12.6553 17.3265 13.4118 15.3836 13.9589C15.3836 13.9589 19.2162 14.1135 19.2162 16.2122C19.2162 17.9204 17.0787 19.2359 15.9189 19.8246C16.6751 20.1317 17.7124 20.7383 17.7124 21.7605C17.7124 24.0321 14.094 25.6469 11.7935 26.4446C26.124 26.4446 34.3883 18.8285 34.3883 17.4635C34.3883 16.2276 30.1453 12.6553 23.5872 12.6553ZM18.5339 23.369C18.5339 23.369 24.8953 20.3164 26.6395 19.0424L18.8114 19.2978L27.0679 17.1609C25.1754 15.8942 20.94 14.9402 20.94 14.9402C20.94 14.9402 26.896 13.7399 31.2948 17.6903C26.3517 22.2052 18.534 23.369 18.534 23.369L18.5339 23.369Z" fill="#B9975B"/>
</svg>
