<svg width="24" height="24" viewBox="0 0 24 24" fill="none" xmlns="http://www.w3.org/2000/svg">
<path d="M19.4409 14.9667C19.2401 14.9667 19.0771 15.1294 19.0771 15.3302C19.0771 15.5309 19.2401 15.6939 19.4409 15.6939C19.6416 15.6939 19.8043 15.5309 19.8043 15.3303C19.8043 15.1294 19.6416 14.9667 19.4409 14.9667ZM19.4409 15.6159C19.4033 15.6159 19.3662 15.6085 19.3315 15.5942C19.2969 15.5798 19.2654 15.5588 19.2388 15.5323C19.2123 15.5058 19.1913 15.4743 19.1769 15.4396C19.1626 15.4049 19.1552 15.3678 19.1553 15.3303C19.1553 15.1725 19.2829 15.0448 19.4409 15.0448C19.5987 15.0448 19.7264 15.1725 19.7264 15.3303C19.7264 15.4881 19.5987 15.6159 19.4409 15.6159ZM19.5903 15.246C19.5903 15.2298 19.5871 15.2137 19.5809 15.1988C19.5747 15.1838 19.5656 15.1702 19.5541 15.1588C19.5426 15.1474 19.529 15.1383 19.5141 15.1321C19.4991 15.1259 19.4831 15.1228 19.4669 15.1228H19.2917V15.5378H19.3696V15.3693H19.4254L19.5041 15.5378H19.5903L19.5081 15.3621C19.5321 15.3535 19.5529 15.3378 19.5676 15.317C19.5823 15.2962 19.5902 15.2714 19.5903 15.246ZM19.4669 15.2913H19.3696V15.2005H19.4669C19.4919 15.2005 19.5124 15.2209 19.5124 15.246C19.5123 15.258 19.5075 15.2696 19.499 15.2781C19.4905 15.2866 19.4789 15.2913 19.4669 15.2913H19.4669Z" fill="#A2AAAD"/>
<path d="M14.1915 6.18256C8.6368 6.18256 4.21396 9.22338 4.21396 9.22338C4.21396 9.22338 9.66539 8.7846 9.66539 9.91309C9.66539 10.9024 5.35001 12.5122 5.35001 12.5122C5.35001 12.5122 8.75365 12.6008 8.75365 13.4235C8.75365 14.8116 1.68018 16.6789 1.68018 16.6789C1.68018 16.6789 4.15872 17.8174 8.02999 17.8174C14.963 17.8174 22.3202 13.886 22.3202 10.8225C22.3202 8.00145 18.1817 6.18256 14.1915 6.18256Z" fill="#A2AAAD"/>
<path d="M14.1913 6.43064C10.1803 6.43064 6.73737 8.0604 5.20576 8.91605C5.20576 8.91605 9.91333 8.58455 9.91333 9.91309C9.91333 10.7417 7.89007 11.7369 6.47641 12.3312C7.63779 12.442 9.00191 12.7207 9.00191 13.4235C9.00191 14.7181 4.66665 16.1017 2.48242 16.7166C3.46872 17.0464 5.43982 17.5694 8.02979 17.5694C14.996 17.5694 22.0724 13.6439 22.0724 10.8225C22.0724 8.10958 17.9815 6.43064 14.1913 6.43064Z" fill="#010101"/>
<path d="M6.7318 16.6616L5.91455 16.8788C5.91455 16.8788 6.64556 16.96 7.7979 16.96C16.0631 16.96 21.5505 11.9315 21.5505 11.1309C21.5505 11.0427 21.5219 10.9681 21.5219 10.9681C18.5923 14.4536 12.7751 16.8561 6.7318 16.6616Z" fill="#FC4C02"/>
<path d="M14.2911 7.11119C11.2045 7.11119 7.84191 8.30849 7.84191 8.30849C7.84191 8.30849 11.3012 8.13455 11.3012 9.58106C11.3012 10.9297 8.85696 11.919 8.85696 11.919C8.85696 11.919 10.341 12.2663 10.341 13.1243C10.341 15.0734 5.53125 16.2846 5.53125 16.2846C15.6242 16.7737 21.3875 11.3786 21.3875 10.3801C21.3875 9.45363 18.5802 7.11122 14.2911 7.11122L14.2911 7.11119ZM12.6317 13.6023C12.6317 13.6023 15.7993 12.075 16.8767 11.1691L13.0249 11.295L16.9918 10.2681C15.8503 9.39989 13.7578 8.86476 13.7578 8.86476C15.0274 8.83723 17.146 9.06449 18.9 10.5301C16.9315 12.2416 14.2977 13.1609 12.6317 13.6023Z" fill="white"/>
<path d="M14.291 7.30954C12.355 7.30954 10.2928 7.79265 9.052 8.14206C9.052 8.14206 11.4995 8.24079 11.4995 9.58106C11.4995 10.6719 10.1345 11.5121 9.39388 11.888C9.8768 12.0841 10.5392 12.4715 10.5392 13.1243C10.5392 14.575 8.22847 15.6062 6.75928 16.1156C15.911 16.1156 21.1888 11.2519 21.1888 10.3802C21.1888 9.5909 18.4791 7.30954 14.291 7.30954ZM11.0639 14.1515C11.0639 14.1515 15.1263 12.2021 16.2402 11.3884L11.2411 11.5516L16.5138 10.1869C15.3052 9.37798 12.6004 8.76872 12.6004 8.76872C12.6004 8.76872 16.404 8.00218 19.2132 10.525C16.0564 13.4083 11.0639 14.1515 11.0639 14.1515L11.0639 14.1515Z" fill="#B9975B"/>
</svg>
