<svg width="40" height="40" viewBox="0 0 40 40" fill="none" xmlns="http://www.w3.org/2000/svg">
<path d="M24.6329 29.8297C24.2445 29.8297 23.9292 30.1445 23.9292 30.5331C23.9292 30.9213 24.2445 31.2366 24.6329 31.2366C25.0213 31.2366 25.3361 30.9213 25.3361 30.5332C25.3361 30.1445 25.0213 29.8297 24.6329 29.8297ZM24.6329 31.0857C24.5603 31.0858 24.4884 31.0715 24.4213 31.0438C24.3543 31.016 24.2933 30.9753 24.242 30.924C24.1907 30.8727 24.15 30.8117 24.1223 30.7447C24.0945 30.6776 24.0803 30.6057 24.0803 30.5331C24.0803 30.2278 24.3272 29.981 24.6329 29.981C24.9382 29.981 25.1853 30.2278 25.1853 30.5331C25.1853 30.8385 24.9382 31.0857 24.6329 31.0857ZM24.9219 30.3701C24.9219 30.3388 24.9157 30.3077 24.9037 30.2788C24.8917 30.2499 24.8741 30.2236 24.852 30.2015C24.8298 30.1793 24.8035 30.1618 24.7745 30.1498C24.7456 30.1379 24.7146 30.1317 24.6832 30.1318H24.3443V30.9348H24.495V30.6086H24.603L24.7553 30.9348H24.9219L24.763 30.5947C24.8094 30.5782 24.8496 30.5478 24.878 30.5076C24.9065 30.4674 24.9218 30.4193 24.9219 30.3701ZM24.6832 30.4579H24.495V30.2822H24.6832C24.7316 30.2822 24.7713 30.3215 24.7713 30.3701C24.7712 30.3934 24.7619 30.4157 24.7454 30.4322C24.7289 30.4486 24.7065 30.4579 24.6832 30.4579Z" fill="white"/>
<path d="M33.3291 18.9208C33.3291 18.9208 33.7 17.2932 31.9211 15.9583C31.9356 17.3741 31.3225 17.9605 31.3225 17.9605L31.1426 17.871L30.745 16.8021L32.4697 13.1944C32.5555 13.5108 32.6579 13.8924 32.6579 13.8924L33.1554 12.906C33.1554 12.906 33.6095 12.0477 33.5312 10.9804L33.9531 10.0971L33.7076 6.52626C33.5354 5.83103 32.9925 5.31995 32.2987 5.09795C31.6342 4.88687 30.9704 4.99815 30.475 5.40221L22.9108 11.2505C19.0629 11.3966 16.0596 13.0982 14.2046 16.1788L5.50879 23.1766C5.97217 24.2017 8.14154 26.9199 11.5061 26.2874L13.2446 25.975C13.2446 25.975 14.6698 33.7659 21.4428 35.0068C21.4428 35.0068 19.152 31.2826 19.708 28.2085C19.708 28.2085 21.2709 32.7105 24.2821 32.0772C21.8554 29.1115 23.1813 26.1532 23.1813 26.1532C23.1813 26.1532 24.4064 28.1475 27.1796 27.9064C27.1796 27.9064 25.2935 25.9032 25.9269 23.2155L30.4925 23.3832L32.8743 22.3841L34.4917 19.4488L33.3291 18.9208Z" fill="white"/>
<path d="M32.2692 16.8537C32.1969 17.6968 31.4322 18.4849 31.4322 18.4849L30.8046 18.1758L30.2846 16.7818L32.5336 12.0826C32.6951 12.3976 32.7796 12.7159 32.7796 12.7159C33.1065 12.0714 33.1523 11.4201 33.1052 10.8935L33.5243 10.0145L33.2898 6.59328C33.1759 6.13463 32.7292 5.67819 32.1711 5.50074C31.6419 5.33224 31.1066 5.42866 30.7253 5.74075L23.0651 11.6639C19.1692 11.7734 16.2899 13.4772 14.5256 16.464L6.04346 23.2868C6.04346 23.2868 7.61532 26.2666 11.2265 25.9091L13.561 25.4892C13.8119 26.5725 15.2097 32.8247 20.6191 34.3385C19.7027 32.5773 18.5186 29.4398 19.6806 26.8685C21.2303 31.8416 23.5014 31.7028 23.5014 31.7028C21.3041 28.5872 23.0937 25.2738 23.0937 25.2738C23.9894 26.8031 25.2809 27.4848 26.335 27.4848C26.335 27.4848 24.7883 25.4467 25.6038 22.781L30.416 22.9586L32.5748 22.0524L33.9007 19.6448L32.8605 19.1713C33.1852 17.7013 32.2692 16.8537 32.2692 16.8537V16.8537Z" fill="#010101"/>
<path d="M32.4303 19.2981H32.4346C32.4792 19.1225 32.6763 18.2189 32.4039 17.6026C32.1656 18.3266 31.7416 18.7245 31.5528 18.8729L30.491 18.3564L30.4956 18.3618L32.6724 19.7695L31.3418 20.081L31.3391 20.0805L31.3381 20.081L30.1494 19.6417C30.1528 19.6417 30.1528 19.6396 30.1531 19.6396L30.1454 19.6382C30.2155 19.2765 30.3268 18.4886 30.075 17.9173C29.8302 18.6588 29.4105 19.0918 29.1833 19.2825L28.0357 18.8569L27.0714 16.3384L30.5749 10.678C30.7742 10.8871 30.9876 11.1716 31.1616 11.5486C31.3351 10.9924 31.169 10.2776 31.0562 9.90248L31.4814 9.2146L32.4792 8.49343L32.6647 9.42911L31.0005 14.04L32.3203 11.1964C32.3775 11.2411 32.4986 11.3374 32.7705 11.8978C32.9094 11.4528 32.6988 10.4637 32.6988 10.4637L33.0838 9.72798L32.9023 6.8645C32.7502 7.10864 32.593 7.63139 32.5266 7.84017C32.2041 5.63638 31.3504 7.27287 31.138 5.9548L30.4295 6.50321C30.3736 6.77989 30.2847 7.33894 30.2671 8.18561C30.2671 8.18561 29.7718 7.66225 29.6137 7.16566C29.5523 7.47518 29.4573 8.08675 29.4366 9.00817C29.4366 9.00817 28.8819 8.42103 28.7122 7.86906C28.6455 8.21482 28.5452 8.88117 28.5228 9.87636C28.5228 9.87636 27.925 9.24537 27.7335 8.64655C27.6585 9.02707 27.5496 9.75968 27.5234 10.8486C27.5234 10.8486 26.8276 10.1119 26.6379 9.43342L23.1141 12.1553C22.8803 12.4325 21.7817 13.5517 21.3776 15.2328C21.3776 15.2328 21.3767 14.0458 21.4712 13.68C21.1618 13.9026 19.9982 14.8137 19.3633 15.4744C19.3633 15.4744 19.4402 14.2763 19.9324 13.5957C18.8931 14.3539 17.3077 15.9603 17.3077 15.9603C18.6183 13.6943 19.6674 13.0197 20.1947 12.5807C17.5485 13.4185 15.2494 15.2764 14.2408 18.4139C14.2408 18.4139 14.2605 17.7868 14.3568 17.2687L6.84912 23.208C6.84912 23.208 8.0053 25.3366 11.261 25.2545L15.5123 24.5795C15.5123 24.5795 15.0889 23.4446 15.131 22.6434C15.6479 24.4319 16.5405 25.0969 16.5405 25.0969C16.5405 25.0969 14.1541 25.4113 14.1541 25.4132C14.5865 26.979 15.535 31.3882 19.851 33.461C18.8455 31.5204 18.6693 29.6799 18.8384 28.1378C19.1112 26.2995 20.0487 25.1802 20.0487 25.1802C20.2012 27.3388 21.2248 28.9708 21.893 29.8222C22.0664 30.0654 22.2604 30.2885 22.4763 30.4821C22.4763 30.4821 21.6073 28.9091 22.2426 26.0869C22.2992 25.9276 22.782 24.5764 23.2773 24.0809C23.9206 25.8948 25.4881 26.5948 25.4881 26.5948C24.3689 24.2799 25.3406 22.0624 25.3406 22.0624C25.3406 22.0624 30.3775 22.2503 30.416 22.2519L32.3089 21.4577L33.283 19.6902L32.4303 19.2981Z" fill="#862633"/>
<path d="M29.2881 16.5078L30.0753 17.6295L29.6309 16.5222L30.0753 15.3781L29.2881 16.5078Z" fill="#862633"/>
<path d="M21.7872 13.1194C21.8647 12.8762 21.381 12.9269 21.381 12.9269C21.7149 12.7077 22.0566 12.5801 22.2282 12.524C22.3484 12.3758 22.4489 12.2572 22.4994 12.2009C22.2611 12.2198 21.6451 12.3518 20.4361 13.2143C20.9278 13.1205 21.4598 13.0914 21.7872 13.1194ZM32.4303 19.2981H32.4346C32.4792 19.1225 32.6763 18.2189 32.4039 17.6026C32.1656 18.3266 31.7416 18.7245 31.5528 18.8729L30.491 18.3564L30.4956 18.3618L32.6724 19.7695L31.3418 20.0809L31.339 20.0805L31.3381 20.0809L30.1494 19.6417C30.1528 19.6417 30.1528 19.6396 30.1531 19.6396L30.1454 19.6382C30.2155 19.2764 30.3268 18.4886 30.075 17.9173C29.8302 18.6588 29.4105 19.0918 29.1833 19.2824L28.0357 18.8569L27.0714 16.3384L30.5749 10.678C30.7742 10.887 30.9876 11.1716 31.1616 11.5486C31.3351 10.9924 31.169 10.2776 31.0562 9.90246L31.4814 9.21464L32.4792 8.49337L32.6647 9.42909L31.0005 14.04L32.3203 11.1964C32.3775 11.2411 32.4986 11.3373 32.7705 11.8978C32.9094 11.4529 32.6988 10.4637 32.6988 10.4637L33.0838 9.72801L32.5146 8.30692L30.9028 9.19832L25.5994 15.2185C25.8024 15.1679 23.7905 15.8819 23.134 16.7289C23.134 16.7289 24.5162 16.9955 24.6447 17.9213C24.1047 18.1382 14.2073 24.8518 18.4374 31.7013C18.8079 32.2767 19.2719 32.8662 19.8509 33.461C18.8454 31.5205 18.6693 29.6798 18.8384 28.1378C19.1218 25.5679 20.3705 23.8262 20.3705 23.8262C20.3705 23.8262 20.3321 27.6409 21.8929 29.8222C22.0664 30.0654 22.2604 30.2885 22.4762 30.4821C22.4762 30.4821 21.6072 28.9091 22.2426 26.0868C22.4673 25.0844 22.8809 23.9254 23.5927 22.6223C23.1497 24.7022 25.0278 26.1849 25.4881 26.5948C24.3688 24.2799 25.3405 22.0624 25.3405 22.0624C25.3405 22.0624 30.3775 22.2503 30.4159 22.2519L32.175 20.5289L32.3088 21.4577L33.2829 19.6901L32.4303 19.2981L32.4303 19.2981ZM7.90625 23.3588C8.44649 24.3294 9.71888 24.595 10.4615 24.6668C10.2466 24.4542 9.53073 23.705 9.75213 23.1551C9.75213 23.1551 10.357 23.6301 11.1789 23.7173C11.1789 23.7173 10.4968 21.8249 11.6607 20.3635C9.9566 21.7291 7.90625 23.3588 7.90625 23.3588Z" fill="#DDCBA4"/>
<path d="M25.5992 15.2185L30.9024 9.1983L25.3249 14.9101C25.3249 14.9101 23.9369 15.1441 21.9268 16.7306C22.9336 18.6637 18.1266 24.6948 16.0913 23.0954C16.507 24.3212 18.019 23.8202 18.019 23.8202C17.8157 24.2903 15.8425 27.6768 18.4371 31.7012C14.207 24.8518 24.1045 18.1382 24.6444 17.9213C24.5159 16.9954 23.1338 16.7288 23.1338 16.7288C23.7902 15.8819 25.8021 15.1679 25.5992 15.2185Z" fill="#010101"/>
<path d="M27.9307 14.3182L26.313 16.2782L27.717 18.8742L26.7644 16.2782L27.9307 14.3182ZM13.7687 18.6551C13.4516 18.9246 12.6082 19.6028 11.6605 20.3636C10.4967 21.8249 11.1787 23.7173 11.1787 23.7173C10.3568 23.6302 9.75195 23.1551 9.75195 23.1551C9.53056 23.7051 10.2464 24.4543 10.4613 24.6668C10.8008 24.6998 11.0286 24.6919 11.0286 24.6919L14.6456 24.053C14.6456 24.053 9.42326 22.8642 13.7687 18.6552V18.6551Z" fill="#010101"/>
</svg>
