<svg width="40" height="40" viewBox="0 0 40 40" fill="none" xmlns="http://www.w3.org/2000/svg">
<path d="M25.2871 32.4421C24.9159 32.4421 24.6145 32.743 24.6145 33.1145C24.6145 33.4856 24.9159 33.7869 25.2871 33.7869C25.6584 33.7869 25.9593 33.4856 25.9593 33.1145C25.9593 32.743 25.6584 32.4421 25.2871 32.4421ZM25.2871 33.6427C25.2177 33.6427 25.149 33.6291 25.0849 33.6026C25.0208 33.5761 24.9626 33.5372 24.9135 33.4881C24.8645 33.4391 24.8256 33.3808 24.799 33.3167C24.7725 33.2526 24.7589 33.1839 24.759 33.1145C24.759 32.8227 24.9949 32.5867 25.2871 32.5867C25.5789 32.5867 25.8152 32.8227 25.8152 33.1145C25.8152 33.4065 25.5789 33.6427 25.2871 33.6427ZM25.5634 32.9586C25.5634 32.9287 25.5575 32.8991 25.546 32.8714C25.5345 32.8437 25.5177 32.8186 25.4965 32.7975C25.4754 32.7763 25.4502 32.7595 25.4225 32.7481C25.3949 32.7367 25.3652 32.7308 25.3353 32.7308H25.0113V33.4984H25.1553V33.1867H25.2587L25.4042 33.4984H25.5634L25.4115 33.1734C25.5024 33.1411 25.5632 33.0551 25.5634 32.9586ZM25.3353 33.0426H25.1553V32.8746H25.3353C25.3815 32.8746 25.4194 32.9122 25.4194 32.9587C25.4192 33.005 25.3816 33.0425 25.3353 33.0426Z" fill="#010101"/>
<path d="M26.0193 23.0915C26.1724 22.8284 26.3119 22.5621 26.4343 22.2964L37.4578 16.3928H25.8586C24.989 15.4814 23.7315 14.9264 22.1855 14.7697L21.2664 5.65558L15.7906 14.7231H12.8431L11.8451 16.3928H2.54199L8.82248 21.4526L4.92335 27.9784H7.78461L3.93932 34.3444L15.8266 27.9778C16.1789 27.9752 16.531 27.965 16.8828 27.9474L24.0985 33.7615L23.3244 26.0739C24.4029 25.3256 25.2867 24.3466 26.0193 23.0915H26.0193Z" fill="#006341"/>
<path d="M25.9691 21.8633L35.0595 16.9948H25.59C24.7379 15.9785 23.3782 15.4079 21.6376 15.3334L20.8486 7.51138L16.1303 15.3245H13.1841L12.1868 16.9948H4.24805L9.60762 21.3121L5.98395 27.3757H8.85091L5.58835 32.7784L15.6751 27.3757C16.1438 27.3756 16.6125 27.3618 17.0804 27.3342L23.3558 32.3895L22.6894 25.7727C23.8271 25.0536 24.7477 24.0757 25.499 22.7883C25.6784 22.4809 25.8366 22.1705 25.9691 21.8633Z" fill="#010101"/>
<path d="M25.1864 18.7573C25.1864 18.7573 25.0951 18.4594 24.9622 18.1982L23.1147 19.1007C23.2349 19.4145 23.407 20.1646 22.9483 21.2794C22.425 22.5491 20.8668 24.7947 16.6171 24.7947H10.9152L8.10617 26.172H13.1393L12.4945 26.3463L8.88606 29.6467L15.3735 26.172H15.6442C16.2972 26.172 16.9031 26.1471 17.4667 26.0988L18.6082 25.961C18.8292 25.9252 19.0422 25.8848 19.2489 25.8408C21.3697 25.3879 22.7373 24.4869 23.7342 23.2448C23.9995 22.9139 24.2395 22.5592 24.4595 22.1817C24.7692 21.65 24.9876 21.1418 25.1233 20.6619C25.3221 19.9566 25.3392 19.3134 25.1864 18.7573H25.1864ZM12.0525 19.5661L7.66145 18.1985L7.66113 18.1982L11.1776 21.0312L12.0525 19.5661ZM18.7563 16.5285H20.5483L20.0132 11.2237L18.7563 16.5285ZM25.5899 19.3654C25.633 19.4496 25.6723 19.5357 25.7078 19.6234C25.7152 19.6415 25.7212 19.6602 25.7281 19.6782C25.7546 19.7466 25.7788 19.8158 25.8007 19.8858C25.8084 19.9118 25.8153 19.9376 25.8232 19.9636C25.8424 20.0332 25.8597 20.1032 25.8752 20.1737C25.88 20.1972 25.8857 20.22 25.8905 20.2438C25.9094 20.3392 25.9247 20.4365 25.9374 20.5376L25.9377 20.5373L28.7479 19.0176L30.2623 18.1982L25.5899 19.3654ZM21.486 25.9498C21.3576 25.9636 21.2299 25.974 21.103 25.9825C21.0938 25.9831 21.0843 25.9838 21.0751 25.9841C20.9521 25.9927 20.8295 25.9984 20.709 26.0027C20.6985 26.0035 20.6884 26.0037 20.6779 26.004C20.5559 26.0082 20.4361 26.0107 20.3188 26.0116H20.3032C20.1827 26.0123 20.0646 26.012 19.9505 26.0103V26.0107L21.8699 29.6467L21.486 25.9498Z" fill="#A2AAAD"/>
<path d="M20.3132 17.8203H15.0878L15.0776 17.8152L10.915 24.7946L13.7319 23.4188L15.3392 20.7944L15.8312 19.9911L15.4672 19.6982L14.74 19.1121L14.7397 19.1118H19.0995C19.1822 19.1118 19.2617 19.1127 19.3401 19.1149C19.3464 19.1149 19.3524 19.1153 19.3581 19.1155C19.4276 19.1174 19.4957 19.1203 19.562 19.1241C19.5832 19.1254 19.6032 19.127 19.625 19.1286C19.6742 19.1317 19.7227 19.1349 19.7703 19.1393C19.7975 19.1419 19.8238 19.1453 19.8507 19.1478C19.8891 19.1523 19.928 19.1568 19.9658 19.1612C19.9956 19.1653 20.0245 19.1701 20.0537 19.1745C20.0859 19.1793 20.1177 19.1843 20.1481 19.19C20.1792 19.1954 20.2083 19.2014 20.2378 19.2078C20.2654 19.2135 20.292 19.2192 20.318 19.2253C20.3488 19.2325 20.3783 19.2408 20.4068 19.2487C20.4296 19.255 20.4531 19.2613 20.4746 19.268C20.5047 19.2775 20.5332 19.287 20.5611 19.2972C20.5804 19.3042 20.5998 19.3111 20.6182 19.3184C20.6467 19.3298 20.6743 19.341 20.7013 19.3533L20.7492 19.3758C20.7892 19.3963 20.8284 19.4183 20.8667 19.4417C20.8915 19.4575 20.9156 19.4735 20.939 19.4905C20.9501 19.4985 20.9605 19.5068 20.9711 19.5149C20.9945 19.5333 21.0163 19.552 21.0376 19.572C21.0462 19.5799 21.0538 19.5882 21.0621 19.5965C21.0833 19.618 21.1039 19.6395 21.1222 19.6627C21.1286 19.67 21.134 19.6776 21.1397 19.6852C21.159 19.71 21.1774 19.7353 21.1939 19.7625C21.1971 19.7679 21.2006 19.7742 21.2038 19.78C21.2212 19.8098 21.2376 19.8399 21.2516 19.8716C21.2529 19.8742 21.2532 19.877 21.2548 19.8795C21.27 19.9147 21.2833 19.9512 21.2947 19.9895L21.295 19.9892L23.1146 19.1006C22.616 17.9481 21.1993 17.8203 20.3133 17.8203H20.3132Z" fill="#A2AAAD"/>
<path d="M17.4662 26.0992L21.8693 29.6467L19.9499 26.0107C19.3812 26.0027 18.9015 25.9694 18.6077 25.961L17.4661 26.0988M10.5653 26.8667L8.8855 29.6468L12.4939 26.3464M13.7315 23.4188L10.9146 24.7947H16.6166C20.8663 24.7947 22.4244 22.5491 22.9477 21.2794C23.4065 20.1646 23.2343 19.4145 23.1142 19.1007L21.2945 19.9893C21.305 20.0248 21.3145 20.0602 21.3221 20.0986C21.4832 20.9447 20.7915 22.1541 19.6204 22.8391C18.6951 23.3802 17.5818 23.4188 16.62 23.4188H13.7314" fill="white"/>
<path d="M15.0774 17.8152L15.0876 17.8203H20.3131C21.1991 17.8203 22.6158 17.948 23.1144 19.1007L24.9619 18.1982C25.0947 18.4594 25.186 18.7573 25.186 18.7573C25.3483 18.9558 25.4808 19.1571 25.5896 19.3654L30.2619 18.1982H24.9619C24.3938 17.1549 23.1039 16.5285 21.2466 16.5285H18.7559L20.0128 11.2237V11.2234L16.8088 16.5285H13.8674L12.8695 18.1982H7.66113V18.1985L12.0522 19.5661L11.1773 21.0312L8.10585 26.172L10.9149 24.7946L15.0774 17.8152H15.0774Z" fill="white"/>
</svg>
