<svg width="40" height="40" viewBox="0 0 40 40" fill="none" xmlns="http://www.w3.org/2000/svg">
<path d="M20.5118 27.2848C20.2021 27.2848 19.9507 27.5358 19.9507 27.8457C19.9507 28.1553 20.2021 28.4067 20.5118 28.4067C20.8215 28.4067 21.0725 28.1553 21.0725 27.8457C21.0725 27.5358 20.8215 27.2848 20.5118 27.2848ZM20.5118 28.2863C20.4539 28.2864 20.3966 28.275 20.3431 28.2529C20.2896 28.2308 20.241 28.1983 20.2001 28.1574C20.1592 28.1165 20.1268 28.0679 20.1046 28.0144C20.0825 27.9609 20.0712 27.9036 20.0712 27.8457C20.0712 27.6023 20.2681 27.4054 20.5118 27.4054C20.7552 27.4054 20.9523 27.6023 20.9523 27.8457C20.9523 28.0893 20.7552 28.2863 20.5118 28.2863ZM20.7423 27.7157C20.7423 27.6907 20.7373 27.666 20.7278 27.6429C20.7182 27.6198 20.7042 27.5989 20.6865 27.5812C20.6688 27.5636 20.6478 27.5496 20.6247 27.5401C20.6017 27.5305 20.5769 27.5256 20.5519 27.5256H20.2817V28.166H20.4018V27.9059H20.488L20.6094 28.166H20.7423L20.6155 27.8948C20.6525 27.8817 20.6846 27.8574 20.7073 27.8253C20.73 27.7933 20.7422 27.755 20.7423 27.7157ZM20.5519 27.7857H20.4018V27.6456H20.5519C20.5905 27.6456 20.6221 27.677 20.6221 27.7157C20.6221 27.7343 20.6146 27.7521 20.6015 27.7652C20.5883 27.7783 20.5705 27.7857 20.5519 27.7857Z" fill="white"/>
<path d="M33.484 15.3358C34.843 14.1746 36.1599 12.3021 36.1599 10.1578C36.1599 9.84745 35.7813 9.76014 35.6278 9.97115C34.2276 11.8819 32.9072 12.6078 32.1096 12.8842C33.4359 11.8801 34.7367 10.2405 35.0694 8.38121C35.1059 8.04197 34.7369 7.94291 34.5664 8.1205C32.9425 9.74417 30.7068 11.4769 24.6985 11.4769C23.2467 11.4769 21.587 11.4348 20.5138 11.4348C15.6357 11.4348 13.8418 14.4519 13.4373 15.2895C13.0357 15.2314 12.6291 15.1957 12.2249 15.1957C7.6014 15.1957 3.83984 18.9572 3.83984 23.5811C3.83981 28.2045 7.60132 31.9663 12.2248 31.9663C15.6277 31.9663 18.6358 29.9568 19.95 26.8345C20.0425 26.8439 20.1406 26.8597 20.2234 26.8597C21.2859 26.8597 21.5087 26.549 21.5087 26.2875C21.5087 26.1472 21.3698 25.9779 21.301 25.8793C22.8598 25.8709 23.3169 25.7978 23.9915 25.5648C24.1012 25.5305 24.1656 25.4286 24.1656 25.3202C24.1656 25.0902 23.6941 24.7095 23.3525 24.4137C25.5326 24.3771 27.1379 23.9877 27.1379 23.4778C27.1379 23.3783 27.1285 23.2527 26.5499 22.797C27.7799 22.4625 29.9409 21.6331 29.9409 21.0931C29.9409 20.8838 29.7602 20.7555 29.5492 20.6084C31.4638 19.887 33.0737 18.6158 33.0737 18.16C33.0737 17.7926 32.5324 17.7614 32.264 17.7407C33.218 17.1296 34.5464 16.0881 34.5464 15.6383C34.5464 15.1725 33.8165 15.356 33.4841 15.3358H33.484Z" fill="#C8102E"/>
<path d="M32.9246 15.4549C34.4503 14.3116 35.9007 12.3371 35.9007 10.1578C35.9007 10.112 35.8554 10.1049 35.8365 10.124C33.478 13.3439 31.3334 13.3123 31.3334 13.3123C31.2396 13.3123 31.2175 13.1807 31.2919 13.1288C32.8147 12.2332 34.4478 10.3858 34.8146 8.33543C34.8196 8.30794 34.7785 8.27466 34.7496 8.30334C33.0176 10.0356 30.6372 11.7359 24.6985 11.7359C22.7967 11.7359 21.8041 11.6938 20.5139 11.6938C15.3642 11.6938 13.7806 15.1166 13.5931 15.5697C13.1411 15.493 12.6834 15.4545 12.2249 15.4544C7.7369 15.4544 4.09863 19.0926 4.09863 23.5811C4.09863 28.0689 7.7369 31.7074 12.2248 31.7074C15.6614 31.7074 18.5996 29.5741 19.7877 26.56C19.9397 26.5859 20.0863 26.6007 20.2232 26.6007C21.0511 26.6007 21.2499 26.4159 21.2499 26.2875C21.2499 26.2004 20.7204 25.6217 20.9833 25.6217C22.8196 25.6217 23.2329 25.5531 23.9071 25.3202C23.5836 24.814 22.4121 24.1587 23.0153 24.1587C25.9256 24.1587 26.8794 23.5969 26.8794 23.4778C26.8794 23.3388 25.9514 22.6705 25.9514 22.6705C27.2919 22.4495 29.6821 21.3804 29.6821 21.0931C29.6821 20.9268 29.0003 20.6477 29.1096 20.49C31.2351 19.7831 32.8148 18.4096 32.8148 18.16C32.8148 17.9598 31.5689 17.9832 31.5689 17.9832V17.8508C32.6463 17.2907 34.2875 15.9363 34.2875 15.6383C34.2875 15.4485 32.7474 15.7666 32.9246 15.4549Z" fill="white"/>
<path d="M14.2196 22.0458C13.9566 21.704 13.608 21.4317 13.2055 21.2613L13.1401 21.3254L13.2751 22.2538C13.3173 22.2871 13.3577 22.3225 13.3964 22.3598L14.0765 22.3654C14.1257 22.2596 14.1735 22.153 14.2196 22.0458ZM11.277 21.3392L12.0291 21.8996C12.0824 21.8935 12.1361 21.8899 12.1898 21.8888L12.8588 21.2305L12.8452 21.1404C12.6423 21.0888 12.4338 21.0628 12.2245 21.0628C11.8999 21.0627 11.5784 21.1256 11.2778 21.2479L11.277 21.3392ZM12.9061 21.5558L12.5379 21.9171C12.6916 21.9459 12.8405 21.996 12.9803 22.066L12.9061 21.5558ZM13.1792 24.9791C13.0501 25.0671 12.9096 25.137 12.7615 25.1867L13.1751 25.4946L13.1792 24.9791H13.1792ZM9.82068 27.3004L11.0182 26.1223C10.55 25.9001 10.1534 25.5514 9.87132 25.1211L8.86709 26.4684C9.14362 26.7898 9.46475 27.07 9.82068 27.3004ZM13.6227 22.6262C13.6886 22.7225 13.7443 22.8253 13.7889 22.9332C13.8438 22.8327 13.8969 22.7313 13.9482 22.6289L13.6227 22.6262ZM11.3718 26.262C11.3425 26.2526 11.3134 26.2427 11.2845 26.2322L10.0546 27.4418C10.5386 27.7145 11.0699 27.893 11.6203 27.9679L11.3718 26.262ZM13.6136 24.6223L13.5519 24.6315C13.5186 24.6736 13.4833 24.714 13.4461 24.7527L13.4379 25.6909L13.5112 25.7452C13.7376 25.6103 13.9415 25.4408 14.1155 25.2428C13.8659 25.0161 13.6871 24.8011 13.6136 24.6223ZM11.27 22.183C11.3988 22.0946 11.5394 22.0247 11.6877 21.9754L11.2742 21.6669L11.27 22.1829V22.183ZM9.72585 24.8732C9.71174 24.8459 9.69796 24.8185 9.68453 24.7908L7.95967 24.7763C8.11134 25.3187 8.36379 25.8188 8.69503 26.2554L9.72585 24.8732ZM13.1722 25.823L12.4205 25.2623C12.3672 25.2683 12.3136 25.2719 12.2599 25.2728L11.5907 25.9308L11.6036 26.0213C11.8066 26.0729 12.0151 26.099 12.2245 26.0988C12.5491 26.099 12.8706 26.0363 13.1713 25.914L13.1722 25.823ZM11.5435 25.6059L11.9112 25.2443C11.7576 25.2156 11.6088 25.1656 11.469 25.0959L11.5435 25.6059ZM13.4345 26.1211L13.4202 27.8457C13.9623 27.6942 14.4622 27.4419 14.8991 27.1103L13.5165 26.0796C13.4892 26.0937 13.4623 26.1077 13.4345 26.1211ZM10.8263 24.5356C10.7382 24.4066 10.6686 24.2659 10.6194 24.1177L10.3107 24.5312L10.8263 24.5357V24.5356ZM11.0527 24.8021L10.1148 24.7943L10.0604 24.8674C10.3335 25.3258 10.7478 25.6909 11.2439 25.9004L11.3091 25.8361L11.1742 24.9082C11.1321 24.8747 11.0916 24.8393 11.0527 24.8021ZM11.0035 22.4091L11.0111 21.4711L10.9382 21.4164C10.4795 21.6897 10.1148 22.104 9.90475 22.6004L9.96922 22.6659L10.8975 22.5304C10.9309 22.4883 10.9663 22.4479 11.0035 22.4091ZM10.1994 22.8995L10.5609 23.2675C10.5897 23.1138 10.6399 22.965 10.7099 22.8252L10.1994 22.8995ZM9.78389 22.9602C9.73273 23.1632 9.70683 23.3717 9.70678 23.5811C9.70657 23.9056 9.76938 24.2271 9.89173 24.5277L9.98275 24.5285L10.5434 23.7766C10.537 23.7233 10.5335 23.6696 10.5329 23.6159L9.8745 22.9473L9.78389 22.9602V22.9602ZM11.6498 26.3349L11.8918 27.9969C12.3147 28.0287 12.74 27.9998 13.1547 27.9111L13.1688 26.2312C12.8657 26.3391 12.5463 26.3942 12.2245 26.3941C12.0276 26.3941 11.8352 26.3738 11.6498 26.3349ZM14.6853 20.2404C14.6853 20.1258 14.6828 20.011 14.679 19.8953C14.6622 19.8839 14.6454 19.8724 14.6286 19.8615L13.431 21.0394C13.7804 21.2057 14.0918 21.4423 14.3458 21.7342C14.5308 21.2504 14.6853 20.7063 14.6853 20.2403V20.2404ZM10.9328 21.0819C10.9599 21.068 10.9871 21.0539 11.0147 21.0408L11.0291 19.3161C10.487 19.4675 9.98698 19.7198 9.54999 20.0515L10.9328 21.0819ZM12.7995 20.8271L12.5572 19.1648C12.4474 19.1571 12.3366 19.1522 12.2245 19.1522C11.9055 19.1522 11.5941 19.1865 11.2942 19.2511L11.2803 20.9306C11.5834 20.8227 11.9028 20.7677 12.2245 20.7679C12.4217 20.7679 12.6139 20.7884 12.7995 20.8271ZM15.7092 26.3129C15.198 26.0485 14.7162 25.7374 14.3403 25.4344C14.1717 25.6261 13.9781 25.7944 13.7648 25.9348L15.1117 26.9385C15.3305 26.7503 15.5304 26.54 15.7092 26.3129ZM14.3951 19.7202C13.911 19.4475 13.3797 19.2689 12.8293 19.1938L13.0776 20.9C13.1072 20.9094 13.1363 20.9193 13.1651 20.9294L14.3951 19.7202ZM7.79614 23.5811C7.79614 23.9003 7.8301 24.2113 7.89453 24.5112L9.57407 24.5251C9.46634 24.222 9.41138 23.9027 9.41159 23.5811C9.41159 23.3838 9.43182 23.1918 9.47037 23.0057L7.80863 23.2483C7.80023 23.359 7.79607 23.47 7.79614 23.5811ZM7.83746 22.9762L9.54352 22.7277C9.55286 22.6981 9.56311 22.6697 9.57339 22.6404L8.36391 21.4106C8.09097 21.8945 7.91233 22.4258 7.83746 22.9762ZM8.50533 21.1771L9.68311 22.3745C9.9054 21.9077 10.2518 21.5109 10.6845 21.2278L9.33751 20.2234C9.0159 20.4998 8.73565 20.821 8.50533 21.1771Z" fill="#C8102E"/>
<path d="M12.2246 24.4941C12.7289 24.4941 13.1377 24.0853 13.1377 23.581C13.1377 23.0767 12.7289 22.6679 12.2246 22.6679C11.7203 22.6679 11.3115 23.0767 11.3115 23.581C11.3115 24.0853 11.7203 24.4941 12.2246 24.4941Z" fill="#C8102E"/>
<path d="M12.2246 18.1024C9.19897 18.1024 6.74634 20.5553 6.74634 23.5811C6.74634 26.6067 9.19897 29.0594 12.2246 29.0594C14.0717 29.0594 15.7051 28.1453 16.6978 26.7449C16.4896 26.6715 16.2782 26.5849 16.0687 26.4885C15.1885 27.6501 13.7945 28.4007 12.2246 28.4007C9.56271 28.4007 7.40463 26.2427 7.40463 23.5811C7.40463 20.9189 9.56271 18.7609 12.2246 18.7609C13.1139 18.7609 13.9472 19.0023 14.6623 19.4225C14.6557 19.1837 14.6545 18.9379 14.6733 18.6792C13.9365 18.3102 13.1048 18.1024 12.2246 18.1024Z" fill="#C8102E"/>
<path d="M18.3138 26.9572C17.96 27.0419 17.5034 26.9884 17.0132 26.8466C15.9697 28.3739 14.2143 29.3767 12.2248 29.3767C9.02438 29.3767 6.42927 26.782 6.42927 23.5811C6.42927 23.4784 6.43219 23.3766 6.43705 23.2755C6.25786 23.5474 6.30954 23.9961 5.99176 23.9961C5.73972 23.9961 5.87942 23.6528 5.69496 23.6528C5.58015 23.6528 5.56407 23.8103 5.42134 23.8103C5.40462 23.8103 5.38978 23.8043 5.37897 23.8043C5.34831 23.8043 5.33466 23.8709 5.27651 23.8709C5.20232 23.8709 5.15023 23.7833 5.0913 23.7833C5.02485 23.7833 5.00368 23.9101 4.91554 23.9101C4.82516 23.9101 4.73766 23.7588 4.70239 23.6896C4.76058 27.7952 8.10616 31.1049 12.2249 31.1049C15.377 31.1049 18.0758 29.1666 19.1958 26.4169C18.352 26.1617 17.5455 25.7311 17.5455 25.7311C17.597 26.2339 18.3138 26.9572 18.3138 26.9572ZM5.44793 20.7044C5.6217 20.848 5.48319 21.0992 5.6079 21.2721C6.56228 18.5368 9.16435 16.574 12.2249 16.574C13.2251 16.574 14.1762 16.7841 15.0369 17.1617C15.1032 17.0023 15.1763 16.8459 15.2562 16.693C14.3286 16.2841 13.3033 16.0567 12.2249 16.0567C9.06346 16.0567 6.35826 18.0069 5.24443 20.7693C5.30639 20.81 5.37463 20.6438 5.44793 20.7044ZM21.4124 12.9717H25.5521C30.8404 12.9717 33.1559 11.081 34.0679 9.40507C34.1205 9.30429 34.0558 9.28316 33.9553 9.37246C32.804 10.4054 31.0862 12.2083 24.0722 12.2083H21.1123C16.4563 12.2083 14.703 14.3077 14.2457 15.7079C14.4774 15.7674 14.7064 15.837 14.9319 15.9166C15.7596 14.4264 17.3371 12.9717 21.4124 12.9717Z" fill="#C8102E"/>
<path d="M21.3151 14.0392C17.1724 14.0392 14.7862 16.8844 15.0593 19.6029C15.2628 21.6283 14.1294 23.2739 14.1294 23.2739C14.1294 23.2739 15.7104 22.558 15.7104 19.6738C15.7104 16.94 18.4299 14.9503 20.7219 14.9503C22.9383 14.9503 25.5099 14.9642 26.7851 14.9642C33.5472 14.9642 35.1834 11.8402 35.4164 11.2306C35.4574 11.1392 35.3982 11.1577 35.376 11.2002C33.9642 13.1041 31.9873 14.1914 26.623 14.1914C23.1772 14.1914 22.0875 14.0392 21.3151 14.0392Z" fill="#C8102E"/>
<path d="M22.8597 16.4065C21.7411 16.4065 21.6287 16.7178 21.6287 16.7178C21.5934 16.7613 21.6114 16.8632 21.533 16.8929C21.2775 16.9916 20.9947 16.7799 20.7747 17.0646C20.6419 17.2365 20.3196 17.0245 20.1105 17.1459C20.0635 17.1734 20.1113 17.2925 20.1476 17.3082C20.2455 17.3512 20.4071 17.3385 20.4678 17.389C20.532 17.4416 20.5263 17.5169 20.5859 17.5609C20.6597 17.615 20.7983 17.6391 20.86 17.7244C20.9082 17.79 20.9236 17.9205 20.9936 17.9243C22.6729 18.0197 24.3967 18.0194 25.9902 17.402C26.1706 17.1178 24.4269 16.4065 22.8597 16.4065ZM16.2594 20.1095C16.2815 20.2719 16.2391 20.5214 16.2728 20.5246C17.4416 20.6522 18.6281 20.4444 19.7097 19.9479C20.0107 19.8202 18.5351 19.0519 17.3075 19.0519C16.9086 19.0519 16.6369 19.2216 16.6369 19.2216C16.5685 19.261 16.5136 19.4213 16.4341 19.5408C16.3748 19.6296 16.4883 19.7686 16.4407 19.8259C16.3525 19.9321 16.2437 19.9971 16.2594 20.1095V20.1095ZM17.8578 17.2643C17.8013 17.2738 17.7588 17.3656 17.7169 17.4252C17.6108 17.5745 17.2748 17.5415 17.2776 17.7115C17.2814 18.0214 16.9362 18.0781 16.8813 18.3013C16.8385 18.4763 16.7444 18.6085 16.7315 18.7967C17.9717 18.8034 19.2474 18.7235 20.3468 18.0921C20.6342 17.9612 18.8326 17.1234 17.8578 17.2643ZM21.8062 16.2011C21.716 15.8413 21.2795 15.774 20.9819 15.5999C20.8639 15.5308 20.7254 15.5623 20.5891 15.6208C20.2937 15.7477 19.914 15.5323 19.6092 15.7513C19.5224 15.8144 19.4759 15.9316 19.3637 15.9606C19.2244 15.9968 19.0839 16.0026 18.9417 16.0206C18.8895 16.0279 18.7916 16.0631 18.798 16.1223C18.8265 16.3753 18.5911 16.428 18.4044 16.4933C18.2219 16.5575 18.2867 16.7982 18.281 16.9756C19.4892 16.9909 20.7461 16.8207 21.8062 16.2011ZM15.6467 22.1668C15.9573 22.3283 17.4595 22.1113 18.2427 21.6246C17.4382 20.9422 16.1507 20.6946 16.1507 20.6946C15.9722 21.1817 15.7875 21.6665 15.6467 22.1668V22.1668Z" fill="#C8102E"/>
<path d="M15.4215 22.4512C15.2748 22.5292 15.1066 22.7506 15.2397 22.8406C15.478 23.0022 15.8735 23.3642 17.6977 23.3642C19.474 23.3642 20.1498 22.8152 20.4859 22.4744C20.4859 22.2544 18.9232 21.8043 18.7134 21.9265C18.649 21.9584 18.6413 22.023 18.6326 22.0514C18.5625 22.0789 18.3455 22.0823 18.2939 22.12C18.1727 22.2089 18.1968 22.354 18.1645 22.3626C17.8873 22.4315 17.5437 22.2569 17.2812 22.3765C17.2108 22.409 17.2169 22.6048 17.1236 22.612C16.9336 22.6263 16.7244 22.5133 16.5433 22.5711C16.5111 22.5817 16.4132 22.5959 16.3489 22.6364C16.2495 22.5854 16.1966 22.573 16.0666 22.5416C15.9705 22.518 15.8776 22.5841 15.7599 22.5641C15.6496 22.5449 15.5258 22.3957 15.4215 22.4512ZM22.6244 21.1687C22.9525 20.998 23.3473 20.9818 23.5883 20.6559C22.1158 19.8869 20.3964 19.9665 20.1864 20.088C20.1346 20.1183 20.0742 20.2255 20.0084 20.2675C19.9074 20.3338 19.8136 20.3019 19.7466 20.3689C19.7065 20.409 19.7506 20.515 19.7223 20.5543C19.6853 20.6062 19.6037 20.6154 19.5529 20.6429C19.5011 20.6712 19.3919 20.625 19.3106 20.6593C19.2296 20.6937 19.2263 20.7696 19.1733 20.7964C18.9759 20.8971 18.6893 20.7804 18.5533 20.7825C18.4832 20.7837 18.5014 20.8943 18.524 20.9165C18.612 21.0038 18.8667 21.0303 18.8569 21.1595C18.8547 21.186 18.7937 21.2761 18.7551 21.2811C18.8901 21.5693 20.146 21.9515 21.798 21.4035C22.0739 21.3205 22.3591 21.3066 22.6244 21.1687V21.1687ZM24.5037 19.0463C24.6388 18.9558 24.8111 18.9548 24.8915 18.8269C25.0698 18.5955 23.3495 18.2131 22.6515 18.2131C21.9578 18.2131 20.6769 18.3871 20.4571 18.4643C20.3661 18.5022 20.3612 18.6879 20.2544 18.7011C20.0487 18.7264 19.8449 18.7514 19.638 18.7687C19.5699 18.7743 19.587 18.8833 19.6082 18.9C19.7428 19.0087 19.7844 19.076 19.8411 19.2424C19.8467 19.2581 19.9864 19.2443 20.017 19.2703C20.1514 19.3864 20.2474 19.5515 20.4158 19.5924C21.2305 19.7878 22.0179 19.8418 22.8519 19.648C22.9412 19.6275 23.0066 19.5549 23.0863 19.5451C23.3788 19.5073 23.6833 19.4896 23.9101 19.2736C24.0701 19.1209 24.3255 19.1664 24.5037 19.0463ZM26.4824 15.5243C26.5303 15.4946 26.4913 15.3397 26.4512 15.3338C26.2644 15.3054 26.0621 15.2299 25.86 15.4113C25.7916 15.473 25.6643 15.3402 25.5697 15.3974C25.4931 15.4429 25.4176 15.5654 25.3465 15.5971C25.1527 15.6832 24.9647 15.4819 24.7508 15.5069C24.688 15.5139 24.7033 15.6535 24.6409 15.6681C24.4569 15.7116 24.2962 15.5113 24.1924 15.5786C24.0334 15.6811 23.8999 15.8116 23.7076 15.725C23.5229 15.6411 23.279 15.4666 23.1527 15.5765C22.9334 15.7681 22.6666 15.4905 22.4738 15.5653C22.3104 15.6286 21.871 15.7333 22.1707 15.9071C23.1018 16.4708 25.0461 16.3588 26.4824 15.5243V15.5243ZM17.2528 26.0943C17.2041 26.0061 17.0782 26.0534 16.9916 26.0024C16.9287 25.9643 16.8986 25.8333 16.837 25.7826C16.7894 25.7434 16.6745 25.8323 16.6154 25.7978C16.5317 25.7486 16.4677 25.6425 16.4023 25.5694C16.3296 25.4887 16.2628 25.401 16.1912 25.3202C16.1241 25.2443 16.0524 25.1749 15.9668 25.1242C15.9207 25.097 15.8313 25.1558 15.7756 25.1413C15.6771 25.115 15.6197 24.9437 15.5391 24.8721C15.4928 24.8311 15.4189 24.8254 15.3779 24.7865C15.336 24.7461 15.327 24.6719 15.283 24.6231C15.2247 24.5592 15.1394 24.5364 15.0764 24.4848C14.9911 24.415 14.9271 24.238 14.8614 24.1406C14.7957 24.0431 14.6985 24.0323 14.6354 23.9469C14.5563 23.8399 14.51 23.66 14.4133 23.5517C14.3165 23.4422 14.074 23.6169 14 23.7644C13.8784 24.0056 13.8855 24.312 14.0709 24.5188C14.9825 25.5372 16.1663 26.3819 17.5212 26.6049C17.4201 26.4592 17.3136 26.205 17.2528 26.0943ZM20.2506 25.7534C20.1126 25.715 19.9916 25.6387 19.8651 25.5865C19.7871 25.5544 19.712 25.6754 19.6279 25.6254C19.4579 25.5239 19.3116 25.3784 19.1762 25.2702C19.0689 25.1843 18.8537 24.9688 18.7611 25.0122C18.7247 25.0284 18.6724 25.2286 18.5845 25.1627C18.3726 25.004 18.235 24.8332 18.0373 24.66C17.9466 24.5811 17.8603 24.8417 17.7454 24.7865C17.4809 24.658 17.3745 24.3714 17.1711 24.1684C16.9338 23.9321 16.7069 23.6583 16.3804 23.5717C16.3262 23.5575 16.356 23.6366 16.3052 23.6763C16.0558 23.8711 15.7813 23.5385 15.5391 23.4274C15.3169 23.3248 15.1214 23.162 14.8715 23.145C14.8184 23.1411 14.8208 23.2211 14.841 23.2448C16.2649 24.9292 18.2406 26.1929 20.4107 26.142C20.4611 26.1408 20.5638 26.1465 20.4793 26.0419C20.4118 25.959 20.3361 25.7772 20.2506 25.7534ZM22.2661 24.5264C22.2027 24.5171 22.1042 24.6027 22.0493 24.5923C21.881 24.5608 21.7479 24.4096 21.5437 24.3018C21.4595 24.2574 21.4157 24.4564 21.3497 24.4522C21.0112 24.4329 20.5221 24.074 20.2199 23.893C20.1664 23.8607 19.8434 23.9251 19.7899 23.9359C19.5956 23.975 19.3484 23.6348 19.1957 23.5631C19.0799 23.5091 18.9188 23.452 18.8089 23.5343C18.6599 23.6452 18.4828 23.5857 18.3195 23.5835C18.2563 23.5821 18.2004 23.7169 18.1218 23.7416C17.8992 23.813 17.6528 23.6582 17.4343 23.7672C17.428 23.7702 17.3982 23.8159 17.3999 23.8317C17.4149 23.9687 17.5679 23.9917 17.6688 24.0532C19.2335 25.0458 21.65 25.3672 22.9964 25.066C23.027 25.0566 22.9794 24.9415 22.8886 24.8721C22.7947 24.8 22.6562 24.7729 22.5978 24.732C22.4619 24.6368 22.3895 24.545 22.2661 24.5264ZM25.416 23.082C25.2504 23.1311 25.1223 23.0096 24.9847 23.0622C24.9531 23.0745 24.9315 23.1266 24.9052 23.1269C24.6458 23.132 24.4729 22.8528 24.2088 22.8739C24.1434 22.879 24.1447 22.9947 24.0891 23.0078C23.9264 23.0459 23.7821 22.849 23.6354 22.9197C23.5308 22.9708 23.4571 22.967 23.3569 22.9376C23.2269 22.8994 23.1304 22.7839 23.0049 22.7641C22.8939 22.7467 22.7849 22.8567 22.6598 22.8202C22.3485 22.7296 22.1072 22.4337 21.773 22.5046C21.6081 22.5395 21.4662 22.4266 21.3523 22.4949C21.2273 22.5689 21.1918 22.6591 21.0651 22.7343C20.9794 22.7864 20.7785 22.7798 20.6886 22.8343C20.6206 22.876 20.6033 22.981 20.5254 23.0132C20.3792 23.0736 20.2062 23.0307 20.0693 23.1082C20.0532 23.1171 20.0442 23.1936 20.1029 23.21C21.3788 23.6424 23.4438 24.1182 25.9105 23.4781C25.9866 23.4549 26.0024 23.4094 25.9405 23.338C25.805 23.1813 25.6189 23.0216 25.416 23.082ZM28.368 20.9201C28.15 21.0215 27.8976 20.9089 27.656 20.9663C27.5928 20.9812 27.6412 21.0712 27.5781 21.0801C27.3412 21.1136 27.0954 21.0531 26.8734 21.1398C26.6997 21.2073 26.4913 21.1306 26.3002 21.1355C26.2274 21.1374 26.2258 21.2349 26.2145 21.3139C26.2043 21.3809 26.1031 21.421 26.0733 21.4122C25.8365 21.3418 25.6096 21.3163 25.3695 21.2811C24.7666 21.192 24.1697 21.0003 23.6029 21.1696C23.4179 21.2252 23.1727 21.2715 23.031 21.4154C22.9766 21.4711 22.9186 21.5811 22.8461 21.6076C22.4992 21.7337 22.1214 21.7572 21.7757 21.8803C21.6712 21.9171 21.4722 22.0637 21.5466 22.0829C21.5466 22.0829 22.6132 22.3925 23.7769 22.3925C26.0166 22.3925 27.7239 21.8415 28.9729 21.1601C28.9012 21.0696 28.5332 20.8433 28.368 20.9201ZM30.8257 18.4672C30.6883 18.5125 30.5009 18.3828 30.3834 18.4694C30.208 18.5988 30.002 18.5754 29.8219 18.5568C29.736 18.5477 29.6013 18.5175 29.5253 18.5769C29.4761 18.6156 29.5467 18.6776 29.5928 18.7191C29.1395 18.8751 28.6394 18.7282 28.2095 18.9027C28.1773 18.9158 28.1579 19.0736 28.0785 19.0895C27.6839 19.1692 27.3146 19.0142 26.9232 19.0859C26.8237 19.1043 26.8679 19.3149 26.7638 19.3199C26.4124 19.3371 26.0701 19.3076 25.7191 19.293C25.3016 19.2756 24.917 19.427 24.523 19.5478C24.4057 19.583 24.3706 19.7693 24.2445 19.7884C23.9039 19.8403 23.5572 19.7807 23.2466 19.9341C23.2257 19.9444 23.2243 20.0488 23.2472 20.0612C23.6279 20.2763 24.0641 20.4248 24.3243 20.7726C26.9733 20.7448 29.8238 20.3985 32.0294 18.5901C32.0729 18.5548 31.8116 18.5003 31.671 18.4677C31.5339 18.4359 31.4211 18.4359 31.2548 18.3816C31.1069 18.3328 30.9703 18.4199 30.8257 18.4672ZM33.5761 15.9758C33.5492 15.9596 33.1483 15.8874 32.9266 15.9395C32.8792 15.9507 32.8511 16.028 32.8067 16.0352C32.5204 16.0811 32.3188 16.2178 32.028 16.2268C31.9672 16.2282 31.8365 16.2715 31.7582 16.3087C31.6527 16.3596 31.5082 16.2359 31.4258 16.3282C31.3727 16.3878 31.4653 16.5309 31.3688 16.5764C31.1156 16.6956 30.8196 16.4817 30.5716 16.6434C30.4994 16.6901 30.6479 16.8482 30.5548 16.8777C30.1983 16.9891 29.5818 16.4357 29.3485 17.0103C29.3122 17.1005 29.2005 17.0597 29.1308 17.0416C29.0633 17.0241 28.9679 16.9929 28.9278 17.0263C28.7094 17.2041 28.581 17.275 28.2739 17.1888C28.1962 17.1664 28.1948 17.3975 28.0439 17.3607C27.8713 17.3192 27.7054 17.1947 27.5477 17.2652C27.4743 17.298 27.5284 17.4899 27.4215 17.5003C26.9922 17.5412 26.5496 17.4794 26.154 17.6551C26.0564 17.6987 26.0474 17.8742 25.9107 17.8967C25.6096 17.9465 25.3094 17.9114 25.0281 18.0027C24.9825 18.0173 24.9931 18.1514 25.0627 18.1615C25.2431 18.1883 25.448 18.1603 25.5864 18.2428C25.7562 18.3442 25.8639 18.6301 26.0309 18.6368C29.4328 18.7026 31.8903 17.4835 33.5761 16.0775C33.6428 16.0196 33.6082 15.9955 33.5761 15.9758ZM32.7422 13.9803C32.6912 14.0035 32.7074 14.1718 32.6101 14.217C32.4427 14.294 32.2522 14.2918 32.0733 14.3461C32.0055 14.3672 32.0093 14.4572 31.9528 14.4924C31.8577 14.553 31.7289 14.5027 31.6594 14.554C31.2297 14.8689 30.7188 14.7276 30.2416 14.8065C30.2491 15.1662 29.6813 14.9465 29.4486 15.1031C29.1944 15.2734 29.2282 15.2269 28.85 15.2304C28.7325 15.2317 28.796 15.4051 28.7014 15.4071C28.3999 15.4125 28.0102 15.3168 27.7854 15.3822C27.745 15.3939 27.7319 15.584 27.6519 15.6055C27.4878 15.6494 27.3156 15.6672 27.1584 15.7169C27.0367 15.7554 27.1958 15.9854 27.0328 16.0371C26.7559 16.1247 26.4509 16.0608 26.1717 16.219C26.0621 16.2816 25.9013 16.2226 25.759 16.2487C25.638 16.2704 25.5917 16.3976 25.6906 16.4534C25.7801 16.5038 25.9295 16.4907 26.0176 16.5342C26.2222 16.6351 26.3919 16.7811 26.6117 16.795C30.2055 17.0161 34.854 14.4615 35.5862 11.3673C35.6117 11.2428 35.5546 11.2658 35.5292 11.3352C34.7495 13.1918 32.7422 13.9803 32.7422 13.9803Z" fill="#C8102E"/>
</svg>
