<svg width="24" height="24" viewBox="0 0 24 24" fill="none" xmlns="http://www.w3.org/2000/svg">
<path d="M19.0386 17.6485C18.8099 17.6485 18.6243 17.8339 18.6243 18.0627C18.6243 18.2913 18.8099 18.4769 19.0386 18.4769C19.2673 18.4769 19.4527 18.2913 19.4527 18.0627C19.4527 17.8339 19.2673 17.6485 19.0386 17.6485ZM19.0386 18.3881C18.9959 18.3881 18.9536 18.3797 18.9141 18.3634C18.8746 18.347 18.8387 18.3231 18.8085 18.2929C18.7783 18.2626 18.7543 18.2268 18.738 18.1873C18.7217 18.1478 18.7133 18.1055 18.7133 18.0627C18.7133 17.883 18.8587 17.7376 19.0386 17.7376C19.2184 17.7376 19.3639 17.8829 19.3639 18.0627C19.3639 18.2425 19.2184 18.3881 19.0386 18.3881ZM19.2089 17.9667C19.2088 17.9482 19.2052 17.93 19.1981 17.9129C19.1911 17.8959 19.1807 17.8804 19.1676 17.8674C19.1546 17.8544 19.1391 17.844 19.1221 17.837C19.105 17.8299 19.0867 17.8263 19.0683 17.8263H18.8687V18.2992H18.9574V18.1071H19.0211L19.1107 18.2992H19.2089L19.1152 18.0989C19.1426 18.0892 19.1662 18.0713 19.183 18.0476C19.1998 18.024 19.2088 17.9957 19.2089 17.9667ZM19.0683 18.0184H18.9574V17.9149H19.0683C19.0968 17.9149 19.1201 17.9381 19.1201 17.9667C19.1201 17.9804 19.1146 17.9936 19.1049 18.0033C19.0952 18.0129 19.082 18.0184 19.0683 18.0184ZM20.0403 11.9042L21.5178 10.352L20.6786 6.48329L16.946 5.37497L16.6103 5.68617C15.3621 5.31367 13.1172 4.92832 11.6176 4.93094C6.06205 4.94061 1.69705 8.02982 1.68018 11.9635C1.68018 15.3291 4.58299 19.0691 11.665 19.0691C17.2765 19.0691 22.3202 15.3334 22.3202 15.3334L20.0403 11.9042Z" fill="white"/>
<path d="M19.547 11.8612L21.096 10.2339L20.3489 6.78878L17.0474 5.8087L16.7089 6.12239C15.5945 5.75466 13.212 5.31513 11.6179 5.31792C6.19986 5.32731 2.08277 8.29927 2.06695 11.9654C2.05055 15.8085 5.77796 18.682 11.6649 18.682C15.7844 18.682 20.0051 16.4831 21.7887 15.2331L19.547 11.8612L19.547 11.8612Z" fill="#001E62"/>
<path d="M12.2742 13.1651H11.374V13.9283L12.2742 13.9272V13.1651ZM17.7494 12.1508C17.0499 11.5348 16.0313 10.8896 14.7416 10.5759V13.4326C15.715 13.1635 16.783 12.7067 17.7494 12.1508V12.1508ZM8.86095 13.5446V10.4485C7.96686 10.707 6.96484 11.213 6.96484 12.0143C6.96484 12.5629 7.81167 13.225 8.86095 13.5446ZM11.3942 10.822H12.2691V10.0969L11.3942 10.0613V10.822Z" fill="white"/>
<path d="M18.9677 12.2199C18.9677 12.2199 16.6296 13.8152 14.0519 14.2968V9.76704C16.8509 10.1192 18.5088 11.9491 18.5088 11.9491L20.3738 10.0214L19.7749 7.31756L17.2264 6.57227L16.9032 6.92467C15.8691 6.52052 13.7356 5.99686 11.3703 5.99686C6.63485 5.99686 2.76768 8.6799 2.76075 11.9911C2.7539 15.2158 6.03627 18.0074 11.3344 18.0074C16.2291 18.0074 19.762 15.6758 20.8685 15.0508L18.9677 12.2199ZM10.8896 11.3666V9.5112C11.5371 9.4787 12.2557 9.51242 12.764 9.57306V11.3666L10.8896 11.3666ZM12.764 12.5936V14.4619C12.2368 14.5247 11.433 14.5402 10.8896 14.5001V12.5936H12.764ZM9.54437 9.61903V14.3723C8.76412 14.3723 6.2738 13.4566 6.2738 12.0141C6.2738 10.231 8.81858 9.7386 9.54437 9.61903Z" fill="white"/>
<path d="M18.8312 12.89C15.7717 14.6866 13.7356 15.0354 11.2514 15.0121C7.75996 14.9791 5.77162 13.5823 5.77162 11.9186C5.77162 10.4187 7.59561 8.98916 11.3219 8.98916C13.8289 8.98916 16.8522 9.661 18.4667 11.2524L19.811 9.88238L19.352 7.70798L17.3698 7.12879L17.0099 7.53548C15.9235 7.09998 14.0873 6.49787 11.2627 6.49787C7.00078 6.49787 3.26318 8.95956 3.26318 11.9397C3.26318 15.0528 6.5176 17.4939 11.1366 17.4939C15.821 17.4939 18.5707 15.7279 20.1588 14.8948L18.8312 12.89L18.8312 12.89Z" fill="#A6192E"/>
</svg>
