<svg width="24" height="24" viewBox="0 0 24 24" fill="none" xmlns="http://www.w3.org/2000/svg">
<path d="M19.7672 19.5532C19.5095 19.5532 19.3003 19.762 19.3003 20.0199C19.3003 20.2774 19.5095 20.4866 19.7672 20.4866C20.0248 20.4866 20.2337 20.2774 20.2337 20.0199C20.2337 19.762 20.0248 19.5532 19.7672 19.5532ZM19.7672 20.3865C19.719 20.3865 19.6713 20.3771 19.6268 20.3587C19.5823 20.3403 19.5419 20.3133 19.5079 20.2792C19.4738 20.2452 19.4468 20.2047 19.4284 20.1602C19.41 20.1157 19.4005 20.0681 19.4006 20.0199C19.4006 19.8174 19.5644 19.6536 19.7672 19.6536C19.9697 19.6536 20.1337 19.8174 20.1337 20.0199C20.1337 20.2225 19.9697 20.3865 19.7672 20.3865ZM19.9589 19.9117C19.9589 19.8909 19.9548 19.8704 19.9468 19.8512C19.9389 19.832 19.9272 19.8145 19.9125 19.7999C19.8978 19.7852 19.8803 19.7735 19.8611 19.7656C19.8419 19.7577 19.8213 19.7536 19.8006 19.7536H19.5757V20.2863H19.6756V20.07H19.7474L19.8484 20.2863H19.9589L19.8535 20.0607C19.8843 20.0498 19.9109 20.0296 19.9298 20.0029C19.9487 19.9763 19.9588 19.9444 19.9589 19.9117ZM19.8006 19.97H19.6756V19.8534H19.8006C19.8327 19.8534 19.859 19.8795 19.859 19.9117C19.8589 19.9272 19.8527 19.942 19.8418 19.9529C19.8308 19.9638 19.816 19.97 19.8006 19.97Z" fill="#003087"/>
<path d="M12.0002 2.04395C6.30037 2.04395 1.68018 6.50149 1.68018 12.0002C1.68018 17.4987 6.3004 21.956 12.0002 21.956C17.6998 21.956 22.3202 17.4987 22.3202 12.0002C22.3202 6.50146 17.6998 2.04395 12.0002 2.04395H12.0002Z" fill="#003087"/>
<path d="M12 2.7775C6.70595 2.7775 2.41455 6.90664 2.41455 12.0002C2.41455 17.0934 6.70595 21.2226 12 21.2226C17.2937 21.2226 21.5854 17.0934 21.5854 12.0002C21.5854 6.90664 17.2937 2.7775 12 2.7775Z" fill="#FC4C02"/>
<path d="M5.00161 14.1913V13.5892L4.40674 13.0668V14.2288C4.58822 14.1804 4.81179 14.2423 5.00161 14.1913Z" fill="#003087"/>
<path d="M20.9758 11.4524C20.1317 11.7485 19.0806 12.0939 18.266 12.3738C17.9917 12.3291 17.8041 12.4827 17.6094 12.6115C17.3192 12.7369 16.9535 12.6866 16.6671 12.8085C16.4002 13.0291 16.0049 13.1223 15.6772 12.9825C15.5892 12.8822 15.4733 12.7607 15.3347 12.7925C15.117 12.8141 15.0715 13.2089 14.8019 13.0031C14.6355 13.0907 14.4901 13.2126 14.3062 13.2569L14.0294 13.3254L13.9252 13.5475L13.8303 13.7492L13.7667 13.8847L13.672 14.0864L13.6084 14.2221L13.5132 14.4239L13.4494 14.5595L13.3549 14.7613L12.5925 16.3844C12.569 16.4346 12.5344 16.4788 12.4914 16.5137C12.4483 16.5486 12.398 16.5734 12.3441 16.5863L11.1151 16.8791C11.1209 16.885 11.1272 16.8903 11.1309 16.8977L11.9441 18.5862V17.0446C11.944 17.0337 11.9463 17.023 11.9507 17.0131C11.9552 17.0031 11.9616 16.9943 11.9698 16.9871C11.9779 16.9799 11.9874 16.9744 11.9978 16.9712C12.0081 16.968 12.0191 16.967 12.0299 16.9683L12.4711 17.0203C12.4898 17.0224 12.5071 17.0314 12.5196 17.0454C12.5321 17.0595 12.539 17.0776 12.5389 17.0964V19.8846C12.5389 19.9251 12.5073 19.9588 12.4666 19.9611L11.9746 19.9904C11.9598 19.9913 11.945 19.9878 11.9321 19.9804C11.9191 19.973 11.9087 19.962 11.9019 19.9487L10.9397 18.0727V19.8597C10.9397 19.8707 10.9374 19.8816 10.9328 19.8916C10.9282 19.9016 10.9216 19.9105 10.9133 19.9177C10.9051 19.9249 10.8954 19.9303 10.8849 19.9334C10.8745 19.9366 10.8635 19.9374 10.8526 19.936L10.4113 19.8755C10.3929 19.8729 10.376 19.8638 10.3638 19.8498C10.3516 19.8357 10.3449 19.8177 10.345 19.7991V17.0626L9.82976 17.1854L10.238 19.7715C10.2396 19.7818 10.2385 19.7924 10.2349 19.8021C10.2312 19.8119 10.2252 19.8206 10.2172 19.8274C10.2092 19.8343 10.1996 19.839 10.1892 19.8411C10.1789 19.8432 10.1682 19.8425 10.1582 19.8392L9.66359 19.6783C9.6528 19.6748 9.64318 19.6684 9.63584 19.6597C9.6285 19.6511 9.62371 19.6406 9.62202 19.6294L9.52871 19.0434L8.88157 18.8325L8.75958 19.3151C8.75743 19.3232 8.75369 19.3308 8.74857 19.3374C8.74344 19.3441 8.73704 19.3496 8.72974 19.3538C8.72235 19.3577 8.71424 19.3602 8.70588 19.361C8.69753 19.3618 8.6891 19.3609 8.68108 19.3584L8.20792 19.2048C8.19305 19.2 8.18057 19.1897 8.17303 19.1761C8.1655 19.1624 8.16348 19.1464 8.16738 19.1312L8.59045 17.4808L8.18057 17.5787C8.16198 17.583 8.14269 17.5835 8.12391 17.58C8.10512 17.5766 8.08725 17.5693 8.0714 17.5587C8.05547 17.548 8.04194 17.5341 8.03166 17.5179C8.02139 17.5018 8.0146 17.4836 8.01172 17.4647L7.75987 15.812C7.75712 15.7938 7.758 15.7754 7.76245 15.7576C7.7669 15.7398 7.77483 15.7231 7.78579 15.7085C7.79675 15.6938 7.81051 15.6814 7.82629 15.6721C7.84206 15.6628 7.85952 15.6567 7.87766 15.6542L12.0089 15.0855C12.0687 15.0773 12.1255 15.0546 12.1744 15.0193C12.2234 14.984 12.2629 14.9372 12.2894 14.8831L12.5513 14.3515L12.6498 14.1515L12.7159 14.0172L12.8142 13.8171L12.8805 13.683L12.9787 13.483L13.0052 13.4295C12.813 13.4174 12.5309 13.5625 12.3873 13.5948C12.1691 13.6609 11.8388 13.5493 11.7593 13.8371C11.6316 13.9318 11.421 13.9589 11.2709 13.8861C11.0931 13.6133 10.7827 13.8407 10.5772 13.8441C10.2499 13.8939 9.98984 13.621 9.68456 13.7769C9.28983 14.0147 8.81863 13.5699 8.48641 13.9454C8.27469 13.9614 8.07604 13.8611 7.84845 13.877C7.51492 13.8759 7.22703 13.9809 6.91625 14.0365C6.56511 14.2676 6.08249 14.1561 5.67797 14.1262C5.47436 14.2084 5.22229 14.1856 5.00142 14.1913V16.4099C5.00142 16.541 4.93372 16.5777 4.82816 16.4256L4.40655 15.8199V14.2288C4.26878 14.1573 4.15295 14.3335 4.02539 14.3881C3.89779 14.4486 3.78576 14.3437 3.73184 14.2391C3.73184 14.1831 3.69286 14.1331 3.6371 14.1047C3.57096 14.0943 3.45571 14.1322 3.355 14.1711C3.31279 14.0162 3.27522 13.86 3.24234 13.7029C3.32713 13.6496 3.43061 13.5778 3.40086 13.4822C3.34461 13.3662 3.19119 13.3773 3.15181 13.2374C3.16848 13.0986 3.20921 12.9164 3.37445 12.8834C3.49697 12.7675 3.48123 12.5341 3.44336 12.3738C3.33266 12.2292 3.18295 12.1117 3.24359 11.9072C3.24359 11.8523 3.18752 11.7852 3.24409 11.735C3.37793 11.6804 3.51075 11.8068 3.6053 11.8967C3.69397 11.9149 3.71694 11.8135 3.75427 11.7636C3.78762 11.6929 3.73227 11.6087 3.66065 11.5916C3.59974 11.6076 3.54305 11.5634 3.54059 11.5077C3.56293 11.4142 3.59401 11.3253 3.70088 11.2992C3.81612 11.2591 3.92847 11.3036 4.02187 11.3652C4.13226 11.4653 4.12075 11.626 4.23238 11.7099C4.3759 11.577 4.2666 11.3047 4.4338 11.1776C4.67228 11.0726 4.90407 10.8952 5.19348 10.9404C5.27157 11.091 5.21921 11.3688 5.46861 11.3801C5.5369 11.3196 5.54235 11.1636 5.67016 11.2252C5.78207 11.2708 5.77488 11.4642 5.90789 11.4368C6.04226 11.1876 5.78733 10.9816 5.82003 10.7437C5.99892 10.6265 6.2361 10.7276 6.36316 10.8665C6.42006 10.9827 6.1968 11.0488 6.35112 11.1445C6.57367 11.0612 6.67345 11.3172 6.86964 11.2673C6.99587 11.0351 7.26726 11.0074 7.49423 11.0691C7.82797 11.0647 8.02149 11.5646 8.37027 11.3665C8.56049 11.2387 8.92995 11.4164 8.98776 11.1122C8.96505 10.9794 9.05957 10.8563 9.17244 10.8201C9.35999 10.7628 9.53652 11.152 9.69311 10.8587C9.98511 10.976 10.3293 10.9712 10.6505 11.0226C11.1447 11.2845 11.7946 11.2476 12.3523 11.2649C12.8372 11.5225 13.5265 11.1552 14.0814 11.2434L14.341 10.7158L12.1666 6.03244V10.3869C12.1666 10.4236 12.152 10.4587 12.1261 10.4846C12.1002 10.5106 12.0651 10.5251 12.0284 10.5252H9.91401C9.89014 10.5252 9.86668 10.519 9.8459 10.5073C9.82513 10.4955 9.80775 10.4786 9.79547 10.4581L8.40729 8.14287V10.3869C8.40728 10.4236 8.39273 10.4587 8.36683 10.4846C8.34093 10.5106 8.3058 10.5252 8.26915 10.5252H6.38425C6.36609 10.5252 6.34811 10.5216 6.33133 10.5147C6.31455 10.5077 6.2993 10.4976 6.28646 10.4847C6.27361 10.4719 6.26343 10.4566 6.25648 10.4399C6.24953 10.4231 6.24595 10.4051 6.24596 10.3869V5.36585C4.26539 6.9493 3.00439 9.33306 3.00439 12.0002C3.00439 16.7672 7.03155 20.6316 12.0001 20.6316C16.9683 20.6316 20.9957 16.7672 20.9957 12.0002C20.9957 11.816 20.9877 11.6337 20.9758 11.4524V11.4524ZM6.7428 16.0836C6.7428 16.1875 6.67796 16.2737 6.54545 16.1543L6.23239 15.8728C6.16612 15.8127 6.14802 15.7597 6.14802 15.6898V15.5695C6.14802 15.4977 6.11942 15.4374 6.07643 15.3969L5.90966 15.247C5.80718 15.1546 5.78425 15.2826 5.78425 15.2826V15.371C5.78425 15.4709 5.8428 15.5487 5.8428 15.5487L6.49741 16.4004C6.62995 16.5732 6.7428 16.8291 6.7428 17.0825V17.5933C6.7428 18.0382 6.55606 18.2258 6.34001 18.0331L5.4505 17.2319C5.26893 17.0683 5.18947 16.8248 5.18947 16.704V16.2405C5.18947 16.0891 5.21912 16.042 5.27795 16.0986L5.66645 16.4536C5.7256 16.5015 5.78425 16.5995 5.78425 16.6552V16.7577C5.78425 16.8399 5.77818 16.9351 5.83826 16.9812L6.00636 17.1248C6.06827 17.1806 6.14805 17.1888 6.14805 17.0984V16.9859C6.14805 16.9167 6.13156 16.8599 6.08766 16.8031L5.31015 15.7878C5.24102 15.6975 5.1895 15.6071 5.1895 15.4537V14.6546C5.1895 14.4623 5.42116 14.1997 5.75369 14.4992L6.61265 15.2724C6.66635 15.3208 6.7428 15.4268 6.7428 15.6033V16.0836ZM8.10164 19.036C8.10161 19.0495 8.098 19.0628 8.09119 19.0745C8.08438 19.0862 8.0746 19.0958 8.06284 19.1025C8.03879 19.1162 8.00936 19.1159 7.98559 19.102L7.03578 18.5387C7.02433 18.5319 7.01484 18.5222 7.00826 18.5105C7.00168 18.4989 6.99822 18.4858 6.99823 18.4725V15.6942C6.99823 15.6665 7.01295 15.6413 7.03693 15.6276C7.0487 15.6208 7.06207 15.6173 7.07565 15.6174C7.08923 15.6175 7.10253 15.6212 7.11419 15.6282L7.55524 15.8897C7.56672 15.8965 7.57623 15.9061 7.58283 15.9177C7.58943 15.9293 7.5929 15.9424 7.59289 15.9557V18.3044L8.06409 18.5835C8.07555 18.5903 8.08503 18.6001 8.09161 18.6117C8.0982 18.6233 8.10165 18.6365 8.10164 18.6499V19.036ZM14.7662 19.1594C14.7662 19.2356 14.7662 19.5937 14.1713 19.6998L12.966 19.9152C12.9549 19.9171 12.9436 19.9166 12.9327 19.9136C12.9219 19.9107 12.9118 19.9055 12.9031 19.8983C12.8946 19.8911 12.8877 19.8821 12.8829 19.872C12.8782 19.8618 12.8757 19.8508 12.8756 19.8396V17.0657C12.8756 17.0286 12.9015 16.9974 12.9375 16.9902L14.1713 16.7444C14.7662 16.6261 14.7662 16.9823 14.7662 16.9823V19.1594ZM13.7579 15.1325V14.4312C13.7579 14.1953 14.3241 14.0039 15.0225 14.0039C15.7208 14.0039 16.2871 14.1953 16.2871 14.4312V15.1325C16.2871 15.3685 15.7208 15.5596 15.0225 15.5596C14.3241 15.5596 13.7579 15.3685 13.7579 15.1325ZM16.3244 16.3758C16.3244 16.3991 16.3111 16.4206 16.2899 16.4309L15.7182 16.7107C15.7078 16.7158 15.6991 16.7236 15.6931 16.7334C15.687 16.7431 15.6839 16.7544 15.684 16.7659V17.3308C15.684 17.3519 15.6948 17.3716 15.7128 17.3829C15.7216 17.3884 15.7317 17.3916 15.7421 17.3921C15.7525 17.3926 15.7629 17.3905 15.7722 17.3858L16.2358 17.1591C16.2451 17.1544 16.2555 17.1523 16.2659 17.1528C16.2763 17.1533 16.2864 17.1564 16.2952 17.162C16.3134 17.1734 16.3245 17.1929 16.3245 17.2143V17.6112C16.3245 17.6355 16.3102 17.6575 16.288 17.6671L15.7201 17.923C15.7093 17.9278 15.7001 17.9357 15.6937 17.9456C15.6873 17.9556 15.6839 17.9672 15.684 17.979V18.5076C15.684 18.5282 15.6946 18.5477 15.712 18.5591C15.7295 18.5706 15.7513 18.5722 15.7705 18.5634L16.2377 18.353C16.2471 18.3489 16.2574 18.3471 16.2676 18.348C16.2778 18.3489 16.2877 18.3523 16.2962 18.358C16.3138 18.3692 16.3244 18.3884 16.3244 18.4094V18.804C16.3244 18.8282 16.3101 18.8502 16.288 18.8599L15.1759 19.3607C15.1665 19.3649 15.1562 19.3667 15.146 19.3659C15.1358 19.3652 15.1259 19.3619 15.1172 19.3563C15.0997 19.3451 15.0892 19.3256 15.0892 19.3045V16.5106C15.0892 16.4873 15.1023 16.4661 15.1235 16.4556L16.2358 15.9111C16.2452 15.9066 16.2555 15.9045 16.266 15.905C16.2764 15.9056 16.2865 15.9088 16.2954 15.9143C16.3042 15.9198 16.3115 15.9275 16.3166 15.9366C16.3217 15.9457 16.3244 15.956 16.3244 15.9664V16.3757V16.3758ZM18.1396 17.5866L17.7939 17.8211C17.7668 17.8393 17.7304 17.8337 17.7107 17.8075L17.193 17.1304L17.0954 17.1981V18.2631C17.0954 18.2834 17.0852 18.3025 17.0684 18.314L16.5964 18.6342C16.5872 18.6406 16.5764 18.6442 16.5652 18.6449C16.554 18.6455 16.5429 18.6431 16.533 18.6378C16.5232 18.6325 16.5149 18.6247 16.5092 18.6151C16.5035 18.6056 16.5004 18.5946 16.5004 18.5835V15.821C16.5004 15.8007 16.5102 15.7818 16.527 15.7703L17.4544 15.1304C17.7378 14.935 17.9859 14.9711 17.9859 15.3591V16.0913C17.9859 16.5639 17.6379 16.8234 17.6379 16.8234L18.1536 17.4985C18.1587 17.5051 18.1624 17.5127 18.1645 17.5208C18.1666 17.5289 18.167 17.5373 18.1657 17.5456C18.1643 17.5539 18.1614 17.5617 18.1569 17.5688C18.1524 17.5758 18.1465 17.5819 18.1396 17.5866V17.5866ZM19.4144 14.0918C19.4144 14.1561 19.4079 14.2503 19.349 14.3109L19.0024 14.6693C18.9624 14.7106 18.9376 14.6842 18.9376 14.6397V14.422C18.9376 14.3146 18.8958 14.3144 18.8373 14.3739L18.7819 14.431C18.7009 14.5148 18.7009 14.6353 18.7009 14.6807V14.8321C18.7009 14.9268 18.7277 14.9953 18.8267 15.0127L19.1031 15.0608C19.2339 15.0837 19.4144 15.1707 19.4144 15.3824C19.4144 15.5595 19.4144 15.867 19.1818 16.1744L18.6154 16.9224C18.3805 17.2315 18.1502 17.1447 18.1502 16.6989V16.4505C18.1502 16.3715 18.1706 16.3234 18.2156 16.2823L18.5934 15.8936C18.6581 15.8282 18.7009 15.8281 18.7009 15.9307V16.0535C18.7009 16.1977 18.8132 16.0825 18.8619 16.0342C18.9108 15.9855 18.9376 15.9569 18.9376 15.8411V15.7692C18.9376 15.693 18.8785 15.6637 18.7727 15.6401L18.4453 15.5665C18.1901 15.513 18.1502 15.3365 18.1502 15.1393V14.8582C18.1502 14.6468 18.1848 14.4637 18.3384 14.291L18.9376 13.63C19.1563 13.3881 19.4144 13.3522 19.4144 13.7286V14.0918Z" fill="#003087"/>
<path d="M9.43437 18.4492L9.25874 17.3436L9.01327 18.3121L9.43437 18.4492ZM17.3156 15.8218L17.122 15.9554C17.1138 15.961 17.1072 15.9686 17.1026 15.9774C17.098 15.9863 17.0956 15.9961 17.0956 16.006V16.497C17.0956 16.5196 17.1081 16.5408 17.1282 16.5513C17.1484 16.5619 17.1729 16.5603 17.1916 16.5475L17.3252 16.4551C17.3966 16.406 17.4546 16.2892 17.4546 16.1892V15.903C17.4546 15.8206 17.393 15.7683 17.3156 15.8218ZM13.9129 17.362L13.4708 17.45V19.316L13.9402 19.2322C14.1716 19.1906 14.1716 18.929 14.1716 18.929V17.551C14.1716 17.551 14.1716 17.3103 13.9129 17.362V17.362ZM10.092 4.1201C10.092 4.08338 10.1066 4.04817 10.1326 4.0222C10.1585 3.99624 10.1937 3.98165 10.2305 3.98165H13.5503C13.5766 3.98165 13.6025 3.98921 13.6247 4.00342C13.6469 4.01764 13.6646 4.03791 13.6757 4.06186L15.5885 8.18238L17.182 4.94645C15.7169 3.95343 13.9303 3.36823 12.0003 3.36823C10.8087 3.36823 9.67186 3.59274 8.63086 3.99655L10.092 6.81869V4.1201ZM16.4076 10.1722C16.7884 10.0563 17.1384 9.8512 17.4565 9.56447C17.7406 9.47107 18.0713 9.41644 18.3766 9.46087L18.4051 9.50069C18.3837 9.61686 18.2379 9.70572 18.1377 9.76614C17.922 9.77044 17.6608 9.73291 17.4937 9.89803C17.2604 10.1415 16.9665 10.3066 16.7484 10.5445C16.7655 10.6218 16.8538 10.6834 16.8039 10.7709C16.6374 10.8883 16.3712 10.7996 16.2828 11.0371C16.2091 11.4927 15.6385 11.1398 15.4151 11.4344C15.3061 11.5775 14.9828 11.7511 14.7384 11.8159L14.5044 12.3139C14.7764 12.4102 15.1521 12.5548 15.4018 12.5158C15.9845 12.3291 16.2091 11.4423 16.8903 11.4949C17.2737 11.5621 17.6119 11.446 17.8789 11.1912C18.1399 11.0921 18.1603 11.513 18.4007 11.4687C18.4216 11.3149 18.435 11.1251 18.6114 11.06C18.6949 11.0271 18.8291 11.0384 18.84 11.1489C18.6557 11.4095 19.0554 11.4938 18.9987 11.7386C19.0309 11.8433 19.1527 11.8433 19.2371 11.8171C19.3764 11.5508 19.665 11.5279 19.9297 11.513C20.1371 11.2091 20.6285 11.4927 20.7424 11.0657L20.9341 11.001C20.6631 8.74649 19.4883 6.75693 17.7645 5.37444L15.2208 10.789C15.6074 10.6563 16.1476 10.502 16.4076 10.1722Z" fill="#003087"/>
<path d="M12.2896 14.883C12.263 14.9372 12.2235 14.984 12.1746 15.0193C12.1257 15.0546 12.0688 15.0773 12.009 15.0855L7.8778 15.6542C7.85965 15.6567 7.84219 15.6628 7.82642 15.6721C7.81065 15.6815 7.79688 15.6938 7.78593 15.7085C7.77497 15.7232 7.76703 15.7399 7.76258 15.7576C7.75813 15.7754 7.75726 15.7939 7.76 15.812L8.01186 17.4646C8.01473 17.4836 8.02152 17.5018 8.0318 17.5179C8.04207 17.5341 8.05561 17.548 8.07153 17.5587C8.08739 17.5693 8.10526 17.5766 8.12404 17.58C8.14283 17.5835 8.16211 17.583 8.18071 17.5786L8.59059 17.4808L8.83482 16.5272C8.83881 16.5115 8.84885 16.498 8.86276 16.4897C8.87666 16.4814 8.89329 16.479 8.90899 16.483L9.71207 16.6794C9.7238 16.6822 9.73443 16.6884 9.74261 16.6973C9.75078 16.7061 9.75613 16.7172 9.75796 16.7291L9.8299 17.1854L10.3451 17.0626V16.8556C10.3451 16.8447 10.3473 16.834 10.3518 16.824C10.3562 16.8141 10.3627 16.8053 10.3708 16.7981C10.379 16.7908 10.3885 16.7854 10.3989 16.7822C10.4093 16.779 10.4202 16.778 10.431 16.7794L11.0709 16.8551C11.0887 16.8567 11.1032 16.8667 11.1153 16.8791L12.3442 16.5862C12.3982 16.5734 12.4485 16.5486 12.4915 16.5137C12.5345 16.4787 12.5691 16.4345 12.5927 16.3844L13.355 14.7613L12.5514 14.3515L12.2896 14.883ZM12.65 14.1514L13.4496 14.5595L13.5134 14.4239L12.716 14.0172L12.65 14.1514ZM13.8304 13.7492L13.0451 13.3484L13.0053 13.4295L12.9789 13.483L13.7669 13.8847L13.8304 13.7492ZM12.8144 13.8171L13.6085 14.2221L13.6721 14.0864L12.8806 13.683L12.8144 13.8171ZM15.5883 8.18238L13.6756 4.06188C13.6645 4.03793 13.6468 4.01764 13.6246 4.00341C13.6024 3.98919 13.5766 3.98162 13.5502 3.98161H10.2304C10.2122 3.98161 10.1942 3.98519 10.1774 3.99215C10.1606 3.9991 10.1453 4.0093 10.1325 4.02216C10.1196 4.03502 10.1094 4.05029 10.1025 4.0671C10.0955 4.0839 10.0919 4.10191 10.0919 4.1201V6.81868L8.63078 3.99658C7.76 4.33452 6.95671 4.79782 6.24609 5.36591V10.387C6.24609 10.4051 6.24966 10.4231 6.25661 10.4399C6.26356 10.4567 6.27375 10.4719 6.28659 10.4847C6.29944 10.4976 6.31468 10.5078 6.33146 10.5147C6.34824 10.5217 6.36623 10.5252 6.38439 10.5252H8.26929C8.34551 10.5252 8.40743 10.4633 8.40743 10.387V8.1429L9.79561 10.4581C9.80789 10.4786 9.82526 10.4956 9.84604 10.5073C9.86681 10.5191 9.89028 10.5252 9.91415 10.5252H12.0286C12.1047 10.5252 12.1667 10.4633 12.1667 10.387V6.03246L14.3411 10.7159L14.0816 11.2434L13.1435 13.1485L13.9254 13.5474L14.0295 13.3254L14.5043 12.3139L14.7384 11.8158L15.2208 10.789L17.7644 5.37443C17.5767 5.22391 17.3821 5.08204 17.182 4.94645L15.5883 8.18238Z" fill="white"/>
<path d="M15.0224 14.8583C15.7208 14.8583 16.287 14.6671 16.287 14.4311C16.287 14.1952 15.7208 14.004 15.0224 14.004C14.324 14.004 13.7578 14.1952 13.7578 14.4311C13.7578 14.6671 14.324 14.8583 15.0224 14.8583Z" fill="white"/>
</svg>
