<svg width="40" height="40" viewBox="0 0 40 40" fill="none" xmlns="http://www.w3.org/2000/svg">
<path d="M19.1781 30.8624V31.3744H19.0501V30.8624H18.9019V30.7352H19.3263V30.8624H19.1781H19.1781ZM19.8719 31.3744V30.9972L19.7641 31.2322H19.651L19.5432 30.9972V31.3744H19.4152V30.7352H19.5432L19.7076 31.0766L19.8719 30.7352H19.9999V31.3744H19.8719H19.8719Z" fill="white"/>
<path d="M35.1688 7.87567H10.1012C11.7617 10.4659 12.3138 11.3177 10.9015 11.2772L8.8191 7.87567H4.83105L13.8893 22.6731C13.7673 22.6681 13.6435 22.6605 13.5231 22.6605C9.81014 22.6605 6.90176 24.7388 6.90176 27.3928C6.90176 30.0461 9.81014 32.1244 13.5231 32.1244C17.2362 32.1244 20.1448 30.0461 20.1448 27.3928C20.1448 26.7212 19.9577 26.0741 19.5887 25.4684L17.5587 22.153C17.5587 22.153 19.1928 22.4814 20.4191 21.9149L19.8273 21.1528C19.8273 21.1528 22.3185 21.3839 24.6138 20.6998L23.8357 19.8748C23.8357 19.8748 27.3292 19.7859 29.7504 16.6799H29.509C29.509 16.6799 31.3125 15.8099 32.0726 13.8863H31.8377C31.8377 13.8863 32.9935 13.0258 33.3871 11.2574H33.0463C33.0463 11.2574 34.8823 9.96305 35.1688 7.87567Z" fill="#041E42"/>
<path d="M34.5487 8.31238H10.9135C12.8501 11.2467 12.2787 11.7193 10.6595 11.7193L8.57406 8.31238H5.61108L14.7124 23.1807C14.3236 23.1291 13.928 23.0974 13.5231 23.0974C10.0551 23.0974 7.33898 24.9839 7.33898 27.3927C7.33898 29.8009 10.0551 31.6869 13.5231 31.6869C16.9912 31.6869 19.7079 29.8009 19.7079 27.3927C19.7079 26.8026 19.5424 26.232 19.2154 25.6963L16.6383 21.4864C16.6383 21.4864 18.4309 22.0768 19.6874 21.6849L18.8933 20.6622C18.8933 20.6622 21.8532 20.9081 23.8325 20.5083L22.8907 19.5093C22.8907 19.5093 27.2987 19.4655 28.9437 16.7436H28.1892C28.1892 16.7436 30.2672 16.4536 31.3161 14.2089H30.5478C30.5478 14.2089 32.3361 13.385 32.8212 11.5113H31.9912C31.9912 11.5113 33.8474 10.2789 34.5487 8.31238Z" fill="white"/>
<path d="M34.0553 8.61951H11.4609C12.7996 10.6574 13.0541 12.158 10.4821 12.0172L8.40196 8.61951H6.15869L15.3291 23.5996C14.7359 23.4699 14.1304 23.4044 13.5232 23.4043C10.2824 23.4043 7.64579 25.1931 7.64579 27.3928C7.64579 29.5911 10.2824 31.3803 13.5232 31.3803C16.7642 31.3803 19.4012 29.5911 19.4012 27.3928C19.4012 26.86 19.2508 26.3431 18.9537 25.8563L15.9665 20.9759C15.9665 20.9759 17.8491 21.6342 19.1511 21.4962C19.1511 21.4962 18.5606 20.7654 18.2972 20.3111C18.2972 20.3111 20.4395 20.5687 23.2375 20.3246L22.1879 19.2113C22.2736 19.2131 22.3649 19.2144 22.4633 19.2144C27.0021 19.2144 28.3689 16.8882 28.3689 16.8882H27.132C27.132 16.8882 30.1969 16.1072 30.852 14.3534H29.7154C29.7154 14.3534 32.1402 13.1647 32.377 11.8182H30.9933C30.9933 11.8182 33.4111 10.4537 34.0553 8.61951Z" fill="#FFB81C"/>
<path d="M33.5321 8.94495H12.0417C13.8227 11.8541 12.0393 12.5092 10.2938 12.3329L8.21984 8.94495H6.7395L16.0317 24.1245C15.2781 23.8725 14.426 23.7294 13.5232 23.7294C10.4566 23.7294 7.97077 25.3693 7.97077 27.3927C7.97077 29.4152 10.4566 31.0548 13.5232 31.0548C16.5898 31.0548 19.0754 29.4152 19.0754 27.3927C19.0754 26.9093 18.9333 26.4483 18.6756 26.0253L15.231 20.3984C15.231 20.3984 17.4563 21.1705 18.4832 21.1705C18.4832 21.1705 18.0155 20.5743 17.7333 19.9323C17.7333 19.9323 20.399 20.2196 22.534 20.0528L21.3732 18.8221C21.3732 18.8221 21.7194 18.889 22.4633 18.889C26.22 18.889 27.6599 17.2138 27.6599 17.2138H16.4896L16.3264 16.947H25.5945C25.5945 16.947 29.3712 16.2256 30.2827 14.6787H14.9376L14.7745 14.4123H28.8988C28.8988 14.4123 31.5283 13.1432 31.9061 12.1439H13.386L13.2227 11.8768H30.2433C30.2433 11.8768 32.7235 10.5867 33.5321 8.94499L33.5321 8.94495Z" fill="#041E42"/>
</svg>
