<svg width="24" height="24" viewBox="0 0 24 24" fill="none" xmlns="http://www.w3.org/2000/svg">
<g clip-path="url(#clip0_181_10918)">
<path d="M18.7884 17.6983C18.5392 17.6983 18.3369 17.9003 18.3369 18.1496C18.3369 18.3987 18.5392 18.601 18.7884 18.601C19.0376 18.601 19.2396 18.3987 19.2396 18.1497C19.2396 17.9003 19.0376 17.6983 18.7884 17.6983ZM18.7884 18.5042C18.6944 18.5042 18.6041 18.4669 18.5376 18.4004C18.4711 18.3339 18.4338 18.2437 18.4339 18.1497C18.4339 17.9538 18.5923 17.7954 18.7884 17.7954C18.9843 17.7954 19.1428 17.9538 19.1428 18.1497C19.1428 18.3456 18.9843 18.5042 18.7884 18.5042ZM18.9739 18.045C18.9739 18.0249 18.9699 18.005 18.9622 17.9864C18.9545 17.9679 18.9432 17.951 18.929 17.9368C18.9147 17.9226 18.8979 17.9114 18.8793 17.9037C18.8607 17.896 18.8408 17.8921 18.8207 17.8921H18.6032V18.4073H18.6999V18.1981H18.7693L18.867 18.4073H18.9739L18.8719 18.1891C18.9329 18.1675 18.9737 18.1098 18.9739 18.045ZM18.8207 18.1013H18.6999V17.9886H18.8207C18.8518 17.9886 18.8772 18.0139 18.8772 18.045C18.8771 18.0761 18.8518 18.1013 18.8207 18.1013Z" fill="#00205B"/>
<path d="M22.1285 11.1089C22.1285 9.05726 20.8498 7.08221 18.6758 5.85704L18.0231 6.37496C19.557 7.40404 20.4279 8.893 20.4279 10.548C20.4279 14.5752 15.4908 18.1837 10.0202 18.1837C9.48295 18.1837 8.95162 18.1462 8.43348 18.0722L6.88206 19.2203C7.95702 19.5518 9.13424 19.7237 10.352 19.7237C16.5657 19.7237 22.1285 15.544 22.1285 11.1089ZM22.4165 11.1089C22.4165 15.7239 16.7098 20.0117 10.352 20.0117C9.00266 20.0117 7.7005 19.8052 6.52511 19.4075L6.26416 19.3192L8.35775 17.7699L8.41667 17.7787C8.93943 17.8563 9.47661 17.8957 10.0202 17.8957C15.3478 17.8957 20.1399 14.3932 20.1399 10.548C20.1399 8.93683 19.259 7.48943 17.7001 6.50848L17.528 6.40019L18.6472 5.51215L18.731 5.55819C21.0437 6.82784 22.4165 8.92056 22.4165 11.1089Z" fill="white"/>
<path d="M11.3403 12.9653L14.7081 12.3069L0.850586 22.5659L4.46809 18.4275C2.57154 17.2022 1.48846 15.3906 1.48846 13.2558C1.48846 8.55145 7.04002 4.28207 13.3277 4.28207C13.4168 4.28207 13.5084 4.28318 13.6174 4.28539L21.9768 2.08594L15.2217 7.44331L18.614 6.98851L11.3403 12.9653ZM13.5118 12.8342L10.2764 13.4668L17.6494 7.40842L14.2231 7.86778L20.7213 2.71407L13.6517 4.57417C13.5154 4.5713 13.42 4.57007 13.3277 4.57007C7.18502 4.57007 1.77646 8.72948 1.77646 13.2558C1.77646 15.339 2.8589 17.0975 4.76289 18.273L4.90754 18.3624L2.82228 20.7479L13.5118 12.8342ZM12.5618 5.23992C7.40373 5.33342 2.65776 8.76157 2.65776 12.5854C2.66451 14.4595 3.80518 16.0178 5.74358 16.9687L7.00728 15.5232L4.64564 15.9498L10.3294 10.4529L7.50228 10.9001L12.5618 5.23992ZM12.7776 4.94996C12.7938 4.94996 12.8103 4.95008 12.831 4.95033C12.8707 4.95084 12.8707 4.95084 12.886 4.95102L13.2032 4.95449L8.25573 10.4893L11.1851 10.026L5.52716 15.4979L7.76539 15.0936L5.81658 17.3227L5.71819 17.2762C3.62054 16.2828 2.36973 14.602 2.36973 12.5854V12.4414C2.48877 8.43994 7.45851 4.94996 12.7776 4.94996Z" fill="white"/>
<path d="M22.2725 11.1089C22.2725 9.01571 20.9712 6.95233 18.6618 5.68442L17.7768 6.3866C19.3551 7.37975 20.2839 8.86385 20.2839 10.548C20.2839 14.4792 15.4262 18.0397 10.0202 18.0397C9.46533 18.0397 8.92117 17.9992 8.39555 17.9211L6.57129 19.2711C7.72318 19.6608 9.00864 19.8677 10.352 19.8677C16.7695 19.8677 22.2725 15.535 22.2725 11.1089Z" fill="#00205B"/>
<path d="M14.1098 12.5705L10.8082 13.2161L18.1315 7.19847L14.7223 7.65555L21.3489 2.40001L13.6345 4.42978C13.5328 4.42764 13.4308 4.42608 13.3276 4.42608C7.00548 4.42608 1.63232 8.72268 1.63232 13.2558C1.63232 15.4799 2.83028 17.2492 4.6871 18.3956L1.8363 21.6569L14.1098 12.5705ZM2.51363 12.5854C2.51363 8.52055 7.60016 5.09396 12.7775 5.09396C12.8132 5.09396 12.8485 5.09462 12.8843 5.09501L7.87887 10.6947L10.7571 10.2395L5.08626 15.7238L7.3862 15.3084L5.77969 17.146C3.82773 16.2217 2.51363 14.6276 2.51363 12.5854Z" fill="#00205B"/>
</g>
<defs>
<clipPath id="clip0_181_10918">
<rect width="24" height="24" fill="white"/>
</clipPath>
</defs>
</svg>
