<svg width="24" height="24" viewBox="0 0 24 24" fill="none" xmlns="http://www.w3.org/2000/svg">
<path d="M19.5781 19.6766C19.3111 19.6766 19.0942 19.8932 19.0942 20.1604C19.0942 20.4274 19.3111 20.6442 19.5781 20.6442C19.8452 20.6442 20.0617 20.4274 20.0617 20.1604C20.0617 19.8932 19.8452 19.6766 19.5781 19.6766ZM19.5781 20.5404C19.5282 20.5405 19.4788 20.5307 19.4327 20.5116C19.3866 20.4925 19.3447 20.4645 19.3094 20.4292C19.2741 20.3939 19.2461 20.352 19.227 20.3059C19.2079 20.2598 19.1981 20.2103 19.1982 20.1604C19.1982 19.9505 19.3679 19.7807 19.5781 19.7807C19.7881 19.7807 19.9581 19.9505 19.9581 20.1604C19.9581 20.3704 19.7881 20.5404 19.5781 20.5404ZM19.7769 20.0483C19.7769 20.0267 19.7727 20.0054 19.7644 19.9855C19.7562 19.9656 19.7441 19.9475 19.7288 19.9323C19.7136 19.9171 19.6955 19.905 19.6756 19.8968C19.6557 19.8886 19.6343 19.8844 19.6128 19.8844H19.3797V20.4366H19.4833V20.2123H19.5576L19.6624 20.4366H19.7769L19.6676 20.2027C19.6995 20.1914 19.7272 20.1705 19.7467 20.1428C19.7663 20.1152 19.7769 20.0822 19.7769 20.0483ZM19.6128 20.1087H19.4833V19.9878H19.6128C19.6461 19.9878 19.6733 20.0149 19.6733 20.0483C19.6733 20.0643 19.6669 20.0797 19.6555 20.091C19.6441 20.1023 19.6288 20.1087 19.6128 20.1087H19.6128Z" fill="#041E42"/>
<path d="M12.0002 22.32C17.6998 22.32 22.3202 17.6998 22.3202 12C22.3202 6.30088 17.6998 1.68 12.0002 1.68C6.30054 1.68 1.68018 6.30084 1.68018 12C1.68018 17.6998 6.30057 22.32 12.0002 22.32Z" fill="white"/>
<path d="M12.5745 2.17497C13.7528 4.02151 14.2839 4.70218 14.2839 5.73586C14.2839 6.97674 13.2411 7.98278 12.0001 7.98278C10.7588 7.98278 9.71624 6.97674 9.71624 5.73586C9.71624 4.70218 10.2473 4.02151 11.4255 2.17497C6.25721 2.47232 2.15771 6.75712 2.15771 12C2.15771 17.4361 6.56423 21.843 12.0001 21.843C17.436 21.843 21.8425 17.4361 21.8425 12C21.8425 6.75712 17.743 2.47232 12.5745 2.17497ZM12.0001 20.9465C7.05907 20.9465 3.05385 16.9408 3.05385 12C3.05385 7.85507 5.8733 4.36865 9.69886 3.35294C9.49562 3.60581 8.82011 4.53632 8.82011 5.73583C8.82011 7.46894 10.2466 8.87891 12.0001 8.87891C13.7537 8.87891 15.18 7.46894 15.18 5.73583C15.18 4.53632 14.5042 3.60581 14.3013 3.35294C18.127 4.36868 20.9464 7.85507 20.9464 12C20.9464 16.9408 16.9409 20.9465 12.0001 20.9465Z" fill="#041E42"/>
<path d="M13.8622 13.0728H13.22V14.098C13.22 14.3035 13.0534 14.4703 12.8478 14.4703C12.6428 14.4703 12.4759 14.3035 12.4759 14.098V12.7914H13.22V11.8231H12.4759V11.0689C12.4759 10.8635 12.6428 10.6969 12.8478 10.6969C13.0534 10.6969 13.22 10.8635 13.22 11.0689V11.5387H13.8622V9.36773H11.1486V10.6969C11.4112 10.6969 11.6242 10.9094 11.6242 11.1726V14.1981C11.6242 14.2703 11.5955 14.3395 11.5445 14.3906C11.4934 14.4416 11.4242 14.4703 11.352 14.4704V19.9529C11.352 20.3445 11.1472 20.5231 11.0493 20.5864C11.3647 20.6251 11.6822 20.6444 11.9999 20.6442C12.3931 20.6442 12.7793 20.6146 13.1561 20.5581C13.1561 20.5581 13.8622 20.418 13.8622 19.7955V13.0728H13.8622Z" fill="#041E42"/>
<path d="M11.1489 13.0728H10.5069V14.199C10.5069 14.3488 10.3854 14.4703 10.2357 14.4703C10.0859 14.4703 9.96432 14.3488 9.96432 14.199V10.9693C9.9643 10.9335 9.97132 10.8981 9.985 10.865C9.99868 10.832 10.0187 10.8019 10.044 10.7766C10.0693 10.7513 10.0994 10.7312 10.1324 10.7176C10.1655 10.7039 10.2009 10.6968 10.2367 10.6968V9.36769H8.84051V10.6968C8.99069 10.6968 9.11257 10.8187 9.11257 10.9693V14.198C9.11257 14.3483 8.99066 14.4703 8.84051 14.4703V19.2457C8.84051 19.6445 8.62221 19.7753 8.51855 19.8151C9.13447 20.1289 9.8021 20.362 10.5058 20.4998C10.5058 20.4998 11.1489 20.5978 11.1489 19.9528V13.0728Z" fill="#041E42"/>
<path d="M8.63697 19.2457V14.4703C8.48665 14.4703 8.36478 14.3483 8.36478 14.198V10.9693C8.36475 10.9335 8.37177 10.8981 8.38544 10.8651C8.39911 10.832 8.41915 10.802 8.44443 10.7767C8.46971 10.7514 8.49972 10.7313 8.53276 10.7176C8.5658 10.704 8.60121 10.6969 8.63697 10.6969V9.36763H7.24086V10.6969C7.39102 10.6969 7.51299 10.8187 7.51299 10.9693V14.1979C7.51299 14.3483 7.39102 14.4703 7.24086 14.4703V17.7233C7.24086 18.4024 6.89234 18.5099 6.71045 18.5194C7.1448 18.9426 7.62944 19.311 8.15351 19.6162C8.15351 19.6162 8.637 19.7991 8.637 19.2457M19.4133 11.5387V10.0761C19.4133 9.68658 19.0947 9.36779 18.7052 9.36779H17.8694C17.4799 9.36779 17.1612 9.68658 17.1612 10.0761V12.0295C17.1612 12.1336 17.2244 12.2755 17.3021 12.3444L18.4209 13.345C18.4984 13.4145 18.5618 13.5565 18.5618 13.66V14.0913C18.5618 14.3007 18.3918 14.4703 18.1824 14.4703C17.973 14.4703 17.8034 14.3007 17.8034 14.0913V13.073H17.1612V18.6418C18.5497 17.3529 19.4133 15.5493 19.4133 13.5521V13.2643C19.4133 13.1605 19.3502 13.0191 19.2729 12.9496L18.1538 11.9491C18.076 11.8794 18.0127 11.738 18.0127 11.6339V10.971C18.0127 10.8198 18.1359 10.6969 18.2875 10.6969C18.4388 10.6969 18.5618 10.8198 18.5618 10.971V11.5387H19.4133V11.5387Z" fill="#041E42"/>
<path d="M7.03733 17.7233V10.0762C7.03733 9.68642 6.7188 9.36766 6.32925 9.36766H5.29483C4.90525 9.36766 4.58643 9.68642 4.58643 10.0762V13.5521C4.58643 15.2932 5.24265 16.8871 6.33054 18.1208C6.54326 18.3981 7.03733 18.4774 7.03733 17.7233ZM6.1858 14.0966C6.1858 14.3028 6.01849 14.4702 5.81215 14.4702C5.60556 14.4702 5.43834 14.3028 5.43834 14.0966V11.0706C5.43834 10.8638 5.60556 10.6969 5.81212 10.6969C5.8612 10.6969 5.90981 10.7065 5.95517 10.7253C6.00053 10.7441 6.04174 10.7716 6.07645 10.8063C6.11115 10.841 6.13868 10.8822 6.15744 10.9276C6.17621 10.9729 6.18584 11.0215 6.1858 11.0706V14.0966ZM16.6858 14.1979V12.614C16.6858 12.3427 16.3814 12.2184 16.3814 12.2184C16.3814 12.2184 16.6858 12.0941 16.6858 11.8231V10.0761C16.6858 9.68648 16.3669 9.36779 15.9775 9.36779H14.0654L14.0652 10.6969C14.101 10.6969 14.1364 10.7039 14.1695 10.7176C14.2025 10.7313 14.2326 10.7513 14.2579 10.7766C14.2832 10.8019 14.3032 10.832 14.3169 10.865C14.3306 10.8981 14.3376 10.9335 14.3376 10.9693V14.1979C14.3376 14.2337 14.3305 14.2691 14.3169 14.3022C14.3032 14.3352 14.2831 14.3653 14.2578 14.3906C14.2325 14.4159 14.2025 14.4359 14.1694 14.4496C14.1364 14.4633 14.101 14.4703 14.0652 14.4703V19.7954C14.0652 20.0714 13.9541 20.2798 13.804 20.4316C14.3059 20.3112 14.7877 20.1444 15.2438 19.9321C15.2438 19.9321 15.5713 19.773 15.5713 19.177V14.4703C15.3602 14.4703 15.1895 14.2991 15.1895 14.0884V12.9067C15.1895 12.7447 15.3202 12.614 15.4817 12.614C15.5202 12.6139 15.5583 12.6214 15.5938 12.6361C15.6294 12.6508 15.6617 12.6724 15.6889 12.6996C15.7161 12.7268 15.7376 12.7591 15.7523 12.7946C15.767 12.8301 15.7746 12.8682 15.7745 12.9067V19.2384C15.7745 19.4175 15.7499 19.5674 15.7121 19.6936C16.089 19.4839 16.4471 19.242 16.7823 18.9707C16.7823 18.9707 16.9581 18.8251 16.9581 18.1329V14.4703C16.9223 14.4703 16.8869 14.4633 16.8539 14.4496C16.8208 14.4359 16.7908 14.4158 16.7655 14.3905C16.7402 14.3653 16.7202 14.3352 16.7065 14.3022C16.6928 14.2691 16.6857 14.2337 16.6858 14.1979ZM15.8339 11.5006C15.8339 11.6787 15.6897 11.8231 15.5116 11.8231C15.3336 11.8231 15.1895 11.6787 15.1895 11.5006V11.0192C15.1894 10.9768 15.1977 10.9349 15.2139 10.8958C15.2301 10.8567 15.2538 10.8212 15.2838 10.7913C15.3137 10.7613 15.3492 10.7376 15.3883 10.7214C15.4274 10.7052 15.4693 10.6969 15.5116 10.6969C15.554 10.6969 15.5959 10.7052 15.635 10.7214C15.6741 10.7376 15.7096 10.7613 15.7395 10.7912C15.7695 10.8212 15.7932 10.8567 15.8094 10.8958C15.8256 10.9349 15.8339 10.9768 15.8339 11.0191V11.5006Z" fill="#041E42"/>
<path d="M13.6641 5.76843C13.6641 4.60272 12.6529 3.98004 12.0001 2.35225C11.3472 3.98004 10.3359 4.60269 10.3359 5.7684C10.3359 6.56507 10.9939 7.34088 12 7.34088C13.0065 7.34088 13.6641 6.5651 13.6641 5.76843Z" fill="#FC4C02"/>
</svg>
