<svg width="24" height="24" viewBox="0 0 24 24" fill="none" xmlns="http://www.w3.org/2000/svg">
<path d="M18.6445 20.3854C18.3775 20.3854 18.1606 20.6019 18.1606 20.8692C18.1606 21.1362 18.3775 21.353 18.6445 21.353C18.9116 21.353 19.1281 21.1362 19.1281 20.8692C19.1281 20.6019 18.9116 20.3854 18.6445 20.3854ZM18.6445 21.2492C18.5946 21.2492 18.5452 21.2394 18.4991 21.2203C18.453 21.2013 18.4111 21.1733 18.3758 21.138C18.3405 21.1027 18.3125 21.0608 18.2934 21.0147C18.2743 20.9686 18.2645 20.9191 18.2646 20.8692C18.2646 20.6593 18.4343 20.4895 18.6445 20.4895C18.8545 20.4895 19.0244 20.6593 19.0244 20.8692C19.0244 21.0792 18.8545 21.2492 18.6445 21.2492ZM18.8433 20.7571C18.8433 20.7356 18.8391 20.7142 18.8308 20.6943C18.8226 20.6744 18.8105 20.6564 18.7952 20.6411C18.78 20.6259 18.7619 20.6139 18.742 20.6056C18.7221 20.5974 18.7007 20.5932 18.6792 20.5932H18.4461V21.1454H18.5497V20.9211H18.6241L18.7288 21.1454H18.8433L18.734 20.9116C18.766 20.9002 18.7936 20.8793 18.8131 20.8516C18.8327 20.824 18.8433 20.791 18.8433 20.7571ZM18.6792 20.8175H18.5497V20.6966H18.6792C18.7125 20.6966 18.7397 20.7237 18.7397 20.7571C18.7397 20.7731 18.7333 20.7885 18.7219 20.7998C18.7106 20.8111 18.6952 20.8175 18.6792 20.8175Z" fill="#010101"/>
<path d="M12.0003 2.0112C6.48366 2.0112 2.01172 6.48347 2.01172 12.0002C2.01172 17.5163 6.48366 21.9889 12.0003 21.9889C17.5167 21.9889 21.9892 17.5163 21.9892 12.0002C21.9892 6.48347 17.5167 2.0112 12.0003 2.0112Z" fill="#FFB81C"/>
<path d="M12.0001 2.38223C6.68873 2.38223 2.38232 6.68831 2.38232 12.0002C2.38232 17.3117 6.68873 21.6179 12.0001 21.6179C17.3115 21.6179 21.6179 17.3117 21.6179 12.0002C21.6179 6.68831 17.3115 2.3822 12.0002 2.3822L12.0001 2.38223Z" fill="#010101"/>
<path d="M16.5066 8.26064L18.1604 6.60695C17.9217 6.3347 17.6654 6.07835 17.3933 5.83954L15.7289 7.50439L16.5066 8.26064ZM12.5425 3.83017C12.3629 3.81856 12.1826 3.8105 12 3.8105C11.8175 3.8105 11.637 3.81856 11.4573 3.83017V6.46238H12.5425V3.83017ZM7.40614 6.63933L6.60687 5.83954C6.33459 6.07826 6.0783 6.33462 5.83965 6.60695L7.40611 8.1734L7.40614 6.63933ZM7.40614 15.8268L5.83965 17.3933C6.07839 17.6655 6.33468 17.9218 6.60687 18.1605L7.40611 17.361L7.40614 15.8268ZM8.09621 11.4577H3.82996C3.81848 11.6368 3.81055 11.8178 3.81055 12.0002C3.81055 12.1826 3.81848 12.3628 3.83073 12.5426H8.09621V11.4577ZM20.1698 11.4577H16.5894L16.0319 12.0002L16.5898 12.5426H20.1697C20.1816 12.3628 20.1893 12.1826 20.1893 12.0002C20.1893 11.8178 20.1816 11.6368 20.1698 11.4577ZM15.7286 16.4961L17.3931 18.1605C17.6653 17.9217 17.9216 17.6654 18.1604 17.3932L16.5064 15.7396L15.7286 16.4961ZM11.4573 20.17C11.637 20.1813 11.8175 20.1897 12 20.1897C12.1826 20.1897 12.3629 20.1813 12.5425 20.17V17.5372H11.4573V20.17Z" fill="#FFB81C"/>
<path d="M7.82617 15.6177V17.1175H14.4878L16.1736 15.477V12.7242L15.4295 12.0002L16.1736 11.2758V8.52302L14.4878 6.88262H7.8262V8.38183L8.51686 9.05401V14.9462L7.82617 15.6177Z" fill="#FFB81C"/>
<path d="M13.8943 9.47606L13.4212 9.01612H10.6904V10.9333H13.4212L13.8943 10.4736V9.47606ZM13.8943 13.5268L13.4212 13.0671H10.6904V14.9839H13.4212L13.8943 14.5245V13.5268Z" fill="#010101"/>
<path d="M8.17285 15.7643V16.7707H14.3466L15.8268 15.3307V12.8705L14.932 12.0002L15.8268 11.1291V8.6693L14.3466 7.22885H8.17288V8.23552L8.86331 8.9076V15.0925L8.17285 15.7643ZM10.3432 8.6693H13.5626L14.2406 9.32945V10.6202L13.5626 11.2801H10.3433V8.66927L10.3432 8.6693ZM10.3432 12.7203H13.5626L14.2406 13.3803V14.6705L13.5626 15.3307H10.3433V12.7203H10.3432Z" fill="#010101"/>
<path d="M6.95309 18.4467C8.09901 19.3461 9.49048 19.9448 11.0105 20.1279V17.5373H7.86182L6.95309 18.4467ZM14.6586 17.5373H12.9897V20.1279C14.5097 19.9448 15.9015 19.3461 17.0471 18.4467L15.4088 16.8077L14.6586 17.5373H14.6586ZM8.0964 12.9899H3.8721C4.05563 14.51 4.6546 15.901 5.55378 17.0478L8.0964 14.5043V12.9898V12.9899ZM8.0964 9.49592L5.55378 6.95276C4.6546 8.09891 4.05563 9.49018 3.87207 11.0106H8.0964V9.49592ZM15.4089 7.19202L17.0474 5.55323C15.9015 4.65418 14.5097 4.0553 12.9897 3.8721V6.46237H14.6586L15.4089 7.19202ZM16.5942 15.1946L18.4471 17.0478C19.3459 15.901 19.9446 14.5101 20.1283 12.9898H16.5942V15.1946L16.5942 15.1946ZM11.0105 6.46241V3.8721C9.49048 4.0553 8.09898 4.65418 6.95296 5.55326L7.86191 6.46237H11.0104L11.0105 6.46241ZM16.5942 11.0106H20.1283C19.9447 9.49018 19.3459 8.09891 18.4471 6.95266L16.5942 8.80585L16.5942 11.0106ZM11.1107 9.43633V10.513H13.2512L13.4742 10.2959V9.6532L13.2512 9.43633H11.1107ZM11.1107 13.4874V14.5634H13.2512L13.4742 14.3464V13.7043L13.2512 13.4874H11.1107Z" fill="white"/>
</svg>
