<svg width="24" height="24" viewBox="0 0 24 24" fill="none" xmlns="http://www.w3.org/2000/svg">
<path d="M12.3271 16.6521C12.1293 16.6521 11.9688 16.8124 11.9688 17.0103C11.9688 17.208 12.1293 17.3686 12.3271 17.3686C12.5249 17.3686 12.6852 17.208 12.6852 17.0104C12.6852 16.8124 12.5249 16.6521 12.3271 16.6521ZM12.3271 17.2917C12.2901 17.2918 12.2535 17.2845 12.2194 17.2704C12.1852 17.2562 12.1542 17.2355 12.128 17.2094C12.1019 17.1832 12.0812 17.1522 12.0671 17.1181C12.0529 17.0839 12.0457 17.0473 12.0457 17.0103C12.0457 16.8549 12.1714 16.7292 12.3271 16.7292C12.4825 16.7292 12.6084 16.8549 12.6084 17.0103C12.6084 17.1659 12.4825 17.2917 12.3271 17.2917ZM12.4743 16.9273C12.4743 16.9114 12.4711 16.8956 12.465 16.8808C12.4589 16.8661 12.4499 16.8527 12.4386 16.8414C12.4274 16.8302 12.414 16.8212 12.3992 16.8151C12.3845 16.8091 12.3687 16.8059 12.3527 16.8059H12.1801V17.2149H12.2568V17.0488H12.3119L12.3894 17.2149H12.4743L12.3933 17.0417C12.417 17.0333 12.4374 17.0178 12.4519 16.9973C12.4664 16.9768 12.4742 16.9524 12.4743 16.9273ZM12.3527 16.972H12.2568V16.8825H12.3527C12.3774 16.8825 12.3976 16.9026 12.3976 16.9273C12.3975 16.9392 12.3928 16.9506 12.3844 16.9589C12.376 16.9673 12.3646 16.972 12.3527 16.972Z" fill="white"/>
<path d="M20.6113 9.02137C21.4791 8.2798 22.3202 7.084 22.3202 5.71466C22.3202 5.51645 22.0784 5.46069 21.9804 5.59545C21.0862 6.81568 20.2429 7.27927 19.7336 7.45575C20.5806 6.81451 21.4113 5.76749 21.6237 4.5801C21.6471 4.36345 21.4114 4.30019 21.3026 4.4136C20.2655 5.4505 18.8377 6.55703 15.0008 6.55703C14.0736 6.55703 13.0138 6.53014 12.3284 6.53014C9.21318 6.53014 8.06753 8.4569 7.80926 8.9918C7.55278 8.95474 7.2931 8.93189 7.03495 8.93189C4.08235 8.93189 1.68018 11.3341 1.68018 14.2869C1.68015 17.2395 4.0823 19.6418 7.03493 19.6418C9.20802 19.6418 11.1291 18.3585 11.9683 16.3646C12.0274 16.3706 12.09 16.3807 12.1429 16.3807C12.8214 16.3807 12.9637 16.1823 12.9637 16.0153C12.9637 15.9257 12.875 15.8176 12.8311 15.7546C13.8265 15.7492 14.1185 15.7026 14.5493 15.5537C14.6193 15.5319 14.6605 15.4668 14.6605 15.3975C14.6605 15.2507 14.3593 15.0076 14.1412 14.8186C15.5335 14.7953 16.5586 14.5466 16.5586 14.221C16.5586 14.1574 16.5526 14.0772 16.1831 13.7862C16.9686 13.5726 18.3486 13.0429 18.3486 12.6981C18.3486 12.5644 18.2333 12.4825 18.0985 12.3886C19.3212 11.9279 20.3493 11.1161 20.3493 10.825C20.3493 10.5903 20.0036 10.5704 19.8322 10.5572C20.4415 10.1669 21.2898 9.50182 21.2898 9.21458C21.2898 8.9171 20.8236 9.03429 20.6114 9.02137H20.6113Z" fill="#C8102E"/>
<path d="M20.2538 9.09747C21.2282 8.36735 22.1544 7.10636 22.1544 5.71466C22.1544 5.68541 22.1255 5.68087 22.1134 5.69308C20.6073 7.74937 19.2377 7.72914 19.2377 7.72914C19.1778 7.72914 19.1636 7.64513 19.2112 7.612C20.1836 7.04006 21.2266 5.86024 21.4608 4.55087C21.464 4.53331 21.4378 4.51206 21.4193 4.53038C20.3132 5.6366 18.7931 6.72243 15.0006 6.72243C13.786 6.72243 13.1522 6.69556 12.3282 6.69556C9.03954 6.69556 8.02824 8.8814 7.90853 9.17074C7.61984 9.12181 7.32755 9.09719 7.03474 9.09714C4.16866 9.09714 1.84521 11.4205 1.84521 14.2869C1.84521 17.1529 4.16866 19.4765 7.03471 19.4765C9.22934 19.4765 11.1057 18.1142 11.8645 16.1893C11.9615 16.2059 12.0552 16.2153 12.1425 16.2153C12.6713 16.2153 12.7982 16.0973 12.7982 16.0153C12.7982 15.9596 12.4601 15.5901 12.628 15.5901C13.8006 15.5901 14.0646 15.5463 14.4951 15.3975C14.2886 15.0743 13.5404 14.6558 13.9256 14.6558C15.7842 14.6558 16.3933 14.297 16.3933 14.221C16.3933 14.1322 15.8006 13.7054 15.8006 13.7054C16.6567 13.5643 18.1832 12.8815 18.1832 12.6981C18.1832 12.5919 17.7478 12.4136 17.8176 12.313C19.1749 11.8615 20.1837 10.9843 20.1837 10.825C20.1837 10.6971 19.388 10.7121 19.388 10.7121V10.6275C20.0761 10.2698 21.1242 9.40487 21.1242 9.21458C21.1242 9.09337 20.1407 9.2965 20.2538 9.09747Z" fill="white"/>
<path d="M8.30915 13.3065C8.1412 13.0882 7.91858 12.9143 7.66151 12.8055L7.61976 12.8464L7.70597 13.4393C7.73288 13.4606 7.75873 13.4832 7.78342 13.507L8.21774 13.5106C8.2492 13.443 8.27967 13.3749 8.30915 13.3065ZM6.42994 12.8552L6.91022 13.2131C6.94431 13.2092 6.97856 13.2069 7.01286 13.2062L7.44009 12.7858L7.43142 12.7283C7.30187 12.6954 7.16872 12.6787 7.03505 12.6787C6.82776 12.6787 6.62243 12.7188 6.43044 12.7969L6.42994 12.8552ZM7.4703 12.9935L7.23517 13.2243C7.33331 13.2426 7.4284 13.2747 7.51767 13.3194L7.4703 12.9935ZM7.6447 15.1797C7.56229 15.2359 7.47254 15.2805 7.37797 15.3123L7.64209 15.5089L7.64472 15.1797H7.6447ZM5.49993 16.6621L6.26468 15.9098C5.9657 15.7679 5.71239 15.5452 5.53226 15.2704L4.89095 16.1308C5.06755 16.336 5.27262 16.515 5.49993 16.6621ZM7.92792 13.6771C7.97004 13.7386 8.00562 13.8043 8.03409 13.8732C8.06913 13.809 8.10304 13.7442 8.13582 13.6789L7.92792 13.6771ZM6.4905 15.999C6.47179 15.993 6.4532 15.9866 6.43471 15.98L5.6493 16.7525C5.9584 16.9266 6.29767 17.0405 6.64918 17.0884L6.4905 15.999ZM7.92212 14.9519L7.88271 14.9578C7.86145 14.9846 7.83891 15.0104 7.81516 15.0351L7.80995 15.6343L7.85676 15.669C8.00132 15.5828 8.13153 15.4745 8.24267 15.3481C8.08324 15.2033 7.96907 15.0661 7.92212 14.9519ZM6.42547 13.3941C6.50774 13.3376 6.59754 13.293 6.69222 13.2615L6.42817 13.0645L6.42547 13.3941V13.3941ZM5.43937 15.1121C5.43035 15.0947 5.42156 15.0771 5.41298 15.0595L4.31146 15.0502C4.40832 15.3966 4.56954 15.7159 4.78107 15.9948L5.43937 15.1121ZM7.64025 15.7186L7.16023 15.3606C7.12616 15.3644 7.09192 15.3667 7.05764 15.3673L6.63029 15.7875L6.63853 15.8453C6.76813 15.8782 6.90133 15.8949 7.03505 15.8948C7.24233 15.8949 7.44766 15.8548 7.63968 15.7768L7.64025 15.7186ZM6.60013 15.58L6.83495 15.3491C6.73689 15.3307 6.64186 15.2988 6.55259 15.2543L6.60013 15.58ZM7.80778 15.909L7.79861 17.0104C8.1448 16.9136 8.46406 16.7525 8.74304 16.5407L7.86012 15.8825C7.84271 15.8915 7.8255 15.9004 7.80778 15.909ZM6.14213 14.8965C6.08589 14.8141 6.04141 14.7243 6.00997 14.6296L5.81288 14.8937L6.14213 14.8965V14.8965ZM6.2867 15.0667L5.68777 15.0617L5.653 15.1084C5.8274 15.4011 6.09203 15.6343 6.40883 15.7681L6.45043 15.727L6.36431 15.1344C6.33744 15.113 6.31154 15.0904 6.2867 15.0667ZM6.25527 13.5385L6.26014 12.9395L6.2136 12.9045C5.92066 13.079 5.68777 13.3437 5.55361 13.6606L5.59478 13.7025L6.18757 13.616C6.20891 13.5891 6.2315 13.5632 6.25527 13.5385ZM5.74179 13.8517L5.97267 14.0867C5.99105 13.9885 6.02306 13.8935 6.06776 13.8042L5.74179 13.8517ZM5.47643 13.8904C5.44376 14.02 5.42722 14.1532 5.42719 14.2869C5.42705 14.4942 5.46716 14.6995 5.5453 14.8915L5.60343 14.892L5.96149 14.4118C5.95737 14.3777 5.95513 14.3435 5.95476 14.3092L5.53429 13.8822L5.47643 13.8904V13.8904ZM6.668 16.0455L6.82258 17.1069C7.09265 17.1272 7.36424 17.1088 7.62908 17.0521L7.63808 15.9793C7.4445 16.0482 7.24053 16.0834 7.03505 16.0833C6.90929 16.0833 6.78645 16.0704 6.668 16.0455ZM8.60654 12.1535C8.60654 12.0803 8.60494 12.007 8.6025 11.9332C8.59175 11.9258 8.58108 11.9185 8.57033 11.9115L7.80551 12.6638C8.02865 12.77 8.22752 12.921 8.3897 13.1075C8.50784 12.7985 8.60654 12.4511 8.60654 12.1535V12.1535ZM6.21016 12.6909C6.22748 12.682 6.24479 12.673 6.26241 12.6647L6.27166 11.5632C5.92546 11.66 5.60613 11.8211 5.32706 12.0329L6.21016 12.6909ZM7.40226 12.5282L7.24751 11.4666C7.17735 11.4617 7.10662 11.4586 7.03505 11.4586C6.83135 11.4586 6.63247 11.4805 6.44092 11.5217L6.43204 12.5943C6.62561 12.5254 6.82958 12.4902 7.03505 12.4904C7.16097 12.4904 7.28372 12.5035 7.40226 12.5282ZM9.26039 16.0315C8.93394 15.8626 8.62629 15.664 8.38619 15.4704C8.27852 15.5929 8.15493 15.7004 8.01871 15.79L8.87882 16.431C9.0186 16.3108 9.14621 16.1766 9.26039 16.0315ZM8.42122 11.8213C8.11208 11.6472 7.77279 11.5331 7.42124 11.4851L7.57986 12.5747C7.59875 12.5808 7.61733 12.5871 7.63574 12.5936L8.42122 11.8213ZM4.20703 14.2869C4.20703 14.4907 4.22872 14.6894 4.26986 14.8809L5.34244 14.8898C5.27364 14.6962 5.23854 14.4923 5.23867 14.2869C5.23867 14.1609 5.25159 14.0383 5.27622 13.9195L4.21501 14.0744C4.20964 14.1451 4.20698 14.216 4.20703 14.2869ZM4.23342 13.9007L5.32293 13.742C5.3289 13.7231 5.33544 13.7049 5.34201 13.6862L4.56961 12.9008C4.39531 13.2098 4.28123 13.5491 4.23342 13.9007ZM4.65993 12.7517L5.41207 13.5164C5.55403 13.2183 5.77526 12.9649 6.05155 12.7841L5.19137 12.1427C4.98598 12.3192 4.80701 12.5243 4.65993 12.7517Z" fill="#C8102E"/>
<path d="M7.03478 14.87C7.35682 14.87 7.61789 14.6089 7.61789 14.2869C7.61789 13.9648 7.35682 13.7038 7.03478 13.7038C6.71273 13.7038 6.45166 13.9648 6.45166 14.2869C6.45166 14.6089 6.71273 14.87 7.03478 14.87Z" fill="#C8102E"/>
<path d="M7.03513 10.7882C5.1029 10.7882 3.53662 12.3546 3.53662 14.2869C3.53662 16.2192 5.1029 17.7854 7.03513 17.7854C8.21472 17.7854 9.25777 17.2017 9.89173 16.3074C9.75881 16.2605 9.62379 16.2052 9.48999 16.1436C8.92789 16.8854 8.03764 17.3648 7.03513 17.3648C5.33519 17.3648 3.95702 15.9867 3.95702 14.2869C3.95702 12.5868 5.33519 11.2087 7.03513 11.2087C7.60304 11.2087 8.13517 11.3629 8.59184 11.6312C8.58764 11.4787 8.58687 11.3217 8.59891 11.1566C8.12836 10.9209 7.59723 10.7882 7.03513 10.7882Z" fill="#C8102E"/>
<path d="M10.9234 16.443C10.6974 16.4971 10.4059 16.4629 10.0928 16.3723C9.4264 17.3477 8.30538 17.9881 7.03483 17.9881C4.99103 17.9881 3.33376 16.3311 3.33376 14.2869C3.33376 14.2213 3.33563 14.1564 3.33873 14.0918C3.2243 14.2654 3.2573 14.552 3.05436 14.552C2.89341 14.552 2.98262 14.3327 2.86482 14.3327C2.79151 14.3327 2.78124 14.4333 2.69009 14.4333C2.67941 14.4333 2.66993 14.4295 2.66303 14.4295C2.64345 14.4295 2.63473 14.472 2.5976 14.472C2.55022 14.472 2.51695 14.416 2.47932 14.416C2.43688 14.416 2.42336 14.497 2.36708 14.497C2.30936 14.497 2.25348 14.4004 2.23096 14.3562C2.26812 16.9781 4.40464 19.0917 7.0349 19.0917C9.04787 19.0917 10.7714 17.8539 11.4867 16.0979C10.9477 15.935 10.4328 15.66 10.4328 15.66C10.4656 15.9811 10.9234 16.443 10.9234 16.443ZM2.70707 12.4498C2.81804 12.5415 2.72958 12.702 2.80923 12.8124C3.41871 11.0656 5.08042 9.81215 7.0349 9.81215C7.67364 9.81215 8.28102 9.94631 8.8307 10.1874C8.87302 10.0857 8.91974 9.98578 8.97074 9.88809C8.37838 9.627 7.72362 9.48174 7.0349 9.48174C5.01599 9.48174 3.28842 10.7272 2.57711 12.4913C2.61668 12.5173 2.66026 12.4111 2.70707 12.4498ZM12.9022 7.51163H15.5458C18.923 7.51163 20.4017 6.30423 20.9841 5.23395C21.0178 5.16959 20.9764 5.1561 20.9122 5.21312C20.177 5.87275 19.08 7.02411 14.6007 7.02411H12.7105C9.73716 7.02411 8.61747 8.36482 8.32546 9.25903C8.4734 9.29703 8.61961 9.34149 8.76367 9.39228C9.29224 8.44061 10.2997 7.51163 12.9022 7.51163Z" fill="#C8102E"/>
<path d="M12.8403 8.19335C10.1948 8.19335 8.67093 10.0103 8.84533 11.7464C8.97529 13.0399 8.25146 14.0907 8.25146 14.0907C8.25146 14.0907 9.26109 13.6336 9.26109 11.7917C9.26109 10.0459 10.9978 8.77523 12.4615 8.77523C13.8769 8.77523 15.5192 8.78411 16.3335 8.78411C20.6519 8.78411 21.6968 6.78905 21.8456 6.39975C21.8718 6.34136 21.834 6.35321 21.8198 6.38033C20.9182 7.59622 19.6557 8.29055 16.2301 8.29055C14.0295 8.29055 13.3336 8.19335 12.8403 8.19335Z" fill="#C8102E"/>
<path d="M13.8265 9.70512C13.1121 9.70512 13.0404 9.90397 13.0404 9.90397C13.0178 9.9317 13.0293 9.9968 12.9793 10.0158C12.8161 10.0788 12.6355 9.94361 12.495 10.1254C12.4102 10.2352 12.2043 10.0998 12.0708 10.1773C12.0409 10.1949 12.0713 10.2709 12.0945 10.281C12.157 10.3085 12.2602 10.3003 12.299 10.3326C12.34 10.3662 12.3364 10.4143 12.3745 10.4424C12.4216 10.4769 12.5101 10.4923 12.5495 10.5467C12.5803 10.5887 12.5901 10.672 12.6348 10.6744C13.7072 10.7353 14.808 10.7352 15.8257 10.3409C15.9409 10.1594 14.8273 9.70512 13.8265 9.70512ZM9.61145 12.0699C9.62556 12.1737 9.59851 12.3329 9.62002 12.335C10.3665 12.4165 11.1241 12.2838 11.8149 11.9668C12.0071 11.8852 11.0648 11.3946 10.2808 11.3946C10.026 11.3946 9.85257 11.5029 9.85257 11.5029C9.80887 11.528 9.77384 11.6304 9.72302 11.7067C9.68515 11.7634 9.75765 11.8522 9.72722 11.8888C9.67094 11.9566 9.60147 11.9982 9.61145 12.0699V12.0699ZM10.6323 10.2529C10.5961 10.259 10.569 10.3177 10.5422 10.3557C10.4745 10.4511 10.2599 10.43 10.2617 10.5385C10.2641 10.7364 10.0437 10.7726 10.0087 10.9152C9.98127 11.0269 9.92121 11.1114 9.91297 11.2316C10.7049 11.2359 11.5197 11.1848 12.2217 10.7816C12.4053 10.698 11.2548 10.163 10.6323 10.2529ZM13.1537 9.57397C13.0961 9.34423 12.8174 9.3012 12.6273 9.19006C12.552 9.14588 12.4635 9.16604 12.3765 9.20341C12.1879 9.28441 11.9453 9.14688 11.7507 9.28675C11.6953 9.32699 11.6656 9.40186 11.5939 9.42041C11.505 9.44353 11.4152 9.44721 11.3244 9.45872C11.2911 9.46335 11.2286 9.48585 11.2327 9.52367C11.2508 9.6852 11.1005 9.7189 10.9813 9.76057C10.8647 9.80157 10.9061 9.95531 10.9025 10.0686C11.6741 10.0784 12.4768 9.96967 13.1537 9.57397ZM9.22021 13.3837C9.41857 13.4869 10.3779 13.3483 10.878 13.0375C10.3643 12.6017 9.54208 12.4436 9.54208 12.4436C9.42807 12.7547 9.31013 13.0642 9.22021 13.3838V13.3837Z" fill="#C8102E"/>
<path d="M9.07656 13.5654C8.98288 13.6152 8.87544 13.7566 8.96046 13.814C9.11267 13.9172 9.36523 14.1484 10.5302 14.1484C11.6646 14.1484 12.0961 13.7978 12.3108 13.5802C12.3108 13.4397 11.3128 13.1522 11.1788 13.2303C11.1377 13.2507 11.1328 13.2919 11.1272 13.3101C11.0825 13.3276 10.9438 13.3298 10.9109 13.3538C10.8335 13.4106 10.8489 13.5033 10.8283 13.5087C10.6512 13.5528 10.4318 13.4413 10.2642 13.5176C10.2193 13.5384 10.2231 13.6635 10.1636 13.668C10.0422 13.6772 9.90859 13.605 9.79298 13.6419C9.77242 13.6487 9.7099 13.6578 9.66883 13.6837C9.60531 13.6511 9.57154 13.6431 9.48853 13.6231C9.42716 13.608 9.36781 13.6502 9.29264 13.6374C9.22224 13.6252 9.14317 13.5299 9.07656 13.5654ZM13.6765 12.7464C13.886 12.6373 14.1381 12.627 14.292 12.4189C13.3517 11.9278 12.2536 11.9786 12.1195 12.0562C12.0864 12.0756 12.0478 12.144 12.0058 12.1708C11.9413 12.2132 11.8814 12.1928 11.8386 12.2356C11.813 12.2612 11.8412 12.3289 11.8231 12.354C11.7995 12.3871 11.7474 12.393 11.7149 12.4106C11.6819 12.4286 11.6121 12.3991 11.5602 12.4211C11.5085 12.443 11.5064 12.4915 11.4725 12.5086C11.3464 12.5729 11.1634 12.4984 11.0766 12.4997C11.0318 12.5005 11.0434 12.5711 11.0578 12.5853C11.1141 12.641 11.2767 12.658 11.2705 12.7405C11.269 12.7574 11.2301 12.8149 11.2055 12.8181C11.2917 13.0022 12.0937 13.2462 13.1487 12.8963C13.3249 12.8433 13.507 12.8344 13.6765 12.7463V12.7464ZM14.8766 11.3909C14.9629 11.3332 15.0728 11.3325 15.1242 11.2508C15.2381 11.103 14.1395 10.8588 13.6937 10.8588C13.2508 10.8588 12.4327 10.97 12.2924 11.0193C12.2342 11.0435 12.2311 11.1621 12.1629 11.1705C12.0315 11.1866 11.9014 11.2026 11.7692 11.2137C11.7258 11.2172 11.7367 11.2868 11.7503 11.2975C11.8362 11.3669 11.8627 11.4099 11.8989 11.5162C11.9026 11.5262 11.9918 11.5174 12.0113 11.534C12.0971 11.6081 12.1585 11.7135 12.266 11.7397C12.7863 11.8645 13.2891 11.899 13.8217 11.7752C13.8787 11.7621 13.9205 11.7157 13.9714 11.7095C14.1582 11.6853 14.3526 11.674 14.4975 11.5361C14.5997 11.4386 14.7628 11.4676 14.8766 11.3909ZM16.1402 9.14172C16.1708 9.12276 16.1459 9.02387 16.1203 9.0201C16.001 9.00195 15.8718 8.95373 15.7427 9.06958C15.699 9.10898 15.6177 9.02421 15.5573 9.0607C15.5084 9.08976 15.4602 9.16797 15.4148 9.18822C15.291 9.24324 15.1709 9.11469 15.0344 9.13067C14.9943 9.13511 15.004 9.22425 14.9642 9.23359C14.8467 9.26139 14.744 9.13344 14.6777 9.17645C14.5762 9.24188 14.491 9.32522 14.3682 9.26994C14.2502 9.21635 14.0945 9.10487 14.0138 9.17511C13.8738 9.29742 13.7034 9.12018 13.5802 9.16794C13.4759 9.20837 13.1953 9.27524 13.3867 9.38621C13.9813 9.74619 15.223 9.67469 16.1402 9.14175V9.14172ZM10.246 15.8919C10.215 15.8356 10.1346 15.8658 10.0792 15.8332C10.039 15.8089 10.0198 15.7252 9.98049 15.6928C9.95009 15.6678 9.87673 15.7246 9.83903 15.7026C9.78553 15.6711 9.7447 15.6034 9.70293 15.5567C9.65648 15.5051 9.61381 15.4491 9.5681 15.3975C9.52526 15.3491 9.47948 15.3047 9.42477 15.2724C9.39537 15.255 9.33825 15.2925 9.30271 15.2833C9.23979 15.2665 9.20316 15.1571 9.15167 15.1114C9.1221 15.0852 9.07489 15.0816 9.04874 15.0567C9.02195 15.0309 9.01624 14.9835 8.98809 14.9524C8.95088 14.9115 8.89643 14.897 8.85619 14.8641C8.80168 14.8195 8.76086 14.7065 8.71886 14.6442C8.67692 14.582 8.61483 14.5751 8.57452 14.5205C8.52401 14.4522 8.49445 14.3373 8.4327 14.2681C8.37087 14.1982 8.21605 14.3098 8.16874 14.404C8.09113 14.558 8.09567 14.7537 8.21402 14.8858C8.79623 15.5361 9.55222 16.0756 10.4174 16.218C10.3529 16.1249 10.2849 15.9626 10.246 15.8919ZM12.1605 15.6742C12.0723 15.6496 11.9951 15.6009 11.9143 15.5676C11.8645 15.5471 11.8165 15.6244 11.7628 15.5924C11.6542 15.5276 11.5608 15.4347 11.4744 15.3656C11.4058 15.3108 11.2684 15.1731 11.2093 15.2009C11.186 15.2112 11.1526 15.3391 11.0965 15.297C10.9612 15.1956 10.8733 15.0865 10.747 14.9759C10.6891 14.9256 10.634 15.092 10.5606 15.0567C10.3917 14.9746 10.3238 14.7916 10.1939 14.662C10.0423 14.5111 9.89741 14.3362 9.68891 14.281C9.65428 14.2719 9.67337 14.3224 9.64091 14.3477C9.48165 14.4721 9.30632 14.2597 9.15165 14.1888C9.00977 14.1233 8.88492 14.0193 8.7253 14.0084C8.69144 14.0059 8.69297 14.057 8.70582 14.0722C9.61514 15.1479 10.8769 15.9549 12.2627 15.9223C12.2949 15.9216 12.3605 15.9252 12.3066 15.8584C12.2635 15.8055 12.2151 15.6894 12.1605 15.6742ZM13.4476 14.8906C13.4071 14.8847 13.3442 14.9393 13.3091 14.9327C13.2017 14.9125 13.1167 14.816 12.9863 14.7471C12.9325 14.7188 12.9045 14.8459 12.8624 14.8432C12.6462 14.8309 12.3339 14.6017 12.1409 14.4861C12.1067 14.4655 11.9005 14.5066 11.8663 14.5135C11.7422 14.5385 11.5843 14.3212 11.4868 14.2754C11.4129 14.241 11.31 14.2045 11.2398 14.257C11.1446 14.3278 11.0316 14.2899 10.9273 14.2885C10.8869 14.2876 10.8512 14.3736 10.801 14.3894C10.6589 14.435 10.5015 14.3362 10.362 14.4058C10.358 14.4077 10.3389 14.4369 10.34 14.447C10.3495 14.5344 10.4473 14.5491 10.5117 14.5884C11.511 15.2223 13.0542 15.4275 13.914 15.2352C13.9335 15.2292 13.9031 15.1557 13.8451 15.1114C13.7852 15.0654 13.6967 15.048 13.6594 15.0219C13.5727 14.9611 13.5264 14.9025 13.4476 14.8906ZM15.4592 13.9682C15.3534 13.9995 15.2716 13.922 15.1837 13.9555C15.1636 13.9634 15.1498 13.9967 15.133 13.9968C14.9673 14.0001 14.8569 13.8218 14.6882 13.8353C14.6465 13.8386 14.6473 13.9124 14.6118 13.9208C14.5079 13.9452 14.4157 13.8194 14.322 13.8645C14.2552 13.8972 14.2082 13.8948 14.1442 13.876C14.0612 13.8516 13.9995 13.7778 13.9194 13.7652C13.8486 13.7541 13.7789 13.8243 13.699 13.801C13.5003 13.7431 13.3461 13.5542 13.1327 13.5995C13.0274 13.6217 12.9368 13.5497 12.8641 13.5933C12.7842 13.6405 12.7616 13.6981 12.6807 13.7462C12.6259 13.7794 12.4976 13.7752 12.4402 13.81C12.3968 13.8366 12.3857 13.9037 12.336 13.9242C12.2426 13.9628 12.1322 13.9354 12.0447 13.9849C12.0344 13.9906 12.0287 14.0394 12.0661 14.0499C12.8809 14.3261 14.1997 14.6299 15.775 14.2212C15.8236 14.2063 15.8336 14.1773 15.7941 14.1317C15.7076 14.0316 15.5888 13.9296 15.4592 13.9682ZM17.3444 12.5876C17.2052 12.6523 17.044 12.5804 16.8896 12.6171C16.8493 12.6266 16.8802 12.6841 16.8399 12.6897C16.6886 12.7112 16.5317 12.6725 16.3899 12.7279C16.279 12.771 16.1459 12.722 16.0238 12.7251C15.9774 12.7263 15.9763 12.7886 15.9691 12.8391C15.9626 12.8819 15.898 12.9075 15.8789 12.9018C15.7277 12.8569 15.5828 12.8406 15.4295 12.8181C15.0445 12.7612 14.6633 12.6388 14.3013 12.7469C14.1832 12.7824 14.0266 12.812 13.9361 12.9039C13.9013 12.9395 13.8643 13.0097 13.818 13.0266C13.5965 13.1072 13.3552 13.1221 13.1344 13.2008C13.0677 13.2243 12.9406 13.3179 12.9881 13.3301C12.9881 13.3301 13.6693 13.5279 14.4125 13.5279C15.8427 13.5279 16.9331 13.176 17.7307 12.7408C17.6849 12.683 17.4498 12.5385 17.3444 12.5876ZM18.9139 11.0211C18.8261 11.05 18.7064 10.9672 18.6314 11.0226C18.5194 11.1051 18.3879 11.0902 18.2729 11.0783C18.218 11.0725 18.132 11.0532 18.0834 11.0912C18.052 11.1159 18.0971 11.1555 18.1265 11.182C17.837 11.2816 17.5177 11.1878 17.2432 11.2993C17.2226 11.3076 17.2102 11.4084 17.1595 11.4185C16.9075 11.4694 16.6716 11.3705 16.4217 11.4162C16.3582 11.428 16.3864 11.5625 16.3199 11.5657C16.0955 11.5767 15.8769 11.5578 15.6528 11.5485C15.3861 11.5374 15.1405 11.6341 14.8889 11.7112C14.814 11.7337 14.7916 11.8527 14.711 11.8648C14.4935 11.898 14.2722 11.86 14.0738 11.9579C14.0604 11.9645 14.0595 12.0312 14.0741 12.0391C14.3172 12.1764 14.5958 12.2713 14.762 12.4934C16.4537 12.4756 18.274 12.2545 19.6825 11.0996C19.7103 11.0771 19.5435 11.0423 19.4537 11.0215C19.3662 11.0011 19.2941 11.0011 19.1879 10.9664C19.0935 10.9353 19.0062 10.9909 18.9139 11.0211ZM20.6703 9.43008C20.6531 9.41974 20.3971 9.37363 20.2556 9.40689C20.2252 9.41403 20.2073 9.46342 20.179 9.46803C19.9961 9.49735 19.8674 9.58466 19.6817 9.59037C19.6429 9.59128 19.5594 9.61893 19.5094 9.64269C19.442 9.67522 19.3497 9.59617 19.2971 9.65513C19.2632 9.6932 19.3223 9.78459 19.2607 9.81365C19.099 9.88978 18.91 9.75319 18.7516 9.85642C18.7055 9.88625 18.8003 9.98722 18.7409 10.006C18.5132 10.0772 18.1195 9.72376 17.9705 10.0907C17.9473 10.1484 17.876 10.1223 17.8315 10.1107C17.7884 10.0996 17.7275 10.0796 17.7018 10.101C17.5624 10.2145 17.4804 10.2598 17.2842 10.2047C17.2347 10.1904 17.2338 10.338 17.1374 10.3145C17.0272 10.288 16.9212 10.2085 16.8205 10.2535C16.7736 10.2745 16.8082 10.397 16.7399 10.4037C16.4657 10.4298 16.1831 10.3903 15.9305 10.5025C15.8682 10.5304 15.8624 10.6424 15.7751 10.6568C15.5828 10.6886 15.3911 10.6662 15.2115 10.7245C15.1823 10.7338 15.1891 10.8194 15.2336 10.8259C15.3487 10.843 15.4796 10.8251 15.568 10.8778C15.6765 10.9426 15.7452 11.1251 15.8519 11.1294C18.0243 11.1714 19.5938 10.3929 20.6703 9.49501C20.7129 9.45805 20.6908 9.44269 20.6703 9.43008ZM20.1378 8.15572C20.1052 8.17052 20.1155 8.27806 20.0534 8.30688C19.9465 8.35607 19.8249 8.35464 19.7106 8.38936C19.6673 8.40278 19.6697 8.46027 19.6336 8.48278C19.5729 8.5215 19.4907 8.48933 19.4463 8.52209C19.1719 8.72321 18.8456 8.63299 18.5408 8.68338C18.5456 8.91307 18.1831 8.77279 18.0345 8.87276C17.8721 8.98153 17.8937 8.9518 17.6522 8.95407C17.5772 8.9549 17.6177 9.06564 17.5573 9.0669C17.3647 9.07034 17.1159 9.00926 16.9723 9.05102C16.9465 9.0585 16.9381 9.17988 16.887 9.19359C16.7823 9.22165 16.6723 9.23299 16.5719 9.26476C16.4942 9.28935 16.5958 9.43622 16.4917 9.46922C16.3148 9.52517 16.1201 9.48434 15.9417 9.5854C15.8718 9.6254 15.7691 9.58767 15.6782 9.60439C15.6009 9.61824 15.5714 9.69943 15.6345 9.73511C15.6917 9.7673 15.7871 9.75889 15.8434 9.78669C15.974 9.85112 16.0824 9.94437 16.2228 9.95321C18.5178 10.0944 21.4864 8.46306 21.954 6.48706C21.9703 6.40756 21.9338 6.4222 21.9176 6.46654C21.4197 7.65217 20.1378 8.15572 20.1378 8.15572Z" fill="#C8102E"/>
</svg>
