<svg width="40" height="40" viewBox="0 0 40 40" fill="none" xmlns="http://www.w3.org/2000/svg">
<path d="M28.9469 31.7409C28.5805 31.7409 28.283 32.038 28.283 32.4047C28.283 32.771 28.5805 33.0685 28.9469 33.0685C29.3134 33.0685 29.6105 32.771 29.6105 32.4047C29.6105 32.038 29.3134 31.7409 28.9469 31.7409ZM28.9469 32.9261C28.8784 32.9262 28.8106 32.9127 28.7473 32.8865C28.6841 32.8604 28.6266 32.822 28.5781 32.7735C28.5297 32.7251 28.4913 32.6676 28.4651 32.6043C28.439 32.541 28.4255 32.4732 28.4256 32.4047C28.4256 32.1167 28.6586 31.8837 28.9469 31.8837C29.235 31.8837 29.4682 32.1166 29.4682 32.4047C29.4682 32.6929 29.235 32.9261 28.9469 32.9261ZM29.2197 32.2508C29.2197 32.2213 29.2138 32.192 29.2025 32.1647C29.1912 32.1374 29.1746 32.1126 29.1537 32.0917C29.1327 32.0709 29.1079 32.0543 29.0806 32.043C29.0533 32.0317 29.024 32.0259 28.9945 32.026H28.6746V32.7837H28.8168V32.4759H28.9188L29.0625 32.7837H29.2197L29.0697 32.4628C29.1135 32.4472 29.1515 32.4185 29.1783 32.3806C29.2052 32.3426 29.2196 32.2973 29.2197 32.2508H29.2197ZM28.9945 32.3337H28.8168V32.1679H28.9945C29.0402 32.1679 29.0775 32.205 29.0775 32.2509C29.0774 32.2729 29.0686 32.2939 29.0531 32.3094C29.0375 32.325 29.0164 32.3337 28.9945 32.3337Z" fill="#041E42"/>
<path d="M34.1599 20.0001C34.1599 27.8207 27.8231 34.1601 20.0021 34.1601C12.1817 34.1601 5.84009 27.8208 5.84009 20.0001C5.84009 12.1792 12.1798 5.83997 20.0002 5.83997C27.8213 5.83997 34.1599 12.1792 34.1599 20.0001Z" fill="#A2AAAD"/>
<path d="M20 6.79034C12.7043 6.79034 6.79102 12.7051 6.79102 20.0001C6.79102 27.2948 12.7063 33.2098 20.0019 33.2098C27.2976 33.2098 33.2088 27.2948 33.2088 20.0001C33.2088 12.705 27.2956 6.79034 20 6.79034ZM25.9789 22.5423L25.3924 22.2501L21.6721 22.499V23.0486L23.3616 25.4789V26.9531L21.0313 25.8041L20.8395 25.3203L19.9998 27.179L19.1861 25.3199L18.9937 25.8041L16.6638 26.9531V25.4793L18.3536 23.0486V22.499L14.6333 22.2501L14.0465 22.5423V19.1369L14.0394 18.1791L14.8491 20.127L18.5396 18.366L18.7386 16.1054L20.0015 10.2314L21.287 16.1054L21.486 18.366L25.1762 20.1271L25.9642 18.1543L25.9788 19.1369L25.9789 22.5423Z" fill="#041E42"/>
<path d="M21.2784 10.3454L20.001 7.12604L18.6463 10.3455C13.8794 10.9886 10.2034 15.0708 10.2034 20.0142C10.2034 25.4037 14.6112 29.7734 20.001 29.7734C25.3909 29.7734 29.7213 25.4037 29.7213 20.0142C29.7213 15.0708 26.0456 10.9884 21.2784 10.3454ZM25.9792 22.5423L25.3927 22.2501L21.6725 22.4989V23.0485L23.3619 25.4789V26.9531L21.0316 25.8041L20.8399 25.3202L20.0002 27.179L19.1864 25.3199L18.9941 25.8041L16.6641 26.9531V25.4793L18.3539 23.0486V22.4989L14.6336 22.2501L14.0469 22.5423V19.1369L14.0397 18.1791L14.8494 20.127L18.54 18.366L18.739 16.1053L20.0019 10.2314L21.2874 16.1053L21.4863 18.366L25.1766 20.127L25.9646 18.1543L25.9792 19.1369L25.9792 22.5423Z" fill="white"/>
<path d="M14.0391 18.1792L14.849 20.1271L18.5395 18.366L18.7386 16.1054L19.0127 14.8394L17.1532 13.6202L17.9016 18.0521L15.9226 16.0775L15.8684 17.6356L12.9725 16.5429L14.0464 19.3865V19.1369L14.0391 18.1792ZM18.3534 22.499L15.728 22.3233L16.7899 23.2498L16.1657 24.0268L17.5201 24.2472L18.3534 23.0486V22.499ZM20.0014 27.1702L19.1858 25.32L19.1703 25.3591L20.0015 29.3954L20.8428 25.3292L20.8393 25.3203L20.0014 27.1702ZM21.6719 23.0486L22.5056 24.2481L23.8765 24.0274L23.2519 23.2497L24.3151 22.3221L21.6719 22.499L21.6719 23.0486ZM21.4859 18.366L25.1761 20.1271L25.9641 18.1544L25.9787 19.1368V19.432L27.0704 16.5425L24.1735 17.6356L24.1189 16.0775L22.1401 18.0524C22.1908 17.7446 22.8885 13.6202 22.8885 13.6202L21.0146 14.8508L21.287 16.1054L21.4859 18.3661V18.366ZM27.5739 19.4792L25.9787 19.4716V20.8709L27.5739 19.4792ZM12.4678 19.4792L14.0464 20.8563V19.4716L12.4678 19.4792Z" fill="#782F40"/>
<path d="M18.3503 22.499L15.9433 22.3381L16.9607 23.2259C16.9445 23.2709 16.4089 23.9335 16.4089 23.9335L17.6004 24.1274L18.3503 23.0486V22.499ZM18.9803 14.975L17.3325 13.893L17.3358 13.9126L18.6465 17.1156L18.7354 16.1054L18.9803 14.975ZM17.9006 18.2348C17.899 18.2335 17.8975 18.2327 17.8959 18.2314L16.0431 16.3834L15.989 17.8181L13.2189 16.7761L15.9235 19.6128L18.1977 18.5276L17.9006 18.2348ZM19.4013 25.8112L20.0028 28.8495L19.9999 27.1803L19.4013 25.8112ZM12.8154 19.6084L14.0434 20.6799V19.6027L12.8154 19.6084ZM22.697 13.9029L21.0426 14.9942L21.2282 15.8489L22.697 13.9029ZM26.8435 16.7732L24.0772 17.8198L23.2683 19.2182L23.8215 19.4822L26.8435 16.7732Z" fill="#A6192E"/>
<path d="M25.9644 18.1543L25.1764 20.127L21.4862 18.366L21.2873 16.1053L20.0018 10.2314L18.7388 16.1053L18.5398 18.366L14.8492 20.127L14.0396 18.1791L14.0467 19.1369V22.5423L14.6335 22.2501L18.3538 22.4989V23.0485L16.6639 25.4793V26.9531L18.9939 25.8041L19.1862 25.3199L20 27.179L20.8397 25.3202L21.0315 25.8041L23.3617 26.9531V25.4789L21.6723 23.0486V22.4989L25.3925 22.2501L25.979 22.5423V19.1369L25.9644 18.1543V18.1543ZM20.0003 26.5446L19.1949 24.7153L18.9211 24.0806L19.0833 24.8886L18.7933 25.619L16.9189 26.5435V25.5591L18.6083 23.1287V22.261L14.5813 21.9916L14.3018 22.1308V19.4744L14.717 20.4724L18.4239 18.7037L18.6659 19.8888L18.7798 18.5339L18.781 18.5336L18.9912 16.1407L20.0009 11.261L20.0003 26.5446V26.5446Z" fill="#53565A"/>
</svg>
