<svg width="24" height="24" viewBox="0 0 24 24" fill="none" xmlns="http://www.w3.org/2000/svg">
<path d="M21.5319 12.9322C21.2936 12.9322 21.1001 13.1254 21.1001 13.3638C21.1001 13.602 21.2936 13.7955 21.5319 13.7955C21.7701 13.7955 21.9633 13.602 21.9633 13.3638C21.9633 13.1254 21.7701 12.9322 21.5319 12.9322ZM21.5319 13.7028C21.4873 13.7029 21.4432 13.6941 21.4021 13.6771C21.3609 13.6601 21.3235 13.6351 21.2921 13.6036C21.2606 13.5722 21.2356 13.5348 21.2186 13.4936C21.2015 13.4525 21.1928 13.4084 21.1928 13.3638C21.1928 13.1765 21.3443 13.025 21.5319 13.025C21.7192 13.025 21.8708 13.1765 21.8708 13.3638C21.8708 13.5512 21.7192 13.7028 21.5319 13.7028ZM21.7092 13.2638C21.7092 13.2445 21.7054 13.2255 21.698 13.2078C21.6907 13.19 21.6799 13.1739 21.6663 13.1603C21.6527 13.1467 21.6365 13.136 21.6188 13.1286C21.601 13.1213 21.582 13.1175 21.5627 13.1175H21.3548V13.6102H21.4472V13.4101H21.5136L21.607 13.6102H21.7092L21.6117 13.4016C21.6402 13.3915 21.6648 13.3728 21.6823 13.3481C21.6998 13.3235 21.7092 13.294 21.7092 13.2638H21.7092ZM21.5627 13.3176H21.4472V13.2098H21.5627C21.5925 13.2098 21.6168 13.234 21.6168 13.2638C21.6167 13.2781 21.611 13.2918 21.6009 13.3019C21.5907 13.3119 21.577 13.3176 21.5627 13.3176Z" fill="white"/>
<path d="M20.548 13.4044C21.2146 12.4387 21.5566 11.4736 21.5566 10.5335C21.5566 8.05394 19.0209 6.38724 15.2462 6.38724C15.2462 6.38724 15.0659 6.39032 14.9405 6.39227C14.5586 5.76654 13.8476 5.41801 13.2497 5.29046L12.1061 3.48309L9.68349 7.44207C5.29719 9.07499 2.23893 12.1244 2.23893 14.8765C2.23893 15.9055 2.68037 16.8174 3.50867 17.5301L1.68018 20.5169C1.68018 20.5169 4.88783 20.0059 9.74066 19.7248L10.0369 18.9412C11.4585 18.7909 12.9384 18.4249 14.347 17.8776C14.3598 17.9724 14.3813 18.0722 14.4306 18.1704L14.6959 18.7C15.093 19.4947 15.8802 20.4418 17.3738 20.4418C21.1827 20.4418 22.3192 17.2237 22.3192 17.2237C22.3684 14.6919 20.548 13.4044 20.548 13.4044Z" fill="white"/>
<path d="M20.2591 13.448C20.9461 12.5064 21.3432 11.5135 21.3432 10.5335C21.3432 8.29854 19.1177 6.60033 15.246 6.60033C15.1055 6.60033 14.9647 6.60356 14.8237 6.60793C14.4646 5.90528 13.6553 5.57511 13.1162 5.47878L12.1093 3.88657L9.82768 7.61396C5.75107 9.11259 2.452 12.0482 2.452 14.8765C2.452 15.8949 2.91534 16.8012 3.78449 17.4867L2.09912 20.2404C2.09912 20.2404 5.58156 19.7353 9.59007 19.5195L9.88324 18.7437C11.4789 18.5898 13.0786 18.1721 14.5556 17.5673C14.5467 17.628 14.5191 17.8707 14.6211 18.0749L14.8862 18.6052C15.3057 19.4437 16.0657 20.2287 17.3733 20.2287C21.0272 20.2287 22.1059 17.1872 22.1059 17.1872C22.1059 15.4884 21.3261 14.2557 20.2591 13.448Z" fill="#236192"/>
<path d="M20.9883 16.2201C20.7552 16.5752 20.3735 16.9903 20.2612 17.1103L20.2591 18.1728L20.1904 18.1796L20.0454 18.1934L19.6789 17.6265C17.0212 19.4928 15.0269 18.3449 15.0269 18.3449L15.6257 19.2664C16.6924 20.6339 20.1771 20.1408 21.6628 17.6103L21.4613 17.6025C21.4263 17.0276 20.9883 16.2201 20.9883 16.2201Z" fill="#010101"/>
<path d="M17.0773 12.2702L13.8447 7.15923C13.7335 7.13535 13.6142 7.1241 13.4883 7.1241L16.7338 12.2557C16.8465 12.2571 16.9613 12.2615 17.0773 12.2702ZM7.2352 12.9322L12.1171 4.9564L12.4324 5.45513C12.561 5.4681 12.6833 5.48505 12.7986 5.50557L12.1132 4.42173L7.19092 12.4637C7.19149 12.5606 7.19874 12.7319 7.2352 12.9322Z" fill="#A2AAAD"/>
<path d="M12.6568 16.1462C10.8025 16.1462 9.56172 17.0744 7.87275 17.0744C5.52156 17.0744 4.80076 15.4153 4.80076 14.2672C4.80076 10.7294 8.97149 8.59663 8.97149 8.59663L9.05358 8.46252C9.03963 8.46867 9.00369 8.48579 8.95014 8.51198C8.25736 8.85363 4.51424 10.8563 4.51424 14.2672C4.51424 14.8133 4.63983 15.306 4.86058 15.7291C4.91013 15.8236 4.96471 15.9155 5.0241 16.0042L2.65381 19.8759C2.65381 19.8759 5.57828 19.4589 9.39083 19.2473L10.2748 16.9084C11.048 16.6808 11.8026 16.4525 12.7765 16.4525C14.839 16.4525 16.1646 17.5568 16.1646 17.5568C16.1646 17.5568 15.4096 16.1462 12.6568 16.1462Z" fill="#A2AAAD"/>
<path d="M13.4883 7.12407C12.6412 7.12651 11.4816 7.65707 10.2544 8.52372L10.8127 7.61362L11.195 7.30439L11.4863 6.24864L11.9593 6.1031L12.0987 5.4296C12.2151 5.43501 12.3254 5.44411 12.4324 5.4551L12.1171 4.9564L7.23522 12.9322C7.33915 13.5035 7.68239 14.3111 8.7933 14.3111C11.0179 14.3111 14.2341 12.2548 16.6807 12.2548C16.6981 12.2548 16.716 12.2556 16.7338 12.2556L13.4883 7.12413V7.12407ZM5.20621 16.2474L3.20459 19.5172C3.20459 19.5172 5.69809 19.1837 9.19129 18.9761L9.93531 17.0065C9.27168 17.195 8.56993 17.3588 7.68581 17.3588C6.69022 17.3588 5.79071 16.9486 5.20621 16.2474Z" fill="#6F263D"/>
<path d="M18.365 19.0062L18.5284 18.7363C16.3153 19.4694 15.4009 18.7108 15.4009 18.7108C16.1494 19.5522 17.7588 19.1842 18.365 19.0062Z" fill="#A2AAAD"/>
<path d="M15.7345 19.1603C16.3718 19.9411 18.3118 19.8603 19.8311 18.9513L19.945 18.6509C18.9928 19.3043 16.8752 19.9095 15.7345 19.1603ZM12.1465 10.7077L11.1433 13.3745C11.1433 13.3745 9.74672 13.9023 8.8252 14.0529C10.6731 14.1928 13.8827 12.1015 15.9802 12.1015C15.0361 11.8064 12.7677 12.7004 12.7677 12.7004L12.1465 10.7077Z" fill="#A2AAAD"/>
<path d="M12.1214 11.5771C11.9311 12.0827 11.7142 12.6598 11.5078 13.2085L12.5022 12.7985C12.384 12.42 12.2503 11.9917 12.1214 11.5771Z" fill="#236192"/>
<path d="M8.94975 8.51198C5.82122 9.7284 3.39502 11.9058 3.39502 14.0953C3.39502 15.0412 3.81799 15.7777 4.48766 16.3377L4.86022 15.7291C4.63947 15.306 4.51387 14.8133 4.51387 14.2672C4.51387 10.8563 8.257 8.85363 8.94978 8.51198H8.94975ZM19.8425 13.1627C20.2156 12.5468 20.4247 11.9063 20.4247 11.2644C20.4247 8.82319 17.6065 7.77466 14.9986 7.56758C14.9815 7.7698 14.9356 7.98905 14.854 8.22649L17.4356 12.3077C18.2414 12.4165 19.0915 12.697 19.8425 13.1627ZM13.8445 7.15926C14.2117 7.23766 14.4954 7.44958 14.6651 7.82024C14.8768 7.01283 14.6125 5.82639 12.7985 5.50554C12.6771 5.48416 12.5549 5.46734 12.4322 5.4551C12.3212 5.44346 12.21 5.43496 12.0985 5.4296L11.9591 6.1031L11.486 6.24861L11.1948 7.30436L10.8125 7.61362L10.2542 8.52372C11.4813 7.65707 12.6411 7.12648 13.4881 7.12407C13.6141 7.12407 13.7333 7.13535 13.8445 7.15926Z" fill="white"/>
<path d="M16.6828 12.4784C14.0022 12.4784 11.0574 14.567 8.74544 14.567C8.05913 14.567 7.85217 14.3123 7.85217 14.3123L7.75204 14.4678C7.75204 14.4678 4.91806 13.1074 8.78788 8.89587C8.78788 8.89587 5.45581 10.6333 5.19043 14.1485L5.39199 13.9804C5.39199 13.9804 5.28711 16.346 7.96582 16.346C10.1202 16.346 10.8842 15.5462 12.883 15.5462C17.1473 15.5462 17.8305 17.9771 17.8305 17.9771C17.8305 17.9771 15.036 18.8009 14.8517 17.2577C14.8517 17.2577 14.4255 19.0656 18.0072 18.1557C18.0072 18.1557 18.2334 17.8016 18.2064 17.34C18.2064 17.34 18.5369 17.672 18.5942 17.9256C18.5942 17.9256 18.8654 17.6155 18.4304 16.78C18.4304 16.78 18.8017 17.1194 19.0434 17.6144L19.1932 17.4883C19.1932 17.4883 19.2045 17.1266 18.4848 16.1558L17.9954 16.4631C17.9954 16.4631 16.8555 14.3098 12.6177 14.5862C12.6177 14.5862 16.1468 13.3343 18.2 15.8832L18.6423 15.5804C18.6423 15.5804 19.8741 16.7775 20.1906 18.1796L20.2594 18.1728L20.2615 17.1103L20.2641 15.8411L20.6211 16.2591C20.6211 16.2591 20.7939 15.9449 20.5867 15.2884C20.5867 15.2884 21.4159 16.0986 21.6631 17.6103L21.727 16.769C21.727 16.0441 20.5234 12.4784 16.6828 12.4784ZM19.7683 14.8947L19.6459 15.8069L19.0738 15.2036L18.7939 15.3499C18.409 14.8623 16.9254 13.6274 15.1883 13.6274C12.6963 13.6274 10.5643 15.4268 8.43002 15.4268C6.10039 15.4268 6.00656 14.0359 6.00656 13.4855C6.00656 12.4637 6.60476 11.3495 6.60476 11.3495C6.39989 11.9747 5.52667 15.0529 8.59205 15.0529C11.0043 15.0529 12.2968 13.3874 15.1085 13.3874C17.8138 13.3874 18.9059 14.9294 18.9059 14.9294L19.1162 14.7968L19.5155 15.227L19.546 14.782L19.7918 14.352C19.2237 13.2312 17.954 12.8371 17.954 12.8371C19.6169 13.1494 20.1151 14.3632 20.1151 14.3632L19.7683 14.8947Z" fill="white"/>
<path d="M10.467 17.198L10.2305 17.8245C11.6347 17.7758 13.0551 17.4892 14.3719 17.0312C12.9279 16.3611 10.6956 17.1174 10.467 17.198Z" fill="white"/>
<path d="M14.2706 6.91422C13.5059 6.1866 11.6983 6.78077 11.6983 6.78077L11.6499 6.97505C13.4696 6.29559 14.2706 6.91422 14.2706 6.91422Z" fill="#236192"/>
<path d="M10.873 7.89301C13.1357 6.62801 14.0618 6.96785 14.4097 7.27254C13.3326 6.14217 11.0614 7.60447 11.0614 7.60447L10.8731 7.89306L10.873 7.89301Z" fill="#A2AAAD"/>
</svg>
