<svg width="24" height="24" viewBox="0 0 24 24" fill="none" xmlns="http://www.w3.org/2000/svg">
<path d="M10.7037 16.2823C10.4484 16.2823 10.2412 16.4892 10.2412 16.7446C10.2412 16.9997 10.4485 17.207 10.7037 17.207C10.9589 17.207 11.1658 16.9997 11.1658 16.7446C11.1658 16.4892 10.9589 16.2823 10.7037 16.2823H10.7037ZM10.7037 17.1077C10.656 17.1078 10.6088 17.0984 10.5647 17.0802C10.5206 17.062 10.4806 17.0352 10.4468 17.0015C10.4131 16.9678 10.3863 16.9277 10.3681 16.8836C10.3499 16.8396 10.3405 16.7923 10.3405 16.7446C10.3405 16.544 10.5028 16.3817 10.7037 16.3817C10.9043 16.3817 11.0668 16.544 11.0668 16.7446C11.0668 16.9453 10.9043 17.1077 10.7037 17.1077H10.7037ZM10.8937 16.6374C10.8936 16.6168 10.8896 16.5964 10.8817 16.5774C10.8738 16.5584 10.8622 16.5411 10.8477 16.5266C10.8331 16.5121 10.8158 16.5005 10.7968 16.4927C10.7778 16.4848 10.7574 16.4808 10.7368 16.4808H10.514V17.0085H10.613V16.7942H10.6841L10.7842 17.0085H10.8937L10.7892 16.785C10.8197 16.7742 10.8461 16.7542 10.8648 16.7278C10.8835 16.7014 10.8936 16.6698 10.8937 16.6374H10.8937ZM10.7368 16.6951H10.613V16.5796H10.7368C10.7686 16.5796 10.7946 16.6055 10.7946 16.6374C10.7946 16.6528 10.7885 16.6674 10.7776 16.6782C10.7668 16.689 10.7521 16.6951 10.7368 16.6951Z" fill="white"/>
<path d="M15.8288 4.83431H1.68018V5.28174C1.68018 6.52463 2.27533 7.62105 3.17687 8.26567H1.68018V8.71338C1.68018 9.95586 2.27533 11.0521 3.17687 11.6969H1.68018V12.1446C1.68018 13.3871 2.27533 14.4833 3.17687 15.1281H1.68018V15.5761C1.68018 17.5553 3.18939 19.1657 5.04447 19.1657H8.24738L10.6103 15.171C11.8332 16.8277 13.7648 17.8172 15.8288 17.8172C19.4081 17.8172 22.3202 14.9052 22.3202 11.3259C22.3202 7.74643 19.4081 4.83431 15.8288 4.83431Z" fill="white"/>
<path d="M15.8285 5.28174H2.25684C2.25684 7.01736 3.56269 8.42418 5.17358 8.42418H10.286C10.3656 8.42418 10.4303 8.48891 10.4303 8.5687C10.4303 8.6485 10.3656 8.71338 10.286 8.71338H2.25684C2.25684 10.4487 3.56269 11.8555 5.17358 11.8555H8.25632C8.33596 11.8555 8.40087 11.9203 8.40087 12.0003C8.40087 12.0797 8.33596 12.1446 8.25632 12.1446H2.25687C2.25687 13.8799 3.56269 15.2868 5.17358 15.2868H6.22667C6.265 15.2868 6.30175 15.302 6.32884 15.3291C6.35594 15.3562 6.37116 15.393 6.37116 15.4313C6.37116 15.4697 6.35594 15.5064 6.32885 15.5336C6.30176 15.5607 6.26501 15.576 6.22667 15.5761H2.25687C2.25687 17.3111 3.56269 18.7181 5.17358 18.7181H7.99212L13.2608 9.81017C13.7798 8.93282 14.7353 8.34442 15.8285 8.34442C17.4751 8.34442 18.8099 9.67924 18.8099 11.3259C18.8099 12.9722 17.4751 14.3073 15.8285 14.3073C14.2026 14.3073 12.8808 13.0055 12.8478 11.3874L10.8541 14.7585C11.9446 16.3356 13.7656 17.3697 15.8285 17.3697C19.1664 17.3697 21.8723 14.6636 21.8723 11.3259C21.8723 7.98776 19.1664 5.28174 15.8285 5.28174Z" fill="#010101"/>
<path d="M15.8288 9.6106C14.8815 9.6106 14.1138 10.3785 14.1138 11.3259C14.1138 12.2729 14.8815 13.0409 15.8288 13.0409C16.7762 13.0409 17.5441 12.2729 17.5441 11.3259C17.5441 10.3785 16.7762 9.6106 15.8288 9.6106Z" fill="#FA4616"/>
</svg>
