<svg width="24" height="24" viewBox="0 0 24 24" fill="none" xmlns="http://www.w3.org/2000/svg">
<path d="M3.21777 18.9251C7.51439 19.3035 10.2339 20.5091 11.5657 23.0184C16.1076 22.2824 20.3061 19.3736 20.3061 15.6167C20.3061 10.6192 14.2502 9.82717 14.089 8.37627C16.6403 9.30148 19.444 8.32721 20.7827 5.15206C16.8225 4.85768 13.9278 3.41379 12.6731 0.981613C7.81578 1.84374 3.93271 4.99085 3.93271 8.38328C3.93271 13.3388 10.304 14.6565 11.019 15.7078C7.54242 14.3901 4.5425 15.8901 3.22478 18.9321L3.21777 18.9251Z" fill="#001628"/>
<path d="M10.753 8.11694C10.2133 7.56322 9.982 7.13566 9.982 6.56091C9.982 5.90906 10.2974 5.58664 10.2974 5.22216C10.2974 4.90675 10.1012 4.66143 9.72266 4.58433C9.93293 4.35303 10.2203 4.21284 10.5357 4.19882C12.1548 4.19882 12.6385 7.7805 16.0169 7.64733C17.2225 7.53518 18.3579 6.94641 19.0729 5.91607C16.122 5.53056 13.4235 4.27592 12.1058 2.14514C10.739 2.39747 5.01251 4.36704 5.15269 8.50245C5.30689 12.8061 11.6782 14.0116 13.4585 15.855C14.8674 17.313 13.8791 18.7849 12.9679 19.3176C11.5661 15.6798 6.96806 15.4205 5.13867 18.0489C8.08953 18.4344 10.7881 19.6891 12.1058 21.8198C15.358 21.1329 16.9351 18.2802 16.3323 16.2195C15.344 12.8131 8.91661 12.2103 7.21338 9.02112C6.30219 7.22678 7.05217 5.30627 8.71334 4.19181C8.09654 4.96282 7.7601 5.92308 7.7601 6.91137C7.90729 7.07258 7.97037 7.45107 7.97037 7.45808C7.9914 7.59126 8.03345 7.86461 7.96336 8.03984C8.03345 8.22909 8.13158 8.41834 8.24373 8.58656C8.46802 8.64263 8.72035 8.93 8.72035 8.93701C8.96567 9.21738 9.00072 9.39962 9.00773 9.4627C9.16193 9.59587 9.32314 9.72905 9.49136 9.85521C9.63855 9.84119 9.85583 9.90428 10.0731 10.0515C10.3325 10.2197 10.4586 10.3879 10.4937 10.5071C10.6689 10.6122 10.8581 10.7173 11.0404 10.8155C11.1806 10.7734 11.4189 10.8225 11.6572 10.9416C11.8955 11.0608 12.0707 11.229 12.1198 11.3692C12.309 11.4603 12.4983 11.5584 12.6875 11.6496C12.8277 11.6075 13.066 11.6496 13.3043 11.7687C13.5006 11.8528 13.6618 12 13.7669 12.1893C13.9632 12.2944 14.1524 12.3925 14.3417 12.4977C14.5169 12.4626 14.7973 12.5678 14.9515 12.6589C15.1407 12.757 15.2879 12.9182 15.379 13.1075C15.5683 13.2336 15.7575 13.3598 15.9328 13.493C16.1501 13.507 16.3533 13.5981 16.5075 13.7453C16.7248 13.9415 16.844 14.1518 16.844 14.299C16.9982 14.4602 17.1383 14.6284 17.2645 14.8107C17.4467 14.8527 17.629 15.063 17.7271 15.2733C17.8673 15.5817 17.8533 15.799 17.8112 15.9041C18.0565 16.6681 18.1266 17.6284 17.7271 18.7358C17.7201 18.7498 17.7201 18.7638 17.7131 18.7779C18.5332 17.8807 19.0939 16.7803 19.0448 15.4555C18.8976 11.1519 12.5263 9.95334 10.739 8.10292L10.753 8.11694Z" fill="#95D8D8"/>
<path d="M13.1917 8.56552C12.4627 7.72442 12.0001 6.24549 11.1941 5.66373C10.8296 6.93939 11.5866 8.34122 13.1917 8.56552Z" fill="#C80F2D"/>
<path d="M12.6238 20.5792C12.4836 21.0068 12.3084 21.4203 12.1121 21.8268C10.7944 19.6961 8.10288 18.4414 5.14502 18.0559C8.194 16.5279 11.3481 18.133 12.6238 20.5792ZM19.0722 5.92307C16.0232 7.45106 12.8621 5.84596 11.5934 3.40678C11.7336 2.97922 11.9089 2.56568 12.1051 2.15915C10.8154 2.39045 5.01185 4.34601 5.15203 8.51645C5.30623 12.8201 11.6776 14.0256 13.4579 15.8761C14.8667 17.334 13.8784 18.8059 12.9672 19.3386C12.8761 19.7591 12.757 20.1797 12.6238 20.5862C13.2897 20.4741 15.3013 19.4017 15.3153 17.355C15.3363 14.5303 11.6846 13.7873 8.90894 12.0701C6.63096 10.6613 6.18938 9.25942 6.07724 8.36926C5.80388 6.28754 7.2758 4.38105 9.41359 3.48388C9.15426 3.69415 8.92295 3.93947 8.71969 4.20582C8.10288 4.97683 7.76644 5.93708 7.76644 6.92537C7.91364 7.08659 7.97672 7.46508 7.97672 7.47209C7.99775 7.60526 8.0398 7.87862 7.96971 8.05385C8.0398 8.2431 8.13793 8.43234 8.25007 8.60056C8.47437 8.65664 8.7267 8.94401 8.7267 8.95102C8.97202 9.23139 9.00706 9.41362 9.01407 9.47671C9.16827 9.60988 9.32948 9.74305 9.4977 9.86922C9.6449 9.8552 9.86218 9.91828 10.0795 10.0655C10.3388 10.2337 10.465 10.4019 10.5 10.5211C10.6752 10.6262 10.8645 10.7313 11.0467 10.8295C11.1869 10.7874 11.4252 10.8365 11.6635 10.9556C11.9018 11.0748 12.0771 11.243 12.1261 11.3832C12.3154 11.4743 12.5046 11.5724 12.6939 11.6636C12.8341 11.6215 13.0724 11.6636 13.3107 11.7827C13.5069 11.8668 13.6682 12.014 13.7733 12.2033C13.9695 12.3084 14.1588 12.4065 14.348 12.5117C14.5233 12.4766 14.8036 12.5818 14.9578 12.6729C15.1471 12.771 15.2943 12.9322 15.3854 13.1215C15.5746 13.2476 15.7639 13.3738 15.9391 13.507C16.1564 13.521 16.3597 13.6121 16.5139 13.7593C16.7312 13.9556 16.8503 14.1658 16.8503 14.313C17.0045 14.4742 17.1447 14.6425 17.2709 14.8247C17.4531 14.8667 17.6353 15.077 17.7335 15.2873C17.8736 15.5957 17.8596 15.813 17.8176 15.9181C18.0629 16.6821 18.133 17.6424 17.7335 18.7498C18.7848 16.9625 18.6797 15.1962 17.5092 13.7032C15.056 10.5771 8.87389 10.2057 8.90193 6.62398C8.90894 5.86699 9.20332 5.13804 9.722 4.57731C9.93227 4.34601 10.2196 4.20582 10.5351 4.1918C12.1542 4.1918 12.6378 7.77348 16.0162 7.64031C17.2218 7.52816 18.3573 6.93939 19.0722 5.90905V5.91606V5.92307Z" fill="#629EB5"/>
</svg>
