<svg width="24" height="24" viewBox="0 0 24 24" fill="none" xmlns="http://www.w3.org/2000/svg">
<path d="M11.4409 19.3901V19.7385H11.3538V19.3901H11.2529V19.3036H11.5417V19.3901H11.4409H11.4409ZM11.9129 19.7385V19.4818L11.8396 19.6417H11.7626L11.6893 19.4818V19.7385H11.6022V19.3036H11.6893L11.8011 19.5358L11.9129 19.3036H12V19.7385H11.9129H11.9129Z" fill="white"/>
<path d="M22.3202 3.75131H5.26571C6.39539 5.51353 6.77098 6.09306 5.81015 6.06548L4.39341 3.75131H1.68018L7.84289 13.8186C7.75987 13.8152 7.67565 13.81 7.59372 13.81C5.06765 13.81 3.08896 15.224 3.08896 17.0296C3.08896 18.8348 5.06765 20.2487 7.59372 20.2487C10.1199 20.2487 12.0987 18.8348 12.0987 17.0296C12.0987 16.5727 11.9714 16.1325 11.7204 15.7204L10.3393 13.4647C10.3393 13.4647 11.4511 13.6882 12.2853 13.3028L11.8827 12.7843C11.8827 12.7843 13.5776 12.9415 15.1392 12.4761L14.6098 11.9148C14.6098 11.9148 16.9866 11.8543 18.6339 9.74116H18.4696C18.4696 9.74116 19.6966 9.14932 20.2137 7.84057H20.0539C20.0539 7.84057 20.8402 7.25518 21.108 6.05205H20.8762C20.8762 6.05205 22.1253 5.17144 22.3202 3.75131Z" fill="#041E42"/>
<path d="M21.8984 4.04845H5.81836C7.13591 6.04478 6.74716 6.36633 5.64558 6.36633L4.22677 4.04845H2.21094L8.40294 14.164C8.13842 14.1289 7.86928 14.1073 7.59383 14.1073C5.23441 14.1073 3.38649 15.3908 3.38649 17.0296C3.38649 18.668 5.23441 19.9511 7.59383 19.9511C9.95328 19.9511 11.8015 18.668 11.8015 17.0296C11.8015 16.6281 11.689 16.2399 11.4665 15.8754L9.71318 13.0113C9.71318 13.0113 10.9328 13.413 11.7876 13.1463L11.2474 12.4505C11.2474 12.4505 13.2611 12.6178 14.6077 12.3458L13.967 11.6662C13.967 11.6662 16.9659 11.6364 18.0851 9.78456H17.5717C17.5717 9.78456 18.9855 9.58724 19.6991 8.06008H19.1764C19.1764 8.06008 20.3931 7.49958 20.7231 6.22478H20.1584C20.1584 6.22478 21.4213 5.38638 21.8984 4.04845Z" fill="white"/>
<path d="M21.5627 4.25734H6.19083C7.1016 5.6438 7.27473 6.66472 5.52492 6.56892L4.10968 4.25734H2.5835L8.82248 14.4489C8.41889 14.3607 8.00697 14.3161 7.59384 14.316C5.38905 14.316 3.59523 15.533 3.59523 17.0296C3.59523 18.5252 5.38902 19.7425 7.59384 19.7425C9.79889 19.7425 11.5929 18.5252 11.5929 17.0296C11.5929 16.6671 11.4906 16.3155 11.2885 15.9843L9.25613 12.6639C9.25613 12.6639 10.537 13.1118 11.4228 13.0179C11.4228 13.0179 11.021 12.5207 10.8418 12.2116C10.8418 12.2116 12.2993 12.3868 14.2029 12.2208L13.4888 11.4634C13.5471 11.4646 13.6092 11.4655 13.6762 11.4655C16.7641 11.4655 17.694 9.88289 17.694 9.88289H16.8525C16.8525 9.88289 18.9377 9.35153 19.3834 8.15832H18.6101C18.6101 8.15832 20.2598 7.3496 20.4209 6.43352H19.4795C19.4795 6.43352 21.1244 5.50519 21.5627 4.25734Z" fill="#FFB81C"/>
<path d="M21.2066 4.47879H6.58582C7.79752 6.45803 6.5842 6.90367 5.39665 6.78374L3.98565 4.47879H2.97852L9.3004 14.8061C8.78766 14.6346 8.20798 14.5373 7.59372 14.5373C5.50739 14.5373 3.8162 15.653 3.8162 17.0296C3.8162 18.4055 5.50739 19.521 7.59372 19.521C9.68005 19.521 11.3711 18.4055 11.3711 17.0296C11.3711 16.7007 11.2745 16.3871 11.0991 16.0993L8.75564 12.271C8.75564 12.271 10.2696 12.7964 10.9683 12.7964C10.9683 12.7964 10.65 12.3907 10.458 11.9539C10.458 11.9539 12.2716 12.1494 13.7242 12.0359L12.9344 11.1986C12.9344 11.1986 13.17 11.2442 13.6761 11.2442C16.2319 11.2442 17.2115 10.1044 17.2115 10.1044H9.61194L9.50085 9.9229H15.8063C15.8063 9.9229 18.3758 9.43213 18.9959 8.37972H8.55602L8.44504 8.19845H18.0544C18.0544 8.19845 19.8434 7.33502 20.1004 6.65515H7.50042L7.3893 6.47344H18.9691C18.9691 6.47344 20.6565 5.59575 21.2067 4.47882L21.2066 4.47879Z" fill="#041E42"/>
</svg>
