<svg width="24" height="24" viewBox="0 0 24 24" fill="none" xmlns="http://www.w3.org/2000/svg">
<g clip-path="url(#clip0_181_10959)">
<path d="M16.4844 20.9947V21.3802H16.388V20.9947H16.2764V20.8989H16.596V20.9947H16.4844ZM17.0068 21.3802V21.0961L16.9256 21.2731H16.8404L16.7592 21.0961V21.3802H16.6629V20.8989H16.7592L16.883 21.1559L17.0068 20.8989H17.1031V21.3801L17.0068 21.3802Z" fill="#00205B"/>
<path d="M21.2298 9.77042C21.2322 9.76625 21.2336 9.76163 21.234 9.75686C21.2344 9.75209 21.2338 9.74729 21.2322 9.74278C21.2306 9.73828 21.228 9.73417 21.2247 9.73075C21.2213 9.72732 21.2173 9.72466 21.2128 9.72294C20.9347 9.61862 20.6725 9.54644 20.4071 9.50868C20.4021 9.50803 20.3974 9.50619 20.3933 9.50333C20.3892 9.50047 20.3858 9.49667 20.3835 9.49224C20.3812 9.48782 20.38 9.4829 20.3799 9.4779C20.3799 9.47289 20.381 9.46796 20.3833 9.4635C20.6008 9.02733 20.7416 8.52623 20.8465 7.98327C20.851 7.95989 20.8297 7.93925 20.8067 7.94525C20.3177 8.07227 19.7579 8.30222 19.2922 8.5247C19.288 8.52671 19.2835 8.52776 19.2789 8.52777C19.2743 8.52777 19.2697 8.52673 19.2656 8.52472C19.2614 8.52271 19.2578 8.51979 19.2549 8.51617C19.2521 8.51255 19.2501 8.50833 19.2491 8.50383C19.1806 8.20226 19.0993 7.86202 18.9323 7.56722C18.93 7.56326 18.9268 7.55982 18.9231 7.55713C18.9194 7.55444 18.9152 7.55256 18.9107 7.55161C18.9062 7.55066 18.9015 7.55066 18.897 7.55161C18.8926 7.55256 18.8883 7.55443 18.8846 7.55712C18.3918 7.91366 17.9515 8.30568 17.568 8.73616C17.5647 8.73989 17.5605 8.74279 17.5559 8.74462C17.5513 8.74644 17.5462 8.74714 17.5413 8.74666C17.5363 8.74617 17.5315 8.74452 17.5273 8.74183C17.5231 8.73915 17.5196 8.7355 17.5171 8.7312C17.4182 8.56806 17.2895 8.4222 17.1196 8.29997C17.1131 8.2953 17.1051 8.29329 17.0971 8.29435C17.0892 8.29541 17.082 8.29946 17.0769 8.30567C16.4442 9.08814 15.648 9.97696 14.6204 10.7129C14.5991 10.7282 14.5698 10.7074 14.5775 10.6823C14.8107 9.91925 15.162 9.19211 15.5044 8.52441C15.5066 8.52018 15.5078 8.5155 15.5079 8.51074C15.508 8.50597 15.507 8.50124 15.5051 8.49691C15.5031 8.49258 15.5001 8.48876 15.4964 8.48574C15.4927 8.48273 15.4884 8.4806 15.4838 8.47951C15.3397 8.44688 15.1475 8.42855 14.9654 8.41825C14.9599 8.41798 14.9546 8.41625 14.95 8.41325C14.9455 8.41025 14.9418 8.40608 14.9394 8.40118C14.9369 8.39627 14.9359 8.39081 14.9363 8.38535C14.9366 8.37989 14.9385 8.37464 14.9416 8.37013C15.3747 7.72792 15.7058 6.94683 15.9157 6.2445C15.9171 6.23984 15.9174 6.23492 15.9165 6.23015C15.9156 6.22537 15.9136 6.22088 15.9106 6.21704C15.9076 6.2132 15.9038 6.21013 15.8994 6.20809C15.895 6.20604 15.8902 6.20508 15.8853 6.20528C15.5233 6.22145 15.0861 6.30289 14.7242 6.42844C14.7192 6.43023 14.7138 6.43068 14.7086 6.42973C14.7034 6.42878 14.6986 6.42647 14.6945 6.42303C14.6905 6.4196 14.6875 6.41516 14.6857 6.41018C14.684 6.40519 14.6836 6.39983 14.6846 6.39463C14.7904 5.7878 14.7413 5.10725 14.6257 4.47662C14.6249 4.47208 14.6231 4.46778 14.6204 4.46402C14.6178 4.46025 14.6143 4.45712 14.6103 4.45483C14.6064 4.45254 14.6019 4.45115 14.5973 4.45077C14.5927 4.45039 14.5881 4.45102 14.5838 4.45262C14.3283 4.54886 14.0357 4.69623 13.7694 4.85709C13.7645 4.8601 13.7589 4.8617 13.7532 4.86172C13.7475 4.86173 13.7419 4.86017 13.737 4.8572C13.7322 4.85422 13.7282 4.84996 13.7256 4.84487C13.7231 4.83979 13.7219 4.83408 13.7224 4.8284C13.7625 4.25785 13.6993 3.62728 13.577 3.1193C13.576 3.11522 13.5742 3.1114 13.5717 3.10807C13.5692 3.10473 13.566 3.10197 13.5623 3.09995C13.5586 3.09793 13.5546 3.09669 13.5504 3.09633C13.5463 3.09597 13.5421 3.09649 13.5381 3.09785C13.3522 3.1625 13.1335 3.277 12.9249 3.40151C12.9209 3.40394 12.9164 3.40544 12.9117 3.40589C12.907 3.40634 12.9023 3.40573 12.8979 3.40411C12.8935 3.40249 12.8895 3.39989 12.8862 3.39652C12.8829 3.39315 12.8804 3.38908 12.8789 3.38462C12.6826 2.80984 12.3675 2.25079 12.0279 1.69547C12.025 1.69074 12.0209 1.68683 12.016 1.68412C12.0112 1.68142 12.0057 1.67999 12.0001 1.67999C11.9946 1.67999 11.9891 1.68142 11.9842 1.68412C11.9794 1.68683 11.9753 1.69074 11.9724 1.69547C11.6328 2.25079 11.3177 2.80984 11.1213 3.38462C11.1198 3.38908 11.1174 3.39315 11.1141 3.39652C11.1108 3.39989 11.1068 3.40249 11.1024 3.40411C11.098 3.40573 11.0933 3.40634 11.0886 3.40589C11.0839 3.40544 11.0794 3.40394 11.0754 3.40151C10.8667 3.27697 10.6481 3.16253 10.4622 3.09785C10.4582 3.09649 10.454 3.09598 10.4498 3.09634C10.4457 3.09671 10.4416 3.09794 10.438 3.09996C10.4343 3.10198 10.4311 3.10475 10.4286 3.10808C10.426 3.11141 10.4242 3.11523 10.4233 3.1193C10.3009 3.62725 10.2378 4.25785 10.2779 4.82837C10.2783 4.83405 10.2772 4.83975 10.2746 4.84483C10.272 4.84992 10.2681 4.85418 10.2632 4.85716C10.2584 4.86013 10.2528 4.8617 10.2471 4.86168C10.2414 4.86166 10.2358 4.86006 10.2309 4.85706C9.96461 4.69623 9.67194 4.54886 9.41643 4.45262C9.41212 4.45103 9.40751 4.4504 9.40293 4.45079C9.39834 4.45117 9.3939 4.45256 9.38991 4.45484C9.38592 4.45713 9.38248 4.46027 9.37984 4.46403C9.37719 4.46779 9.37541 4.47209 9.3746 4.47662C9.25893 5.10725 9.20987 5.7878 9.31569 6.39463C9.31667 6.39983 9.31626 6.40518 9.31451 6.41016C9.31275 6.41515 9.30971 6.41958 9.3057 6.42301C9.30168 6.42644 9.29683 6.42875 9.29164 6.4297C9.28644 6.43066 9.28108 6.43022 9.27611 6.42844C8.91416 6.30292 8.47699 6.22142 8.11497 6.20527C8.11011 6.20507 8.10528 6.20604 8.10087 6.20808C8.09647 6.21013 8.09261 6.2132 8.08963 6.21704C8.08665 6.22087 8.08463 6.22537 8.08374 6.23015C8.08285 6.23492 8.08312 6.23984 8.08452 6.2445C8.29444 6.94683 8.62556 7.72792 9.05869 8.37013C9.06179 8.37464 9.06363 8.37989 9.06402 8.38535C9.06441 8.39081 9.06334 8.39627 9.06091 8.40118C9.05848 8.40608 9.05479 8.41025 9.05022 8.41325C9.04564 8.41625 9.04035 8.41798 9.03488 8.41825C8.85277 8.42855 8.6606 8.44687 8.5165 8.47955C8.51187 8.48064 8.50754 8.48277 8.50385 8.48578C8.50016 8.48879 8.49721 8.49261 8.49522 8.49693C8.49323 8.50126 8.49225 8.50598 8.49237 8.51074C8.49248 8.5155 8.49367 8.52018 8.49586 8.52441C8.83885 9.19322 9.19063 9.92159 9.4239 10.686C9.4313 10.7103 9.40352 10.7307 9.38275 10.7162C8.47242 10.0797 7.59887 9.14598 6.92337 8.3058C6.91833 8.29956 6.9111 8.29548 6.90315 8.2944C6.8952 8.29332 6.88714 8.29532 6.88063 8.3C6.71076 8.42223 6.58202 8.56809 6.48317 8.7312C6.48065 8.7355 6.47714 8.73915 6.47294 8.74183C6.46874 8.74452 6.46396 8.74617 6.459 8.74666C6.45404 8.74714 6.44903 8.74644 6.44439 8.74462C6.43975 8.74279 6.43561 8.73989 6.43231 8.73616C6.04877 8.30567 5.60844 7.91366 5.11564 7.55712C5.11192 7.55444 5.10768 7.55257 5.1032 7.55162C5.09871 7.55068 5.09408 7.55068 5.08959 7.55163C5.08511 7.55258 5.08087 7.55446 5.07716 7.55715C5.07344 7.55983 5.07033 7.56326 5.06801 7.56722C4.90096 7.86202 4.81965 8.20229 4.75115 8.50386C4.75015 8.50836 4.74815 8.51257 4.7453 8.51618C4.74244 8.51979 4.7388 8.52271 4.73466 8.52471C4.73052 8.52672 4.72597 8.52776 4.72137 8.52775C4.71677 8.52775 4.71222 8.52671 4.70808 8.5247C4.24238 8.30222 3.68259 8.07227 3.19355 7.94525C3.1705 7.93928 3.14921 7.95992 3.15374 7.98327C3.25873 8.52623 3.39944 9.02733 3.61699 9.46349C3.61926 9.46796 3.62043 9.4729 3.62039 9.47791C3.62036 9.48292 3.61912 9.48785 3.61678 9.49229C3.61444 9.49672 3.61107 9.50052 3.60696 9.50338C3.60284 9.50624 3.5981 9.50807 3.59313 9.50872C3.32774 9.54644 3.06549 9.61859 2.78745 9.72292C2.78298 9.72463 2.77893 9.72729 2.77558 9.73072C2.77224 9.73415 2.76967 9.73826 2.76805 9.74277C2.76644 9.74728 2.76582 9.75208 2.76624 9.75686C2.76666 9.76163 2.7681 9.76625 2.77047 9.77042C3.09741 10.3327 3.47469 10.7965 3.90882 11.1585C3.9127 11.1618 3.91575 11.1658 3.91771 11.1705C3.91966 11.1751 3.92047 11.1802 3.92006 11.1852C3.91964 11.1902 3.91803 11.195 3.91534 11.1993C3.91265 11.2036 3.90897 11.2071 3.90462 11.2096C3.73074 11.3136 3.56965 11.4376 3.42464 11.579C3.42156 11.5821 3.41911 11.5857 3.41745 11.5897C3.41578 11.5937 3.41492 11.598 3.41492 11.6023C3.41492 11.6066 3.41579 11.6109 3.41746 11.6149C3.41913 11.6189 3.42159 11.6225 3.42467 11.6256C3.97539 12.1674 4.5789 12.6527 5.2262 13.0744C5.23057 13.0773 5.23419 13.0811 5.23676 13.0857C5.23933 13.0902 5.24078 13.0953 5.24097 13.1005C5.24116 13.1057 5.24011 13.1109 5.23788 13.1156C5.23566 13.1204 5.23233 13.1245 5.22819 13.1276C4.98804 13.3135 4.77651 13.5063 4.59505 13.7232C4.58965 13.7298 4.58699 13.7381 4.58764 13.7466C4.58829 13.755 4.5922 13.7629 4.59854 13.7686C5.07072 14.1864 5.61133 14.525 6.23894 14.7812C6.24425 14.7833 6.2489 14.7869 6.25239 14.7914C6.25589 14.796 6.25811 14.8014 6.25882 14.807C6.25953 14.8127 6.25872 14.8185 6.25645 14.8238C6.25419 14.8291 6.25057 14.8336 6.24595 14.837C6.02272 15.0049 5.84128 15.1905 5.67433 15.3914C5.67123 15.3951 5.66901 15.3995 5.66782 15.4042C5.66663 15.4089 5.6665 15.4138 5.66745 15.4185C5.6684 15.4233 5.6704 15.4278 5.67331 15.4316C5.67621 15.4355 5.67994 15.4387 5.68424 15.441C6.13275 15.6715 6.67712 15.8205 7.24176 15.9226C7.26743 15.9273 7.26948 15.9627 7.24454 15.9705C6.5235 16.1936 5.8612 16.4819 5.22715 16.835C5.22243 16.8377 5.21844 16.8415 5.21556 16.8461C5.21268 16.8506 5.21098 16.8559 5.21063 16.8613C5.21028 16.8667 5.21128 16.8721 5.21354 16.877C5.2158 16.882 5.21926 16.8863 5.2236 16.8895C5.68835 17.2347 6.16229 17.5356 6.7138 17.7506C6.71906 17.7526 6.72371 17.756 6.72726 17.7603C6.73082 17.7647 6.73316 17.7699 6.73404 17.7755C6.73493 17.7811 6.73433 17.7868 6.73231 17.792C6.73029 17.7973 6.72692 17.8019 6.72253 17.8055C5.96882 18.4198 5.3525 19.127 4.8142 19.8963C4.79809 19.9193 4.81737 19.9508 4.84527 19.9472C5.61339 19.8495 6.32821 19.7295 6.94414 19.5607C6.94992 19.559 6.95606 19.5591 6.96179 19.5609C6.96753 19.5627 6.97262 19.5661 6.97643 19.5708C6.98024 19.5754 6.9826 19.5811 6.98322 19.5871C6.98384 19.5931 6.9827 19.5991 6.97993 19.6044C6.84799 19.8677 6.72902 20.148 6.62046 20.442C6.61208 20.4647 6.63089 20.4886 6.65492 20.486C7.34753 20.4109 7.97702 20.323 8.47927 20.209C8.50737 20.2026 8.52837 20.2335 8.51256 20.2576C8.30008 20.5813 8.14952 20.9315 8.02857 21.3163C8.0212 21.3397 8.04193 21.3628 8.066 21.3582C9.28019 21.1263 10.3851 20.7789 11.3653 20.3085C11.3918 20.2958 11.4221 20.314 11.4241 20.3433C11.4831 21.2139 11.8131 21.8194 12.2649 22.3058C12.2817 22.3239 12.31 22.3247 12.3281 22.3081L12.9624 21.7225C12.9816 21.7048 12.9834 21.6752 12.9662 21.6555C12.8407 21.512 12.2634 20.8568 12.3655 20.3587C12.3777 20.2994 12.4436 20.2676 12.4988 20.2926C13.2301 20.6235 14.7458 21.1287 15.936 21.3585C15.9595 21.3631 15.9793 21.3404 15.9721 21.3176C15.8511 20.9323 15.7004 20.5816 15.4877 20.2576C15.4719 20.2335 15.4929 20.2026 15.521 20.2091C16.0232 20.323 16.6527 20.4109 17.3453 20.486C17.3694 20.4886 17.3882 20.4647 17.3798 20.442C17.2712 20.148 17.1523 19.8677 17.0204 19.6044C17.0176 19.5991 17.0165 19.5931 17.0171 19.5871C17.0177 19.5811 17.0201 19.5755 17.0239 19.5708C17.0277 19.5662 17.0327 19.5627 17.0385 19.5609C17.0442 19.5591 17.0503 19.559 17.0561 19.5607C17.6721 19.7295 18.3868 19.8495 19.155 19.9472C19.1829 19.9508 19.2022 19.9193 19.186 19.8962C18.6478 19.127 18.0314 18.4198 17.2777 17.8054C17.2734 17.8019 17.27 17.7972 17.268 17.792C17.266 17.7867 17.2654 17.781 17.2663 17.7755C17.2671 17.7699 17.2695 17.7647 17.273 17.7603C17.2766 17.756 17.2812 17.7526 17.2865 17.7506C17.838 17.5356 18.3119 17.2347 18.7767 16.8895C18.781 16.8863 18.7845 16.882 18.7867 16.8771C18.789 16.8721 18.79 16.8667 18.7897 16.8613C18.7893 16.8559 18.7876 16.8506 18.7847 16.846C18.7818 16.8415 18.7778 16.8377 18.7731 16.835C18.1391 16.4819 17.4768 16.1936 16.7557 15.9705C16.7308 15.9628 16.7328 15.9273 16.7585 15.9226C17.3231 15.8205 17.8675 15.6714 18.316 15.441C18.3203 15.4387 18.3241 15.4355 18.327 15.4317C18.3299 15.4278 18.3319 15.4233 18.3328 15.4185C18.3338 15.4138 18.3337 15.4089 18.3325 15.4042C18.3313 15.3995 18.329 15.3951 18.3259 15.3914C18.159 15.1904 17.9775 15.0048 17.7543 14.837C17.7497 14.8336 17.746 14.8291 17.7438 14.8238C17.7415 14.8185 17.7407 14.8127 17.7414 14.807C17.7421 14.8013 17.7444 14.7959 17.7479 14.7914C17.7514 14.7868 17.756 14.7833 17.7613 14.7812C18.3889 14.525 18.9295 14.1864 19.4017 13.7685C19.4149 13.7569 19.4164 13.7367 19.4052 13.7232C19.2237 13.5063 19.0122 13.3134 18.772 13.1277C18.7679 13.1245 18.7646 13.1204 18.7623 13.1156C18.7601 13.1109 18.7591 13.1057 18.7593 13.1005C18.7595 13.0953 18.7609 13.0902 18.7635 13.0857C18.766 13.0811 18.7697 13.0773 18.774 13.0744C19.4213 12.6527 20.0249 12.1674 20.5756 11.6256C20.5885 11.6129 20.5886 11.5917 20.5756 11.5791C20.4306 11.4376 20.2695 11.3136 20.0956 11.2097C20.0913 11.2071 20.0876 11.2036 20.0849 11.1993C20.0822 11.1951 20.0806 11.1902 20.0802 11.1852C20.0797 11.1802 20.0806 11.1751 20.0825 11.1705C20.0845 11.1659 20.0875 11.1618 20.0914 11.1585C20.5256 10.7965 20.9029 10.3327 21.2298 9.77042Z" fill="#00205B" stroke="white" stroke-width="0.25"/>
<path d="M11.8791 9.79774C11.8818 9.79945 11.884 9.80182 11.8856 9.80463C11.8872 9.80743 11.888 9.81059 11.8881 9.81381C11.8924 10.0553 11.8984 10.2778 11.9062 10.4942C11.9064 10.4982 11.908 10.5019 11.9109 10.5046C11.9137 10.5073 11.9175 10.5089 11.9214 10.5089L12.0935 10.5096H12.0937C12.0958 10.5096 12.0978 10.5092 12.0998 10.5084C12.1017 10.5076 12.1034 10.5063 12.1049 10.5048C12.1063 10.5033 12.1074 10.5015 12.1082 10.4996C12.1089 10.4976 12.1092 10.4955 12.1091 10.4934C12.1029 10.3415 12.097 10.1878 12.0917 10.0367C12.0916 10.0327 12.0924 10.0287 12.0942 10.025C12.0959 10.0214 12.0985 10.0182 12.1018 10.0157C12.9179 9.39763 13.5626 8.6761 13.8706 8.03598L13.8616 8.03116C13.4831 8.6644 12.8896 9.27224 12.0976 9.83783C12.0929 9.84096 12.0851 9.83842 12.0849 9.83148C12.0543 8.86213 12.0545 8.06301 12.0855 7.38826C12.0882 7.2973 12.0905 7.20197 12.0928 7.09673C12.0929 7.0913 12.0944 7.086 12.0972 7.08135C12.1 7.0767 12.104 7.07285 12.1087 7.07019C12.4573 6.87438 12.776 6.61936 13.0828 6.29056L13.0757 6.28326C12.7379 6.5789 12.4217 6.79734 12.109 6.95106C12.1072 6.95189 12.1053 6.95216 12.1034 6.95183C12.1015 6.9515 12.0997 6.9506 12.0984 6.94924C12.0975 6.94837 12.0968 6.94734 12.0964 6.94621C12.0959 6.94508 12.0957 6.94386 12.0957 6.94265C12.1167 5.74665 12.0887 4.35086 12.0307 3.69591L12.0205 3.6964C12.0264 4.40264 12.0183 5.10893 11.9963 5.81485C11.9963 5.81649 11.9956 5.81803 11.9944 5.81916C11.9932 5.82028 11.9916 5.82089 11.99 5.82085C11.99 5.82085 11.987 5.82053 11.9855 5.8189C11.698 5.51517 11.4336 5.17653 11.1999 4.81242L11.1911 4.81751C11.3846 5.18957 11.6409 5.56577 11.9748 5.96767C11.9852 5.98022 11.9907 5.99613 11.9901 6.01246C11.9746 6.46473 11.9531 6.91677 11.9257 7.36847C11.9182 7.51916 11.9116 7.67853 11.9049 7.8701C11.9047 7.87662 11.8974 7.87913 11.8931 7.87616C11.5253 7.61502 11.1869 7.25625 10.9146 6.83865L10.9058 6.84383C11.1473 7.29756 11.4743 7.68368 11.8776 7.99141C11.8918 8.00224 11.8999 8.01922 11.8994 8.03689C11.8833 8.56376 11.8785 9.09092 11.8851 9.61799C11.8851 9.61922 11.8846 9.62041 11.8838 9.62129C11.883 9.62201 11.8821 9.62248 11.881 9.62262C11.88 9.62276 11.8789 9.62257 11.878 9.62207C11.1543 9.18034 10.555 8.6078 10.0967 7.92031L10.088 7.92562C10.5 8.65455 11.1528 9.3369 11.8791 9.79774ZM6.66052 11.7098C6.66286 11.7099 6.66518 11.7093 6.6673 11.7084L6.78493 11.6528C6.78687 11.6519 6.78857 11.6505 6.78987 11.6488C6.79118 11.6471 6.79205 11.6451 6.79243 11.643C6.79284 11.6409 6.79273 11.6387 6.79212 11.6367C6.79152 11.6346 6.79042 11.6327 6.78894 11.6312C6.74589 11.5863 6.7026 11.5416 6.65905 11.4972C6.64985 11.4878 6.64462 11.4752 6.64445 11.462C6.63646 11.0054 6.48407 10.6004 6.19153 10.2583L6.18338 10.2645C6.40433 10.5972 6.51149 10.9508 6.51094 11.3456C6.51094 11.3465 6.51009 11.3468 6.50924 11.3464C6.22928 11.0674 5.92409 10.7819 5.60214 10.4978C5.5972 10.4934 5.59335 10.4879 5.5909 10.4818C5.58844 10.4756 5.58746 10.469 5.58802 10.4624C5.61635 10.1257 5.5592 9.80778 5.41816 9.51732L5.40877 9.52123C5.5072 9.80341 5.53133 10.0869 5.48258 10.3876L5.47763 10.3894C5.12151 10.0617 4.72829 9.67244 4.27566 9.19953L4.26807 9.20635C4.64864 9.65999 5.0981 10.1386 5.64221 10.6695C5.72995 10.7515 5.81621 10.8351 5.90094 10.9202C5.8475 10.9242 5.79393 10.9262 5.74034 10.9261C5.36655 10.9262 4.98836 10.8327 4.58425 10.6404L4.57939 10.6493C5.00661 10.9104 5.45657 11.0374 5.955 11.0374C5.97175 11.0374 5.98858 11.0372 6.00599 11.0369C6.01372 11.0369 6.02095 11.0399 6.02623 11.0453C6.20685 11.229 6.41046 11.4447 6.64865 11.7046C6.65016 11.7063 6.65199 11.7076 6.65403 11.7085C6.65608 11.7094 6.65829 11.7099 6.66052 11.7098ZM18.4487 10.517C18.8618 10.0994 19.2532 9.67495 19.6121 9.25568L19.6046 9.24877C19.1794 9.67609 18.7462 10.0986 18.2803 10.5404C18.2795 10.5411 18.2785 10.5415 18.2774 10.5415C18.2756 10.5415 18.2735 10.5404 18.2732 10.538C18.229 10.2413 18.2388 9.91742 18.3015 9.60137L18.2917 9.59863C18.1806 9.90532 18.1405 10.2381 18.169 10.6162C18.1701 10.6304 18.1644 10.6445 18.1538 10.654C17.8004 10.9693 17.4671 11.2884 17.1631 11.6025C17.1617 11.6039 17.1606 11.6057 17.16 11.6077C17.1594 11.6097 17.1593 11.6118 17.1596 11.6138C17.1599 11.6158 17.1607 11.6177 17.162 11.6194C17.1632 11.6211 17.1648 11.6224 17.1666 11.6234L17.2864 11.6851C17.29 11.6869 17.2941 11.6875 17.2981 11.6868C17.3021 11.6861 17.3058 11.6841 17.3085 11.6811C17.4335 11.5441 17.5603 11.4088 17.6888 11.2751C17.6943 11.2695 17.7007 11.2651 17.7079 11.262C17.715 11.2589 17.7227 11.2573 17.7304 11.2572C18.2316 11.2513 18.662 11.1343 19.0459 10.8994L19.0412 10.8904C18.6675 11.0554 18.3332 11.1322 17.9892 11.1322C17.9397 11.1322 17.8902 11.1306 17.8408 11.1275C17.8399 11.1274 17.8391 11.1271 17.8385 11.1266C17.8378 11.1261 17.8373 11.1255 17.837 11.1247C17.8367 11.1239 17.8366 11.1231 17.8367 11.1223C17.8369 11.1216 17.8372 11.1208 17.8378 11.1203C18.0377 10.9154 18.2413 10.7143 18.4487 10.517ZM12.4412 18.9285C12.0869 18.9285 11.7506 19.0256 11.5876 19.2651C11.5857 19.2679 11.5823 19.2689 11.5795 19.267C11.4727 19.1974 11.1212 18.9847 10.7118 18.9847C10.4914 18.9847 10.2512 19.0916 10.0087 19.2289C10.0057 19.2305 10.0024 19.2311 9.99904 19.2307C9.35409 19.1356 8.73581 19.2606 8.13087 19.4957C8.76291 19.3357 9.35866 19.2336 9.8324 19.3262C9.83527 19.3268 9.83589 19.3306 9.83338 19.3321C9.55241 19.5029 9.27402 19.6898 9.02549 19.7741C9.53826 19.7146 10.2071 19.1318 10.7259 19.1318C11.0717 19.1318 11.42 19.3475 11.5119 19.4087C11.5148 19.4106 11.5158 19.414 11.5147 19.4174C11.4895 19.4988 11.4795 19.5916 11.4884 19.697C11.6574 19.2293 12.0002 19.1215 12.4698 19.1215C12.8309 19.1215 13.1927 19.25 13.615 19.3462C13.619 19.347 13.6227 19.3489 13.6257 19.3516C13.8837 19.5761 14.3577 19.8005 14.5839 19.8385L14.681 19.8548L14.5893 19.8189C14.3957 19.7433 14.0525 19.5725 13.8802 19.4048C13.8781 19.4028 13.88 19.3994 13.8829 19.3999C14.0588 19.4296 14.2457 19.4492 14.4475 19.4492C15.1991 19.4492 15.5375 19.3151 15.7501 19.2277C15.5241 19.2756 15.309 19.3441 14.5542 19.3441C13.8663 19.3441 13.0017 18.9285 12.4412 18.9285ZM7.19957 12.6852C7.32657 12.6209 7.45423 12.558 7.58252 12.4964L7.4334 12.2085C7.05904 12.3883 6.69017 12.5793 6.32729 12.7812L6.47634 13.0691C6.6007 12.9999 6.72575 12.932 6.85147 12.8654L6.87426 12.8533L7.61985 14.2934C7.72021 14.2404 7.821 14.1883 7.92221 14.1369L7.17662 12.6968L7.19957 12.6852ZM8.70898 13.7662C8.75091 13.7662 8.79264 13.759 8.833 13.7448C8.98293 13.6919 9.13348 13.6409 9.28461 13.5916C9.37949 13.5606 9.45584 13.4954 9.49969 13.4079C9.54273 13.3219 9.54925 13.2238 9.51798 13.1317L9.13014 11.9881C9.07883 11.8367 8.93162 11.731 8.77217 11.731C8.73377 11.731 8.69562 11.7371 8.65913 11.749C8.50837 11.7982 8.35819 11.8491 8.20863 11.9018C8.0165 11.9694 7.91399 12.1831 7.98018 12.3781L8.36802 13.5216C8.41747 13.6678 8.55464 13.7662 8.70898 13.7662ZM8.43323 12.1668C8.50273 12.1428 8.57231 12.1192 8.64208 12.096C8.71927 12.0706 8.80254 12.1121 8.8287 12.189L9.15094 13.1393C9.15718 13.1575 9.15973 13.1768 9.15845 13.1959C9.15717 13.2151 9.1521 13.2338 9.14351 13.251C9.13494 13.2683 9.12301 13.2838 9.10843 13.2964C9.09384 13.3091 9.07689 13.3187 9.05855 13.3248C8.98894 13.3479 8.91947 13.3715 8.85015 13.3955C8.83473 13.4008 8.81854 13.4035 8.80222 13.4035H8.80216C8.77166 13.4035 8.74193 13.394 8.71714 13.3762C8.69235 13.3584 8.67375 13.3334 8.66395 13.3045L8.34171 12.3541C8.3156 12.2773 8.35664 12.1932 8.43323 12.1668ZM12.2801 13.1762C12.4887 13.1762 12.6487 13.0177 12.6487 12.8156V11.608C12.6488 11.4021 12.4831 11.2327 12.2794 11.2303C12.1209 11.2284 11.9623 11.2284 11.8038 11.2303C11.6001 11.2326 11.4344 11.4021 11.4344 11.608V12.8156C11.4344 13.0178 11.5944 13.1762 11.7986 13.1762C11.8378 13.176 12.0192 13.1731 12.2801 13.1762ZM11.7845 11.7015C11.7844 11.6203 11.8503 11.5539 11.9313 11.5535C12.0048 11.5531 12.0784 11.5531 12.1519 11.5535C12.2328 11.5539 12.2987 11.6204 12.2987 11.7015V12.705C12.2984 12.7856 12.233 12.8509 12.1523 12.8509C12.0787 12.8505 12.0052 12.8505 11.9316 12.8509C11.8501 12.8509 11.7845 12.7854 11.7845 12.705V11.7015ZM11.7001 17.7857H12.2217L12.3027 18.1037H12.6472L12.1891 16.4112H11.7327L11.2745 18.1037H11.6191L11.7001 17.7857ZM11.9609 16.7624L12.1406 17.4676H11.7812L11.9609 16.7624ZM12.8507 15.0553V14.5261C12.8507 14.3414 12.7009 14.192 12.5162 14.192H11.7853V15.8845H12.117V15.3899H12.5162C12.7009 15.3899 12.8507 15.2401 12.8507 15.0553ZM12.5193 14.969C12.5193 15.0257 12.4733 15.0718 12.4165 15.0718H12.117V14.5101H12.4165C12.4733 14.5101 12.5193 14.5562 12.5193 14.6129V14.969ZM8.37864 16.4113V18.1037H9.36934V17.7856H8.71374V16.4113H8.37864ZM9.64086 14.192H9.37717L9.00974 15.0404L8.64237 14.192H8.37861V15.8845H8.71041V15.1036L9.00974 15.7811L9.30909 15.1036V15.8845H9.64086V14.192ZM10.3231 13.3339L10.2301 12.7578L10.255 12.7534C10.3021 12.7453 10.3493 12.7373 10.3965 12.7295L10.4122 12.7269L10.4215 12.7399C10.5443 12.9126 10.667 13.0855 10.7894 13.2585C10.8995 13.2421 11.0098 13.2266 11.1203 13.212C10.9998 13.0402 10.879 12.8686 10.758 12.6971L10.7398 12.6713L10.7688 12.6589C10.9216 12.5944 11.0106 12.4339 10.9842 12.2701L10.8847 11.6536C10.8554 11.4727 10.6962 11.3362 10.5144 11.3362C10.4962 11.3362 10.4779 11.3376 10.4598 11.3404C10.1983 11.3797 9.93763 11.4243 9.67796 11.4743L9.98817 13.3953C10.0996 13.3739 10.2113 13.3534 10.3231 13.3339ZM10.0894 11.7287C10.1914 11.711 10.2935 11.6942 10.3957 11.6782C10.4758 11.6656 10.5514 11.7224 10.5641 11.8008L10.6311 12.2155C10.6342 12.2345 10.6335 12.2538 10.6291 12.2725C10.6246 12.2912 10.6165 12.3089 10.6052 12.3244C10.5939 12.34 10.5796 12.3533 10.5631 12.3633C10.5466 12.3734 10.5283 12.38 10.5092 12.3829C10.4073 12.3989 10.3055 12.4157 10.2038 12.4332L10.1783 12.4376L10.0646 11.733L10.0894 11.7287ZM11.0147 15.8845H11.3558L10.939 14.192H10.4871L10.0703 15.8845H10.4114L10.483 15.5664H10.9432L11.0147 15.8845ZM10.5545 15.2484L10.7131 14.5432L10.8717 15.2484L10.5545 15.2484ZM14.112 16.7293V16.4112H13.0505V18.1037H13.3857V17.4165H13.9034V17.0985H13.3857V16.7293L14.112 16.7293ZM13.3161 11.2941L12.9914 13.2127C13.1029 13.2282 13.216 13.2448 13.3282 13.2622L13.5146 12.1601L13.5472 12.2551C13.6738 12.6244 13.7992 12.994 13.9235 13.364C14.012 13.3806 14.1004 13.3976 14.1887 13.4153L14.5134 11.4968C14.4021 11.4745 14.2907 11.4531 14.1791 11.4327L13.9925 12.5353L13.9601 12.439C13.8358 12.07 13.7104 11.7013 13.5839 11.333C13.4947 11.3195 13.4055 11.3065 13.3161 11.2941ZM14.8903 18.1037H15.3667C15.5533 18.1037 15.7045 17.954 15.7045 17.7692V17.5269C15.7045 17.4014 15.6559 17.2864 15.543 17.2292C15.543 17.2292 14.95 16.9654 14.942 16.961C14.9137 16.9458 14.8863 16.908 14.8863 16.8698V16.8324C14.8863 16.7755 14.9329 16.7293 14.9904 16.7293H15.2654C15.3229 16.7293 15.3694 16.7754 15.3694 16.8322V16.9029H15.7045V16.7457C15.7045 16.561 15.5533 16.4112 15.3667 16.4112H14.8903C14.7037 16.4112 14.5525 16.561 14.5525 16.7457V16.9201C14.5525 17.0456 14.6011 17.1607 14.714 17.2179C14.714 17.2179 15.307 17.4817 15.315 17.4861C15.3433 17.5013 15.3707 17.539 15.3707 17.5773V17.6826C15.3707 17.7395 15.3241 17.7856 15.2666 17.7856H14.9915C14.9341 17.7856 14.8876 17.7396 14.8876 17.6827V17.611H14.5524V17.7693C14.5524 17.954 14.7037 18.1037 14.8903 18.1037ZM15.7045 15.5664H15.059V15.1973H15.498V14.8793H15.0589V14.5101H15.7045V14.1921H14.7272V15.8845H15.7045L15.7045 15.5664ZM14.2977 15.5664H13.6855V14.192H13.3537V15.8845H14.2977V15.5664ZM15.1622 13.7135L15.6788 12.1763L15.7032 12.1848C15.8377 12.2314 15.9716 12.2794 16.1051 12.3287L16.2084 12.0214C15.8189 11.8773 15.4251 11.745 15.0276 11.6246L14.9244 11.9319C15.0605 11.9732 15.1963 12.0158 15.3316 12.0599L15.3561 12.0678L14.8395 13.6051C14.9473 13.6403 15.0549 13.6765 15.1622 13.7135ZM10.8712 16.7293V16.4112H9.80978V18.1037H10.8712V17.7856H10.1449V17.4165H10.6626V17.0985H10.1449V16.7293H10.8712ZM17.4096 12.593C17.2696 12.5185 17.1286 12.4457 16.9869 12.3746C16.936 12.349 16.8798 12.3356 16.8228 12.3358C16.6821 12.3358 16.5497 12.4162 16.4854 12.5406L15.9312 13.6134C15.8865 13.6999 15.8782 13.7979 15.9079 13.8894C15.9382 13.9825 16.004 14.0584 16.0932 14.1031C16.2352 14.1744 16.3765 14.2474 16.5168 14.322C16.5703 14.3505 16.63 14.3656 16.6907 14.3658C16.8255 14.3658 16.9478 14.2911 17.01 14.1708L17.5643 13.0981C17.6588 12.9152 17.5894 12.6886 17.4096 12.593ZM17.2103 13.0204L16.7497 13.9119C16.7374 13.9357 16.7189 13.9557 16.696 13.9696C16.6731 13.9836 16.6469 13.9909 16.6201 13.9908C16.5966 13.9908 16.5731 13.9851 16.5521 13.9741C16.4871 13.9401 16.4219 13.9064 16.3566 13.873C16.3394 13.8643 16.3241 13.8523 16.3116 13.8377C16.2991 13.823 16.2896 13.8061 16.2837 13.7877C16.2778 13.7694 16.2755 13.7501 16.2771 13.7309C16.2787 13.7117 16.2841 13.693 16.2929 13.6759L16.7535 12.7844C16.7907 12.712 16.8794 12.6833 16.9519 12.7202C17.0174 12.7536 17.0827 12.7874 17.1479 12.8215C17.2196 12.8591 17.2476 12.9483 17.2103 13.0204Z" fill="white"/>
</g>
<defs>
<clipPath id="clip0_181_10959">
<rect width="24" height="24" fill="white"/>
</clipPath>
</defs>
</svg>
