<svg width="24" height="24" viewBox="0 0 24 24" fill="none" xmlns="http://www.w3.org/2000/svg">
<path d="M19.2143 18.4777C18.9715 18.4777 18.7744 18.6745 18.7744 18.9175C18.7744 19.1602 18.9715 19.3574 19.2143 19.3574C19.4572 19.3574 19.654 19.1602 19.654 18.9175C19.654 18.6745 19.4572 18.4777 19.2143 18.4777ZM19.2143 19.263C19.169 19.263 19.124 19.2541 19.0821 19.2368C19.0402 19.2194 19.0021 19.194 18.97 19.1619C18.9379 19.1298 18.9125 19.0917 18.8951 19.0498C18.8778 19.0079 18.8689 18.9629 18.8689 18.9175C18.8689 18.7267 19.0232 18.5723 19.2143 18.5723C19.4052 18.5723 19.5597 18.7267 19.5597 18.9175C19.5597 19.1085 19.4052 19.263 19.2143 19.263ZM19.3951 18.8156C19.3951 18.796 19.3912 18.7766 19.3837 18.7585C19.3762 18.7404 19.3652 18.724 19.3513 18.7102C19.3375 18.6963 19.321 18.6853 19.3029 18.6779C19.2848 18.6704 19.2654 18.6665 19.2458 18.6666H19.0339V19.1686H19.1281V18.9647H19.1957L19.2909 19.1686H19.3951L19.2957 18.956C19.3552 18.9349 19.3949 18.8787 19.3951 18.8156ZM19.2458 18.8705H19.1281V18.7606H19.2458C19.2761 18.7606 19.3009 18.7852 19.3009 18.8156C19.3008 18.8459 19.2762 18.8704 19.2458 18.8705Z" fill="#00205B"/>
<path d="M11.8283 15.9991L14.9508 14.4414C17.089 15.0414 17.7226 15.8525 17.7226 15.8525L18.9461 14.4686C19.0126 14.3982 19.2144 14.1476 19.2144 13.6934C19.2144 13.2025 18.7018 12.8219 18.3425 12.5645C17.7339 10.9657 14.3643 10.5036 14.1151 9.94713C14.0296 9.75506 13.5377 8.09289 13.5377 8.09289C13.2448 7.2319 12.3782 7.2319 12.052 7.2319C11.7241 7.2319 11.0217 7.34285 11.0217 7.34285C11.0217 8.54151 10.859 10.0032 10.6895 10.27C10.6895 10.27 10.0808 10.589 9.36696 10.8469L7.66293 9.69736L8.11019 11.2446C5.23432 12.8252 4.53418 15.5794 4.53418 15.5794C4.53418 15.5794 5.27282 21.3821 12.5472 21.3821C16.3932 21.3821 18.6138 19.5224 18.6138 19.5224L17.3748 16.752C17.3748 16.752 15.4818 17.7363 13.0641 17.7363C10.8347 17.7363 9.9629 16.6965 9.64453 16.0911C11.5324 16.1474 11.8283 15.9991 11.8283 15.9991Z" fill="#97999B"/>
<path d="M7.60143 6.83152L6.99236 4.8021L8.37347 6.59999L8.81276 6.46826L7.80664 3.11542L7.31953 3.26158L7.91618 5.24972L6.54679 3.49338L6.10815 3.62505L7.11432 6.97771L7.60143 6.83152ZM9.21537 6.0553C9.24337 6.26 9.36813 6.35837 9.5675 6.3311L10.6484 6.18322C10.8524 6.15536 10.9505 6.02636 10.9225 5.82229L10.8052 4.96383L10.2875 5.03449L10.3878 5.76547L9.71591 5.85774L9.363 3.27926L10.0349 3.18717L10.1288 3.87259L10.6462 3.80193L10.5349 2.98935C10.5067 2.78529 10.3776 2.68672 10.1739 2.71504L9.09296 2.86293C8.89324 2.88993 8.80001 3.01832 8.8278 3.22323L9.21537 6.0553ZM11.7202 6.1176L12.8564 6.13833C13.0584 6.14211 13.1746 6.02993 13.1783 5.82309L13.2309 2.96549C13.2344 2.75908 13.1227 2.64247 12.9205 2.63887L11.7846 2.61793C11.5828 2.61418 11.4708 2.72659 11.4672 2.9332L11.4147 5.79148C11.411 5.99783 11.5187 6.11385 11.7202 6.1176ZM11.9869 3.07051L12.7063 3.08399L12.6585 5.68593L11.9393 5.67274L11.9869 3.07051ZM13.9668 6.24742L15.0626 6.44331C15.2656 6.47937 15.3988 6.3871 15.435 6.18409L15.9938 3.05356L15.4795 2.96167L14.9433 5.96572L14.2484 5.842L14.7846 2.83795L14.2703 2.74588L13.7117 5.87659C13.6756 6.07919 13.7641 6.21154 13.9668 6.24742ZM18.5884 5.99551L19.3 6.33342L19.4944 5.92424L18.7828 5.58589L19.2214 4.66328L20.049 5.05592L20.2478 4.63812L18.9482 4.02083L17.4463 7.18262L18.7579 7.80595L18.9566 7.38797L18.1166 6.98882L18.5884 5.99551ZM22.165 5.81576L21.0064 5.05149L19.0779 7.97251L19.5139 8.26025L20.3772 6.95255L20.517 7.04464L20.1183 8.65917L20.5733 8.95931L20.5832 8.94442L20.9648 7.31854L21.1137 7.41691C21.2851 7.52428 21.4372 7.49305 21.5506 7.32104L22.2522 6.25772C22.3657 6.0859 22.3373 5.92984 22.165 5.81576ZM21.1357 7.00119L20.5849 6.63793L21.1946 5.71343L21.7458 6.07734L21.1357 7.00119ZM18.3656 3.7849L18.3687 3.77587L17.872 3.61482L16.7163 5.85246L17.1005 3.36414L16.5994 3.20162L16.5967 3.21024L16.1535 6.73714L16.652 6.89887L18.3656 3.7849ZM5.04629 7.93328L5.51364 7.70823L5.32236 7.06915L5.91297 6.78496L6.29289 7.33405L6.76038 7.10964L6.75854 7.10583L4.63723 4.24592L4.14141 4.48416L5.04453 7.92932L5.04629 7.93328ZM5.65258 6.41185L5.18981 6.63438L4.73653 5.09846L5.65258 6.41185ZM3.24333 4.94011L2.80425 5.22368L3.80867 7.53263L2.12281 5.66327L1.68018 5.94898L1.68498 5.95649L4.13901 8.52808L4.57959 8.24368L3.24829 4.94832L3.24333 4.94011ZM7.73988 14.9179L7.84786 15.1522L7.19894 15.3867L6.64011 15.7535L7.77571 15.9634L7.54145 16.7747L8.02806 16.6306L8.4967 17.8204L9.05567 17.7485L9.24223 18.5836C9.24223 18.5836 10.2948 19.314 12.0785 19.4731C14.4341 19.6829 16.5428 18.8792 16.5428 18.8792C16.5428 18.8792 14.0284 19.866 11.7418 19.623C9.99612 19.4379 8.85736 18.7279 8.85736 18.7279L8.84299 17.9744L8.1544 17.9827L7.82983 16.8288L7.21688 17.1172L7.48735 16.084L6.30936 15.9395L6.54984 15.2185L6.83025 14.6563L6.45376 14.6656L8.02806 13.494L7.34316 13.2234L8.46087 13.0074L8.07221 12.2224L8.76087 12.6148L9.03491 11.7582C8.20609 12.0468 6.42515 12.9604 5.39378 15.653C5.51842 16.2704 6.59734 20.5451 12.547 20.5451C15.1151 20.5451 16.991 19.5717 17.5673 19.2318L16.9525 17.8563C16.3835 18.0763 14.8961 18.5732 13.0639 18.5732C9.44884 18.5732 8.53983 16.0971 8.53983 15.1654C8.53983 14.9586 8.55331 14.7851 8.57129 14.6425L7.73988 14.9179Z" fill="#00205B"/>
<path d="M18.0657 12.7679C17.4716 11.1622 14.1943 10.8696 13.8319 10.1118C13.6866 9.80875 13.5005 9.08263 13.2284 8.19795C13.0107 7.55867 12.3715 7.55867 12.0518 7.55867C11.7458 7.55867 11.3482 7.62159 11.3482 7.62159C11.3482 8.27599 11.225 10.1752 10.9206 10.5042C10.8461 10.5984 10.2877 10.8238 9.67956 11.0581L9.86143 11.1807L9.67604 11.3665L9.32621 11.7175L8.94166 12.9191L8.4415 12.6586L8.61988 13.1035L7.7262 13.2509L8.23178 13.4252L6.77672 14.5432L7.16966 14.5737L6.65144 15.5106C7.39926 15.1725 7.62639 15.1069 7.62639 15.1069L7.41189 14.8848L8.91899 14.2785C8.91899 14.2785 8.80485 14.5807 8.80485 15.1654C8.80485 15.2495 8.81787 15.3728 8.84713 15.5181C9.0329 16.4289 9.92154 18.3079 13.0639 18.3079C15.336 18.3079 17.0895 17.5134 17.0895 17.5134L17.9037 19.3345C17.9037 19.3345 15.771 20.8111 12.547 20.8111C5.95593 20.8111 5.1193 15.6277 5.1193 15.6277C6.02858 13.1971 7.55829 12.1312 8.53107 11.681L8.22653 11.6471L8.20044 11.5571C5.62729 12.977 4.86719 15.6029 4.86719 15.6029C4.86719 15.6029 5.64866 21.0559 12.547 21.0559C16.0757 21.0559 18.2101 19.4199 18.2101 19.4199L17.2127 17.1885C17.2127 17.1885 15.3483 18.0629 13.0639 18.0629C9.66168 18.0629 9.15786 15.7415 9.15786 15.7415C9.15786 15.7415 11.0957 15.8576 11.7148 15.6912L14.9167 14.0918C17.0864 14.7042 17.7122 15.3663 17.7122 15.3663L18.7049 14.2482C18.7049 14.2482 18.8877 14.0781 18.8877 13.6935C18.8877 13.3336 18.3504 12.973 18.0657 12.7679Z" fill="#00205B"/>
<path d="M17.8624 12.924C17.3161 11.3503 14.3069 11.2397 13.6303 10.2513C13.4425 9.97736 13.1312 8.21996 12.8191 7.97963C12.4749 7.71511 11.593 7.83553 11.593 7.83553C11.593 8.07838 11.5332 10.2349 11.0882 10.684C10.7863 10.9373 10.2803 11.0477 9.676 11.3664L9.32616 11.7175L8.94161 12.9191L8.44145 12.6586L8.61983 13.1035L7.72615 13.2509L8.23173 13.4252L6.77668 14.5432L7.16961 14.5737L6.65137 15.5106C7.39918 15.1725 7.62635 15.1068 7.62635 15.1068L7.41185 14.8848L8.91895 14.2784C8.91895 14.2784 8.80481 14.5807 8.80481 15.1653C8.80481 15.2495 8.81783 15.3728 8.84709 15.5181C8.91171 15.3949 10.0982 13.2067 12.6384 13.0575L11.5747 13.8795L9.46549 15.5094C9.46549 15.5094 11.2029 15.5834 11.6288 15.4615C12.9715 14.8365 14.0466 14.2528 14.8898 13.8304C15.6985 13.4256 16.2946 13.1697 16.7075 13.1697C17.2179 13.1697 17.9251 13.6626 18.5285 14.0787C18.5285 14.0787 18.5653 14.0467 18.5981 13.9815C18.6249 13.9285 18.6495 13.8539 18.6495 13.756C18.6495 13.4327 18.2233 13.2136 17.8624 12.924Z" fill="#041C2C"/>
<path d="M12.5936 10.2064C12.469 10.0495 12.3231 8.4847 12.3231 8.4847C12.3231 8.4847 12.2979 10.0824 12.2058 10.2244C12.1137 10.3662 11.6562 10.6299 11.6562 10.6299C11.6562 10.6299 12.1636 10.4646 12.4134 10.4495C12.5964 10.4386 13.1794 10.5579 13.1794 10.5579C13.1794 10.5579 12.7182 10.3631 12.5936 10.2064ZM8.84717 15.5181C8.9105 15.454 10.2113 14.1589 11.5748 13.8795L12.6385 13.0575C10.0983 13.2067 8.91182 15.3949 8.84717 15.5181ZM18.6495 13.756C18.6495 13.4327 18.2233 13.2136 17.8625 12.924C16.437 12.7637 16.0471 12.4202 16.0471 12.2014C16.0471 12.1152 16.12 12.095 16.1888 12.095C16.5129 12.095 16.9387 12.3241 17.1825 12.5851C17.0411 12.2117 16.1849 11.7721 15.6301 11.7721C15.5258 11.7721 15.3716 11.8048 15.3716 11.9724C15.3716 12.3228 15.8997 12.7681 17.2585 12.8784C17.9867 13.0507 18.7428 13.4577 18.5982 13.9815C18.625 13.9285 18.6495 13.8539 18.6495 13.756L18.6495 13.756ZM15.9764 13.753L16.5052 13.9407C16.6032 13.8982 16.7082 13.8475 16.7173 13.8342C16.7241 13.8193 16.7237 13.8078 16.7016 13.7883C16.6855 13.7738 16.449 13.6853 16.3015 13.6316L15.9764 13.753ZM16.422 13.5857C16.5629 13.6421 16.7584 13.7201 16.7736 13.7229C16.7961 13.7273 16.8326 13.729 16.8554 13.7229C16.8721 13.7184 16.9883 13.6601 17.0732 13.6164C16.9904 13.5758 16.8253 13.4997 16.7148 13.4997C16.608 13.4997 16.422 13.5857 16.422 13.5857ZM16.945 13.7679C16.9408 13.7801 16.9443 13.787 16.9626 13.8008C16.9828 13.8158 17.2572 13.9573 17.279 13.9606C17.3008 13.9632 17.3197 13.9636 17.3414 13.9578C17.3565 13.9543 17.4512 13.893 17.5168 13.8487L17.1508 13.6523C17.0554 13.6989 16.9539 13.7543 16.945 13.7679ZM17.206 14.0591C17.2123 14.046 17.2151 14.0364 17.2115 14.0238C17.1935 14.0035 16.9214 13.8621 16.8921 13.8581C16.8615 13.8534 16.8434 13.8534 16.8165 13.8663C16.7928 13.8772 16.6541 13.9543 16.6048 13.9822L17.0308 14.1759C17.1107 14.1262 17.1977 14.0695 17.206 14.059V14.0591ZM17.7273 14.2086C17.7374 14.2109 17.765 14.2046 17.7946 14.1934C17.8094 14.1878 17.872 14.1368 17.9147 14.1007L17.5871 13.8914C17.5084 13.9416 17.4253 13.9982 17.4163 14.0094C17.4159 14.0125 17.4177 14.0202 17.4348 14.0446L17.7273 14.2086ZM17.8633 14.2422C17.8537 14.2612 17.8523 14.2684 17.8569 14.2738C17.8672 14.2851 18.0376 14.3982 18.1537 14.4745L18.2864 14.3426L17.9838 14.1465C17.9279 14.1863 17.8688 14.2321 17.8633 14.2422V14.2422ZM17.6755 14.298C17.6818 14.2874 17.6781 14.2728 17.6659 14.2604C17.6493 14.2451 17.3866 14.1029 17.3669 14.0991C17.3454 14.0949 17.3048 14.1007 17.2838 14.107C17.2719 14.1105 17.1953 14.1637 17.1238 14.2155L17.5253 14.4026C17.5951 14.3577 17.669 14.3069 17.6755 14.298ZM17.7452 14.3508C17.7344 14.3546 17.6588 14.4118 17.6022 14.4569L17.9657 14.6816L18.1014 14.5331C17.9909 14.4569 17.8305 14.3475 17.8167 14.3419C17.8038 14.3379 17.7637 14.3443 17.7452 14.3508Z" fill="white"/>
<path d="M14.8901 13.8304C16.8492 14.3515 17.6845 15.0299 17.6845 15.0299L17.8932 14.7952C17.7953 14.7229 17.0733 14.225 15.6592 13.7614C16.0801 13.595 16.59 13.3982 16.7279 13.3982C17.0404 13.3982 17.6827 13.8038 18.3715 14.2558L18.5288 14.0788C17.9254 13.6626 17.2182 13.1698 16.7078 13.1698C16.295 13.1698 15.6989 13.4256 14.8901 13.8304Z" fill="white"/>
<path d="M10.2819 12.6865L9.46465 13.1434L11.0895 13.3619L10.2819 12.6865ZM9.22775 13.9648L9.37003 12.9569L7.4834 14.2266L9.22775 13.9648ZM10.8183 11.172L9.45418 11.9352L9.80886 12.7828L10.8183 11.172Z" fill="#97999B"/>
<path d="M9.21927 13.1837L7.94207 14.0493L9.09909 13.869L9.21927 13.1837ZM10.8013 13.2283L10.1794 12.8652L9.74069 13.0995L10.8013 13.2283ZM9.77813 12.5049L10.5236 11.4952L9.65974 11.982L9.77813 12.5049ZM9.59031 11.2528L7.93066 10.1066L8.40613 11.5045L9.24939 11.7119L9.59031 11.2528Z" fill="#00205B"/>
</svg>
