<svg width="24" height="24" viewBox="0 0 24 24" fill="none" xmlns="http://www.w3.org/2000/svg">
<path d="M18.521 20.5569C18.254 20.5569 18.0371 20.7734 18.0371 21.0407C18.0371 21.3076 18.254 21.5244 18.521 21.5244C18.7881 21.5244 19.0046 21.3076 19.0046 21.0407C19.0046 20.7734 18.7881 20.5569 18.521 20.5569ZM18.521 21.4207C18.4711 21.4207 18.4217 21.4109 18.3756 21.3918C18.3294 21.3728 18.2875 21.3448 18.2522 21.3095C18.217 21.2742 18.189 21.2323 18.1699 21.1862C18.1508 21.14 18.141 21.0906 18.141 21.0407C18.141 20.8308 18.3108 20.661 18.521 20.661C18.731 20.661 18.9009 20.8307 18.9009 21.0407C18.9009 21.2507 18.731 21.4207 18.521 21.4207ZM18.7198 20.9285C18.7198 20.907 18.7155 20.8857 18.7073 20.8658C18.699 20.8459 18.6869 20.8278 18.6717 20.8126C18.6564 20.7974 18.6383 20.7853 18.6184 20.7771C18.5985 20.7688 18.5772 20.7646 18.5557 20.7646H18.3226V21.3169H18.4262V21.0926H18.5005L18.6052 21.3169H18.7198L18.6105 21.083C18.6424 21.0717 18.6701 21.0507 18.6897 21.0231C18.7092 20.9954 18.7198 20.9624 18.7198 20.9285H18.7198ZM18.5557 20.9889H18.4262V20.8681H18.5557C18.589 20.8681 18.6162 20.8952 18.6162 20.9286C18.6161 20.9446 18.6097 20.9599 18.5984 20.9712C18.587 20.9825 18.5717 20.9889 18.5557 20.9889Z" fill="#041E42"/>
<path d="M22.32 12.0001C22.32 17.6998 17.7017 22.32 12.0016 22.32C6.30199 22.32 1.68018 17.6999 1.68018 12.0001C1.68018 6.30006 6.30063 1.67999 12.0002 1.67999C17.7003 1.67999 22.32 6.30006 22.32 12.0001Z" fill="#A2AAAD"/>
<path d="M12.0004 2.37262C6.68323 2.37262 2.37354 6.68335 2.37354 12.0001C2.37354 17.3165 6.68465 21.6274 12.0018 21.6274C17.319 21.6274 21.6271 17.3165 21.6271 12.0001C21.6271 6.68332 17.3175 2.37262 12.0004 2.37262ZM16.3578 13.8528L15.9304 13.6399L13.2191 13.8212V14.2218L14.4504 15.9931V17.0675L12.752 16.2301L12.6123 15.8774L12.0003 17.2321L11.4072 15.8772L11.267 16.2301L9.5689 17.0675V15.9933L10.8005 14.2218V13.8212L8.08907 13.6399L7.66144 13.8528V11.371L7.65621 10.6729L8.24633 12.0925L10.9361 10.8091L11.0811 9.1615L12.0015 4.88051L12.9384 9.1615L13.0834 10.8091L15.7729 12.0926L16.3472 10.6548L16.3578 11.371L16.3578 13.8528Z" fill="#041E42"/>
<path d="M12.9315 4.96359L12.0005 2.61731L11.0132 4.96372C7.539 5.43241 4.85986 8.40754 4.85986 12.0103C4.85986 15.9383 8.07232 19.123 12.0005 19.123C15.9287 19.123 19.0847 15.9383 19.0847 12.0104C19.0847 8.40751 16.4058 5.43222 12.9315 4.96359ZM16.3575 13.8529L15.93 13.6399L13.2187 13.8212V14.2218L14.45 15.9931V17.0675L12.7516 16.2301L12.6119 15.8774L11.9999 17.2321L11.4068 15.8772L11.2666 16.2301L9.56852 17.0675V15.9934L10.8001 14.2218V13.8212L8.0887 13.6399L7.66107 13.8529V11.371L7.65584 10.6729L8.24595 12.0926L10.9357 10.8091L11.0807 9.16151L12.0011 4.88052L12.938 9.16151L13.083 10.8091L15.7725 12.0926L16.3468 10.6548L16.3574 11.371L16.3575 13.8529Z" fill="white"/>
<path d="M7.65545 10.6729L8.24569 12.0926L10.9354 10.809L11.0805 9.16151L11.2803 8.23883L9.92508 7.35028L10.4705 10.5802L9.0282 9.14119L8.98863 10.2767L6.87813 9.48036L7.6608 11.5528V11.3709L7.65545 10.6729ZM10.7998 13.8212L8.88637 13.6932L9.66024 14.3684L9.20535 14.9347L10.1925 15.0953L10.7998 14.2218V13.8212ZM12.0008 17.2257L11.4064 15.8772L11.3952 15.9057L12.0009 18.8474L12.614 15.8839L12.6115 15.8774L12.0008 17.2257ZM13.2184 14.2218L13.8259 15.096L14.825 14.9352L14.3699 14.3684L15.1447 13.6923L13.2183 13.8212L13.2184 14.2218ZM13.0827 10.8091L15.7723 12.0926L16.3465 10.6548L16.3571 11.3709V11.586L17.1528 9.48004L15.0415 10.2767L15.0017 9.14119L13.5595 10.5805C13.5965 10.3562 14.105 7.35025 14.105 7.35025L12.7393 8.24712L12.9378 9.16147L13.0827 10.8091V10.8091ZM17.5198 11.6203L16.3572 11.6149V12.6347L17.5198 11.6203ZM6.51025 11.6203L7.66074 12.624V11.6149L6.51025 11.6203Z" fill="#782F40"/>
<path d="M10.7976 13.8212L9.04333 13.704L9.78476 14.351C9.77302 14.3838 9.3826 14.8667 9.3826 14.8667L10.251 15.008L10.7976 14.2218V13.8212ZM11.2567 8.33768L10.0558 7.5491L10.0581 7.56339L11.0134 9.89777L11.0782 9.16154L11.2567 8.33768ZM10.4698 10.7134C10.4686 10.7125 10.4675 10.7119 10.4664 10.711L9.11605 9.36416L9.07661 10.4097L7.05773 9.65035L9.02888 11.7178L10.6863 10.9269L10.4698 10.7134ZM11.5635 16.2353L12.0019 18.4495L11.9998 17.233L11.5635 16.2353ZM6.76367 11.7146L7.65861 12.4955V11.7104L6.76367 11.7146ZM13.9655 7.55629L12.7598 8.35164L12.895 8.97462L13.9655 7.55629ZM16.9875 9.64819L14.9714 10.411L14.3819 11.4301L14.7851 11.6226L16.9875 9.64819Z" fill="#A6192E"/>
<path d="M16.3472 10.6548L15.7729 12.0925L13.0834 10.8091L12.9385 9.1615L12.0016 4.88051L11.0811 9.1615L10.9361 10.8091L8.24636 12.0926L7.65625 10.6729L7.66147 11.3709V13.8528L8.08911 13.6399L10.8005 13.8212V14.2218L9.56893 15.9933V17.0675L11.267 16.2301L11.4072 15.8772L12.0003 17.2321L12.6123 15.8774L12.752 16.2301L14.4504 17.0675V15.9931L13.2191 14.2218V13.8212L15.9304 13.6399L16.3579 13.8528V11.3709L16.3472 10.6548V10.6548ZM12.0005 16.7698L11.4135 15.4365L11.214 14.974L11.3322 15.5628L11.1208 16.0952L9.75473 16.769V16.0515L10.986 14.2802V13.6479L8.05109 13.4515L7.84736 13.5529V11.6169L8.15 12.3443L10.8516 11.0552L11.028 11.9189L11.111 10.9314L11.1119 10.9313L11.2651 9.18727L12.0009 5.63087L12.0005 16.7698V16.7698Z" fill="#53565A"/>
</svg>
