<svg width="40" height="40" viewBox="0 0 40 40" fill="none" xmlns="http://www.w3.org/2000/svg">
<path d="M31.6511 24.6454C31.3367 24.6454 31.0815 24.9002 31.0815 25.2148C31.0815 25.529 31.3367 25.7842 31.6511 25.7842C31.9654 25.7842 32.2202 25.529 32.2202 25.2148C32.2202 24.9002 31.9654 24.6454 31.6511 24.6454ZM31.6511 25.662C31.5923 25.662 31.5342 25.6505 31.4799 25.6281C31.4256 25.6056 31.3763 25.5727 31.3347 25.5311C31.2932 25.4896 31.2603 25.4403 31.2378 25.386C31.2154 25.3317 31.2038 25.2735 31.2039 25.2148C31.2039 24.9677 31.4037 24.7679 31.6511 24.7679C31.8982 24.7679 32.0982 24.9677 32.0982 25.2148C32.0982 25.462 31.8982 25.662 31.6511 25.662ZM31.885 25.0828C31.885 25.0574 31.88 25.0323 31.8703 25.0089C31.8606 24.9855 31.8463 24.9642 31.8284 24.9463C31.8105 24.9284 31.7892 24.9142 31.7657 24.9045C31.7423 24.8948 31.7172 24.8899 31.6918 24.8899H31.4175V25.5398H31.5394V25.2759H31.6269L31.7502 25.5398H31.885L31.7564 25.2646C31.7939 25.2512 31.8265 25.2266 31.8495 25.1941C31.8725 25.1615 31.8849 25.1227 31.885 25.0828ZM31.6918 25.1538H31.5394V25.0116H31.6918C31.731 25.0116 31.7631 25.0435 31.7631 25.0828C31.763 25.1017 31.7555 25.1197 31.7421 25.1331C31.7287 25.1464 31.7107 25.1538 31.6918 25.1538H31.6918Z" fill="#A2AAAD"/>
<path d="M23.4311 10.8906C14.7331 10.8906 7.80746 15.6521 7.80746 15.6521C7.80746 15.6521 16.3438 14.9651 16.3438 16.7321C16.3438 18.2814 9.58638 20.802 9.58638 20.802C9.58638 20.802 14.9161 20.9408 14.9161 22.229C14.9161 24.4027 3.83984 27.3266 3.83984 27.3266C3.83984 27.3266 7.72096 29.1094 13.7829 29.1094C24.6392 29.1094 36.1597 22.9533 36.1597 18.1561C36.1597 13.7387 29.6793 10.8906 23.4311 10.8906Z" fill="#A2AAAD"/>
<path d="M23.4309 11.279C17.1501 11.279 11.7589 13.831 9.36062 15.1709C9.36062 15.1709 16.7321 14.6518 16.7321 16.7321C16.7321 18.0296 13.5639 19.588 11.3503 20.5186C13.1689 20.6921 15.3049 21.1286 15.3049 22.229C15.3049 24.2562 8.51644 26.4227 5.09619 27.3856C6.64062 27.9021 9.72713 28.721 13.7827 28.721C24.691 28.721 35.7719 22.5741 35.7719 18.1561C35.7719 13.908 29.3659 11.279 23.4309 11.279Z" fill="#010101"/>
<path d="M11.7499 27.2996L10.4702 27.6396C10.4702 27.6396 11.6149 27.7668 13.4193 27.7668C26.3616 27.7668 34.9542 19.8927 34.9542 18.6391C34.9542 18.5011 34.9094 18.3842 34.9094 18.3842C30.3221 23.8421 21.2131 27.6041 11.7499 27.2996Z" fill="#FC4C02"/>
<path d="M23.5871 12.3447C18.7538 12.3447 13.4883 14.2195 13.4883 14.2195C13.4883 14.2195 18.9051 13.9471 18.9051 16.2122C18.9051 18.324 15.0778 19.8731 15.0778 19.8731C15.0778 19.8731 17.4016 20.417 17.4016 21.7604C17.4016 24.8126 9.87012 26.7091 9.87012 26.7091C25.6744 27.4751 34.6991 19.0269 34.6991 17.4634C34.6991 16.0127 30.3033 12.3447 23.587 12.3447L23.5871 12.3447ZM20.9885 22.509C20.9885 22.509 25.9486 20.1174 27.6358 18.6988L21.6043 18.896L27.816 17.2879C26.0286 15.9285 22.752 15.0906 22.752 15.0906C24.74 15.0474 28.0574 15.4033 30.8039 17.6983C27.7217 20.3783 23.5974 21.8178 20.9885 22.509Z" fill="white"/>
<path d="M23.5867 12.6553C20.5553 12.6553 17.326 13.4118 15.3831 13.9589C15.3831 13.9589 19.2157 14.1135 19.2157 16.2122C19.2157 17.9204 17.0782 19.2359 15.9184 19.8246C16.6746 20.1317 17.7119 20.7383 17.7119 21.7605C17.7119 24.0321 14.0936 25.6469 11.793 26.4446C26.1235 26.4446 34.3879 18.8285 34.3879 17.4635C34.3879 16.2276 30.1448 12.6553 23.5867 12.6553ZM18.5335 23.369C18.5335 23.369 24.8948 20.3164 26.639 19.0424L18.811 19.2978L27.0674 17.1609C25.1749 15.8942 20.9395 14.9402 20.9395 14.9402C20.9395 14.9402 26.8955 13.7399 31.2943 17.6903C26.3512 22.2052 18.5335 23.369 18.5335 23.369L18.5335 23.369Z" fill="#B9975B"/>
</svg>
