<svg width="24" height="24" viewBox="0 0 24 24" fill="none" xmlns="http://www.w3.org/2000/svg">
<path d="M15.1856 18.7597C14.9185 18.7597 14.7017 18.9763 14.7017 19.2435C14.7017 19.5105 14.9185 19.7273 15.1856 19.7273C15.4527 19.7273 15.6692 19.5105 15.6692 19.2435C15.6692 18.9763 15.4527 18.7597 15.1856 18.7597ZM15.1856 19.6235C15.1357 19.6236 15.0862 19.6138 15.0401 19.5947C14.994 19.5756 14.9521 19.5476 14.9168 19.5123C14.8815 19.477 14.8535 19.4351 14.8344 19.389C14.8154 19.3429 14.8056 19.2934 14.8056 19.2435C14.8056 19.0336 14.9754 18.8638 15.1856 18.8638C15.3955 18.8638 15.5655 19.0336 15.5655 19.2435C15.5655 19.4535 15.3955 19.6235 15.1856 19.6235ZM15.3844 19.1314C15.3843 19.1098 15.3801 19.0885 15.3718 19.0686C15.3636 19.0487 15.3515 19.0306 15.3362 19.0154C15.321 19.0002 15.3029 18.9881 15.283 18.9799C15.2631 18.9717 15.2417 18.9675 15.2202 18.9675H14.9871V19.5197H15.0907V19.2954H15.1651L15.2698 19.5197H15.3844L15.275 19.2859C15.307 19.2745 15.3346 19.2536 15.3542 19.2259C15.3737 19.1983 15.3843 19.1653 15.3844 19.1314ZM15.2202 19.1917H15.0907V19.0709H15.2202C15.2535 19.0709 15.2807 19.098 15.2807 19.1314C15.2807 19.1474 15.2743 19.1628 15.2629 19.1741C15.2516 19.1854 15.2362 19.1917 15.2202 19.1917Z" fill="white"/>
<path d="M21.1659 11.2578C21.1659 11.2578 21.4209 10.1386 20.1977 9.22057C20.2076 10.1942 19.786 10.5975 19.786 10.5975L19.6623 10.5359L19.3888 9.80081L20.5749 7.31988C20.6339 7.53747 20.7043 7.79989 20.7043 7.79989L21.0465 7.12154C21.0465 7.12154 21.3588 6.53127 21.3049 5.79729L21.595 5.18987L21.4262 2.73425C21.3078 2.25615 20.9344 1.90469 20.4573 1.75202C20.0004 1.60686 19.5439 1.68339 19.2032 1.96125L14.0013 5.98305C11.3552 6.08351 9.28988 7.2537 8.01417 9.37221L2.03418 14.1845C2.35284 14.8895 3.84469 16.7587 6.15844 16.3238L7.35401 16.1089C7.35401 16.1089 8.33409 21.4667 12.9918 22.32C12.9918 22.32 11.4165 19.7589 11.7988 17.6449C11.7988 17.6449 12.8736 20.7408 14.9444 20.3053C13.2756 18.2659 14.1874 16.2315 14.1874 16.2315C14.1874 16.2315 15.0299 17.6029 16.937 17.4372C16.937 17.4372 15.6399 16.0596 16.0755 14.2113L19.2152 14.3266L20.8532 13.6395L21.9654 11.6209L21.1659 11.2578Z" fill="white"/>
<path d="M20.437 9.83635C20.3873 10.4161 19.8614 10.9581 19.8614 10.9581L19.4298 10.7455L19.0723 9.78685L20.6189 6.55527C20.7299 6.77189 20.788 6.99077 20.788 6.99077C21.0128 6.54756 21.0443 6.09967 21.0119 5.73754L21.3002 5.13311L21.1388 2.78034C21.0606 2.46493 20.7534 2.15105 20.3696 2.02901C20.0056 1.91314 19.6375 1.97944 19.3753 2.19407L14.1075 6.26737C11.4283 6.34264 9.44822 7.51432 8.23491 9.56832L2.40186 14.2603C2.40186 14.2603 3.48281 16.3095 5.96616 16.0636L7.57156 15.7749C7.7441 16.5199 8.70538 20.8194 12.4253 21.8604C11.7952 20.6493 10.9809 18.4917 11.78 16.7234C12.8457 20.1434 14.4075 20.0479 14.4075 20.0479C12.8965 17.9053 14.1271 15.6267 14.1271 15.6267C14.7431 16.6784 15.6313 17.1472 16.3561 17.1472C16.3561 17.1472 15.2925 15.7456 15.8533 13.9125L19.1626 14.0346L20.6472 13.4114L21.559 11.7557L20.8436 11.4301C21.0669 10.4192 20.437 9.83632 20.437 9.83632V9.83635Z" fill="#010101"/>
<path d="M20.548 11.5173H20.5509C20.5816 11.3966 20.7172 10.7752 20.5298 10.3513C20.3659 10.8492 20.0743 11.1228 19.9445 11.2249L19.2143 10.8697L19.2175 10.8734L20.7144 11.8415L19.7994 12.0557L19.7975 12.0553L19.7969 12.0557L18.9794 11.7536C18.9817 11.7536 18.9817 11.7521 18.9819 11.7521L18.9767 11.7512C19.0249 11.5024 19.1014 10.9606 18.9282 10.5677C18.7599 11.0777 18.4713 11.3754 18.315 11.5065L17.5259 11.2139L16.8627 9.48192L19.272 5.58935C19.4091 5.73312 19.5558 5.92881 19.6755 6.18807C19.7948 5.80555 19.6806 5.314 19.603 5.05603L19.8954 4.58298L20.5816 4.08704L20.7091 4.7305L19.5647 7.90138L20.4723 5.94584C20.5116 5.9766 20.5949 6.04278 20.7819 6.42817C20.8774 6.12218 20.7326 5.44196 20.7326 5.44196L20.9974 4.93603L20.8726 2.96684C20.7679 3.13473 20.6599 3.49423 20.6142 3.6378C20.3924 2.12228 19.8054 3.24767 19.6593 2.34126L19.172 2.71839C19.1336 2.90866 19.0724 3.29311 19.0604 3.87536C19.0604 3.87536 18.7197 3.51545 18.611 3.17395C18.5688 3.3868 18.5034 3.80737 18.4892 4.44102C18.4892 4.44102 18.1078 4.03725 17.991 3.65767C17.9452 3.89545 17.8762 4.35369 17.8608 5.03806C17.8608 5.03806 17.4497 4.60414 17.318 4.19234C17.2664 4.45402 17.1915 4.95783 17.1736 5.70667C17.1736 5.70667 16.695 5.20002 16.5646 4.73346L14.1413 6.60525C13.9806 6.79588 13.225 7.56559 12.9472 8.72163C12.9472 8.72163 12.9465 7.90538 13.0115 7.65377C12.7987 7.80686 11.9986 8.43341 11.5619 8.88775C11.5619 8.88775 11.6148 8.06389 11.9533 7.59584C11.2386 8.1172 10.1483 9.22192 10.1483 9.22192C11.0496 7.6636 11.771 7.19969 12.1337 6.89783C10.3139 7.47394 8.73284 8.75165 8.03924 10.9093C8.03924 10.9093 8.05278 10.478 8.11899 10.1217L2.95605 14.2061C2.95605 14.2061 3.75115 15.6699 5.99004 15.6135L8.91363 15.1493C8.91363 15.1493 8.62244 14.3688 8.65144 13.8178C9.0069 15.0478 9.62074 15.5051 9.62074 15.5051C9.62074 15.5051 7.97964 15.7213 7.97964 15.7226C8.27695 16.7994 8.92927 19.8316 11.8973 21.257C11.2058 19.9225 11.0847 18.6567 11.201 17.5963C11.3885 16.3321 12.0332 15.5624 12.0332 15.5624C12.1381 17.0468 12.8421 18.1691 13.3016 18.7546C13.4208 18.9219 13.5542 19.0753 13.7027 19.2084C13.7027 19.2084 13.1051 18.1267 13.542 16.1859C13.5809 16.0763 13.9129 15.1471 14.2536 14.8064C14.6959 16.0538 15.7739 16.5352 15.7739 16.5352C15.0042 14.9432 15.6724 13.4183 15.6724 13.4183C15.6724 13.4183 19.1363 13.5475 19.1627 13.5486L20.4644 13.0025L21.1343 11.7869L20.548 11.5173Z" fill="#862633"/>
<path d="M18.3872 9.59844L18.9286 10.3699L18.623 9.60837L18.9286 8.82154L18.3872 9.59844Z" fill="#862633"/>
<path d="M13.2289 7.26828C13.2822 7.10103 12.9496 7.13593 12.9496 7.13593C13.1792 6.98516 13.4142 6.89741 13.5321 6.8588C13.6148 6.75689 13.684 6.67536 13.7186 6.63666C13.5548 6.64966 13.1312 6.74038 12.2998 7.33352C12.6379 7.26902 13.0037 7.24903 13.2289 7.26828ZM20.548 11.5173H20.551C20.5817 11.3966 20.7172 10.7752 20.5299 10.3513C20.366 10.8492 20.0744 11.1228 19.9446 11.2249L19.2144 10.8697L19.2176 10.8734L20.7145 11.8415L19.7995 12.0557L19.7976 12.0553L19.7969 12.0557L18.9795 11.7536C18.9818 11.7536 18.9818 11.7521 18.982 11.7521L18.9767 11.7512C19.0249 11.5024 19.1015 10.9606 18.9283 10.5678C18.76 11.0777 18.4713 11.3754 18.3151 11.5065L17.5259 11.2139L16.8628 9.48192L19.2721 5.58935C19.4092 5.73312 19.5559 5.92881 19.6756 6.18807C19.7949 5.80555 19.6807 5.31403 19.6031 5.05603L19.8955 4.58302L20.5817 4.08701L20.7092 4.7305L19.5648 7.90138L20.4724 5.94584C20.5117 5.9766 20.595 6.04278 20.782 6.42817C20.8775 6.12221 20.7327 5.44196 20.7327 5.44196L20.9974 4.93606L20.606 3.95879L19.4976 4.57179L15.8505 8.71179C15.9901 8.67702 14.6065 9.16803 14.1551 9.75047C14.1551 9.75047 15.1056 9.93381 15.1939 10.5705C14.8226 10.7197 8.01625 15.3365 10.9253 20.0469C11.1801 20.4426 11.4992 20.8479 11.8973 21.257C11.2059 19.9225 11.0847 18.6567 11.201 17.5963C11.396 15.829 12.2547 14.6312 12.2547 14.6312C12.2547 14.6312 12.2283 17.2546 13.3016 18.7546C13.4209 18.9219 13.5543 19.0753 13.7027 19.2084C13.7027 19.2084 13.1051 18.1267 13.5421 16.1859C13.6966 15.4965 13.981 14.6994 14.4705 13.8034C14.1658 15.2336 15.4574 16.2533 15.774 16.5352C15.0042 14.9432 15.6725 13.4183 15.6725 13.4183C15.6725 13.4183 19.1363 13.5475 19.1628 13.5486L20.3725 12.3637L20.4645 13.0025L21.1344 11.7869L20.548 11.5173L20.548 11.5173ZM3.68311 14.3098C4.05463 14.9773 4.92963 15.16 5.44031 15.2093C5.29251 15.0631 4.80025 14.5479 4.9525 14.1697C4.9525 14.1697 5.36843 14.4964 5.93364 14.5564C5.93364 14.5564 5.46463 13.2549 6.26501 12.25C5.09311 13.1891 3.68311 14.3098 3.68311 14.3098Z" fill="#DDCBA4"/>
<path d="M15.8505 8.71179L19.4974 4.57179L15.6618 8.49971C15.6618 8.49971 14.7073 8.66064 13.325 9.75166C14.0174 11.0811 10.7117 15.2286 9.31201 14.1287C9.59791 14.9717 10.6376 14.6271 10.6376 14.6271C10.4979 14.9504 9.14092 17.2793 10.9252 20.0468C8.01621 15.3365 14.8226 10.7197 15.1939 10.5705C15.1055 9.93381 14.155 9.75046 14.155 9.75046C14.6065 9.16803 15.9901 8.67702 15.8505 8.71179Z" fill="#010101"/>
<path d="M17.4535 8.09266L16.341 9.44058L17.3066 11.2258L16.6515 9.44058L17.4535 8.09266ZM7.71446 11.0751C7.49645 11.2605 6.91644 11.7268 6.26473 12.25C5.46435 13.2549 5.93336 14.5564 5.93336 14.5564C5.36815 14.4964 4.95222 14.1697 4.95222 14.1697C4.79996 14.5479 5.29223 15.0631 5.44003 15.2093C5.67349 15.232 5.83016 15.2266 5.83016 15.2266L8.31754 14.7872C8.31754 14.7872 4.72618 13.9696 7.71446 11.0752V11.0751Z" fill="#010101"/>
</svg>
