<svg width="40" height="40" viewBox="0 0 40 40" fill="none" xmlns="http://www.w3.org/2000/svg">
<path d="M29.7602 32.3182C29.3678 32.3182 29.0493 32.6362 29.0493 33.0288C29.0493 33.421 29.3678 33.7395 29.7602 33.7395C30.1525 33.7395 30.4705 33.421 30.4705 33.0289C30.4705 32.6362 30.1525 32.3182 29.7602 32.3182ZM29.7602 33.587C29.6869 33.5871 29.6142 33.5727 29.5465 33.5447C29.4787 33.5166 29.4172 33.4755 29.3653 33.4237C29.3135 33.3718 29.2724 33.3103 29.2444 33.2425C29.2163 33.1748 29.2019 33.1022 29.202 33.0289C29.202 32.7205 29.4514 32.4711 29.7602 32.4711C30.0686 32.4711 30.3182 32.7205 30.3182 33.0289C30.3182 33.3374 30.0686 33.587 29.7602 33.587ZM30.0522 32.8641C30.0522 32.8325 30.0459 32.8012 30.0338 32.7719C30.0217 32.7427 30.0039 32.7162 29.9815 32.6938C29.9591 32.6715 29.9325 32.6537 29.9033 32.6416C29.874 32.6296 29.8427 32.6234 29.811 32.6234H29.4686V33.4345H29.6208V33.1051H29.7301L29.8839 33.4345H30.0522L29.8916 33.0911C29.9385 33.0744 29.9791 33.0437 30.0078 33.003C30.0366 32.9624 30.0521 32.9139 30.0522 32.8641ZM29.811 32.9528H29.6208V32.7753H29.811C29.8599 32.7753 29.9 32.8151 29.9 32.8641C29.8999 32.8877 29.8905 32.9102 29.8738 32.9269C29.8572 32.9435 29.8346 32.9528 29.811 32.9528Z" fill="#010101"/>
<path d="M19.9998 5.32654C11.8959 5.32654 5.32666 11.8963 5.32666 20.0004C5.32666 28.1035 11.8959 34.6737 19.9998 34.6737C28.1034 34.6737 34.6735 28.1035 34.6735 20.0004C34.6735 11.8963 28.1034 5.32654 19.9998 5.32654Z" fill="#FFB81C"/>
<path d="M20 5.87154C12.1977 5.87154 5.87158 12.1972 5.87158 20.0003C5.87158 27.8029 12.1977 34.1286 20 34.1286C27.8024 34.1286 34.1286 27.8029 34.1286 20.0003C34.1286 12.1972 27.8025 5.87149 20.0001 5.87149L20 5.87154Z" fill="#010101"/>
<path d="M26.6202 14.5069L29.0496 12.0776C28.6989 11.6777 28.3225 11.3011 27.9227 10.9503L25.4777 13.396L26.6202 14.5069ZM20.797 7.99856C20.5331 7.98151 20.2683 7.96967 20 7.96967C19.7318 7.96967 19.4668 7.98151 19.2028 7.99856V11.8653H20.797V7.99856ZM13.2516 12.1252L12.0775 10.9503C11.6775 11.301 11.3011 11.6776 10.9505 12.0776L13.2516 14.3788L13.2516 12.1252ZM13.2516 25.6216L10.9505 27.9227C11.3012 28.3226 11.6777 28.699 12.0775 29.0497L13.2516 27.8753L13.2516 25.6216ZM14.2654 19.2034H7.99825C7.98138 19.4665 7.96973 19.7323 7.96973 20.0003C7.96973 20.2682 7.98138 20.5329 7.99938 20.7971H14.2654V19.2034ZM32.0015 19.2034H26.7418L25.9228 20.0003L26.7424 20.7971H32.0013C32.0187 20.5329 32.03 20.2682 32.03 20.0003C32.03 19.7323 32.0187 19.4665 32.0015 19.2034ZM25.4774 26.6047L27.9224 29.0497C28.3222 28.699 28.6988 28.3225 29.0496 27.9227L26.6199 25.4934L25.4774 26.6047ZM19.2028 32.0016C19.4668 32.0184 19.7318 32.0306 20 32.0306C20.2682 32.0306 20.5331 32.0184 20.797 32.0016V28.1342H19.2028V32.0016Z" fill="#FFB81C"/>
<path d="M13.8687 25.3144V27.5176H23.6545L26.131 25.1077V21.0639L25.0379 20.0003L26.131 18.9361V14.8923L23.6545 12.4826H13.8687V14.6849L14.8833 15.6723V24.328L13.8687 25.3144Z" fill="#FFB81C"/>
<path d="M22.7831 16.2923L22.0881 15.6166H18.0767V18.4329H22.0881L22.7831 17.7577V16.2923ZM22.7831 22.2428L22.0881 21.5675H18.0767V24.3833H22.0881L22.7831 23.7084V22.2428Z" fill="#010101"/>
<path d="M14.3779 25.5297V27.0082H23.4471L25.6216 24.8928V21.2788L24.307 20.0003L25.6215 18.7206V15.1072L23.4471 12.9912H14.378V14.47L15.3922 15.4573V24.5429L14.3779 25.5297ZM17.5662 15.1072H22.2955L23.2914 16.077V17.9731L22.2955 18.9424H17.5663V15.1072L17.5662 15.1072ZM17.5662 21.0581H22.2955L23.2914 22.0277V23.923L22.2955 24.8928H17.5663V21.0581H17.5662Z" fill="#010101"/>
<path d="M12.5856 29.4701C14.2689 30.7913 16.313 31.6709 18.5458 31.9399V28.1343H13.9205L12.5856 29.4701ZM23.9049 28.1342H21.4534V31.9399C23.6862 31.6709 25.7308 30.7913 27.4137 29.4701L25.007 27.0624L23.905 28.1342H23.9049ZM14.2651 21.4541H8.05962C8.32923 23.6873 9.20911 25.7306 10.53 27.4152L14.2651 23.6788V21.4541V21.4541ZM14.2651 16.3215L10.53 12.5856C9.20911 14.2693 8.32923 16.3131 8.05957 18.5466H14.2651V16.3215ZM25.0071 12.9371L27.4141 10.5297C25.7308 9.20903 23.6862 8.32928 21.4534 8.06015V11.8653H23.905L25.0071 12.9371ZM26.7483 24.6929L29.4702 27.4152C30.7906 25.7306 31.67 23.6873 31.9399 21.4541H26.7484V24.6929L26.7483 24.6929ZM18.5458 11.8653V8.06015C16.313 8.32928 14.2689 9.20903 12.5854 10.5298L13.9206 11.8653H18.5458L18.5458 11.8653ZM26.7483 18.5466H31.9399C31.6702 16.3131 30.7906 14.2693 29.4702 12.5855L26.7484 15.3078L26.7483 18.5466ZM18.6931 16.234V17.8157H21.8374L22.1651 17.4967V16.5526L21.8374 16.234H18.6931ZM18.6931 22.185V23.7656H21.8374L22.1651 23.4468V22.5036L21.8374 22.185H18.6931Z" fill="white"/>
</svg>
