<svg width="24" height="24" viewBox="0 0 24 24" fill="none" xmlns="http://www.w3.org/2000/svg">
<path d="M18.6445 20.3854C18.3775 20.3854 18.1606 20.6019 18.1606 20.8691C18.1606 21.1361 18.3775 21.353 18.6445 21.353C18.9116 21.353 19.1281 21.1361 19.1281 20.8692C19.1281 20.6019 18.9116 20.3854 18.6445 20.3854ZM18.6445 21.2491C18.5946 21.2492 18.5452 21.2394 18.4991 21.2203C18.453 21.2012 18.4111 21.1732 18.3758 21.1379C18.3405 21.1027 18.3125 21.0608 18.2934 21.0146C18.2743 20.9685 18.2645 20.9191 18.2646 20.8692C18.2646 20.6592 18.4343 20.4895 18.6445 20.4895C18.8545 20.4895 19.0244 20.6592 19.0244 20.8692C19.0244 21.0792 18.8545 21.2491 18.6445 21.2491ZM18.8433 20.757C18.8433 20.7355 18.8391 20.7142 18.8308 20.6943C18.8225 20.6744 18.8105 20.6563 18.7952 20.6411C18.78 20.6259 18.7619 20.6138 18.742 20.6056C18.7221 20.5974 18.7007 20.5931 18.6792 20.5932H18.4461V21.1453H18.5497V20.9211H18.6241L18.7287 21.1453H18.8433L18.734 20.9115C18.766 20.9002 18.7936 20.8792 18.8131 20.8516C18.8327 20.8239 18.8433 20.7909 18.8433 20.757ZM18.6792 20.8174H18.5497V20.6966H18.6792C18.7125 20.6966 18.7397 20.7236 18.7397 20.757C18.7397 20.7731 18.7333 20.7884 18.7219 20.7997C18.7106 20.8111 18.6952 20.8174 18.6792 20.8174Z" fill="#041E42"/>
<path d="M12.0004 1.68021C6.3097 1.68021 1.68018 6.3095 1.68018 12C1.68018 17.6904 6.3097 22.3198 12.0004 22.3198C17.6907 22.3198 22.3202 17.6904 22.3202 12C22.3202 6.3095 17.6907 1.68021 12.0004 1.68021Z" fill="#A2AAAD"/>
<path d="M12.0004 1.8093C6.38108 1.8093 1.80957 6.38078 1.80957 12C1.80957 17.6192 6.38108 22.1906 12.0004 22.1906C17.6195 22.1906 22.1909 17.6192 22.1909 12C22.1909 6.38078 17.6195 1.8093 12.0004 1.8093H12.0004Z" fill="#041E42"/>
<path d="M12.0003 2.79252C6.9232 2.79252 2.79248 6.92301 2.79248 12C2.79248 17.0772 6.9232 21.2076 12.0003 21.2076C17.0773 21.2076 21.2077 17.0772 21.2077 12C21.2077 6.92298 17.0773 2.79252 12.0003 2.79252ZM14.5083 16.7892C14.5852 16.8021 14.6448 16.8628 14.6782 16.9518C14.6782 16.9518 14.8252 16.8968 14.9056 17.1081C14.9056 17.1081 15.0578 17.0593 15.1313 17.2637C15.1313 17.2637 15.2807 17.2145 15.3568 17.4198C15.3568 17.4198 15.5003 17.3664 15.5826 17.5758C15.5826 17.5758 15.7348 17.5268 15.808 17.7319C15.808 17.7319 15.9535 17.6828 16.0337 17.8877C16.0337 17.8877 16.1849 17.8387 16.2593 18.0436C16.2593 18.0436 16.4053 17.9921 16.4841 18.1981C16.5023 18.196 16.5204 18.1899 16.5382 18.1933C16.6876 18.2187 16.7702 18.4137 16.7299 18.6472C16.7277 18.6592 16.7252 18.6715 16.7221 18.6833C16.9656 18.4314 17.1757 18.2313 17.4491 18.4037C17.6831 18.5518 17.7288 18.8742 17.5578 19.1447C17.3408 19.4893 17.0614 19.3102 16.9274 19.2042C16.6493 19.4152 15.9328 20.2662 14.6129 19.4338C12.8832 18.3428 14.0721 16.447 13.8466 16.1608C13.7873 16.0859 13.6371 15.98 13.7141 15.8573C13.7768 15.7579 13.9691 15.7244 14.1449 15.8349C14.4791 16.0461 14.4465 16.403 14.3632 16.8214C14.4083 16.7926 14.4578 16.7801 14.5083 16.7892ZM13.8593 16.2017L13.6921 17.1027C13.157 16.7497 12.51 16.3016 12.0003 15.9298C11.4904 16.3016 10.8433 16.7497 10.3083 17.1027L10.141 16.2017C10.51 15.9423 10.9219 15.6472 11.2737 15.3887C7.24008 12.3224 4.27405 9.04986 4.23922 9.01139C3.77512 8.52771 3.88622 7.94374 3.89041 7.92378C3.90541 7.79736 4.04024 7.73344 4.14937 7.84799C4.18285 7.88508 7.19868 11.2142 12.0003 14.8473C16.8016 11.2142 19.8174 7.88505 19.8511 7.84799C19.9601 7.73344 20.0948 7.79736 20.1098 7.92378C20.1142 7.94377 20.2251 8.52771 19.761 9.01139C19.7264 9.04986 16.7602 12.3224 12.7264 15.3887C13.0786 15.6472 13.4903 15.9423 13.8593 16.2017ZM6.44253 19.1447C6.27144 18.8742 6.31701 18.5518 6.55114 18.4037C6.82452 18.2313 7.03456 18.4314 7.27804 18.6833C7.27511 18.6713 7.27258 18.6593 7.27046 18.6471C7.23022 18.4137 7.31248 18.2187 7.4617 18.1933C7.47976 18.1899 7.49792 18.196 7.51624 18.198C7.59492 17.9921 7.74101 18.0436 7.74101 18.0436C7.81509 17.8387 7.9666 17.8877 7.9666 17.8877C8.04712 17.6828 8.19218 17.732 8.19218 17.732C8.26545 17.5268 8.41786 17.5758 8.41786 17.5758C8.5 17.3664 8.64354 17.4198 8.64354 17.4198C8.71965 17.2145 8.86913 17.2637 8.86913 17.2637C8.94253 17.0593 9.09452 17.1081 9.09452 17.1081C9.17527 16.8968 9.32178 16.9519 9.32178 16.9519C9.35571 16.8628 9.41488 16.8022 9.49193 16.7892C9.54214 16.7801 9.592 16.7926 9.63689 16.8214C9.55349 16.403 9.52098 16.0461 9.85538 15.8349C10.0311 15.7244 10.2234 15.7579 10.2862 15.8573C10.3633 15.98 10.2131 16.0859 10.1539 16.1608C9.92797 16.447 11.1171 18.3428 9.38712 19.4338C8.06738 20.2662 7.35086 19.4152 7.07268 19.2042C6.93891 19.3102 6.65902 19.4893 6.44253 19.1447ZM12.9652 9.52912C12.9652 9.64899 12.8766 9.68682 12.7092 9.70275C12.7996 9.77863 12.9645 9.82213 12.9645 9.94288C12.9645 10.082 12.7963 10.1838 12.5503 10.3052C12.5202 10.324 12.454 10.4188 12.4353 10.4693C12.8204 10.4693 13.1221 10.0077 13.3255 10.0077C13.5593 10.0077 13.7014 10.4735 13.7014 10.6781C13.7014 10.9067 13.5095 10.9567 13.1886 10.9567C12.8863 10.9567 12.3187 11.2034 12.0925 11.2034C11.8846 11.2034 11.5405 11.0104 11.5405 10.7904C11.5405 10.7038 11.6471 10.4586 11.6471 10.0922C11.6471 9.67878 11.3386 9.42276 11.0522 9.42276C10.694 9.42276 10.5313 9.71629 10.5313 9.80556C10.5313 9.92923 10.6332 9.99538 10.5665 10.1019C10.5701 10.1082 10.5962 10.1261 10.6476 10.1261C10.7185 10.1261 10.8119 9.97545 10.9344 9.97545C11.1562 9.97545 11.4235 10.5201 11.4235 10.6524C11.4235 10.8219 11.2159 10.9496 10.9402 10.9496C10.7232 10.9496 10.2142 10.6702 9.91446 10.6702C9.72735 10.6874 9.40563 10.6774 9.40563 10.2412C9.40563 10.0004 9.69316 9.97509 9.69316 9.59358C9.69316 9.49038 9.55233 9.3946 9.593 9.26054C9.65772 9.04725 9.47667 8.93515 9.33913 8.93515C9.09629 8.93515 9.02099 9.16402 9.02099 9.24726C9.02099 9.67469 9.30485 9.57349 9.49635 9.75067C9.53053 9.78485 9.53646 9.84048 9.5057 9.87792C9.34722 10.0715 9.1387 10.2359 8.55018 10.0832C8.28712 10.2081 8.03442 10.2639 8.03442 10.0423C8.03442 9.94491 8.10108 9.86367 8.17274 9.79479C7.87046 9.87792 7.71189 10.1924 7.48908 10.1924C7.2377 10.1924 7.16311 9.91766 6.97941 9.734C6.89137 9.64583 6.68159 9.55408 6.60867 9.47136C6.20524 8.97504 5.98762 8.79702 5.67128 8.52716C5.54606 8.42719 5.40626 8.00275 5.40626 7.58419C5.40626 6.80885 5.51829 6.08405 6.87199 5.74082C8.40232 5.35237 8.05754 3.52219 10.7326 3.52219C12.9343 3.52219 14.3252 4.89176 17.5385 5.77474C18.2573 5.97205 18.6753 5.95702 18.6753 6.2718C18.6753 6.45888 18.4499 6.46446 18.3251 6.51084C18.3629 6.53128 18.4626 6.55502 18.7349 6.55502C18.9975 6.55502 19.0761 6.87896 18.3583 6.87896C17.9168 6.87896 17.5705 6.71368 17.5705 6.50326C17.5705 6.30431 17.7881 6.25236 17.9383 6.22472C17.7033 6.12494 17.1828 5.98843 16.8181 5.98717C16.8181 5.98717 16.9191 6.27658 16.9191 6.53067C16.9191 6.91415 16.8016 7.14689 16.8016 7.29543C16.8016 7.43642 17.1927 7.23738 17.3374 7.23738C17.7561 7.23738 17.473 7.96628 18.1891 8.07657C18.3612 8.11124 18.3827 8.21015 18.3247 8.32347C18.3247 8.32347 18.4293 8.31009 18.5438 8.28545C18.6961 8.26204 18.7549 8.35666 18.7549 8.66303C18.7549 9.06234 18.5461 9.1161 18.3414 9.1161C17.5771 9.1161 17.495 8.22569 17.1361 8.22569C17.0202 8.22569 16.3857 8.4396 16.2494 8.54383C16.2907 8.59179 16.4448 8.67115 16.6275 8.67115C16.788 8.67115 16.8571 8.75297 16.9098 8.75297C17.0499 8.75297 17.2039 8.7601 17.2039 9.01706C17.2039 9.40222 17.0629 9.5594 16.7172 9.5594C16.0436 9.5594 16.0504 8.85823 15.4952 8.85823C15.3172 8.85823 14.8397 9.08291 14.4001 9.08291C13.8761 9.08291 13.5303 8.68447 13.0315 8.68447C12.8192 8.68447 12.7082 8.85314 12.7082 9.02009C12.7082 9.28157 12.9652 9.35665 12.9652 9.52908V9.52912ZM11.4958 10.5365C11.4242 10.3052 11.1963 9.87767 10.9344 9.87767C10.7988 9.87767 10.6805 9.99863 10.6805 9.99863C10.675 9.92446 10.6292 9.85803 10.6292 9.80553C10.6325 9.75593 10.7531 9.52054 11.0522 9.52054C11.2914 9.52054 11.5496 9.73899 11.5496 10.0923C11.5496 10.2824 11.5222 10.4275 11.4958 10.5365ZM9.58381 9.709C9.41005 9.47578 9.1189 9.62902 9.1189 9.24729C9.1189 9.19405 9.16989 9.03306 9.33916 9.03306C9.42495 9.03306 9.5086 9.08756 9.5086 9.17979C9.5086 9.21446 9.48764 9.25571 9.48764 9.30656C9.48764 9.48242 9.6456 9.54918 9.58381 9.709ZM12.0003 2.92174C15.4475 2.92174 18.4526 4.85351 19.9893 7.69142C19.9191 7.68742 19.8432 7.71425 19.7781 7.78249C19.7674 7.79465 19.4441 8.15175 18.8488 8.75213C18.8509 8.72362 18.8527 8.69425 18.8527 8.66303C18.8527 8.17774 18.686 8.15945 18.4457 8.20483C18.4457 8.20483 18.4526 8.02726 18.2051 7.98034C17.5622 7.9022 17.8578 7.13947 17.3374 7.13947C17.2172 7.13947 17.0605 7.21429 16.907 7.24219C16.9362 7.04259 17.0167 6.88086 17.0167 6.53067C17.0167 6.34872 16.9777 6.20431 16.9454 6.09188C17.1689 6.10952 17.4286 6.1647 17.637 6.22446C17.5453 6.27999 17.4728 6.36488 17.4728 6.50329C17.4728 6.77741 17.8452 6.97671 18.3583 6.97671C19.2633 6.97671 19.1131 6.42821 18.6919 6.45608C18.7372 6.41183 18.7733 6.35643 18.7733 6.2718C18.7733 5.88755 18.302 5.86985 17.5655 5.68074C15.463 5.07961 14.234 4.38744 13.1014 3.93008C13.4662 4.04524 13.9936 4.16537 14.6462 4.34487C16.2765 4.79298 17.0749 5.25672 17.1903 4.83655C17.2882 4.48103 16.2339 4.12964 14.891 3.76026C12.6677 3.14929 12.5729 3.37262 12.5404 3.4903C12.5064 3.6152 12.5836 3.71033 12.7562 3.79773C12.123 3.56828 11.4953 3.42406 10.7326 3.42406C8.02474 3.42406 8.29973 5.27968 6.84813 5.64594C5.42722 6.00636 5.30825 6.80111 5.30825 7.58416C5.30825 8.00604 5.44673 8.47295 5.61017 8.60362C6.19978 9.07543 6.36506 9.36574 6.53953 9.54047C6.64105 9.65415 6.83623 9.72884 6.9104 9.80336C7.09448 9.97719 7.17397 10.2903 7.48908 10.2903C7.68184 10.2903 7.82328 10.1234 7.93774 10.0372C7.93719 10.1508 8.01429 10.4523 8.55724 10.1842C8.55724 10.1842 8.99919 10.3246 9.31962 10.1568C9.31304 10.1832 9.30765 10.2105 9.30765 10.2413C9.30765 10.7594 9.70248 10.7883 9.92 10.7679C10.2024 10.7679 10.688 11.0476 10.9402 11.0476C11.1707 11.0476 11.3555 10.962 11.4507 10.8363C11.4903 11.0968 11.8503 11.3016 12.0925 11.3016C12.3336 11.3016 12.9204 11.0543 13.188 11.0543C13.4747 11.0543 13.7994 11.0224 13.7994 10.6781C13.7994 10.4663 13.6534 9.91008 13.3255 9.91008C13.224 9.91008 13.1357 9.96829 13.035 10.0474C13.0488 10.0146 13.0619 9.98125 13.0619 9.94288C13.0619 9.845 13.0048 9.78408 12.9399 9.73751C13.0321 9.68265 13.0631 9.60168 13.0631 9.52912C13.0631 9.30205 12.8059 9.22991 12.8059 9.02009C12.8059 8.93799 12.8532 8.78225 13.0315 8.78225C13.4981 8.78225 13.8492 9.18095 14.4001 9.18095C14.8326 9.18095 15.3473 8.95614 15.4952 8.95614C15.983 8.95614 16.0018 9.6574 16.7173 9.6574C17.2412 9.6574 17.3021 9.29179 17.3021 9.01706C17.3021 8.74181 17.1335 8.63339 16.911 8.65513C16.7387 8.54374 16.6012 8.5953 16.4553 8.54496C16.6769 8.44899 17.0432 8.33179 17.1409 8.32347C17.3837 8.32347 17.5623 9.2142 18.3414 9.2142C18.357 9.2142 18.3719 9.21333 18.3862 9.21259C17.0614 10.5167 14.8486 12.5645 12.0003 14.7246C7.24134 11.1153 4.25534 7.81942 4.22206 7.78249C4.15698 7.71425 4.08113 7.68739 4.01115 7.69142C5.54783 4.85351 8.5526 2.92174 12.0003 2.92174H12.0003ZM12.6319 3.51932C12.6299 3.44379 13.2258 3.40403 14.865 3.85465C16.0647 4.18456 17.1631 4.56655 17.0961 4.81023C17.0202 5.08703 16.2067 4.67253 14.6723 4.25054C13.2626 3.86271 12.6367 3.75149 12.6319 3.51932ZM2.92164 12C2.92164 10.6254 3.22959 9.32133 3.77873 8.15223C3.78602 8.38733 3.8561 8.75339 4.16685 9.07646C4.20136 9.11516 7.12186 12.3383 11.1103 15.3873C10.8757 15.5583 10.6401 15.728 10.4036 15.8964C10.3992 15.8666 10.3883 15.8364 10.3691 15.8051C10.2798 15.6638 10.0311 15.6088 9.80329 15.7521C9.45194 15.9739 9.44123 16.3069 9.50783 16.6887C9.49686 16.6897 9.48625 16.6908 9.47558 16.6922C9.38496 16.7081 9.31417 16.7664 9.26463 16.8507C9.26463 16.8507 9.1465 16.8376 9.0394 17.0064C9.0394 17.0064 8.91402 16.995 8.81382 17.1626C8.81382 17.1626 8.69514 17.1463 8.5884 17.3185C8.5884 17.3185 8.46479 17.3084 8.36288 17.4748C8.36288 17.4748 8.23872 17.4623 8.1372 17.6306C8.1372 17.6306 8.01613 17.6179 7.91148 17.7869C7.91148 17.7869 7.78884 17.7746 7.68606 17.9422C7.68606 17.9422 7.56822 17.9286 7.46083 18.0979C7.4558 18.0986 7.45025 18.0956 7.44522 18.0963C7.29168 18.1233 7.18936 18.2606 7.16675 18.4491C6.9629 18.2628 6.76067 18.1561 6.49919 18.3212C6.31575 18.4369 6.15599 18.7153 6.28396 19.0473C4.23387 17.3816 2.92164 14.8412 2.92164 12ZM12.0003 21.0783C10.069 21.0783 8.27703 20.4716 6.80407 19.4402C6.90788 19.4248 7.00173 19.3745 7.06813 19.3276C7.33245 19.5429 8.12936 20.3426 9.43959 19.5166C10.5081 18.8424 10.5092 17.8998 10.3864 17.1701C10.8907 16.8338 11.5522 16.3764 12.0003 16.0509C12.448 16.3764 13.1095 16.8337 13.6141 17.1701C13.4913 17.8998 13.4924 18.8424 14.5608 19.5166C15.8708 20.3426 16.6679 19.5429 16.9323 19.3276C16.9983 19.3745 17.0921 19.4248 17.1965 19.4402C15.7231 20.4716 13.9312 21.0783 12.0003 21.0783ZM17.7163 19.0473C17.8444 18.7147 17.6847 18.4369 17.5011 18.3212C17.2395 18.1561 17.037 18.2628 16.8333 18.4491C16.8109 18.2606 16.7084 18.1233 16.5551 18.0963C16.5497 18.0956 16.5448 18.0986 16.5395 18.0979C16.4319 17.9286 16.3143 17.9422 16.3143 17.9422C16.2114 17.7746 16.0883 17.7869 16.0883 17.7869C15.984 17.6179 15.863 17.6306 15.863 17.6306C15.7613 17.4623 15.6372 17.4748 15.6372 17.4748C15.5355 17.3084 15.4119 17.3185 15.4119 17.3185C15.3052 17.1463 15.1859 17.1626 15.1859 17.1626C15.0863 16.995 14.9608 17.0064 14.9608 17.0064C14.8538 16.8376 14.7356 16.8507 14.7356 16.8507C14.6861 16.7664 14.6153 16.7081 14.5248 16.6922C14.514 16.6908 14.5032 16.6896 14.4923 16.6887C14.5591 16.3069 14.5485 15.9739 14.1968 15.7521C13.9691 15.6088 13.7207 15.6638 13.6311 15.8051C13.6121 15.8364 13.6011 15.8667 13.5968 15.8964C13.3602 15.728 13.1246 15.5583 12.8899 15.3873C16.8782 12.3383 19.7989 9.1152 19.8339 9.07643C20.1441 8.75342 20.2137 8.38733 20.2217 8.15223C20.7708 9.32133 21.0784 10.6254 21.0784 12C21.0784 14.841 19.7662 17.381 17.7163 19.0473Z" fill="#A2AAAD"/>
<path d="M14.2354 17.5188C14.1782 18.04 14.2693 18.584 14.9699 19.0256C15.6334 19.4444 16.0585 19.2807 16.3875 19.0084C16.316 18.9918 16.2601 18.933 16.2282 18.8477C16.2282 18.8477 16.0812 18.903 16.0007 18.692C16.0007 18.692 15.8483 18.7403 15.7751 18.5361C15.7751 18.5361 15.6259 18.5856 15.5499 18.38C15.5499 18.38 15.4063 18.4332 15.3237 18.224C15.3237 18.224 15.1714 18.2735 15.0981 18.0679C15.0981 18.0679 14.9526 18.1172 14.8728 17.9119C14.8728 17.9119 14.7213 17.9611 14.6471 17.756C14.6471 17.756 14.5007 17.8074 14.4222 17.6015C14.4038 17.604 14.3858 17.6099 14.3677 17.6065C14.3142 17.5975 14.2692 17.5663 14.2354 17.5188ZM14.3191 17.6954C14.3297 17.6985 14.3404 17.701 14.3512 17.7035C14.3563 17.704 14.3615 17.701 14.3671 17.7019C14.4744 17.8715 14.592 17.8574 14.592 17.8574C14.6946 18.025 14.8175 18.0133 14.8175 18.0133C14.9225 18.1816 15.0433 18.1688 15.0433 18.1688C15.1447 18.3375 15.2685 18.3252 15.2685 18.3252C15.3711 18.4911 15.4945 18.4811 15.4945 18.4811C15.6013 18.6529 15.7202 18.637 15.7202 18.637C15.8204 18.8046 15.9456 18.7935 15.9456 18.7935C16.0525 18.9622 16.1706 18.9493 16.1706 18.9493C16.1849 18.9736 16.2015 18.9959 16.2198 19.0155C15.9253 19.2103 15.5565 19.2799 15.0217 18.9428C14.4374 18.574 14.3026 18.1354 14.3191 17.6954ZM9.03074 19.0256C9.73119 18.5841 9.82197 18.04 9.76525 17.5188C9.73155 17.5663 9.6864 17.5975 9.63293 17.6065C9.61487 17.6099 9.59658 17.604 9.57843 17.6015C9.49932 17.8074 9.3532 17.756 9.3532 17.756C9.27915 17.9611 9.12803 17.9119 9.12803 17.9119C9.04776 18.1172 8.90248 18.0679 8.90248 18.0679C8.82889 18.2735 8.67703 18.224 8.67703 18.224C8.59453 18.4332 8.45083 18.38 8.45083 18.38C8.37475 18.5856 8.2255 18.5361 8.2255 18.5361C8.1521 18.7403 7.99969 18.692 7.99969 18.692C7.91949 18.903 7.77246 18.8478 7.77246 18.8478C7.74041 18.933 7.68481 18.9918 7.61328 19.0084C7.94213 19.2807 8.36695 19.4444 9.03074 19.0256ZM7.8299 18.9493C7.8299 18.9493 7.94826 18.9622 8.05507 18.7935C8.05507 18.7935 8.17997 18.8046 8.28039 18.637C8.28039 18.637 8.39933 18.6529 8.5062 18.4811C8.5062 18.4811 8.62972 18.4911 8.73188 18.3252C8.73188 18.3252 8.85578 18.3375 8.95711 18.1688C8.95711 18.1688 9.07805 18.1816 9.18292 18.0133C9.18292 18.0133 9.30592 18.025 9.40873 17.8574C9.40873 17.8574 9.52618 17.8715 9.63351 17.7019C9.63896 17.701 9.64409 17.704 9.64931 17.7035C9.66041 17.701 9.67089 17.6985 9.68156 17.6954C9.69788 18.1354 9.56327 18.574 8.97878 18.9428C8.44428 19.2799 8.075 19.2103 7.78095 19.0155C7.79955 18.9952 7.81596 18.973 7.8299 18.9493ZM13.0764 12.4342C15.3057 11.6094 16.7509 10.8362 16.6138 10.4653C16.4747 10.0888 15.4386 10.6256 12.7279 11.6285C11.4223 12.1114 11.3461 12.2319 11.434 12.4698C11.504 12.6585 11.7405 12.9282 13.0764 12.4342ZM12.7618 11.7202C15.0935 10.8575 16.4325 10.2574 16.522 10.4995C16.6306 10.7931 14.7467 11.7121 13.0423 12.3424C11.7827 12.8087 11.5744 12.567 11.526 12.4357C11.4573 12.2505 11.6733 12.1229 12.7618 11.7201V11.7202Z" fill="#A2AAAD"/>
<path d="M20.0128 7.9379C19.998 7.83703 19.9233 7.91333 19.9233 7.91333C19.9233 7.91333 16.8982 11.2752 12.0002 14.97C7.10147 11.2752 4.07629 7.91336 4.07629 7.91336C4.07629 7.91336 4.00199 7.83706 3.98748 7.93794C3.98748 7.93794 3.87773 8.49356 4.31174 8.94579C4.31174 8.94579 7.31435 12.2783 11.4363 15.3903C11.0438 15.6802 10.6479 15.9655 10.2487 16.2462L10.3775 16.9385C10.9317 16.5729 11.4738 16.1936 12.0002 15.8094C12.5262 16.1936 13.068 16.5729 13.6225 16.9385L13.7512 16.2462C13.352 15.9655 12.9561 15.6802 12.5636 15.3903C16.6856 12.2783 19.688 8.94579 19.688 8.94579C20.1224 8.49356 20.0128 7.93794 20.0128 7.93794V7.9379Z" fill="white"/>
<path d="M5.73188 8.45083C6.34913 8.94389 6.53482 9.25964 6.67749 9.40196C6.7981 9.52283 6.91772 9.53418 7.04842 9.66483C7.24334 9.85987 7.30287 10.0944 7.48869 10.0944C7.67996 10.0944 7.88974 9.67785 8.30176 9.67785C8.5773 9.67785 8.13207 9.8628 8.13207 10.0423C8.13207 10.1959 8.46994 9.98584 8.54334 9.98584C8.66689 9.98584 9.14489 10.2004 9.42668 9.81975C9.29943 9.69262 8.92295 9.74474 8.92295 9.24729C8.92295 9.11017 9.03956 8.83715 9.33877 8.83715C9.57945 8.83715 9.76243 9.04935 9.68584 9.29009C9.66214 9.36575 9.79052 9.45491 9.79052 9.59359C9.79052 10.0113 9.50289 10.0582 9.50289 10.2413C9.50289 10.6097 9.76392 10.5815 9.90772 10.5727C10.2443 10.5727 10.7635 10.8521 10.9398 10.8521C11.1553 10.8521 11.3253 10.7586 11.3253 10.6524C11.3253 10.5458 11.0742 10.0732 10.934 10.0732C10.8547 10.0732 10.7688 10.2237 10.6473 10.2237C10.5124 10.2237 10.4351 10.1396 10.4839 10.0554C10.511 10.008 10.4333 9.93069 10.4333 9.80553C10.4333 9.65312 10.6436 9.32476 11.0518 9.32476C11.3912 9.32476 11.7447 9.61881 11.7447 10.0923C11.7447 10.4857 11.6378 10.713 11.6378 10.7904C11.6378 10.9362 11.9147 11.106 12.0921 11.106C12.2693 11.106 12.9311 10.8587 13.1442 10.8587C13.3573 10.8587 13.6033 10.8744 13.6033 10.6781C13.6033 10.4815 13.4681 10.1057 13.3251 10.1057C13.1826 10.1057 12.8551 10.5673 12.435 10.5673C12.3854 10.5673 12.3293 10.557 12.3293 10.4865C12.3293 10.4158 12.4415 10.2555 12.4998 10.2209C12.5579 10.1867 12.8661 10.0542 12.8661 9.94291C12.8661 9.87996 12.5843 9.80134 12.5843 9.67721C12.5843 9.54979 12.8669 9.65199 12.8669 9.52912C12.8669 9.41834 12.6101 9.31544 12.6101 9.0201C12.6101 8.80703 12.7563 8.58667 13.0311 8.58667C13.5649 8.58667 13.8987 8.98514 14.3997 8.98514C14.8239 8.98514 15.2908 8.76036 15.4948 8.76036C16.1157 8.76036 16.1001 9.46149 16.7168 9.46149C17.0039 9.46149 17.1059 9.35301 17.1059 9.01707C17.1059 8.83324 17.0167 8.85079 16.9094 8.85079C16.8015 8.85079 16.787 8.76907 16.6271 8.76907C16.3934 8.76907 16.1356 8.64804 16.1356 8.52946C16.1356 8.40697 17.0081 8.12805 17.1354 8.12805C17.5825 8.12805 17.6245 9.01829 18.341 9.01829C18.5223 9.01829 18.6567 8.9792 18.6567 8.66303C18.6567 8.34731 18.6062 8.37579 18.5484 8.38379C18.4909 8.39185 18.2012 8.47295 18.2012 8.38211C18.2012 8.29104 18.3382 8.20048 18.173 8.17333C17.4114 8.04717 17.6335 7.33529 17.337 7.33529C17.1954 7.33529 16.7036 7.602 16.7036 7.29543C16.7036 7.12622 16.8205 6.89538 16.8205 6.53067C16.8205 6.12772 16.5908 5.88904 16.8127 5.88904C17.2971 5.88904 18.1451 6.13575 18.1451 6.25388C18.1451 6.33882 17.6681 6.2898 17.6681 6.50329C17.6681 6.62894 17.9418 6.78122 18.3579 6.78122C18.7738 6.78122 18.9417 6.65277 18.7346 6.65277C18.5273 6.65277 18.2088 6.64687 18.2088 6.50329C18.2088 6.3592 18.5775 6.42302 18.5775 6.27181C18.5775 6.04851 18.2008 6.06528 17.5114 5.86882C14.0805 4.89302 12.8868 3.61988 10.7322 3.61988C8.08163 3.61988 8.50539 5.42697 6.89579 5.83531C5.62123 6.15877 5.50391 6.80886 5.50391 7.58419C5.50391 8.01979 5.65112 8.38617 5.73188 8.45083ZM6.94961 9.12313C6.80797 9.12313 6.84419 9.02422 6.84419 9.02422C7.02801 8.77468 6.93339 8.18242 7.16272 8.18242C7.29152 8.18242 7.10718 8.31422 7.10718 8.46718C7.10718 8.63984 7.36131 8.58915 7.36131 8.79113C7.36131 8.92006 7.15336 9.12313 6.94961 9.12313ZM7.49817 9.96526C7.49817 9.96526 7.39217 9.88928 7.39217 9.83336C7.39217 9.70752 7.60618 9.67063 7.60618 9.71017C7.60618 9.81724 7.49814 9.96526 7.49814 9.96526H7.49817ZM7.67009 7.67233C7.67009 7.76044 7.49037 7.97061 7.37717 7.97061C7.29129 7.97061 7.15291 7.6345 7.15291 7.60522C7.15291 7.57623 7.19303 7.52073 7.31912 7.52073C7.44554 7.52073 7.67009 7.58429 7.67009 7.67233ZM6.63792 6.33914C7.14659 6.33914 7.40997 6.63906 7.40997 6.96791C7.40997 7.29656 7.13343 7.53511 6.82819 7.53511C6.63328 7.53511 6.57481 7.37122 6.57481 7.28898C6.57481 7.17582 6.74315 7.07578 6.74315 6.9423C6.74315 6.77538 6.54005 6.66061 6.33752 6.66061C5.99313 6.66061 5.76074 6.95607 5.76074 6.81056C5.76074 6.63664 6.10897 6.33914 6.63792 6.33914ZM12.7952 11.8118C11.9236 12.1345 11.5681 12.2687 11.6172 12.4021C11.6443 12.4756 11.8236 12.6886 13.0077 12.251C14.1876 11.8143 16.5099 10.7502 16.4296 10.5334C16.39 10.426 14.7482 11.0893 12.7952 11.8118V11.8118ZM14.698 4.15631C16.1363 4.55169 16.965 4.91701 17.0016 4.78444C17.0378 4.65199 15.8941 4.2392 14.8388 3.94914C13.7833 3.65897 12.6872 3.51517 12.7224 3.54851C12.8334 3.65332 13.2592 3.76071 14.698 4.15631Z" fill="white"/>
<path d="M12.0005 1.93859C6.44346 1.93859 1.93896 6.44334 1.93896 12C1.93896 17.5572 6.44349 22.0613 12.0005 22.0613C17.557 22.0613 22.0615 17.5572 22.0615 12C22.0615 6.44334 17.557 1.93859 12.0005 1.93859ZM12.0005 21.3371C6.84377 21.3371 2.66335 17.1567 2.66335 12C2.66335 6.84349 6.84377 2.66323 12.0005 2.66323C17.1569 2.66323 21.3372 6.84349 21.3372 12C21.3372 17.1567 17.1569 21.3371 12.0005 21.3371Z" fill="#FFB81C"/>
<path d="M14.3843 17.5102C14.4211 17.5168 14.4579 17.4999 14.4915 17.4668C14.5203 17.7206 14.6657 17.6845 14.7173 17.6231C14.7462 17.8766 14.8912 17.8403 14.9429 17.7787C14.9716 18.0325 15.117 17.9962 15.1683 17.935C15.197 18.1885 15.3421 18.1524 15.394 18.0911C15.4228 18.3448 15.5681 18.3083 15.6197 18.2469C15.6485 18.5002 15.7937 18.4645 15.8456 18.4029C15.8742 18.6567 16.0191 18.6206 16.0711 18.559C16.0996 18.8126 16.2447 18.7763 16.2967 18.7147C16.3057 18.8227 16.3496 18.9032 16.4145 18.9145C16.5054 18.93 16.6038 18.803 16.6336 18.6304C16.6631 18.4579 16.6136 18.3053 16.5219 18.2896C16.4858 18.2833 16.4486 18.2996 16.4145 18.3328C16.3859 18.079 16.2408 18.1155 16.1888 18.1767C16.1604 17.9232 16.0155 17.9593 15.9632 18.0209C15.9349 17.7671 15.7898 17.8034 15.7379 17.8648C15.7089 17.6111 15.5638 17.6474 15.5124 17.709C15.4836 17.4552 15.3382 17.4913 15.2865 17.5529C15.2579 17.299 15.113 17.3351 15.0607 17.3966C15.0325 17.1433 14.8875 17.1792 14.8354 17.241C14.8067 16.9869 14.6614 17.0232 14.61 17.0848C14.6006 16.977 14.5566 16.8964 14.492 16.885C14.4009 16.8696 14.3026 16.9968 14.2732 17.1693C14.2431 17.3421 14.2932 17.4945 14.3843 17.5102ZM7.58614 18.9146C7.65086 18.9032 7.69472 18.8228 7.70395 18.7147C7.75571 18.7763 7.90099 18.8126 7.92937 18.559C7.98152 18.6206 8.12657 18.6567 8.15499 18.4029C8.20684 18.4645 8.35203 18.5002 8.38089 18.2469C8.43265 18.3083 8.57784 18.3448 8.60648 18.0911C8.65824 18.1524 8.80365 18.1885 8.8319 17.9351C8.88392 17.9962 9.02885 18.0325 9.05761 17.7787C9.10931 17.8403 9.25424 17.8766 9.2832 17.6231C9.33476 17.6845 9.48011 17.7206 9.50888 17.4668C9.54284 17.4999 9.57976 17.5168 9.61646 17.5102C9.70731 17.4945 9.75739 17.3421 9.72763 17.1693C9.69786 16.9968 9.59953 16.8696 9.50875 16.885C9.44393 16.8964 9.39997 16.9771 9.39065 17.0848C9.33905 17.0232 9.19371 16.9869 9.16507 17.241C9.11315 17.1792 8.96819 17.1434 8.93952 17.3967C8.88759 17.3351 8.74231 17.299 8.7138 17.5529C8.66224 17.4913 8.51708 17.4552 8.48812 17.709C8.43665 17.6474 8.29137 17.6111 8.26257 17.8648C8.21084 17.8035 8.06591 17.7671 8.03715 18.0209C7.98516 17.9593 7.8401 17.9232 7.81159 18.1768C7.75971 18.1156 7.61478 18.079 7.58579 18.3328C7.55218 18.2997 7.51471 18.2833 7.47839 18.2896C7.38716 18.3053 7.33724 18.4579 7.36701 18.6304C7.39668 18.803 7.49481 18.93 7.58614 18.9146Z" fill="#FFB81C"/>
<path d="M17.3973 18.4866C16.8293 18.1288 16.446 20.0722 14.9174 19.1083C13.2312 18.0449 14.8852 16.4177 14.0926 15.9173C13.9568 15.8321 13.8254 15.8651 13.7969 15.9096C13.7677 15.9559 13.8546 16.0136 13.9235 16.1C14.2178 16.4712 12.9673 18.2803 14.665 19.3511C16.117 20.2667 16.8245 19.0208 16.9439 19.0963C17.0413 19.1572 17.2779 19.4055 17.4757 19.0927C17.6521 18.8123 17.5339 18.5729 17.3973 18.4866L17.3973 18.4866ZM10.077 16.1C10.1459 16.0136 10.233 15.9559 10.2038 15.9096C10.1753 15.8651 10.0438 15.8321 9.90788 15.9173C9.11539 16.4177 10.7693 18.0449 9.08304 19.1083C7.55432 20.0722 7.17107 18.1288 6.60326 18.4866C6.46675 18.5729 6.34839 18.8123 6.52502 19.0927C6.72229 19.4055 6.9591 19.1572 7.05649 19.0962C7.17597 19.0208 7.88336 20.2667 9.33497 19.3511C11.0333 18.2803 9.78272 16.4712 10.077 16.1Z" fill="#FFB81C"/>
<path d="M7.11355 8.73272C7.07872 8.73272 7.04541 8.79032 7.04541 8.81131C7.04541 8.83324 7.10004 8.90832 7.14055 8.90832C7.16377 8.90832 7.19331 8.89822 7.19331 8.87665C7.19331 8.79338 7.19085 8.73272 7.11355 8.73272Z" fill="#C8102E"/>
</svg>
