<svg width="40" height="40" viewBox="0 0 40 40" fill="none" xmlns="http://www.w3.org/2000/svg">
<path d="M29.7602 32.3181C29.3678 32.3181 29.0493 32.6361 29.0493 33.0287C29.0493 33.4209 29.3678 33.7394 29.7602 33.7394C30.1525 33.7394 30.4705 33.4209 30.4705 33.0288C30.4705 32.6361 30.1525 32.3181 29.7602 32.3181ZM29.7602 33.5869C29.6868 33.587 29.6142 33.5726 29.5465 33.5446C29.4787 33.5165 29.4172 33.4754 29.3653 33.4236C29.3135 33.3718 29.2724 33.3102 29.2444 33.2424C29.2163 33.1747 29.2019 33.1021 29.202 33.0288C29.202 32.7204 29.4514 32.471 29.7602 32.471C30.0686 32.471 30.3182 32.7204 30.3182 33.0288C30.3182 33.3373 30.0686 33.5869 29.7602 33.5869ZM30.0522 32.8641C30.0522 32.8324 30.0459 32.8011 30.0338 32.7719C30.0216 32.7426 30.0039 32.7161 29.9815 32.6937C29.9591 32.6714 29.9325 32.6536 29.9033 32.6416C29.874 32.6295 29.8427 32.6233 29.811 32.6233H29.4686V33.4344H29.6208V33.105H29.7301L29.8839 33.4344H30.0522L29.8916 33.091C29.9385 33.0743 29.9791 33.0436 30.0078 33.0029C30.0366 32.9623 30.0521 32.9138 30.0522 32.8641ZM29.811 32.9527H29.6208V32.7752H29.811C29.8599 32.7752 29.9 32.815 29.9 32.8641C29.8999 32.8876 29.8905 32.9101 29.8738 32.9268C29.8572 32.9434 29.8346 32.9527 29.811 32.9527Z" fill="#041E42"/>
<path d="M20.0001 4.84027C11.6406 4.84027 4.83984 11.6407 4.83984 20C4.83984 28.3591 11.6406 35.1597 20.0001 35.1597C28.3592 35.1597 35.1599 28.3591 35.1599 20C35.1599 11.6407 28.3592 4.84027 20.0001 4.84027Z" fill="#A2AAAD"/>
<path d="M20.0004 5.02991C11.7456 5.02991 5.03003 11.7454 5.03003 20C5.03003 28.2546 11.7456 34.9699 20.0004 34.9699C28.2547 34.9699 34.9701 28.2546 34.9701 20C34.9701 11.7454 28.2547 5.02991 20.0003 5.02991H20.0004Z" fill="#041E42"/>
<path d="M20.0001 6.47424C12.5419 6.47424 6.47388 12.5419 6.47388 20C6.47388 27.4584 12.5419 33.5259 20.0001 33.5259C27.4583 33.5259 33.5258 27.4584 33.5258 20C33.5258 12.5419 27.4582 6.47424 20.0001 6.47424ZM23.6843 27.0352C23.7973 27.0543 23.8849 27.1434 23.934 27.2742C23.934 27.2742 24.1498 27.1934 24.268 27.5037C24.268 27.5037 24.4915 27.4321 24.5996 27.7323C24.5996 27.7323 24.819 27.66 24.9308 27.9617C24.9308 27.9617 25.1417 27.8832 25.2625 28.1908C25.2625 28.1908 25.486 28.1188 25.5936 28.4202C25.5936 28.4202 25.8074 28.348 25.9252 28.649C25.9252 28.649 26.1473 28.577 26.2566 28.878C26.2566 28.878 26.471 28.8023 26.5868 29.1049C26.6135 29.1019 26.6402 29.0929 26.6663 29.0979C26.8857 29.1353 27.0071 29.4217 26.9478 29.7647C26.9447 29.7824 26.941 29.8005 26.9365 29.8177C27.2941 29.4477 27.6027 29.1537 28.0043 29.4069C28.3481 29.6245 28.4152 30.0981 28.1641 30.4955C27.8453 31.0018 27.4349 30.7387 27.238 30.5829C26.8296 30.8929 25.777 32.143 23.838 30.9202C21.2972 29.3175 23.0437 26.5326 22.7123 26.1122C22.6251 26.0021 22.4045 25.8466 22.5177 25.6664C22.6098 25.5203 22.8922 25.4711 23.1506 25.6334C23.6415 25.9437 23.5935 26.468 23.4712 27.0826C23.5375 27.0403 23.6102 27.0219 23.6843 27.0352ZM22.731 26.1723L22.4853 27.4958C21.6993 26.9773 20.7488 26.3191 20.0001 25.7728C19.251 26.3191 18.3005 26.9773 17.5145 27.4958L17.2688 26.1723C17.8109 25.7912 18.416 25.3577 18.9328 24.978C13.0074 20.4736 8.65029 15.6662 8.59913 15.6097C7.91737 14.8992 8.08057 14.0414 8.08673 14.012C8.10876 13.8263 8.30683 13.7324 8.46714 13.9007C8.51632 13.9552 12.9466 18.8456 20.0001 24.1827C27.0533 18.8457 31.4834 13.9551 31.5329 13.9007C31.693 13.7324 31.8909 13.8263 31.9129 14.012C31.9194 14.0414 32.0823 14.8992 31.4005 15.6097C31.3498 15.6662 26.9924 20.4736 21.0668 24.978C21.5841 25.3577 22.1889 25.7912 22.731 26.1723ZM11.8358 30.4955C11.5845 30.0981 11.6514 29.6245 11.9953 29.4069C12.3969 29.1537 12.7055 29.4477 13.0631 29.8177C13.0588 29.8001 13.0551 29.7824 13.052 29.7646C12.9929 29.4217 13.1137 29.1353 13.3329 29.0979C13.3595 29.0929 13.3861 29.1019 13.4131 29.1049C13.5286 28.8023 13.7433 28.878 13.7433 28.878C13.8521 28.577 14.0746 28.649 14.0746 28.649C14.1929 28.348 14.406 28.4202 14.406 28.4202C14.5136 28.1189 14.7375 28.1909 14.7375 28.1909C14.8582 27.8832 15.0691 27.9617 15.0691 27.9617C15.1809 27.66 15.4004 27.7324 15.4004 27.7324C15.5083 27.432 15.7315 27.5037 15.7315 27.5037C15.8502 27.1934 16.0654 27.2742 16.0654 27.2742C16.1152 27.1434 16.2022 27.0544 16.3153 27.0352C16.3891 27.0219 16.4623 27.0403 16.5283 27.0826C16.4058 26.468 16.358 25.9436 16.8492 25.6334C17.1074 25.4711 17.3899 25.5203 17.4822 25.6664C17.5954 25.8465 17.3747 26.0021 17.2877 26.1122C16.9559 26.5326 18.7027 29.3175 16.1614 30.9202C14.2227 32.143 13.1701 30.8929 12.7615 30.5829C12.565 30.7387 12.1538 31.0017 11.8358 30.4955ZM21.4176 16.3703C21.4176 16.5464 21.2873 16.6019 21.0415 16.6253C21.1743 16.7368 21.4165 16.8007 21.4165 16.9781C21.4165 17.1825 21.1695 17.332 20.8081 17.5103C20.7638 17.538 20.6666 17.6772 20.6391 17.7515C21.2049 17.7515 21.648 17.0734 21.9469 17.0734C22.2903 17.0734 22.499 17.7576 22.499 18.0582C22.499 18.394 22.2171 18.4674 21.7458 18.4674C21.3016 18.4674 20.4679 18.8298 20.1356 18.8298C19.8301 18.8298 19.3247 18.5463 19.3247 18.2231C19.3247 18.0958 19.4812 17.7357 19.4812 17.1975C19.4812 16.5901 19.0281 16.214 18.6074 16.214C18.0811 16.214 17.8422 16.6452 17.8422 16.7764C17.8422 16.958 17.9919 17.0552 17.8939 17.2116C17.8991 17.221 17.9375 17.2472 18.0131 17.2472C18.1172 17.2472 18.2544 17.0259 18.4343 17.0259C18.7601 17.0259 19.1528 17.826 19.1528 18.0204C19.1528 18.2694 18.8478 18.457 18.4429 18.457C18.124 18.457 17.3763 18.0465 16.936 18.0465C16.6612 18.0719 16.1886 18.0571 16.1886 17.4164C16.1886 17.0626 16.6109 17.0254 16.6109 16.465C16.6109 16.3134 16.4041 16.1727 16.4638 15.9757C16.5589 15.6624 16.2929 15.4977 16.0909 15.4977C15.7341 15.4977 15.6235 15.834 15.6235 15.9562C15.6235 16.5841 16.0405 16.4355 16.3218 16.6957C16.372 16.746 16.3808 16.8277 16.3356 16.8827C16.1028 17.1671 15.7964 17.4086 14.9319 17.1842C14.5455 17.3677 14.1743 17.4496 14.1743 17.1241C14.1743 16.9811 14.2722 16.8617 14.3774 16.7605C13.9334 16.8827 13.7005 17.3447 13.3732 17.3447C13.0039 17.3447 12.8943 16.941 12.6245 16.6712C12.4951 16.5417 12.187 16.4069 12.0798 16.2854C11.4872 15.5563 11.1675 15.2948 10.7028 14.8984C10.5189 14.7515 10.3135 14.1281 10.3135 13.5132C10.3135 12.3742 10.4781 11.3095 12.4667 10.8053C14.7147 10.2347 14.2082 7.54613 18.1378 7.54613C21.3722 7.54613 23.4153 9.55802 28.1357 10.8551C29.1917 11.145 29.8057 11.1229 29.8057 11.5853C29.8057 11.8601 29.4745 11.8683 29.2912 11.9364C29.3468 11.9665 29.4932 12.0013 29.8933 12.0013C30.2789 12.0013 30.3944 12.4772 29.34 12.4772C28.6915 12.4772 28.1828 12.2344 28.1828 11.9253C28.1828 11.6331 28.5024 11.5567 28.723 11.5161C28.3778 11.3696 27.6133 11.169 27.0775 11.1672C27.0775 11.1672 27.2258 11.5923 27.2258 11.9656C27.2258 12.5289 27.0533 12.8708 27.0533 13.089C27.0533 13.2961 27.6278 13.0037 27.8403 13.0037C28.4554 13.0037 28.0395 14.0745 29.0914 14.2365C29.3442 14.2874 29.3759 14.4327 29.2906 14.5992C29.2906 14.5992 29.4443 14.5795 29.6125 14.5433C29.8362 14.5089 29.9227 14.6479 29.9227 15.098C29.9227 15.6846 29.6159 15.7636 29.3151 15.7636C28.1924 15.7636 28.0718 14.4556 27.5445 14.4556C27.3743 14.4556 26.4423 14.7698 26.2421 14.9229C26.3027 14.9933 26.529 15.1099 26.7975 15.1099C27.0333 15.1099 27.1348 15.2301 27.2121 15.2301C27.418 15.2301 27.6442 15.2406 27.6442 15.6181C27.6442 16.1839 27.437 16.4148 26.9293 16.4148C25.9397 16.4148 25.9497 15.3848 25.1341 15.3848C24.8726 15.3848 24.1712 15.7148 23.5254 15.7148C22.7556 15.7148 22.2477 15.1295 21.5149 15.1295C21.203 15.1295 21.04 15.3773 21.04 15.6225C21.04 16.0066 21.4176 16.1169 21.4176 16.3702V16.3703ZM19.259 17.8501C19.1539 17.5104 18.819 16.8823 18.4344 16.8823C18.2351 16.8823 18.0613 17.06 18.0613 17.06C18.0533 16.951 17.986 16.8534 17.986 16.7763C17.9909 16.7035 18.168 16.3577 18.6074 16.3577C18.9588 16.3577 19.3381 16.6786 19.3381 17.1975C19.3381 17.4768 19.2979 17.6899 19.259 17.8501ZM16.4503 16.6345C16.1951 16.2919 15.7674 16.517 15.7674 15.9563C15.7674 15.8781 15.8423 15.6416 16.0909 15.6416C16.2169 15.6416 16.3398 15.7216 16.3398 15.8571C16.3398 15.908 16.309 15.9686 16.309 16.0433C16.309 16.3017 16.5411 16.3997 16.4503 16.6345ZM20.0001 6.66407C25.064 6.66407 29.4785 9.50183 31.7359 13.6707C31.6328 13.6648 31.5213 13.7042 31.4257 13.8045C31.41 13.8224 30.935 14.3469 30.0605 15.2289C30.0636 15.187 30.0662 15.1439 30.0662 15.098C30.0662 14.3851 29.8214 14.3582 29.4683 14.4249C29.4683 14.4249 29.4785 14.1641 29.1149 14.0951C28.1706 13.9803 28.6047 12.8599 27.8403 12.8599C27.6637 12.8599 27.4335 12.9698 27.208 13.0108C27.251 12.7176 27.3692 12.48 27.3692 11.9656C27.3692 11.6983 27.3119 11.4861 27.2645 11.321C27.5927 11.3469 27.9743 11.428 28.2805 11.5158C28.1457 11.5973 28.0392 11.722 28.0392 11.9253C28.0392 12.328 28.5862 12.6208 29.34 12.6208C30.6695 12.6208 30.4487 11.8151 29.8301 11.856C29.8967 11.791 29.9497 11.7096 29.9497 11.5853C29.9497 11.0208 29.2573 10.9948 28.1754 10.717C25.0868 9.83397 23.2814 8.81718 21.6176 8.14532C22.1535 8.31449 22.9283 8.49096 23.887 8.75464C26.2819 9.41291 27.4547 10.0941 27.6243 9.47691C27.768 8.95466 26.2193 8.43847 24.2466 7.89585C20.9806 6.99834 20.8413 7.32641 20.7935 7.49928C20.7436 7.68276 20.857 7.82251 21.1105 7.9509C20.1804 7.61383 19.2583 7.40197 18.1378 7.40197C14.16 7.40197 14.564 10.1279 12.4316 10.6659C10.3443 11.1954 10.1695 12.3628 10.1695 13.5131C10.1695 14.1329 10.373 14.8188 10.6131 15.0107C11.4792 15.7038 11.722 16.1303 11.9783 16.387C12.1274 16.5539 12.4141 16.6637 12.5231 16.7731C12.7935 17.0285 12.9103 17.4885 13.3732 17.4885C13.6563 17.4885 13.8641 17.2433 14.0322 17.1166C14.0314 17.2836 14.1447 17.7265 14.9423 17.3326C14.9423 17.3326 15.5915 17.5389 16.0622 17.2924C16.0526 17.3312 16.0446 17.3712 16.0446 17.4164C16.0446 18.1776 16.6246 18.22 16.9442 18.1901C17.359 18.1901 18.0723 18.6009 18.4429 18.6009C18.7814 18.6009 19.0529 18.4752 19.1927 18.2906C19.251 18.6731 19.7798 18.974 20.1356 18.974C20.4897 18.974 21.3517 18.6108 21.7449 18.6108C22.1659 18.6108 22.643 18.5639 22.643 18.0582C22.643 17.747 22.4285 16.9299 21.9469 16.9299C21.7977 16.9299 21.668 17.0154 21.5201 17.1316C21.5404 17.0834 21.5596 17.0345 21.5596 16.9781C21.5596 16.8343 21.4758 16.7448 21.3804 16.6764C21.5159 16.5958 21.5614 16.4769 21.5614 16.3703C21.5614 16.0367 21.1835 15.9307 21.1835 15.6225C21.1835 15.5019 21.2531 15.2731 21.5149 15.2731C22.2004 15.2731 22.7162 15.8588 23.5254 15.8588C24.1607 15.8588 24.9169 15.5286 25.1341 15.5286C25.8508 15.5286 25.8783 16.5587 26.9293 16.5587C27.699 16.5587 27.7885 16.0216 27.7885 15.6181C27.7885 15.2137 27.5408 15.0545 27.2139 15.0864C26.9608 14.9228 26.7588 14.9985 26.5446 14.9246C26.87 14.7836 27.4082 14.6114 27.5516 14.5992C27.9083 14.5992 28.1707 15.9077 29.3151 15.9077C29.3381 15.9077 29.36 15.9064 29.3809 15.9053C27.4349 17.821 24.1843 20.8292 20.0001 24.0025C13.0092 18.7004 8.62282 13.8587 8.57393 13.8045C8.47832 13.7042 8.3669 13.6648 8.2641 13.6707C10.5215 9.50183 14.9355 6.66407 20.0001 6.66407H20.0001ZM20.9279 7.54191C20.925 7.43096 21.8003 7.37255 24.2084 8.03451C25.9708 8.51915 27.5842 9.08029 27.4858 9.43825C27.3743 9.84487 26.1793 9.23597 23.9252 8.61608C21.8544 8.04635 20.935 7.88296 20.9279 7.54191ZM6.66361 20C6.66361 17.9807 7.11599 16.065 7.92267 14.3476C7.93338 14.693 8.03632 15.2307 8.49282 15.7053C8.54351 15.7622 12.8337 20.4969 18.6927 24.9759C18.348 25.2272 18.002 25.4765 17.6545 25.7238C17.6482 25.6801 17.6321 25.6357 17.6039 25.5897C17.4727 25.3821 17.1074 25.3013 16.7727 25.5119C16.2566 25.8376 16.2409 26.3268 16.3387 26.8877C16.3226 26.8891 16.307 26.8907 16.2913 26.8928C16.1582 26.9162 16.0542 27.0018 15.9814 27.1257C15.9814 27.1257 15.8079 27.1063 15.6506 27.3543C15.6506 27.3543 15.4664 27.3376 15.3192 27.5838C15.3192 27.5838 15.1449 27.5599 14.9881 27.8128C14.9881 27.8128 14.8065 27.7981 14.6568 28.0425C14.6568 28.0425 14.4744 28.024 14.3252 28.2713C14.3252 28.2713 14.1474 28.2527 13.9937 28.501C13.9937 28.501 13.8135 28.4829 13.6625 28.7291C13.6625 28.7291 13.4894 28.7091 13.3317 28.9577C13.3243 28.9588 13.3161 28.9544 13.3087 28.9555C13.0832 28.9951 12.9329 29.1967 12.8997 29.4736C12.6002 29.2 12.3031 29.0432 11.919 29.2857C11.6496 29.4557 11.4149 29.8647 11.6028 30.3524C8.59126 27.9055 6.66361 24.1737 6.66361 20ZM20.0001 33.336C17.163 33.336 14.5307 32.4447 12.3669 30.9296C12.5194 30.9069 12.6572 30.8332 12.7548 30.7642C13.1431 31.0804 14.3137 32.2553 16.2384 31.0418C17.8081 30.0514 17.8097 28.6668 17.6293 27.5949C18.3702 27.1008 19.3419 26.4288 20.0001 25.9507C20.6577 26.4288 21.6295 27.1007 22.3707 27.5949C22.1904 28.6668 22.192 30.0514 23.7614 31.0418C25.6859 32.2553 26.8568 31.0804 27.2452 30.7642C27.3421 30.8332 27.4799 30.9069 27.6333 30.9296C25.469 32.4447 22.8367 33.336 20.0001 33.336ZM28.3968 30.3524C28.5851 29.8639 28.3505 29.4557 28.0808 29.2857C27.6965 29.0432 27.399 29.2 27.0998 29.4736C27.0668 29.1967 26.9163 28.9952 26.6912 28.9555C26.6832 28.9544 26.6759 28.9588 26.6682 28.9577C26.5101 28.7091 26.3373 28.7291 26.3373 28.7291C26.1862 28.4829 26.0054 28.501 26.0054 28.501C25.8522 28.2527 25.6744 28.2713 25.6744 28.2713C25.5251 28.024 25.3427 28.0425 25.3427 28.0425C25.1933 27.798 25.0118 27.8128 25.0118 27.8128C24.855 27.5599 24.6798 27.5838 24.6798 27.5838C24.5334 27.3376 24.3491 27.3543 24.3491 27.3543C24.1919 27.1063 24.0182 27.1257 24.0182 27.1257C23.9456 27.0018 23.8415 26.9162 23.7085 26.8928C23.6927 26.8908 23.6768 26.8891 23.6609 26.8877C23.759 26.3268 23.7434 25.8376 23.2268 25.5119C22.8923 25.3013 22.5274 25.3821 22.3957 25.5897C22.3678 25.6356 22.3517 25.6801 22.3453 25.7238C21.9978 25.4765 21.6517 25.2272 21.307 24.9759C27.1657 20.4969 31.4563 15.7622 31.5077 15.7053C31.9633 15.2308 32.0656 14.693 32.0773 14.3476C32.8839 16.065 33.3359 17.9807 33.3359 20C33.3359 24.1734 31.4082 27.9046 28.3968 30.3524Z" fill="#A2AAAD"/>
<path d="M23.283 28.1071C23.1991 28.8727 23.3328 29.6719 24.362 30.3206C25.3367 30.9357 25.9612 30.6953 26.4444 30.2953C26.3394 30.2709 26.2573 30.1845 26.2104 30.0593C26.2104 30.0593 25.9945 30.1404 25.8763 29.8304C25.8763 29.8304 25.6524 29.9014 25.5449 29.6015C25.5449 29.6015 25.3257 29.6742 25.214 29.3721C25.214 29.3721 25.0031 29.4503 24.8818 29.1429C24.8818 29.1429 24.658 29.2157 24.5503 28.9137C24.5503 28.9137 24.3366 28.9861 24.2193 28.6845C24.2193 28.6845 23.9968 28.7568 23.8878 28.4555C23.8878 28.4555 23.6728 28.531 23.5575 28.2286C23.5305 28.2323 23.5039 28.2409 23.4775 28.236C23.3988 28.2227 23.3327 28.1768 23.283 28.1071ZM23.406 28.3664C23.4215 28.371 23.4372 28.3747 23.4532 28.3784C23.4606 28.3791 23.4682 28.3747 23.4766 28.3761C23.6341 28.6251 23.8069 28.6044 23.8069 28.6044C23.9576 28.8506 24.1381 28.8335 24.1381 28.8335C24.2923 29.0806 24.4698 29.0619 24.4698 29.0619C24.6188 29.3098 24.8007 29.2917 24.8007 29.2917C24.9514 29.5354 25.1326 29.5207 25.1326 29.5207C25.2896 29.7731 25.4641 29.7497 25.4641 29.7497C25.6115 29.9959 25.7953 29.9796 25.7953 29.9796C25.9524 30.2275 26.1259 30.2085 26.1259 30.2085C26.1469 30.2442 26.1713 30.2768 26.1982 30.3057C25.7655 30.5919 25.2237 30.6941 24.4382 30.1989C23.5798 29.6571 23.3818 29.0129 23.406 28.3664ZM15.6374 30.3206C16.6664 29.6719 16.7997 28.8727 16.7164 28.1071C16.6669 28.1768 16.6006 28.2227 16.522 28.236C16.4955 28.2409 16.4686 28.2323 16.442 28.2286C16.3258 28.531 16.1111 28.4555 16.1111 28.4555C16.0023 28.7568 15.7803 28.6845 15.7803 28.6845C15.6624 28.9862 15.449 28.9137 15.449 28.9137C15.3409 29.2157 15.1178 29.1429 15.1178 29.1429C14.9966 29.4503 14.7855 29.3721 14.7855 29.3721C14.6738 29.6742 14.4545 29.6014 14.4545 29.6014C14.3467 29.9014 14.1228 29.8305 14.1228 29.8305C14.005 30.1404 13.789 30.0593 13.789 30.0593C13.7419 30.1845 13.6603 30.2709 13.5552 30.2953C14.0382 30.6953 14.6623 30.9357 15.6374 30.3206ZM13.8734 30.2085C13.8734 30.2085 14.0473 30.2275 14.2042 29.9796C14.2042 29.9796 14.3876 29.9959 14.5352 29.7497C14.5352 29.7497 14.7099 29.7731 14.8669 29.5207C14.8669 29.5207 15.0483 29.5354 15.1984 29.2917C15.1984 29.2917 15.3804 29.3098 15.5293 29.0618C15.5293 29.0618 15.7069 29.0806 15.861 28.8335C15.861 28.8335 16.0417 28.8506 16.1927 28.6044C16.1927 28.6044 16.3652 28.6251 16.5229 28.3761C16.5309 28.3747 16.5384 28.3791 16.5461 28.3784C16.5624 28.3747 16.5778 28.371 16.5935 28.3665C16.6174 29.0129 16.4197 29.6571 15.5611 30.1989C14.7759 30.6941 14.2334 30.5919 13.8015 30.3057C13.8288 30.2759 13.8529 30.2434 13.8734 30.2085ZM21.5804 20.6378C24.8553 19.4262 26.9784 18.2904 26.777 17.7456C26.5725 17.1925 25.0505 17.981 21.0685 19.4542C19.1505 20.1637 19.0387 20.3406 19.1678 20.6901C19.2706 20.9674 19.618 21.3635 21.5804 20.6378ZM21.1184 19.5889C24.5436 18.3217 26.5106 17.4401 26.642 17.7958C26.8017 18.227 24.0342 19.5771 21.5303 20.5029C19.6801 21.1879 19.3741 20.8329 19.3029 20.64C19.2021 20.368 19.5194 20.1805 21.1184 19.5889V19.5889Z" fill="#A2AAAD"/>
<path d="M31.7707 14.0327C31.749 13.8846 31.6393 13.9967 31.6393 13.9967C31.6393 13.9967 27.1955 18.9353 20.0002 24.3628C12.8041 18.9353 8.36008 13.9967 8.36008 13.9967C8.36008 13.9967 8.25093 13.8846 8.22961 14.0328C8.22961 14.0328 8.0684 14.849 8.70596 15.5133C8.70596 15.5133 13.1168 20.4088 19.172 24.9803C18.5953 25.4061 18.0137 25.8253 17.4273 26.2376L17.6165 27.2545C18.4306 26.7176 19.227 26.1603 20.0002 25.596C20.7729 26.1603 21.5688 26.7176 22.3834 27.2545L22.5724 26.2376C21.9861 25.8253 21.4045 25.4062 20.828 24.9803C26.8831 20.4088 31.2936 15.5133 31.2936 15.5133C31.9317 14.849 31.7707 14.0328 31.7707 14.0328V14.0327Z" fill="white"/>
<path d="M10.7924 14.7863C11.6991 15.5106 11.9719 15.9744 12.1815 16.1835C12.3587 16.361 12.5344 16.3777 12.7264 16.5696C13.0127 16.8561 13.1002 17.2006 13.3732 17.2006C13.6541 17.2006 13.9623 16.5888 14.5676 16.5888C14.9723 16.5888 14.3183 16.8604 14.3183 17.1241C14.3183 17.3498 14.8146 17.0412 14.9224 17.0412C15.1039 17.0412 15.8061 17.3564 16.2201 16.7972C16.0331 16.6104 15.4801 16.687 15.4801 15.9563C15.4801 15.7548 15.6514 15.3538 16.0909 15.3538C16.4445 15.3538 16.7133 15.6655 16.6008 16.0191C16.5659 16.1303 16.7545 16.2613 16.7545 16.465C16.7545 17.0786 16.332 17.1475 16.332 17.4164C16.332 17.9577 16.7155 17.9162 16.9267 17.9032C17.4212 17.9032 18.1838 18.3137 18.4429 18.3137C18.7594 18.3137 19.0092 18.1764 19.0092 18.0204C19.0092 17.8638 18.6402 17.1696 18.4343 17.1696C18.3177 17.1696 18.1916 17.3907 18.0131 17.3907C17.815 17.3907 17.7014 17.267 17.7731 17.1434C17.813 17.0737 17.6987 16.9602 17.6987 16.7763C17.6987 16.5524 18.0077 16.0701 18.6074 16.0701C19.106 16.0701 19.6252 16.502 19.6252 17.1976C19.6252 17.7754 19.4682 18.1093 19.4682 18.2231C19.4682 18.4372 19.875 18.6866 20.1356 18.6866C20.3959 18.6866 21.368 18.3234 21.681 18.3234C21.9941 18.3234 22.3555 18.3465 22.3555 18.0581C22.3555 17.7693 22.1569 17.2172 21.9469 17.2172C21.7375 17.2172 21.2564 17.8953 20.6392 17.8953C20.5665 17.8953 20.484 17.8803 20.484 17.7767C20.484 17.6727 20.6489 17.4374 20.7345 17.3865C20.8198 17.3363 21.2726 17.1416 21.2726 16.9781C21.2726 16.8856 20.8587 16.7701 20.8587 16.5878C20.8587 16.4006 21.2737 16.5508 21.2737 16.3703C21.2737 16.2075 20.8965 16.0564 20.8965 15.6225C20.8965 15.3095 21.1113 14.9858 21.5149 14.9858C22.299 14.9858 22.7894 15.5712 23.5254 15.5712C24.1485 15.5712 24.8344 15.241 25.1341 15.241C26.0462 15.241 26.0233 16.2709 26.9293 16.2709C27.3509 16.2709 27.5008 16.1116 27.5008 15.6181C27.5008 15.348 27.3698 15.3738 27.2121 15.3738C27.0536 15.3738 27.0323 15.2537 26.7975 15.2537C26.4541 15.2537 26.0755 15.076 26.0755 14.9018C26.0755 14.7218 27.3572 14.3121 27.5441 14.3121C28.2009 14.3121 28.2626 15.6199 29.3151 15.6199C29.5814 15.6199 29.779 15.5624 29.779 15.098C29.779 14.6342 29.7048 14.676 29.6198 14.6878C29.5354 14.6996 29.1098 14.8188 29.1098 14.6853C29.1098 14.5515 29.311 14.4185 29.0684 14.3786C27.9496 14.1933 28.2758 13.1475 27.8403 13.1475C27.6322 13.1475 26.9098 13.5393 26.9098 13.089C26.9098 12.8404 27.0816 12.5013 27.0816 11.9656C27.0816 11.3736 26.7441 11.023 27.0701 11.023C27.7817 11.023 29.0273 11.3854 29.0273 11.5589C29.0273 11.6837 28.3267 11.6117 28.3267 11.9253C28.3267 12.1099 28.7287 12.3336 29.34 12.3336C29.9509 12.3336 30.1976 12.1449 29.8933 12.1449C29.5888 12.1449 29.1209 12.1362 29.1209 11.9253C29.1209 11.7137 29.6626 11.8074 29.6626 11.5853C29.6626 11.2573 29.1092 11.2819 28.0964 10.9933C23.0564 9.55985 21.303 7.68961 18.1379 7.68961C14.2442 7.68961 14.8667 10.3442 12.5022 10.9441C10.6299 11.4192 10.4575 12.3742 10.4575 13.5132C10.4575 14.1531 10.6738 14.6913 10.7924 14.7863ZM12.5813 15.7739C12.3732 15.7739 12.4264 15.6286 12.4264 15.6286C12.6964 15.262 12.5574 14.392 12.8943 14.392C13.0835 14.392 12.8127 14.5856 12.8127 14.8103C12.8127 15.0639 13.186 14.9894 13.186 15.2862C13.186 15.4756 12.8806 15.7739 12.5813 15.7739ZM13.3871 17.011C13.3871 17.011 13.2314 16.8993 13.2314 16.8172C13.2314 16.6323 13.5457 16.5781 13.5457 16.6362C13.5457 16.7935 13.387 17.011 13.387 17.011H13.3871ZM13.6396 13.6426C13.6396 13.7721 13.3756 14.0808 13.2093 14.0808C13.0832 14.0808 12.8799 13.5871 12.8799 13.5441C12.8799 13.5015 12.9388 13.4199 13.1241 13.4199C13.3098 13.4199 13.6396 13.5133 13.6396 13.6426ZM12.1234 11.6842C12.8706 11.6842 13.2575 12.1248 13.2575 12.6079C13.2575 13.0906 12.8513 13.4411 12.4029 13.4411C12.1166 13.4411 12.0307 13.2003 12.0307 13.0795C12.0307 12.9133 12.278 12.7663 12.278 12.5702C12.278 12.325 11.9796 12.1564 11.6821 12.1564C11.1762 12.1564 10.8348 12.5905 10.8348 12.3767C10.8348 12.1212 11.3464 11.6842 12.1234 11.6842ZM21.1683 19.7235C19.888 20.1975 19.3658 20.3947 19.4379 20.5907C19.4777 20.6987 19.7412 21.0115 21.4806 20.3687C23.2138 19.7272 26.6253 18.164 26.5073 17.8456C26.4491 17.6877 24.0374 18.6621 21.1683 19.7235V19.7235ZM23.9636 8.47763C26.0764 9.05844 27.2939 9.5951 27.3475 9.40034C27.4007 9.20578 25.7206 8.59939 24.1704 8.1733C22.62 7.74703 21.0098 7.53579 21.0615 7.58477C21.2245 7.73874 21.85 7.8965 23.9636 8.47763Z" fill="white"/>
<path d="M20.0001 5.21985C11.8368 5.21985 5.21973 11.8373 5.21973 20C5.21973 28.1635 11.8369 34.7801 20.0001 34.7801C28.1625 34.7801 34.7796 28.1635 34.7796 20C34.7796 11.8373 28.1625 5.21985 20.0001 5.21985ZM20.0001 33.7161C12.4249 33.7161 6.28384 27.5752 6.28384 20C6.28384 12.4251 12.4249 6.28435 20.0001 6.28435C27.5748 6.28435 33.7157 12.4251 33.7157 20C33.7157 27.5752 27.5748 33.7161 20.0001 33.7161Z" fill="#FFB81C"/>
<path d="M23.5016 28.0945C23.5557 28.1041 23.6097 28.0793 23.6592 28.0307C23.7014 28.4035 23.9151 28.3505 23.9909 28.2602C24.0333 28.6327 24.2463 28.5793 24.3223 28.4889C24.3645 28.8617 24.578 28.8083 24.6534 28.7185C24.6955 29.0908 24.9087 29.0378 24.985 28.9477C25.0272 29.3205 25.2407 29.2668 25.3165 29.1767C25.3588 29.5488 25.5721 29.4963 25.6484 29.4059C25.6903 29.7787 25.9032 29.7257 25.9796 29.6352C26.0215 30.0076 26.2346 29.9543 26.311 29.8638C26.3241 30.0225 26.3888 30.1407 26.484 30.1574C26.6176 30.1801 26.7622 29.9936 26.8059 29.7401C26.8493 29.4866 26.7765 29.2624 26.6419 29.2394C26.5888 29.2301 26.5341 29.2541 26.484 29.3028C26.442 28.93 26.2289 28.9837 26.1525 29.0736C26.1108 28.7011 25.8979 28.7542 25.8211 28.8446C25.7796 28.4718 25.5663 28.5252 25.4901 28.6153C25.4475 28.2427 25.2344 28.296 25.1588 28.3865C25.1165 28.0136 24.903 28.0667 24.827 28.1571C24.785 27.7842 24.5722 27.8372 24.4953 27.9276C24.4539 27.5555 24.2409 27.6082 24.1644 27.699C24.1221 27.3257 23.9088 27.379 23.8332 27.4695C23.8195 27.3112 23.7548 27.1927 23.66 27.176C23.5261 27.1534 23.3817 27.3402 23.3384 27.5936C23.2942 27.8476 23.3678 28.0714 23.5016 28.0945ZM13.5152 30.1575C13.6103 30.1408 13.6747 30.0226 13.6883 29.8638C13.7643 29.9543 13.9777 30.0077 14.0194 29.6352C14.096 29.7257 14.3091 29.7787 14.3508 29.4059C14.427 29.4963 14.6403 29.5488 14.6827 29.1767C14.7587 29.2668 14.972 29.3205 15.0141 28.9477C15.0901 29.0378 15.3037 29.0908 15.3452 28.7186C15.4216 28.8083 15.6345 28.8616 15.6768 28.4888C15.7527 28.5793 15.9656 28.6327 16.0082 28.2602C16.0839 28.3505 16.2975 28.4035 16.3397 28.0307C16.3896 28.0794 16.4438 28.1041 16.4977 28.0945C16.6312 28.0714 16.7048 27.8476 16.661 27.5936C16.6173 27.3403 16.4729 27.1534 16.3395 27.1761C16.2443 27.1927 16.1797 27.3113 16.166 27.4695C16.0902 27.379 15.8767 27.3257 15.8347 27.699C15.7584 27.6082 15.5454 27.5555 15.5033 27.9277C15.427 27.8372 15.2136 27.7841 15.1717 28.1571C15.096 28.0667 14.8828 28.0137 14.8402 28.3865C14.7646 28.296 14.5512 28.2427 14.5089 28.6153C14.4329 28.5252 14.22 28.4718 14.1777 28.8446C14.1014 28.7542 13.8883 28.7012 13.8464 29.0736C13.7702 28.9837 13.5573 28.93 13.5147 29.3028C13.4653 29.2541 13.4103 29.2301 13.3569 29.2394C13.2229 29.2624 13.1496 29.4866 13.1933 29.7401C13.2369 29.9936 13.3811 30.1802 13.5152 30.1575Z" fill="#FFB81C"/>
<path d="M27.928 29.5288C27.0935 29.0032 26.5305 31.858 24.285 30.4421C21.808 28.8799 24.2377 26.4896 23.0733 25.7545C22.8739 25.6293 22.6809 25.6778 22.639 25.7431C22.5961 25.8112 22.7238 25.8959 22.825 26.0228C23.2574 26.5681 21.4203 29.2257 23.9143 30.7988C26.0472 32.1437 27.0865 30.3136 27.262 30.4244C27.4051 30.5139 27.7526 30.8787 28.0431 30.4191C28.3022 30.0073 28.1287 29.6556 27.928 29.5288L27.928 29.5288ZM17.1745 26.0228C17.2758 25.8959 17.4036 25.8112 17.3607 25.7431C17.3189 25.6778 17.1258 25.6293 16.9261 25.7545C15.7619 26.4896 18.1915 28.8799 15.7144 30.4421C13.4687 31.858 12.9057 29.0032 12.0716 29.5288C11.871 29.6556 11.6972 30.0073 11.9566 30.4191C12.2464 30.8786 12.5943 30.5139 12.7374 30.4243C12.9129 30.3136 13.952 32.1437 16.0845 30.7988C18.5793 29.2257 16.7422 26.5681 17.1745 26.0228Z" fill="#FFB81C"/>
<path d="M12.8218 15.2004C12.7706 15.2004 12.7217 15.285 12.7217 15.3158C12.7217 15.348 12.8019 15.4583 12.8614 15.4583C12.8955 15.4583 12.9389 15.4435 12.9389 15.4118C12.9389 15.2895 12.9353 15.2004 12.8218 15.2004Z" fill="#C8102E"/>
</svg>
