<svg width="40" height="40" viewBox="0 0 40 40" fill="none" xmlns="http://www.w3.org/2000/svg">
<path d="M17.3826 31.9404C16.9887 31.9404 16.6689 32.2597 16.6689 32.6539C16.6689 33.0476 16.9887 33.3673 17.3826 33.3673C17.7765 33.3673 18.0958 33.0476 18.0958 32.6539C18.0958 32.2597 17.7765 31.9404 17.3826 31.9404ZM17.3826 33.2143C17.309 33.2143 17.2361 33.1999 17.1681 33.1717C17.1001 33.1436 17.0383 33.1023 16.9862 33.0503C16.9342 32.9982 16.8929 32.9364 16.8647 32.8684C16.8366 32.8004 16.8222 32.7275 16.8222 32.6539C16.8222 32.3442 17.0726 32.0939 17.3826 32.0939C17.6922 32.0939 17.9429 32.3442 17.9429 32.6539C17.9429 32.9636 17.6922 33.2143 17.3826 33.2143ZM17.6758 32.4885C17.6757 32.4567 17.6695 32.4253 17.6573 32.3959C17.6451 32.3666 17.6273 32.3399 17.6048 32.3175C17.5823 32.295 17.5556 32.2772 17.5263 32.2651C17.4969 32.253 17.4654 32.2468 17.4337 32.2468H17.0899V33.0612H17.2427V32.7304H17.3523L17.5067 33.0612H17.6758L17.5145 32.7163C17.611 32.682 17.6755 32.5909 17.6758 32.4885ZM17.4337 32.5775H17.2427V32.3993H17.4336C17.4828 32.3993 17.5229 32.4392 17.5229 32.4885C17.5228 32.5377 17.4828 32.5775 17.4336 32.5775H17.4337Z" fill="#010101"/>
<path d="M34.3922 9.80694C32.6303 7.48569 29.8335 6.2074 26.5169 6.2074C23.9525 6.2074 21.865 7.24417 20.1877 8.07725C19.1662 8.58462 18.284 9.02275 17.6429 9.02275C17.2389 9.02275 16.6065 8.24927 16.2863 7.69995L16.1646 7.49101L15.9552 7.61182C15.1252 8.09052 14.874 8.85292 14.8472 9.41152C13.9037 9.02618 12.7298 9.01357 12.576 9.01357C11.1385 9.02318 9.88557 9.91742 9.83178 9.95637C9.15371 10.4531 8.81484 11.0416 8.69641 11.282C7.7704 11.5948 6.84007 12.4646 6.79408 12.508C6.5733 12.7297 6.48018 12.8064 6.48037 12.8064C5.93894 13.2147 5.20189 13.248 5.1949 13.2484L4.93602 13.2575L4.96199 13.5152C5.03148 14.2065 5.39926 14.8807 5.42533 14.9261C5.83387 15.5419 6.43932 15.8546 6.85657 16.0059C6.61073 16.1857 6.23495 16.4127 5.75464 16.5591C5.06482 16.7696 4.0806 16.927 4.0707 16.9285L3.83984 16.9652L3.86776 17.1973C3.90105 17.4749 4.0182 17.6824 4.03422 17.7097C5.00813 19.3027 7.09347 19.3834 7.50169 19.3834C7.52751 19.3834 7.54744 19.3831 7.56076 19.3828C7.73901 19.4018 7.99232 19.3924 8.20649 19.3725C7.99375 19.8695 7.8143 20.5115 7.78691 20.6115C7.67057 21.0999 7.44095 21.2881 7.42616 21.2998C7.13214 21.5399 6.313 22.0292 6.30477 22.0341L6.07063 22.1737L6.23638 22.3902C6.55513 22.8065 7.20291 23.0368 7.52504 23.1298C7.55738 23.6185 7.66596 24.173 7.74477 24.5269C7.56671 24.5034 7.38732 24.4913 7.20771 24.4909C6.40427 24.4909 5.97161 24.7497 5.95354 24.7606L5.67179 24.9328L5.92005 25.1504C6.26535 25.4529 6.5334 25.868 6.53606 25.8722L6.55337 25.8961C6.9515 26.3771 7.04487 27.3748 7.04539 27.3811C7.15749 28.9055 7.67034 29.8297 7.88598 30.1564C8.21767 30.6583 8.85155 31.1311 8.86601 31.1411C9.33011 31.5344 10.151 31.7229 10.1744 31.7279C10.2381 31.7455 10.3035 31.7605 10.3704 31.7729C10.1739 31.8608 9.99296 31.9346 9.88805 31.975L9.6462 32.0682L9.75483 32.3033C10.0474 32.9371 10.8254 33.3008 10.9422 33.3525C11.6366 33.7396 12.7471 33.7905 12.7943 33.7924L12.8002 33.7926H12.8063C14.1055 33.7828 15.1471 32.7759 15.1839 32.7395C16.264 31.76 16.8479 31.5171 17.8 31.5899C18.3758 31.6342 18.8955 31.8563 19.4971 32.1133C20.4323 32.5128 21.596 33.0102 23.4511 33.0102C29.4795 33.0102 34.5528 27.2151 35.3358 22.0141L35.3777 21.7352L26.8612 21.7354L26.8108 21.9112C26.8029 21.9389 25.9945 24.6832 24.1447 24.6832C22.6833 24.6832 21.7753 23.4997 21.7753 21.5944C21.7753 19.079 23.938 14.4333 27.0197 14.4333C27.3794 14.4333 27.6374 14.5492 27.8087 14.788C28.1774 15.3019 28.136 16.4204 27.7008 17.7073L27.5923 18.028L35.7366 18.0238L35.7861 17.8465C36.5908 14.9644 36.0827 12.0341 34.3922 9.80694ZM10.7688 22.9808C10.5548 22.9185 10.3577 22.8084 10.1924 22.6589C10.2848 22.5772 10.3609 22.4827 10.4285 22.3987C10.4835 22.3304 10.5665 22.2272 10.6016 22.2132C10.6256 22.2077 10.6391 22.2066 10.6454 22.2065C10.6641 22.2194 10.7046 22.263 10.7376 22.2985C10.8791 22.4508 11.1158 22.7056 11.6912 22.9922C11.7273 23.0091 11.7607 23.0246 11.7918 23.0389C11.4616 23.1217 11.1908 23.1032 10.7688 22.9808V22.9808Z" fill="black"/>
<path d="M35.5524 17.7811C37.1487 12.0636 33.3947 6.45016 26.517 6.45016C22.3722 6.45016 19.4102 9.26557 17.643 9.26557C16.9162 9.26557 16.0766 7.8221 16.0766 7.8221C14.8506 8.52919 15.1149 9.81218 15.1149 9.81218C14.1538 9.24669 12.5778 9.25629 12.5778 9.25629C11.2013 9.26557 9.97531 10.1522 9.97531 10.1522C9.16469 10.7461 8.87219 11.4813 8.87219 11.4813C7.95712 11.7458 6.96619 12.6793 6.96619 12.6793C6.72168 12.9248 6.62685 13.0002 6.62685 13.0002C6.01412 13.4622 5.20359 13.491 5.20359 13.491C5.26889 14.1407 5.62769 14.7919 5.62769 14.7919C6.2407 15.7158 7.36256 15.8954 7.36256 15.8954C7.36256 15.8954 6.79174 16.4968 5.82559 16.7913C5.11099 17.0095 4.10889 17.1684 4.10889 17.1684C4.13714 17.4041 4.24134 17.5831 4.24134 17.5831C5.25068 19.2339 7.57097 19.1396 7.57097 19.1396C7.96654 19.1866 8.63548 19.0735 8.63548 19.0735C8.35268 19.4694 8.02318 20.6677 8.02318 20.6677C7.88174 21.2617 7.57982 21.488 7.57982 21.488C7.2683 21.7422 6.42918 22.2426 6.42918 22.2426C6.79707 22.7231 7.75946 22.9403 7.75946 22.9403C7.77777 23.7231 8.06594 24.8279 8.06594 24.8279C6.75945 24.5529 6.08014 24.9678 6.08014 24.9678C6.45715 25.2982 6.74056 25.7414 6.74056 25.7414C7.19296 26.288 7.28761 27.3634 7.28761 27.3634C7.38187 28.6459 7.77777 29.5514 8.08853 30.0226C8.40053 30.4945 9.02305 30.9559 9.02305 30.9559C9.44701 31.3153 10.2392 31.4939 10.2392 31.4939C10.7866 31.6453 11.3079 31.5322 11.3079 31.5322C10.956 31.8243 9.97531 32.2016 9.97531 32.2016C10.2495 32.7955 11.0506 33.1349 11.0506 33.1349C11.7011 33.5035 12.8046 33.5499 12.8046 33.5499C14.0206 33.5406 15.0209 32.5598 15.0209 32.5598C16.093 31.5873 16.7567 31.2665 17.8186 31.3479C19.3761 31.4676 20.465 32.7675 23.4512 32.7675C29.4752 32.7675 34.3399 26.9995 35.0958 21.978H27.0443C27.0443 21.978 26.2034 24.926 24.1448 24.926C22.5762 24.926 21.5326 23.6554 21.5326 21.5944C21.5326 18.899 23.7803 14.1905 27.0198 14.1905C28.5356 14.1905 28.5255 16.027 27.9308 17.785L35.5524 17.7811H35.5524ZM10.701 23.2138C10.093 23.0367 9.81746 22.601 9.81746 22.601C10.1479 22.5082 10.3081 22.0325 10.5467 21.9768C10.9296 21.8876 10.7747 22.2643 11.7938 22.7722C12.1672 22.9464 12.2181 22.9622 12.5071 23.0178C11.803 23.3676 11.3767 23.4101 10.701 23.2138Z" fill="#010101"/>
<path d="M26.5318 6.76196C22.6745 6.76196 19.5841 9.53095 17.7176 9.61418C16.9381 9.6488 16.0009 8.33223 16.0009 8.33223C14.9453 9.12402 15.7179 10.5759 15.7179 10.5759C14.1536 9.42565 12.3969 9.60514 12.3969 9.60514C9.77636 9.85945 9.13544 11.7458 9.13544 11.7458C7.6075 12.3113 7.07962 13.1222 7.07962 13.1222C6.13588 13.8009 5.58955 13.7359 5.58955 13.7359C5.94863 15.7069 8.00378 15.6124 8.00378 15.6124C7.19277 17.1779 4.55225 17.4233 4.55225 17.4233C5.49499 18.9319 7.73939 18.8002 7.73939 18.8002C8.50706 18.8823 9.55121 18.4676 10.0656 18.2341C9.72148 18.4143 9.56096 18.5564 9.56096 18.5564C8.57037 19.253 8.59248 20.5244 8.08163 21.4293C7.88502 21.8359 7.31467 22.0307 6.99996 22.2796C7.34054 22.4502 7.72997 22.5933 8.09766 22.6591C8.08829 23.2898 8.39396 24.8197 8.5979 25.4304C7.86214 24.8835 6.72149 25.1301 6.72149 25.1301C7.98556 26.7034 7.39115 27.6746 8.02532 29.1384C8.23915 29.8625 8.89987 30.4849 9.56405 30.9266C11.2855 31.7015 12.474 30.683 12.474 30.683C12.2766 31.6361 10.4848 32.3524 10.4848 32.3524C10.9043 32.8116 11.9342 33.1579 12.55 33.1989C14.9821 33.3587 15.1075 30.712 17.8037 30.9876C19.3673 31.1477 20.7999 32.4616 23.4092 32.4616C29.9367 32.4616 34.176 25.8538 34.6899 22.2991H27.2906C27.2906 22.2991 26.3834 25.2658 24.1845 25.2658C21.9074 25.2658 21.1865 23.3131 21.1865 21.5525C21.1865 18.876 23.4092 13.8194 27.0357 13.8194C28.7455 13.8194 29.0081 15.6949 28.4038 17.4502H35.2895C36.685 11.457 32.5767 6.76196 26.5318 6.76196H26.5318ZM10.4351 21.6184C11.0413 21.431 11.2295 22.2892 12.3854 22.6545C12.7155 22.8194 12.9121 22.8476 13.2532 23.0133C12.4555 23.5157 11.7131 23.8439 10.6673 23.5465C10.072 23.4252 9.77418 23.0618 9.39983 22.5884L9.35298 22.5082C9.79358 22.3645 10.05 21.8613 10.4351 21.6183V21.6184Z" fill="#F1BE48"/>
<path d="M9.42474 14.6449C10.2369 14.4879 10.7752 13.662 11.6139 13.5439C12.086 13.426 12.5585 13.6222 12.9648 13.6884C12.9517 13.6486 12.8987 13.6355 12.8987 13.5961C12.0337 12.5861 10.6566 11.9834 9.30632 12.4813C8.17846 12.6914 7.5753 13.9894 6.42147 14.1207C6.4092 14.16 6.47379 14.1863 6.47379 14.2255C7.18206 15.0382 8.51881 14.9859 9.42474 14.6449ZM14.2883 28.2163V28.1638C12.8724 27.6396 11.8367 29.187 10.4472 28.3868C9.21471 27.9804 9.20149 26.2886 7.95535 25.8829C8.06103 26.1976 8.20509 26.4855 8.25703 26.8132C8.32324 28.1774 8.69012 29.6587 9.92237 30.327C10.434 30.6028 11.1683 30.6028 11.6929 30.3542C12.7027 29.8294 13.1881 28.6229 14.2883 28.2163H14.2883Z" fill="#C8102E"/>
<path d="M26.5414 7.47887C22.9424 7.46156 19.9792 10.3407 17.6375 10.3407C17.0426 10.3407 16.5411 9.97742 16.1904 9.53164C16.2958 10.8168 17.4885 11.8912 18.6291 12.3248C18.0522 12.3634 17.5537 12.1405 17.0426 12.0226C15.5085 11.6031 14.419 10.1346 12.6626 10.2784C11.4304 10.2393 10.3418 10.987 9.73877 12.0098C10.0407 11.7339 10.3949 11.5642 10.7752 11.4849C11.6793 11.3275 12.4658 11.7339 13.0564 12.3503C13.7907 13.5172 14.6038 14.6449 15.8098 15.4583C14.9445 15.4583 14.1838 15.1303 13.4239 14.8685C11.8625 14.4221 10.0139 14.6187 8.83359 15.7333C8.23066 16.7171 7.22081 17.5169 6.10693 17.7524V17.7925L6.4342 17.9361C7.71977 18.4873 9.13555 17.9493 10.2105 17.2802C10.9582 17.0444 11.8499 17.1761 12.3742 17.7662C12.741 18.3951 13.4239 19.025 14.0265 19.4831C13.8688 19.549 13.7114 19.4176 13.5283 19.4176C12.4926 18.9068 10.9319 18.2117 9.88321 19.169C8.89994 19.9164 9.39775 21.3589 8.34857 22.0666C9.08338 22.1321 9.50282 21.5944 9.92235 21.0702C10.9714 20.2964 11.6398 21.6866 12.4792 22.0142C13.3712 22.4466 14.5513 22.3024 15.1938 23.2207C14.5112 23.3515 13.8164 23.4699 13.2263 23.824C12.3217 24.3873 10.9974 24.4798 10.0139 24.0074C9.50277 23.7312 9.14868 23.3515 8.80838 22.8793C8.80838 22.8931 8.80838 22.9191 8.79464 22.932C8.86056 24.8733 9.58096 26.984 11.5879 27.6657C12.9517 28.2947 14.419 27.2719 15.7577 27.9281C15.0493 28.0857 14.3939 28.4654 13.9738 29.0816C13.279 29.9864 13.2922 31.2324 12.4268 32.0061C12.2695 32.1501 12.0337 32.2288 11.8769 32.3468C12.0471 32.4254 12.2171 32.4652 12.4137 32.4909C13.3712 32.6483 14.1839 32.0316 14.7213 31.3104C15.4957 30.5633 16.6704 30.1073 17.6067 30.1701C19.4966 30.2973 20.905 31.6698 23.4002 31.6789C28.3692 31.6976 32.7548 26.9628 33.6866 23.0809H27.8251C27.8251 23.0809 26.7581 26.0508 24.177 26.0508C20.9555 26.0508 20.3927 23.0421 20.3927 21.5484C20.3927 18.0409 23.1435 13.0265 27.0298 13.0265C28.8738 13.0265 29.9591 14.9096 29.3589 16.7021H34.657C35.6255 12.3802 32.4379 7.50764 26.5414 7.47887H26.5414Z" fill="#C8102E"/>
</svg>
