<svg width="24" height="24" viewBox="0 0 24 24" fill="none" xmlns="http://www.w3.org/2000/svg">
<path d="M10.3288 19.6253C10.0772 19.6253 9.87305 19.8292 9.87305 20.0809C9.87305 20.3323 10.0772 20.5365 10.3288 20.5365C10.5803 20.5365 10.7842 20.3323 10.7842 20.0809C10.7842 19.8292 10.5803 19.6253 10.3288 19.6253ZM10.3288 20.4388C10.2818 20.4388 10.2352 20.4296 10.1918 20.4116C10.1484 20.3937 10.1089 20.3673 10.0757 20.3341C10.0424 20.3008 10.0161 20.2614 9.99809 20.2179C9.98012 20.1745 9.9709 20.1279 9.97094 20.0809C9.97094 19.8832 10.1308 19.7233 10.3288 19.7233C10.5265 19.7233 10.6866 19.8832 10.6866 20.0809C10.6866 20.2787 10.5265 20.4388 10.3288 20.4388ZM10.516 19.9753C10.516 19.955 10.512 19.9349 10.5042 19.9162C10.4964 19.8975 10.485 19.8804 10.4707 19.8661C10.4563 19.8518 10.4393 19.8404 10.4205 19.8327C10.4018 19.8249 10.3817 19.8209 10.3614 19.821H10.1419V20.341H10.2395V20.1298H10.3095L10.4081 20.341H10.516L10.413 20.1208C10.4747 20.0989 10.5159 20.0407 10.516 19.9753ZM10.3614 20.0322H10.2395V19.9184H10.3614C10.3928 19.9184 10.4184 19.9438 10.4184 19.9753C10.4183 20.0067 10.3928 20.0322 10.3614 20.0322H10.3614Z" fill="#010101"/>
<path d="M21.1913 5.49058C20.0661 4.0082 18.2801 3.19187 16.1621 3.19187C14.5243 3.19187 13.1913 3.85397 12.1202 4.38598C11.4678 4.70999 10.9044 4.98979 10.495 4.98979C10.237 4.98979 9.83311 4.49584 9.62866 4.14503L9.55091 4.0116L9.41721 4.08875C8.88714 4.39445 8.72674 4.88133 8.70958 5.23806C8.10707 4.99198 7.35738 4.98393 7.25922 4.98393C6.34117 4.99006 5.54105 5.56113 5.5067 5.58601C5.07368 5.90322 4.85727 6.27903 4.78164 6.43256C4.19028 6.63232 3.59616 7.18778 3.56679 7.21548C3.4258 7.35711 3.36633 7.4061 3.36645 7.4061C3.02068 7.66682 2.54999 7.68812 2.54553 7.68833L2.38021 7.69413L2.39679 7.85875C2.44117 8.30019 2.67604 8.73076 2.69269 8.75976C2.95359 9.153 3.34024 9.3527 3.6067 9.44932C3.4497 9.56413 3.20972 9.70913 2.90299 9.80261C2.46246 9.93704 1.83392 10.0375 1.82761 10.0385L1.68018 10.0619L1.698 10.2101C1.71927 10.3874 1.79407 10.52 1.80431 10.5374C2.42625 11.5547 3.75798 11.6062 4.01867 11.6062C4.03517 11.6062 4.04789 11.606 4.0564 11.6058C4.17023 11.618 4.332 11.612 4.46877 11.5993C4.33291 11.9166 4.21831 12.3266 4.20082 12.3905C4.12653 12.7024 3.97989 12.8226 3.97044 12.8301C3.78268 12.9834 3.25956 13.2959 3.25431 13.299L3.10478 13.3881L3.21063 13.5264C3.41419 13.7922 3.82787 13.9393 4.03359 13.9987C4.05424 14.3108 4.12358 14.6649 4.17391 14.891C4.0602 14.8759 3.94564 14.8682 3.83094 14.868C3.31785 14.868 3.04155 15.0332 3.03001 15.0402L2.85008 15.1502L3.00862 15.2891C3.22913 15.4823 3.40031 15.7474 3.40201 15.75L3.41307 15.7653C3.66732 16.0725 3.72694 16.7096 3.72728 16.7137C3.79887 17.6872 4.12638 18.2773 4.26409 18.486C4.47591 18.8065 4.88072 19.1084 4.88995 19.1148C5.18633 19.366 5.71056 19.4864 5.72551 19.4896C5.76621 19.5008 5.80794 19.5104 5.85064 19.5183C5.7252 19.5744 5.60964 19.6216 5.54263 19.6474L5.38819 19.7069L5.45756 19.8571C5.64441 20.2618 6.14125 20.4941 6.21582 20.5271C6.65926 20.7743 7.36847 20.8068 7.3986 20.808L7.40239 20.8081H7.40625C8.23595 20.8018 8.90114 20.1588 8.92465 20.1356C9.61442 19.5101 9.98728 19.355 10.5953 19.4015C10.963 19.4298 11.2949 19.5716 11.6791 19.7357C12.2763 19.9909 13.0195 20.3085 14.2042 20.3085C18.054 20.3085 21.2939 16.6077 21.7939 13.2862L21.8207 13.1081L16.3819 13.1082L16.3497 13.2205C16.3447 13.2382 15.8284 14.9908 14.6471 14.9908C13.7138 14.9908 13.134 14.2349 13.134 13.0182C13.134 11.4119 14.5151 8.44501 16.4831 8.44501C16.7128 8.44501 16.8776 8.51906 16.987 8.67156C17.2224 8.99974 17.196 9.71405 16.9181 10.5358L16.8488 10.7406L22.0498 10.7379L22.0815 10.6247C22.5954 8.78418 22.2709 6.91285 21.1913 5.49058ZM6.10511 13.9036C5.96843 13.8638 5.84256 13.7935 5.73699 13.698C5.79603 13.6458 5.84463 13.5855 5.88779 13.5318C5.9229 13.4882 5.97587 13.4223 5.99835 13.4134C6.01366 13.4099 6.02225 13.4091 6.02626 13.4091C6.03823 13.4173 6.0641 13.4452 6.08518 13.4678C6.17551 13.5651 6.32668 13.7279 6.69413 13.9108C6.71718 13.9217 6.7385 13.9315 6.75837 13.9406C6.54752 13.9936 6.37458 13.9818 6.10511 13.9036V13.9036Z" fill="black"/>
<path d="M21.9323 10.583C22.9517 6.93171 20.5544 3.34689 16.1622 3.34689C13.5152 3.34689 11.6237 5.14484 10.4951 5.14484C10.0309 5.14484 9.49478 4.22303 9.49478 4.22303C8.71185 4.67458 8.88064 5.49392 8.88064 5.49392C8.26686 5.13278 7.2604 5.13892 7.2604 5.13892C6.38137 5.14484 5.59842 5.71105 5.59842 5.71105C5.08075 6.09035 4.89395 6.55982 4.89395 6.55982C4.30958 6.72873 3.67676 7.32492 3.67676 7.32492C3.52061 7.48167 3.46005 7.52981 3.46005 7.52981C3.06876 7.82485 2.55114 7.84323 2.55114 7.84323C2.59285 8.25818 2.82198 8.67402 2.82198 8.67402C3.21345 9.26407 3.92989 9.37876 3.92989 9.37876C3.92989 9.37876 3.56535 9.76282 2.94836 9.95089C2.49201 10.0902 1.85205 10.1917 1.85205 10.1917C1.87009 10.3422 1.93664 10.4565 1.93664 10.4565C2.58121 11.5108 4.06298 11.4506 4.06298 11.4506C4.31559 11.4805 4.74279 11.4083 4.74279 11.4083C4.56219 11.6611 4.35177 12.4264 4.35177 12.4264C4.26144 12.8057 4.06863 12.9502 4.06863 12.9502C3.86969 13.1126 3.33382 13.4321 3.33382 13.4321C3.56876 13.739 4.18335 13.8777 4.18335 13.8777C4.19504 14.3776 4.37907 15.0831 4.37907 15.0831C3.54473 14.9075 3.11092 15.1725 3.11092 15.1725C3.35168 15.3835 3.53267 15.6665 3.53267 15.6665C3.82158 16.0156 3.88202 16.7024 3.88202 16.7024C3.94222 17.5214 4.19504 18.0996 4.3935 18.4005C4.59275 18.7019 4.9903 18.9966 4.9903 18.9966C5.26104 19.2261 5.76693 19.3401 5.76693 19.3401C6.11655 19.4368 6.44941 19.3646 6.44941 19.3646C6.22468 19.5511 5.59842 19.7921 5.59842 19.7921C5.77355 20.1714 6.28509 20.3881 6.28509 20.3881C6.70053 20.6235 7.40521 20.6531 7.40521 20.6531C8.18179 20.6472 8.82062 20.0208 8.82062 20.0208C9.50525 19.3998 9.92911 19.1949 10.6072 19.2469C11.6019 19.3233 12.2973 20.1534 14.2043 20.1534C18.0513 20.1534 21.158 16.47 21.6407 13.2631H16.4989C16.4989 13.2631 15.9619 15.1458 14.6472 15.1458C13.6455 15.1458 12.9791 14.3344 12.9791 13.0182C12.9791 11.2969 14.4145 8.28995 16.4832 8.28995C17.4513 8.28995 17.4448 9.4628 17.065 10.5855L21.9323 10.583H21.9323ZM6.06185 14.0524C5.6736 13.9393 5.49762 13.661 5.49762 13.661C5.70865 13.6018 5.81094 13.298 5.96329 13.2624C6.20785 13.2054 6.1089 13.446 6.75973 13.7704C6.99822 13.8816 7.03069 13.8917 7.21526 13.9272C6.76562 14.1505 6.49336 14.1777 6.06185 14.0524Z" fill="#010101"/>
<path d="M16.1717 3.54602C13.7084 3.54602 11.7348 5.31433 10.5428 5.36748C10.045 5.38959 9.44652 4.54881 9.44652 4.54881C8.77236 5.05445 9.26577 5.98162 9.26577 5.98162C8.26681 5.24708 7.14493 5.36171 7.14493 5.36171C5.47144 5.52411 5.06214 6.72873 5.06214 6.72873C4.08638 7.08992 3.74927 7.60775 3.74927 7.60775C3.14658 8.04117 2.79769 7.99968 2.79769 7.99968C3.027 9.25839 4.33944 9.19801 4.33944 9.19801C3.82153 10.1977 2.13525 10.3545 2.13525 10.3545C2.7373 11.3179 4.1706 11.2338 4.1706 11.2338C4.66085 11.2862 5.32766 11.0214 5.65614 10.8723C5.43639 10.9874 5.33388 11.0781 5.33388 11.0781C4.70128 11.5229 4.7154 12.3349 4.38916 12.9127C4.2636 13.1724 3.89937 13.2968 3.69839 13.4558C3.91589 13.5647 4.16459 13.6561 4.3994 13.6981C4.39342 14.1009 4.58862 15.0779 4.71886 15.4679C4.24899 15.1187 3.52056 15.2761 3.52056 15.2761C4.32781 16.2808 3.94821 16.9011 4.3532 17.8359C4.48976 18.2983 4.9117 18.6958 5.33586 18.9778C6.4352 19.4727 7.19416 18.8223 7.19416 18.8223C7.06811 19.431 5.92387 19.8884 5.92387 19.8884C6.19176 20.1816 6.84949 20.4028 7.24269 20.429C8.79587 20.531 8.876 18.8408 10.5978 19.0168C11.5963 19.119 12.5112 19.9581 14.1775 19.9581C18.3461 19.9581 21.0534 15.7383 21.3815 13.4682H16.6563C16.6563 13.4682 16.0769 15.3628 14.6726 15.3628C13.2185 15.3628 12.7581 14.1158 12.7581 12.9915C12.7581 11.2822 14.1775 8.05299 16.4935 8.05299C17.5854 8.05299 17.7531 9.25071 17.3671 10.3717H21.7644C22.6557 6.54434 20.032 3.54602 16.1716 3.54602H16.1717ZM5.8921 13.0335C6.27927 12.9138 6.39945 13.4619 7.13764 13.6952C7.34842 13.8005 7.47398 13.8185 7.69182 13.9243C7.18237 14.2452 6.70825 14.4548 6.04042 14.2648C5.66027 14.1874 5.47004 13.9553 5.23098 13.653L5.20106 13.6017C5.48243 13.51 5.64618 13.1886 5.8921 13.0335V13.0335Z" fill="#F1BE48"/>
<path d="M5.24655 8.58017C5.76523 8.47991 6.10896 7.95245 6.64459 7.87703C6.94607 7.80171 7.24779 7.92706 7.5073 7.96931C7.49891 7.94388 7.46508 7.9355 7.46508 7.91038C6.91266 7.26535 6.03324 6.88047 5.17092 7.19844C4.45066 7.3326 4.06547 8.16154 3.32863 8.2454C3.32079 8.27045 3.36204 8.28728 3.36204 8.31228C3.81435 8.83129 4.66801 8.79788 5.24655 8.58017ZM8.35248 17.247V17.2135C7.44828 16.8787 6.78688 17.8669 5.89948 17.3559C5.11243 17.0964 5.10398 16.016 4.30818 15.7568C4.37567 15.9579 4.46767 16.1417 4.50084 16.3509C4.54312 17.2222 4.77741 18.1682 5.56434 18.5949C5.8911 18.7711 6.35999 18.7711 6.695 18.6123C7.33988 18.2772 7.64987 17.5067 8.35245 17.247H8.35248Z" fill="#C8102E"/>
<path d="M16.1777 4.00383C13.8793 3.99277 11.9869 5.83142 10.4915 5.83142C10.1116 5.83142 9.79131 5.59943 9.56737 5.31475C9.63465 6.13545 10.3963 6.82161 11.1247 7.09852C10.7563 7.12312 10.438 6.98082 10.1116 6.9055C9.13189 6.63761 8.43614 5.69979 7.31444 5.79166C6.52757 5.76667 5.83239 6.24419 5.44726 6.89733C5.6401 6.72114 5.86626 6.61279 6.10912 6.5621C6.68651 6.46163 7.18875 6.72114 7.56595 7.11477C8.03491 7.86 8.5541 8.58017 9.32433 9.09957C8.77172 9.09957 8.28594 8.89015 7.80061 8.72295C6.8035 8.43784 5.62294 8.5634 4.86921 9.27522C4.48417 9.90345 3.83926 10.4143 3.12793 10.5646V10.5902L3.33693 10.682C4.1579 11.0339 5.06204 10.6904 5.7485 10.2631C6.22602 10.1125 6.79545 10.1966 7.13025 10.5734C7.36455 10.9751 7.80061 11.3773 8.18547 11.6699C8.08475 11.7119 7.98422 11.6281 7.86731 11.6281C7.20591 11.3018 6.2092 10.858 5.53951 11.4693C4.91158 11.9466 5.22949 12.8678 4.55946 13.3197C5.02872 13.3616 5.29658 13.0182 5.5645 12.6834C6.23447 12.1893 6.6613 13.0771 7.19735 13.2863C7.76696 13.5624 8.52063 13.4703 8.93091 14.0568C8.49503 14.1403 8.05131 14.2159 7.67448 14.442C7.09678 14.8018 6.25105 14.8609 5.62294 14.5591C5.29655 14.3828 5.07043 14.1403 4.85311 13.8387C4.85311 13.8475 4.85311 13.8641 4.84433 13.8724C4.88643 15.1121 5.34649 16.4601 6.62813 16.8954C7.49907 17.2971 8.43614 16.6439 9.29104 17.063C8.83861 17.1636 8.4201 17.4061 8.15182 17.7996C7.70813 18.3774 7.71651 19.1731 7.16388 19.6672C7.0634 19.7592 6.91281 19.8094 6.81267 19.8848C6.92141 19.935 7.02993 19.9604 7.15549 19.9768C7.76696 20.0774 8.28597 19.6835 8.62919 19.223C9.12372 18.7458 9.8739 18.4546 10.4718 18.4947C11.6787 18.5759 12.5782 19.4525 14.1716 19.4582C17.3449 19.4702 20.1456 16.4465 20.7407 13.9675H16.9974C16.9974 13.9675 16.316 15.8641 14.6677 15.8641C12.6104 15.8641 12.251 13.9427 12.251 12.9888C12.251 10.7489 14.0077 7.54664 16.4895 7.54664C17.6671 7.54664 18.3602 8.74916 17.9769 9.89388H21.3603C21.9789 7.1339 19.9432 4.0222 16.1776 4.00383H16.1777Z" fill="#C8102E"/>
</svg>
