<svg width="24" height="24" viewBox="0 0 24 24" fill="none" xmlns="http://www.w3.org/2000/svg">
<path d="M19.4026 15.2852C19.1885 15.2852 19.0146 15.4588 19.0146 15.673C19.0146 15.8871 19.1885 16.0609 19.4026 16.0609C19.6168 16.0609 19.7903 15.8871 19.7903 15.6731C19.7903 15.4588 19.6168 15.2852 19.4026 15.2852ZM19.4026 15.9777C19.3626 15.9777 19.323 15.9699 19.286 15.9546C19.249 15.9393 19.2154 15.9168 19.1871 15.8885C19.1588 15.8602 19.1364 15.8266 19.1211 15.7897C19.1058 15.7527 19.0979 15.713 19.098 15.673C19.098 15.5047 19.2341 15.3686 19.4026 15.3686C19.5709 15.3686 19.7072 15.5047 19.7072 15.673C19.7072 15.8414 19.5709 15.9777 19.4026 15.9777V15.9777ZM19.562 15.5831C19.562 15.5659 19.5586 15.5488 19.552 15.5328C19.5453 15.5169 19.5356 15.5024 19.5234 15.4902C19.5112 15.478 19.4967 15.4683 19.4807 15.4617C19.4648 15.4551 19.4477 15.4517 19.4304 15.4517H19.2435V15.8945H19.3266V15.7147H19.3862L19.4701 15.8945H19.562L19.4744 15.707C19.5 15.6979 19.5221 15.6811 19.5378 15.6589C19.5535 15.6368 19.5619 15.6103 19.562 15.5831ZM19.4304 15.6315H19.3266V15.5346H19.4304C19.4571 15.5346 19.4789 15.5563 19.4789 15.5831C19.4789 15.596 19.4737 15.6083 19.4647 15.6174C19.4556 15.6264 19.4432 15.6315 19.4304 15.6315Z" fill="white"/>
<path d="M22.2712 9.42005C21.9888 7.44912 20.266 6.836 19.2304 6.64402L20.1163 6.06114C20.1163 6.06114 15.4879 5.05664 9.50134 6.94734C4.03183 8.67467 1.27156 11.3853 1.72917 14.5799C2.01154 16.5509 3.7343 17.164 4.76984 17.3558L3.88396 17.9388C3.88396 17.9388 8.51232 18.9433 14.4992 17.0529C19.9685 15.3255 22.7287 12.615 22.2712 9.42005Z" fill="#A2AAAD"/>
<path d="M21.9964 9.5067C21.6231 6.9009 18.4046 6.85702 18.4046 6.85702L19.3337 6.2457C19.3337 6.2457 14.9393 5.53241 9.54284 7.23672C4.77767 8.74149 1.5357 11.2199 2.00445 14.4931C2.37771 17.0994 5.59624 17.1431 5.59624 17.1431L4.66724 17.754C4.66724 17.754 9.0614 18.4674 14.458 16.7633C19.2232 15.2582 22.4653 12.7801 21.9964 9.5067H21.9964Z" fill="white"/>
<path d="M21.4962 9.66468C21.0196 6.33801 15.8648 7.04251 13.2018 7.88345C11.7755 8.33381 10.8424 8.79098 10.8424 8.79098C15.6732 7.06245 19.0596 8.29635 19.0596 8.29635C17.4567 8.18382 15.9496 8.70343 15.9496 8.70343C15.9496 8.70343 17.5688 9.0296 17.7838 10.5322C18.0681 12.5162 16.3794 14.7868 11.1742 16.4306C8.33646 17.3265 5.94873 17.4687 5.94873 17.4687C5.94873 17.4687 9.31589 17.9641 14.3997 16.3586C19.1044 14.8729 21.8986 12.4752 21.4962 9.66468Z" fill="#C8102E"/>
<path d="M12.0063 13.9314C13.4504 13.4753 14.6773 12.795 15.3368 12.1461C15.7013 11.7872 15.8932 11.438 15.8506 11.1415C15.8343 11.0284 15.784 10.9292 15.7051 10.8433C15.2036 10.2969 13.512 10.3044 11.5744 10.9162C9.33208 11.6245 7.61076 12.8733 7.72996 13.7059C7.84928 14.5385 9.76382 14.6395 12.0063 13.9314Z" fill="#C8102E"/>
<path d="M9.60048 7.64116C4.89555 9.1271 2.10157 11.5248 2.50418 14.3352C2.98055 17.6618 8.13542 16.9576 10.7984 16.1164C12.2247 15.6658 13.1577 15.2088 13.1577 15.2088C8.32686 16.9373 4.94041 15.7034 4.94041 15.7034C6.54346 15.8159 8.05064 15.2965 8.05064 15.2965C8.05064 15.2965 6.43143 14.9702 6.21641 13.4675C5.93225 11.4836 7.62081 9.213 12.826 7.56935C15.6638 6.67326 18.0515 6.53105 18.0515 6.53105C18.0515 6.53105 14.6844 6.03578 9.60048 7.64116Z" fill="#010101"/>
<path d="M11.2707 9.66935C9.48393 10.2335 8.54923 10.9478 8.22639 11.6963L7.57715 13.2003C7.57715 13.2003 8.36516 11.7878 11.5549 10.7806C13.9601 10.0209 15.4282 10.2126 15.705 10.8433C15.7839 10.9292 15.8342 11.0284 15.8506 11.1415C15.8931 11.438 15.7012 11.7872 15.3367 12.1461C14.7342 12.9934 13.5838 13.9047 12.5745 14.5202C13.3805 14.2658 16.9982 12.5493 16.7357 10.7168C16.492 9.01631 14.3781 8.68799 11.2707 9.66935Z" fill="#010101"/>
<path d="M11.6451 11.8619C10.7089 12.1577 9.98729 12.6575 10.0333 12.9787C10.0792 13.2998 10.8753 13.3207 11.8116 13.025C12.7477 12.7293 13.4693 12.2294 13.4234 11.9082C13.3773 11.5869 12.5811 11.5662 11.6451 11.8619Z" fill="#010101"/>
</svg>
