<svg width="40" height="40" viewBox="0 0 40 40" fill="none" xmlns="http://www.w3.org/2000/svg">
<path d="M32.0516 25.3484C31.7029 25.3484 31.4199 25.631 31.4199 25.9798C31.4199 26.3283 31.7029 26.6113 32.0516 26.6113C32.4002 26.6113 32.6828 26.3283 32.6828 25.9799C32.6828 25.631 32.4002 25.3484 32.0516 25.3484ZM32.0516 26.4758C31.9864 26.4759 31.9219 26.4631 31.8617 26.4382C31.8015 26.4133 31.7468 26.3767 31.7007 26.3307C31.6547 26.2846 31.6181 26.2299 31.5932 26.1697C31.5683 26.1095 31.5555 26.045 31.5556 25.9798C31.5556 25.7058 31.7772 25.4842 32.0516 25.4842C32.3256 25.4842 32.5474 25.7058 32.5474 25.9798C32.5474 26.2539 32.3256 26.4758 32.0516 26.4758V26.4758ZM32.311 25.8335C32.311 25.8053 32.3055 25.7775 32.2947 25.7515C32.2839 25.7256 32.2681 25.702 32.2482 25.6821C32.2283 25.6622 32.2047 25.6465 32.1787 25.6358C32.1527 25.625 32.1249 25.6195 32.0968 25.6195H31.7925V26.3403H31.9278V26.0476H32.0248L32.1615 26.3403H32.311L32.1684 26.0351C32.21 26.0203 32.2461 25.993 32.2717 25.9569C32.2972 25.9208 32.3109 25.8777 32.311 25.8335ZM32.0968 25.9123H31.9278V25.7545H32.0968C32.1402 25.7545 32.1758 25.7898 32.1758 25.8335C32.1757 25.8544 32.1674 25.8744 32.1525 25.8892C32.1377 25.9039 32.1177 25.9122 32.0968 25.9123Z" fill="white"/>
<path d="M36.7218 15.7997C36.262 12.591 33.4572 11.5928 31.7711 11.2802L33.2135 10.3313C33.2135 10.3313 25.6783 8.69593 15.9319 11.7741C7.02732 14.5862 2.5335 18.9992 3.27849 24.2001C3.7382 27.4091 6.54293 28.4072 8.22883 28.7195L6.78658 29.6687C6.78658 29.6687 14.3217 31.3039 24.0686 28.2264C32.9729 25.414 37.4666 21.0012 36.7218 15.7997Z" fill="#A2AAAD"/>
<path d="M36.2742 15.9408C35.6665 11.6985 30.4266 11.627 30.4266 11.627L31.9393 10.6318C31.9393 10.6318 24.785 9.47052 15.9993 12.2452C8.24146 14.695 2.96341 18.73 3.72654 24.0589C4.33422 28.302 9.57413 28.3731 9.57413 28.3731L8.06167 29.3678C8.06167 29.3678 15.2155 30.5292 24.0015 27.7548C31.7594 25.3046 37.0376 21.2701 36.2742 15.9408H36.2742Z" fill="white"/>
<path d="M35.4599 16.198C34.6839 10.7821 26.2917 11.929 21.9562 13.2981C19.6341 14.0313 18.115 14.7756 18.115 14.7756C25.9798 11.9615 31.493 13.9703 31.493 13.9703C28.8833 13.7871 26.4298 14.6331 26.4298 14.6331C26.4298 14.6331 29.0659 15.1641 29.416 17.6104C29.8788 20.8404 27.1295 24.5371 18.6553 27.2133C14.0353 28.6718 10.1479 28.9032 10.1479 28.9032C10.1479 28.9032 15.6298 29.7098 23.9064 27.096C31.566 24.6772 36.1149 20.7737 35.4599 16.198Z" fill="#C8102E"/>
<path d="M20.0101 23.1444C22.3612 22.4019 24.3587 21.2944 25.4323 20.2379C26.0258 19.6536 26.3381 19.085 26.2689 18.6023C26.2423 18.4182 26.1604 18.2567 26.0319 18.1168C25.2155 17.2273 22.4615 17.2395 19.3071 18.2355C15.6564 19.3887 12.854 21.4219 13.0481 22.7773C13.2423 24.1328 16.3593 24.2972 20.0101 23.1444Z" fill="#C8102E"/>
<path d="M16.0935 12.9036C8.43373 15.3228 3.88502 19.2264 4.54048 23.8018C5.31603 29.2176 13.7084 28.0712 18.0437 26.7017C20.3659 25.9682 21.8849 25.2241 21.8849 25.2241C14.02 28.0382 8.50677 26.0292 8.50677 26.0292C11.1166 26.2125 13.5703 25.3669 13.5703 25.3669C13.5703 25.3669 10.9342 24.8356 10.5841 22.3891C10.1215 19.1594 12.8706 15.4627 21.3449 12.7867C25.9649 11.3279 29.8521 11.0963 29.8521 11.0963C29.8521 11.0963 24.3704 10.29 16.0935 12.9036Z" fill="#010101"/>
<path d="M18.8126 16.2056C15.9036 17.1241 14.3819 18.287 13.8563 19.5056L12.7993 21.9541C12.7993 21.9541 14.0822 19.6545 19.2753 18.0147C23.191 16.778 25.5812 17.09 26.0318 18.1168C26.1603 18.2567 26.2422 18.4182 26.2688 18.6023C26.338 19.085 26.0256 19.6536 25.4322 20.2378C24.4513 21.6173 22.5784 23.101 20.9352 24.1031C22.2474 23.6888 28.1372 20.8943 27.7099 17.9109C27.3131 15.1424 23.8716 14.6079 18.8126 16.2056Z" fill="#010101"/>
<path d="M19.4219 19.7751C17.8976 20.2567 16.7229 21.0704 16.7978 21.5933C16.8725 22.1161 18.1686 22.1502 19.6929 21.6688C21.217 21.1873 22.3918 20.3735 22.317 19.8505C22.2419 19.3275 20.9456 19.2937 19.4219 19.7751Z" fill="#010101"/>
</svg>
