<svg width="40" height="40" viewBox="0 0 40 40" fill="none" xmlns="http://www.w3.org/2000/svg">
<path d="M31.927 24.7216C31.538 24.7216 31.2222 25.037 31.2222 25.4262C31.2222 25.8151 31.538 26.1309 31.927 26.1309C32.316 26.1309 32.6314 25.8151 32.6314 25.4263C32.6314 25.037 32.316 24.7216 31.927 24.7216ZM31.927 25.9797C31.8543 25.9798 31.7823 25.9655 31.7151 25.9377C31.6479 25.9099 31.5869 25.8691 31.5355 25.8177C31.4841 25.7663 31.4433 25.7053 31.4155 25.6381C31.3878 25.5709 31.3735 25.4989 31.3736 25.4262C31.3736 25.1204 31.6208 24.8732 31.927 24.8732C32.2328 24.8732 32.4803 25.1204 32.4803 25.4262C32.4803 25.7321 32.2328 25.9797 31.927 25.9797ZM32.2165 25.2629C32.2165 25.2315 32.2103 25.2005 32.1982 25.1715C32.1862 25.1425 32.1686 25.1162 32.1464 25.094C32.1242 25.0718 32.0978 25.0543 32.0688 25.0423C32.0398 25.0303 32.0088 25.0242 31.9774 25.0242H31.6379V25.8285H31.7888V25.5019H31.8971L32.0496 25.8285H32.2165L32.0573 25.4879C32.1038 25.4713 32.144 25.4409 32.1725 25.4006C32.2011 25.3603 32.2164 25.3122 32.2165 25.2629ZM31.9774 25.3508H31.7888V25.1748H31.9774C32.0259 25.1748 32.0656 25.2142 32.0656 25.2629C32.0655 25.2863 32.0562 25.3086 32.0397 25.3251C32.0231 25.3416 32.0007 25.3508 31.9774 25.3508Z" fill="white"/>
<path d="M35.4051 24.141C35.4051 23.0072 36.5184 18.7904 28.4263 12.4216L29.7864 12.1191L29.0865 9.80925L27.736 10.7093V9.30927H25.0859C23.3602 8.06581 22.5282 6.47183 19.8033 6.47183C18.6664 6.47183 17.4719 6.69805 17.2122 6.69805C17.0133 6.69805 16.4072 6.56982 15.3761 6.56982C12.4014 6.56982 12.1284 8.78801 12.5001 9.56753C8.58834 12.2466 6.65038 14.1795 6.65038 14.8755C6.65038 15.1449 6.80896 15.4953 6.80896 16C6.80896 17.1006 4.43237 19.5242 4.43237 20.8068C4.43237 22.0054 5.95828 22.0864 5.95828 22.0864C6.04382 22.4404 5.45323 23.6123 5.98403 24.2122C5.25069 25.0094 6.1063 25.4073 6.1063 26.0421C6.1063 26.4729 5.80853 26.604 5.80853 27.397C5.80853 28.3009 6.23387 29.3939 8.46555 29.3939C9.3477 29.3939 10.1293 29.2553 10.7505 29.2553C10.9224 31.128 11.7226 31.8645 11.8542 32.3351C11.9601 32.7121 12.206 33.5282 12.7026 33.5282C13.35 33.5282 16.9224 32.3559 19.6358 30.71C20.9969 31.2163 22.7254 31.0492 23.3532 31.0492C24.0381 31.0492 24.3225 31.468 24.7253 31.468C24.9685 31.468 26.8135 29.4093 26.6961 24.9004C27.8516 26.8565 28.5374 28.129 28.6061 28.8569C30.1028 28.3222 31.3638 24.7758 30.8152 22.5189C30.8152 22.5189 32.7045 25.5863 35.5676 25.133C35.5676 25.133 35.4051 24.5737 35.4051 24.141Z" fill="#010101"/>
<path d="M33.7247 18.3996C31.8346 15.3595 28.5311 12.8031 27.7699 12.237C27.7601 12.4114 27.7101 12.5747 27.6272 12.7173C27.582 12.7963 27.5269 12.8693 27.4633 12.9344C27.393 13.0068 27.3127 13.0688 27.2249 13.1186C27.3561 13.6425 27.5568 14.3936 27.824 15.2654C28.22 16.2339 28.6676 17.4253 29.041 18.6673C29.4727 19.6946 29.9701 20.7191 30.5356 21.6288C32.8762 25.3943 35.2196 24.8765 35.2196 24.8765C34.8183 24.229 35.9977 22.0567 33.7247 18.3997V18.3996ZM27.2874 9.75006H25.5488L26.6596 10.9528H27.2874V9.75006Z" fill="#FF6720"/>
<path d="M30.5495 22.0954C30.475 21.9832 30.4025 21.8698 30.3319 21.7551C30.0098 21.2379 29.7099 20.6837 29.4311 20.1129C29.3178 19.6305 29.1853 19.1453 29.0408 18.6673C28.6673 17.4253 28.2198 16.234 27.8237 15.2654C27.5565 14.3936 27.3559 13.6425 27.2247 13.1185C27.1332 13.171 27.0346 13.2099 26.9318 13.2337C26.8525 13.2521 26.771 13.263 26.6868 13.263C26.6093 13.263 26.5335 13.2543 26.4608 13.239C26.3617 13.2177 26.266 13.183 26.1764 13.1356C25.8415 20.9115 26.6115 22.2574 26.7529 24.4763C28.717 27.5729 28.7865 28.4764 28.7865 28.4764C28.7865 28.4764 31.0794 26.8688 30.5495 22.0954Z" fill="#FFD100"/>
<path d="M29.6923 21.4201C29.625 20.9912 29.5355 20.5533 29.4309 20.113C29.3176 19.6305 29.1851 19.1453 29.0406 18.6673C28.6672 17.4253 28.2196 16.234 27.8235 15.2654C27.4346 14.3175 27.0978 13.5857 26.9317 13.2337C26.8523 13.2521 26.7708 13.263 26.6866 13.263C26.6091 13.263 26.5333 13.2543 26.4607 13.239C26.3871 14.077 26.1226 17.6542 26.6321 20.876C27.3618 25.4976 29.1137 27.1703 29.1137 27.1703C29.1137 27.1703 30.3254 25.4246 29.6923 21.4201V21.4201ZM29.6666 23.2332L28.2781 22.4834C28.2352 22.215 28.1221 21.4999 27.9812 20.6074L29.4965 21.4732C29.5976 22.1202 29.6499 22.7059 29.6666 23.2332ZM29.0773 19.5339C29.229 20.0993 29.3583 20.6659 29.454 21.2171L27.9414 20.3519C27.8567 19.8186 27.7722 19.2853 27.688 18.7519L29.0773 19.5339ZM27.283 14.5046C27.7907 15.681 28.497 17.4497 29.0021 19.2599L27.648 18.498C27.3485 16.5977 27.0349 14.6155 27.0349 14.6155C26.999 14.3872 27.2245 14.3562 27.283 14.5046L27.283 14.5046ZM26.5679 14.7439C26.5776 14.4943 26.808 14.4738 26.8354 14.6471L27.4407 18.4781L26.6379 19.2231C26.4957 17.5472 26.5175 15.9073 26.5679 14.7439ZM26.8306 20.8446C26.7597 20.394 26.7044 19.9358 26.661 19.4776L27.4784 18.7181L27.7411 20.3807L26.8939 21.2198C26.8716 21.095 26.8505 20.9699 26.8306 20.8446ZM26.9374 21.46L27.7796 20.6261L28.0788 22.5194L27.3965 23.3518C27.2272 22.7944 27.0707 22.1658 26.9374 21.46ZM27.4682 23.5823L28.131 22.7746C28.2409 23.2256 28.5882 24.6482 28.6029 24.7103C28.5776 24.7564 28.3366 25.1933 28.2076 25.4262C27.9644 24.9389 27.7074 24.3291 27.4682 23.5823ZM29.0747 26.8201C28.9041 26.6093 28.6281 26.2272 28.3189 25.6434L28.7389 24.8814L29.4912 25.5245C29.361 26.1537 29.1899 26.5808 29.0747 26.8201V26.8201ZM29.5347 25.296L28.8009 24.6686C28.6439 24.0263 28.4872 23.3838 28.3308 22.7413L29.6716 23.4653C29.68 24.1901 29.6215 24.7989 29.5347 25.296Z" fill="#001871"/>
<path d="M25.6024 12.097C21.6552 15.05 19.5311 19.4543 18.8882 20.9618C18.8882 20.9618 18.8027 21.1391 18.902 21.3322L20.1522 23.7643C20.2046 23.8657 20.3166 23.8866 20.4013 23.8098L22.4579 21.9525C22.5998 21.8246 22.6454 21.6184 22.6454 21.6184C23.5826 16.2553 24.8501 13.6323 25.6339 12.4439C25.6117 12.3577 25.5984 12.2685 25.5984 12.1759C25.5984 12.149 25.6011 12.1229 25.6024 12.097Z" fill="#C8102E"/>
<path d="M28.8765 10.5234L27.8184 11.2288L28.0621 12.0343L29.2539 11.7689L28.8765 10.5234ZM25.9673 12.9889C25.8894 12.9201 25.8217 12.8405 25.7662 12.7526C24.5008 14.7799 22.8906 19.8514 22.8906 24.1946C22.8906 28.6359 24.25 30.9956 24.7414 30.9956C25.1202 30.9956 26.4512 28.6155 26.4512 25.553C26.4512 24.7178 25.7493 21.3598 25.7493 15.0561C25.7493 13.7032 25.853 13.3419 25.9673 12.9889ZM19.1973 21.0975L20.3169 23.5157L22.3555 21.6275C22.3555 21.6275 23.3394 15.8974 25.091 12.7366C20.4697 17.2228 19.1973 21.0975 19.1973 21.0975ZM22.6758 19.0749C22.654 19.1677 22.6328 19.259 22.6119 19.3485C22.3381 20.5414 22.1773 21.4228 22.1613 21.5132C22.1596 21.518 22.1596 21.5202 22.1596 21.5202L22.0192 21.6504L20.3864 23.1632L19.4237 21.0833C19.4237 21.0833 19.456 20.9813 19.5344 20.7899C19.5632 20.7183 19.5982 20.6349 19.6394 20.5392C19.8339 20.0945 20.1737 19.3931 20.7197 18.4927C20.7764 18.3983 20.8366 18.302 20.8981 18.2036C21.6652 16.9799 22.7914 15.4307 24.4081 13.687C23.6766 15.1863 23.0732 17.3875 22.6758 19.0749V19.0749ZM26.6869 11.3516C26.2313 11.3516 25.8623 11.7207 25.8623 12.1759C25.8623 12.6312 26.2313 12.9997 26.6869 12.9997C27.1414 12.9997 27.5097 12.6312 27.5097 12.1759C27.5097 11.7207 27.1414 11.3516 26.6869 11.3516Z" fill="#00843D"/>
<path d="M25.455 13.8353C25.455 13.8353 23.2068 18.5736 23.2068 24.0944C23.2068 27.7506 24.3389 30.5438 24.6531 30.5438C24.9003 30.5438 26.0571 28.8047 26.0571 25.1751C26.0571 23.7063 25.2627 18.1354 25.455 13.8353ZM24.4962 17.0265C24.5361 16.8811 24.7412 16.8426 24.7133 17.0897C24.5635 18.3563 24.4625 19.502 24.397 20.5247L23.6047 21.1356C23.8139 19.5884 24.1541 18.1801 24.4962 17.0265ZM23.5689 21.4148L24.381 20.7882C24.3261 21.7117 24.3 22.529 24.2924 23.2394L23.4009 23.8498C23.4107 23.0152 23.4728 22.198 23.5689 21.4148ZM23.3987 24.1025L24.2906 23.4919C24.2853 24.6428 24.3275 25.4905 24.3673 26.0218L23.5641 26.5217C23.4544 25.72 23.3991 24.9117 23.3987 24.1025ZM25.5724 28.0776C25.4683 28.1508 25.1422 28.2646 24.6194 27.397C24.315 28.3187 23.9517 28.0616 23.817 27.9203C23.7359 27.5632 23.6614 27.1721 23.5976 26.7519L24.5007 26.1902L25.7536 27.0227C25.7091 27.3769 25.6487 27.7289 25.5724 28.0776ZM25.8653 25.1751C25.8653 25.7631 25.8343 26.3018 25.7811 26.79L24.6376 26.0298C24.5995 25.5291 24.5574 24.7271 24.5591 23.6337L25.8405 24.5181C25.8564 24.775 25.8653 24.9964 25.8653 25.1751ZM25.8227 24.2544L24.5601 23.3829C24.5654 22.6774 24.5883 21.861 24.642 20.9345L25.5897 21.6345C25.6836 22.6474 25.7722 23.5556 25.8227 24.2543V24.2544ZM25.5649 21.3647L24.6557 20.6935C24.7213 19.6277 24.8259 18.423 24.9845 17.083C25.0283 16.7063 25.2525 16.8979 25.2596 17.0991C25.3159 18.5282 25.4426 20.0266 25.5649 21.3647Z" fill="#FFD100"/>
<path d="M23.4648 12.8601C23.7405 12.8601 23.7046 12.4913 23.4493 12.4913C19.4976 12.4913 17.2353 12.9931 16.8876 13.0764C16.6691 11.1391 15.556 10.5226 15.556 9.26931C15.556 8.78281 15.8774 8.68384 16.1409 8.68384C17.0635 8.68384 17.7551 9.76563 19.0369 9.76563C20.2283 9.76563 20.4843 8.922 21.1628 8.922C22.1817 8.922 21.7334 11.6313 23.5402 11.6313C24.1113 11.6313 24.4857 11.4027 24.4857 11.4027C24.7285 11.2674 24.4963 10.9767 24.2885 11.0857C24.2885 11.0857 23.9256 11.2722 23.5708 11.2722C22.0444 11.2722 22.7108 8.5527 21.1228 8.5527C20.3626 8.5527 20.1091 9.38984 19.0129 9.38984C17.7887 9.38984 17.3027 8.29303 16.0887 8.29303C15.4001 8.29303 15.1538 8.75444 15.1538 9.21703C15.1538 10.6036 16.5229 11.6592 16.5229 13.5613C16.5229 15.4945 15.8627 17.1973 15.8627 19.8839C15.8627 23.0168 18.8384 23.9393 18.8384 26.8592C18.8384 28.5108 19.4719 29.5329 20.1817 29.5329C20.5721 29.5329 20.9368 29.3036 21.1077 28.6965C21.2097 28.7404 21.3036 28.7642 21.3834 28.7642C21.581 28.7642 22.3209 28.5473 22.3209 27.6778C22.3209 25.1888 18.0444 23.9003 18.0444 19.9995C18.0444 18.1241 18.3452 15.1232 18.8056 15.1232C19.0466 15.1232 19.3479 16.1735 19.9238 16.1735C20.6373 16.1735 20.3878 14.1007 20.7068 14.1007C20.9611 14.1007 21.3413 15.0684 21.7959 15.0684C22.164 15.0684 22.2863 14.3183 22.4463 13.7277C22.5043 13.4535 22.1144 13.3757 22.0595 13.6548C21.9611 14.0934 21.7528 14.6735 21.7528 14.6735C21.5216 14.4412 21.1441 13.7317 20.6877 13.7317C19.9619 13.7317 20.0678 15.8006 19.9061 15.8006C19.6013 15.8006 19.4099 14.7271 18.7489 14.7271C17.8982 14.7271 17.6457 17.6872 17.6457 20.0186C17.6457 24.1183 21.9247 25.4896 21.9247 27.6389C21.9247 28.1796 21.5322 28.3638 21.3754 28.3638C21.3116 28.3638 21.246 28.3496 21.1808 28.3248C21.2 28.1756 21.2101 28.0112 21.2101 27.8295C21.2101 26.5623 20.5131 26.3248 20.2292 26.3248C19.9455 26.3248 19.7874 26.5711 19.7874 26.9783C19.7874 27.5246 20.2694 28.1325 20.7409 28.4799C20.6709 28.8209 20.5211 29.1343 20.203 29.1343C19.5871 29.1343 19.2394 27.7077 19.2394 26.8565C19.2394 23.7771 16.2642 22.8831 16.2642 19.8052C16.2642 17.1835 16.9244 15.5025 16.9244 13.7583C16.9244 13.6497 16.9217 13.5459 16.9172 13.4439C17.3266 13.3458 19.8765 12.775 23.4648 12.8601ZM20.1879 27.0019C20.1879 26.7873 20.2428 26.7072 20.3001 26.7072C20.6461 26.7072 20.8029 27.4028 20.8029 27.6805C20.8029 27.755 20.8033 27.8951 20.7932 28.0599C20.4583 27.736 20.1879 27.2385 20.1879 27.0019Z" fill="#FFD100"/>
<path d="M17.4072 26.939C18.098 25.8741 17.7041 24.0403 16.3864 24.549C15.6252 23.3048 14.7631 21.6237 14.7631 19.543C14.7631 17.3268 15.2158 16.7446 15.2158 14.7878C15.2158 11.4517 13.6731 10.7904 12.6806 10.1192C10.3235 11.7164 7.19372 13.9049 7.19372 15.0684C7.19372 15.4132 7.3461 15.7332 7.3461 16.0717C7.3461 17.2756 5 19.6152 5 20.7475C5 21.1719 5.339 21.5286 5.88393 21.5286C6.42896 21.5286 7.81658 21.3266 8.33807 21.2707C8.85961 21.2145 8.91725 20.9645 8.91725 20.8294C8.91725 20.4913 8.3811 20.0212 7.97615 20.0212C7.63855 20.0212 7.60755 20.2203 7.60755 20.2703C7.60755 20.4922 7.92739 20.5566 7.92739 20.5566C8.33056 20.5003 8.33323 20.8561 7.94731 20.8561C7.62874 20.8561 7.27517 20.6221 7.27517 20.2176C7.27517 19.8124 7.60046 19.7113 7.84148 19.7113C8.8543 19.7113 9.43695 20.627 9.26945 21.2097C10.5255 21.8335 10.4896 22.7507 10.2854 22.7507C9.85022 22.7507 10.1524 21.5955 8.51483 21.5955C8.05502 21.5955 7.09527 21.7337 6.86891 21.7568C6.64334 21.7788 6.57509 21.8117 6.54855 21.9987C6.52112 22.1848 6.28269 22.8601 6.28269 23.2755C6.28269 23.8906 6.69205 23.9314 6.95534 23.9314C7.64382 23.9314 8.81085 23.7661 8.81085 23.4901C8.81085 23.3137 8.51483 23.3638 8.40586 23.3638C8.2003 23.3638 8.10687 23.2358 8.10687 23.1623C8.10687 22.9795 8.40238 22.8905 8.75674 22.8905C9.34343 22.8905 9.40497 23.272 9.37537 23.4512C9.31017 23.8458 9.94736 23.7507 9.94736 24.588C9.94736 24.6809 9.93895 24.9213 9.73951 24.9213C9.53837 24.9213 9.53569 24.6704 9.53569 24.5299C9.53569 24.3885 9.30623 24.1698 9.11035 24.1698C8.90212 24.1698 8.14891 24.5587 6.52554 24.4099C5.88577 25.2135 6.64156 25.2716 6.64156 26.0842C6.64156 26.9944 6.36606 26.9317 6.36606 27.487C6.36606 28.5897 7.57552 28.8777 8.78023 28.8777C11.2788 28.8777 14.094 28.2961 15.0856 26.5096C14.7444 28.0908 13.4719 28.6579 11.3089 29.149C11.5535 30.9 11.9168 31.3066 12.1809 31.7791C12.4453 32.2509 12.5025 32.9168 12.9673 32.9168C13.5242 32.9168 16.81 31.7316 19.0209 30.3997L17.4072 26.939ZM11.2792 11.844L12.4503 10.9687C12.4812 10.9458 12.5185 10.9332 12.5569 10.9326C12.5954 10.9319 12.633 10.9433 12.6647 10.9652C13.5234 11.5656 14.0005 12.153 14.0205 12.1779C14.036 12.1965 14.0476 12.2181 14.0547 12.2413C14.0618 12.2645 14.0642 12.2889 14.0618 12.313C14.0593 12.3371 14.0521 12.3605 14.0406 12.3819C14.029 12.4032 14.0133 12.422 13.9944 12.4372C13.9755 12.4524 13.9537 12.4636 13.9304 12.4703C13.9071 12.477 13.8827 12.479 13.8586 12.4762C13.8345 12.4733 13.8112 12.4657 13.7901 12.4538C13.769 12.4419 13.7504 12.4259 13.7356 12.4067C13.7316 12.4014 13.309 11.8832 12.5627 11.3411C12.5069 11.3818 12.4037 11.4599 12.2828 11.5503C12.6509 11.8619 13.6705 12.7523 14.3483 13.5945C14.3789 13.6321 14.3933 13.6803 14.3883 13.7285C14.3833 13.7767 14.3594 13.821 14.3218 13.8516C14.242 13.9147 14.1277 13.9021 14.0648 13.8239C13.3696 12.9608 12.2659 12.0139 11.982 11.7747C11.8703 11.8582 11.7644 11.9373 11.6863 11.9955C12.3545 12.5465 12.8352 13.1161 12.8569 13.142C12.9341 13.2309 12.8942 13.352 12.8344 13.3992C12.8161 13.4146 12.795 13.4262 12.7722 13.4335C12.7494 13.4407 12.7254 13.4434 12.7015 13.4413C12.6777 13.4393 12.6545 13.4325 12.6333 13.4215C12.6121 13.4105 12.5932 13.3954 12.5778 13.377C12.5721 13.37 12.0081 12.7025 11.2765 12.1342C11.1924 12.0629 11.1706 11.9247 11.2792 11.844ZM8.80465 18.1099C8.60436 18.1099 8.73645 17.6165 8.73466 17.4329C7.61634 17.4167 7.49186 17.0155 8.77891 17.0047C8.74086 16.8383 8.60746 16.1768 8.80912 15.8208L8.18086 15.5767C7.66951 15.3719 8.6434 15.0346 8.50248 14.7295C8.50248 14.7295 8.21186 14.5084 8.21186 14.2594C8.21186 14.0106 8.59995 13.7157 9.34912 13.7157C10.747 13.7157 11.1126 14.9105 12.2278 14.9105C12.4444 14.9105 13.0271 14.7926 13.0271 15.0302C13.0271 15.2676 12.557 15.5152 12.1335 15.5152C11.1582 15.5152 10.4218 14.7812 9.93092 14.7812C9.88531 14.7812 9.79188 14.7967 9.75458 14.8876L9.62259 15.1916C9.52461 15.4149 9.67403 15.5035 9.67403 15.5035L11.3984 16.5179C11.7599 16.7308 11.5685 16.901 11.3851 16.9546C11.3851 16.9546 10.3271 17.2774 9.38909 17.393C9.28716 17.862 9.01594 18.1098 8.80465 18.1098V18.1099ZM14.2854 23.4759C11.9189 22.7759 13.4232 19.8505 14.5188 20.1422C13.0847 21.443 13.8081 22.9531 14.2854 23.4759H14.2854Z" fill="#CC8A00"/>
<path d="M9.39658 14.6582L8.69791 14.844C8.55079 14.883 8.54285 14.9696 8.6793 15.0359L9.21104 15.2935C9.26599 15.3206 9.33063 15.2963 9.35449 15.2403L9.53797 14.8223C9.59292 14.6964 9.52871 14.6227 9.39658 14.6582Z" fill="#CC8A00"/>
<path d="M16.9515 24.7183C16.4792 24.5805 15.9201 25.0754 15.7016 25.8238C15.4841 26.5715 15.6905 27.2899 16.1629 27.4272C16.636 27.5646 17.1961 27.0701 17.4136 26.3217C17.6312 25.5733 17.4248 24.856 16.9515 24.7183ZM17.0331 26.2109C16.8948 26.6855 16.5696 27.009 16.3073 26.9323C16.0445 26.8565 15.944 26.4089 16.0822 25.9341C16.2205 25.4595 16.5457 25.1365 16.8075 25.2127C17.0703 25.289 17.1712 25.7364 17.0331 26.2109ZM8.40391 25.0471C8.17524 24.7244 8.04893 25.0164 7.80392 25.1418C7.55943 25.2676 7.24871 25.1995 7.3769 25.5733C7.51546 25.9762 7.22184 26.8007 7.35115 27.0532C7.45309 27.2535 7.67902 27.3341 7.86241 27.2403C8.02681 27.1556 8.1053 27.0099 8.1371 26.8401C8.22438 26.3802 7.96072 25.7449 8.08135 25.6833C8.20272 25.6212 8.56376 26.2065 8.98783 26.4042C9.14382 26.4769 9.30865 26.4985 9.47296 26.4148C9.65639 26.3208 9.72333 26.0905 9.62055 25.8907C9.49114 25.6382 8.65023 25.3943 8.40391 25.0471ZM11.7472 19.5719C11.6218 19.6053 11.4274 19.7163 11.111 19.7995C10.7955 19.8828 10.3968 19.8851 10.333 19.6436C10.3276 19.6226 10.3276 19.6 10.3303 19.5765C10.3556 19.3817 10.6417 19.1203 10.6417 19.1203C10.6417 19.1203 10.2638 19.0341 10.146 18.8762C10.1318 18.8579 10.1203 18.8379 10.1146 18.8166C10.0507 18.5758 10.3995 18.3806 10.7149 18.2974C11.0312 18.2142 11.2559 18.2147 11.3804 18.182C11.6365 18.1145 11.8527 17.9465 11.7986 17.7419C11.6994 17.3662 11.2077 17.4586 10.9356 17.5303C9.58415 17.8866 9.28465 18.4413 9.38531 18.825C9.48677 19.2089 9.92536 19.3089 9.92536 19.3089C9.92536 19.3089 9.59312 19.6121 9.69406 19.9961C9.7951 20.3796 10.3295 20.7147 11.6809 20.3585C11.9528 20.2867 12.4269 20.1246 12.3277 19.7487C12.2737 19.5444 12.0033 19.5044 11.7472 19.5719ZM26.6867 11.6484C26.3951 11.6484 26.1585 11.8841 26.1585 12.1759C26.1585 12.4675 26.3951 12.7032 26.6867 12.7032C26.9774 12.7032 27.2134 12.4675 27.2134 12.1759C27.2134 11.8841 26.9774 11.6484 26.6867 11.6484Z" fill="#C8102E"/>
<path d="M9.55781 16.1119C9.46029 16.4659 9.52901 16.875 9.55156 16.9838C10.6566 16.9176 11.1076 16.7133 11.1076 16.7133L9.55781 16.1119ZM8.0815 25.6832C7.96088 25.7448 8.22453 26.3801 8.13726 26.8401C8.21087 27.0478 8.51741 27.8081 9.03406 27.5433C9.55156 27.2783 9.11471 26.5854 8.98798 26.4042C8.56396 26.2064 8.20288 25.6211 8.0815 25.6832ZM12.4125 18.0423C11.9854 18.1546 11.5959 18.5824 10.8196 18.7873C10.5361 18.8622 10.2946 18.8762 10.1462 18.8762C10.264 19.0341 10.6419 19.1203 10.6419 19.1203C10.6419 19.1203 10.3558 19.3817 10.3305 19.5765C10.4598 19.503 10.677 19.3968 10.9618 19.3221C11.7367 19.1173 12.2862 19.2981 12.7142 19.185C12.9135 19.132 13.284 19.0296 13.1342 18.4628C12.9845 17.8961 12.6123 17.9894 12.4124 18.0423H12.4125ZM23.1139 15.6076C23.0911 15.5961 23.0647 15.5941 23.0404 15.602C23.0162 15.6099 22.996 15.6272 22.9845 15.65C22.6441 16.3254 22.3233 17.0106 22.0226 17.7046L20.898 18.2036C20.8377 18.2994 20.7782 18.3958 20.7195 18.4927L21.9109 17.9643C21.6013 18.6923 21.3461 19.3545 21.1397 19.93L19.6393 20.5392C19.6033 20.6223 19.5683 20.7059 19.5343 20.7899L21.0536 20.1724C20.5879 21.5006 20.3979 22.3123 20.3943 22.3275C20.3914 22.3397 20.391 22.3524 20.3931 22.3647C20.3951 22.3771 20.3996 22.389 20.4063 22.3996C20.413 22.4102 20.4218 22.4194 20.432 22.4267C20.4423 22.4339 20.4539 22.439 20.4662 22.4417C20.5175 22.454 20.5698 22.4223 20.5813 22.3709C20.5849 22.3558 20.7674 21.576 21.214 20.2956L22.0191 21.6504L22.1595 21.5201C22.1595 21.5201 22.1595 21.518 22.1613 21.5131L21.2978 20.059C21.5124 19.4579 21.743 18.8627 21.9894 18.274L22.6118 19.3485C22.6327 19.259 22.654 19.1677 22.6757 19.0749L22.0824 18.0523C22.4152 17.269 22.7734 16.4968 23.1564 15.7368C23.1621 15.7255 23.1656 15.7133 23.1665 15.7007C23.1675 15.6881 23.166 15.6754 23.162 15.6634C23.1581 15.6514 23.1518 15.6403 23.1435 15.6307C23.1353 15.6211 23.1252 15.6133 23.1139 15.6076V15.6076ZM33.024 18.6168C31.5291 16.2113 28.351 13.3533 27.627 12.7173C27.5817 12.7963 27.5266 12.8692 27.463 12.9344C27.9212 14.2271 29.6908 19.0753 31.3203 21.6974C32.9146 24.2618 34.4741 24.1369 34.4741 24.1369C34.4741 24.1369 34.9974 21.7913 33.024 18.6167V18.6168ZM33.9602 21.0652L32.6523 20.8264L31.1033 18.335L32.9624 18.8843C33.4356 19.6745 33.7511 20.4098 33.9602 21.0652ZM32.8108 18.6393L30.9509 18.0897L29.5171 15.784L30.8117 16.1052C31.5619 16.9291 32.2867 17.8117 32.8108 18.6393ZM27.7059 13.0445C28.2716 13.5507 29.4311 14.6181 30.5752 15.8482L29.3727 15.5497L28.5982 14.3043C28.5916 14.2936 28.5829 14.2843 28.5726 14.277C28.5624 14.2696 28.5508 14.2644 28.5385 14.2616C28.5263 14.2587 28.5136 14.2583 28.5011 14.2604C28.4887 14.2625 28.4768 14.2671 28.4662 14.2738C28.4554 14.2804 28.4461 14.2891 28.4388 14.2994C28.4314 14.3096 28.4262 14.3213 28.4233 14.3336C28.4205 14.3459 28.4201 14.3586 28.4222 14.371C28.4243 14.3835 28.4289 14.3954 28.4357 14.4061L29.2451 15.7091L29.0785 16.6204C28.4591 15.1139 27.9594 13.7515 27.7059 13.0445H27.7059ZM29.2141 16.948L29.3966 15.9517L30.8047 18.2182L30.3417 19.4752C29.9469 18.6569 29.5641 17.7859 29.2141 16.948ZM31.4844 21.596C31.1432 21.0484 30.7968 20.4036 30.4582 19.7145L30.9332 18.4256L32.4848 20.9216L32.0085 22.347C31.8352 22.1281 31.6599 21.879 31.4844 21.596ZM34.3103 23.9362C33.9744 23.8941 33.1184 23.6708 32.1512 22.5233L32.6168 21.1334L33.3523 22.3168C33.3658 22.3383 33.3872 22.3537 33.412 22.3595C33.4367 22.3653 33.4627 22.3611 33.4844 22.3478C33.5295 22.3194 33.5438 22.26 33.515 22.2152L32.7892 21.0466L34.0232 21.2719C34.4121 22.6065 34.3545 23.575 34.3103 23.9362V23.9362Z" fill="white"/>
</svg>
