<svg width="24" height="24" viewBox="0 0 24 24" fill="none" xmlns="http://www.w3.org/2000/svg">
<path d="M19.9067 15.13C19.6488 15.13 19.4395 15.3391 19.4395 15.5971C19.4395 15.8549 19.6488 16.0643 19.9067 16.0643C20.1646 16.0643 20.3736 15.8549 20.3736 15.5972C20.3736 15.3391 20.1646 15.13 19.9067 15.13ZM19.9067 15.964C19.8585 15.9641 19.8108 15.9546 19.7662 15.9362C19.7217 15.9178 19.6812 15.8908 19.6472 15.8567C19.6131 15.8226 19.5861 15.7821 19.5676 15.7376C19.5492 15.6931 19.5398 15.6453 19.5398 15.5971C19.5398 15.3944 19.7037 15.2305 19.9067 15.2305C20.1094 15.2305 20.2735 15.3944 20.2735 15.5971C20.2735 15.7999 20.1094 15.964 19.9067 15.964ZM20.0986 15.4889C20.0986 15.4681 20.0945 15.4475 20.0865 15.4283C20.0785 15.4091 20.0669 15.3916 20.0521 15.3769C20.0374 15.3622 20.0199 15.3506 20.0007 15.3426C19.9815 15.3347 19.9609 15.3306 19.9401 15.3306H19.715V15.8638H19.8151V15.6473H19.8869L19.988 15.8638H20.0986L19.9931 15.638C20.0239 15.627 20.0506 15.6068 20.0695 15.5802C20.0884 15.5535 20.0985 15.5216 20.0986 15.4889ZM19.9401 15.5472H19.8151V15.4305H19.9401C19.9723 15.4305 19.9986 15.4566 19.9986 15.4889C19.9985 15.5044 19.9923 15.5192 19.9814 15.5301C19.9704 15.541 19.9556 15.5472 19.9401 15.5472Z" fill="white"/>
<path d="M22.2124 14.7451C22.2124 13.9935 22.9505 11.1982 17.5861 6.9762L18.4878 6.77567L18.0237 5.24441L17.1285 5.84109V4.91297H15.3717C14.2277 4.08866 13.6761 3.03199 11.8698 3.03199C11.1161 3.03199 10.3242 3.18195 10.1521 3.18195C10.0202 3.18195 9.61845 3.09694 8.93492 3.09694C6.96296 3.09694 6.78198 4.56742 7.02841 5.08417C4.43522 6.86015 3.15052 8.14148 3.15052 8.60293C3.15052 8.78151 3.25565 9.01381 3.25565 9.34836C3.25565 10.078 1.68018 11.6846 1.68018 12.5349C1.68018 13.3294 2.69172 13.3831 2.69172 13.3831C2.74843 13.6178 2.35692 14.3947 2.70879 14.7923C2.22265 15.3208 2.78984 15.5846 2.78984 16.0054C2.78984 16.291 2.59245 16.3779 2.59245 16.9036C2.59245 17.5028 2.87442 18.2274 4.35383 18.2274C4.93862 18.2274 5.45677 18.1355 5.86855 18.1355C5.98252 19.3769 6.51297 19.8652 6.60019 20.1771C6.67041 20.427 6.83342 20.968 7.16265 20.968C7.59181 20.968 9.96002 20.1909 11.7588 19.0998C12.661 19.4354 13.8069 19.3247 14.223 19.3247C14.6771 19.3247 14.8656 19.6023 15.1327 19.6023C15.2939 19.6023 16.5169 18.2376 16.4391 15.2486C17.2051 16.5453 17.6598 17.3888 17.7053 17.8714C18.6975 17.5169 19.5334 15.166 19.1698 13.6698C19.1698 13.6698 20.4222 15.7033 22.3202 15.4028C22.3202 15.4028 22.2124 15.032 22.2124 14.7451Z" fill="#010101"/>
<path d="M21.0981 10.9391C19.8452 8.92379 17.6552 7.22908 17.1506 6.85379C17.1441 6.96938 17.111 7.07768 17.056 7.17219C17.026 7.22458 16.9895 7.27295 16.9474 7.31615C16.9007 7.36414 16.8475 7.40524 16.7893 7.43821C16.8763 7.7855 17.0093 8.28345 17.1864 8.86135C17.449 9.50344 17.7457 10.2932 17.9932 11.1165C18.2794 11.7975 18.6092 12.4767 18.984 13.0798C20.5356 15.5759 22.0891 15.2327 22.0891 15.2327C21.8231 14.8035 22.6049 13.3635 21.0981 10.9391V10.9391ZM16.8307 5.20518H15.6782L16.4146 6.00249H16.8307V5.20518Z" fill="#FF6720"/>
<path d="M18.9935 13.3891C18.9441 13.3147 18.896 13.2395 18.8493 13.1635C18.6357 12.8206 18.4369 12.4533 18.2521 12.0749C18.177 11.755 18.0891 11.4334 17.9933 11.1165C17.7458 10.2932 17.4491 9.50344 17.1865 8.86135C17.0094 8.28345 16.8764 7.7855 16.7894 7.43818C16.7288 7.47299 16.6634 7.49872 16.5953 7.51453C16.5427 7.52674 16.4886 7.53393 16.4329 7.53393C16.3815 7.53393 16.3312 7.5282 16.2831 7.51805C16.2174 7.50395 16.1539 7.48089 16.0945 7.44951C15.8725 12.6043 16.3829 13.4965 16.4767 14.9674C17.7787 17.0202 17.8248 17.6191 17.8248 17.6191C17.8248 17.6191 19.3447 16.5534 18.9935 13.3891Z" fill="#FFD100"/>
<path d="M18.4257 12.9414C18.381 12.6571 18.3217 12.3668 18.2524 12.0749C18.1772 11.755 18.0894 11.4334 17.9936 11.1165C17.746 10.2932 17.4494 9.50347 17.1868 8.86138C16.929 8.23297 16.7057 7.74789 16.5956 7.51453C16.543 7.52674 16.4889 7.53393 16.4331 7.53393C16.3817 7.53393 16.3315 7.5282 16.2833 7.51805C16.2346 8.07357 16.0593 10.445 16.397 12.5807C16.8807 15.6444 18.0421 16.7533 18.0421 16.7533C18.0421 16.7533 18.8453 15.596 18.4257 12.9414V12.9414ZM18.4086 14.1433L17.4881 13.6463C17.4597 13.4684 17.3847 12.9943 17.2913 12.4027L18.2958 12.9766C18.3628 13.4055 18.3975 13.7938 18.4086 14.1433ZM18.018 11.691C18.1185 12.0659 18.2042 12.4415 18.2677 12.8069L17.2649 12.2333C17.2088 11.8797 17.1528 11.5262 17.097 11.1726L18.018 11.691ZM16.8284 8.35706C17.1651 9.1369 17.6332 10.3094 17.9681 11.5094L17.0705 11.0043C16.8719 9.74458 16.664 8.43051 16.664 8.43051C16.6402 8.27921 16.7897 8.25863 16.8285 8.35703L16.8284 8.35706ZM16.3545 8.51565C16.3609 8.35017 16.5136 8.33663 16.5318 8.4515L16.933 10.9911L16.4008 11.485C16.3065 10.374 16.321 9.28693 16.3545 8.51565ZM16.5286 12.5599C16.4816 12.2612 16.4449 11.9575 16.4161 11.6537L16.958 11.1502L17.1322 12.2524L16.5706 12.8086C16.5558 12.7259 16.5418 12.643 16.5286 12.5599ZM16.5994 12.9678L17.1577 12.4151L17.356 13.6701L16.9037 14.222C16.7915 13.8524 16.6877 13.4357 16.5994 12.9678ZM16.9512 14.3747L17.3906 13.8393C17.4635 14.1383 17.6937 15.0814 17.7034 15.1225C17.6867 15.1531 17.5269 15.4427 17.4414 15.5971C17.2802 15.2741 17.1098 14.8699 16.9512 14.3747ZM18.0162 16.5212C17.9031 16.3814 17.7201 16.1281 17.5152 15.7411L17.7936 15.2359L18.2923 15.6623C18.206 16.0794 18.0926 16.3625 18.0162 16.5211V16.5212ZM18.3211 15.5108L17.8347 15.0949C17.7306 14.6691 17.6267 14.2432 17.5231 13.8173L18.4119 14.2972C18.4175 14.7777 18.3787 15.1812 18.3211 15.5108Z" fill="#001871"/>
<path d="M15.7144 6.76103C13.0977 8.71861 11.6896 11.6383 11.2634 12.6376C11.2634 12.6376 11.2067 12.7551 11.2725 12.8832L12.1013 14.4954C12.136 14.5626 12.2103 14.5765 12.2664 14.5256L13.6298 13.2944C13.7239 13.2096 13.7541 13.0729 13.7541 13.0729C14.3753 9.51757 15.2156 7.77878 15.7352 6.99099C15.7205 6.93385 15.7117 6.87472 15.7117 6.81331C15.7117 6.7955 15.7135 6.77816 15.7144 6.76103Z" fill="#C8102E"/>
<path d="M17.8843 5.71785L17.1829 6.18546L17.3444 6.71943L18.1345 6.54349L17.8843 5.71785ZM15.9557 7.35227C15.9041 7.30661 15.8592 7.25385 15.8224 7.19558C14.9835 8.5395 13.9162 11.9015 13.9162 14.7806C13.9162 17.7248 14.8173 19.2892 15.143 19.2892C15.3941 19.2892 16.2765 17.7113 16.2765 15.6812C16.2765 15.1275 15.8112 12.9014 15.8112 8.7226C15.8112 7.82576 15.8799 7.58624 15.9557 7.35227ZM11.4678 12.7276L12.21 14.3306L13.5614 13.0789C13.5614 13.0789 14.2137 9.28033 15.3748 7.18499C12.3113 10.159 11.4678 12.7276 11.4678 12.7276ZM13.7737 11.3867C13.7593 11.4483 13.7452 11.5088 13.7314 11.5681C13.5499 12.3589 13.4433 12.9432 13.4327 13.0031C13.4315 13.0063 13.4315 13.0077 13.4315 13.0077L13.3384 13.0941L12.2561 14.0969L11.6179 12.7181C11.6179 12.7181 11.6393 12.6505 11.6913 12.5237C11.7103 12.4761 11.7335 12.4209 11.7609 12.3574C11.8898 12.0627 12.1151 11.5977 12.477 11.0008C12.5146 10.9382 12.5545 10.8744 12.5953 10.8092C13.1038 9.99792 13.8504 8.97093 14.9221 7.81499C14.4372 8.80895 14.0372 10.2681 13.7737 11.3867V11.3867ZM16.4328 6.26683C16.1308 6.26683 15.8861 6.51152 15.8861 6.81331C15.8861 7.11511 16.1308 7.35943 16.4328 7.35943C16.7341 7.35943 16.9782 7.11511 16.9782 6.81331C16.9782 6.51152 16.7341 6.26683 16.4328 6.26683Z" fill="#00843D"/>
<path d="M15.6163 7.9133C15.6163 7.9133 14.126 11.0544 14.126 14.7142C14.126 17.138 14.8765 18.9896 15.0847 18.9896C15.2486 18.9896 16.0155 17.8367 16.0155 15.4306C16.0155 14.457 15.4889 10.7639 15.6163 7.9133ZM14.9807 10.0288C15.0072 9.93244 15.1432 9.90687 15.1247 10.0707C15.0254 10.9103 14.9584 11.6699 14.915 12.3478L14.3898 12.7528C14.5284 11.7272 14.754 10.7936 14.9807 10.0288ZM14.366 12.9379L14.9044 12.5225C14.868 13.1347 14.8507 13.6765 14.8456 14.1474L14.2547 14.5521C14.2612 13.9988 14.3023 13.4571 14.366 12.9379ZM14.2532 14.7196L14.8445 14.3148C14.8409 15.0778 14.8689 15.6397 14.8953 15.9919L14.3628 16.3233C14.2901 15.7918 14.2535 15.256 14.2532 14.7196ZM15.6942 17.3548C15.6252 17.4033 15.409 17.4787 15.0624 16.9036C14.8606 17.5146 14.6198 17.3441 14.5305 17.2505C14.4768 17.0138 14.4274 16.7545 14.3851 16.4759L14.9837 16.1035L15.8143 16.6554C15.7848 16.8902 15.7447 17.1236 15.6942 17.3548ZM15.8883 15.4306C15.8883 15.8204 15.8678 16.1776 15.8325 16.5012L15.0745 15.9972C15.0492 15.6653 15.0213 15.1336 15.0225 14.4088L15.8719 14.9951C15.8825 15.1654 15.8883 15.3122 15.8883 15.4306ZM15.8601 14.8203L15.0231 14.2426C15.0266 13.7749 15.0418 13.2337 15.0774 12.6195L15.7056 13.0835C15.7679 13.755 15.8266 14.3571 15.8601 14.8203V14.8203ZM15.6892 12.9047L15.0865 12.4597C15.13 11.7532 15.1993 10.9546 15.3044 10.0662C15.3335 9.81654 15.4821 9.94355 15.4868 10.0769C15.5241 11.0243 15.6081 12.0176 15.6892 12.9047Z" fill="#FFD100"/>
<path d="M14.2971 7.26691C14.4798 7.26691 14.456 7.02241 14.2868 7.02241C11.6672 7.02241 10.1675 7.35504 9.93694 7.41028C9.79208 6.12598 9.05424 5.71732 9.05424 4.8865C9.05424 4.56399 9.26729 4.49838 9.44198 4.49838C10.0536 4.49838 10.512 5.21551 11.3618 5.21551C12.1515 5.21551 12.3213 4.65626 12.771 4.65626C13.4465 4.65626 13.1493 6.45229 14.347 6.45229C14.7257 6.45229 14.9739 6.30077 14.9739 6.30077C15.1348 6.21109 14.9809 6.01834 14.8431 6.09058C14.8431 6.09058 14.6026 6.21426 14.3673 6.21426C13.3555 6.21426 13.7972 4.41144 12.7445 4.41144C12.2406 4.41144 12.0725 4.9664 11.3459 4.9664C10.5343 4.9664 10.2121 4.23931 9.40736 4.23931C8.95089 4.23931 8.7876 4.54519 8.7876 4.85184C8.7876 5.77103 9.69517 6.47082 9.69517 7.73172C9.69517 9.01325 9.25755 10.1421 9.25755 11.9231C9.25755 13.9999 11.2302 14.6115 11.2302 16.5471C11.2302 17.642 11.6501 18.3196 12.1207 18.3196C12.3795 18.3196 12.6212 18.1675 12.7345 17.7651C12.8021 17.7942 12.8644 17.81 12.9173 17.81C13.0483 17.81 13.5387 17.6661 13.5387 17.0898C13.5387 15.4397 10.7038 14.5856 10.7038 11.9997C10.7038 10.7564 10.9032 8.76709 11.2084 8.76709C11.3682 8.76709 11.5679 9.46336 11.9497 9.46336C12.4227 9.46336 12.2573 8.08929 12.4687 8.08929C12.6373 8.08929 12.8894 8.73079 13.1907 8.73079C13.4347 8.73079 13.5159 8.23356 13.6219 7.84202C13.6603 7.66023 13.4019 7.60866 13.3655 7.79369C13.3003 8.08447 13.1622 8.469 13.1622 8.469C13.0089 8.31505 12.7586 7.84467 12.4561 7.84467C11.975 7.84467 12.0452 9.21618 11.938 9.21618C11.7359 9.21618 11.609 8.50453 11.1708 8.50453C10.6069 8.50453 10.4395 10.4668 10.4395 12.0123C10.4395 14.7301 13.2761 15.6391 13.2761 17.0639C13.2761 17.4224 13.0159 17.5445 12.912 17.5445C12.8697 17.5445 12.8262 17.5351 12.783 17.5187C12.7957 17.4197 12.8024 17.3107 12.8024 17.1903C12.8024 16.3503 12.3404 16.1928 12.1521 16.1928C11.9641 16.1928 11.8593 16.3561 11.8593 16.6261C11.8593 16.9882 12.1788 17.3912 12.4914 17.6215C12.445 17.8475 12.3457 18.0553 12.1348 18.0553C11.7265 18.0553 11.496 17.1096 11.496 16.5453C11.496 14.5039 9.52366 13.9112 9.52366 11.8709C9.52366 10.1329 9.96132 9.01854 9.96132 7.86232C9.96132 7.79033 9.95954 7.72148 9.95658 7.65391C10.228 7.58886 11.9183 7.21049 14.2971 7.26691ZM12.1248 16.6417C12.1248 16.4994 12.1612 16.4463 12.1991 16.4463C12.4285 16.4463 12.5325 16.9074 12.5325 17.0916C12.5325 17.1409 12.5327 17.2338 12.526 17.3431C12.304 17.1283 12.1248 16.7985 12.1248 16.6417Z" fill="#FFD100"/>
<path d="M10.2811 16.6C10.739 15.894 10.4779 14.6784 9.60438 15.0156C9.09978 14.1908 8.52822 13.0764 8.52822 11.6971C8.52822 10.2279 8.82837 9.84198 8.82837 8.54479C8.82837 6.33321 7.80567 5.89487 7.14774 5.4499C5.58516 6.50871 3.5104 7.95951 3.5104 8.73079C3.5104 8.95935 3.61142 9.17153 3.61142 9.39591C3.61142 10.1939 2.05615 11.7449 2.05615 12.4956C2.05615 12.7769 2.28088 13.0134 2.64212 13.0134C3.00343 13.0134 3.9233 12.8795 4.26901 12.8424C4.61474 12.8051 4.65295 12.6394 4.65295 12.5499C4.65295 12.3257 4.29753 12.0141 4.02908 12.0141C3.80529 12.0141 3.78474 12.146 3.78474 12.1792C3.78474 12.3263 3.99676 12.369 3.99676 12.369C4.26403 12.3317 4.2658 12.5675 4.00996 12.5675C3.79878 12.5675 3.5644 12.4124 3.5644 12.1443C3.5644 11.8757 3.78003 11.8087 3.93981 11.8087C4.61123 11.8087 4.99747 12.4156 4.88643 12.8019C5.71909 13.2154 5.6953 13.8235 5.5599 13.8235C5.27143 13.8235 5.47178 13.0577 4.38618 13.0577C4.08137 13.0577 3.44514 13.1493 3.29508 13.1646C3.14555 13.1792 3.1003 13.201 3.08271 13.325C3.06452 13.4484 2.90646 13.896 2.90646 14.1714C2.90646 14.5791 3.17784 14.6062 3.35237 14.6062C3.80878 14.6062 4.58242 14.4966 4.58242 14.3136C4.58242 14.1967 4.38618 14.2299 4.31394 14.2299C4.17768 14.2299 4.11574 14.1451 4.11574 14.0963C4.11574 13.9752 4.31164 13.9162 4.54655 13.9162C4.93548 13.9162 4.97627 14.1691 4.95665 14.2878C4.91343 14.5495 5.33583 14.4864 5.33583 15.0415C5.33583 15.1031 5.33025 15.2624 5.19804 15.2624C5.0647 15.2624 5.06293 15.0961 5.06293 15.0029C5.06293 14.9092 4.91081 14.7642 4.78096 14.7642C4.64293 14.7642 4.14361 15.0221 3.06745 14.9234C2.64334 15.4561 3.14436 15.4946 3.14436 16.0333C3.14436 16.6367 2.96173 16.5951 2.96173 16.9633C2.96173 17.6942 3.7635 17.8852 4.56212 17.8852C6.21843 17.8852 8.08468 17.4996 8.74205 16.3153C8.51586 17.3636 7.67231 17.7394 6.23839 18.065C6.40053 19.2258 6.64139 19.4953 6.81645 19.8085C6.99177 20.1213 7.02966 20.5628 7.33778 20.5628C7.707 20.5628 9.88519 19.7771 11.3508 18.8941L10.2811 16.6ZM6.21871 6.59332L6.99504 6.01304C7.01553 5.99788 7.04025 5.9895 7.06574 5.98908C7.09122 5.98866 7.11621 5.99622 7.13718 6.01071C7.7064 6.40873 8.02274 6.79812 8.03595 6.81462C8.04623 6.82699 8.05395 6.84127 8.05865 6.85665C8.06335 6.87203 8.06494 6.88819 8.06333 6.90419C8.06172 6.92019 8.05694 6.93571 8.04927 6.94984C8.0416 6.96398 8.0312 6.97644 8.01866 6.98651C8.00612 6.99658 7.9917 7.00405 7.97625 7.00849C7.96079 7.01293 7.94461 7.01425 7.92864 7.01237C7.91267 7.01049 7.89723 7.00544 7.88323 6.99753C7.86923 6.98962 7.85694 6.97901 7.84709 6.9663C7.84444 6.96278 7.56429 6.61929 7.06958 6.25991C7.03259 6.28691 6.96415 6.33869 6.88399 6.39857C7.12806 6.60515 7.80393 7.19542 8.2533 7.75374C8.27355 7.77867 8.28307 7.81063 8.27977 7.84258C8.27648 7.87453 8.26062 7.90386 8.2357 7.92413C8.1828 7.96598 8.10701 7.95764 8.06531 7.90576C7.60449 7.33361 6.87282 6.70595 6.68461 6.54733C6.61056 6.60269 6.54034 6.65513 6.48859 6.69374C6.93154 7.059 7.25022 7.43656 7.2646 7.45375C7.31577 7.51266 7.28936 7.59294 7.24969 7.62423C7.23757 7.63445 7.22354 7.64218 7.20843 7.64697C7.19332 7.65177 7.17741 7.65353 7.16161 7.65217C7.14581 7.65081 7.13044 7.64634 7.11637 7.63903C7.1023 7.63172 7.0898 7.62171 7.07961 7.60957C7.07581 7.6049 6.70189 7.16238 6.21697 6.78569C6.16117 6.73842 6.14672 6.64678 6.21871 6.59332ZM4.57831 10.747C4.44554 10.747 4.5331 10.4199 4.53192 10.2982C3.79056 10.2875 3.70804 10.0216 4.56125 10.0144C4.53603 9.90407 4.44759 9.46557 4.58127 9.22957L4.16479 9.06774C3.82581 8.93198 4.47141 8.70837 4.378 8.50612C4.378 8.50612 4.18534 8.35955 4.18534 8.19451C4.18534 8.02957 4.44261 7.83408 4.93924 7.83408C5.86594 7.83408 6.10829 8.62613 6.84756 8.62613C6.99117 8.62613 7.37742 8.54797 7.37742 8.70544C7.37742 8.86285 7.06578 9.02701 6.78503 9.02701C6.13853 9.02701 5.65036 8.54037 5.32493 8.54037C5.29469 8.54037 5.23276 8.55065 5.20803 8.61096L5.12053 8.81246C5.05558 8.9605 5.15463 9.01923 5.15463 9.01923L6.29774 9.6917C6.53742 9.83279 6.41053 9.94564 6.2889 9.98117C6.2889 9.98117 5.58756 10.1952 4.96574 10.2718C4.89817 10.5827 4.71837 10.747 4.57831 10.747V10.747ZM8.2116 14.3042C6.64282 13.8402 7.63998 11.9009 8.36633 12.0943C7.41563 12.9566 7.8952 13.9577 8.21157 14.3042H8.2116Z" fill="#CC8A00"/>
<path d="M4.97113 8.45885L4.50797 8.58207C4.41044 8.60788 4.40518 8.66533 4.49564 8.70924L4.84813 8.88004C4.88456 8.89797 4.92741 8.8819 4.94323 8.84479L5.06486 8.56765C5.10129 8.4842 5.05872 8.43534 4.97113 8.45885Z" fill="#CC8A00"/>
<path d="M9.9794 15.1278C9.6663 15.0365 9.29562 15.3645 9.15079 15.8607C9.00662 16.3564 9.14344 16.8326 9.45657 16.9236C9.77024 17.0146 10.1415 16.6869 10.2857 16.1908C10.4299 15.6946 10.2931 15.2191 9.9794 15.1278ZM10.0335 16.1173C9.94178 16.4319 9.72621 16.6464 9.5523 16.5955C9.37814 16.5453 9.3115 16.2486 9.40311 15.9338C9.49475 15.6192 9.71036 15.4051 9.88392 15.4556C10.0581 15.5061 10.125 15.8027 10.0335 16.1173ZM4.31305 15.3458C4.16146 15.1319 4.07773 15.3255 3.91531 15.4086C3.75323 15.492 3.54725 15.4468 3.63222 15.6946C3.72408 15.9617 3.52944 16.5083 3.61516 16.6757C3.68273 16.8084 3.83251 16.8619 3.95408 16.7997C4.06306 16.7435 4.1151 16.6469 4.13618 16.5344C4.19403 16.2295 4.01925 15.8084 4.09922 15.7675C4.17968 15.7264 4.41901 16.1144 4.70013 16.2455C4.80355 16.2936 4.91281 16.3079 5.02174 16.2525C5.14333 16.1901 5.18771 16.0374 5.11958 15.905C5.03379 15.7376 4.47634 15.5759 4.31305 15.3458ZM6.52939 11.7162C6.44625 11.7383 6.31733 11.8119 6.10761 11.8671C5.89848 11.9223 5.63415 11.9238 5.59186 11.7637C5.58828 11.7498 5.58828 11.7348 5.59009 11.7193C5.60687 11.5901 5.79654 11.4168 5.79654 11.4168C5.79654 11.4168 5.54599 11.3597 5.46793 11.255C5.45852 11.2429 5.45089 11.2296 5.44706 11.2155C5.40475 11.0559 5.63592 10.9265 5.84505 10.8713C6.05474 10.8162 6.20365 10.8165 6.2862 10.7948C6.45597 10.7501 6.5993 10.6387 6.56346 10.5031C6.49766 10.254 6.1717 10.3153 5.99131 10.3628C5.09544 10.599 4.8969 10.9667 4.96363 11.2211C5.03089 11.4756 5.32164 11.5418 5.32164 11.5418C5.32164 11.5418 5.10139 11.7429 5.16831 11.9974C5.23529 12.2517 5.58952 12.4737 6.48539 12.2377C6.66569 12.19 6.97997 12.0826 6.91417 11.8334C6.87836 11.698 6.69913 11.6715 6.52939 11.7162ZM16.4329 6.46362C16.2397 6.46362 16.0828 6.61988 16.0828 6.81331C16.0828 7.00656 16.2397 7.16282 16.4329 7.16282C16.6257 7.16282 16.7821 7.00656 16.7821 6.81331C16.7821 6.61988 16.6257 6.46362 16.4329 6.46362Z" fill="#C8102E"/>
<path d="M5.07813 9.42254C5.01348 9.65723 5.05904 9.92842 5.07398 10.0005C5.80653 9.95663 6.10549 9.82124 6.10549 9.82124L5.07813 9.42254ZM4.09946 15.7675C4.0195 15.8084 4.19428 16.2295 4.13642 16.5344C4.18522 16.6721 4.38843 17.1761 4.73093 17.0006C5.07398 16.8249 4.78439 16.3656 4.70038 16.2455C4.41929 16.1144 4.17992 15.7264 4.09946 15.7675ZM6.97053 10.7023C6.68739 10.7767 6.42921 11.0603 5.91461 11.1961C5.72663 11.2458 5.56657 11.255 5.4682 11.255C5.54624 11.3597 5.79681 11.4168 5.79681 11.4168C5.79681 11.4168 5.60711 11.5901 5.59036 11.7193C5.67609 11.6706 5.82007 11.6001 6.00887 11.5506C6.52257 11.4149 6.8868 11.5348 7.17057 11.4598C7.30269 11.4246 7.54828 11.3568 7.44898 10.981C7.34971 10.6053 7.103 10.6672 6.9705 10.7023H6.97053ZM14.0647 9.08823C14.0496 9.0806 14.032 9.07927 14.016 9.08453C13.9999 9.0898 13.9865 9.10123 13.9788 9.11632C13.7532 9.56409 13.5405 10.0183 13.3412 10.4784L12.5957 10.8092C12.5557 10.8727 12.5163 10.9366 12.4774 11.0008L13.2672 10.6506C13.0619 11.1332 12.8927 11.5721 12.7559 11.9536L11.7613 12.3575C11.7374 12.4126 11.7142 12.468 11.6917 12.5237L12.6988 12.1143C12.3901 12.9948 12.2642 13.5329 12.2618 13.5429C12.2599 13.551 12.2596 13.5594 12.261 13.5676C12.2623 13.5759 12.2653 13.5837 12.2698 13.5908C12.2742 13.5978 12.28 13.6039 12.2868 13.6087C12.2936 13.6135 12.3013 13.6169 12.3094 13.6187C12.3435 13.6268 12.3781 13.6058 12.3857 13.5717C12.3881 13.5617 12.5091 13.0448 12.8052 12.196L13.3389 13.0941L13.432 13.0077C13.432 13.0077 13.432 13.0063 13.4331 13.0031L12.8607 12.0391C13.003 11.6407 13.1559 11.2461 13.3192 10.8558L13.7318 11.5681C13.7457 11.5088 13.7598 11.4483 13.7742 11.3868L13.3809 10.7089C13.6015 10.1896 13.8389 9.67769 14.0928 9.17389C14.0966 9.16643 14.0989 9.15828 14.0996 9.14993C14.1002 9.14158 14.0992 9.13318 14.0966 9.12522C14.0939 9.11726 14.0898 9.1099 14.0843 9.10355C14.0788 9.09721 14.0722 9.09201 14.0647 9.08826V9.08823ZM20.6342 11.0831C19.6432 9.48843 17.5364 7.59384 17.0564 7.17219C17.0264 7.22457 16.9899 7.27295 16.9478 7.31615C17.2515 8.17306 18.4246 11.387 19.5048 13.1252C20.5617 14.8252 21.5955 14.7425 21.5955 14.7425C21.5955 14.7425 21.9424 13.1875 20.6342 11.083V11.0831ZM21.2548 12.7061L20.3878 12.5478L19.3609 10.8962L20.5934 11.2604C20.907 11.7843 21.1162 12.2717 21.2548 12.7061ZM20.4929 11.098L19.2599 10.7337L18.3094 9.20516L19.1676 9.41812C19.6649 9.96429 20.1454 10.5494 20.4929 11.098ZM17.1087 7.38913C17.4838 7.72472 18.2524 8.43229 19.0109 9.24772L18.2137 9.04984L17.7003 8.22428C17.6959 8.21718 17.6901 8.21102 17.6833 8.20615C17.6765 8.20129 17.6689 8.19781 17.6607 8.19593C17.6526 8.19405 17.6442 8.1938 17.6359 8.19519C17.6277 8.19658 17.6198 8.19959 17.6128 8.20404C17.6056 8.20844 17.5995 8.2142 17.5946 8.22101C17.5897 8.22781 17.5862 8.23551 17.5843 8.24366C17.5825 8.25182 17.5822 8.26026 17.5836 8.26851C17.585 8.27676 17.588 8.28465 17.5925 8.29173L18.1291 9.15552L18.0187 9.75965C17.6081 8.76093 17.2768 7.85778 17.1088 7.38913H17.1087ZM18.1086 9.97678L18.2296 9.31632L19.163 10.8188L18.856 11.6521C18.5944 11.1097 18.3406 10.5323 18.1086 9.97678ZM19.6136 13.058C19.3874 12.695 19.1577 12.2676 18.9333 11.8108L19.2482 10.9563L20.2768 12.611L19.961 13.5559C19.8461 13.4107 19.7299 13.2457 19.6136 13.058ZM21.4869 14.6094C21.2642 14.5814 20.6968 14.4334 20.0556 13.6728L20.3643 12.7514L20.8519 13.5358C20.8608 13.5501 20.875 13.5603 20.8914 13.5642C20.9078 13.568 20.925 13.5652 20.9394 13.5564C20.9693 13.5376 20.9788 13.4982 20.9597 13.4685L20.4785 12.6938L21.2966 12.8432C21.5544 13.7279 21.5162 14.37 21.4869 14.6094V14.6094Z" fill="white"/>
</svg>
