<svg width="24" height="24" viewBox="0 0 24 24" fill="none" xmlns="http://www.w3.org/2000/svg">
<path d="M17.7751 16.4982C17.5254 16.4982 17.3228 16.7006 17.3228 16.9505C17.3228 17.2001 17.5254 17.4028 17.7751 17.4028C18.0248 17.4028 18.2272 17.2001 18.2272 16.9505C18.2272 16.7006 18.0248 16.4982 17.7751 16.4982ZM17.7751 17.3057C17.7285 17.3058 17.6823 17.2966 17.6392 17.2788C17.596 17.2609 17.5569 17.2348 17.5239 17.2018C17.4909 17.1688 17.4647 17.1296 17.4469 17.0865C17.429 17.0434 17.4199 16.9972 17.4199 16.9505C17.4199 16.7543 17.5786 16.5956 17.7751 16.5956C17.9714 16.5956 18.1303 16.7543 18.1303 16.9505C18.1303 17.1469 17.9714 17.3057 17.7751 17.3057ZM17.961 16.8457C17.961 16.8256 17.957 16.8056 17.9493 16.787C17.9415 16.7684 17.9302 16.7515 17.916 16.7373C17.9017 16.7231 17.8848 16.7118 17.8662 16.7041C17.8476 16.6964 17.8277 16.6925 17.8075 16.6925H17.5896V17.2087H17.6865V16.999H17.756L17.8539 17.2087H17.961L17.8588 16.9901C17.8886 16.9795 17.9145 16.9599 17.9328 16.9341C17.9511 16.9082 17.9609 16.8774 17.961 16.8457ZM17.8075 16.9021H17.6865V16.7892H17.8075C17.8386 16.7892 17.8641 16.8145 17.8641 16.8457C17.8641 16.8607 17.8581 16.875 17.8475 16.8856C17.8369 16.8962 17.8225 16.9021 17.8075 16.9021Z" fill="#A2AAAD"/>
<path d="M18.3058 15.9091L22.3202 6.67086C22.3202 6.67086 19.415 8.39135 16.0958 9.70629L21.7993 5.46584L18.2093 6.08359C17.6956 5.77586 15.9099 4.85038 13.0255 4.85038C13.0255 4.85038 12.7727 4.85635 12.5569 4.86153C12.451 4.55018 11.949 3.0759 11.949 3.0759L11.0285 4.98418C5.77194 5.66012 1.68018 8.76471 1.68018 12.1147C1.68018 13.6118 2.32265 15.5808 5.28063 16.6442L3.78846 20.3321L7.7362 17.2189C8.58448 17.3334 9.52386 17.3933 10.5385 17.3933C11.7259 17.3933 12.8937 17.3034 14.0149 17.1311L18.3346 20.9241L16.8606 16.4765C16.8606 16.4765 17.7297 16.196 18.3058 15.9091Z" fill="#A2AAAD"/>
<path d="M21.5787 7.50505C21.5787 7.50505 18.1931 9.47643 14.4228 10.7785L14.2902 10.413L20.7563 5.92823L13.5689 7.76889L17.591 6.14862C17.591 6.14862 15.8879 5.19808 13.0255 5.19808C12.7863 5.19808 12.5476 5.20387 12.3097 5.21506L11.8932 3.99182L9.65541 8.63157L6.24134 9.60122L9.40999 8.30126L10.4492 6.18299L10.6669 5.73938L10.8561 5.35395C6.08601 6.03713 2.02783 8.88072 2.02783 12.1147C2.02783 13.9273 3.02474 15.5879 5.75582 16.4418L4.34493 19.5162L7.63205 16.8559C8.48327 16.9791 9.44843 17.0458 10.5384 17.0458C11.9041 17.0458 13.106 16.9295 14.126 16.7643L17.771 20.0036L16.4088 16.2518C17.4691 15.9398 18.0371 15.6548 18.0371 15.6548L21.5787 7.50502L21.5787 7.50505Z" fill="#041E42"/>
<path d="M7.86712 11.8427L8.14896 11.2284L6.49851 10.7743C6.49851 10.7743 6.02897 11.6134 7.86712 11.8427Z" fill="#A2AAAD"/>
<path d="M17.9525 7.26157L12.6942 8.53549L11.768 5.64022L10.301 9.14197L6.31164 10.1403L9.10419 10.8238L8.56844 11.8945C8.61671 11.8957 8.66606 11.897 8.71626 11.898C8.78337 11.8991 8.8519 11.9 8.92302 11.9C9.11579 11.9 9.3114 11.8938 9.51026 11.8817C9.99711 11.8524 10.5016 11.7883 11.0155 11.6967C11.4061 11.627 11.8023 11.5414 12.2003 11.4429C12.7256 11.3132 13.2546 11.1605 13.7795 10.9925L13.477 10.1874L17.9525 7.26157ZM15.8821 16.5824C15.7409 16.6349 15.6254 16.6835 15.532 16.7603C15.4439 16.833 15.3757 16.9311 15.3259 17.0818C15.307 17.1407 15.2917 17.2006 15.2801 17.2614L16.4992 18.2231L15.8821 16.5824V16.5824ZM6.42895 16.6508C6.39076 16.6378 6.35152 16.628 6.31167 16.6217C6.27718 16.6166 6.24241 16.6136 6.20756 16.6126L5.54443 17.9375L6.79016 17.0093C6.71111 16.8646 6.61919 16.7186 6.42895 16.6508Z" fill="#A2AAAD"/>
<path d="M12.5414 14.7695C10.9983 14.4778 10.075 14.1792 10.075 14.1792C10.075 14.1792 10.7874 13.9033 11.8403 13.4202C12.7802 12.9888 13.9916 12.3925 15.2086 11.6801C16.1874 11.1076 17.1701 10.4605 18.0185 9.76363C18.0185 9.76363 13.0799 12.4581 8.97795 12.4581C6.22251 12.4581 4.94727 11.1801 4.94727 10.3228C4.94727 7.7687 9.44303 6.44709 10.4493 6.18299L10.667 5.73938C6.34739 6.58967 4.74105 8.28666 4.74105 8.28666C4.74105 8.28666 3.29716 9.15999 2.75047 10.7807C2.62263 11.1592 2.54395 11.5782 2.54395 12.0364C2.54395 13.9893 3.82377 16.5431 10.3856 16.5431C15.0394 16.5431 17.5168 15.3086 17.5168 15.3086C16.759 15.2863 16.0022 15.2369 15.2479 15.1603C14.2188 15.0563 13.3042 14.9137 12.5415 14.7695H12.5414ZM16.4126 6.11464C16.4126 6.11464 15.0596 5.45604 12.4214 5.54293L12.5429 5.89965C12.8345 5.86597 14.4232 5.71493 16.4126 6.11464Z" fill="#C8102E"/>
<path d="M8.14874 13.8973C9.77449 13.8973 11.1345 13.6067 11.8405 13.4202C12.7804 12.9888 13.9918 12.3925 15.2088 11.6801C14.1862 12.0679 10.9497 13.2215 8.65717 13.2215C5.17943 13.2215 4.0928 11.207 4.0928 10.0701C4.0928 9.05369 4.7413 8.2867 4.7413 8.2867C4.7413 8.2867 3.54297 9.12378 3.54297 10.5182C3.54297 12.8121 5.83468 13.8973 8.14874 13.8973Z" fill="white"/>
<path d="M9.4862 14.971C3.02368 14.971 2.73645 11.5285 2.7505 10.7807C2.62266 11.1592 2.54395 11.5781 2.54395 12.0364C2.54395 12.0364 2.61115 15.8454 9.99445 15.8454C12.3982 15.8454 14.5621 15.3385 15.248 15.1604C14.2188 15.0563 13.3042 14.9137 12.5415 14.7695C12.029 14.8502 11.0093 14.971 9.4862 14.971ZM17.6184 12.2096C17.4081 11.7685 16.7952 11.6921 16.2483 12.0374C15.7018 12.3841 15.4277 13.0211 15.6375 13.4621C15.8464 13.9035 16.4588 13.9798 17.0061 13.634C17.5535 13.287 17.8258 12.6504 17.6184 12.2096Z" fill="white"/>
<path d="M12.1478 13.853L12.1436 13.6981L12.0074 13.8685L11.7942 13.8962L11.9269 13.9678L11.7942 14.1405L12.021 14.0218L12.178 14.1342L12.1498 13.9494L12.3607 13.8293L12.1478 13.853ZM13.788 13.0759L13.7831 12.9177L13.6417 13.0936L13.4195 13.1218L13.5559 13.1973L13.419 13.3759L13.6562 13.2525L13.8176 13.3701L13.7906 13.1773L14.0085 13.0523L13.788 13.0759ZM14.9807 13.2035L14.9762 13.0581L14.8478 13.2179L14.6466 13.244L14.7712 13.3131L14.6466 13.4753L14.8601 13.3631L15.0081 13.4691L14.9834 13.2952L15.1803 13.1813L14.9807 13.2035ZM13.3348 14.0977V13.9539L13.2033 14.1115L13.0019 14.1314L13.1248 14.2033L12.9954 14.3643L13.2123 14.2568L13.3579 14.3665L13.3366 14.1903L13.537 14.0805L13.3348 14.0977ZM14.5155 14.264L14.5142 14.1186L14.3821 14.2773L14.1802 14.2975L14.3032 14.3692L14.1759 14.5294L14.3913 14.4208L14.5368 14.531L14.5158 14.3561L14.7162 14.2451L14.5155 14.264ZM15.4901 12.0497L15.4839 11.8656L15.322 12.0695L15.0651 12.1015L15.2233 12.1894L15.0651 12.3945L15.3371 12.2522L15.5251 12.3882L15.4919 12.1657L15.7448 12.0208L15.4901 12.0497ZM17.0988 11.0948L16.9521 11.3623L17.2585 11.1595L17.5337 11.3009L17.434 11.0369L17.7156 10.8321L17.3994 10.8958L17.3435 10.6744L17.191 10.94L16.8745 11.0079L17.0988 11.0948ZM19.6614 9.77464L19.2825 9.81763L19.2502 9.53746L19.0316 9.84775L18.6515 9.89792L18.9021 10.0302L18.6914 10.3456L19.0811 10.128L19.3812 10.3339L19.3033 9.99669L19.6614 9.77464ZM17.6556 14.4041L17.6543 14.1814L17.4507 14.4238L17.1397 14.4565L17.3302 14.5655L17.131 14.8128L17.4631 14.647L17.6884 14.8148L17.656 14.5454L17.9654 14.3762L17.6556 14.4041ZM18.2492 12.9374L18.2439 12.7336L18.061 12.96L17.7757 12.9975L17.954 13.0936L17.7751 13.323L18.0791 13.1655L18.2891 13.3162L18.2528 13.0686L18.5323 12.9066L18.2492 12.9374ZM18.7606 11.4949L18.7541 11.2721L18.5562 11.5187L18.2463 11.5585L18.4387 11.6632L18.2463 11.9137L18.5755 11.7415L18.8027 11.9059L18.7648 11.6369L19.0686 11.4608L18.7606 11.4949ZM16.0075 14.2419L15.8553 14.4249L15.6226 14.448L15.7635 14.5306L15.6157 14.7154L15.8654 14.5909L16.0346 14.7169L16.0093 14.5157L16.2397 14.3893L16.0085 14.4089L16.0075 14.2419ZM11.7682 6.133L11.0156 9.55196L12.4912 8.59455L11.7682 6.133ZM17.0974 7.7063L11.0156 9.55196C11.0156 9.55196 13.2502 10.0397 13.3182 10.0491C13.387 10.0591 17.0974 7.7063 17.0974 7.7063Z" fill="white"/>
<path d="M12.2003 11.4429L11.0155 9.55196V11.6968C11.4061 11.627 11.8024 11.5414 12.2003 11.4429ZM8.71631 11.898C8.78342 11.8991 8.85195 11.9 8.92304 11.9C9.11584 11.9 9.31145 11.8938 9.51034 11.8817L11.0155 9.55196L9.24862 10.8526L8.71631 11.898Z" fill="white"/>
<path d="M10.3775 9.20202L7.09944 10.0871L11.0158 9.55196L10.3775 9.20202ZM15.3263 17.0818L16.1345 17.7216L15.5323 16.7603C15.4442 16.833 15.376 16.9311 15.3263 17.0818ZM5.80713 17.6141L6.42928 16.6508C6.3911 16.6378 6.35186 16.628 6.312 16.6217L5.80713 17.6141V17.6141Z" fill="white"/>
<path d="M16.3301 12.1645C15.8849 12.4451 15.6513 12.9709 15.8081 13.3382C15.9636 13.7049 16.4513 13.7741 16.8961 13.4929C17.3407 13.2115 17.5732 12.686 17.4179 12.3204C17.2596 11.9525 16.7745 11.884 16.3301 12.1645Z" fill="#C8102E"/>
</svg>
