<svg width="40" height="40" viewBox="0 0 40 40" fill="none" xmlns="http://www.w3.org/2000/svg">
<path d="M28.4829 26.6078C28.1161 26.6078 27.8184 26.9052 27.8184 27.2722C27.8184 27.6389 28.1161 27.9366 28.4829 27.9366C28.8497 27.9366 29.147 27.6389 29.147 27.2722C29.147 26.9052 28.8497 26.6078 28.4829 26.6078ZM28.4829 27.794C28.4144 27.7941 28.3465 27.7806 28.2831 27.7544C28.2198 27.7282 28.1623 27.6898 28.1138 27.6413C28.0653 27.5929 28.0269 27.5353 28.0007 27.472C27.9745 27.4087 27.961 27.3408 27.9611 27.2722C27.9611 26.9839 28.1942 26.7508 28.4829 26.7508C28.7712 26.7508 29.0046 26.9839 29.0046 27.2722C29.0046 27.5606 28.7712 27.794 28.4829 27.794ZM28.7559 27.1182C28.7559 27.0887 28.75 27.0594 28.7387 27.032C28.7274 27.0047 28.7107 26.9799 28.6898 26.959C28.6689 26.9381 28.644 26.9215 28.6167 26.9102C28.5894 26.8989 28.5601 26.8931 28.5305 26.8932H28.2104V27.6515H28.3527V27.3435H28.4548L28.5985 27.6515H28.7559L28.6058 27.3304C28.6496 27.3148 28.6876 27.2861 28.7145 27.2481C28.7414 27.2101 28.7558 27.1648 28.7559 27.1182ZM28.5305 27.2011H28.3527V27.0352H28.5305C28.5762 27.0352 28.6136 27.0724 28.6136 27.1182C28.6135 27.1402 28.6047 27.1613 28.5892 27.1769C28.5736 27.1924 28.5525 27.2011 28.5305 27.2011Z" fill="#A2AAAD"/>
<path d="M29.2627 25.7425L35.1597 12.1716C35.1597 12.1716 30.892 14.6989 26.0161 16.6306L34.3945 10.4014L29.1209 11.3089C28.3662 10.8568 25.743 9.49731 21.506 9.49731C21.506 9.49731 21.1346 9.50608 20.8176 9.51369C20.662 9.05633 19.9245 6.89062 19.9245 6.89062L18.5724 9.69386C10.8506 10.6868 4.83984 15.2474 4.83984 20.1685C4.83984 22.3677 5.78363 25.2602 10.1289 26.8223L7.93689 32.2397L13.7361 27.6665C14.9821 27.8347 16.3621 27.9226 17.8526 27.9226C19.5969 27.9226 21.3123 27.7907 22.9594 27.5375L29.3049 33.1093L27.1397 26.5759C27.1397 26.5759 28.4163 26.1638 29.2627 25.7425Z" fill="#A2AAAD"/>
<path d="M34.0705 13.397C34.0705 13.397 29.0971 16.2929 23.5586 18.2056L23.3638 17.6687L32.8624 11.0807L22.3042 13.7846L28.2126 11.4044C28.2126 11.4044 25.7108 10.0081 21.506 10.0081C21.1546 10.0081 20.804 10.0166 20.4545 10.033L19.8427 8.23611L16.5554 15.0518L11.5402 16.4762L16.1949 14.5666L17.7214 11.4549L18.0412 10.8032L18.3192 10.2371C11.312 11.2406 5.35059 15.4178 5.35059 20.1686C5.35059 22.8312 6.81503 25.2705 10.8269 26.5249L8.75437 31.0412L13.5831 27.1332C14.8335 27.3143 16.2513 27.4122 17.8525 27.4122C19.8587 27.4122 21.6243 27.2414 23.1225 26.9987L28.477 31.7572L26.4761 26.2458C28.0335 25.7876 28.868 25.3689 28.868 25.3689L34.0705 13.397L34.0705 13.397Z" fill="#041E42"/>
<path d="M13.9282 19.769L14.3422 18.8665L11.9177 18.1995C11.9177 18.1995 11.228 19.432 13.9282 19.769Z" fill="#A2AAAD"/>
<path d="M28.7438 13.0393L21.0195 14.9107L19.659 10.6576L17.5038 15.8016L11.6436 17.2682L15.7458 18.2722L14.9588 19.8451C15.0297 19.8468 15.1022 19.8487 15.176 19.8502C15.2745 19.8517 15.3752 19.8531 15.4797 19.8531C15.7629 19.8531 16.0502 19.844 16.3423 19.8262C17.0575 19.7832 17.7985 19.689 18.5534 19.5545C19.1273 19.4521 19.7093 19.3263 20.2939 19.1816C21.0657 18.9912 21.8427 18.7668 22.6138 18.5201L22.1694 17.3373L28.7438 13.0393ZM25.7024 26.7315C25.4951 26.8085 25.3253 26.8799 25.1881 26.9928C25.0587 27.0996 24.9585 27.2437 24.8854 27.4651C24.8576 27.5516 24.8351 27.6397 24.8182 27.7289L26.609 29.1417L25.7024 26.7315V26.7315ZM11.8159 26.8319C11.7598 26.8128 11.7022 26.7985 11.6437 26.7893C11.593 26.7817 11.5419 26.7773 11.4907 26.7758L10.5166 28.7221L12.3466 27.3587C12.2304 27.1461 12.0954 26.9315 11.8159 26.8319Z" fill="#A2AAAD"/>
<path d="M20.795 24.0684C18.5281 23.6398 17.1719 23.2012 17.1719 23.2012C17.1719 23.2012 18.2184 22.7959 19.7651 22.0862C21.1457 21.4525 22.9253 20.5766 24.713 19.53C26.1509 18.6891 27.5944 17.7385 28.8407 16.7148C28.8407 16.7148 21.586 20.6729 15.5603 20.6729C11.5126 20.6729 9.63933 18.7955 9.63933 17.5362C9.63933 13.7843 16.2435 11.8429 17.7217 11.4549L18.0415 10.8032C11.6961 12.0523 9.3364 14.5452 9.3364 14.5452C9.3364 14.5452 7.21534 15.8281 6.41226 18.2089C6.22448 18.7648 6.10889 19.3803 6.10889 20.0535C6.10889 22.9222 7.98893 26.6737 17.6282 26.6737C24.4646 26.6737 28.1037 24.8603 28.1037 24.8603C26.9905 24.8275 25.8789 24.7549 24.7709 24.6425C23.259 24.4896 21.9155 24.2802 20.7951 24.0684H20.795ZM26.4817 11.3545C26.4817 11.3545 24.4942 10.387 20.6186 10.5147L20.7971 11.0387C21.2256 10.9892 23.5593 10.7673 26.4817 11.3545Z" fill="#C8102E"/>
<path d="M14.342 22.787C16.7302 22.787 18.7281 22.3602 19.7652 22.0862C21.1458 21.4525 22.9253 20.5765 24.7131 19.53C23.2109 20.0996 18.4566 21.7943 15.0889 21.7943C9.9801 21.7943 8.38386 18.835 8.38386 17.165C8.38386 15.6719 9.3365 14.5452 9.3365 14.5452C9.3365 14.5452 7.57617 15.7748 7.57617 17.8232C7.57617 21.1929 10.9427 22.787 14.342 22.787Z" fill="white"/>
<path d="M16.307 24.3643C6.8136 24.3643 6.39167 19.3073 6.41231 18.2089C6.22452 18.7648 6.10889 19.3803 6.10889 20.0535C6.10889 20.0535 6.20761 25.6488 17.0536 25.6488C20.5847 25.6488 23.7634 24.9042 24.7709 24.6425C23.259 24.4896 21.9155 24.2802 20.7951 24.0684C20.0422 24.1869 18.5444 24.3643 16.307 24.3643ZM28.253 20.3078C27.9441 19.66 27.0437 19.5477 26.2404 20.0549C25.4375 20.5642 25.0349 21.5 25.3431 22.1478C25.65 22.7962 26.5496 22.9083 27.3535 22.4003C28.1577 21.8906 28.5577 20.9554 28.253 20.3078Z" fill="white"/>
<path d="M20.2169 22.7219L20.2107 22.4945L20.0106 22.7447L19.6975 22.7855L19.8923 22.8906L19.6975 23.1443L20.0306 22.9699L20.2612 23.135L20.2198 22.8636L20.5296 22.6872L20.2169 22.7219ZM22.6263 21.5804L22.6191 21.348L22.4114 21.6065L22.085 21.6478L22.2853 21.7588L22.0842 22.0211L22.4327 21.8398L22.6698 22.0126L22.6301 21.7294L22.9502 21.5458L22.6263 21.5804ZM24.3783 21.7678L24.3717 21.5543L24.1831 21.789L23.8876 21.8273L24.0706 21.9289L23.8876 22.1672L24.2012 22.0024L24.4186 22.1581L24.3823 21.9025L24.6716 21.7353L24.3783 21.7678ZM21.9605 23.0814V22.8702L21.7674 23.1017L21.4716 23.1309L21.6521 23.2366L21.4619 23.4731L21.7806 23.3151L21.9945 23.4762L21.9632 23.2175L22.2575 23.0563L21.9605 23.0814ZM23.695 23.3258L23.6931 23.1121L23.499 23.3452L23.2024 23.375L23.383 23.4802L23.1961 23.7156L23.5125 23.5561L23.7262 23.718L23.6955 23.4611L23.9898 23.2979L23.695 23.3258ZM25.1267 20.0729L25.1175 19.8026L24.8796 20.102L24.5024 20.1491L24.7347 20.2782L24.5024 20.5795L24.9019 20.3704L25.1781 20.5702L25.1293 20.2434L25.5008 20.0306L25.1267 20.0729ZM27.4897 18.6703L27.2744 19.0632L27.7245 18.7653L28.1286 18.973L27.9821 18.5851L28.3959 18.2843L27.9314 18.3779L27.8493 18.0527L27.6252 18.4429L27.1603 18.5425L27.4897 18.6703ZM31.2542 16.7309L30.6977 16.7941L30.6502 16.3825L30.3291 16.8383L29.7706 16.912L30.1388 17.1064L29.8293 17.5697L30.4017 17.25L30.8426 17.5524L30.7282 17.0571L31.2542 16.7309ZM28.3078 23.5316L28.3057 23.2044L28.0068 23.5604L27.5499 23.6086L27.8297 23.7687L27.5372 24.1319L28.025 23.8883L28.356 24.1349L28.3083 23.7391L28.7628 23.4905L28.3078 23.5316ZM29.1796 21.377L29.1719 21.0777L28.9032 21.4101L28.4842 21.4653L28.746 21.6065L28.4832 21.9434L28.9298 21.7121L29.2384 21.9334L29.185 21.5697L29.5956 21.3318L29.1796 21.377ZM29.9309 19.2579L29.9215 18.9307L29.6307 19.2929L29.1755 19.3514L29.4581 19.5052L29.1755 19.8731L29.6591 19.6203L29.9929 19.8617L29.9371 19.4666L30.3834 19.2079L29.9309 19.2579ZM25.8867 23.2933L25.6631 23.5622L25.3212 23.596L25.5283 23.7173L25.3111 23.9888L25.6779 23.8059L25.9265 23.9911L25.8894 23.6955L26.2278 23.5098L25.8882 23.5386L25.8867 23.2933ZM19.6592 11.3814L18.5537 16.4038L20.7213 14.9974L19.6592 11.3814ZM27.4878 13.6926L18.5537 16.4038C18.5537 16.4038 21.8363 17.1203 21.9361 17.1341C22.0373 17.1488 27.4878 13.6926 27.4878 13.6926Z" fill="white"/>
<path d="M20.2937 19.1816L18.5533 16.4038V19.5545C19.1271 19.4521 19.7091 19.3263 20.2937 19.1816ZM15.1758 19.8501C15.2744 19.8517 15.375 19.853 15.4795 19.853C15.7627 19.853 16.05 19.8439 16.3422 19.8262L18.5533 16.4038L15.9577 18.3144L15.1758 19.8501Z" fill="white"/>
<path d="M17.6162 15.8898L12.8007 17.19L18.5538 16.4039L17.6162 15.8898ZM24.8858 27.4651L26.0732 28.4049L25.1885 26.9928C25.059 27.0995 24.9589 27.2437 24.8858 27.4651ZM10.9023 28.247L11.8163 26.8319C11.7602 26.8128 11.7025 26.7985 11.644 26.7893L10.9023 28.247V28.247Z" fill="white"/>
<path d="M26.3605 20.2416C25.7065 20.6539 25.3633 21.4263 25.5936 21.9657C25.8221 22.5045 26.5386 22.6061 27.1919 22.1929C27.8451 21.7796 28.1866 21.0077 27.9584 20.4706C27.7259 19.9302 27.0133 19.8295 26.3605 20.2416Z" fill="#C8102E"/>
</svg>
