<svg width="40" height="40" viewBox="0 0 40 40" fill="none" xmlns="http://www.w3.org/2000/svg">
<path d="M34.0024 21.3694C33.6524 21.3694 33.3682 21.6532 33.3682 22.0034C33.3682 22.3534 33.6524 22.6375 34.0024 22.6375C34.3525 22.6375 34.6362 22.3534 34.6362 22.0035C34.6362 21.6532 34.3525 21.3694 34.0024 21.3694ZM34.0024 22.5015C33.937 22.5015 33.8722 22.4887 33.8118 22.4637C33.7513 22.4387 33.6964 22.402 33.6501 22.3558C33.6039 22.3095 33.5672 22.2546 33.5422 22.1941C33.5172 22.1337 33.5043 22.0689 33.5044 22.0035C33.5044 21.7283 33.7269 21.5058 34.0024 21.5058C34.2776 21.5058 34.5004 21.7283 34.5004 22.0035C34.5004 22.2787 34.2776 22.5015 34.0024 22.5015ZM34.2629 21.8565C34.2629 21.8282 34.2573 21.8003 34.2465 21.7742C34.2357 21.7481 34.2198 21.7244 34.1999 21.7045C34.1799 21.6845 34.1562 21.6687 34.1301 21.658C34.104 21.6472 34.076 21.6416 34.0478 21.6417H33.7423V22.3654H33.8781V22.0715H33.9756L34.1128 22.3654H34.263L34.1197 22.0589C34.1615 22.0441 34.1978 22.0166 34.2234 21.9804C34.2491 21.9442 34.2629 21.9009 34.263 21.8565H34.2629ZM34.0478 21.9356H33.8781V21.7773H34.0478C34.0915 21.7773 34.1271 21.8127 34.1271 21.8565C34.127 21.8775 34.1187 21.8976 34.1038 21.9124C34.0889 21.9273 34.0688 21.9356 34.0478 21.9356Z" fill="white"/>
<path d="M32.5566 22.063C33.5358 20.6444 34.0382 19.2267 34.0382 17.8458C34.0382 14.2032 30.3133 11.7549 24.7682 11.7549C24.7682 11.7549 24.5034 11.7594 24.3192 11.7623C23.7583 10.8431 22.7137 10.3311 21.8354 10.1437L20.1556 7.48868L16.5967 13.3044C10.1532 15.7032 5.66065 20.1828 5.66065 24.2256C5.66065 25.7371 6.30912 27.0767 7.52589 28.1237L4.83984 32.5113C4.83984 32.5113 9.55187 31.7606 16.6807 31.3477L17.1158 30.1965C19.2042 29.9759 21.3781 29.4382 23.4474 28.6341C23.4661 28.7735 23.4978 28.92 23.5702 29.0643L23.9599 29.8423C24.5432 31.0096 25.6997 32.401 27.8937 32.401C33.489 32.401 35.1585 27.6736 35.1585 27.6736C35.2308 23.9544 32.5566 22.063 32.5566 22.063Z" fill="white"/>
<path d="M32.1326 22.1271C33.1417 20.7439 33.725 19.2854 33.725 17.8457C33.725 14.5626 30.4558 12.0679 24.7682 12.0679C24.5619 12.0679 24.3551 12.0727 24.1479 12.0791C23.6204 11.0469 22.4316 10.5619 21.6395 10.4204L20.1605 8.08142L16.8088 13.5569C10.8203 15.7584 5.97394 20.0708 5.97394 24.2256C5.97394 25.7215 6.65458 27.0529 7.93137 28.06L5.45557 32.1051C5.45557 32.1051 10.5713 31.3632 16.4597 31.0461L16.8904 29.9065C19.2344 29.6803 21.5844 29.0667 23.754 28.1784C23.7409 28.2675 23.7005 28.624 23.8504 28.924L24.2397 29.703C24.8559 30.9348 25.9725 32.0879 27.8933 32.0879C33.2608 32.0879 34.8454 27.62 34.8454 27.62C34.8454 25.1244 33.7 23.3137 32.1326 22.1271Z" fill="#236192"/>
<path d="M33.2036 26.1993C32.8612 26.721 32.3004 27.3308 32.1355 27.507L32.1325 29.0678L32.0314 29.0778L31.8185 29.0981L31.2802 28.2654C27.376 31.0069 24.4463 29.3207 24.4463 29.3207L25.326 30.6744C26.8929 32.6831 32.012 31.9588 34.1945 28.2415L33.8985 28.23C33.847 27.3855 33.2036 26.1993 33.2036 26.1993Z" fill="#010101"/>
<path d="M27.4576 20.397L22.7089 12.8889C22.5455 12.8538 22.3704 12.8373 22.1853 12.8373L26.953 20.3756C27.1186 20.3777 27.2872 20.3842 27.4576 20.397ZM12.9996 21.3694L20.1711 9.65298L20.6342 10.3856C20.8232 10.4047 21.0028 10.4296 21.1723 10.4597L20.1654 8.86755L12.9346 20.6811C12.9354 20.8235 12.9461 21.0752 12.9996 21.3694Z" fill="#A2AAAD"/>
<path d="M20.9638 26.0907C18.2399 26.0907 16.4172 27.4543 13.9361 27.4543C10.4823 27.4543 9.4234 25.0171 9.4234 23.3306C9.4234 18.1335 15.5502 15.0005 15.5502 15.0005L15.6708 14.8035C15.6503 14.8125 15.5975 14.8377 15.5188 14.8761C14.5011 15.378 9.00249 18.3199 9.00249 23.3306C9.00249 24.1328 9.18699 24.8566 9.51127 25.478C9.58405 25.6169 9.66424 25.7519 9.75148 25.8822L6.26953 31.5697C6.26953 31.5697 10.5656 30.9571 16.1662 30.6463L17.4647 27.2105C18.6006 26.8761 19.7091 26.5407 21.1397 26.5407C24.1695 26.5407 26.1168 28.1629 26.1168 28.1629C26.1168 28.1629 25.0077 26.0907 20.9638 26.0907Z" fill="#A2AAAD"/>
<path d="M22.1853 12.8373C20.941 12.8408 19.2375 13.6202 17.4347 14.8933L18.2549 13.5564L18.8165 13.1021L19.2443 11.5512L19.9392 11.3375L20.144 10.3481C20.3151 10.356 20.477 10.3694 20.6342 10.3855L20.1711 9.65295L12.9996 21.3694C13.1523 22.2086 13.6565 23.395 15.2884 23.395C18.5563 23.395 23.2809 20.3742 26.875 20.3742C26.9005 20.3742 26.9268 20.3755 26.953 20.3755L22.1853 12.8373V12.8373ZM10.019 26.2394L7.07861 31.0427C7.07861 31.0427 10.7416 30.5528 15.8731 30.2478L16.966 27.3545C15.9911 27.6314 14.9603 27.872 13.6615 27.872C12.199 27.872 10.8776 27.2695 10.019 26.2394Z" fill="#6F263D"/>
<path d="M29.3494 30.2921L29.5894 29.8956C26.3384 30.9725 24.9951 29.8582 24.9951 29.8582C26.0946 31.0941 28.4588 30.5535 29.3494 30.2921Z" fill="#A2AAAD"/>
<path d="M25.4852 30.5185C26.4214 31.6655 29.2713 31.5467 31.5031 30.2115L31.6704 29.7701C30.2716 30.73 27.1609 31.6189 25.4852 30.5185ZM20.2144 18.1017L18.7408 22.0192C18.7408 22.0192 16.6892 22.7945 15.3354 23.0157C18.05 23.2213 22.7649 20.1491 25.8461 20.1491C24.4592 19.7157 21.1269 21.0289 21.1269 21.0289L20.2144 18.1017Z" fill="#A2AAAD"/>
<path d="M20.1782 19.3788C19.8987 20.1215 19.5801 20.9692 19.2769 21.7752L20.7376 21.1729C20.564 20.617 20.3676 19.9877 20.1782 19.3788Z" fill="#236192"/>
<path d="M15.5192 14.8761C10.9235 16.663 7.35938 19.8616 7.35938 23.0779C7.35938 24.4675 7.98071 25.5495 8.96446 26.372L9.51174 25.478C9.18746 24.8565 9.00296 24.1328 9.00296 23.3305C9.00296 18.3199 14.5016 15.378 15.5193 14.8761H15.5192ZM31.5207 21.708C32.0688 20.8032 32.3759 19.8623 32.3759 18.9195C32.3759 15.3333 28.2359 13.793 24.405 13.4888C24.3799 13.7859 24.3125 14.1079 24.1926 14.4567L27.9849 20.452C29.1687 20.6119 30.4174 21.0239 31.5207 21.708ZM22.7097 12.889C23.249 13.0041 23.6658 13.3155 23.9151 13.8599C24.226 12.6739 23.8379 10.931 21.173 10.4597C20.9947 10.4283 20.8152 10.4035 20.635 10.3856C20.472 10.3685 20.3085 10.356 20.1448 10.3481L19.9399 11.3375L19.245 11.5512L18.8173 13.1021L18.2557 13.5564L17.4354 14.8934C19.2381 13.6202 20.9418 12.8408 22.186 12.8373C22.3711 12.8373 22.5462 12.8538 22.7097 12.889Z" fill="white"/>
<path d="M26.8793 20.7027C22.9415 20.7027 18.6156 23.7709 15.2194 23.7709C14.2112 23.7709 13.9072 23.3967 13.9072 23.3967L13.7601 23.6251C13.7601 23.6251 9.59696 21.6267 15.2817 15.4401C15.2817 15.4401 10.3869 17.9923 9.99707 23.1561L10.2932 22.9091C10.2932 22.9091 10.1391 26.3843 14.0741 26.3843C17.2389 26.3843 18.3613 25.2094 21.2975 25.2094C27.5616 25.2094 28.5653 28.7803 28.5653 28.7803C28.5653 28.7803 24.4602 29.9905 24.1895 27.7236C24.1895 27.7236 23.5633 30.3794 28.8248 29.0428C28.8248 29.0428 29.1571 28.5226 29.1174 27.8444C29.1174 27.8444 29.603 28.3322 29.6871 28.7047C29.6871 28.7047 30.0855 28.2492 29.4465 27.0219C29.4465 27.0219 29.992 27.5205 30.347 28.2475L30.5671 28.0622C30.5671 28.0622 30.5837 27.531 29.5264 26.1048L28.8075 26.5563C28.8075 26.5563 27.133 23.393 20.9077 23.7991C20.9077 23.7991 26.092 21.9601 29.1081 25.7044L29.7578 25.2597C29.7578 25.2597 31.5673 27.0181 32.0323 29.0778L32.1333 29.0678L32.1363 27.507L32.1402 25.6426L32.6646 26.2566C32.6646 26.2566 32.9185 25.7951 32.6142 24.8306C32.6142 24.8306 33.8322 26.0209 34.1953 28.2415L34.2892 27.0056C34.2892 25.9408 32.5211 20.7027 26.8793 20.7027ZM31.412 24.2523L31.2321 25.5924L30.3917 24.7061L29.9805 24.921C29.4151 24.2047 27.2357 22.3906 24.6839 22.3906C21.0232 22.3906 17.8913 25.034 14.756 25.034C11.3338 25.034 11.196 22.9908 11.196 22.1822C11.196 20.6812 12.0747 19.0444 12.0747 19.0444C11.7738 19.9628 10.491 24.4847 14.994 24.4847C18.5376 24.4847 20.4363 22.0381 24.5667 22.0381C28.5407 22.0381 30.145 24.3033 30.145 24.3033L30.454 24.1085L31.0405 24.7404L31.0854 24.0867L31.4464 23.455C30.6119 21.8086 28.7466 21.2298 28.7466 21.2298C31.1895 21.6885 31.9214 23.4715 31.9214 23.4715L31.412 24.2523Z" fill="white"/>
<path d="M17.7483 27.6359L17.4009 28.5562C19.4637 28.4847 21.5503 28.0637 23.4846 27.3909C21.3634 26.4064 18.0842 27.5175 17.7483 27.6359Z" fill="white"/>
<path d="M23.3356 12.529C22.2123 11.4601 19.5569 12.333 19.5569 12.333L19.4858 12.6184C22.159 11.6202 23.3356 12.529 23.3356 12.529Z" fill="#236192"/>
<path d="M18.3447 13.9668C21.6686 12.1086 23.0289 12.6078 23.5401 13.0554C21.9577 11.3949 18.6214 13.543 18.6214 13.543L18.3448 13.9669L18.3447 13.9668Z" fill="#A2AAAD"/>
</svg>
