<svg width="40" height="40" viewBox="0 0 40 40" fill="none" xmlns="http://www.w3.org/2000/svg">
<path d="M28.4834 26.6078C28.1166 26.6078 27.8188 26.9052 27.8188 27.2722C27.8188 27.6389 28.1166 27.9366 28.4834 27.9366C28.8502 27.9366 29.1475 27.6389 29.1475 27.2722C29.1475 26.9052 28.8502 26.6078 28.4834 26.6078ZM28.4834 27.794C28.4149 27.7941 28.347 27.7806 28.2836 27.7544C28.2203 27.7282 28.1628 27.6898 28.1143 27.6413C28.0658 27.5929 28.0274 27.5353 28.0012 27.472C27.975 27.4087 27.9615 27.3408 27.9616 27.2722C27.9616 26.9839 28.1947 26.7508 28.4834 26.7508C28.7717 26.7508 29.0051 26.9839 29.0051 27.2722C29.0051 27.5606 28.7717 27.794 28.4834 27.794ZM28.7564 27.1182C28.7564 27.0887 28.7505 27.0594 28.7392 27.032C28.7278 27.0047 28.7112 26.9799 28.6903 26.959C28.6694 26.9381 28.6445 26.9215 28.6172 26.9102C28.5898 26.8989 28.5605 26.8931 28.531 26.8932H28.2108V27.6515H28.3531V27.3435H28.4553L28.599 27.6515H28.7564L28.6063 27.3304C28.6501 27.3148 28.6881 27.2861 28.715 27.2481C28.7418 27.2101 28.7563 27.1648 28.7564 27.1182ZM28.531 27.2011H28.3531V27.0352H28.531C28.5767 27.0352 28.6141 27.0724 28.6141 27.1182C28.614 27.1402 28.6052 27.1613 28.5897 27.1769C28.5741 27.1924 28.553 27.2011 28.531 27.2011Z" fill="#A2AAAD"/>
<path d="M29.2629 25.7425L35.1599 12.1716C35.1599 12.1716 30.8922 14.6989 26.0164 16.6306L34.3948 10.4014L29.1211 11.3089C28.3665 10.8568 25.7433 9.49731 21.5062 9.49731C21.5062 9.49731 21.1348 9.50608 20.8178 9.51369C20.6623 9.05633 19.9248 6.89062 19.9248 6.89062L18.5727 9.69386C10.8508 10.6868 4.84009 15.2474 4.84009 20.1685C4.84009 22.3677 5.78387 25.2602 10.1291 26.8223L7.93713 32.2397L13.7363 27.6665C14.9824 27.8347 16.3623 27.9226 17.8528 27.9226C19.5972 27.9226 21.3126 27.7907 22.9596 27.5375L29.3052 33.1093L27.1399 26.5759C27.1399 26.5759 28.4165 26.1638 29.2629 25.7425Z" fill="#A2AAAD"/>
<path d="M34.0707 13.397C34.0707 13.397 29.0974 16.2929 23.5588 18.2056L23.364 17.6687L32.8626 11.0807L22.3045 13.7846L28.2129 11.4044C28.2129 11.4044 25.711 10.0081 21.5062 10.0081C21.1549 10.0081 20.8042 10.0166 20.4547 10.033L19.843 8.23611L16.5556 15.0518L11.5404 16.4762L16.1951 14.5666L17.7216 11.4549L18.0415 10.8032L18.3194 10.2371C11.3122 11.2406 5.35083 15.4178 5.35083 20.1686C5.35083 22.8312 6.81527 25.2705 10.8272 26.5249L8.75461 31.0412L13.5833 27.1332C14.8338 27.3143 16.2516 27.4122 17.8527 27.4122C19.8589 27.4122 21.6246 27.2414 23.1228 26.9987L28.4772 31.7572L26.4763 26.2458C28.0337 25.7876 28.8682 25.3689 28.8682 25.3689L34.0708 13.397L34.0707 13.397Z" fill="#041E42"/>
<path d="M13.9284 19.769L14.3425 18.8665L11.918 18.1995C11.918 18.1995 11.2282 19.432 13.9284 19.769Z" fill="#A2AAAD"/>
<path d="M28.7438 13.0393L21.0195 14.9107L19.659 10.6576L17.5038 15.8016L11.6436 17.2682L15.7458 18.2722L14.9588 19.8451C15.0297 19.8468 15.1022 19.8487 15.176 19.8502C15.2745 19.8517 15.3752 19.8531 15.4797 19.8531C15.7629 19.8531 16.0502 19.844 16.3423 19.8262C17.0575 19.7832 17.7985 19.689 18.5534 19.5545C19.1273 19.4521 19.7093 19.3263 20.2939 19.1816C21.0657 18.9912 21.8427 18.7668 22.6138 18.5201L22.1694 17.3373L28.7438 13.0393ZM25.7024 26.7315C25.4951 26.8085 25.3253 26.8799 25.1881 26.9928C25.0587 27.0996 24.9585 27.2437 24.8854 27.4651C24.8576 27.5516 24.8351 27.6397 24.8182 27.7289L26.609 29.1417L25.7024 26.7315V26.7315ZM11.8159 26.8319C11.7598 26.8128 11.7022 26.7985 11.6437 26.7893C11.593 26.7817 11.5419 26.7773 11.4907 26.7758L10.5166 28.7221L12.3466 27.3587C12.2304 27.1461 12.0954 26.9315 11.8159 26.8319Z" fill="#A2AAAD"/>
<path d="M20.795 24.0684C18.5281 23.6398 17.1719 23.2012 17.1719 23.2012C17.1719 23.2012 18.2184 22.7959 19.7651 22.0862C21.1457 21.4525 22.9253 20.5766 24.713 19.53C26.1509 18.6891 27.5944 17.7385 28.8407 16.7148C28.8407 16.7148 21.586 20.6729 15.5603 20.6729C11.5126 20.6729 9.63933 18.7955 9.63933 17.5362C9.63933 13.7843 16.2435 11.8429 17.7217 11.4549L18.0415 10.8032C11.6961 12.0523 9.3364 14.5452 9.3364 14.5452C9.3364 14.5452 7.21534 15.8281 6.41226 18.2089C6.22448 18.7648 6.10889 19.3803 6.10889 20.0535C6.10889 22.9222 7.98893 26.6737 17.6282 26.6737C24.4646 26.6737 28.1037 24.8603 28.1037 24.8603C26.9905 24.8275 25.8789 24.7549 24.7709 24.6425C23.259 24.4896 21.9155 24.2802 20.7951 24.0684H20.795ZM26.4817 11.3545C26.4817 11.3545 24.4942 10.387 20.6186 10.5147L20.7971 11.0387C21.2256 10.9892 23.5593 10.7673 26.4817 11.3545Z" fill="#C8102E"/>
<path d="M14.342 22.787C16.7302 22.787 18.7281 22.3602 19.7652 22.0862C21.1458 21.4525 22.9253 20.5765 24.7131 19.53C23.2109 20.0996 18.4566 21.7943 15.0889 21.7943C9.9801 21.7943 8.38386 18.835 8.38386 17.165C8.38386 15.6719 9.3365 14.5452 9.3365 14.5452C9.3365 14.5452 7.57617 15.7748 7.57617 17.8232C7.57617 21.1929 10.9427 22.787 14.342 22.787Z" fill="white"/>
<path d="M16.3067 24.3643C6.81336 24.3643 6.39142 19.3073 6.41206 18.2089C6.22428 18.7648 6.10864 19.3803 6.10864 20.0535C6.10864 20.0535 6.20736 25.6488 17.0533 25.6488C20.5844 25.6488 23.7631 24.9042 24.7707 24.6425C23.2588 24.4896 21.9153 24.2802 20.7949 24.0684C20.042 24.1869 18.5442 24.3643 16.3067 24.3643ZM28.2528 20.3078C27.9439 19.66 27.0435 19.5477 26.2401 20.0549C25.4373 20.5642 25.0346 21.5 25.3429 22.1478C25.6497 22.7962 26.5493 22.9083 27.3532 22.4003C28.1574 21.8906 28.5575 20.9554 28.2528 20.3078Z" fill="white"/>
<path d="M20.2167 22.7219L20.2105 22.4945L20.0103 22.7447L19.6972 22.7855L19.8921 22.8906L19.6972 23.1443L20.0304 22.9699L20.261 23.135L20.2196 22.8636L20.5293 22.6872L20.2167 22.7219ZM22.6261 21.5804L22.6189 21.348L22.4112 21.6065L22.0847 21.6478L22.2851 21.7588L22.084 22.0211L22.4324 21.8398L22.6695 22.0126L22.6299 21.7294L22.95 21.5458L22.6261 21.5804ZM24.3781 21.7678L24.3715 21.5543L24.1828 21.789L23.8874 21.8273L24.0704 21.9289L23.8874 22.1672L24.2009 22.0024L24.4184 22.1581L24.382 21.9025L24.6713 21.7353L24.3781 21.7678ZM21.9603 23.0814V22.8702L21.7672 23.1017L21.4713 23.1309L21.6519 23.2366L21.4617 23.4731L21.7803 23.3151L21.9942 23.4762L21.963 23.2175L22.2573 23.0563L21.9603 23.0814ZM23.6947 23.3258L23.6928 23.1121L23.4988 23.3452L23.2021 23.375L23.3828 23.4802L23.1959 23.7156L23.5123 23.5561L23.726 23.718L23.6952 23.4611L23.9896 23.2979L23.6947 23.3258ZM25.1264 20.0729L25.1172 19.8026L24.8794 20.102L24.5021 20.1491L24.7345 20.2782L24.5021 20.5795L24.9016 20.3704L25.1779 20.5702L25.1291 20.2434L25.5005 20.0306L25.1264 20.0729ZM27.4895 18.6703L27.2741 19.0632L27.7242 18.7653L28.1284 18.973L27.9819 18.5851L28.3956 18.2843L27.9312 18.3779L27.8491 18.0527L27.625 18.4429L27.16 18.5425L27.4895 18.6703ZM31.254 16.7309L30.6974 16.7941L30.65 16.3825L30.3289 16.8383L29.7704 16.912L30.1385 17.1064L29.829 17.5697L30.4014 17.25L30.8424 17.5524L30.7279 17.0571L31.254 16.7309ZM28.3075 23.5316L28.3055 23.2044L28.0066 23.5604L27.5496 23.6086L27.8294 23.7687L27.5369 24.1319L28.0247 23.8883L28.3557 24.1349L28.308 23.7391L28.7625 23.4905L28.3075 23.5316ZM29.1794 21.377L29.1717 21.0777L28.903 21.4101L28.4839 21.4653L28.7458 21.6065L28.483 21.9434L28.9296 21.7121L29.2381 21.9334L29.1848 21.5697L29.5954 21.3318L29.1794 21.377ZM29.9307 19.2579L29.9212 18.9307L29.6304 19.2929L29.1752 19.3514L29.4579 19.5052L29.1752 19.8731L29.6589 19.6203L29.9926 19.8617L29.9368 19.4666L30.3831 19.2079L29.9307 19.2579ZM25.8865 23.2933L25.6629 23.5622L25.321 23.596L25.5281 23.7173L25.3109 23.9888L25.6777 23.8059L25.9263 23.9911L25.8891 23.6955L26.2275 23.5098L25.8879 23.5386L25.8865 23.2933ZM19.659 11.3814L18.5535 16.4038L20.721 14.9974L19.659 11.3814ZM27.4875 13.6926L18.5535 16.4038C18.5535 16.4038 21.8361 17.1203 21.9359 17.1341C22.037 17.1488 27.4875 13.6926 27.4875 13.6926Z" fill="white"/>
<path d="M20.2937 19.1816L18.5533 16.4038V19.5545C19.1271 19.4521 19.7091 19.3263 20.2937 19.1816ZM15.1758 19.8501C15.2744 19.8517 15.375 19.853 15.4795 19.853C15.7627 19.853 16.05 19.8439 16.3422 19.8262L18.5533 16.4038L15.9577 18.3144L15.1758 19.8501Z" fill="white"/>
<path d="M17.6162 15.8898L12.8007 17.19L18.5538 16.4039L17.6162 15.8898ZM24.8858 27.4651L26.0732 28.4049L25.1885 26.9928C25.059 27.0995 24.9589 27.2437 24.8858 27.4651ZM10.9023 28.247L11.8163 26.8319C11.7602 26.8128 11.7025 26.7985 11.644 26.7893L10.9023 28.247V28.247Z" fill="white"/>
<path d="M26.3605 20.2416C25.7065 20.6539 25.3633 21.4263 25.5936 21.9657C25.8221 22.5045 26.5386 22.6061 27.1919 22.1929C27.8451 21.7796 28.1866 21.0077 27.9584 20.4706C27.7259 19.9302 27.0133 19.8295 26.3605 20.2416Z" fill="#C8102E"/>
</svg>
