<svg width="24" height="24" viewBox="0 0 24 24" fill="none" xmlns="http://www.w3.org/2000/svg">
<path d="M15.1256 19.355C14.9062 19.355 14.728 19.5329 14.728 19.7525C14.728 19.9718 14.9062 20.15 15.1256 20.15C15.3451 20.15 15.523 19.9718 15.523 19.7525C15.523 19.5329 15.3451 19.355 15.1256 19.355ZM15.1256 20.0647C15.0846 20.0647 15.044 20.0567 15.0061 20.041C14.9682 20.0253 14.9338 20.0023 14.9048 19.9733C14.8758 19.9443 14.8528 19.9099 14.8371 19.872C14.8214 19.8341 14.8134 19.7935 14.8134 19.7525C14.8134 19.5799 14.9529 19.4405 15.1256 19.4405C15.2981 19.4405 15.4378 19.5799 15.4378 19.7525C15.4378 19.925 15.2981 20.0647 15.1256 20.0647ZM15.289 19.6603C15.289 19.6426 15.2855 19.6251 15.2787 19.6087C15.2719 19.5924 15.262 19.5775 15.2494 19.565C15.2369 19.5525 15.222 19.5426 15.2057 19.5359C15.1893 19.5291 15.1718 19.5256 15.1541 19.5256H14.9626V19.9794H15.0477V19.7951H15.1088L15.1948 19.9794H15.289L15.1992 19.7872C15.2529 19.7682 15.2888 19.7174 15.289 19.6603ZM15.1541 19.7099H15.0477V19.6106H15.1541C15.1814 19.6106 15.2038 19.6329 15.2038 19.6603C15.2037 19.6877 15.1815 19.7099 15.1541 19.7099Z" fill="#010101"/>
<path d="M15.5585 13.8275C15.649 13.6719 15.7315 13.5145 15.8038 13.3575L22.3202 9.86764H15.4635C14.9494 9.3289 14.2061 9.00079 13.2922 8.90818L12.7489 3.52048L9.51189 8.88065H7.76953L7.17957 9.86766H1.68018L5.3928 12.8587L3.08788 16.7163H4.77928L2.50619 20.4795L9.53322 16.7159C9.74144 16.7144 9.94961 16.7084 10.1576 16.698L14.423 20.1349L13.9654 15.5905C14.603 15.1482 15.1254 14.5694 15.5584 13.8275H15.5585Z" fill="#006341"/>
<path d="M15.5291 13.1015L20.9028 10.2235H15.305C14.8013 9.62274 13.9975 9.28544 12.9686 9.2414L12.5022 4.61752L9.713 9.23615H7.97139L7.38185 10.2235H2.68896L5.85721 12.7756L3.71512 16.3601H5.40988L3.48127 19.5538L9.44391 16.3601C9.721 16.36 9.99803 16.3518 10.2746 16.3355L13.9842 19.3239L13.5903 15.4124C14.2629 14.9874 14.8071 14.4093 15.2512 13.6483C15.3573 13.4666 15.4508 13.2831 15.5291 13.1015Z" fill="#010101"/>
<path d="M15.0659 11.2654C15.0659 11.2654 15.0119 11.0893 14.9334 10.9349L13.8413 11.4684C13.9123 11.6539 14.014 12.0973 13.7429 12.7563C13.4335 13.5068 12.5124 14.8343 10.0003 14.8343H6.62963L4.96913 15.6485H7.94438L7.56323 15.7515L5.43015 17.7025L9.26515 15.6485H9.42515C9.81118 15.6485 10.1693 15.6338 10.5025 15.6052L11.1773 15.5238C11.3079 15.5026 11.4338 15.4787 11.556 15.4527C12.8097 15.185 13.6181 14.6523 14.2074 13.9181C14.3643 13.7225 14.5061 13.5128 14.6362 13.2896C14.8193 12.9754 14.9484 12.675 15.0286 12.3913C15.1461 11.9743 15.1562 11.5941 15.0659 11.2654H15.0659ZM7.30198 11.7435L4.70624 10.935L4.70605 10.9349L6.78478 12.6096L7.30198 11.7435ZM11.2648 9.94784H12.3241L12.0078 6.81201L11.2648 9.94784ZM15.3044 11.6248C15.3299 11.6746 15.3531 11.7255 15.3741 11.7774C15.3785 11.7881 15.382 11.7991 15.3861 11.8098C15.4018 11.8502 15.4161 11.8911 15.429 11.9325C15.4335 11.9479 15.4377 11.9631 15.4423 11.9785C15.4537 12.0196 15.4639 12.061 15.4731 12.1027C15.4759 12.1165 15.4793 12.13 15.4821 12.1441C15.4933 12.2005 15.5023 12.258 15.5098 12.3178L15.51 12.3176L17.1712 11.4193L18.0664 10.9349L15.3044 11.6248ZM12.8785 15.5171C12.8025 15.5253 12.727 15.5314 12.6521 15.5365C12.6466 15.5368 12.641 15.5372 12.6356 15.5374C12.5629 15.5425 12.4904 15.5459 12.4191 15.5484C12.4129 15.5489 12.4069 15.549 12.4008 15.5491C12.3286 15.5516 12.2578 15.5531 12.1885 15.5537H12.1793C12.108 15.5541 12.0382 15.5539 11.9707 15.5529V15.5531L13.1054 17.7025L12.8785 15.5171Z" fill="#A2AAAD"/>
<path d="M12.1855 10.7115H9.09655L9.09053 10.7085L6.62988 14.8343L8.29505 14.021L9.24515 12.4696L9.536 11.9947L9.32083 11.8216L8.89097 11.4751L8.89079 11.4749H11.468C11.5169 11.4749 11.5639 11.4755 11.6102 11.4768C11.614 11.4768 11.6175 11.477 11.6209 11.4772C11.6619 11.4783 11.7022 11.48 11.7414 11.4822C11.754 11.483 11.7658 11.4839 11.7787 11.4849C11.8077 11.4867 11.8364 11.4886 11.8645 11.4912C11.8806 11.4927 11.8962 11.4948 11.9121 11.4963C11.9348 11.4989 11.9578 11.5015 11.9801 11.5042C11.9977 11.5066 12.0148 11.5094 12.0321 11.512C12.0511 11.5148 12.0699 11.5178 12.0879 11.5212C12.1062 11.5244 12.1235 11.5279 12.1409 11.5317C12.1572 11.5351 12.173 11.5384 12.1883 11.542C12.2065 11.5463 12.224 11.5512 12.2408 11.5559C12.2543 11.5596 12.2682 11.5634 12.2809 11.5673C12.2987 11.5729 12.3156 11.5785 12.332 11.5846C12.3435 11.5887 12.3549 11.5928 12.3658 11.5971C12.3827 11.6038 12.399 11.6104 12.4149 11.6177L12.4432 11.631C12.4668 11.6431 12.49 11.6561 12.5127 11.67C12.5273 11.6793 12.5416 11.6887 12.5554 11.6988C12.562 11.7035 12.5681 11.7084 12.5744 11.7133C12.5882 11.7241 12.6011 11.7352 12.6137 11.747C12.6188 11.7517 12.6233 11.7566 12.6282 11.7615C12.6407 11.7742 12.6529 11.7869 12.6637 11.8006C12.6675 11.8049 12.6707 11.8094 12.6741 11.8139C12.6855 11.8285 12.6963 11.8435 12.7061 11.8596C12.708 11.8628 12.71 11.8665 12.7119 11.8699C12.7222 11.8876 12.7319 11.9054 12.7402 11.9241C12.741 11.9256 12.7412 11.9273 12.7421 11.9288C12.7511 11.9496 12.759 11.9711 12.7657 11.9938L12.7658 11.9936L13.8415 11.4684C13.5467 10.787 12.7093 10.7115 12.1855 10.7115H12.1855Z" fill="#A2AAAD"/>
<path d="M10.503 15.6054L13.1059 17.7025L11.9712 15.5532C11.6351 15.5484 11.3515 15.5287 11.1778 15.5238L10.503 15.6052M6.42367 16.0591L5.43066 17.7026L7.56374 15.7516M8.29531 14.021L6.63015 14.8343H10.0008C12.5129 14.8343 13.434 13.5068 13.7434 12.7563C14.0145 12.0973 13.9128 11.6539 13.8418 11.4684L12.7661 11.9936C12.7723 12.0146 12.7779 12.0356 12.7824 12.0583C12.8776 12.5584 12.4687 13.2734 11.7765 13.6783C11.2295 13.9981 10.5714 14.021 10.0028 14.021H8.29526" fill="white"/>
<path d="M9.09056 10.7085L9.09658 10.7115H12.1856C12.7093 10.7115 13.5468 10.787 13.8415 11.4684L14.9336 10.9349C15.0122 11.0893 15.0662 11.2654 15.0662 11.2654C15.1621 11.3827 15.2404 11.5017 15.3047 11.6248L18.0667 10.9349H14.9336C14.5978 10.3181 13.8354 9.94785 12.7374 9.94785H11.2651L12.0081 6.81201V6.81183L10.1141 9.94785H8.37531L7.7854 10.9349H4.70654V10.935L7.30228 11.7435L6.78509 12.6096L4.96943 15.6485L6.62994 14.8343L9.09059 10.7085H9.09056Z" fill="white"/>
</svg>
