<svg width="40" height="40" viewBox="0 0 40 40" fill="none" xmlns="http://www.w3.org/2000/svg">
<path d="M20.5118 27.2848C20.2021 27.2848 19.9507 27.5358 19.9507 27.8457C19.9507 28.1553 20.2021 28.4067 20.5118 28.4067C20.8215 28.4067 21.0725 28.1553 21.0725 27.8457C21.0725 27.5358 20.8215 27.2848 20.5118 27.2848ZM20.5118 28.2863C20.4539 28.2864 20.3966 28.275 20.3431 28.2529C20.2896 28.2308 20.241 28.1983 20.2001 28.1574C20.1592 28.1165 20.1268 28.0679 20.1046 28.0144C20.0825 27.9609 20.0712 27.9036 20.0712 27.8457C20.0712 27.6023 20.2681 27.4054 20.5118 27.4054C20.7552 27.4054 20.9523 27.6023 20.9523 27.8457C20.9523 28.0893 20.7552 28.2863 20.5118 28.2863ZM20.7423 27.7157C20.7423 27.6907 20.7373 27.666 20.7278 27.6429C20.7182 27.6198 20.7042 27.5989 20.6865 27.5812C20.6688 27.5636 20.6478 27.5496 20.6247 27.5401C20.6017 27.5305 20.5769 27.5256 20.5519 27.5256H20.2817V28.166H20.4018V27.9059H20.488L20.6094 28.166H20.7423L20.6155 27.8948C20.6525 27.8817 20.6846 27.8574 20.7073 27.8253C20.73 27.7933 20.7422 27.755 20.7423 27.7157ZM20.5519 27.7857H20.4018V27.6456H20.5519C20.5905 27.6456 20.6221 27.677 20.6221 27.7157C20.6221 27.7343 20.6146 27.7521 20.6015 27.7652C20.5883 27.7783 20.5705 27.7857 20.5519 27.7857Z" fill="white"/>
<path d="M33.484 15.3358C34.843 14.1746 36.1599 12.3021 36.1599 10.1578C36.1599 9.84745 35.7813 9.76014 35.6278 9.97115C34.2276 11.8819 32.9072 12.6078 32.1096 12.8842C33.4359 11.8801 34.7367 10.2405 35.0694 8.38121C35.1059 8.04197 34.7369 7.94291 34.5664 8.1205C32.9425 9.74417 30.7068 11.4769 24.6985 11.4769C23.2467 11.4769 21.587 11.4348 20.5138 11.4348C15.6357 11.4348 13.8418 14.4519 13.4373 15.2895C13.0357 15.2314 12.6291 15.1957 12.2249 15.1957C7.6014 15.1957 3.83984 18.9572 3.83984 23.5811C3.83981 28.2045 7.60132 31.9663 12.2248 31.9663C15.6277 31.9663 18.6358 29.9568 19.95 26.8345C20.0425 26.8439 20.1406 26.8597 20.2234 26.8597C21.2859 26.8597 21.5087 26.549 21.5087 26.2875C21.5087 26.1472 21.3698 25.9779 21.301 25.8793C22.8598 25.8709 23.3169 25.7978 23.9915 25.5648C24.1012 25.5305 24.1656 25.4286 24.1656 25.3202C24.1656 25.0902 23.6941 24.7095 23.3525 24.4137C25.5326 24.3771 27.1379 23.9877 27.1379 23.4778C27.1379 23.3783 27.1285 23.2527 26.5499 22.797C27.7799 22.4625 29.9409 21.6331 29.9409 21.0931C29.9409 20.8838 29.7602 20.7555 29.5492 20.6084C31.4638 19.887 33.0737 18.6158 33.0737 18.16C33.0737 17.7926 32.5324 17.7614 32.264 17.7407C33.218 17.1296 34.5464 16.0881 34.5464 15.6383C34.5464 15.1725 33.8165 15.356 33.4841 15.3358H33.484Z" fill="#C8102E"/>
<path d="M32.9246 15.4549C34.4503 14.3116 35.9007 12.3371 35.9007 10.1578C35.9007 10.112 35.8554 10.1049 35.8365 10.124C33.478 13.3439 31.3334 13.3123 31.3334 13.3123C31.2396 13.3123 31.2175 13.1807 31.2919 13.1288C32.8147 12.2332 34.4478 10.3858 34.8146 8.33543C34.8196 8.30794 34.7785 8.27466 34.7496 8.30334C33.0176 10.0356 30.6372 11.7359 24.6985 11.7359C22.7967 11.7359 21.8041 11.6938 20.5139 11.6938C15.3642 11.6938 13.7806 15.1166 13.5931 15.5697C13.1411 15.493 12.6834 15.4545 12.2249 15.4544C7.7369 15.4544 4.09863 19.0926 4.09863 23.5811C4.09863 28.0689 7.7369 31.7074 12.2248 31.7074C15.6614 31.7074 18.5996 29.5741 19.7877 26.56C19.9397 26.5859 20.0863 26.6007 20.2232 26.6007C21.0511 26.6007 21.2499 26.4159 21.2499 26.2875C21.2499 26.2004 20.7204 25.6217 20.9833 25.6217C22.8196 25.6217 23.2329 25.5531 23.9071 25.3202C23.5836 24.814 22.4121 24.1587 23.0153 24.1587C25.9256 24.1587 26.8794 23.5969 26.8794 23.4778C26.8794 23.3388 25.9514 22.6705 25.9514 22.6705C27.2919 22.4495 29.6821 21.3804 29.6821 21.0931C29.6821 20.9268 29.0003 20.6477 29.1096 20.49C31.2351 19.7831 32.8148 18.4096 32.8148 18.16C32.8148 17.9598 31.5689 17.9832 31.5689 17.9832V17.8508C32.6463 17.2907 34.2875 15.9363 34.2875 15.6383C34.2875 15.4485 32.7474 15.7666 32.9246 15.4549Z" fill="white"/>
<path d="M14.2194 22.0458C13.9564 21.704 13.6078 21.4317 13.2052 21.2613L13.1399 21.3254L13.2749 22.2538C13.317 22.2871 13.3575 22.3225 13.3961 22.3598L14.0762 22.3654C14.1255 22.2596 14.1732 22.153 14.2194 22.0458ZM11.2767 21.3392L12.0288 21.8996C12.0822 21.8935 12.1358 21.8899 12.1895 21.8888L12.8585 21.2305L12.8449 21.1404C12.6421 21.0888 12.4336 21.0628 12.2243 21.0628C11.8997 21.0627 11.5782 21.1256 11.2775 21.2479L11.2767 21.3392ZM12.9058 21.5558L12.5376 21.9171C12.6913 21.9459 12.8402 21.996 12.98 22.066L12.9058 21.5558ZM13.1789 24.9791C13.0499 25.0671 12.9093 25.137 12.7613 25.1867L13.1748 25.4946L13.179 24.9791H13.1789ZM9.82044 27.3004L11.018 26.1223C10.5498 25.9001 10.1531 25.5514 9.87107 25.1211L8.86684 26.4684C9.14338 26.7898 9.4645 27.07 9.82044 27.3004ZM13.6224 22.6262C13.6884 22.7225 13.7441 22.8253 13.7887 22.9332C13.8435 22.8327 13.8966 22.7313 13.948 22.6289L13.6224 22.6262ZM11.3716 26.262C11.3423 26.2526 11.3132 26.2427 11.2842 26.2322L10.0543 27.4418C10.5384 27.7145 11.0696 27.893 11.6201 27.9679L11.3716 26.262ZM13.6133 24.6223L13.5516 24.6315C13.5183 24.6736 13.483 24.714 13.4458 24.7527L13.4377 25.6909L13.511 25.7452C13.7374 25.6103 13.9413 25.4408 14.1153 25.2428C13.8656 25.0161 13.6868 24.8011 13.6133 24.6223ZM11.2697 22.183C11.3986 22.0946 11.5392 22.0247 11.6874 21.9754L11.274 21.6669L11.2697 22.1829V22.183ZM9.72561 24.8732C9.71149 24.8459 9.69772 24.8185 9.68429 24.7908L7.95943 24.7763C8.1111 25.3187 8.36355 25.8188 8.69479 26.2554L9.72561 24.8732ZM13.172 25.823L12.4203 25.2623C12.3669 25.2683 12.3133 25.2719 12.2596 25.2728L11.5905 25.9308L11.6034 26.0213C11.8063 26.0729 12.0149 26.099 12.2243 26.0988C12.5489 26.099 12.8704 26.0363 13.1711 25.914L13.172 25.823ZM11.5432 25.6059L11.9109 25.2443C11.7574 25.2156 11.6086 25.1656 11.4688 25.0959L11.5432 25.6059ZM13.4343 26.1211L13.4199 27.8457C13.962 27.6942 14.462 27.4419 14.8988 27.1103L13.5163 26.0796C13.489 26.0937 13.462 26.1077 13.4343 26.1211ZM10.8261 24.5356C10.738 24.4066 10.6683 24.2659 10.6191 24.1177L10.3105 24.5312L10.8261 24.5357V24.5356ZM11.0524 24.8021L10.1146 24.7943L10.0601 24.8674C10.3332 25.3258 10.7476 25.6909 11.2437 25.9004L11.3088 25.8361L11.174 24.9082C11.1319 24.8747 11.0913 24.8393 11.0524 24.8021ZM11.0032 22.4091L11.0109 21.4711L10.938 21.4164C10.4793 21.6897 10.1146 22.104 9.9045 22.6004L9.96897 22.6659L10.8972 22.5304C10.9306 22.4883 10.966 22.4479 11.0032 22.4091ZM10.1992 22.8995L10.5607 23.2675C10.5895 23.1138 10.6396 22.965 10.7096 22.8252L10.1992 22.8995ZM9.78364 22.9602C9.73249 23.1632 9.70659 23.3717 9.70654 23.5811C9.70632 23.9056 9.76913 24.2271 9.89149 24.5277L9.98251 24.5285L10.5432 23.7766C10.5368 23.7233 10.5332 23.6696 10.5327 23.6159L9.87425 22.9473L9.78364 22.9602V22.9602ZM11.6495 26.3349L11.8916 27.9969C12.3145 28.0287 12.7398 27.9998 13.1545 27.9111L13.1686 26.2312C12.8654 26.3391 12.546 26.3942 12.2243 26.3941C12.0274 26.3941 11.835 26.3738 11.6495 26.3349ZM14.6851 20.2404C14.6851 20.1258 14.6826 20.011 14.6787 19.8953C14.6619 19.8839 14.6452 19.8724 14.6284 19.8615L13.4307 21.0394C13.7802 21.2057 14.0916 21.4423 14.3455 21.7342C14.5305 21.2504 14.6851 20.7063 14.6851 20.2403V20.2404ZM10.9326 21.0819C10.9597 21.068 10.9868 21.0539 11.0144 21.0408L11.0289 19.3161C10.4868 19.4675 9.98673 19.7198 9.54974 20.0515L10.9326 21.0819ZM12.7993 20.8271L12.557 19.1648C12.4471 19.1571 12.3363 19.1522 12.2243 19.1522C11.9053 19.1522 11.5939 19.1865 11.2939 19.2511L11.28 20.9306C11.5831 20.8227 11.9025 20.7677 12.2243 20.7679C12.4215 20.7679 12.6137 20.7884 12.7993 20.8271ZM15.7089 26.3129C15.1977 26.0485 14.716 25.7374 14.34 25.4344C14.1714 25.6261 13.9779 25.7944 13.7646 25.9348L15.1114 26.9385C15.3303 26.7503 15.5301 26.54 15.7089 26.3129ZM14.3949 19.7202C13.9108 19.4475 13.3795 19.2689 12.829 19.1938L13.0774 20.9C13.107 20.9094 13.1361 20.9193 13.1649 20.9294L14.3949 19.7202ZM7.7959 23.5811C7.7959 23.9003 7.82985 24.2113 7.89428 24.5112L9.57382 24.5251C9.46609 24.222 9.41114 23.9027 9.41134 23.5811C9.41134 23.3838 9.43157 23.1918 9.47013 23.0057L7.80839 23.2483C7.79999 23.359 7.79582 23.47 7.7959 23.5811ZM7.83722 22.9762L9.54327 22.7277C9.55262 22.6981 9.56287 22.6697 9.57315 22.6404L8.36366 21.4106C8.09073 21.8945 7.91209 22.4258 7.83722 22.9762ZM8.50509 21.1771L9.68287 22.3745C9.90515 21.9077 10.2516 21.5109 10.6842 21.2278L9.33727 20.2234C9.01565 20.4998 8.7354 20.821 8.50509 21.1771Z" fill="#C8102E"/>
<path d="M12.2241 24.4941C12.7284 24.4941 13.1372 24.0853 13.1372 23.581C13.1372 23.0767 12.7284 22.6679 12.2241 22.6679C11.7198 22.6679 11.311 23.0767 11.311 23.581C11.311 24.0853 11.7198 24.4941 12.2241 24.4941Z" fill="#C8102E"/>
<path d="M12.2244 18.1024C9.19873 18.1024 6.74609 20.5553 6.74609 23.5811C6.74609 26.6067 9.19873 29.0594 12.2244 29.0594C14.0715 29.0594 15.7048 28.1453 16.6975 26.7449C16.4894 26.6715 16.278 26.5849 16.0684 26.4885C15.1882 27.6501 13.7942 28.4007 12.2244 28.4007C9.56246 28.4007 7.40439 26.2427 7.40439 23.5811C7.40439 20.9189 9.56246 18.7609 12.2244 18.7609C13.1137 18.7609 13.9469 19.0023 14.662 19.4225C14.6555 19.1837 14.6543 18.9379 14.6731 18.6792C13.9363 18.3102 13.1046 18.1024 12.2244 18.1024Z" fill="#C8102E"/>
<path d="M18.3135 26.9572C17.9597 27.0419 17.5032 26.9884 17.013 26.8466C15.9695 28.3739 14.214 29.3767 12.2245 29.3767C9.02414 29.3767 6.42903 26.782 6.42903 23.5811C6.42903 23.4784 6.43195 23.3766 6.43681 23.2755C6.25761 23.5474 6.30929 23.9961 5.99151 23.9961C5.73947 23.9961 5.87918 23.6528 5.69471 23.6528C5.57991 23.6528 5.56383 23.8103 5.4211 23.8103C5.40438 23.8103 5.38954 23.8043 5.37873 23.8043C5.34806 23.8043 5.33442 23.8709 5.27627 23.8709C5.20208 23.8709 5.14999 23.7833 5.09105 23.7833C5.0246 23.7833 5.00344 23.9101 4.9153 23.9101C4.82491 23.9101 4.73741 23.7588 4.70215 23.6896C4.76033 27.7952 8.10591 31.1049 12.2246 31.1049C15.3767 31.1049 18.0756 29.1666 19.1956 26.4169C18.3517 26.1617 17.5453 25.7311 17.5453 25.7311C17.5968 26.2339 18.3135 26.9572 18.3135 26.9572ZM5.44768 20.7044C5.62146 20.848 5.48295 21.0992 5.60766 21.2721C6.56204 18.5368 9.1641 16.574 12.2246 16.574C13.2248 16.574 14.1759 16.7841 15.0367 17.1617C15.1029 17.0023 15.1761 16.8459 15.2559 16.693C14.3284 16.2841 13.3031 16.0567 12.2246 16.0567C9.06321 16.0567 6.35802 18.0069 5.24418 20.7693C5.30615 20.81 5.37439 20.6438 5.44768 20.7044ZM21.4121 12.9717H25.5519C30.8402 12.9717 33.1556 11.081 34.0677 9.40507C34.1203 9.30429 34.0556 9.28316 33.955 9.37246C32.8037 10.4054 31.0859 12.2083 24.0719 12.2083H21.112C16.4561 12.2083 14.7028 14.3077 14.2455 15.7079C14.4772 15.7674 14.7061 15.837 14.9317 15.9166C15.7594 14.4264 17.3369 12.9717 21.4121 12.9717Z" fill="#C8102E"/>
<path d="M21.3151 14.0392C17.1724 14.0392 14.7862 16.8844 15.0593 19.6029C15.2628 21.6283 14.1294 23.2739 14.1294 23.2739C14.1294 23.2739 15.7104 22.558 15.7104 19.6738C15.7104 16.94 18.4299 14.9503 20.7219 14.9503C22.9383 14.9503 25.5099 14.9642 26.7851 14.9642C33.5472 14.9642 35.1834 11.8402 35.4164 11.2306C35.4574 11.1392 35.3982 11.1577 35.376 11.2002C33.9642 13.1041 31.9873 14.1914 26.623 14.1914C23.1772 14.1914 22.0875 14.0392 21.3151 14.0392Z" fill="#C8102E"/>
<path d="M22.8594 16.4065C21.7408 16.4065 21.6285 16.7178 21.6285 16.7178C21.5931 16.7613 21.6111 16.8632 21.5328 16.8929C21.2772 16.9916 20.9944 16.7799 20.7745 17.0646C20.6416 17.2365 20.3193 17.0245 20.1103 17.1459C20.0633 17.1734 20.111 17.2925 20.1474 17.3082C20.2452 17.3512 20.4068 17.3385 20.4676 17.389C20.5317 17.4416 20.5261 17.5169 20.5857 17.5609C20.6595 17.615 20.798 17.6391 20.8597 17.7244C20.908 17.79 20.9234 17.9205 20.9934 17.9243C22.6726 18.0197 24.3964 18.0194 25.9899 17.402C26.1704 17.1178 24.4266 16.4065 22.8594 16.4065ZM16.2591 20.1095C16.2812 20.2719 16.2389 20.5214 16.2725 20.5246C17.4414 20.6522 18.6278 20.4444 19.7094 19.9479C20.0104 19.8202 18.5348 19.0519 17.3072 19.0519C16.9083 19.0519 16.6367 19.2216 16.6367 19.2216C16.5683 19.261 16.5134 19.4213 16.4338 19.5408C16.3745 19.6296 16.488 19.7686 16.4404 19.8259C16.3523 19.9321 16.2435 19.9971 16.2591 20.1095V20.1095ZM17.8576 17.2643C17.801 17.2738 17.7585 17.3656 17.7166 17.4252C17.6106 17.5745 17.2746 17.5415 17.2773 17.7115C17.2811 18.0214 16.9359 18.0781 16.8811 18.3013C16.8382 18.4763 16.7442 18.6085 16.7313 18.7967C17.9714 18.8034 19.2472 18.7235 20.3466 18.0921C20.634 17.9612 18.8324 17.1234 17.8576 17.2643ZM21.806 16.2011C21.7157 15.8413 21.2792 15.774 20.9817 15.5999C20.8637 15.5308 20.7251 15.5623 20.5888 15.6208C20.2935 15.7477 19.9137 15.5323 19.6089 15.7513C19.5221 15.8144 19.4757 15.9316 19.3635 15.9606C19.2242 15.9968 19.0836 16.0026 18.9414 16.0206C18.8892 16.0279 18.7914 16.0631 18.7978 16.1223C18.8262 16.3753 18.5909 16.428 18.4042 16.4933C18.2216 16.5575 18.2865 16.7982 18.2808 16.9756C19.489 16.9909 20.7459 16.8207 21.806 16.2011ZM15.6465 22.1668C15.9571 22.3283 17.4593 22.1113 18.2424 21.6246C17.4379 20.9422 16.1505 20.6946 16.1505 20.6946C15.972 21.1817 15.7873 21.6665 15.6465 22.1668V22.1668Z" fill="#C8102E"/>
<path d="M15.421 22.4512C15.2743 22.5292 15.1061 22.7506 15.2392 22.8406C15.4776 23.0022 15.873 23.3642 17.6972 23.3642C19.4735 23.3642 20.1493 22.8152 20.4854 22.4744C20.4854 22.2544 18.9227 21.8043 18.7129 21.9265C18.6485 21.9584 18.6408 22.023 18.6322 22.0514C18.562 22.0789 18.345 22.0823 18.2934 22.12C18.1722 22.2089 18.1963 22.354 18.164 22.3626C17.8868 22.4315 17.5432 22.2569 17.2807 22.3765C17.2103 22.409 17.2164 22.6048 17.1231 22.612C16.9331 22.6263 16.7239 22.5133 16.5429 22.5711C16.5107 22.5817 16.4128 22.5959 16.3484 22.6364C16.249 22.5854 16.1961 22.573 16.0661 22.5416C15.97 22.518 15.8771 22.5841 15.7594 22.5641C15.6491 22.5449 15.5253 22.3957 15.421 22.4512ZM22.624 21.1687C22.952 20.998 23.3468 20.9818 23.5878 20.6559C22.1154 19.8869 20.3959 19.9665 20.1859 20.088C20.1341 20.1183 20.0737 20.2255 20.0079 20.2675C19.9069 20.3338 19.8131 20.3019 19.7461 20.3689C19.706 20.409 19.7501 20.515 19.7218 20.5543C19.6848 20.6062 19.6033 20.6154 19.5524 20.6429C19.5006 20.6712 19.3915 20.625 19.3102 20.6593C19.2291 20.6937 19.2258 20.7696 19.1728 20.7964C18.9754 20.8971 18.6889 20.7804 18.5528 20.7825C18.4827 20.7837 18.5009 20.8943 18.5235 20.9165C18.6115 21.0038 18.8662 21.0303 18.8565 21.1595C18.8542 21.186 18.7932 21.2761 18.7546 21.2811C18.8896 21.5693 20.1455 21.9515 21.7975 21.4035C22.0734 21.3205 22.3586 21.3066 22.624 21.1687V21.1687ZM24.5033 19.0463C24.6384 18.9558 24.8106 18.9548 24.891 18.8269C25.0693 18.5955 23.349 18.2131 22.651 18.2131C21.9574 18.2131 20.6764 18.3871 20.4566 18.4643C20.3656 18.5022 20.3607 18.6879 20.2539 18.7011C20.0482 18.7264 19.8444 18.7514 19.6375 18.7687C19.5695 18.7743 19.5865 18.8833 19.6077 18.9C19.7423 19.0087 19.7839 19.076 19.8406 19.2424C19.8462 19.2581 19.986 19.2443 20.0165 19.2703C20.1509 19.3864 20.2469 19.5515 20.4153 19.5924C21.23 19.7878 22.0175 19.8418 22.8514 19.648C22.9407 19.6275 23.0061 19.5549 23.0858 19.5451C23.3784 19.5073 23.6828 19.4896 23.9096 19.2736C24.0696 19.1209 24.325 19.1664 24.5033 19.0463ZM26.4819 15.5243C26.5298 15.4946 26.4909 15.3397 26.4507 15.3338C26.2639 15.3054 26.0616 15.2299 25.8595 15.4113C25.7911 15.473 25.6638 15.3402 25.5692 15.3974C25.4926 15.4429 25.4171 15.5654 25.346 15.5971C25.1522 15.6832 24.9642 15.4819 24.7503 15.5069C24.6875 15.5139 24.7028 15.6535 24.6405 15.6681C24.4564 15.7116 24.2957 15.5113 24.1919 15.5786C24.0329 15.6811 23.8994 15.8116 23.7071 15.725C23.5224 15.6411 23.2785 15.4666 23.1522 15.5765C22.9329 15.7681 22.6661 15.4905 22.4733 15.5653C22.3099 15.6286 21.8705 15.7333 22.1702 15.9071C23.1013 16.4708 25.0456 16.3588 26.4819 15.5243V15.5243ZM17.2523 26.0943C17.2037 26.0061 17.0777 26.0534 16.9911 26.0024C16.9282 25.9643 16.8981 25.8333 16.8365 25.7826C16.7889 25.7434 16.674 25.8323 16.6149 25.7978C16.5312 25.7486 16.4672 25.6425 16.4018 25.5694C16.3291 25.4887 16.2623 25.401 16.1907 25.3202C16.1236 25.2443 16.0519 25.1749 15.9663 25.1242C15.9202 25.097 15.8308 25.1558 15.7751 25.1413C15.6766 25.115 15.6192 24.9437 15.5386 24.8721C15.4923 24.8311 15.4184 24.8254 15.3775 24.7865C15.3355 24.7461 15.3266 24.6719 15.2825 24.6231C15.2242 24.5592 15.139 24.5364 15.0759 24.4848C14.9906 24.415 14.9267 24.238 14.8609 24.1406C14.7952 24.0431 14.698 24.0323 14.6349 23.9469C14.5558 23.8399 14.5095 23.66 14.4128 23.5517C14.316 23.4422 14.0735 23.6169 13.9995 23.7644C13.8779 24.0056 13.885 24.312 14.0704 24.5188C14.982 25.5372 16.1658 26.3819 17.5207 26.6049C17.4196 26.4592 17.3131 26.205 17.2523 26.0943ZM20.2501 25.7534C20.1121 25.715 19.9911 25.6387 19.8646 25.5865C19.7866 25.5544 19.7115 25.6754 19.6275 25.6254C19.4574 25.5239 19.3111 25.3784 19.1757 25.2702C19.0684 25.1843 18.8532 24.9688 18.7606 25.0122C18.7242 25.0284 18.6719 25.2286 18.584 25.1627C18.3721 25.004 18.2345 24.8332 18.0368 24.66C17.9461 24.5811 17.8598 24.8417 17.7449 24.7865C17.4804 24.658 17.374 24.3714 17.1706 24.1684C16.9333 23.9321 16.7064 23.6583 16.3799 23.5717C16.3257 23.5575 16.3555 23.6366 16.3047 23.6763C16.0553 23.8711 15.7808 23.5385 15.5386 23.4274C15.3164 23.3248 15.1209 23.162 14.871 23.145C14.818 23.1411 14.8203 23.2211 14.8405 23.2448C16.2644 24.9292 18.2401 26.1929 20.4102 26.142C20.4606 26.1408 20.5633 26.1465 20.4789 26.0419C20.4114 25.959 20.3356 25.7772 20.2501 25.7534ZM22.2656 24.5264C22.2022 24.5171 22.1038 24.6027 22.0488 24.5923C21.8805 24.5608 21.7474 24.4096 21.5432 24.3018C21.459 24.2574 21.4152 24.4564 21.3492 24.4522C21.0107 24.4329 20.5216 24.074 20.2194 23.893C20.1659 23.8607 19.843 23.9251 19.7894 23.9359C19.5951 23.975 19.3479 23.6348 19.1952 23.5631C19.0794 23.5091 18.9183 23.452 18.8084 23.5343C18.6594 23.6452 18.4823 23.5857 18.3191 23.5835C18.2558 23.5821 18.1999 23.7169 18.1214 23.7416C17.8987 23.813 17.6523 23.6582 17.4339 23.7672C17.4275 23.7702 17.3977 23.8159 17.3994 23.8317C17.4144 23.9687 17.5674 23.9917 17.6683 24.0532C19.2331 25.0458 21.6495 25.3672 22.996 25.066C23.0265 25.0566 22.9789 24.9415 22.8881 24.8721C22.7942 24.8 22.6557 24.7729 22.5973 24.732C22.4614 24.6368 22.389 24.545 22.2656 24.5264ZM25.4155 23.082C25.2499 23.1311 25.1218 23.0096 24.9842 23.0622C24.9526 23.0745 24.931 23.1266 24.9047 23.1269C24.6453 23.132 24.4724 22.8528 24.2083 22.8739C24.143 22.879 24.1442 22.9947 24.0886 23.0078C23.9259 23.0459 23.7816 22.849 23.6349 22.9197C23.5303 22.9708 23.4566 22.967 23.3564 22.9376C23.2264 22.8994 23.1299 22.7839 23.0044 22.7641C22.8935 22.7467 22.7844 22.8567 22.6593 22.8202C22.3481 22.7296 22.1067 22.4337 21.7725 22.5046C21.6076 22.5395 21.4657 22.4266 21.3518 22.4949C21.2269 22.5689 21.1913 22.6591 21.0646 22.7343C20.9789 22.7864 20.778 22.7798 20.6882 22.8343C20.6201 22.876 20.6028 22.981 20.5249 23.0132C20.3787 23.0736 20.2058 23.0307 20.0688 23.1082C20.0527 23.1171 20.0437 23.1936 20.1024 23.21C21.3783 23.6424 23.4433 24.1182 25.91 23.4781C25.9861 23.4549 26.0019 23.4094 25.94 23.338C25.8045 23.1813 25.6184 23.0216 25.4155 23.082ZM28.3675 20.9201C28.1496 21.0215 27.8971 20.9089 27.6555 20.9663C27.5923 20.9812 27.6407 21.0712 27.5776 21.0801C27.3407 21.1136 27.0949 21.0531 26.8729 21.1398C26.6992 21.2073 26.4909 21.1306 26.2997 21.1355C26.227 21.1374 26.2253 21.2349 26.2141 21.3139C26.2038 21.3809 26.1026 21.421 26.0728 21.4122C25.836 21.3418 25.6091 21.3163 25.369 21.2811C24.7661 21.192 24.1692 21.0003 23.6024 21.1696C23.4174 21.2252 23.1722 21.2715 23.0305 21.4154C22.9761 21.4711 22.9181 21.5811 22.8456 21.6076C22.4987 21.7337 22.1209 21.7572 21.7752 21.8803C21.6707 21.9171 21.4717 22.0637 21.5461 22.0829C21.5461 22.0829 22.6127 22.3925 23.7765 22.3925C26.0161 22.3925 27.7234 21.8415 28.9724 21.1601C28.9007 21.0696 28.5327 20.8433 28.3675 20.9201ZM30.8252 18.4672C30.6878 18.5125 30.5004 18.3828 30.3829 18.4694C30.2075 18.5988 30.0015 18.5754 29.8214 18.5568C29.7355 18.5477 29.6008 18.5175 29.5248 18.5769C29.4756 18.6156 29.5462 18.6776 29.5923 18.7191C29.139 18.8751 28.6389 18.7282 28.2091 18.9027C28.1768 18.9158 28.1574 19.0736 28.078 19.0895C27.6834 19.1692 27.3141 19.0142 26.9227 19.0859C26.8232 19.1043 26.8674 19.3149 26.7633 19.3199C26.4119 19.3371 26.0696 19.3076 25.7187 19.293C25.3011 19.2756 24.9165 19.427 24.5225 19.5478C24.4052 19.583 24.3701 19.7693 24.244 19.7884C23.9034 19.8403 23.5568 19.7807 23.2462 19.9341C23.2252 19.9444 23.2238 20.0488 23.2467 20.0612C23.6274 20.2763 24.0636 20.4248 24.3238 20.7726C26.9728 20.7448 29.8233 20.3985 32.0289 18.5901C32.0724 18.5548 31.8112 18.5003 31.6705 18.4677C31.5334 18.4359 31.4206 18.4359 31.2543 18.3816C31.1064 18.3328 30.9699 18.4199 30.8252 18.4672ZM33.5756 15.9758C33.5487 15.9596 33.1478 15.8874 32.9262 15.9395C32.8787 15.9507 32.8507 16.028 32.8062 16.0352C32.5199 16.0811 32.3183 16.2178 32.0275 16.2268C31.9668 16.2282 31.836 16.2715 31.7577 16.3087C31.6522 16.3596 31.5077 16.2359 31.4253 16.3282C31.3722 16.3878 31.4648 16.5309 31.3683 16.5764C31.1151 16.6956 30.8191 16.4817 30.5712 16.6434C30.4989 16.6901 30.6474 16.8482 30.5543 16.8777C30.1978 16.9891 29.5814 16.4357 29.348 17.0103C29.3117 17.1005 29.2 17.0597 29.1303 17.0416C29.0628 17.0241 28.9674 16.9929 28.9273 17.0263C28.7089 17.2041 28.5805 17.275 28.2734 17.1888C28.1957 17.1664 28.1943 17.3975 28.0434 17.3607C27.8708 17.3192 27.7049 17.1947 27.5472 17.2652C27.4738 17.298 27.5279 17.4899 27.421 17.5003C26.9917 17.5412 26.5491 17.4794 26.1536 17.6551C26.056 17.6987 26.0469 17.8742 25.9102 17.8967C25.6092 17.9465 25.3089 17.9114 25.0276 18.0027C24.982 18.0173 24.9926 18.1514 25.0622 18.1615C25.2426 18.1883 25.4475 18.1603 25.5859 18.2428C25.7557 18.3442 25.8634 18.6301 26.0304 18.6368C29.4323 18.7026 31.8898 17.4835 33.5756 16.0775C33.6423 16.0196 33.6077 15.9955 33.5756 15.9758ZM32.7417 13.9803C32.6907 14.0035 32.7069 14.1718 32.6096 14.217C32.4422 14.294 32.2517 14.2918 32.0728 14.3461C32.0051 14.3672 32.0088 14.4572 31.9523 14.4924C31.8572 14.553 31.7284 14.5027 31.6589 14.554C31.2292 14.8689 30.7183 14.7276 30.2411 14.8065C30.2486 15.1662 29.6808 14.9465 29.4481 15.1031C29.194 15.2734 29.2278 15.2269 28.8495 15.2304C28.7321 15.2317 28.7955 15.4051 28.7009 15.4071C28.3994 15.4125 28.0097 15.3168 27.7849 15.3822C27.7445 15.3939 27.7314 15.584 27.6514 15.6055C27.4873 15.6494 27.3151 15.6672 27.1579 15.7169C27.0363 15.7554 27.1953 15.9854 27.0323 16.0371C26.7554 16.1247 26.4504 16.0608 26.1712 16.219C26.0616 16.2816 25.9008 16.2226 25.7585 16.2487C25.6375 16.2704 25.5912 16.3976 25.6901 16.4534C25.7796 16.5038 25.929 16.4907 26.0171 16.5342C26.2217 16.6351 26.3914 16.7811 26.6112 16.795C30.205 17.0161 34.8535 14.4615 35.5857 11.3673C35.6112 11.2428 35.5541 11.2658 35.5287 11.3352C34.7491 13.1918 32.7417 13.9803 32.7417 13.9803Z" fill="#C8102E"/>
</svg>
