<svg width="40" height="40" viewBox="0 0 40 40" fill="none" xmlns="http://www.w3.org/2000/svg">
<path d="M31.0728 31.2174C30.6825 31.2174 30.3657 31.5338 30.3657 31.9244C30.3657 32.3145 30.6825 32.6313 31.0728 32.6313C31.4631 32.6313 31.7795 32.3145 31.7795 31.9244C31.7795 31.5338 31.4631 31.2174 31.0728 31.2174ZM31.0728 32.4796C30.9999 32.4797 30.9277 32.4654 30.8603 32.4375C30.7929 32.4096 30.7316 32.3687 30.6801 32.3171C30.6285 32.2656 30.5876 32.2043 30.5597 32.1369C30.5319 32.0695 30.5175 31.9973 30.5176 31.9244C30.5176 31.6176 30.7657 31.3695 31.0728 31.3695C31.3796 31.3695 31.628 31.6176 31.628 31.9244C31.628 32.2312 31.3796 32.4796 31.0728 32.4796ZM31.3633 31.7605C31.3633 31.729 31.3571 31.6979 31.345 31.6688C31.3329 31.6397 31.3153 31.6133 31.293 31.5911C31.2707 31.5688 31.2443 31.5512 31.2152 31.5392C31.1861 31.5272 31.1549 31.521 31.1234 31.521H30.7828V32.3279H30.9342V32.0002H31.0429L31.1959 32.3279H31.3633L31.2036 31.9862C31.2502 31.9696 31.2906 31.9391 31.3192 31.8987C31.3478 31.8583 31.3632 31.81 31.3633 31.7605ZM31.1234 31.8487H30.9342V31.6721H31.1234C31.1721 31.6721 31.2119 31.7117 31.2119 31.7606C31.2118 31.784 31.2025 31.8064 31.1859 31.8229C31.1693 31.8394 31.1468 31.8487 31.1234 31.8487H31.1234Z" fill="#041E42"/>
<path d="M19.9999 35.08C28.3285 35.08 35.08 28.3287 35.08 20C35.08 11.6722 28.3285 4.91998 19.9999 4.91998C11.6714 4.91998 4.91992 11.6722 4.91992 20C4.91992 28.3287 11.6714 35.08 19.9999 35.08Z" fill="white"/>
<path d="M20.8392 5.64327C22.561 8.34151 23.337 9.33613 23.337 10.8466C23.337 12.6598 21.8132 14.1299 19.9998 14.1299C18.1859 14.1299 16.6625 12.6598 16.6625 10.8466C16.6625 9.33613 17.4385 8.34151 19.1602 5.64327C11.608 6.07776 5.61768 12.3389 5.61768 20C5.61768 27.9434 12.0567 34.383 19.9998 34.383C27.9429 34.383 34.3819 27.9434 34.3819 20C34.3819 12.3389 28.3915 6.07776 20.8392 5.64327ZM19.9998 33.0731C12.7797 33.0731 6.92714 27.2197 6.92714 20C6.92714 13.9433 11.047 8.84876 16.6371 7.36456C16.3401 7.73406 15.3531 9.09376 15.3531 10.8465C15.3531 13.379 17.4375 15.4393 19.9998 15.4393C22.5622 15.4393 24.6464 13.379 24.6464 10.8465C24.6464 9.09376 23.6589 7.73406 23.3624 7.36456C28.9527 8.84881 33.0725 13.9433 33.0725 20C33.0725 27.2197 27.2194 33.0731 19.9998 33.0731Z" fill="#041E42"/>
<path d="M22.7206 21.5677H21.7823V23.0657C21.7823 23.366 21.5388 23.6098 21.2384 23.6098C20.9388 23.6098 20.6949 23.366 20.6949 23.0657V21.1565H21.7823V19.7415H20.6949V18.6395C20.6949 18.3393 20.9388 18.0958 21.2384 18.0958C21.5388 18.0958 21.7823 18.3393 21.7823 18.6395V19.3259H22.7206V16.1536H18.7554V18.0958C19.1391 18.0958 19.4504 18.4064 19.4504 18.7909V23.2119C19.4504 23.3174 19.4085 23.4186 19.3339 23.4932C19.2593 23.5678 19.1581 23.6098 19.0526 23.6098V31.6211C19.0526 32.1934 18.7534 32.4543 18.6104 32.5468C19.0712 32.6033 19.5351 32.6316 19.9995 32.6313C20.574 32.6313 21.1383 32.588 21.6889 32.5055C21.6889 32.5055 22.7206 32.3008 22.7206 31.3911V21.5677H22.7206Z" fill="#041E42"/>
<path d="M18.7561 21.5677H17.818V23.2133C17.818 23.4322 17.6406 23.6097 17.4217 23.6097C17.2029 23.6097 17.0252 23.4322 17.0252 23.2133V18.4939C17.0252 18.4416 17.0354 18.3898 17.0554 18.3415C17.0754 18.2932 17.1047 18.2493 17.1417 18.2123C17.1786 18.1754 17.2225 18.146 17.2708 18.126C17.3191 18.106 17.3709 18.0958 17.4232 18.0958V16.1536H15.383V18.0958C15.6025 18.0958 15.7806 18.2738 15.7806 18.4939V23.2119C15.7806 23.4314 15.6025 23.6097 15.383 23.6097V30.5877C15.383 31.1704 15.0641 31.3616 14.9126 31.4197C15.8126 31.8783 16.7882 32.219 17.8164 32.4203C17.8164 32.4203 18.7561 32.5635 18.7561 31.621V21.5677Z" fill="#041E42"/>
<path d="M15.0856 30.5877V23.6098C14.866 23.6098 14.6879 23.4315 14.6879 23.2118V18.4939C14.6878 18.4416 14.6981 18.3899 14.7181 18.3416C14.738 18.2933 14.7673 18.2494 14.8043 18.2125C14.8412 18.1755 14.8851 18.1462 14.9333 18.1262C14.9816 18.1062 15.0334 18.0959 15.0856 18.0959V16.1535H13.0456V18.0959C13.265 18.0959 13.4432 18.2738 13.4432 18.4939V23.2117C13.4432 23.4314 13.265 23.6097 13.0456 23.6097V28.3631C13.0456 29.3555 12.5363 29.5126 12.2705 29.5264C12.9052 30.1449 13.6134 30.6832 14.3792 31.1292C14.3792 31.1292 15.0857 31.3964 15.0857 30.5877M30.8325 19.3259V17.1887C30.8325 16.6195 30.367 16.1537 29.7977 16.1537H28.5764C28.0073 16.1537 27.5416 16.6195 27.5416 17.1887V20.0432C27.5416 20.1952 27.6339 20.4026 27.7475 20.5032L29.3823 21.9653C29.4956 22.0669 29.5883 22.2745 29.5883 22.4257V23.0558C29.5883 23.3619 29.3397 23.6097 29.0338 23.6097C28.7278 23.6097 28.48 23.3619 28.48 23.0558V21.5679H27.5415V29.7053C29.5705 27.8219 30.8325 25.1864 30.8325 22.268V21.8475C30.8325 21.6958 30.7402 21.4892 30.6273 21.3877L28.9921 19.9257C28.8784 19.8238 28.7859 19.6172 28.7859 19.4651V18.4964C28.7859 18.2755 28.9659 18.0959 29.1874 18.0959C29.4085 18.0959 29.5883 18.2755 29.5883 18.4964V19.3259H30.8325V19.3259Z" fill="#041E42"/>
<path d="M12.7479 28.3631V17.1889C12.7479 16.6193 12.2824 16.1535 11.7132 16.1535H10.2017C9.63238 16.1535 9.1665 16.6193 9.1665 17.1889V22.268C9.1665 24.8122 10.1254 27.1413 11.7151 28.9439C12.0259 29.3493 12.7479 29.4651 12.7479 28.3631ZM11.5036 23.0637C11.5036 23.365 11.2591 23.6096 10.9576 23.6096C10.6557 23.6096 10.4114 23.365 10.4114 23.0637V18.6419C10.4114 18.3397 10.6557 18.0959 10.9575 18.0959C11.0293 18.0959 11.1003 18.11 11.1666 18.1374C11.2328 18.1648 11.2931 18.205 11.3438 18.2557C11.3945 18.3064 11.4347 18.3667 11.4621 18.4329C11.4896 18.4992 11.5036 18.5702 11.5036 18.642V23.0637ZM26.8466 23.2117V20.8972C26.8466 20.5008 26.4019 20.3192 26.4019 20.3192C26.4019 20.3192 26.8466 20.1375 26.8466 19.7416V17.1887C26.8466 16.6194 26.3806 16.1537 25.8117 16.1537H23.0176L23.0173 18.0959C23.0695 18.0958 23.1213 18.1061 23.1696 18.1261C23.2179 18.1461 23.2618 18.1754 23.2988 18.2124C23.3358 18.2493 23.3651 18.2932 23.3851 18.3415C23.4051 18.3898 23.4153 18.4416 23.4153 18.4939V23.2117C23.4153 23.264 23.405 23.3158 23.385 23.3641C23.365 23.4124 23.3357 23.4563 23.2987 23.4932C23.2618 23.5302 23.2179 23.5595 23.1696 23.5795C23.1213 23.5995 23.0695 23.6098 23.0173 23.6098V31.391C23.0173 31.7943 22.8549 32.0988 22.6356 32.3207C23.369 32.1448 24.073 31.901 24.7395 31.5907C24.7395 31.5907 25.2181 31.3583 25.2181 30.4873V23.6098C24.9096 23.6098 24.6601 23.3596 24.6601 23.0517V21.3249C24.6601 21.0882 24.8511 20.8972 25.0872 20.8972C25.1434 20.8971 25.199 20.9081 25.251 20.9296C25.3029 20.951 25.3501 20.9825 25.3899 21.0223C25.4296 21.062 25.4611 21.1092 25.4826 21.1611C25.5041 21.213 25.5151 21.2687 25.515 21.3249V30.5771C25.515 30.8388 25.4791 31.0579 25.4238 31.2422C25.9745 30.9358 26.4978 30.5824 26.9877 30.1859C26.9877 30.1859 27.2445 29.9732 27.2445 28.9616V23.6098C27.1923 23.6098 27.1405 23.5995 27.0922 23.5795C27.0439 23.5595 27 23.5301 26.9631 23.4932C26.9261 23.4562 26.8968 23.4123 26.8768 23.3641C26.8568 23.3158 26.8465 23.264 26.8466 23.2117ZM25.6017 19.2703C25.6017 19.5305 25.3911 19.7416 25.1309 19.7416C24.8707 19.7416 24.6601 19.5305 24.6601 19.2703V18.5668C24.6601 18.5049 24.6722 18.4437 24.6958 18.3865C24.7195 18.3294 24.7542 18.2775 24.7979 18.2338C24.8416 18.19 24.8935 18.1553 24.9507 18.1317C25.0078 18.108 25.069 18.0959 25.1309 18.0959C25.1927 18.0959 25.254 18.108 25.3111 18.1317C25.3682 18.1553 25.4202 18.19 25.4639 18.2337C25.5076 18.2774 25.5423 18.3294 25.566 18.3865C25.5896 18.4436 25.6018 18.5049 25.6017 18.5667V19.2703Z" fill="#041E42"/>
<path d="M22.4316 10.8942C22.4316 9.19079 20.954 8.2809 20.0001 5.90231C19.046 8.2809 17.5684 9.19075 17.5684 10.8941C17.5684 12.0583 18.5298 13.1919 20 13.1919C21.4707 13.1919 22.4316 12.0583 22.4316 10.8942Z" fill="#FC4C02"/>
</svg>
