<svg width="24" height="24" viewBox="0 0 24 24" fill="none" xmlns="http://www.w3.org/2000/svg">
<path d="M14.4945 21.4618V21.8431H14.3992V21.4618H14.2888V21.367H14.6049V21.4618H14.4945ZM15.0113 21.8431V21.5621L14.931 21.7372H14.8467L14.7664 21.5621V21.8431H14.6711V21.367H14.7664L14.8889 21.6212L15.0113 21.367H15.1066V21.8431L15.0113 21.8431ZM21.0896 3.75142C18.4864 2.39627 15.3432 1.68 11.9998 1.68C8.65587 1.68 5.51275 2.39634 2.91015 3.75155L2.77002 3.82443V7.78934C2.77002 8.84476 2.92069 11.6259 4.31618 14.6497C5.88182 18.0422 8.14387 20.3176 11.8798 22.2577L11.9998 22.32L12.1198 22.2577C15.856 20.3172 18.118 18.0418 19.6835 14.6497C21.0791 11.6259 21.2297 8.84476 21.2297 7.78931V3.82437L21.0896 3.75142Z" fill="white"/>
<path d="M3.03027 3.98245V7.78937C3.03027 8.8276 3.17866 11.5638 4.55247 14.5406C6.22818 18.1714 8.69337 20.3097 11.9997 22.0267C15.2789 20.3235 17.7607 18.1946 19.447 14.5406C20.8209 11.5638 20.9692 8.8276 20.9692 7.78937V3.98239C18.1961 2.53872 15.0253 1.94038 11.9997 1.94038C9.00226 1.94038 5.82141 2.52911 3.03027 3.98245Z" fill="#041E42"/>
<path d="M3.51709 4.2778V7.78937C3.51709 8.79541 3.66102 11.4474 4.99446 14.3366C6.55252 17.7125 8.91551 19.8763 11.9998 21.4782C15.0964 19.8699 17.4524 17.7008 19.0051 14.3366C20.3385 11.4474 20.4824 8.79541 20.4824 7.78937V4.2778C18.0264 2.99915 14.8119 2.4271 11.9998 2.4271C9.17787 2.4271 5.96832 3.00147 3.51712 4.2778H3.51709Z" fill="#B9975B"/>
<path d="M15.6556 11.3952C16.0562 11.1698 16.5945 10.669 16.5945 10.669C16.8825 9.81764 17.1313 8.67625 17.1313 8.67625C17.1313 8.56357 16.9952 8.38042 16.9952 8.38042C16.859 8.31005 16.5445 8.26309 16.5445 8.26309C16.0796 8.3382 15.474 8.7936 14.9919 9.17183C15.2423 9.17183 15.6806 9.09092 15.6806 9.09092C15.5929 9.31628 15.2799 9.90478 15.2799 9.90478C15.4802 9.91726 15.8684 9.82964 15.8684 9.82964C15.7181 10.2929 15.4302 10.8568 15.4302 10.8568L15.6556 11.3952ZM12.3064 9.81087C12.2436 9.78426 12.1805 9.75837 12.1171 9.73321C11.9314 9.65926 11.7711 9.60114 11.7711 9.60114C11.7711 9.60114 11.733 9.6014 11.6578 9.60995C11.639 9.61211 11.6179 9.61479 11.5944 9.61808C11.538 9.62614 11.4819 9.63571 11.426 9.64678C11.1319 9.70457 10.6519 9.83544 9.99375 10.1318H9.99372L9.93721 10.0156L9.86185 9.86079L9.10742 10.8991H9.10749C9.36378 10.947 9.62916 10.9626 9.87304 10.9614C10.4095 10.9588 10.8415 10.875 10.8415 10.875C11.1223 10.6384 11.3711 10.3817 11.5414 10.1952C11.5982 10.133 11.6462 10.0787 11.6837 10.0354C11.7339 9.97779 11.7654 9.9399 11.7742 9.92977C11.9495 9.87969 12.0873 9.85466 12.3064 9.8109V9.81087ZM13.4586 10.4961C13.033 10.158 12.7572 10.0663 12.7572 10.0663C12.7572 10.0663 12.7827 10.5503 12.7451 10.7036C12.3314 11.2713 11.838 11.8036 11.838 11.8036L13.3178 11.1252C13.4035 10.8094 13.4586 10.4961 13.4586 10.4961Z" fill="#041E42"/>
<path d="M11.9996 6.8032C7.4154 6.8032 4.37307 8.28825 4.12842 8.41151C4.27361 11.2724 5.45863 16.4395 10.3451 19.814C10.999 19.4639 11.4349 18.8751 11.694 18.4163C12.2092 19.0391 12.2624 19.9083 12.2625 19.9088C12.2249 20.3345 11.9996 20.8078 11.9996 20.8078H11.9996C12.4252 20.587 12.8404 20.3467 13.2438 20.0876C13.8969 19.6675 14.488 19.2161 15.0226 18.7421L15.0226 18.7421C15.038 18.7285 15.0533 18.7149 15.0686 18.7012C16.7919 16.9183 16.8412 14.2462 16.8412 14.2462C16.4656 12.6875 15.8057 12.1464 15.8057 12.1464C15.9372 12.8595 16.0185 13.642 16.0185 13.642C15.5991 14.5685 14.8479 15.1883 14.8479 15.1883C14.1718 15.2634 13.6358 15.196 12.6976 14.8784C11.8837 14.6029 11.2797 14.1741 11.2797 14.1741C11.2797 14.1741 10.9698 14.1553 10.613 14.1929C10.311 14.2247 9.94629 14.3056 9.94629 14.3056C10.3501 13.5919 10.5895 12.8669 10.6331 12.5371C10.3583 12.2463 10.0611 11.9696 9.75724 11.751C9.08856 11.7821 8.55657 11.8208 8.55657 11.8208L8.78193 10.9069C8.78193 10.9069 8.62813 11.0349 8.45627 11.2068C8.27177 11.3913 8.06827 11.6205 8.06827 11.6205C7.66757 11.7832 7.10416 11.8709 7.10416 11.8709C6.81623 11.7958 6.54075 11.608 6.54075 11.608C7.21687 10.6064 8.31866 10.2057 8.31866 10.2057C8.11829 9.96789 8.13084 9.78007 8.13084 9.78007C8.41173 9.59437 8.66835 9.44144 8.89513 9.31635C8.83959 9.46315 8.83192 9.56673 8.83192 9.56673C8.83192 9.56673 9.21747 9.25584 9.45222 9.11498C9.71515 8.95721 9.97131 8.82228 9.97131 8.82228C10.1414 8.27435 10.4329 7.83004 10.508 7.76693C10.508 7.76693 10.6617 7.74235 10.7413 7.75183C10.7562 7.93108 10.9609 8.21675 11.0442 8.32627C10.6189 8.46517 10.2506 8.74191 10.2506 8.74191C10.2506 8.74191 11.185 8.49265 12.012 8.46495C13.1326 8.42737 13.8231 8.68009 13.8231 8.68009C13.6548 8.92309 13.4269 9.17912 13.4269 9.17912C15.2804 8.5508 15.4739 8.07056 16.4787 7.85461C16.8449 7.91405 17.1766 8.03299 17.1766 8.03299C17.4145 8.28338 17.4709 8.54006 17.4709 8.54006C17.3331 9.61053 16.9012 10.813 16.9012 10.813C16.5631 11.2261 15.981 11.6017 15.981 11.6017C16.5631 11.5267 17.4271 11.2632 17.4271 11.2632C17.9642 11.6551 18.6693 12.5071 18.9619 12.8739C19.571 11.1845 19.8106 9.59927 19.8709 8.41151C19.6263 8.28825 16.584 6.8032 11.9996 6.8032H11.9996Z" fill="#041E42"/>
<path d="M6.85384 13.9994C6.85384 13.9994 7.09781 13.6135 7.28351 13.4364L7.02277 12.703C6.92489 12.6114 6.83865 12.5206 6.75993 12.4182C6.69357 12.3316 6.6313 12.242 6.57333 12.1497L6.31543 12.8224C6.31543 12.8224 6.55334 13.486 6.85384 13.9994ZM7.2044 14.387C7.2044 14.387 7.35465 14.9066 7.80538 15.2634C7.80538 15.2634 8.48147 14.9817 9.45803 14.8882C9.45803 14.8882 8.20599 14.375 7.39222 13.799C7.39222 13.799 7.21695 14.0239 7.2044 14.387ZM10.8415 10.875C10.8415 10.875 10.4095 10.9589 9.87299 10.9615C9.62912 10.9626 9.36373 10.947 9.10744 10.8991L9.65833 11.1568C10.056 11.1755 10.5222 11.1693 11.0011 11.0566C11.2297 10.8438 11.5865 10.4556 11.7743 10.1301C11.7743 10.1301 11.7805 10.0425 11.7742 9.92978C11.7653 9.93994 11.7338 9.9778 11.6837 10.0354C11.6369 10.0893 11.5894 10.1425 11.5413 10.1952C11.371 10.3817 11.1223 10.6384 10.8415 10.875H10.8415ZM9.25769 14.1496C9.25769 14.1496 9.30268 14.0788 9.36354 13.9608C9.12489 13.7394 8.86331 13.5768 8.86331 13.5768C9.15175 13.5688 9.39846 13.6113 9.51086 13.6349C9.52892 13.5887 9.54652 13.5403 9.56358 13.4901C9.27953 13.2635 8.93632 13.1027 8.93632 13.1027C9.25098 13.0565 9.55907 13.0795 9.6674 13.0902C9.67514 13.046 9.68126 13.0012 9.68633 12.956C9.34728 12.7241 8.85392 12.5877 8.85392 12.5877C9.0759 12.5156 9.28082 12.4829 9.41185 12.4682L9.16372 12.1772C9.16372 12.1772 8.88517 12.1646 8.58467 12.1881C8.19722 12.2141 7.84189 12.2648 7.84189 12.2648C7.78284 12.3092 7.69299 12.3806 7.62688 12.4323C7.50652 12.5401 7.46321 12.5994 7.3859 12.6968L7.398 13.4122C7.62833 13.5196 8.53178 13.9329 9.25769 14.1496ZM13.0888 16.2024C13.0888 16.2024 13.2203 16.5123 13.3048 16.9536C13.3772 17.3318 13.3424 17.564 13.3424 17.564C12.1404 16.1868 10.3971 15.339 10.3971 15.339C10.3971 15.339 12.8134 17.3297 12.2625 19.9088C12.225 20.3345 11.9997 20.8078 11.9997 20.8078H11.9997C12.4253 20.587 12.8404 20.3467 13.2438 20.0876C13.897 19.6675 14.488 19.2161 15.0226 18.7421C14.3449 17.223 13.0888 16.2024 13.0888 16.2024ZM9.99367 10.1318C10.6518 9.83542 11.1318 9.70458 11.4259 9.64679C11.4818 9.63572 11.538 9.62615 11.5944 9.61808C11.6155 9.61509 11.6366 9.61239 11.6578 9.60999C11.733 9.60138 11.771 9.60115 11.771 9.60115H11.7711C10.8974 9.447 9.86177 9.86076 9.86177 9.86076L9.93717 10.0157L9.99367 10.1318Z" fill="white"/>
<path d="M10.3285 10.5563C10.2001 10.6086 10.0263 10.5401 9.96539 10.4744C9.91843 10.5542 9.86522 10.644 9.86522 10.644C9.86522 10.644 10.2284 10.813 10.654 10.6064C10.916 10.4793 10.9796 10.2496 10.9796 10.2496C10.8193 10.2619 10.6623 10.282 10.5213 10.3089C10.5046 10.372 10.4553 10.5046 10.3285 10.5563L10.3285 10.5563ZM4.11234 7.77225C6.47391 6.69768 9.40037 6.20823 12 6.20823C14.5911 6.20823 17.5215 6.69617 19.8877 7.7727V4.63884C19.8877 4.63884 16.7827 3.02209 12 3.02209C7.2173 3.02209 4.1123 4.63884 4.1123 4.63884L4.11234 7.77225Z" fill="#C8102E"/>
<path d="M8.35142 5.56135C8.12677 5.60325 7.90284 5.64897 7.67975 5.69851V4.06486C7.54259 4.09536 7.40563 4.12739 7.26892 4.16073V6.20732C7.62752 6.11963 7.9885 6.04192 8.35142 5.97428V5.56135ZM12.0145 4.82041C12.0476 4.82041 12.0806 4.82051 12.1136 4.82073C12.2245 5.09366 12.3353 5.36753 12.4462 5.64224C12.5946 5.64562 12.7429 5.65062 12.8912 5.6572C12.7805 5.38001 12.6696 5.10363 12.5588 4.82825C12.6046 4.82954 12.6504 4.83095 12.6962 4.8326C12.7611 4.71722 12.8261 4.60192 12.8912 4.48669V3.96385C12.8264 3.84323 12.7614 3.72297 12.6966 3.60304C12.3296 3.59018 11.9624 3.58747 11.5954 3.59491C11.5954 4.27709 11.5954 4.95924 11.5953 5.64136C11.735 5.63854 11.8748 5.63719 12.0145 5.6373V4.82041ZM12.0145 4.00365C12.1671 4.00381 12.3197 4.00568 12.4723 4.00926V4.41319C12.3197 4.40958 12.1671 4.40767 12.0145 4.40754V4.00365ZM5.65542 5.85815C5.81128 5.80576 5.96779 5.7553 6.12491 5.7068V5.29384C5.9678 5.34235 5.81129 5.3928 5.65542 5.44519V5.04129C5.87348 4.96801 6.09279 4.89849 6.31325 4.83276V4.4199C5.95698 4.52605 5.60375 4.64215 5.25397 4.76807C5.25397 5.45025 5.25397 6.13243 5.25391 6.81462C5.38723 6.76658 5.52108 6.72 5.65542 6.67488V5.85815ZM17.903 5.7157C18.0505 5.76149 18.1975 5.80898 18.3439 5.85815V6.67488C18.478 6.72003 18.612 6.7666 18.7453 6.81462V5.12166C18.6834 4.98167 18.6212 4.84177 18.5588 4.70195C18.2702 4.60127 17.9792 4.50724 17.6862 4.41996C17.6233 4.51897 17.5603 4.6183 17.4973 4.71795V6.4112C17.633 6.45015 17.7682 6.49053 17.903 6.53234V5.7157ZM17.903 4.89894C18.0504 4.94467 18.1973 4.99214 18.3439 5.04145V5.44528C18.1973 5.39607 18.0504 5.34853 17.903 5.30287V4.89894ZM10.4197 5.70003C10.4846 5.57706 10.5495 5.45438 10.6144 5.33202V3.99262C10.5496 3.87955 10.4847 3.76654 10.4197 3.6536C10.1182 3.67755 9.81737 3.70841 9.51732 3.74616C9.45258 3.87224 9.38802 3.99842 9.32363 4.12468V5.4646C9.38813 5.57361 9.45269 5.68293 9.51732 5.79258C9.81738 5.75488 10.1183 5.72402 10.4197 5.70003H10.4197ZM9.74033 4.13239C9.89217 4.11507 10.0441 4.09949 10.1962 4.08562V5.30609C10.0441 5.3199 9.89213 5.33544 9.74033 5.35282V4.13239ZM14.2886 3.72272C14.1496 3.70663 14.0104 3.692 13.8711 3.67882V5.72541C14.0104 5.73857 14.1496 5.75314 14.2886 5.7692V3.72272ZM16.5397 5.80813V4.46872C16.4761 4.33619 16.4124 4.20375 16.3484 4.0714C15.9887 3.99091 15.6267 3.9204 15.263 3.85994V5.90646C15.6267 5.96686 15.9887 6.03735 16.3484 6.11786C16.4123 6.01434 16.476 5.91107 16.5397 5.80813ZM16.1282 5.65688C15.9783 5.62506 15.8279 5.59503 15.6773 5.56677V4.34627C15.8278 4.37458 15.9782 4.40464 16.1282 4.43641V5.65688Z" fill="white"/>
</svg>
