<svg width="40" height="40" viewBox="0 0 40 40" fill="none" xmlns="http://www.w3.org/2000/svg">
<path d="M23.7882 34.3674V34.9464H23.6434V34.3674H23.4757V34.2236H23.9557V34.3674H23.7882ZM24.5728 34.9464V34.5198L24.4509 34.7856H24.323L24.201 34.5198V34.9465H24.0563V34.2235H24.201L24.3869 34.6095L24.5728 34.2235H24.7176V34.9464L24.5728 34.9464ZM33.8026 7.47479C29.8497 5.41704 25.0769 4.32941 20 4.32941C14.9223 4.32941 10.1496 5.41714 6.19764 7.47498L5.98486 7.58566V13.6062C5.98486 15.2089 6.21365 19.4319 8.33266 24.0235C10.71 29.1749 14.1449 32.63 19.8178 35.576L20 35.6706L20.1822 35.576C25.8555 32.6295 29.2903 29.1743 31.6675 24.0235C33.7865 19.4319 34.0153 15.2089 34.0153 13.6062V7.58556L33.8026 7.47479Z" fill="white"/>
<path d="M6.37988 7.82561V13.6063C6.37988 15.1828 6.6052 19.3377 8.69129 23.8578C11.2358 29.3711 14.9791 32.618 19.9997 35.2252C24.9791 32.639 28.7475 29.4063 31.3082 23.8578C33.3944 19.3377 33.6196 15.1828 33.6196 13.6063V7.82551C29.4087 5.63334 24.5939 4.72479 19.9997 4.72479C15.4482 4.72479 10.6181 5.61875 6.37988 7.82561Z" fill="#041E42"/>
<path d="M7.11914 8.27406V13.6063C7.11914 15.1339 7.3377 19.1609 9.36248 23.548C11.7284 28.6743 15.3165 31.9599 19.9998 34.3923C24.702 31.9501 28.2795 28.6565 30.6372 23.548C32.6619 19.1609 32.8805 15.1339 32.8805 13.6063V8.27406C29.1511 6.33248 24.27 5.46384 19.9998 5.46384C15.7148 5.46384 10.8412 6.336 7.11919 8.27406H7.11914Z" fill="#B9975B"/>
<path d="M25.551 19.0816C26.1594 18.7394 26.9769 17.9789 26.9769 17.9789C27.4142 16.6862 27.7919 14.953 27.7919 14.953C27.7919 14.7819 27.5852 14.5038 27.5852 14.5038C27.3784 14.3969 26.9008 14.3256 26.9008 14.3256C26.195 14.4397 25.2753 15.1312 24.5432 15.7055C24.9235 15.7055 25.589 15.5826 25.589 15.5826C25.4559 15.9249 24.9806 16.8185 24.9806 16.8185C25.2848 16.8374 25.8742 16.7044 25.8742 16.7044C25.646 17.4078 25.2088 18.2641 25.2088 18.2641L25.551 19.0816ZM20.4654 16.6759C20.3701 16.6355 20.2743 16.5962 20.178 16.5579C19.896 16.4457 19.6527 16.3574 19.6527 16.3574C19.6527 16.3574 19.5948 16.3578 19.4806 16.3708C19.4521 16.3741 19.4199 16.3781 19.3843 16.3831C19.2987 16.3954 19.2134 16.4099 19.1286 16.4267C18.6819 16.5145 17.9531 16.7132 16.9538 17.1632H16.9537L16.8679 16.9868L16.7535 16.7517L15.6079 18.3283H15.608C15.9972 18.4011 16.4002 18.4248 16.7705 18.423C17.585 18.419 18.2411 18.2918 18.2411 18.2918C18.6674 17.9324 19.0452 17.5426 19.3038 17.2594C19.39 17.1651 19.4629 17.0825 19.52 17.0169C19.5961 16.9293 19.6439 16.8718 19.6573 16.8564C19.9236 16.7804 20.1328 16.7424 20.4654 16.6759V16.6759ZM22.2151 17.7163C21.5688 17.203 21.1499 17.0638 21.1499 17.0638C21.1499 17.0638 21.1886 17.7986 21.1316 18.0315C20.5035 18.8936 19.7542 19.7017 19.7542 19.7017L22.0012 18.6717C22.1313 18.1921 22.2151 17.7163 22.2151 17.7163Z" fill="#041E42"/>
<path d="M19.9995 12.1088C13.0385 12.1088 8.41885 14.3638 8.04736 14.551C8.26783 18.8951 10.0673 26.7412 17.4872 31.8652C18.4802 31.3337 19.142 30.4396 19.5354 29.7429C20.3177 30.6887 20.3986 32.0085 20.3987 32.0092C20.3416 32.6557 19.9995 33.3744 19.9995 33.3744H19.9996C20.6458 33.0391 21.2762 32.6741 21.8888 32.2807C22.8806 31.6429 23.778 30.9574 24.5898 30.2376L24.5899 30.2377C24.6132 30.217 24.6364 30.1963 24.6597 30.1755C27.2764 27.4682 27.3513 23.4108 27.3513 23.4108C26.7809 21.0439 25.779 20.2222 25.779 20.2222C25.9786 21.3051 26.1021 22.4933 26.1021 22.4933C25.4653 23.9001 24.3246 24.8412 24.3246 24.8412C23.298 24.9553 22.4841 24.853 21.0594 24.3707C19.8236 23.9524 18.9063 23.3013 18.9063 23.3013C18.9063 23.3013 18.4358 23.2728 17.894 23.3298C17.4354 23.3781 16.8816 23.5009 16.8816 23.5009C17.4947 22.4172 17.8584 21.3163 17.9246 20.8155C17.5073 20.374 17.0559 19.9538 16.5945 19.6218C15.5792 19.6691 14.7714 19.7279 14.7714 19.7279L15.1136 18.3401C15.1136 18.3401 14.88 18.5346 14.6191 18.7956C14.3389 19.0757 14.0299 19.4238 14.0299 19.4238C13.4214 19.6708 12.5659 19.8039 12.5659 19.8039C12.1287 19.6899 11.7104 19.4047 11.7104 19.4047C12.7371 17.8838 14.4101 17.2754 14.4101 17.2754C14.1059 16.9143 14.1249 16.6291 14.1249 16.6291C14.5514 16.3471 14.9411 16.1149 15.2855 15.9249C15.2011 16.1478 15.1895 16.3051 15.1895 16.3051C15.1895 16.3051 15.7749 15.8331 16.1314 15.6192C16.5306 15.3796 16.9196 15.1747 16.9196 15.1747C17.1778 14.3427 17.6205 13.668 17.7346 13.5722C17.7346 13.5722 17.9679 13.5349 18.0888 13.5493C18.1115 13.8214 18.4223 14.2552 18.5487 14.4215C17.903 14.6324 17.3437 15.0527 17.3437 15.0527C17.3437 15.0527 18.7625 14.6742 20.0184 14.6321C21.7199 14.5751 22.7685 14.9588 22.7685 14.9588C22.5128 15.3278 22.1668 15.7166 22.1668 15.7166C24.9813 14.7625 25.2752 14.0332 26.8008 13.7053C27.3569 13.7956 27.8606 13.9762 27.8606 13.9762C28.2219 14.3564 28.3074 14.7462 28.3074 14.7462C28.0983 16.3716 27.4424 18.1976 27.4424 18.1976C26.9291 18.8249 26.0451 19.3952 26.0451 19.3952C26.9291 19.2812 28.2409 18.8811 28.2409 18.8811C29.0565 19.4763 30.1273 20.77 30.5715 21.3269C31.4964 18.7616 31.8602 16.3545 31.9518 14.551C31.5804 14.3638 26.9607 12.1088 19.9996 12.1088H19.9995Z" fill="#041E42"/>
<path d="M12.1862 23.036C12.1862 23.036 12.5567 22.45 12.8387 22.1811L12.4427 21.0675C12.2941 20.9284 12.1632 20.7904 12.0436 20.635C11.9428 20.5036 11.8483 20.3675 11.7603 20.2273L11.3687 21.2489C11.3687 21.2489 11.7299 22.2564 12.1862 23.036ZM12.7185 23.6245C12.7185 23.6245 12.9467 24.4136 13.6311 24.9554C13.6311 24.9554 14.6577 24.5276 16.1406 24.3857C16.1406 24.3857 14.2394 23.6063 13.0037 22.7317C13.0037 22.7317 12.7376 23.0733 12.7185 23.6245ZM18.2414 18.2918C18.2414 18.2918 17.5853 18.4191 16.7707 18.423C16.4004 18.4247 15.9974 18.4011 15.6082 18.3283L16.4447 18.7196C17.0486 18.7481 17.7566 18.7386 18.4837 18.5675C18.8307 18.2443 19.3726 17.655 19.6578 17.1607C19.6578 17.1607 19.6672 17.0276 19.6576 16.8564C19.6441 16.8719 19.5963 16.9294 19.5202 17.0169C19.4491 17.0986 19.377 17.1795 19.304 17.2595C19.0454 17.5427 18.6677 17.9324 18.2413 18.2918H18.2414ZM15.8364 23.2641C15.8364 23.2641 15.9047 23.1566 15.9971 22.9774C15.6347 22.6413 15.2375 22.3943 15.2375 22.3943C15.6755 22.3821 16.0501 22.4467 16.2208 22.4825C16.2482 22.4124 16.275 22.3389 16.3009 22.2627C15.8695 21.9186 15.3484 21.6744 15.3484 21.6744C15.8262 21.6043 16.294 21.6392 16.4585 21.6555C16.4703 21.5883 16.4796 21.5202 16.4873 21.4517C15.9724 21.0996 15.2233 20.8924 15.2233 20.8924C15.5603 20.7829 15.8715 20.7333 16.0705 20.7109L15.6937 20.269C15.6937 20.269 15.2707 20.25 14.8144 20.2857C14.2261 20.3252 13.6865 20.4022 13.6865 20.4022C13.5969 20.4695 13.4604 20.578 13.36 20.6564C13.1773 20.8201 13.1115 20.9102 12.9941 21.0581L13.0125 22.1443C13.3622 22.3074 14.7341 22.935 15.8364 23.2641ZM21.6538 26.3812C21.6538 26.3812 21.8535 26.8517 21.9818 27.5219C22.0917 28.0962 22.0389 28.4487 22.0389 28.4487C20.2137 26.3575 17.5665 25.0702 17.5665 25.0702C17.5665 25.0702 21.2356 28.093 20.3991 32.0093C20.3421 32.6557 20 33.3744 20 33.3744H20C20.6462 33.0391 21.2766 32.6742 21.8892 32.2807C22.881 31.6429 23.7785 30.9575 24.5903 30.2376C23.5612 27.9309 21.6538 26.3812 21.6538 26.3812ZM16.9539 17.1631C17.9533 16.7131 18.6822 16.5145 19.1288 16.4267C19.2136 16.4099 19.2989 16.3954 19.3845 16.3831C19.4166 16.3786 19.4487 16.3745 19.4808 16.3708C19.5951 16.3578 19.6528 16.3574 19.6528 16.3574H19.653C18.3262 16.1233 16.7537 16.7516 16.7537 16.7516L16.8681 16.9868L16.9539 17.1631Z" fill="white"/>
<path d="M17.4621 17.8078C17.2671 17.8871 17.0032 17.7832 16.9107 17.6834C16.8394 17.8046 16.7586 17.9409 16.7586 17.9409C16.7586 17.9409 17.31 18.1975 17.9563 17.8838C18.3542 17.6907 18.4507 17.342 18.4507 17.342C18.2073 17.3607 17.969 17.3913 17.7548 17.4321C17.7294 17.5278 17.6546 17.7293 17.462 17.8077L17.4621 17.8078ZM8.023 13.5803C11.609 11.9486 16.0527 11.2053 20.0002 11.2053C23.9346 11.2053 28.3843 11.9463 31.9774 13.5809V8.82227C31.9774 8.82227 27.2626 6.36728 20.0002 6.36728C12.7378 6.36728 8.02295 8.82227 8.02295 8.82227L8.023 13.5803Z" fill="#C8102E"/>
<path d="M14.4598 10.2231C14.1187 10.2867 13.7787 10.3562 13.4399 10.4314V7.95073C13.2316 7.99706 13.0237 8.04569 12.8161 8.09632V11.204C13.3606 11.0708 13.9087 10.9528 14.4598 10.8501V10.2231ZM20.0221 9.09802C20.0723 9.09802 20.1224 9.09816 20.1726 9.09851C20.3409 9.51294 20.5092 9.9288 20.6776 10.3459C20.9029 10.3511 21.1281 10.3587 21.3534 10.3687C21.1852 9.94775 21.0168 9.52808 20.8486 9.10992C20.9181 9.11188 20.9877 9.11403 21.0573 9.11653C21.1558 8.94133 21.2544 8.76625 21.3533 8.59127V7.79736C21.2549 7.61421 21.1563 7.4316 21.0578 7.24948C20.5006 7.22996 19.943 7.22584 19.3856 7.23713C19.3856 8.27301 19.3856 9.30884 19.3855 10.3446C19.5977 10.3403 19.8099 10.3383 20.0221 10.3384V9.09802ZM20.0221 7.85779C20.2538 7.85803 20.4855 7.86087 20.7172 7.86631V8.47967C20.4855 8.47418 20.2538 8.47129 20.0221 8.4711V7.85779ZM10.366 10.6738C10.6027 10.5942 10.8404 10.5176 11.0789 10.444V9.81691C10.8404 9.89057 10.6027 9.96718 10.366 10.0467V9.43342C10.6972 9.32214 11.0302 9.21658 11.3649 9.11677V8.48985C10.8239 8.65104 10.2876 8.82734 9.75644 9.01854C9.75644 10.0544 9.75645 11.0903 9.75635 12.1262C9.9588 12.0532 10.162 11.9825 10.366 11.914V10.6738ZM28.9636 10.4575C29.1876 10.527 29.4108 10.5991 29.6331 10.6738V11.914C29.8368 11.9825 30.0401 12.0532 30.2427 12.1262V9.55545C30.1485 9.34289 30.0541 9.13046 29.9595 8.91815C29.5211 8.76526 29.0793 8.62249 28.6344 8.48995C28.5389 8.64029 28.4432 8.79112 28.3475 8.94244V11.5136C28.5535 11.5727 28.7589 11.634 28.9636 11.6975V10.4575ZM28.9636 9.21726C29.1874 9.2867 29.4105 9.35879 29.6331 9.43366V10.0469C29.4105 9.97214 29.1874 9.89996 28.9636 9.83062V9.21726ZM17.6005 10.4337C17.6989 10.247 17.7975 10.0607 17.896 9.87489V7.84104C17.7977 7.66935 17.6992 7.49775 17.6005 7.32626C17.1427 7.36262 16.6858 7.40948 16.2302 7.46681C16.1319 7.65826 16.0339 7.84985 15.9361 8.04157V10.0762C16.034 10.2417 16.1321 10.4077 16.2302 10.5742C16.6858 10.517 17.1427 10.4701 17.6005 10.4337H17.6005ZM16.5688 8.05328C16.7994 8.02698 17.0301 8.00333 17.2611 7.98227V9.83551C17.0301 9.85647 16.7993 9.88008 16.5688 9.90647V8.05328ZM23.4752 7.43121C23.2642 7.40678 23.0529 7.38456 22.8413 7.36456V10.4722C23.0528 10.4922 23.2641 10.5143 23.4752 10.5387V7.43121ZM26.8935 10.5978V8.56399C26.797 8.36275 26.7001 8.16165 26.603 7.96068C26.0567 7.83845 25.5071 7.73138 24.9549 7.63958V10.7471C25.5071 10.8389 26.0567 10.9459 26.603 11.0682C26.7 10.911 26.7968 10.7542 26.8935 10.5978ZM26.2686 10.3682C26.0409 10.3199 25.8127 10.2742 25.5839 10.2313V8.37805C25.8125 8.42105 26.0408 8.46669 26.2686 8.51492V10.3682Z" fill="white"/>
</svg>
