<svg width="24" height="24" viewBox="0 0 24 24" fill="none" xmlns="http://www.w3.org/2000/svg">
<path d="M0.5 18.4V5.6C0.5 5.31172 0.500389 5.12559 0.511964 4.98392C0.523062 4.84809 0.5419 4.79773 0.554497 4.773C0.602433 4.67892 0.678924 4.60243 0.773005 4.5545C0.797727 4.5419 0.848086 4.52306 0.983918 4.51196C1.12559 4.50039 1.31172 4.5 1.6 4.5H22.4C22.6883 4.5 22.8744 4.50039 23.0161 4.51196C23.1519 4.52306 23.2023 4.5419 23.227 4.5545C23.3211 4.60243 23.3976 4.67892 23.4455 4.773C23.4581 4.79773 23.4769 4.84809 23.488 4.98392C23.4996 5.12559 23.5 5.31172 23.5 5.6V18.4C23.5 18.6883 23.4996 18.8744 23.488 19.0161C23.4769 19.1519 23.4581 19.2023 23.4455 19.227C23.3976 19.3211 23.3211 19.3976 23.227 19.4455C23.2023 19.4581 23.1519 19.4769 23.0161 19.488C22.8744 19.4996 22.6883 19.5 22.4 19.5H1.6C1.31172 19.5 1.12559 19.4996 0.983918 19.488C0.848086 19.4769 0.797727 19.4581 0.773005 19.4455L0.546009 19.891L0.773004 19.4455C0.678924 19.3976 0.602434 19.3211 0.554497 19.227C0.5419 19.2023 0.523062 19.1519 0.511964 19.0161C0.500389 18.8744 0.5 18.6883 0.5 18.4Z" stroke="#E5E5E5"/>
<circle cx="12" cy="12" r="2.75" stroke="#E5E5E5" stroke-width="0.5"/>
<path d="M17.5 4.5V19.5M6.5 4.5V19.5" stroke="#E5E5E5" stroke-width="0.5"/>
<mask id="path-4-outside-1_7_352" maskUnits="userSpaceOnUse" x="21" y="10" width="3" height="4" fill="black">
<rect fill="white" x="21" y="10" width="3" height="4"/>
<path fill-rule="evenodd" clip-rule="evenodd" d="M23 13V11C22.4477 11 22 11.4477 22 12C22 12.5523 22.4477 13 23 13Z"/>
</mask>
<path d="M23 13V13.5H23.5V13H23ZM23 11H23.5V10.5H23V11ZM23.5 13V11H22.5V13H23.5ZM22.5 12C22.5 11.7239 22.7239 11.5 23 11.5V10.5C22.1716 10.5 21.5 11.1716 21.5 12H22.5ZM23 12.5C22.7239 12.5 22.5 12.2761 22.5 12H21.5C21.5 12.8284 22.1716 13.5 23 13.5V12.5Z" fill="#E5E5E5" mask="url(#path-4-outside-1_7_352)"/>
<mask id="path-6-outside-2_7_352" maskUnits="userSpaceOnUse" x="0" y="10" width="3" height="4" fill="black">
<rect fill="white" y="10" width="3" height="4"/>
<path fill-rule="evenodd" clip-rule="evenodd" d="M1 13V11C1.55228 11 2 11.4477 2 12C2 12.5523 1.55228 13 1 13Z"/>
</mask>
<path d="M1 13V13.5H0.5V13H1ZM1 11H0.5V10.5H1V11ZM0.5 13V11H1.5V13H0.5ZM1.5 12C1.5 11.7239 1.27614 11.5 1 11.5V10.5C1.82843 10.5 2.5 11.1716 2.5 12H1.5ZM1 12.5C1.27614 12.5 1.5 12.2761 1.5 12H2.5C2.5 12.8284 1.82843 13.5 1 13.5V12.5Z" fill="#E5E5E5" mask="url(#path-6-outside-2_7_352)"/>
<path d="M12 4.5V19.5" stroke="#E5E5E5"/>
</svg>
