<svg width="24" height="24" viewBox="0 0 24 24" fill="none" xmlns="http://www.w3.org/2000/svg">
<path d="M17.4913 18.7091C17.2242 18.7091 17.0073 18.9256 17.0073 19.1928C17.0073 19.4598 17.2242 19.6766 17.4913 19.6766C17.7583 19.6766 17.9748 19.4598 17.9748 19.1929C17.9748 18.9256 17.7583 18.7091 17.4913 18.7091ZM17.4913 19.5728C17.4414 19.5729 17.3919 19.5631 17.3458 19.544C17.2997 19.5249 17.2578 19.4969 17.2225 19.4616C17.1872 19.4264 17.1592 19.3844 17.1401 19.3383C17.121 19.2922 17.1112 19.2428 17.1113 19.1928C17.1113 18.9829 17.2811 18.8131 17.4913 18.8131C17.7012 18.8131 17.8712 18.9829 17.8712 19.1928C17.8712 19.4029 17.7012 19.5728 17.4913 19.5728ZM17.69 19.0807C17.69 19.0592 17.6858 19.0378 17.6775 19.0179C17.6692 18.998 17.6571 18.98 17.6419 18.9648C17.6267 18.9495 17.6086 18.9375 17.5887 18.9292C17.5687 18.921 17.5474 18.9168 17.5259 18.9168H17.2928V19.469H17.3964V19.2448H17.4708L17.5754 19.469H17.6901L17.5807 19.2352C17.6127 19.2238 17.6403 19.2029 17.6599 19.1753C17.6794 19.1476 17.69 19.1146 17.6901 19.0807H17.69ZM17.5259 19.1411H17.3964V19.0202H17.5259C17.5592 19.0202 17.5864 19.0473 17.5864 19.0807C17.5864 19.0967 17.58 19.1121 17.5686 19.1234C17.5573 19.1347 17.5419 19.1411 17.5259 19.1411Z" fill="white"/>
<path d="M3.68945 15.9012L11.9998 21.9062L20.31 15.9012V2.01511H3.68945V15.9012Z" fill="white"/>
<path d="M4.23831 15.621L11.9999 21.2302L19.7613 15.621V12.2045H4.23828V15.621H4.23831ZM4.23831 11.7241H19.7613V2.56358H4.23828V11.7241H4.23831Z" fill="#A2AAAD"/>
<path d="M4.72754 15.3703L11.9998 20.6261L19.2721 15.3703V13.0541H4.72754V15.3703V15.3703ZM4.72754 11.0028H19.2721V3.05385H4.72754V11.0028Z" fill="#010101"/>
<path d="M18.8363 4.3105H12.0928C12.0928 4.3105 12.5596 5.02652 12.5596 7.02801C12.5596 9.0301 12.0928 9.74482 12.0928 9.74482H13.4379V7.7211H17.4913V9.74482H18.8363C18.8363 9.74482 18.3703 9.0301 18.3703 7.02801C18.3703 5.02652 18.8363 4.3105 18.8363 4.3105ZM17.4913 6.72951H13.4379V5.30135H17.4913V6.72951ZM6.50959 8.754V7.02798C6.50959 5.02655 6.97528 4.3105 6.97528 4.3105H5.16357C5.16357 4.3105 5.62965 5.02652 5.62965 7.02801C5.62965 9.0301 5.16357 9.74482 5.16357 9.74482H11.0804C11.0804 9.74482 11.5732 9.07399 11.5732 8.05098C11.5732 8.05098 10.8984 8.75397 9.31447 8.75397L6.50959 8.754Z" fill="#A2AAAD"/>
<path d="M12.295 4.43615C12.4371 4.76926 12.6848 5.558 12.6848 7.02802C12.6848 8.49733 12.4371 9.28674 12.295 9.61918H13.3121V7.59481H17.6169V9.61914H18.634C18.4919 9.28674 18.2442 8.49736 18.2442 7.02802C18.2442 5.558 18.4919 4.76923 18.634 4.43615H12.295ZM17.6168 6.85519H13.3121V5.17571H17.6168V6.85519ZM6.3835 8.87962V7.02802C6.3835 5.558 6.63086 4.76923 6.77289 4.43615H5.36572C5.50775 4.76926 5.7555 5.558 5.7555 7.02802C5.7555 8.49733 5.50775 9.28674 5.36572 9.61918H11.0122C11.1045 9.47263 11.3709 8.99611 11.4317 8.32128C11.1097 8.54058 10.4368 8.87962 9.31435 8.87962H6.38347H6.3835Z" fill="white"/>
<path d="M14.1868 18.1062L14.7261 15.0137L14.6136 14.9646C14.6136 14.9646 14.1741 15.5524 14.0919 15.6616C13.9112 15.441 13.5673 15.1668 13.101 15.0137C13.138 14.9241 13.3071 14.513 13.3071 14.513C13.3071 14.513 13.0473 14.6177 12.9354 14.6629C12.9472 14.6392 12.9589 14.6164 12.9589 14.6164C12.9589 14.6164 12.5603 14.6374 12.4975 14.6412C12.4655 14.5842 12.2482 14.2001 12.2187 14.1478C12.2449 14.1026 12.3274 13.9585 12.3362 13.9429C12.3496 13.9318 12.4517 13.8447 12.4517 13.8447L12.3195 13.5933L12.0384 13.6124C12.0384 13.6124 12.0335 13.7445 12.0325 13.7687L12.0002 13.8218L11.9681 13.7687C11.9667 13.7445 11.9621 13.6124 11.9621 13.6124L11.6807 13.5933L11.5485 13.8447C11.5485 13.8447 11.6506 13.9318 11.664 13.9429C11.6728 13.9585 11.7553 14.1026 11.7816 14.1478C11.7521 14.2001 11.5348 14.5842 11.5027 14.6412C11.4398 14.6374 11.0412 14.6164 11.0412 14.6164C11.0412 14.6164 11.053 14.6392 11.0648 14.6629L10.6937 14.513C10.6937 14.513 10.8623 14.9241 10.8992 15.0137C10.4329 15.1668 10.0889 15.441 9.90829 15.6616C9.82618 15.5524 9.38668 14.9646 9.38668 14.9646L9.27441 15.0137L9.81341 18.1062C9.81341 18.1062 10.5814 18.3026 12.0001 18.3026C13.4191 18.3026 14.1868 18.1062 14.1868 18.1062H14.1868Z" fill="white"/>
<path d="M11.5527 18.1611C11.5527 18.1611 10.8495 18.0957 10.4326 17.9354C10.7169 17.9759 11.1794 18.0323 11.6009 18.0323C11.6009 18.0323 11.0308 17.9734 10.6518 17.8301C10.9379 17.8687 11.3446 17.9118 11.7193 17.9118C11.7193 17.9118 11.1633 17.8548 10.7847 17.7161C11.1228 17.6435 11.5393 17.5845 12.0001 17.5845C12.4605 17.5845 12.8772 17.6435 13.2152 17.7161C12.8365 17.8548 12.2806 17.9118 12.2806 17.9118C12.6546 17.9118 13.062 17.8687 13.3477 17.8301C12.9691 17.9734 12.3987 18.0323 12.3987 18.0323C12.8202 18.0323 13.2829 17.9759 13.5676 17.9354C13.1504 18.0957 12.4471 18.1611 12.4471 18.1611C13.4816 18.1324 14.0945 17.9793 14.0945 17.9793L14.5697 15.2205L14.0887 15.8632C13.8776 15.5197 13.4678 15.2421 12.9419 15.0877L13.0872 14.7341L12.3434 15.0686V14.8861L12.0001 14.2951L11.6565 14.8862V15.0687L10.9126 14.7342L11.0576 15.0877C10.5321 15.2421 10.1223 15.5197 9.91128 15.8632L9.43018 15.2206L9.90532 17.9793C9.90532 17.9793 10.5183 18.1324 11.5527 18.1611V18.1611ZM14.0032 15.9778L13.8723 16.1526C13.5539 15.5294 12.9161 15.4581 12.9161 15.4581C13.4633 15.6616 13.6904 15.9824 13.7646 16.2959L13.6422 16.4594C13.6422 16.4594 13.6576 16.9 13.5702 17.0839C13.5428 17.074 13.5107 17.0623 13.4747 17.0505C13.7594 15.8783 12.8356 15.6623 12.8356 15.6623C13.4885 15.9993 13.4279 16.6008 13.2953 16.9956C13.2404 16.9811 13.1811 16.9654 13.1161 16.951L13.025 16.5027C13.1151 16.4778 13.1811 16.3953 13.1811 16.2978C13.1811 16.2219 13.1409 16.1539 13.081 16.1172C13.0395 16.0629 12.9746 16.0282 12.902 16.0282C12.8419 16.0282 12.7843 16.0521 12.7419 16.0945C12.6994 16.137 12.6756 16.1946 12.6756 16.2547C12.6756 16.3364 12.7204 16.4078 12.7865 16.4477L12.5597 16.862C12.4497 16.8509 12.3372 16.8437 12.2223 16.839L12.8916 15.2107C13.4109 15.3612 13.8171 15.6413 14.0032 15.9778ZM11.1083 15.2107L11.7776 16.839C11.6631 16.8437 11.5498 16.8509 11.4405 16.862L11.2333 16.4836C11.2666 16.4654 11.2945 16.4385 11.3138 16.4058C11.3332 16.3731 11.3434 16.3358 11.3433 16.2978C11.3433 16.2219 11.303 16.1539 11.2428 16.1172C11.2219 16.0895 11.1949 16.067 11.1638 16.0515C11.1327 16.0361 11.0985 16.0281 11.0638 16.0282C10.9392 16.0282 10.8377 16.1295 10.8377 16.2546C10.8377 16.3501 10.8982 16.4314 10.9826 16.464L10.8842 16.951C10.8187 16.9654 10.7592 16.9811 10.7048 16.9955C10.572 16.6008 10.5111 15.9993 11.1643 15.6623C11.1643 15.6623 10.2408 15.8783 10.5248 17.0505C10.4891 17.0623 10.4571 17.0741 10.4296 17.0839C10.3422 16.8999 10.3576 16.4594 10.3576 16.4594L10.2355 16.2959C10.3095 15.9824 10.5366 15.6616 11.0838 15.4581C11.0838 15.4581 10.4462 15.5294 10.1275 16.1526L9.99665 15.9778C10.1825 15.6413 10.5889 15.3612 11.1083 15.2107Z" fill="#010101"/>
<path d="M11.6297 14.8644L12.0002 14.2263L12.37 14.8644H12.6652L12.7011 14.7945H12.4085L12.0395 14.1575L12.2207 13.8479L12.2643 13.8027L12.2338 13.7589L12.1667 13.7635L12.1563 13.8191L12.0002 14.0908L11.8438 13.8191L11.8333 13.7635L11.7662 13.7589L11.7358 13.8027L11.7796 13.8479L11.9609 14.1575L11.5911 14.7944H11.2988L11.3349 14.8644L11.6297 14.8644Z" fill="#010101"/>
<path d="M11.6552 15.136L11.0278 14.8546L11.6552 16.3816V15.136ZM11.4409 15.4248C11.4184 15.4248 11.3964 15.4179 11.378 15.405C11.3267 15.392 11.2887 15.3462 11.2887 15.2912C11.2887 15.2264 11.3413 15.1734 11.4062 15.1734C11.4438 15.1734 11.4778 15.1917 11.4991 15.2205C11.5151 15.2302 11.5283 15.2438 11.5375 15.2601C11.5467 15.2764 11.5515 15.2948 11.5515 15.3135C11.5515 15.3749 11.5017 15.4247 11.4409 15.4247V15.4248ZM12.3428 15.136V16.3816L12.9707 14.8546L12.3428 15.136ZM12.5754 15.4248C12.5525 15.4248 12.5309 15.4175 12.5126 15.405C12.4616 15.392 12.4236 15.3462 12.4236 15.2912C12.4237 15.26 12.4361 15.2301 12.4582 15.208C12.4803 15.1859 12.5102 15.1735 12.5414 15.1734C12.5793 15.1734 12.6128 15.1917 12.6344 15.2205C12.6503 15.2302 12.6635 15.2439 12.6726 15.2602C12.6818 15.2764 12.6866 15.2948 12.6867 15.3135C12.6867 15.3749 12.637 15.4247 12.5754 15.4247L12.5754 15.4248ZM12.2799 15.1091L11.9995 14.7434L11.7187 15.1091L11.9995 15.443L12.2799 15.1091ZM11.8817 15.0981C11.8817 15.0826 11.8848 15.0673 11.8907 15.0531C11.8966 15.0388 11.9053 15.0259 11.9163 15.015C11.9272 15.0041 11.9402 14.9955 11.9545 14.9897C11.9688 14.9838 11.9841 14.9808 11.9995 14.9809C12.0306 14.9809 12.0603 14.9932 12.0823 15.0152C12.1043 15.0372 12.1166 15.067 12.1167 15.098C12.1167 15.1135 12.1137 15.1288 12.1079 15.143C12.102 15.1573 12.0934 15.1703 12.0825 15.1812C12.0716 15.1922 12.0587 15.2009 12.0445 15.2068C12.0302 15.2128 12.0149 15.2158 11.9995 15.2159C11.984 15.2159 11.9687 15.2129 11.9544 15.207C11.94 15.2011 11.927 15.1924 11.9161 15.1815C11.9051 15.1705 11.8965 15.1575 11.8906 15.1432C11.8847 15.1289 11.8816 15.1135 11.8817 15.098V15.0981Z" fill="#A2AAAD"/>
<path d="M14.1976 17.0145C14.0742 16.9948 13.979 16.8816 13.979 16.7456C13.979 16.5949 14.0941 16.4719 14.2355 16.4719C14.2545 16.4719 14.2725 16.4751 14.2898 16.4785L14.4649 15.4632L13.7041 16.4797C13.7204 16.9654 13.6013 17.1631 13.6013 17.1631C13.6013 17.1631 13.346 17.0596 13.063 17.0027L12.9631 16.5098C12.9199 16.5093 12.8803 16.4968 12.8473 16.4738C12.846 16.4731 12.8447 16.4719 12.8434 16.4719L12.5934 16.9274C12.5934 16.9274 12.2782 16.8973 12.1208 16.8973L12.2615 16.4607L11.9997 15.7846L11.7379 16.4607L11.8786 16.8973C11.7209 16.8973 11.4058 16.9274 11.4058 16.9274L11.1744 16.5059C11.16 16.5093 11.1452 16.5111 11.1298 16.5111C11.0987 16.5113 11.068 16.5042 11.0402 16.4902L10.9361 17.0027C10.6527 17.0596 10.3981 17.1631 10.3981 17.1631C10.3981 17.1631 10.2787 16.9654 10.2947 16.4797L9.53418 15.4632L9.70923 16.4785C9.72658 16.4751 9.74493 16.4719 9.76319 16.4719C9.90493 16.4719 10.0202 16.5949 10.0202 16.7456C10.0202 16.8816 9.92495 16.9948 9.80124 17.0146L9.95272 17.8929C10.1923 17.8005 10.9977 17.5236 11.9997 17.5236C13.0011 17.5236 13.8068 17.8005 14.0463 17.8929L14.1976 17.0146V17.0145ZM14.0647 17.0027L14.1662 17.0459L14.0595 17.1526L14.0647 17.0027ZM9.83327 17.0459L9.93405 17.0027L9.93937 17.1526L9.83327 17.0459ZM9.72233 16.4372L9.7836 16.2997L9.8323 16.4425L9.72233 16.4372ZM9.97694 16.5203L9.88496 16.4594L10.008 16.3738L9.97694 16.5203ZM10.0133 16.5629L10.1638 16.5511L10.061 16.6617L10.0133 16.5629ZM9.98771 16.9576L10.048 16.8652L10.1353 16.9883L9.98771 16.9576ZM10.0617 16.8266L10.0715 16.7173L10.2057 16.7835L10.0617 16.8266ZM10.4982 17.3653C10.4982 17.315 10.5395 17.2736 10.5899 17.2736C10.6403 17.2736 10.6815 17.3149 10.6815 17.3653C10.6815 17.4157 10.6403 17.4562 10.5899 17.4562C10.5395 17.4562 10.4982 17.4157 10.4982 17.3653ZM10.6334 17.4897C10.6174 17.4897 10.6017 17.4857 10.5879 17.4779C10.5886 17.4779 10.5892 17.4793 10.5899 17.4793C10.6528 17.4793 10.7034 17.4275 10.7034 17.3653C10.7034 17.3392 10.694 17.315 10.6786 17.2959C10.6959 17.304 10.7106 17.3168 10.7208 17.3329C10.7311 17.3491 10.7365 17.3678 10.7365 17.3869C10.7365 17.4004 10.7338 17.4138 10.7287 17.4263C10.7235 17.4388 10.7159 17.4501 10.7063 17.4597C10.6967 17.4692 10.6854 17.4768 10.6728 17.4819C10.6603 17.4871 10.6469 17.4897 10.6334 17.4897ZM11.3737 17.2096C11.3737 17.1592 11.4146 17.1173 11.4656 17.1173C11.516 17.1173 11.5569 17.1592 11.5569 17.2096C11.557 17.2216 11.5547 17.2335 11.5501 17.2446C11.5455 17.2558 11.5388 17.2659 11.5303 17.2744C11.5218 17.2829 11.5118 17.2897 11.5006 17.2943C11.4895 17.2989 11.4776 17.3013 11.4656 17.3013C11.4535 17.3013 11.4416 17.299 11.4304 17.2944C11.4192 17.2898 11.4091 17.2831 11.4005 17.2746C11.392 17.266 11.3852 17.2559 11.3806 17.2448C11.376 17.2336 11.3736 17.2216 11.3737 17.2096ZM11.5095 17.3339C11.4935 17.334 11.4778 17.3302 11.4637 17.3228H11.4656C11.4956 17.3228 11.5244 17.3109 11.5457 17.2896C11.5669 17.2684 11.5788 17.2396 11.5788 17.2096C11.5788 17.1834 11.5693 17.1592 11.554 17.1401C11.5712 17.1483 11.5858 17.1611 11.596 17.1772C11.6062 17.1934 11.6116 17.212 11.6116 17.2311C11.6116 17.2446 11.609 17.2579 11.6039 17.2703C11.5988 17.2828 11.5913 17.2941 11.5818 17.3037C11.5723 17.3132 11.5611 17.3208 11.5486 17.326C11.5362 17.3311 11.5229 17.3338 11.5095 17.3339ZM11.9022 16.4254C11.9022 16.4133 11.9045 16.4013 11.9091 16.3901C11.9137 16.379 11.9205 16.3688 11.929 16.3602C11.9375 16.3516 11.9477 16.3448 11.9589 16.3401C11.97 16.3355 11.982 16.3331 11.9941 16.333C12.0445 16.333 12.0855 16.3743 12.0855 16.4254C12.0855 16.4374 12.0831 16.4492 12.0785 16.4603C12.0739 16.4713 12.0672 16.4814 12.0587 16.4898C12.0502 16.4983 12.0401 16.505 12.0291 16.5096C12.018 16.5141 12.0061 16.5164 11.9941 16.5164C11.9434 16.5164 11.9022 16.4758 11.9022 16.4254ZM12.0377 16.5491C12.0213 16.5491 12.0059 16.5452 11.9926 16.538H11.9941C12.0567 16.538 12.1077 16.4876 12.1077 16.4254C12.1077 16.398 12.0979 16.3743 12.0828 16.3547C12.1001 16.3632 12.1146 16.3764 12.1248 16.3927C12.135 16.409 12.1404 16.4279 12.1405 16.4471C12.1405 16.5027 12.0943 16.5491 12.0377 16.5491ZM12.3787 17.2096C12.3787 17.1592 12.4199 17.1173 12.47 17.1173C12.5204 17.1173 12.5616 17.1592 12.5616 17.2096C12.562 17.2218 12.5598 17.2339 12.5554 17.2453C12.5509 17.2567 12.5443 17.2671 12.5357 17.2758C12.5272 17.2846 12.517 17.2916 12.5057 17.2963C12.4945 17.3011 12.4824 17.3035 12.4702 17.3035C12.4579 17.3035 12.4458 17.3011 12.4346 17.2963C12.4233 17.2916 12.4131 17.2846 12.4046 17.2758C12.3961 17.2671 12.3894 17.2567 12.3849 17.2453C12.3805 17.2339 12.3783 17.2218 12.3787 17.2096ZM12.5139 17.3339C12.4974 17.3339 12.4817 17.3299 12.4683 17.3228H12.47C12.4849 17.3228 12.4996 17.3199 12.5134 17.3142C12.5272 17.3086 12.5397 17.3002 12.5502 17.2897C12.5608 17.2792 12.5691 17.2667 12.5748 17.253C12.5806 17.2392 12.5835 17.2245 12.5835 17.2096C12.5835 17.1834 12.5741 17.1592 12.5587 17.1401C12.5759 17.1483 12.5905 17.1612 12.6007 17.1773C12.6109 17.1934 12.6163 17.212 12.6162 17.2311C12.6163 17.2446 12.6137 17.2579 12.6086 17.2704C12.6034 17.2829 12.5959 17.2942 12.5864 17.3037C12.5769 17.3133 12.5656 17.3209 12.5531 17.326C12.5407 17.3312 12.5273 17.3339 12.5139 17.3339ZM13.2557 17.3653C13.2557 17.341 13.2654 17.3177 13.2826 17.3006C13.2997 17.2834 13.323 17.2737 13.3473 17.2736C13.3977 17.2736 13.4389 17.3149 13.4389 17.3653C13.4389 17.4157 13.3977 17.4562 13.3474 17.4562C13.3354 17.4563 13.3235 17.454 13.3124 17.4494C13.3013 17.4449 13.2912 17.4382 13.2827 17.4298C13.2742 17.4213 13.2674 17.4113 13.2628 17.4002C13.2581 17.3892 13.2558 17.3773 13.2557 17.3653ZM13.3912 17.4897C13.3742 17.4897 13.3594 17.4857 13.3454 17.4779C13.346 17.4779 13.3467 17.4793 13.3474 17.4793C13.4102 17.4793 13.4606 17.4275 13.4606 17.3653C13.4606 17.3401 13.4519 17.3156 13.436 17.2959C13.4532 17.3041 13.4678 17.317 13.478 17.3331C13.4882 17.3492 13.4936 17.3678 13.4937 17.3869C13.4937 17.4004 13.4911 17.4137 13.486 17.4262C13.4808 17.4387 13.4733 17.45 13.4638 17.4595C13.4543 17.4691 13.443 17.4767 13.4305 17.4818C13.418 17.487 13.4047 17.4897 13.3912 17.4897ZM14.2152 16.2997L14.2771 16.4372L14.1668 16.4425L14.2152 16.2997ZM14.1141 16.4594L14.0222 16.5203L13.9911 16.3738L14.1141 16.4594ZM13.9858 16.5629L13.9377 16.6617L13.8356 16.5511L13.9858 16.5629ZM13.9279 16.7173L13.9377 16.8266L13.7931 16.7835L13.9279 16.7173ZM13.8638 16.9883L13.9508 16.8652L14.0114 16.9576L13.8638 16.9883Z" fill="#A2AAAD"/>
<path d="M11.0636 16.0609C10.9573 16.0609 10.8709 16.148 10.8709 16.2546C10.8709 16.3599 10.9573 16.4471 11.0636 16.4471C11.17 16.4471 11.2564 16.3599 11.2564 16.2546C11.2564 16.148 11.17 16.0609 11.0636 16.0609ZM11.0636 16.4254C10.9691 16.4254 10.8921 16.3482 10.8921 16.2546C10.8921 16.1596 10.9691 16.0825 11.0636 16.0825C11.1582 16.0825 11.2352 16.1596 11.2352 16.2546C11.2352 16.3482 11.1582 16.4254 11.0636 16.4254ZM13.0942 16.2546C13.0942 16.148 13.0075 16.0609 12.9018 16.0609C12.7951 16.0609 12.7084 16.148 12.7084 16.2546C12.7084 16.3599 12.7951 16.4471 12.9018 16.4471C13.0075 16.4471 13.0942 16.3599 13.0942 16.2546ZM12.9018 16.4254C12.8069 16.4254 12.7297 16.3482 12.7297 16.2546C12.7297 16.209 12.7478 16.1652 12.7801 16.133C12.8124 16.1007 12.8561 16.0825 12.9018 16.0825C12.996 16.0825 13.0729 16.1596 13.0729 16.2546C13.0729 16.3482 12.996 16.4254 12.9018 16.4254ZM9.84228 16.7456C9.84228 16.6984 9.807 16.6604 9.7634 16.6604C9.75556 16.6604 9.74834 16.6617 9.74121 16.6636L9.76959 16.8292C9.81055 16.8253 9.84228 16.7894 9.84228 16.7456Z" fill="white"/>
<path d="M9.76354 16.5027C9.7469 16.5027 9.73026 16.5059 9.71484 16.5093L9.71975 16.5399C9.73416 16.5367 9.74851 16.5347 9.76357 16.5347C9.87097 16.5347 9.95862 16.6284 9.95862 16.7456C9.95862 16.851 9.88606 16.9386 9.79141 16.953L9.79631 16.9836C9.90563 16.9674 9.98942 16.8666 9.98942 16.7456C9.98942 16.6113 9.88864 16.5027 9.76357 16.5027L9.76354 16.5027ZM14.157 16.7456C14.157 16.7894 14.1891 16.8253 14.2299 16.8292L14.2582 16.6636C14.2512 16.6617 14.244 16.6604 14.2359 16.6604C14.1927 16.6604 14.157 16.6984 14.157 16.7456Z" fill="white"/>
<path d="M14.203 16.9836L14.2083 16.953C14.114 16.9386 14.0413 16.851 14.0413 16.7456C14.0413 16.6284 14.1291 16.5347 14.2357 16.5347C14.2508 16.5347 14.2659 16.5367 14.2796 16.5399L14.2848 16.5093C14.2692 16.5059 14.2527 16.5027 14.2357 16.5027C14.1114 16.5027 14.0102 16.6113 14.0102 16.7455C14.0102 16.8666 14.094 16.9674 14.203 16.9836ZM12.1001 15.0981C12.1001 15.0849 12.0975 15.0719 12.0924 15.0597C12.0874 15.0476 12.08 15.0366 12.0707 15.0273C12.0615 15.018 12.0504 15.0106 12.0383 15.0056C12.0261 15.0005 12.0131 14.998 11.9999 14.998C11.9443 14.998 11.8991 15.043 11.8991 15.0981C11.8991 15.1538 11.9443 15.1988 12 15.1988C12.0132 15.1988 12.0262 15.1962 12.0384 15.1911C12.0506 15.186 12.0617 15.1786 12.071 15.1692C12.0803 15.1599 12.0876 15.1488 12.0926 15.1366C12.0976 15.1243 12.1001 15.1113 12.1001 15.0981ZM11.9109 15.0981C11.9111 15.0745 11.9205 15.052 11.9372 15.0353C11.9538 15.0187 11.9764 15.0093 11.9999 15.0092C12.049 15.0092 12.0886 15.0498 12.0886 15.0981C12.0887 15.1097 12.0864 15.1213 12.0819 15.1321C12.0775 15.1429 12.071 15.1527 12.0627 15.1609C12.0545 15.1692 12.0447 15.1758 12.0339 15.1803C12.0232 15.1847 12.0116 15.1871 11.9999 15.1871C11.9763 15.1871 11.9537 15.1777 11.937 15.161C11.9203 15.1443 11.9109 15.1217 11.9109 15.0981ZM12.5419 15.3913C12.5684 15.3912 12.5938 15.3806 12.6125 15.3619C12.6313 15.3431 12.6419 15.3177 12.6419 15.2912C12.6419 15.2356 12.5968 15.1904 12.5419 15.1904C12.5151 15.1904 12.4895 15.2011 12.4706 15.22C12.4517 15.2389 12.4411 15.2645 12.441 15.2912C12.441 15.3462 12.4862 15.3913 12.5419 15.3913ZM12.5419 15.2021C12.5655 15.2022 12.588 15.2117 12.6047 15.2284C12.6213 15.2451 12.6308 15.2676 12.6309 15.2912C12.6309 15.3397 12.5903 15.3801 12.5419 15.3801C12.5183 15.38 12.4957 15.3707 12.479 15.354C12.4624 15.3374 12.453 15.3148 12.4529 15.2912C12.4528 15.2795 12.4551 15.2679 12.4596 15.2571C12.4641 15.2463 12.4706 15.2365 12.4789 15.2282C12.4871 15.2199 12.497 15.2133 12.5078 15.2089C12.5186 15.2044 12.5302 15.2021 12.5419 15.2021ZM11.4066 15.3913C11.4332 15.3913 11.4587 15.3807 11.4775 15.362C11.4963 15.3432 11.5069 15.3178 11.5071 15.2912C11.5071 15.2356 11.4619 15.1904 11.4066 15.1904C11.3799 15.1905 11.3544 15.2012 11.3356 15.2201C11.3167 15.239 11.3062 15.2645 11.3062 15.2912C11.3062 15.3462 11.3513 15.3913 11.4066 15.3913ZM11.4066 15.2021C11.4302 15.2021 11.4528 15.2116 11.4694 15.2283C11.486 15.245 11.4953 15.2676 11.4953 15.2912C11.4952 15.3147 11.4859 15.3373 11.4693 15.3539C11.4526 15.3706 11.4301 15.38 11.4066 15.3801C11.383 15.3801 11.3604 15.3707 11.3437 15.354C11.327 15.3373 11.3176 15.3147 11.3176 15.2911C11.3176 15.2675 11.327 15.2448 11.3437 15.2281C11.3604 15.2115 11.383 15.2021 11.4066 15.2021Z" fill="white"/>
</svg>
