<svg width="40" height="40" viewBox="0 0 40 40" fill="none" xmlns="http://www.w3.org/2000/svg">
<path d="M27.827 29.5627C27.4463 29.5627 27.1372 29.8714 27.1372 30.2523C27.1372 30.6328 27.4463 30.9419 27.827 30.9419C28.2077 30.9419 28.5162 30.6328 28.5162 30.2523C28.5162 29.8714 28.2077 29.5627 27.827 29.5627ZM27.827 30.7939C27.7559 30.794 27.6854 30.78 27.6196 30.7528C27.5539 30.7256 27.4942 30.6858 27.4439 30.6354C27.3935 30.5851 27.3537 30.5254 27.3265 30.4597C27.2993 30.3939 27.2853 30.3234 27.2854 30.2523C27.2854 29.9531 27.5274 29.7111 27.827 29.7111C28.1262 29.7111 28.3685 29.9531 28.3685 30.2523C28.3685 30.5516 28.1262 30.7939 27.827 30.7939ZM28.1103 30.0925C28.1103 30.0618 28.1042 30.0314 28.0924 30.003C28.0807 29.9747 28.0634 29.9489 28.0417 29.9272C28.02 29.9055 27.9942 29.8883 27.9658 29.8766C27.9374 29.8649 27.907 29.8588 27.8763 29.8589H27.5441V30.646H27.6918V30.3263H27.7978L27.947 30.646H28.1103L27.9545 30.3127C28 30.2965 28.0394 30.2667 28.0673 30.2273C28.0952 30.1878 28.1102 30.1408 28.1103 30.0925H28.1103ZM27.8763 30.1785H27.6918V30.0063H27.8763C27.9238 30.0063 27.9626 30.0449 27.9626 30.0925C27.9625 30.1153 27.9534 30.1372 27.9372 30.1533C27.9211 30.1695 27.8992 30.1785 27.8763 30.1785Z" fill="white"/>
<path d="M8.15479 25.5606L19.9999 34.1199L31.8449 25.5606V5.76804H8.15479V25.5606Z" fill="white"/>
<path d="M8.93706 25.1612L20 33.1562L31.0628 25.1612V20.2915H8.93701V25.1612H8.93706ZM8.93706 19.6068H31.0628V6.54977H8.93701V19.6068H8.93706Z" fill="#A2AAAD"/>
<path d="M9.63428 24.8038L19.9998 32.2952L30.3653 24.8039V21.5024H9.63428V24.8039V24.8038ZM9.63428 18.5786H30.3653V7.24857H9.63428V18.5786Z" fill="#010101"/>
<path d="M29.7443 9.03976H20.1325C20.1325 9.03976 20.7977 10.0603 20.7977 12.9132C20.7977 15.7668 20.1325 16.7856 20.1325 16.7856H22.0497V13.9011H27.8271V16.7856H29.7443C29.7443 16.7856 29.08 15.7668 29.08 12.9132C29.08 10.0603 29.7443 9.03976 29.7443 9.03976ZM27.8271 12.4877H22.0497V10.4521H27.8271V12.4877ZM12.1744 15.3733V12.9131C12.1744 10.0604 12.8382 9.03976 12.8382 9.03976H10.2559C10.2559 9.03976 10.9202 10.0603 10.9202 12.9132C10.9202 15.7668 10.2559 16.7856 10.2559 16.7856H18.6894C18.6894 16.7856 19.3919 15.8294 19.3919 14.3713C19.3919 14.3713 18.4299 15.3733 16.1723 15.3733L12.1744 15.3733Z" fill="#A2AAAD"/>
<path d="M20.4206 9.21887C20.6231 9.69367 20.9762 10.8179 20.9762 12.9132C20.9762 15.0075 20.6231 16.1327 20.4206 16.6065H21.8704V13.7211H28.0061V16.6065H29.4558C29.2534 16.1327 28.9003 15.0075 28.9003 12.9132C28.9003 10.8179 29.2534 9.69363 29.4558 9.21887H20.4206ZM28.0061 12.6669H21.8703V10.273H28.0061V12.6669ZM11.9946 15.5524V12.9132C11.9946 10.8179 12.3472 9.69363 12.5496 9.21887H10.5439C10.7464 9.69367 11.0995 10.8179 11.0995 12.9132C11.0995 15.0075 10.7464 16.1327 10.5439 16.6065H18.5921C18.7237 16.3976 19.1034 15.7184 19.1901 14.7565C18.7311 15.0691 17.772 15.5524 16.1721 15.5524H11.9946H11.9946Z" fill="white"/>
<path d="M23.1166 28.7035L23.8853 24.2955L23.7249 24.2256C23.7249 24.2256 23.0985 25.0634 22.9814 25.219C22.7238 24.9046 22.2337 24.5138 21.569 24.2955C21.6217 24.1678 21.8628 23.5818 21.8628 23.5818C21.8628 23.5818 21.4924 23.7311 21.3329 23.7955C21.3497 23.7618 21.3665 23.7293 21.3665 23.7293C21.3665 23.7293 20.7983 23.7592 20.7088 23.7646C20.6631 23.6834 20.3534 23.1359 20.3114 23.0613C20.3487 22.9969 20.4663 22.7916 20.4789 22.7693C20.498 22.7535 20.6436 22.6294 20.6436 22.6294L20.4551 22.2711L20.0544 22.2982C20.0544 22.2982 20.0474 22.4865 20.046 22.521L19.9999 22.5966L19.9541 22.521C19.9522 22.4866 19.9457 22.2982 19.9457 22.2982L19.5445 22.2711L19.3561 22.6294C19.3561 22.6294 19.5016 22.7535 19.5208 22.7693C19.5334 22.7916 19.6509 22.9969 19.6883 23.0613C19.6462 23.1359 19.3366 23.6834 19.2909 23.7646C19.2012 23.7592 18.6331 23.7292 18.6331 23.7292C18.6331 23.7292 18.6499 23.7618 18.6667 23.7955L18.1378 23.5818C18.1378 23.5818 18.378 24.1678 18.4306 24.2955C17.7659 24.5138 17.2757 24.9046 17.0182 25.219C16.9012 25.0634 16.2748 24.2256 16.2748 24.2256L16.1147 24.2955L16.883 28.7035C16.883 28.7035 17.9777 28.9834 19.9998 28.9834C22.0223 28.9834 23.1166 28.7035 23.1166 28.7035H23.1166Z" fill="white"/>
<path d="M19.3623 28.7818C19.3623 28.7818 18.36 28.6886 17.7657 28.4601C18.171 28.5178 18.8301 28.5982 19.4309 28.5982C19.4309 28.5982 18.6183 28.5142 18.0782 28.3099C18.4859 28.365 19.0657 28.4264 19.5997 28.4264C19.5997 28.4264 18.8072 28.3452 18.2676 28.1475C18.7494 28.044 19.3432 27.9599 20 27.9599C20.6563 27.9599 21.2501 28.044 21.7319 28.1475C21.1922 28.3452 20.3997 28.4264 20.3997 28.4264C20.9328 28.4264 21.5136 28.365 21.9208 28.3099C21.3811 28.5142 20.5681 28.5982 20.5681 28.5982C21.1688 28.5982 21.8284 28.5178 22.2342 28.4601C21.6395 28.6886 20.6371 28.7818 20.6371 28.7818C22.1116 28.7408 22.9852 28.5226 22.9852 28.5226L23.6625 24.5904L22.9769 25.5064C22.6761 25.0168 22.092 24.6211 21.3424 24.4011L21.5495 23.8971L20.4893 24.3739V24.1137L20 23.2713L19.5102 24.1138V24.374L18.45 23.8971L18.6565 24.4011C17.9075 24.6212 17.3235 25.0168 17.0227 25.5064L16.3369 24.5905L17.0142 28.5226C17.0142 28.5226 17.8878 28.7409 19.3623 28.7818V28.7818ZM22.8551 25.6698L22.6685 25.9189C22.2147 25.0307 21.3056 24.929 21.3056 24.929C22.0855 25.219 22.4092 25.6763 22.515 26.1232L22.3406 26.3563C22.3406 26.3563 22.3625 26.9842 22.238 27.2463C22.1988 27.2323 22.1531 27.2156 22.1018 27.1988C22.5076 25.5279 21.1909 25.22 21.1909 25.22C22.1214 25.7005 22.0351 26.5578 21.8461 27.1204C21.7677 27.0999 21.6833 27.0775 21.5906 27.057L21.4608 26.4179C21.5892 26.3824 21.6833 26.2649 21.6833 26.1258C21.6833 26.0177 21.626 25.9207 21.5406 25.8685C21.4814 25.7911 21.389 25.7416 21.2855 25.7416C21.1999 25.7416 21.1178 25.7756 21.0572 25.8362C20.9967 25.8967 20.9627 25.9788 20.9627 26.0644C20.9627 26.1809 21.0266 26.2827 21.1208 26.3395L20.7976 26.9301C20.6409 26.9143 20.4804 26.9039 20.3166 26.8974L21.2706 24.5765C22.0108 24.7909 22.5898 25.1901 22.8551 25.6698ZM18.7288 24.5765L19.6828 26.8974C19.5196 26.9039 19.3581 26.9143 19.2023 26.9301L18.907 26.3908C18.9545 26.3648 18.9942 26.3265 19.0218 26.2798C19.0494 26.2332 19.0639 26.18 19.0638 26.1258C19.0638 26.0177 19.0064 25.9207 18.9205 25.8685C18.8908 25.829 18.8522 25.7969 18.8079 25.7749C18.7637 25.7529 18.7149 25.7415 18.6654 25.7416C18.4877 25.7416 18.3431 25.886 18.3431 26.0644C18.3431 26.2004 18.4294 26.3164 18.5497 26.3628L18.4094 27.057C18.316 27.0775 18.2312 27.0998 18.1537 27.1204C17.9644 26.5578 17.8776 25.7005 18.8086 25.2201C18.8086 25.2201 17.4923 25.5279 17.8972 27.1988C17.8463 27.2156 17.8007 27.2324 17.7614 27.2463C17.6369 26.9841 17.6588 26.3563 17.6588 26.3563L17.4848 26.1232C17.5903 25.6763 17.914 25.219 18.6939 24.929C18.6939 24.929 17.7852 25.0307 17.3309 25.9189L17.1443 25.6698C17.4093 25.1901 17.9886 24.7909 18.7288 24.5765Z" fill="#010101"/>
<path d="M19.4721 24.0828L20.0002 23.1732L20.5273 24.0828H20.948L20.9992 23.9831H20.5822L20.0562 23.0752L20.3145 22.6339L20.3766 22.5695L20.3332 22.507L20.2376 22.5136L20.2227 22.5928L20.0002 22.9801L19.7772 22.5928L19.7623 22.5136L19.6666 22.507L19.6233 22.5695L19.6858 22.6339L19.9442 23.0752L19.4171 23.983H19.0005L19.0519 24.0828L19.4721 24.0828Z" fill="#010101"/>
<path d="M19.5094 24.4699L18.6152 24.0689L19.5094 26.2453V24.4699ZM19.2039 24.8815C19.1719 24.8815 19.1406 24.8717 19.1144 24.8533C19.0412 24.8348 18.9871 24.7695 18.9871 24.6911C18.9871 24.5987 19.0621 24.5232 19.1545 24.5232C19.2081 24.5232 19.2566 24.5493 19.287 24.5904C19.3098 24.6042 19.3286 24.6236 19.3417 24.6468C19.3548 24.67 19.3616 24.6962 19.3616 24.7228C19.3616 24.8105 19.2907 24.8814 19.2039 24.8814V24.8815ZM20.4895 24.4699V26.2453L21.3845 24.0689L20.4895 24.4699ZM20.8211 24.8815C20.7885 24.8815 20.7577 24.8711 20.7316 24.8533C20.6588 24.8348 20.6047 24.7695 20.6047 24.6911C20.6048 24.6466 20.6226 24.604 20.654 24.5725C20.6855 24.5411 20.7281 24.5233 20.7726 24.5232C20.8267 24.5232 20.8743 24.5493 20.9051 24.5904C20.9278 24.6042 20.9466 24.6237 20.9597 24.6469C20.9727 24.6701 20.9796 24.6962 20.9797 24.7228C20.9797 24.8105 20.9089 24.8814 20.8211 24.8814L20.8211 24.8815ZM20.3999 24.4316L20.0002 23.9103L19.6 24.4316L20.0002 24.9075L20.3999 24.4316ZM19.8323 24.4158C19.8323 24.3938 19.8367 24.372 19.8451 24.3517C19.8536 24.3314 19.866 24.313 19.8816 24.2975C19.8972 24.282 19.9157 24.2697 19.936 24.2613C19.9564 24.253 19.9782 24.2487 20.0002 24.2488C20.0445 24.2488 20.0869 24.2664 20.1182 24.2977C20.1495 24.329 20.1672 24.3715 20.1672 24.4158C20.1673 24.4378 20.163 24.4596 20.1547 24.4799C20.1463 24.5003 20.134 24.5188 20.1185 24.5344C20.103 24.55 20.0846 24.5624 20.0643 24.5709C20.044 24.5793 20.0222 24.5837 20.0002 24.5837C19.9781 24.5838 19.9563 24.5795 19.9358 24.5711C19.9154 24.5627 19.8969 24.5503 19.8813 24.5347C19.8657 24.5191 19.8533 24.5005 19.8449 24.4801C19.8365 24.4597 19.8322 24.4379 19.8323 24.4158V24.4158Z" fill="#A2AAAD"/>
<path d="M23.1328 27.1475C22.957 27.1194 22.8212 26.958 22.8212 26.7641C22.8212 26.5494 22.9853 26.374 23.1869 26.374C23.214 26.374 23.2397 26.3786 23.2643 26.3834L23.5138 24.9363L22.4294 26.3852C22.4527 27.0775 22.2829 27.3592 22.2829 27.3592C22.2829 27.3592 21.919 27.2118 21.5157 27.1306L21.3732 26.4281C21.3117 26.4273 21.2552 26.4095 21.2082 26.3768C21.2063 26.3758 21.2045 26.374 21.2026 26.374L20.8462 27.0232C20.8462 27.0232 20.397 26.9803 20.1727 26.9803L20.3733 26.358L20.0001 25.3944L19.6268 26.358L19.8275 26.9803C19.6027 26.9803 19.1535 27.0232 19.1535 27.0232L18.8237 26.4224C18.8032 26.4273 18.7821 26.4299 18.7602 26.4299C18.7159 26.4302 18.6721 26.42 18.6325 26.4001L18.4841 27.1306C18.0802 27.2118 17.7172 27.3592 17.7172 27.3592C17.7172 27.3592 17.547 27.0775 17.5698 26.3852L16.4858 24.9363L16.7354 26.3834C16.7601 26.3786 16.7862 26.374 16.8123 26.374C17.0143 26.374 17.1785 26.5494 17.1785 26.7641C17.1785 26.958 17.0428 27.1194 16.8665 27.1475L17.0824 28.3995C17.4239 28.2678 18.5718 27.8731 20.0001 27.8731C21.4274 27.8731 22.5758 28.2678 22.9172 28.3995L23.1328 27.1475V27.1475ZM22.9434 27.1306L23.088 27.1922L22.936 27.3442L22.9434 27.1306ZM16.9121 27.1922L17.0558 27.1306L17.0634 27.3442L16.9121 27.1922ZM16.754 26.3245L16.8414 26.1286L16.9108 26.3321L16.754 26.3245ZM17.1169 26.443L16.9858 26.3562L17.1612 26.2342L17.1169 26.443ZM17.1687 26.5037L17.3833 26.4869L17.2367 26.6446L17.1687 26.5037ZM17.1323 27.0664L17.2182 26.9347L17.3427 27.11L17.1323 27.0664ZM17.2377 26.8796L17.2517 26.7238L17.443 26.8181L17.2377 26.8796ZM17.8599 27.6475C17.8599 27.5757 17.9188 27.5168 17.9906 27.5168C18.0624 27.5168 18.1212 27.5756 18.1212 27.6475C18.1212 27.7193 18.0624 27.777 17.9906 27.777C17.9188 27.777 17.8599 27.7193 17.8599 27.6475ZM18.0526 27.8247C18.0298 27.8247 18.0074 27.8191 17.9878 27.8079C17.9887 27.8079 17.9897 27.8099 17.9906 27.8099C18.0802 27.8099 18.1524 27.7361 18.1524 27.6475C18.1524 27.6102 18.1389 27.5757 18.117 27.5486C18.1417 27.56 18.1626 27.5783 18.1772 27.6013C18.1919 27.6243 18.1996 27.651 18.1996 27.6782C18.1996 27.6975 18.1958 27.7165 18.1884 27.7343C18.181 27.7521 18.1702 27.7683 18.1565 27.7819C18.1429 27.7955 18.1267 27.8063 18.1088 27.8137C18.091 27.821 18.0719 27.8247 18.0526 27.8247ZM19.1078 27.4255C19.1078 27.3536 19.1662 27.294 19.2388 27.294C19.3106 27.294 19.369 27.3536 19.369 27.4255C19.369 27.4426 19.3657 27.4596 19.3592 27.4754C19.3527 27.4913 19.3431 27.5057 19.331 27.5179C19.319 27.53 19.3046 27.5396 19.2887 27.5462C19.2729 27.5528 19.2559 27.5562 19.2388 27.5561C19.2216 27.5562 19.2045 27.5529 19.1886 27.5464C19.1727 27.5399 19.1582 27.5303 19.146 27.5181C19.1339 27.506 19.1242 27.4915 19.1176 27.4756C19.1111 27.4597 19.1077 27.4427 19.1078 27.4255ZM19.3013 27.6026C19.2786 27.6028 19.2561 27.5974 19.236 27.5868H19.2388C19.2816 27.5868 19.3226 27.5698 19.3529 27.5396C19.3832 27.5093 19.4002 27.4683 19.4002 27.4255C19.4002 27.3881 19.3867 27.3536 19.3647 27.3265C19.3893 27.3381 19.4101 27.3564 19.4246 27.3794C19.4392 27.4023 19.4469 27.429 19.4468 27.4562C19.4469 27.4753 19.4432 27.4943 19.4359 27.5121C19.4287 27.5298 19.418 27.546 19.4044 27.5596C19.3909 27.5732 19.3749 27.584 19.3572 27.5914C19.3395 27.5987 19.3205 27.6026 19.3013 27.6026ZM19.8611 26.3078C19.861 26.2905 19.8644 26.2735 19.8709 26.2575C19.8775 26.2415 19.8871 26.227 19.8993 26.2148C19.9115 26.2026 19.9259 26.1929 19.9419 26.1862C19.9578 26.1796 19.9749 26.1761 19.9921 26.1761C20.064 26.1761 20.1223 26.2349 20.1223 26.3078C20.1223 26.3248 20.1189 26.3417 20.1124 26.3575C20.1058 26.3732 20.0962 26.3876 20.0841 26.3996C20.072 26.4116 20.0577 26.4212 20.0419 26.4277C20.0261 26.4342 20.0092 26.4375 19.9922 26.4375C19.9198 26.4375 19.8611 26.3796 19.8611 26.3078ZM20.0543 26.4841C20.0308 26.4841 20.0089 26.4786 19.9899 26.4682H19.9922C20.0813 26.4682 20.154 26.3964 20.154 26.3078C20.154 26.2687 20.14 26.2349 20.1186 26.207C20.1432 26.2192 20.1639 26.2379 20.1784 26.2612C20.1929 26.2844 20.2006 26.3113 20.2007 26.3387C20.2007 26.4179 20.1349 26.4841 20.0543 26.4841ZM20.5402 27.4255C20.5402 27.3536 20.599 27.294 20.6704 27.294C20.7422 27.294 20.801 27.3536 20.801 27.4255C20.8015 27.4429 20.7985 27.4602 20.7921 27.4764C20.7858 27.4927 20.7763 27.5074 20.7641 27.5199C20.7519 27.5324 20.7374 27.5423 20.7214 27.5491C20.7053 27.5559 20.6881 27.5594 20.6706 27.5594C20.6532 27.5594 20.636 27.5559 20.6199 27.5491C20.6039 27.5423 20.5893 27.5324 20.5772 27.5199C20.565 27.5074 20.5555 27.4927 20.5491 27.4764C20.5428 27.4602 20.5398 27.4429 20.5402 27.4255ZM20.7329 27.6026C20.7095 27.6026 20.6871 27.597 20.668 27.5868H20.6704C20.6916 27.5869 20.7127 27.5827 20.7323 27.5747C20.7519 27.5666 20.7697 27.5547 20.7848 27.5397C20.7998 27.5247 20.8117 27.5069 20.8199 27.4873C20.828 27.4677 20.8322 27.4467 20.8322 27.4255C20.8322 27.3881 20.8187 27.3536 20.7968 27.3265C20.8214 27.3381 20.8421 27.3565 20.8567 27.3794C20.8712 27.4024 20.8789 27.429 20.8789 27.4562C20.8789 27.4754 20.8752 27.4944 20.8679 27.5122C20.8606 27.5299 20.8499 27.5461 20.8363 27.5597C20.8227 27.5733 20.8066 27.5841 20.7889 27.5915C20.7711 27.5988 20.7521 27.6026 20.7329 27.6026ZM21.7904 27.6475C21.7904 27.6128 21.8041 27.5796 21.8286 27.5551C21.8531 27.5306 21.8863 27.5169 21.9209 27.5168C21.9928 27.5168 22.0515 27.5756 22.0515 27.6475C22.0515 27.7193 21.9928 27.777 21.921 27.777C21.9039 27.7771 21.8869 27.7738 21.8711 27.7674C21.8553 27.7609 21.8409 27.7514 21.8288 27.7394C21.8166 27.7273 21.807 27.713 21.8004 27.6972C21.7938 27.6815 21.7904 27.6646 21.7904 27.6475ZM21.9835 27.8247C21.9592 27.8247 21.9382 27.8191 21.9181 27.8079C21.919 27.8079 21.92 27.8099 21.921 27.8099C22.0105 27.8099 22.0823 27.7361 22.0823 27.6475C22.0823 27.6115 22.07 27.5766 22.0474 27.5486C22.0719 27.5602 22.0926 27.5786 22.1071 27.6015C22.1217 27.6245 22.1294 27.651 22.1295 27.6782C22.1296 27.6974 22.1258 27.7164 22.1185 27.7342C22.1112 27.752 22.1005 27.7681 22.0869 27.7817C22.0733 27.7954 22.0572 27.8062 22.0395 27.8135C22.0217 27.8209 22.0027 27.8247 21.9835 27.8247ZM23.158 26.1286L23.2461 26.3245L23.0889 26.3321L23.158 26.1286ZM23.0138 26.3562L22.8828 26.443L22.8385 26.2342L23.0138 26.3562ZM22.831 26.5037L22.7624 26.6446L22.6169 26.4869L22.831 26.5037ZM22.7484 26.7238L22.7624 26.8796L22.5563 26.8181L22.7484 26.7238ZM22.657 27.11L22.781 26.9347L22.8674 27.0663L22.657 27.11Z" fill="#A2AAAD"/>
<path d="M18.6656 25.7882C18.5141 25.7882 18.3909 25.9124 18.3909 26.0644C18.3909 26.2144 18.5141 26.3387 18.6656 26.3387C18.8173 26.3387 18.9405 26.2144 18.9405 26.0644C18.9405 25.9124 18.8173 25.7882 18.6656 25.7882ZM18.6656 26.3078C18.5309 26.3078 18.4213 26.1977 18.4213 26.0644C18.4213 25.9289 18.5309 25.819 18.6656 25.819C18.8005 25.819 18.9102 25.9289 18.9102 26.0644C18.9102 26.1977 18.8005 26.3078 18.6656 26.3078ZM21.56 26.0644C21.56 25.9124 21.4363 25.7882 21.2857 25.7882C21.1336 25.7882 21.01 25.9124 21.01 26.0644C21.01 26.2144 21.1337 26.3387 21.2857 26.3387C21.4363 26.3387 21.56 26.2144 21.56 26.0644ZM21.2857 26.3078C21.1504 26.3078 21.0403 26.1977 21.0403 26.0644C21.0404 25.9993 21.0663 25.9369 21.1123 25.8909C21.1583 25.8449 21.2206 25.8191 21.2857 25.819C21.42 25.819 21.5296 25.9289 21.5296 26.0644C21.5296 26.1977 21.42 26.3078 21.2857 26.3078ZM16.9248 26.7641C16.9248 26.6968 16.8745 26.6427 16.8124 26.6427C16.8012 26.6427 16.7909 26.6446 16.7808 26.6473L16.8212 26.8834C16.8796 26.8778 16.9248 26.8265 16.9248 26.7641Z" fill="white"/>
<path d="M16.8121 26.4179C16.7884 26.4179 16.7646 26.4225 16.7427 26.4273L16.7497 26.471C16.7702 26.4664 16.7907 26.4636 16.8121 26.4636C16.9652 26.4636 17.0901 26.5971 17.0901 26.7641C17.0901 26.9143 16.9867 27.0392 16.8518 27.0598L16.8588 27.1034C17.0146 27.0803 17.134 26.9367 17.134 26.7641C17.134 26.5727 16.9904 26.418 16.8121 26.418L16.8121 26.4179ZM23.0742 26.7641C23.0742 26.8265 23.12 26.8778 23.1783 26.8834L23.2185 26.6473C23.2086 26.6446 23.1983 26.6427 23.1867 26.6427C23.1251 26.6427 23.0742 26.6968 23.0742 26.7641Z" fill="white"/>
<path d="M23.1403 27.1034L23.1478 27.0597C23.0134 27.0392 22.9098 26.9143 22.9098 26.7641C22.9098 26.5971 23.0349 26.4636 23.1869 26.4636C23.2084 26.4636 23.2299 26.4664 23.2494 26.4709L23.2569 26.4273C23.2345 26.4225 23.2111 26.4179 23.1869 26.4179C23.0097 26.4179 22.8654 26.5727 22.8654 26.764C22.8654 26.9366 22.9849 27.0803 23.1403 27.1034ZM20.1428 24.4158C20.1428 24.3971 20.1391 24.3785 20.132 24.3612C20.1248 24.3439 20.1143 24.3281 20.101 24.3149C20.0878 24.3016 20.0721 24.2911 20.0547 24.284C20.0374 24.2768 20.0189 24.2731 20.0001 24.2731C19.9208 24.2731 19.8564 24.3374 19.8564 24.4158C19.8564 24.4952 19.9208 24.5595 20.0002 24.5595C20.019 24.5594 20.0376 24.5557 20.055 24.5485C20.0723 24.5412 20.0881 24.5306 20.1013 24.5173C20.1146 24.5039 20.1251 24.4881 20.1322 24.4707C20.1393 24.4533 20.1429 24.4346 20.1428 24.4158ZM19.8732 24.4158C19.8734 24.3822 19.8869 24.3501 19.9107 24.3264C19.9344 24.3027 19.9666 24.2893 20.0001 24.2891C20.07 24.2891 20.1265 24.347 20.1265 24.4158C20.1266 24.4324 20.1233 24.4489 20.117 24.4643C20.1107 24.4797 20.1014 24.4937 20.0896 24.5054C20.0779 24.5172 20.0639 24.5266 20.0486 24.533C20.0332 24.5394 20.0168 24.5427 20.0001 24.5427C19.9665 24.5427 19.9342 24.5293 19.9104 24.5055C19.8866 24.4817 19.8732 24.4495 19.8732 24.4158ZM20.7726 24.8338C20.8104 24.8337 20.8466 24.8186 20.8733 24.7918C20.9 24.7651 20.9151 24.7289 20.9152 24.6911C20.9152 24.6119 20.8509 24.5475 20.7726 24.5475C20.7345 24.5475 20.6979 24.5626 20.671 24.5895C20.644 24.6165 20.6289 24.653 20.6288 24.6911C20.6288 24.7695 20.6932 24.8338 20.7726 24.8338ZM20.7726 24.5641C20.8062 24.5643 20.8383 24.5778 20.8621 24.6016C20.8858 24.6253 20.8992 24.6575 20.8994 24.6911C20.8994 24.7602 20.8415 24.8178 20.7726 24.8178C20.739 24.8177 20.7068 24.8044 20.683 24.7806C20.6592 24.7569 20.6458 24.7247 20.6457 24.6911C20.6457 24.6744 20.6489 24.6579 20.6553 24.6425C20.6617 24.6271 20.671 24.6131 20.6828 24.6013C20.6946 24.5895 20.7086 24.5801 20.724 24.5737C20.7394 24.5673 20.7559 24.5641 20.7726 24.5641ZM19.1544 24.8338C19.1923 24.8338 19.2286 24.8187 19.2554 24.792C19.2823 24.7653 19.2974 24.729 19.2976 24.6911C19.2976 24.6119 19.2333 24.5475 19.1544 24.5475C19.1164 24.5476 19.08 24.5628 19.0531 24.5897C19.0263 24.6166 19.0112 24.6531 19.0112 24.6911C19.0112 24.7695 19.0756 24.8338 19.1544 24.8338ZM19.1544 24.5641C19.188 24.5642 19.2202 24.5776 19.2439 24.6014C19.2676 24.6252 19.2809 24.6575 19.2808 24.6911C19.2807 24.7246 19.2674 24.7568 19.2437 24.7805C19.22 24.8042 19.1879 24.8176 19.1544 24.8178C19.1208 24.8178 19.0885 24.8044 19.0647 24.7806C19.0409 24.7568 19.0275 24.7246 19.0275 24.6909C19.0275 24.6573 19.0409 24.625 19.0647 24.6012C19.0885 24.5774 19.1208 24.5641 19.1544 24.5641Z" fill="white"/>
</svg>
