<svg width="40" height="40" viewBox="0 0 40 40" fill="none" xmlns="http://www.w3.org/2000/svg">
<path d="M25.3484 28.3129C25.0397 28.3129 24.7891 28.5631 24.7891 28.872C24.7891 29.1805 25.0397 29.4311 25.3484 29.4311C25.6571 29.4311 25.9073 29.1805 25.9073 28.872C25.9073 28.5631 25.6571 28.3129 25.3484 28.3129ZM25.3484 29.3112C25.2907 29.3112 25.2336 29.2999 25.1803 29.2778C25.127 29.2558 25.0785 29.2234 25.0377 29.1826C24.997 29.1418 24.9646 29.0934 24.9426 29.0401C24.9205 28.9868 24.9092 28.9297 24.9092 28.872C24.9092 28.6293 25.1055 28.4331 25.3484 28.4331C25.591 28.4331 25.7874 28.6293 25.7874 28.872C25.7874 29.1147 25.591 29.3112 25.3484 29.3112ZM25.5781 28.7424C25.5781 28.7175 25.5732 28.6928 25.5636 28.6699C25.5541 28.6469 25.5401 28.626 25.5225 28.6084C25.5049 28.5908 25.484 28.5768 25.461 28.5673C25.438 28.5578 25.4133 28.553 25.3884 28.553H25.119V29.1912H25.2388V28.932H25.3247L25.4457 29.1912H25.5781L25.4518 28.9209C25.4887 28.9078 25.5206 28.8836 25.5433 28.8517C25.5659 28.8197 25.578 28.7815 25.5781 28.7424ZM25.3884 28.8122H25.2388V28.6725H25.3884C25.4269 28.6725 25.4584 28.7038 25.4584 28.7424C25.4583 28.7609 25.4509 28.7787 25.4378 28.7917C25.4247 28.8048 25.4069 28.8122 25.3884 28.8122ZM36.1599 14.3556C36.1599 14.3556 35.0087 13.9723 34.0124 13.7808C34.0246 13.7786 35.1252 12.8991 35.1252 12.8991C35.1252 12.8991 30.6859 11.7264 25.4026 12.0773C25.4026 12.0773 24.6331 9.5639 21.0806 9.5639C18.4371 9.5639 16.9283 11.2211 16.4591 12.5118C11.4749 13.6275 7.68115 16.1777 7.68115 16.1777L8.5968 16.8679C6.25151 18.1176 3.83984 20.1025 3.83984 20.1025C3.83984 20.1025 4.07633 21.2922 5.51659 23.1869C5.51659 23.1869 6.48096 23.9246 9.02088 24.8841C9.02088 24.8841 9.50672 24.7616 9.7479 24.6388C10.0964 24.7553 10.456 24.8535 10.8102 24.9184C10.7958 25.2382 10.7034 25.6961 11.294 26.2397L10.8648 26.4673C10.8648 26.4673 11.3951 27.7811 14.3179 28.4714C15.4339 28.2023 20.5105 27.2425 22.2624 30.4361L31.0939 21.7509H29.2132L36.1599 14.3556Z" fill="#DDCBA4"/>
<path d="M34.4728 14.7254C33.398 14.3178 31.9611 14.0183 31.9611 14.0183L32.8546 13.3283C28.0279 12.3613 24.7216 12.6665 24.7216 12.6665C24.7216 12.6665 24.0599 10.1577 20.8448 10.1577C17.7364 10.1577 16.8054 12.9341 16.8054 12.9341C12.5503 13.7728 8.54568 16.2192 8.54568 16.2192L9.52119 16.9546C7.01198 18.1892 4.41187 20.2918 4.41187 20.2918C4.77959 21.4418 5.85585 22.8302 5.85585 22.8302C6.85518 23.5256 9.04803 24.3788 9.04803 24.3788C9.36379 24.3065 9.70502 24.115 9.70502 24.115C9.70502 24.115 10.7945 24.5481 11.9572 24.5481C12.3821 24.5481 12.8574 24.497 12.8574 24.331C12.8574 24.0442 11.9861 23.9568 11.9861 23.6358C11.9861 23.4019 12.5098 23.0736 14.5006 23.0736C15.6927 23.0736 17.0421 23.1569 17.0421 23.1569C16.0608 23.1569 14.1339 23.4063 14.1339 23.8636C14.1339 24.2179 15.4433 24.2364 15.4433 24.7137C15.4433 25.4045 14.4179 25.6409 13.2236 25.6409C12.1541 25.6409 11.6468 25.3361 11.4036 25.3361C11.3104 25.3361 11.2535 25.3824 11.2535 25.4425C11.2535 25.6909 11.7301 26.1902 12.1116 26.3303L11.5958 26.63C12.1745 27.396 14.3287 27.9708 14.3287 27.9708C20.475 26.6297 22.3664 29.6954 22.3664 29.6954L29.5678 22.2381H27.8734L34.4728 14.7254Z" fill="#154734"/>
<path d="M23.7215 13.5116C21.7412 13.447 19.7525 13.5646 17.8513 13.8554C17.8368 13.9755 17.8279 14.0976 17.8279 14.2217C17.8279 14.3593 17.8383 14.4945 17.8559 14.6272C19.7065 14.4297 21.7463 14.3628 23.7851 14.5788C23.799 14.4614 23.8072 14.3425 23.8072 14.2217C23.8072 13.9768 23.7769 13.7395 23.7215 13.5116ZM20.8178 17.2113C21.9183 17.2113 22.8795 16.6157 23.3986 15.7298C21.776 15.9376 20.2219 16.208 18.8588 16.4795C19.3841 16.935 20.068 17.2113 20.8178 17.2113V17.2113ZM20.8178 11.2323C19.2907 11.2323 18.032 12.3772 17.8513 13.8554C17.8513 13.8554 19.3507 13.1801 23.4297 12.7693C22.9193 11.8525 21.9412 11.2323 20.8178 11.2323H20.8178Z" fill="#EAAA00"/>
<path d="M23.7215 13.5116C23.7783 13.744 23.8071 13.9824 23.8073 14.2216C23.8073 14.3425 23.799 14.4614 23.7851 14.5787C25.0822 14.7159 26.3795 14.9673 27.6279 15.3726C26.2193 15.4206 24.7839 15.5524 23.3986 15.7297C22.8795 16.6156 21.9183 17.2113 20.8178 17.2113C20.068 17.2113 19.3841 16.935 18.8588 16.4795C15.9712 17.0552 13.9425 17.6363 13.9425 17.6363C15.3722 17.6999 16.18 18.0314 16.18 18.0314C12.4851 18.7784 9.04987 20.2024 7.93433 20.6897C8.20082 21.1135 8.54804 21.609 8.54804 21.609L7.99623 22.2916C8.98256 22.4711 10.2048 22.3667 10.2048 22.3667L12.0371 21.2446L13.4749 21.6759L13.9083 21.0834H13.436L14.3829 19.5567L15.1789 21.0827H14.8224L15.0635 21.609L16.0569 21.4325L16.4799 20.8937H16.1017L16.6663 20.0258H16.2412L17.1349 18.5129L17.8985 20.0752L17.5602 20.0751L18.0723 20.9866H17.6685L18.4957 22.4937L19.3222 21.3329H18.7548L19.6094 20.0477H19.0608L20.2929 17.9326L21.3614 20.0745H20.9168L21.645 21.3323H21.1307L21.8364 22.8933L23.0326 20.9386H22.3725L23.3498 19.3486H22.7501L24.0581 16.6906L25.4318 19.4744H24.9495L25.8339 20.9382H25.2291L25.9064 22.3884L27.0115 20.7054H26.4173L27.7004 18.8559H27.0115L29.067 16.019L30.1499 17.9705L32.4546 15.1346C29.7992 14.1412 26.771 13.6111 23.7215 13.5116ZM17.8279 14.2216C17.8279 14.0976 17.8368 13.9755 17.8513 13.8554C15.0727 14.2803 12.4805 15.0756 10.3775 16.2142C10.3775 16.2142 13.6233 15.0791 17.8559 14.6272C17.8383 14.4945 17.8279 14.3593 17.8279 14.2216Z" fill="#A6192E"/>
<path d="M21.1614 15.3011C17.2596 15.4272 13.751 16.4005 13.7502 16.4005C13.7234 16.2264 13.6969 16.058 13.6697 15.883C13.5488 16.0875 13.4339 16.2834 13.3131 16.4863C13.3127 16.4863 11.548 17.1331 10.384 17.7446C11.8776 17.2297 13.089 16.9124 13.089 16.9124C12.9698 17.169 12.8491 17.425 12.727 17.6802C12.951 17.4802 13.1647 17.2887 13.3887 17.0882C13.5492 17.1737 13.7027 17.2577 13.8649 17.344C13.8422 17.1532 13.8209 16.9676 13.7979 16.7742C13.7985 16.7739 17.735 15.6793 21.1614 15.3011Z" fill="white"/>
</svg>
