<svg width="24" height="24" viewBox="0 0 24 24" fill="none" xmlns="http://www.w3.org/2000/svg">
<path d="M15.4158 17.3087C15.2187 17.3087 15.0586 17.4685 15.0586 17.6658C15.0586 17.8628 15.2187 18.0228 15.4158 18.0228C15.6129 18.0228 15.7727 17.8628 15.7727 17.6658C15.7727 17.4685 15.6129 17.3087 15.4158 17.3087ZM15.4158 17.9462C15.379 17.9463 15.3425 17.939 15.3084 17.9249C15.2744 17.9109 15.2435 17.8902 15.2174 17.8641C15.1914 17.8381 15.1707 17.8072 15.1566 17.7731C15.1426 17.7391 15.1353 17.7026 15.1354 17.6658C15.1354 17.5108 15.2607 17.3855 15.4158 17.3855C15.5707 17.3855 15.6962 17.5108 15.6962 17.6658C15.6962 17.8208 15.5707 17.9462 15.4158 17.9462ZM15.5625 17.583C15.5625 17.5671 15.5594 17.5514 15.5533 17.5367C15.5472 17.522 15.5382 17.5087 15.527 17.4974C15.5157 17.4862 15.5024 17.4773 15.4877 17.4712C15.473 17.4651 15.4573 17.462 15.4414 17.462H15.2693V17.8696H15.3458V17.7041H15.4007L15.4779 17.8696H15.5625L15.4818 17.697C15.5054 17.6886 15.5258 17.6732 15.5403 17.6528C15.5547 17.6324 15.5625 17.608 15.5625 17.583ZM15.4414 17.6276H15.3458V17.5384H15.4414C15.4659 17.5384 15.486 17.5583 15.486 17.583C15.486 17.5948 15.4813 17.6062 15.4729 17.6145C15.4645 17.6229 15.4532 17.6276 15.4414 17.6276ZM22.3202 8.39544C22.3202 8.39544 21.585 8.15066 20.9487 8.02836C20.9565 8.02694 21.6594 7.46525 21.6594 7.46525C21.6594 7.46525 18.8244 6.71639 15.4504 6.94046C15.4504 6.94046 14.959 5.33538 12.6903 5.33538C11.0022 5.33538 10.0386 6.39367 9.73901 7.21797C6.55604 7.93044 4.13328 9.55904 4.13328 9.55904L4.71803 9.99978C3.2203 10.7979 1.68018 12.0654 1.68018 12.0654C1.68018 12.0654 1.8312 12.8252 2.75097 14.0352C2.75097 14.0352 3.36682 14.5063 4.98885 15.119C4.98885 15.119 5.29911 15.0408 5.45314 14.9624C5.67569 15.0368 5.90531 15.0995 6.13152 15.141C6.12234 15.3452 6.06331 15.6376 6.44048 15.9848L6.16637 16.1301C6.16637 16.1301 6.50508 16.9691 8.37157 17.4099C9.08426 17.2381 12.3262 16.6252 13.445 18.6646L19.0849 13.1182H17.8839L22.3202 8.39544Z" fill="#DDCBA4"/>
<path d="M21.2427 8.63158C20.5563 8.37125 19.6387 8.18 19.6387 8.18L20.2093 7.73938C17.1269 7.12183 15.0155 7.31672 15.0155 7.31672C15.0155 7.31672 14.5929 5.71455 12.5397 5.71455C10.5546 5.71455 9.96008 7.48765 9.96008 7.48765C7.24274 8.0232 4.68531 9.5855 4.68531 9.5855L5.30829 10.0552C3.70588 10.8436 2.04541 12.1864 2.04541 12.1864C2.28024 12.9208 2.96756 13.8074 2.96756 13.8074C3.60574 14.2515 5.00612 14.7963 5.00612 14.7963C5.20777 14.7502 5.42568 14.6279 5.42568 14.6279C5.42568 14.6279 6.12147 14.9045 6.86393 14.9045C7.13528 14.9045 7.4388 14.8719 7.4388 14.7658C7.4388 14.5827 6.88243 14.5268 6.88243 14.3219C6.88243 14.1725 7.21685 13.9628 8.48817 13.9628C9.24946 13.9628 10.1112 14.016 10.1112 14.016C9.48458 14.016 8.25403 14.1753 8.25403 14.4673C8.25403 14.6936 9.0902 14.7054 9.0902 15.0102C9.0902 15.4513 8.4354 15.6023 7.67268 15.6023C6.98968 15.6023 6.66573 15.4077 6.51042 15.4077C6.45092 15.4077 6.41457 15.4373 6.41457 15.4756C6.41457 15.6343 6.71893 15.9531 6.96257 16.0426L6.63315 16.234C7.0027 16.7232 8.37844 17.0903 8.37844 17.0903C12.3035 16.2338 13.5114 18.1916 13.5114 18.1916L18.1103 13.4293H17.0283L21.2427 8.63158Z" fill="#154734"/>
<path d="M14.3765 7.85642C13.1119 7.81515 11.8419 7.89027 10.6278 8.07597C10.6185 8.15269 10.6128 8.23068 10.6128 8.30987C10.6128 8.3978 10.6195 8.48411 10.6307 8.56889C11.8125 8.44274 13.1152 8.40004 14.4171 8.53795C14.426 8.46299 14.4313 8.38704 14.4313 8.30987C14.4313 8.15352 14.4119 8.00199 14.3765 7.85642ZM12.5222 10.2191C13.225 10.2191 13.8388 9.83872 14.1703 9.27298C13.1341 9.40571 12.1417 9.57839 11.2712 9.75179C11.6066 10.0427 12.0434 10.2191 12.5222 10.2191V10.2191ZM12.5222 6.40082C11.547 6.40082 10.7432 7.13197 10.6278 8.07597C10.6278 8.07597 11.5853 7.64475 14.1902 7.38237C13.8642 6.79691 13.2396 6.40082 12.5222 6.40082H12.5222Z" fill="#EAAA00"/>
<path d="M14.3768 7.85641C14.4131 8.00485 14.4314 8.15708 14.4316 8.30987C14.4316 8.38706 14.4263 8.46299 14.4174 8.53792C15.2458 8.62549 16.0742 8.78603 16.8715 9.04491C15.972 9.07552 15.0552 9.15971 14.1706 9.27296C13.8391 9.83871 13.2253 10.2191 12.5225 10.2191C12.0437 10.2191 11.6069 10.0427 11.2714 9.75179C9.42735 10.1194 8.13182 10.4905 8.13182 10.4905C9.04482 10.5311 9.56069 10.7428 9.56069 10.7428C7.2011 11.2199 5.00732 12.1293 4.29492 12.4405C4.46511 12.7111 4.68685 13.0275 4.68685 13.0275L4.33446 13.4635C4.96434 13.5781 5.74491 13.5114 5.74491 13.5114L6.91502 12.7948L7.83322 13.0702L8.10999 12.6919H7.80839L8.41306 11.7169L8.92141 12.6915H8.69372L8.84772 13.0275L9.48209 12.9148L9.75225 12.5707H9.51073L9.87126 12.0165H9.59977L10.1705 11.0503L10.6581 12.048L10.4422 12.0479L10.7692 12.6301H10.5113L11.0396 13.5925L11.5674 12.8512H11.205L11.7508 12.0305H11.4005L12.1872 10.6798L12.8696 12.0476H12.5857L13.0508 12.8509H12.7223L13.1729 13.8477L13.9368 12.5994H13.5153L14.1394 11.584H13.7565L14.5918 9.88658L15.469 11.6644H15.161L15.7258 12.5992H15.3396L15.7721 13.5253L16.4779 12.4505H16.0984L16.9178 11.2694H16.4779L17.7905 9.45771L18.4821 10.7039L19.9539 8.89293C18.2581 8.25851 16.3243 7.91999 14.3768 7.85641ZM10.6131 8.30987C10.6131 8.23066 10.6187 8.15268 10.6281 8.07597C8.85355 8.34731 7.19815 8.8552 5.85516 9.58234C5.85516 9.58234 7.92795 8.85749 10.631 8.56889C10.6197 8.48413 10.6131 8.3978 10.6131 8.30987Z" fill="#A6192E"/>
<path d="M12.7419 8.99925C10.2502 9.07975 8.00957 9.7013 8.00905 9.7013C7.99191 9.59012 7.97501 9.4826 7.95764 9.37085C7.88045 9.50143 7.80704 9.62656 7.7299 9.75609C7.72966 9.75609 6.60267 10.1692 5.85938 10.5597C6.81315 10.2308 7.5868 10.0282 7.5868 10.0282C7.51068 10.1921 7.43363 10.3555 7.35563 10.5185C7.49868 10.3908 7.63512 10.2685 7.77819 10.1405C7.88068 10.1951 7.97875 10.2487 8.08231 10.3039C8.06779 10.182 8.05423 10.0635 8.03954 9.93999C8.03992 9.93975 10.5538 9.24075 12.7419 8.99925Z" fill="white"/>
</svg>
