<svg width="40" height="40" viewBox="0 0 40 40" fill="none" xmlns="http://www.w3.org/2000/svg">
<path d="M25.3484 28.3129C25.0397 28.3129 24.7891 28.5631 24.7891 28.872C24.7891 29.1805 25.0397 29.4311 25.3484 29.4311C25.6571 29.4311 25.9073 29.1805 25.9073 28.872C25.9073 28.5631 25.6571 28.3129 25.3484 28.3129ZM25.3484 29.3112C25.2907 29.3112 25.2336 29.2999 25.1803 29.2778C25.127 29.2558 25.0785 29.2234 25.0377 29.1826C24.997 29.1418 24.9646 29.0934 24.9426 29.0401C24.9205 28.9868 24.9092 28.9297 24.9092 28.872C24.9092 28.6293 25.1055 28.4331 25.3484 28.4331C25.591 28.4331 25.7874 28.6293 25.7874 28.872C25.7874 29.1147 25.591 29.3112 25.3484 29.3112ZM25.5781 28.7424C25.5781 28.7175 25.5732 28.6928 25.5636 28.6699C25.5541 28.6469 25.5401 28.626 25.5225 28.6084C25.5049 28.5908 25.484 28.5768 25.461 28.5673C25.438 28.5578 25.4133 28.553 25.3884 28.553H25.119V29.1912H25.2388V28.932H25.3247L25.4457 29.1912H25.5781L25.4518 28.9209C25.4887 28.9078 25.5206 28.8836 25.5433 28.8517C25.5659 28.8197 25.578 28.7815 25.5781 28.7424ZM25.3884 28.8122H25.2388V28.6725H25.3884C25.4269 28.6725 25.4584 28.7038 25.4584 28.7424C25.4583 28.7609 25.4509 28.7787 25.4378 28.7917C25.4247 28.8048 25.4069 28.8122 25.3884 28.8122ZM36.1599 14.3556C36.1599 14.3556 35.0087 13.9723 34.0124 13.7808C34.0246 13.7786 35.1252 12.8991 35.1252 12.8991C35.1252 12.8991 30.6859 11.7264 25.4026 12.0773C25.4026 12.0773 24.6331 9.5639 21.0806 9.5639C18.4371 9.5639 16.9283 11.2211 16.4591 12.5118C11.4749 13.6275 7.68115 16.1777 7.68115 16.1777L8.5968 16.8679C6.25151 18.1176 3.83984 20.1025 3.83984 20.1025C3.83984 20.1025 4.07633 21.2922 5.51659 23.1869C5.51659 23.1869 6.48096 23.9246 9.02088 24.8841C9.02088 24.8841 9.50672 24.7616 9.7479 24.6388C10.0964 24.7553 10.456 24.8535 10.8102 24.9184C10.7958 25.2382 10.7034 25.6961 11.294 26.2397L10.8648 26.4673C10.8648 26.4673 11.3951 27.7811 14.3179 28.4714C15.4339 28.2023 20.5105 27.2425 22.2624 30.4361L31.0939 21.7509H29.2132L36.1599 14.3556Z" fill="#DDCBA4"/>
<path d="M34.4725 14.7254C33.3978 14.3178 31.9609 14.0183 31.9609 14.0183L32.8543 13.3283C28.0277 12.3613 24.7214 12.6665 24.7214 12.6665C24.7214 12.6665 24.0597 10.1577 20.8445 10.1577C17.7361 10.1577 16.8052 12.9341 16.8052 12.9341C12.5501 13.7728 8.54543 16.2192 8.54543 16.2192L9.52095 16.9546C7.01174 18.1892 4.41162 20.2918 4.41162 20.2918C4.77934 21.4418 5.8556 22.8302 5.8556 22.8302C6.85493 23.5256 9.04778 24.3788 9.04778 24.3788C9.36355 24.3065 9.70477 24.115 9.70477 24.115C9.70477 24.115 10.7943 24.5481 11.9569 24.5481C12.3818 24.5481 12.8571 24.497 12.8571 24.331C12.8571 24.0442 11.9859 23.9568 11.9859 23.6358C11.9859 23.4019 12.5095 23.0736 14.5003 23.0736C15.6924 23.0736 17.0419 23.1569 17.0419 23.1569C16.0606 23.1569 14.1337 23.4063 14.1337 23.8636C14.1337 24.2179 15.443 24.2364 15.443 24.7137C15.443 25.4045 14.4177 25.6409 13.2233 25.6409C12.1538 25.6409 11.6466 25.3361 11.4034 25.3361C11.3102 25.3361 11.2533 25.3824 11.2533 25.4425C11.2533 25.6909 11.7299 26.1902 12.1114 26.3303L11.5955 26.63C12.1742 27.396 14.3285 27.9708 14.3285 27.9708C20.4747 26.6297 22.3661 29.6954 22.3661 29.6954L29.5676 22.2381H27.8732L34.4725 14.7254Z" fill="#154734"/>
<path d="M23.7213 13.5116C21.7409 13.447 19.7522 13.5646 17.8511 13.8554C17.8365 13.9755 17.8276 14.0976 17.8276 14.2217C17.8276 14.3593 17.8381 14.4945 17.8557 14.6272C19.7062 14.4297 21.7461 14.3628 23.7849 14.5788C23.7987 14.4614 23.807 14.3425 23.807 14.2217C23.807 13.9768 23.7766 13.7395 23.7213 13.5116ZM20.8176 17.2113C21.918 17.2113 22.8793 16.6157 23.3984 15.7298C21.7757 15.9376 20.2217 16.208 18.8586 16.4795C19.3838 16.935 20.0677 17.2113 20.8176 17.2113V17.2113ZM20.8176 11.2323C19.2905 11.2323 18.0318 12.3772 17.8511 13.8554C17.8511 13.8554 19.3504 13.1801 23.4294 12.7693C22.9191 11.8525 21.9409 11.2323 20.8175 11.2323H20.8176Z" fill="#EAAA00"/>
<path d="M23.7213 13.5116C23.778 13.744 23.8068 13.9824 23.807 14.2216C23.807 14.3425 23.7987 14.4614 23.7849 14.5787C25.082 14.7159 26.3792 14.9673 27.6277 15.3726C26.2191 15.4206 24.7836 15.5524 23.3984 15.7297C22.8793 16.6156 21.918 17.2113 20.8176 17.2113C20.0678 17.2113 19.3839 16.935 18.8586 16.4795C15.9709 17.0552 13.9423 17.6363 13.9423 17.6363C15.3719 17.6999 16.1797 18.0314 16.1797 18.0314C12.4849 18.7784 9.04963 20.2024 7.93408 20.6897C8.20058 21.1135 8.5478 21.609 8.5478 21.609L7.99599 22.2916C8.98231 22.4711 10.2046 22.3667 10.2046 22.3667L12.0369 21.2446L13.4747 21.6759L13.9081 21.0834H13.4358L14.3827 19.5567L15.1787 21.0827H14.8221L15.0633 21.609L16.0566 21.4325L16.4797 20.8937H16.1015L16.666 20.0258H16.2409L17.1347 18.5129L17.8982 20.0752L17.56 20.0751L18.0721 20.9866H17.6683L18.4955 22.4937L19.322 21.3329H18.7546L19.6091 20.0477H19.0606L20.2926 17.9326L21.3612 20.0745H20.9165L21.6448 21.3323H21.1305L21.8361 22.8933L23.0323 20.9386H22.3722L23.3496 19.3486H22.7499L24.0579 16.6906L25.4315 19.4744H24.9492L25.8336 20.9382H25.2289L25.9062 22.3884L27.0113 20.7054H26.417L27.7001 18.8559H27.0113L29.0668 16.019L30.1497 17.9705L32.4544 15.1346C29.7989 14.1412 26.7708 13.6111 23.7213 13.5116ZM17.8277 14.2216C17.8277 14.0976 17.8365 13.9755 17.8511 13.8554C15.0724 14.2803 12.4802 15.0756 10.3772 16.2142C10.3772 16.2142 13.623 15.0791 17.8557 14.6272C17.838 14.4945 17.8277 14.3593 17.8277 14.2216Z" fill="#A6192E"/>
<path d="M21.1611 15.3011C17.2593 15.4272 13.7508 16.4005 13.75 16.4005C13.7231 16.2264 13.6967 16.058 13.6694 15.883C13.5486 16.0875 13.4336 16.2834 13.3128 16.4863C13.3125 16.4863 11.5477 17.1331 10.3838 17.7446C11.8773 17.2297 13.0888 16.9124 13.0888 16.9124C12.9696 17.169 12.8489 17.425 12.7268 17.6802C12.9508 17.4802 13.1644 17.2887 13.3885 17.0882C13.5489 17.1737 13.7025 17.2577 13.8647 17.344C13.8419 17.1532 13.8207 16.9676 13.7977 16.7742C13.7983 16.7739 17.7347 15.6793 21.1611 15.3011Z" fill="white"/>
</svg>
