<svg width="40" height="40" viewBox="0 0 40 40" fill="none" xmlns="http://www.w3.org/2000/svg">
<path d="M31.0214 28.8449C30.6633 28.8449 30.3726 29.1352 30.3726 29.4935C30.3726 29.8515 30.6633 30.1422 31.0214 30.1422C31.3794 30.1422 31.6698 29.8515 31.6698 29.4936C31.6698 29.1352 31.3795 28.8449 31.0214 28.8449ZM31.0214 30.003C30.9545 30.0031 30.8882 29.9899 30.8263 29.9644C30.7645 29.9388 30.7083 29.9013 30.661 29.8539C30.6137 29.8066 30.5762 29.7504 30.5506 29.6886C30.525 29.6268 30.5119 29.5605 30.5119 29.4936C30.5119 29.2121 30.7395 28.9844 31.0214 28.9844C31.3029 28.9844 31.5307 29.212 31.5307 29.4936C31.5307 29.7752 31.3029 30.003 31.0214 30.003ZM31.2879 29.3432C31.2879 29.3143 31.2822 29.2857 31.2711 29.259C31.26 29.2324 31.2438 29.2081 31.2234 29.1877C31.2029 29.1673 31.1787 29.1511 31.152 29.1401C31.1253 29.1291 31.0967 29.1234 31.0678 29.1234H30.7553V29.8638H30.8942V29.5631H30.9939L31.1343 29.8638H31.2879L31.1413 29.5503C31.1841 29.5351 31.2212 29.507 31.2474 29.47C31.2737 29.4329 31.2878 29.3886 31.2879 29.3432ZM31.0678 29.4241H30.8942V29.2621H31.0678C31.1124 29.2621 31.149 29.2984 31.149 29.3432C31.1489 29.3647 31.1403 29.3853 31.1251 29.4005C31.1099 29.4156 31.0893 29.4241 31.0678 29.4241ZM32.5899 19.85L34.9034 17.4194L33.5894 11.3614L27.7445 9.62589L27.2189 10.1132C25.2643 9.5299 21.7491 8.92649 19.4008 8.93059C10.7014 8.94573 3.86626 13.7831 3.83984 19.9428C3.83984 25.213 8.38535 31.0694 19.4751 31.0694C28.262 31.0694 36.1599 25.2197 36.1599 25.2197L32.5899 19.85Z" fill="white"/>
<path d="M31.8173 19.7827L34.2429 17.2345L33.0731 11.8398L27.9032 10.3051L27.3732 10.7963C25.628 10.2204 21.8974 9.53218 19.4012 9.53655C10.9171 9.55125 4.47017 14.205 4.4454 19.9458C4.41971 25.9636 10.2564 30.4632 19.4748 30.4632C25.9255 30.4632 32.5347 27.0201 35.3277 25.0627L31.8173 19.7826L31.8173 19.7827Z" fill="#001E62"/>
<path d="M20.4291 21.8243H19.0196V23.0195L20.4291 23.0178V21.8243ZM29.0028 20.2361C27.9074 19.2716 26.3123 18.2612 24.2928 17.77V22.2433C25.817 21.8219 27.4894 21.1065 29.0028 20.2361V20.2361ZM15.0843 22.4187V17.5704C13.6843 17.9752 12.1152 18.7676 12.1152 20.0224C12.1152 20.8813 13.4413 21.9181 15.0843 22.4187ZM19.0512 18.1553H20.4211V17.0198L19.0512 16.9641V18.1553Z" fill="white"/>
<path d="M30.9101 20.3443C30.9101 20.3443 27.2489 22.8425 23.2126 23.5965V16.5034C27.5955 17.0548 30.1916 19.9204 30.1916 19.9204L33.112 16.9017L32.1741 12.6678L28.1834 11.5007L27.6773 12.0526C26.058 11.4197 22.7171 10.5997 19.0133 10.5997C11.5982 10.5997 5.54261 14.8011 5.53176 19.986C5.52103 25.0355 10.6609 29.4069 18.9573 29.4069C26.6218 29.4069 32.1539 25.7559 33.8865 24.7772L30.9101 20.3443ZM18.2607 19.0082V16.1028C19.2746 16.0519 20.3998 16.1047 21.1958 16.1997V19.0082L18.2607 19.0082ZM21.1958 20.9295V23.8551C20.3703 23.9534 19.1116 23.9777 18.2607 23.9149V20.9295H21.1958ZM16.1542 16.2716V23.7147C14.9324 23.7147 11.0328 22.2809 11.0328 20.0221C11.0328 17.2299 15.0177 16.4589 16.1542 16.2716Z" fill="white"/>
<path d="M30.6967 21.3936C25.9058 24.2069 22.7175 24.7531 18.8276 24.7166C13.3603 24.665 10.2468 22.4777 10.2468 19.8725C10.2468 17.5238 13.103 15.2853 18.9379 15.2853C22.8637 15.2853 27.5977 16.3374 30.1259 18.8294L32.231 16.684L31.5122 13.2791L28.4083 12.3722L27.8448 13.009C26.1436 12.3271 23.2683 11.3842 18.8453 11.3842C12.1715 11.3842 6.31885 15.239 6.31885 19.9055C6.31885 24.7804 11.4149 28.6029 18.6478 28.6029C25.9831 28.6029 30.2887 25.8376 32.7756 24.533L30.6967 21.3936L30.6967 21.3936Z" fill="#A6192E"/>
</svg>
