<svg width="40" height="40" viewBox="0 0 40 40" fill="none" xmlns="http://www.w3.org/2000/svg">
<path d="M31.0214 28.8449C30.6633 28.8449 30.3726 29.1352 30.3726 29.4935C30.3726 29.8515 30.6633 30.1422 31.0214 30.1422C31.3794 30.1422 31.6698 29.8515 31.6698 29.4936C31.6698 29.1352 31.3795 28.8449 31.0214 28.8449ZM31.0214 30.003C30.9545 30.0031 30.8882 29.9899 30.8263 29.9644C30.7645 29.9388 30.7083 29.9013 30.661 29.8539C30.6137 29.8066 30.5762 29.7504 30.5506 29.6886C30.525 29.6268 30.5119 29.5605 30.5119 29.4936C30.5119 29.2121 30.7395 28.9844 31.0214 28.9844C31.3029 28.9844 31.5307 29.212 31.5307 29.4936C31.5307 29.7752 31.3029 30.003 31.0214 30.003ZM31.2879 29.3432C31.2879 29.3143 31.2822 29.2857 31.2711 29.259C31.26 29.2324 31.2438 29.2081 31.2234 29.1877C31.2029 29.1673 31.1787 29.1511 31.152 29.1401C31.1253 29.1291 31.0967 29.1234 31.0678 29.1234H30.7553V29.8638H30.8942V29.5631H30.9939L31.1343 29.8638H31.2879L31.1413 29.5503C31.1841 29.5351 31.2212 29.507 31.2474 29.47C31.2737 29.4329 31.2878 29.3886 31.2879 29.3432ZM31.0678 29.4241H30.8942V29.2621H31.0678C31.1124 29.2621 31.149 29.2984 31.149 29.3432C31.1489 29.3647 31.1403 29.3853 31.1251 29.4005C31.1099 29.4156 31.0893 29.4241 31.0678 29.4241ZM32.5899 19.85L34.9034 17.4194L33.5894 11.3614L27.7445 9.62589L27.2189 10.1132C25.2643 9.5299 21.7491 8.92649 19.4008 8.93059C10.7014 8.94573 3.86626 13.7831 3.83984 19.9428C3.83984 25.213 8.38535 31.0694 19.4751 31.0694C28.262 31.0694 36.1599 25.2197 36.1599 25.2197L32.5899 19.85Z" fill="white"/>
<path d="M31.8173 19.7827L34.2429 17.2345L33.0731 11.8398L27.9032 10.3051L27.3732 10.7963C25.628 10.2204 21.8974 9.53218 19.4012 9.53655C10.9171 9.55125 4.47017 14.205 4.4454 19.9458C4.41971 25.9636 10.2564 30.4632 19.4748 30.4632C25.9255 30.4632 32.5347 27.0201 35.3277 25.0627L31.8173 19.7826L31.8173 19.7827Z" fill="#001E62"/>
<path d="M20.4288 21.8243H19.0193V23.0195L20.4288 23.0178V21.8243ZM29.0025 20.2361C27.9071 19.2716 26.3121 18.2612 24.2925 17.77V22.2433C25.8168 21.8219 27.4891 21.1065 29.0025 20.2361V20.2361ZM15.0841 22.4187V17.5704C13.684 17.9752 12.115 18.7676 12.115 20.0224C12.115 20.8813 13.441 21.9181 15.0841 22.4187ZM19.051 18.1553H20.4209V17.0198L19.051 16.9641V18.1553Z" fill="white"/>
<path d="M30.9099 20.3443C30.9099 20.3443 27.2486 22.8425 23.2123 23.5965V16.5034C27.5952 17.0548 30.1913 19.9204 30.1913 19.9204L33.1118 16.9017L32.1739 12.6678L28.1832 11.5007L27.6771 12.0526C26.0577 11.4197 22.7169 10.5997 19.0131 10.5997C11.5979 10.5997 5.54236 14.8011 5.53151 19.986C5.52079 25.0355 10.6606 29.4069 18.957 29.4069C26.6215 29.4069 32.1536 25.7559 33.8863 24.7772L30.9099 20.3443ZM18.2604 19.0082V16.1028C19.2744 16.0519 20.3996 16.1047 21.1955 16.1997V19.0082L18.2604 19.0082ZM21.1955 20.9295V23.8551C20.37 23.9534 19.1114 23.9777 18.2604 23.9149V20.9295H21.1955ZM16.1539 16.2716V23.7147C14.9322 23.7147 11.0326 22.2809 11.0326 20.0221C11.0326 17.2299 15.0174 16.4589 16.1539 16.2716Z" fill="white"/>
<path d="M30.6965 21.3936C25.9056 24.2069 22.7172 24.7531 18.8274 24.7166C13.3601 24.665 10.2466 22.4777 10.2466 19.8725C10.2466 17.5238 13.1027 15.2853 18.9377 15.2853C22.8634 15.2853 27.5975 16.3374 30.1257 18.8294L32.2307 16.684L31.5119 13.2791L28.408 12.3722L27.8445 13.009C26.1434 12.3271 23.2681 11.3842 18.845 11.3842C12.1713 11.3842 6.3186 15.239 6.3186 19.9055C6.3186 24.7804 11.4147 28.6029 18.6476 28.6029C25.9829 28.6029 30.2885 25.8376 32.7754 24.533L30.6964 21.3936L30.6965 21.3936Z" fill="#A6192E"/>
</svg>
