<svg width="40" height="40" viewBox="0 0 40 40" fill="none" xmlns="http://www.w3.org/2000/svg">
<path d="M24.1005 28.4086C23.7778 28.4086 23.5158 28.6702 23.5158 28.9931C23.5158 29.3157 23.7778 29.5777 24.1005 29.5777C24.4232 29.5777 24.6848 29.3157 24.6848 28.9932C24.6848 28.6702 24.4232 28.4086 24.1005 28.4086ZM24.1005 29.4523C24.0402 29.4523 23.9805 29.4405 23.9248 29.4174C23.8691 29.3944 23.8184 29.3606 23.7758 29.3179C23.7331 29.2753 23.6993 29.2246 23.6763 29.1689C23.6532 29.1132 23.6414 29.0535 23.6414 28.9932C23.6414 28.7395 23.8465 28.5343 24.1005 28.5343C24.3542 28.5343 24.5595 28.7395 24.5595 28.9932C24.5595 29.2469 24.3542 29.4523 24.1005 29.4523ZM24.3407 28.8576C24.3407 28.8316 24.3356 28.8058 24.3256 28.7818C24.3156 28.7578 24.301 28.7359 24.2826 28.7175C24.2641 28.6992 24.2423 28.6846 24.2182 28.6746C24.1942 28.6647 24.1684 28.6596 24.1424 28.6596H23.8607V29.3268H23.9859V29.0559H24.0758L24.2023 29.3268H24.3407L24.2087 29.0443C24.2472 29.0306 24.2806 29.0053 24.3042 28.9719C24.3279 28.9385 24.3406 28.8986 24.3407 28.8576ZM24.1424 28.9306H23.9859V28.7846H24.1424C24.1826 28.7846 24.2155 28.8173 24.2155 28.8577C24.2154 28.877 24.2077 28.8956 24.194 28.9092C24.1803 28.9229 24.1617 28.9306 24.1424 28.9306ZM35.249 17.7703C35.2118 17.6792 35.142 17.6051 35.0533 17.5624L33.3547 16.742L32.8308 16.3393L32.0679 15.3929L31.8167 14.2647C31.8046 14.2104 31.7813 14.1592 31.7482 14.1144C31.7151 14.0697 31.673 14.0323 31.6246 14.0049L30.431 13.3265L29.6802 12.5723C29.6446 12.5366 29.6027 12.508 29.5565 12.488L24.8825 10.4554C24.808 10.423 24.7255 10.4141 24.6458 10.4299L18.2764 11.7021C16.5423 11.5667 15.0225 11.7843 14.9583 11.7934C14.5674 11.8583 14.5654 12.2805 14.7012 12.4161L5.16766 14.3208C5.0726 14.3399 4.98775 14.3929 4.92899 14.47L3.92009 15.7964C3.74084 16.0321 3.8759 16.3921 4.18614 16.4325C4.25597 16.4417 11.1515 17.3857 11.1515 21.5686C11.1515 23.1087 10.0943 24.6231 10.0835 24.6383C9.93069 24.8551 10.0235 25.2034 10.338 25.2602L14.2329 25.9635C14.528 26.1994 15.5191 26.8956 16.9613 26.8956C18.669 26.8956 19.1525 26.2497 19.2634 25.7202C20.11 25.3599 21.1743 24.5062 21.1743 23.8172C21.1743 23.3883 20.7884 23.1001 20.4278 23.1001C20.3868 23.1001 20.3498 23.115 20.3105 23.1215C20.3105 23.1215 20.1287 22.7852 19.6889 22.7852C19.5009 22.7852 19.2965 22.8795 19.1371 22.9472C19.5275 22.4988 20.1728 21.964 21.2048 21.6225C22.7966 21.0945 24.8716 20.6472 25.911 20.4379C24.331 25.0293 18.9204 27.441 18.8634 27.4656C18.5414 27.6056 18.5996 28.0135 18.7323 28.0982L18.1404 28.3629C17.7198 28.5484 17.899 29.1611 18.3349 29.1241C24.0453 28.6386 28.2449 26.6395 31.1694 23.0258H32.3459C32.4141 23.0258 32.4806 23.0082 32.5402 22.9759C33.6908 22.3329 34.4634 22.3593 34.4709 22.3598C34.6293 22.3665 34.7798 22.2796 34.8493 22.1381C35.4195 20.9789 36.0336 20.3646 36.0395 20.3591C36.1244 20.2738 36.2062 20.1139 36.1291 19.9242L35.249 17.7704V17.7703Z" fill="#FFB81C"/>
<path d="M33.1443 17.0828L32.5505 16.6263L31.6991 15.5706L31.4279 14.3512L30.1868 13.646L29.3983 12.8535L24.7239 10.8205L18.3043 12.1026C16.5702 11.9593 15.0162 12.1877 15.0162 12.1877L15.5558 12.6519L5.24581 14.7112L4.23706 16.0377C4.23706 16.0377 11.5498 16.981 11.5498 21.5686C11.5498 23.26 10.4085 24.8682 10.4085 24.8682L14.4053 25.5894C14.4053 25.5894 15.3994 26.4968 16.9613 26.4968C18.7784 26.4968 18.8953 25.7354 18.8953 25.4387C19.6941 25.1806 20.7762 24.3027 20.7762 23.8172C20.7762 23.6225 20.5736 23.4986 20.4279 23.4986C20.307 23.4986 20.1436 23.5942 20.0106 23.6516C20.0866 23.482 19.9776 23.1837 19.6888 23.1837C19.4468 23.1837 19.0372 23.5268 18.2432 23.6005C18.2432 23.6005 18.8508 21.982 21.0794 21.2439C23.3312 20.498 26.4945 19.9177 26.4945 19.9177C25.1546 25.1713 19.0224 27.8311 19.0224 27.8311L21.2851 27.3217C20.2362 27.8754 18.3009 28.7275 18.3009 28.7275C24.0049 28.242 28.156 26.2786 31.0692 22.52L31.2674 22.6272H32.3459C33.6334 21.9094 34.4924 21.9619 34.4924 21.9619C35.1042 20.7174 35.7601 20.0749 35.7601 20.0749L34.8803 17.9212L33.1443 17.0828Z" fill="#041E42"/>
<path d="M9.62817 17.0279C9.8456 17.1593 10.0574 17.2997 10.2629 17.449C10.4806 17.3763 10.6993 17.3063 10.9188 17.239C11.3041 15.7653 12.0937 14.7877 12.0937 14.7877C10.4573 15.3993 9.76358 16.7351 9.62817 17.0279ZM16.4156 13.6646C16.4156 13.6646 17.0698 14.7779 18.2355 14.7779L19.4464 14.6943L20.4411 13.6549L21.7995 13.4459C21.2961 13.1408 20.7282 12.9211 20.1491 12.765L19.0134 14.3511L19.7352 12.6641C19.5267 12.6188 19.3168 12.5799 19.106 12.5474L18.1273 13.9111L18.7329 12.496C18.4864 12.4661 18.2392 12.4433 17.9915 12.4278L17.2429 13.4713L17.6958 12.4124C16.639 12.368 15.8673 12.4535 15.8673 12.4535L16.1274 12.6779L16.4156 13.6646H16.4156ZM17.9458 24.1154C18.0887 24.7614 18.5205 24.9439 18.562 25.1855C18.562 25.1855 19.6842 24.9547 20.4292 23.8456C18.978 24.5759 17.9458 24.1154 17.9458 24.1154ZM31.0789 21.4379C31.0789 20.8051 30.0317 20.1983 29.5383 20.1983C27.5057 20.1983 27.5336 24.5159 20.3679 28.1742C26.4707 27.2924 31.0789 23.1413 31.0789 21.4379Z" fill="white"/>
<path d="M16.8918 15.1391L16.8747 15.32C16.4211 15.4117 15.7095 15.7036 15.0306 16.2362L18.4092 15.7566L18.699 15.0786C16.9023 15.3422 16.0925 13.8136 16.0925 13.8136L15.955 13.3469L5.52759 15.6801C6.65261 15.7579 7.89293 16.1158 9.02279 16.6919C9.2922 15.7918 9.96043 15.0938 9.96043 15.0938L15.6882 13.812C15.6882 13.812 15.9149 14.5485 16.8918 15.1391Z" fill="white"/>
<path d="M32.3251 18.6376L33.2164 18.3236C33.2164 18.3236 34.2723 18.9919 34.7444 18.135L33.1312 17.3758C32.6798 17.637 32.237 17.7738 31.8273 17.8327V17.8329C30.6174 18.0065 29.6964 17.4984 29.6964 17.4984C28.6933 17.4984 28.0083 17.6597 27.4204 17.9531H27.4202C26.941 18.1923 26.5263 18.5193 26.0569 18.9193L27.4659 17.3692L27.6846 16.0816L23.6613 15.624C23.9187 16.5381 24.5605 17.0376 24.5605 17.0376L23.8033 17.8703L22.9108 18.8521C22.5779 18.7514 22.2264 18.6949 21.8621 18.6865C21.8408 18.1899 22.0357 17.6249 22.4727 17.0828C21.8942 17.5189 21.5449 18.0783 21.4718 18.6982C21.2174 18.7178 20.9692 18.7623 20.7298 18.8284C20.6046 18.4156 20.6184 17.9071 20.809 17.3543C20.4721 17.8679 20.3334 18.4121 20.4029 18.9339C20.1642 19.0239 19.9349 19.1369 19.7181 19.2713C19.5075 18.9508 19.3786 18.5233 19.369 18.0137C19.2474 18.5358 19.2811 19.0228 19.4655 19.4414C18.7026 20.0099 18.3587 20.6983 18.3587 20.6983C15.9348 20.2615 14.4677 22.2895 14.4161 23.7128C14.2624 22.7251 14.5783 20.9785 16.5303 20.1473L17.1782 18.633C17.2173 18.5399 17.2703 18.4533 17.3352 18.376L17.3355 18.3759C17.488 18.1937 17.7102 18.0664 18.0318 17.9829C19.5944 17.5772 21.1909 16.6961 22.0345 15.5818L19.7601 15.6491C18.7362 16.4218 18.301 17.4713 18.301 17.4713L17.6075 17.6335L18.4095 15.7566L15.0307 16.2362C14.0656 16.9929 13.1659 18.2359 13.1659 20.083C13.1659 21.0055 13.4709 21.7607 13.4732 21.7665L13.4733 21.7667C13.4733 21.7667 13.0907 21.2466 12.8648 20.3606L12.8648 20.3607C12.7568 19.9381 12.7023 19.5036 12.7025 19.0675C12.7025 18.1585 12.9644 17.2942 13.2599 16.6084V16.6082C13.6422 15.7206 14.0807 15.1316 14.0807 15.1316C14.0807 15.1316 12.8304 15.6382 11.9711 16.9344L11.971 16.9344C11.7038 17.3375 11.4746 17.8168 11.3325 18.3808C11.9519 19.0364 12.4127 19.7877 12.6203 20.609C12.6998 20.9225 12.7423 21.2466 12.7423 21.5797C12.7423 23.1666 12.079 24.165 12.079 24.165L14.2991 24.6154C14.2991 24.6154 15.1386 25.8372 16.9413 25.8372C17.5115 25.8372 18.2607 25.7742 18.2607 25.4104C18.2607 25.1357 17.586 24.7629 17.586 23.967C17.586 22.6754 19.2087 21.3345 20.9499 20.7608C22.9845 20.0905 26.0928 19.3099 27.6564 19.3099C32.0913 19.3099 31.9451 22.2377 31.9451 22.2377L32.1603 22.2277C33.1473 21.6729 34.0213 21.5672 34.2761 21.5479C34.3248 21.5438 34.3508 21.5434 34.3508 21.5434C34.3508 21.5434 34.7885 20.7265 35.2961 20.1342C35.2961 20.1342 34.6373 18.7526 32.3251 18.6376Z" fill="white"/>
<path d="M19.76 15.6491L22.0345 15.5818C22.4162 15.0776 22.6436 14.5258 22.6436 13.9486C22.6436 12.9531 22.1337 12.37 22.1337 12.37L24.6012 11.8229L25.3686 12.1994C25.3686 12.1994 23.5554 12.896 23.5554 14.8616C23.5554 15.1411 23.5967 15.395 23.6614 15.624L27.6847 16.0816C27.6847 16.0816 28.1275 17.157 29.3473 17.157C29.9376 17.157 30.3889 16.8298 30.3889 16.8298C31.7113 17.8294 32.9227 17.2776 32.9227 17.2776L32.4693 16.9014L32.0363 17.1317L32.3055 16.7278L32.14 16.5398L31.5552 16.8414L31.9213 16.2861L31.7943 16.1395L31.3006 16.3568L31.5835 15.875L31.3845 15.5694C31.199 16.3836 30.4729 16.481 29.8489 16.432L29.8165 16.0719C29.6765 16.1596 29.5147 16.2059 29.3495 16.2057C28.8625 16.2057 28.468 15.811 28.468 15.3246C28.468 15.0458 27.0943 13.8173 27.0943 13.8173L28.872 14.3662C30.3615 14.8265 30.2965 15.5654 30.3134 15.9662C30.5644 16.0768 31.1293 16.1578 31.3845 15.5694L31.1965 14.5911L30.0132 14.0173L29.2005 13.2569L24.6487 11.4167L20.1684 12.4106C21.2238 12.6648 22.0976 13.2158 22.0976 13.2158C22.0976 13.2158 22.4331 13.9877 21.9961 14.847C21.0572 14.8864 20.3207 15.2262 19.76 15.6491ZM30.9135 14.9966L30.6922 15.8526C30.6922 15.2047 30.3088 14.833 29.1749 14.1656L30.9135 14.9966Z" fill="white"/>
<path d="M33.2163 18.3235C33.2163 18.3235 32.6065 18.046 31.8273 17.8329C30.6174 18.0065 29.6964 17.4983 29.6964 17.4983C28.6932 17.4983 28.0082 17.6597 27.4203 17.953C33.8921 18.5221 34.7034 19.9569 34.2758 21.5478C34.3246 21.5438 34.3507 21.5434 34.3507 21.5434C34.3507 21.5434 34.7884 20.7265 35.296 20.1342C35.296 20.1342 34.6372 18.7526 32.325 18.6376L33.2163 18.3235H33.2163ZM13.2598 16.6083C12.8283 16.7095 12.3986 16.8182 11.9709 16.9344C11.7037 17.3375 11.4745 17.8168 11.3324 18.3808C11.9518 19.0364 12.4126 19.7877 12.6202 20.609C12.6986 20.5233 12.7801 20.4405 12.8647 20.361C12.7568 19.9383 12.7023 19.5037 12.7024 19.0675C12.7024 18.1585 12.9643 17.2942 13.2598 16.6083ZM27.6845 16.0816C26.3142 15.8331 24.966 15.6892 23.6612 15.624C23.9186 16.5381 24.5604 17.0375 24.5604 17.0375L23.8032 17.8702C25.1703 17.8444 26.5978 17.9022 26.5978 17.9022L26.0568 18.9193L27.4658 17.3692L27.6845 16.0816ZM18.3009 17.4713L17.6075 17.6335L18.4094 15.7566C17.1885 15.8754 16.0534 16.0454 15.0307 16.2362C14.0655 16.9929 13.1659 18.2359 13.1659 20.083C13.1659 21.0091 13.4732 21.7667 13.4732 21.7667C13.2225 20.6941 13.8088 19.6441 13.8088 19.6441C13.8088 19.6441 15.1584 18.782 17.3354 18.3759C17.4879 18.1937 17.7101 18.0663 18.0317 17.9829C19.5943 17.5772 21.1908 16.6961 22.0344 15.5818C21.2547 15.5802 20.4946 15.6042 19.76 15.649C18.7361 16.4217 18.3009 17.4713 18.3009 17.4713ZM10.7877 17.8628C10.8211 17.6528 10.8649 17.4446 10.9187 17.2389C10.6993 17.3063 10.4807 17.3762 10.2629 17.4487C10.4434 17.5796 10.6184 17.7177 10.7877 17.8628ZM29.4708 15.9338C29.6561 15.9338 29.793 15.8466 29.793 15.8466C29.7815 15.7836 29.7672 15.7212 29.7502 15.6594C29.705 15.6879 29.6405 15.7163 29.5643 15.7163C29.3639 15.7163 29.2401 15.5623 29.2401 15.3924C29.2401 15.2481 29.3391 15.1176 29.4806 15.0807C29.3033 14.83 29.126 14.7242 29.126 14.7242C29.126 14.7242 28.8166 14.8973 28.8166 15.2787C28.8166 15.6604 29.1371 15.9338 29.4708 15.9338Z" fill="#FFB81C"/>
</svg>
