<svg width="24" height="24" viewBox="0 0 24 24" fill="none" xmlns="http://www.w3.org/2000/svg">
<path d="M14.6189 17.3699C14.4128 17.3699 14.2455 17.5369 14.2455 17.7431C14.2455 17.9491 14.4128 18.1164 14.6189 18.1164C14.825 18.1164 14.992 17.9491 14.992 17.7431C14.992 17.5369 14.825 17.3699 14.6189 17.3699ZM14.6189 18.0363C14.5804 18.0364 14.5423 18.0288 14.5067 18.0141C14.4711 17.9994 14.4387 17.9778 14.4115 17.9505C14.3843 17.9233 14.3627 17.891 14.348 17.8554C14.3332 17.8198 14.3257 17.7817 14.3257 17.7431C14.3257 17.5812 14.4567 17.4501 14.6189 17.4501C14.7809 17.4501 14.912 17.5812 14.912 17.7431C14.912 17.9052 14.7809 18.0363 14.6189 18.0363ZM14.7723 17.6566C14.7723 17.64 14.769 17.6235 14.7626 17.6082C14.7562 17.5928 14.7469 17.5789 14.7352 17.5671C14.7234 17.5554 14.7094 17.5461 14.6941 17.5397C14.6787 17.5334 14.6622 17.5301 14.6456 17.5301H14.4658V17.9562H14.5457V17.7832H14.6031L14.6839 17.9562H14.7723L14.688 17.7758C14.7126 17.767 14.7339 17.7509 14.749 17.7296C14.7641 17.7082 14.7722 17.6827 14.7723 17.6566ZM14.6456 17.7032H14.5457V17.6099H14.6456C14.6713 17.6099 14.6923 17.6308 14.6923 17.6566C14.6923 17.669 14.6873 17.6808 14.6786 17.6895C14.6698 17.6983 14.658 17.7032 14.6456 17.7032ZM21.7384 10.5761C21.7147 10.5179 21.6701 10.4706 21.6135 10.4433L20.5287 9.91941L20.1942 9.66223L19.707 9.05787L19.5465 8.33738C19.5388 8.30268 19.5239 8.26998 19.5028 8.2414C19.4817 8.21282 19.4548 8.18898 19.4239 8.17142L18.6616 7.73824L18.1821 7.25658C18.1594 7.2338 18.1326 7.21553 18.1031 7.20273L15.1183 5.9047C15.0707 5.88403 15.018 5.87835 14.9671 5.88841L10.8995 6.70085C9.7921 6.6144 8.82157 6.75335 8.78054 6.75915C8.53095 6.80063 8.52963 7.0702 8.61641 7.15682L2.52813 8.37321C2.46743 8.38536 2.41324 8.41922 2.37572 8.46846L1.73142 9.31552C1.61695 9.46607 1.7032 9.69597 1.90133 9.72178C1.94592 9.7276 6.34949 10.3305 6.34949 13.0017C6.34949 13.9852 5.67438 14.9524 5.66746 14.9621C5.56987 15.1005 5.62914 15.323 5.82996 15.3592L8.31732 15.8083C8.50577 15.959 9.13872 16.4036 10.0597 16.4036C11.1503 16.4036 11.459 15.9911 11.5298 15.653C12.0705 15.4229 12.7502 14.8777 12.7502 14.4377C12.7502 14.1638 12.5038 13.9797 12.2734 13.9797C12.2472 13.9797 12.2237 13.9893 12.1986 13.9934C12.1986 13.9934 12.0824 13.7787 11.8016 13.7787C11.6815 13.7787 11.551 13.8389 11.4492 13.8821C11.6985 13.5958 12.1106 13.2542 12.7696 13.0361C13.7862 12.699 15.1113 12.4133 15.7751 12.2796C14.7661 15.2118 11.3108 16.7519 11.2744 16.7676C11.0688 16.857 11.106 17.1175 11.1907 17.1716L10.8127 17.3407C10.5441 17.4591 10.6585 17.8504 10.9369 17.8268C14.5837 17.5167 17.2655 16.24 19.1332 13.9323H19.8845C19.928 13.9323 19.9705 13.921 20.0086 13.9005C20.7434 13.4898 21.2368 13.5067 21.2416 13.507C21.3427 13.5113 21.4388 13.4558 21.4832 13.3654C21.8474 12.6251 22.2395 12.2328 22.2433 12.2293C22.2975 12.1749 22.3497 12.0728 22.3005 11.9516L21.7384 10.5761V10.5761Z" fill="#FFB81C"/>
<path d="M20.3946 10.137L20.0154 9.84545L19.4717 9.17129L19.2985 8.39259L18.5059 7.94219L18.0024 7.4361L15.0172 6.13782L10.9176 6.95655C9.81015 6.86506 8.81777 7.0109 8.81777 7.0109L9.16239 7.30735L2.57828 8.62247L1.93408 9.46958C1.93408 9.46958 6.60408 10.072 6.60408 13.0017C6.60408 14.0818 5.87525 15.1089 5.87525 15.1089L8.42762 15.5694C8.42762 15.5694 9.06251 16.1489 10.0599 16.1489C11.2203 16.1489 11.295 15.6627 11.295 15.4732C11.8052 15.3084 12.4962 14.7477 12.4962 14.4377C12.4962 14.3134 12.3668 14.2342 12.2737 14.2342C12.1966 14.2342 12.0922 14.2953 12.0072 14.3319C12.0558 14.2236 11.9862 14.0331 11.8017 14.0331C11.6472 14.0331 11.3857 14.2522 10.8786 14.2993C10.8786 14.2993 11.2666 13.2657 12.6898 12.7943C14.1278 12.318 16.1479 11.9474 16.1479 11.9474C15.2923 15.3024 11.3762 17.001 11.3762 17.001L12.8212 16.6757C12.1513 17.0293 10.9154 17.5734 10.9154 17.5734C14.5581 17.2634 17.209 16.0096 19.0694 13.6092L19.196 13.6777H19.8848C20.707 13.2193 21.2555 13.2528 21.2555 13.2528C21.6462 12.4581 22.0651 12.0478 22.0651 12.0478L21.5032 10.6724L20.3946 10.137Z" fill="#041E42"/>
<path d="M5.37646 10.102C5.51531 10.1859 5.65055 10.2756 5.7818 10.3709C5.92086 10.3245 6.06049 10.2798 6.20065 10.2368C6.44676 9.29567 6.95096 8.67132 6.95096 8.67132C5.90597 9.06193 5.46294 9.91496 5.37646 10.102ZM9.71098 7.95409C9.71098 7.95409 10.1288 8.66508 10.8732 8.66508L11.6465 8.6117L12.2817 7.94792L13.1492 7.81446C12.8277 7.61962 12.4651 7.47932 12.0953 7.37961L11.37 8.3925L11.8309 7.31519C11.6978 7.28626 11.5638 7.26141 11.4291 7.24066L10.8041 8.1115L11.1908 7.20786C11.0335 7.18874 10.8756 7.17421 10.7174 7.16429L10.2393 7.83069L10.5286 7.15444C9.85366 7.12607 9.36086 7.18071 9.36086 7.18071L9.52694 7.32402L9.711 7.95409H9.71098ZM10.6882 14.6282C10.7795 15.0407 11.0552 15.1572 11.0817 15.3115C11.0817 15.3115 11.7984 15.1641 12.2742 14.4558C11.3474 14.9222 10.6882 14.6282 10.6882 14.6282ZM19.0752 12.9183C19.0752 12.5142 18.4064 12.1266 18.0913 12.1266C16.7933 12.1266 16.8111 14.8839 12.235 17.2201C16.1323 16.657 19.0752 14.006 19.0752 12.9183Z" fill="white"/>
<path d="M10.0152 8.89575L10.0042 9.01126C9.71454 9.06984 9.26013 9.25622 8.82655 9.59636L10.9842 9.29011L11.1692 8.85711C10.0219 9.02547 9.50472 8.04924 9.50472 8.04924L9.4169 7.75121L2.75781 9.24127C3.47627 9.29093 4.26835 9.51947 4.98989 9.88736C5.16194 9.31258 5.58868 8.86683 5.58868 8.86683L9.24649 8.04825C9.24649 8.04825 9.39127 8.51856 10.0152 8.89575Z" fill="white"/>
<path d="M19.871 11.13L20.4402 10.9294C20.4402 10.9294 21.1145 11.3562 21.416 10.809L20.3857 10.3241C20.0975 10.491 19.8147 10.5783 19.5531 10.616V10.6161C18.7804 10.7269 18.1923 10.4024 18.1923 10.4024C17.5516 10.4024 17.1142 10.5055 16.7387 10.6928H16.7386C16.4326 10.8456 16.1678 11.0544 15.868 11.3099L16.7678 10.32L16.9075 9.49768L14.3382 9.20546C14.5025 9.78919 14.9124 10.1082 14.9124 10.1082L14.4289 10.6399L13.8589 11.267C13.6463 11.2026 13.4218 11.1665 13.1892 11.1612C13.1755 10.8441 13.3 10.4833 13.5791 10.137C13.2097 10.4156 12.9866 10.7728 12.9399 11.1686C12.7774 11.1812 12.6189 11.2096 12.4661 11.2518C12.3861 10.9882 12.3949 10.6634 12.5167 10.3104C12.3015 10.6384 12.2129 10.986 12.2573 11.3192C12.1049 11.3766 11.9584 11.4488 11.82 11.5347C11.6855 11.33 11.6032 11.057 11.597 10.7315C11.5194 11.0649 11.5409 11.3759 11.6587 11.6433C11.1714 12.0063 10.9519 12.4459 10.9519 12.4459C9.40393 12.167 8.46699 13.4621 8.43407 14.371C8.33588 13.7403 8.53764 12.6249 9.78424 12.0941L10.198 11.127C10.223 11.0676 10.2568 11.0122 10.2982 10.9629L10.2984 10.9628C10.3958 10.8465 10.5377 10.7652 10.7431 10.7119C11.741 10.4528 12.7605 9.8901 13.2993 9.17851L11.8468 9.22144C11.1929 9.71489 10.915 10.3851 10.915 10.3851L10.4722 10.4887L10.9843 9.29012L8.82657 9.59639C8.21024 10.0796 7.63569 10.8734 7.63569 12.053C7.63569 12.6422 7.83043 13.1244 7.83193 13.1281L7.83195 13.1283C7.83195 13.1283 7.58766 12.7961 7.44339 12.2303L7.44336 12.2303C7.37443 11.9605 7.33962 11.683 7.33974 11.4045C7.33974 10.824 7.50699 10.272 7.69569 9.83406V9.83398C7.93985 9.26712 8.2199 8.89098 8.2199 8.89098C8.2199 8.89098 7.42141 9.21449 6.87267 10.0423L6.87257 10.0423C6.70196 10.2997 6.5556 10.6058 6.46484 10.966C6.8604 11.3847 7.15468 11.8645 7.28726 12.3889C7.33798 12.5891 7.36515 12.7961 7.36515 13.0088C7.36515 14.0222 6.94152 14.6598 6.94152 14.6598L8.35937 14.9475C8.35937 14.9475 8.89545 15.7277 10.0467 15.7277C10.4108 15.7277 10.8893 15.6874 10.8893 15.4551C10.8893 15.2797 10.4584 15.0416 10.4584 14.5334C10.4584 13.7085 11.4947 12.8522 12.6066 12.4858C13.906 12.0578 15.8909 11.5593 16.8895 11.5593C19.7217 11.5593 19.6283 13.429 19.6283 13.429L19.7657 13.4227C20.3961 13.0683 20.9542 13.0009 21.1169 12.9885C21.148 12.9859 21.1646 12.9856 21.1646 12.9856C21.1646 12.9856 21.4441 12.464 21.7683 12.0857C21.7683 12.0857 21.3476 11.2034 19.871 11.13Z" fill="white"/>
<path d="M11.8467 9.22144L13.2992 9.17846C13.543 8.85649 13.6882 8.50413 13.6882 8.13552C13.6882 7.49973 13.3625 7.12739 13.3625 7.12739L14.9383 6.77797L15.4284 7.01842C15.4284 7.01842 14.2705 7.46327 14.2705 8.71855C14.2705 8.89705 14.2968 9.05922 14.3382 9.20544L16.9075 9.49762C16.9075 9.49762 17.1902 10.1844 17.9693 10.1844C18.3462 10.1844 18.6344 9.97547 18.6344 9.97547C19.4789 10.6138 20.2526 10.2614 20.2526 10.2614L19.963 10.0212L19.6865 10.1683L19.8584 9.91033L19.7527 9.79024L19.3793 9.98289L19.6131 9.62827L19.5319 9.5346L19.2166 9.67338L19.3973 9.36571L19.2702 9.17055C19.1517 9.6905 18.6881 9.75274 18.2896 9.72141L18.2689 9.49148C18.1795 9.54744 18.0761 9.57706 17.9707 9.57693C17.6596 9.57693 17.4077 9.32485 17.4077 9.01423C17.4077 8.83616 16.5304 8.05163 16.5304 8.05163L17.6657 8.40215C18.617 8.69613 18.5754 9.16803 18.5862 9.42397C18.7465 9.49459 19.1072 9.54632 19.2702 9.17055L19.1502 8.54581L18.3945 8.17936L17.8755 7.69375L14.9686 6.51862L12.1075 7.15332C12.7815 7.31566 13.3395 7.66755 13.3395 7.66755C13.3395 7.66755 13.5538 8.16048 13.2747 8.70922C12.6751 8.7344 12.2047 8.95137 11.8467 9.22144ZM18.9695 8.80475L18.8281 9.35143C18.8281 8.93768 18.5833 8.70031 17.8592 8.2741L18.9695 8.80475Z" fill="white"/>
<path d="M20.4405 10.9294C20.4405 10.9294 20.0511 10.7522 19.5535 10.6161C18.7808 10.7269 18.1927 10.4024 18.1927 10.4024C17.552 10.4024 17.1146 10.5055 16.7391 10.6928C20.8721 11.0562 21.3902 11.9725 21.1171 12.9885C21.1483 12.9859 21.165 12.9856 21.165 12.9856C21.165 12.9856 21.4445 12.464 21.7687 12.0857C21.7687 12.0857 21.348 11.2034 19.8714 11.13L20.4406 10.9294H20.4405ZM7.69606 9.83406C7.4205 9.89867 7.14609 9.96809 6.87295 10.0423C6.70234 10.2997 6.55597 10.6058 6.4652 10.966C6.86078 11.3847 7.15506 11.8645 7.28762 12.389C7.33765 12.3342 7.38974 12.2814 7.44376 12.2305C7.37482 11.9606 7.34 11.6831 7.34012 11.4045C7.34012 10.824 7.50737 10.272 7.69606 9.83406ZM16.9078 9.49767C16.0328 9.33901 15.1718 9.24709 14.3386 9.20546C14.5029 9.78919 14.9128 10.1082 14.9128 10.1082L14.4292 10.6399C15.3023 10.6235 16.2139 10.6603 16.2139 10.6603L15.8684 11.3099L16.7682 10.32L16.9078 9.49767ZM10.9154 10.3852L10.4725 10.4887L10.9846 9.29011C10.205 9.36601 9.48008 9.47456 8.82695 9.59639C8.21062 10.0796 7.63607 10.8734 7.63607 12.053C7.63607 12.6444 7.83235 13.1283 7.83235 13.1283C7.67225 12.4433 8.04668 11.7727 8.04668 11.7727C8.04668 11.7727 8.90852 11.2222 10.2988 10.9628C10.3962 10.8465 10.5381 10.7652 10.7434 10.7119C11.7413 10.4528 12.7609 9.8901 13.2996 9.17851C12.8017 9.17751 12.3163 9.19279 11.8472 9.22143C11.1933 9.71489 10.9154 10.3852 10.9154 10.3852ZM6.11732 10.6352C6.1387 10.5011 6.16664 10.3681 6.20103 10.2368C6.06091 10.2798 5.9213 10.3244 5.78223 10.3707C5.89745 10.4543 6.00924 10.5425 6.11732 10.6352ZM18.0486 9.40329C18.1669 9.40329 18.2544 9.34762 18.2544 9.34762C18.247 9.30739 18.2379 9.2675 18.227 9.22808C18.1982 9.24624 18.157 9.26438 18.1083 9.26438C17.9803 9.26438 17.9013 9.16604 17.9013 9.05757C17.9013 8.9654 17.9645 8.88206 18.0549 8.8585C17.9416 8.69842 17.8284 8.63086 17.8284 8.63086C17.8284 8.63086 17.6308 8.74135 17.6308 8.98496C17.6308 9.22873 17.8355 9.40329 18.0486 9.40329Z" fill="#FFB81C"/>
</svg>
