<svg width="40" height="40" viewBox="0 0 40 40" fill="none" xmlns="http://www.w3.org/2000/svg">
<path d="M31.8217 31.4965C31.4295 31.4965 31.1111 31.8144 31.1111 32.2068C31.1111 32.5988 31.4295 32.9172 31.8217 32.9172C32.2138 32.9172 32.5317 32.5988 32.5317 32.2068C32.5317 31.8144 32.2138 31.4965 31.8217 31.4965ZM31.8217 32.7648C31.7484 32.7649 31.6758 32.7505 31.6081 32.7225C31.5404 32.6944 31.4788 32.6533 31.427 32.6015C31.3752 32.5497 31.3341 32.4882 31.3061 32.4204C31.278 32.3527 31.2636 32.2801 31.2637 32.2068C31.2637 31.8986 31.513 31.6493 31.8217 31.6493C32.13 31.6493 32.3795 31.8986 32.3795 32.2068C32.3795 32.5152 32.13 32.7648 31.8217 32.7648ZM32.1136 32.0422C32.1135 32.0106 32.1073 31.9792 32.0952 31.95C32.083 31.9208 32.0653 31.8943 32.0429 31.8719C32.0205 31.8496 31.9939 31.8319 31.9647 31.8198C31.9355 31.8077 31.9041 31.8015 31.8725 31.8015H31.5302V32.6123H31.6824V32.283H31.7916L31.9453 32.6123H32.1136L31.9531 32.269C31.9999 32.2524 32.0405 32.2216 32.0693 32.181C32.098 32.1404 32.1134 32.0919 32.1136 32.0422ZM31.8725 32.1308H31.6824V31.9534H31.8725C31.9214 31.9534 31.9614 31.9931 31.9614 32.0422C31.9613 32.0657 31.9519 32.0883 31.9353 32.1049C31.9186 32.1215 31.896 32.1308 31.8725 32.1308Z" fill="white"/>
<path d="M32.3855 9.87858L34.5801 5.98279H27.2397L26.1873 7.00614L25.1349 5.98279H14.8653L13.8129 7.00614L12.7605 5.98279H5.41992L7.61504 9.87858V28.801C7.61504 29.1818 7.61504 32.1531 11.2056 32.1531H16.8852C18.9243 32.1531 19.9181 34.0172 19.9181 34.0172H20.0819C20.0819 34.0172 21.076 32.1531 23.115 32.1531H28.7946C32.3851 32.1531 32.3855 29.1818 32.3855 28.801V9.87858Z" fill="#0033A0"/>
<path d="M18.0503 15.3931L30.736 24.5806V15.3931H18.0503Z" fill="#C8102E"/>
<path d="M9.2644 14.0995H30.7356V14.6172H9.2644V14.0995ZM9.2644 28.8011C9.2644 30.31 10.3015 30.5037 11.2054 30.5037H16.885C18.1776 30.5037 19.2234 31.182 19.9996 31.8051C20.776 31.182 21.822 30.5037 23.1148 30.5037H25.1718L9.2644 18.983V28.801V28.8011ZM9.2644 17.9164L26.6445 30.5037H27.3835L9.2644 17.3809V17.9164ZM15.8379 15.3932L30.7356 26.1831V25.6479L16.5772 15.3932H15.8379ZM21.9816 25.6195L23.2383 26.5297L23.6044 26.0247L22.8615 25.4867L23.4538 24.6684L24.1968 25.2066L24.5624 24.701L23.82 24.1635L24.4127 23.3456L25.1551 23.8832L25.5211 23.3778L24.264 22.4675L21.9816 25.6195ZM15.6891 16.2568L14.5265 15.4154L12.2439 18.567L12.7579 18.9399L13.7799 17.5283L14.067 17.7362L13.5845 19.5384L14.099 19.9107L14.587 18.0867C14.9091 18.2196 15.2917 18.12 15.5053 17.8259L15.8615 17.3337C16.111 16.9891 16.0339 16.507 15.6892 16.2568H15.6891ZM15.2774 17.0578L15.0603 17.3568C15.0398 17.3852 15.014 17.4092 14.9842 17.4275C14.9544 17.4459 14.9213 17.4582 14.8867 17.4637C14.8522 17.4693 14.8169 17.4679 14.7829 17.4598C14.7488 17.4517 14.7167 17.437 14.6884 17.4165L14.146 17.0231L14.6751 16.2929L15.2178 16.6859C15.275 16.7273 15.3134 16.7898 15.3245 16.8595C15.3357 16.9292 15.3187 17.0005 15.2774 17.0578ZM25.858 28.4267L26.346 26.6027C26.6679 26.736 27.0506 26.6368 27.2641 26.3421L27.6207 25.85C27.8702 25.5055 27.7931 25.0233 27.4486 24.7734L26.2855 23.9314L24.0023 27.0831L24.5172 27.456L25.5391 26.0449L25.8257 26.2526L25.3438 28.0547L25.858 28.4267ZM26.434 24.8092L26.9767 25.2023C27.0339 25.2437 27.0724 25.3061 27.0836 25.3759C27.0948 25.4456 27.0778 25.517 27.0364 25.5742L26.8196 25.8731C26.7336 25.9923 26.567 26.0188 26.4478 25.9327L25.9048 25.5395L26.434 24.8092ZM19.3154 18.8836L17.0324 22.0355L17.547 22.4081L18.9175 20.5157L18.3733 23.0064L18.8876 23.3789L21.1703 20.2268L20.6561 19.8546L19.2857 21.7464L19.8297 19.2556L19.3154 18.8836ZM14.4455 20.1617L14.9599 20.5345L15.6092 20.0127L16.4647 20.6324L16.1718 21.4119L16.6861 21.7844L18.1054 18.0075L17.5916 17.6348L14.4455 20.1617L14.4455 20.1617ZM16.6585 20.1167L16.0382 19.6678L17.1685 18.76L16.6585 20.1167ZM22.933 21.5033L22.5021 21.1912C22.1568 20.9416 21.6752 21.0184 21.4253 21.3629L20.047 23.2666C19.7971 23.6112 19.8741 24.0931 20.2193 24.343L20.6501 24.6551C20.756 24.7317 20.8795 24.7801 21.0093 24.7959L21.0002 24.9087L21.2741 25.1077L22.4949 23.4222L21.4934 22.6966L21.1821 23.1267L21.6693 23.4794L21.2819 24.0139C21.2614 24.0422 21.2356 24.0663 21.2058 24.0846C21.1761 24.103 21.143 24.1153 21.1085 24.1208C21.074 24.1263 21.0387 24.125 21.0047 24.1169C20.9707 24.1088 20.9386 24.0941 20.9103 24.0736L20.6905 23.9142C20.5716 23.8281 20.5446 23.6613 20.631 23.5426L21.8694 21.8323C21.9109 21.7751 21.9733 21.7368 22.0431 21.7256C22.1129 21.7145 22.1842 21.7315 22.2414 21.7729L22.4611 21.9319C22.5183 21.9733 22.5567 22.0357 22.5679 22.1054C22.5791 22.175 22.5623 22.2463 22.5211 22.3036L22.2189 22.7208L22.733 23.0934L23.1049 22.5797C23.3545 22.2351 23.2778 21.7533 22.933 21.5033ZM29.3646 26.1614C28.894 25.8203 28.2361 25.9254 27.8955 26.3962C27.2774 27.2495 28.4701 28.2856 28.1456 28.7338C27.9936 28.9437 27.7 28.9909 27.4897 28.8384C27.2799 28.6869 27.2329 28.3934 27.385 28.183L27.5334 27.9781L27.0193 27.6056L26.877 27.8015C26.5196 28.2956 26.6301 28.9864 27.1241 29.3439C27.618 29.7014 28.3085 29.5913 28.6661 29.0969C29.2783 28.2521 28.0859 27.2151 28.4161 26.7595C28.4482 26.7152 28.4888 26.6776 28.5355 26.6489C28.5822 26.6202 28.634 26.601 28.6881 26.5924C28.7422 26.5838 28.7975 26.5859 28.8507 26.5987C28.904 26.6114 28.9543 26.6345 28.9986 26.6667C29.1853 26.8015 29.2271 27.0622 29.0919 27.2493L28.9685 27.4192L29.4826 27.7918L29.5991 27.6304C29.9402 27.16 29.8353 26.5019 29.3646 26.1614ZM14.1443 12.8283H13.2271V11.8181H14.1443V11.1943H13.2271V10.1844H14.1443V9.55988H12.5921V13.4521H14.1443V12.8283ZM25.709 11.7098H26.063L26.7298 13.4521H27.3648L26.6898 11.6884C27.0289 11.6071 27.2804 11.3028 27.2804 10.9387V10.3312C27.2804 9.90552 26.9357 9.55992 26.5099 9.55992H25.0739V13.4521H25.709L25.709 11.7098ZM25.709 10.1844H26.3791C26.5265 10.1844 26.6458 10.3034 26.6458 10.4503V10.8195C26.6458 10.8903 26.6177 10.9581 26.5677 11.0081C26.5177 11.0582 26.4498 11.0863 26.3791 11.0863H25.709V10.1844ZM10.1016 11.1154L11.1222 13.4521H11.7574V9.55992H11.1221V11.897L10.1016 9.55992H9.46699V13.4521H10.1017L10.1016 11.1154ZM23.2245 13.4521H23.7559C24.1822 13.4521 24.5274 13.1066 24.5274 12.681V10.3312C24.5274 9.90552 24.1822 9.55988 23.7559 9.55988H23.2245C22.7985 9.55988 22.453 9.90557 22.453 10.3312V12.681C22.453 13.1066 22.7985 13.4521 23.2245 13.4521H23.2245ZM23.0883 10.4502C23.0883 10.3034 23.2075 10.1844 23.3545 10.1844H23.6259C23.6609 10.1844 23.6955 10.1912 23.7278 10.2046C23.7601 10.2179 23.7894 10.2375 23.8142 10.2622C23.8389 10.2868 23.8585 10.3162 23.8719 10.3484C23.8853 10.3807 23.8922 10.4153 23.8923 10.4503V12.5622C23.8922 12.6328 23.8641 12.7005 23.8142 12.7504C23.7643 12.8003 23.6965 12.8283 23.6259 12.8283H23.3545C23.2839 12.8283 23.2162 12.8002 23.1663 12.7503C23.1164 12.7004 23.0883 12.6327 23.0883 12.5622V10.4502ZM28.6987 11.8408L28.9833 11.3836L29.8981 13.4521H30.5331L29.3552 10.7877L30.1212 9.55988H29.4859L28.6987 10.8226V9.55992H28.0637V13.4521H28.6987V11.8408ZM20.6325 13.4521H21.2676V11.8408L22.1058 9.55988H21.4708L20.9497 10.9771L20.4288 9.55988H19.7937L20.6325 11.8408L20.6325 13.4521ZM16.1416 13.4521L16.4745 11.412L16.8073 13.4521H17.5669L18.2022 9.55992H17.5669L17.1875 11.8882L16.8073 9.55988H16.1416L15.7617 11.8882L15.3823 9.55988H14.747L15.3823 13.4521H16.1416Z" fill="white"/>
<path d="M27.3141 6.16571L26.1872 7.26175L25.0604 6.16571H14.9395L13.8128 7.26175L12.686 6.16571H5.7334L7.79829 9.83022V28.801C7.79829 29.754 8.13006 31.9699 11.2055 31.9699H16.8851C18.7089 31.9699 19.7219 33.3717 19.9997 33.8151C20.2782 33.3717 21.2911 31.9699 23.1149 31.9699H28.7945C31.87 31.9699 32.2022 29.754 32.2022 28.801V9.83022L34.2667 6.16571H27.3141ZM31.365 9.6111V28.801C31.365 29.8648 30.9191 31.1326 28.7945 31.1326H23.1149C21.6715 31.1326 20.6438 31.9439 19.9997 32.5891C19.3567 31.9439 18.3284 31.1326 16.8851 31.1326H11.2055C9.08119 31.1326 8.63506 29.8648 8.63506 28.801V9.61115L7.16548 7.00281H12.3462L13.8128 8.42897L15.2796 7.00286H24.7206L26.1872 8.42897L27.6537 7.00286H32.8345L31.365 9.61115L31.365 9.6111Z" fill="white"/>
</svg>
