<svg width="40" height="40" viewBox="0 0 40 40" fill="none" xmlns="http://www.w3.org/2000/svg">
<path d="M31.8219 31.4965C31.4297 31.4965 31.1113 31.8144 31.1113 32.2068C31.1113 32.5989 31.4297 32.9172 31.8219 32.9172C32.2141 32.9172 32.532 32.5989 32.532 32.2069C32.532 31.8144 32.2141 31.4965 31.8219 31.4965ZM31.8219 32.7648C31.7487 32.7649 31.6761 32.7505 31.6083 32.7225C31.5406 32.6945 31.4791 32.6534 31.4272 32.6016C31.3754 32.5497 31.3343 32.4882 31.3063 32.4205C31.2783 32.3527 31.2639 32.2802 31.264 32.2069C31.264 31.8986 31.5133 31.6493 31.8219 31.6493C32.1302 31.6493 32.3798 31.8986 32.3798 32.2069C32.3798 32.5152 32.1302 32.7648 31.8219 32.7648ZM32.1138 32.0422C32.1138 32.0106 32.1075 31.9793 32.0954 31.9501C32.0833 31.9208 32.0655 31.8943 32.0431 31.8719C32.0207 31.8496 31.9942 31.8319 31.9649 31.8198C31.9357 31.8077 31.9044 31.8015 31.8728 31.8016H31.5305V32.6124H31.6826V32.2831H31.7918L31.9455 32.6124H32.1138L31.9533 32.269C32.0002 32.2524 32.0408 32.2217 32.0695 32.1811C32.0982 32.1405 32.1137 32.092 32.1138 32.0422ZM31.8728 32.1309H31.6826V31.9534H31.8728C31.9217 31.9534 31.9616 31.9932 31.9616 32.0422C31.9616 32.0657 31.9522 32.0883 31.9355 32.1049C31.9189 32.1215 31.8963 32.1309 31.8728 32.1309Z" fill="white"/>
<path d="M32.3855 9.87861L34.5801 5.98282H27.2397L26.1873 7.00617L25.1349 5.98282H14.8653L13.8129 7.00617L12.7605 5.98282H5.41992L7.61504 9.87861V28.801C7.61504 29.1819 7.61504 32.1531 11.2056 32.1531H16.8852C18.9243 32.1531 19.9181 34.0172 19.9181 34.0172H20.0819C20.0819 34.0172 21.076 32.1531 23.115 32.1531H28.7946C32.3851 32.1531 32.3855 29.1819 32.3855 28.801V9.87861Z" fill="#0033A0"/>
<path d="M18.0503 15.3932L30.736 24.5806V15.3932H18.0503Z" fill="#C8102E"/>
<path d="M9.26416 14.0995H30.7354V14.6173H9.26416V14.0995ZM9.26416 28.8011C9.26416 30.3101 10.3012 30.5038 11.2051 30.5038H16.8848C18.1773 30.5038 19.2232 31.1821 19.9994 31.8051C20.7758 31.1821 21.8218 30.5038 23.1146 30.5038H25.1716L9.26416 18.9831V28.8011V28.8011ZM9.26416 17.9164L26.6443 30.5038H27.3833L9.26416 17.3809V17.9164ZM15.8376 15.3932L30.7354 26.1832V25.648L16.5769 15.3932H15.8376ZM21.9814 25.6195L23.2381 26.5298L23.6042 26.0248L22.8613 25.4868L23.4536 24.6685L24.1965 25.2067L24.5622 24.7011L23.8198 24.1636L24.4125 23.3456L25.1548 23.8833L25.5208 23.3778L24.2638 22.4676L21.9814 25.6195ZM15.6889 16.2569L14.5263 15.4154L12.2436 18.567L12.7576 18.9399L13.7796 17.5284L14.0668 17.7363L13.5842 19.5384L14.0988 19.9107L14.5868 18.0868C14.9089 18.2196 15.2915 18.1201 15.5051 17.826L15.8613 17.3338C16.1107 16.9892 16.0337 16.507 15.6889 16.2569H15.6889ZM15.2772 17.0578L15.0601 17.3569C15.0396 17.3852 15.0137 17.4093 14.9839 17.4276C14.9541 17.4459 14.921 17.4582 14.8865 17.4638C14.8519 17.4693 14.8167 17.468 14.7826 17.4599C14.7486 17.4518 14.7165 17.4371 14.6882 17.4165L14.1458 17.0232L14.6749 16.293L15.2176 16.6859C15.2747 16.7274 15.3131 16.7898 15.3243 16.8596C15.3354 16.9293 15.3185 17.0006 15.2772 17.0578ZM25.8578 28.4268L26.3458 26.6028C26.6676 26.7361 27.0503 26.6369 27.2638 26.3421L27.6204 25.8501C27.87 25.5056 27.7928 25.0233 27.4484 24.7735L26.2852 23.9315L24.0021 27.0832L24.5169 27.4561L25.5389 26.0449L25.8255 26.2527L25.3435 28.0547L25.8578 28.4268ZM26.4338 24.8093L26.9765 25.2023C27.0337 25.2438 27.0721 25.3062 27.0833 25.3759C27.0945 25.4457 27.0776 25.517 27.0362 25.5743L26.8194 25.8732C26.7334 25.9923 26.5668 26.0188 26.4475 25.9328L25.9045 25.5395L26.4338 24.8093ZM19.3152 18.8837L17.0322 22.0355L17.5468 22.4081L18.9172 20.5158L18.3731 23.0065L18.8874 23.379L21.17 20.2268L20.6559 19.8546L19.2855 21.7464L19.8295 19.2557L19.3152 18.8837ZM14.4452 20.1618L14.9597 20.5345L15.6089 20.0128L16.4644 20.6325L16.1716 21.4119L16.6858 21.7845L18.1052 18.0076L17.5913 17.6348L14.4453 20.1617L14.4452 20.1618ZM16.6583 20.1168L16.038 19.6679L17.1683 18.7601L16.6583 20.1168ZM22.9327 21.5034L22.5018 21.1913C22.1566 20.9416 21.6749 21.0185 21.4251 21.363L20.0467 23.2667C19.7969 23.6112 19.8739 24.0932 20.2191 24.3431L20.6498 24.6551C20.7557 24.7317 20.8793 24.7802 21.009 24.796L21 24.9088L21.2739 25.1077L22.4946 23.4222L21.4932 22.6966L21.1819 23.1268L21.669 23.4795L21.2816 24.014C21.2612 24.0423 21.2353 24.0663 21.2056 24.0847C21.1758 24.103 21.1428 24.1153 21.1083 24.1209C21.0737 24.1264 21.0385 24.1251 21.0045 24.117C20.9705 24.1089 20.9384 24.0942 20.9101 24.0737L20.6902 23.9143C20.5714 23.8282 20.5444 23.6614 20.6308 23.5427L21.8691 21.8324C21.9106 21.7752 21.9731 21.7368 22.0429 21.7257C22.1126 21.7145 22.1839 21.7315 22.2412 21.773L22.4609 21.9319C22.518 21.9734 22.5564 22.0357 22.5677 22.1054C22.5789 22.1751 22.5621 22.2464 22.5208 22.3037L22.2186 22.7209L22.7328 23.0935L23.1047 22.5798C23.3543 22.2351 23.2775 21.7533 22.9327 21.5034ZM29.3644 26.1615C28.8938 25.8203 28.2358 25.9255 27.8953 26.3962C27.2771 27.2496 28.4698 28.2857 28.1454 28.7339C27.9934 28.9438 27.6998 28.991 27.4895 28.8385C27.2797 28.687 27.2327 28.3934 27.3847 28.1831L27.5332 27.9781L27.019 27.6057L26.8768 27.8015C26.5193 28.2956 26.6298 28.9865 27.1239 29.344C27.6178 29.7014 28.3082 29.5913 28.6659 29.097C29.2781 28.2522 28.0857 27.2152 28.4158 26.7596C28.448 26.7152 28.4886 26.6776 28.5352 26.649C28.5819 26.6203 28.6338 26.6011 28.6879 26.5925C28.742 26.5839 28.7972 26.586 28.8505 26.5987C28.9038 26.6114 28.954 26.6346 28.9984 26.6667C29.185 26.8016 29.2269 27.0623 29.0917 27.2494L28.9682 27.4193L29.4824 27.7919L29.5989 27.6304C29.9399 27.1601 29.8351 26.502 29.3644 26.1615ZM14.144 12.8284H13.2269V11.8181H14.144V11.1944H13.2269V10.1845H14.144V9.55994H12.5919V13.4521H14.144V12.8284ZM25.7088 11.7098H26.0627L26.7295 13.4521H27.3645L26.6895 11.6885C27.0287 11.6071 27.2802 11.3029 27.2802 10.9388V10.3313C27.2802 9.90558 26.9354 9.55998 26.5097 9.55998H25.0737V13.4521H25.7087L25.7088 11.7098ZM25.7088 10.1845H26.3788C26.5263 10.1845 26.6456 10.3035 26.6456 10.4503V10.8196C26.6456 10.8903 26.6175 10.9582 26.5674 11.0082C26.5174 11.0582 26.4496 11.0863 26.3788 11.0863H25.7088V10.1845ZM10.1014 11.1155L11.1219 13.4521H11.7572V9.55998H11.1219V11.8971L10.1014 9.55998H9.46675V13.4521H10.1015L10.1014 11.1155ZM23.2243 13.4521H23.7557C24.182 13.4521 24.5272 13.1067 24.5272 12.6811V10.3313C24.5272 9.90558 24.1819 9.55994 23.7557 9.55994H23.2242C22.7983 9.55994 22.4528 9.90563 22.4528 10.3313V12.6811C22.4528 13.1067 22.7983 13.4521 23.2242 13.4521H23.2243ZM23.0881 10.4503C23.0881 10.3035 23.2072 10.1845 23.3542 10.1845H23.6257C23.6606 10.1844 23.6952 10.1913 23.7275 10.2046C23.7598 10.218 23.7892 10.2375 23.8139 10.2622C23.8387 10.2869 23.8583 10.3162 23.8717 10.3485C23.8851 10.3808 23.892 10.4154 23.892 10.4503V12.5622C23.892 12.6328 23.8639 12.7005 23.814 12.7504C23.764 12.8003 23.6963 12.8284 23.6257 12.8284H23.3542C23.2836 12.8283 23.216 12.8003 23.166 12.7504C23.1161 12.7005 23.0881 12.6328 23.0881 12.5622V10.4503ZM28.6985 11.8408L28.9831 11.3836L29.8978 13.4521H30.5329L29.355 10.7877L30.121 9.55994H29.4857L28.6985 10.8226V9.55998H28.0634V13.4521H28.6985V11.8408ZM20.6322 13.4521H21.2674V11.8408L22.1056 9.55994H21.4705L20.9494 10.9771L20.4285 9.55994H19.7935L20.6323 11.8408L20.6322 13.4521ZM16.1414 13.4521L16.4742 11.4121L16.807 13.4521H17.5667L18.202 9.55998H17.5667L17.1873 11.8883L16.807 9.55994H16.1414L15.7614 11.8883L15.3821 9.55994H14.7467L15.3821 13.4521H16.1414Z" fill="white"/>
<path d="M27.3141 6.16577L26.1872 7.26181L25.0604 6.16577H14.9395L13.8128 7.26181L12.686 6.16577H5.7334L7.79829 9.83028V28.8011C7.79829 29.754 8.13006 31.97 11.2055 31.97H16.8851C18.7089 31.97 19.7219 33.3717 19.9997 33.8152C20.2782 33.3717 21.2911 31.97 23.1149 31.97H28.7945C31.87 31.97 32.2022 29.754 32.2022 28.8011V9.83028L34.2667 6.16577H27.3141ZM31.365 9.61116V28.8011C31.365 29.8649 30.9191 31.1327 28.7945 31.1327H23.1149C21.6715 31.1327 20.6438 31.944 19.9997 32.5891C19.3567 31.944 18.3284 31.1327 16.8851 31.1327H11.2055C9.08119 31.1327 8.63506 29.8649 8.63506 28.8011V9.61121L7.16548 7.00287H12.3462L13.8128 8.42903L15.2796 7.00292H24.7206L26.1872 8.42903L27.6537 7.00292H32.8345L31.365 9.61121L31.365 9.61116Z" fill="white"/>
</svg>
