<svg width="24" height="24" viewBox="0 0 24 24" fill="none" xmlns="http://www.w3.org/2000/svg">
<path d="M19.0831 18.1131C18.816 18.1131 18.5991 18.3296 18.5991 18.5969C18.5991 18.8638 18.816 19.0806 19.0831 19.0806C19.3501 19.0806 19.5666 18.8638 19.5666 18.5969C19.5666 18.3296 19.3501 18.1131 19.0831 18.1131ZM19.0831 18.9769C19.0331 18.9769 18.9837 18.9671 18.9376 18.948C18.8915 18.929 18.8496 18.901 18.8143 18.8657C18.779 18.8304 18.751 18.7885 18.7319 18.7423C18.7128 18.6962 18.703 18.6468 18.7031 18.5969C18.7031 18.3869 18.8729 18.2172 19.0831 18.2172C19.293 18.2172 19.463 18.3869 19.463 18.5969C19.463 18.8069 19.293 18.9769 19.0831 18.9769ZM19.2818 18.4847C19.2818 18.4632 19.2776 18.4419 19.2693 18.422C19.261 18.4021 19.2489 18.384 19.2337 18.3688C19.2185 18.3536 19.2004 18.3415 19.1805 18.3333C19.1605 18.325 19.1392 18.3208 19.1177 18.3208H18.8846V18.8731H18.9882V18.6488H19.0626L19.1672 18.8731H19.2818L19.1725 18.6392C19.2045 18.6279 19.2321 18.6069 19.2517 18.5793C19.2712 18.5516 19.2817 18.5186 19.2818 18.4847ZM19.1177 18.5451H18.9882V18.4243H19.1177C19.151 18.4243 19.1782 18.4514 19.1782 18.4848C19.1781 18.5008 19.1717 18.5161 19.1604 18.5274C19.149 18.5387 19.1337 18.5451 19.1177 18.5451Z" fill="white"/>
<path d="M22.092 4.53703C22.092 1.6801 18.8757 1.6801 18.4427 1.6801L17.6634 1.68C17.6634 1.68 18.7637 2.78618 18.7637 3.18569C18.7637 3.22907 18.7464 3.27066 18.7157 3.30131C18.685 3.33195 18.6433 3.34914 18.6 3.3491H15.7975C15.7542 3.34912 15.7125 3.33193 15.6818 3.30129C15.6511 3.27065 15.6338 3.22907 15.6338 3.18569C15.6338 2.78621 16.7341 1.68 16.7341 1.68C15.6661 1.68 14.1348 1.91871 13.0709 2.67482C12.7704 2.64464 12.4686 2.62952 12.1667 2.6295C7.22445 2.6295 3.21777 6.63628 3.21777 11.5788C3.21777 12.554 3.37425 13.4925 3.66282 14.3711C3.00115 15.1798 1.90771 16.8355 1.90771 18.9461C1.90771 20.7702 2.80907 22.32 2.80907 22.32C2.80907 22.32 4.41402 19.9701 8.01087 19.9701C8.28628 19.9701 8.3573 19.7299 8.36852 19.6834C9.52158 20.2247 10.8087 20.5281 12.1667 20.5281C17.1091 20.5281 21.1157 16.5211 21.1157 11.5788C21.1157 9.99124 20.702 8.50065 19.9769 7.20823C20.9677 6.90379 22.092 6.11554 22.092 4.53703Z" fill="white"/>
<path d="M21.7232 4.53703C21.7232 2.76289 20.095 1.98712 18.4564 2.04846C18.4564 2.04846 19.1329 2.70081 19.1329 3.18533C19.1329 3.44269 18.9409 3.71756 18.4028 3.71756H15.9782C15.433 3.71756 15.1077 3.53018 15.1077 3.21607C15.1077 2.70129 15.9172 2.10019 15.9172 2.10019C15.9172 2.10019 14.2761 2.199 13.1775 3.05959C12.8457 3.02073 12.5088 2.99832 12.1667 2.99832C7.42801 2.99832 3.58643 6.83987 3.58643 11.5788C3.58643 13.2117 4.04276 14.7381 4.83466 16.0373C4.70631 16.1054 4.57676 16.1507 4.39603 16.1507C3.79521 16.1507 3.79167 14.8188 3.79167 14.8188C3.79167 14.8188 2.27637 16.5856 2.27637 18.9461C2.27637 20.3995 2.89041 21.6497 2.89041 21.6497C2.89041 21.6497 4.59076 19.6012 8.01087 19.6012C8.01087 19.6012 6.38882 18.9496 6.38882 18.1628C6.38902 18.1625 6.39601 18.0791 6.4509 17.9764C7.96836 19.333 9.97077 20.159 12.1667 20.159C16.9058 20.159 20.7473 16.3176 20.7473 11.5788C20.7473 9.87885 20.2508 8.2956 19.3981 6.96252C20.2256 6.83045 21.7232 6.26485 21.7232 4.53703ZM4.48885 11.5788C4.48885 7.33833 7.92647 3.9008 12.1666 3.9008C12.2663 3.9008 12.3646 3.90461 12.4631 3.90825C12.3047 4.22172 12.2099 4.58811 12.2099 5.01846C12.2099 6.99087 14.3962 7.01005 14.3962 7.01005L13.3295 9.82822L11.4761 7.48094C10.818 6.64776 10.1363 6.47261 9.68019 6.47261C8.74923 6.47261 8.0277 7.1319 7.53592 8.43186L5.15868 14.7141C4.72966 13.7567 4.48891 12.696 4.48891 11.5788L4.48885 11.5788ZM5.44757 15.294C5.94419 15.1328 6.70448 14.9443 7.54486 14.9443C8.62452 14.9443 9.59966 15.2095 9.59966 15.2095L10.5439 12.7154L11.4389 14.3399L10.6274 15.1888C10.134 15.7051 8.90358 15.3824 7.54486 15.3824C6.6017 15.3824 6.02836 15.4889 5.64098 15.6231C5.57375 15.5151 5.50926 15.4053 5.44757 15.294ZM19.8446 11.5788C19.8446 15.8191 16.4073 19.2566 12.1666 19.2566C10.3661 19.2566 8.71176 18.6353 7.40234 17.597C8.66703 17.652 9.35843 18.4694 11.1397 18.4694C13.7559 18.4694 15.2884 16.8838 15.8503 15.3991L18.7748 7.67044C19.4537 8.81544 19.8446 10.1511 19.8446 11.5788Z" fill="#010101"/>
<path d="M19.1856 2.42756C19.1856 2.42756 19.5015 2.72448 19.5015 3.18533C19.5015 3.64615 19.1426 4.08646 18.4029 4.08646H15.9783C15.0361 4.08646 14.7392 3.60513 14.7392 3.21607C14.7392 2.82704 14.9598 2.6187 14.9598 2.6187C14.9598 2.6187 12.5785 3.08278 12.5785 5.01846C12.5785 6.64653 14.399 6.6416 14.399 6.6416H14.9299L13.4439 10.5679L11.1869 7.7093C11.0468 7.53192 10.498 6.84126 9.68033 6.84126C8.54354 6.84126 8.04935 8.11665 7.88074 8.56208L5.48247 14.8994C5.48247 14.8994 6.36993 14.5756 7.54499 14.5756C8.5361 14.5756 9.37011 14.776 9.37011 14.776L10.4816 11.8387L11.8922 14.3991L10.8937 15.4436C10.2369 16.1307 8.8655 15.7507 7.54499 15.7507C5.0796 15.7507 5.31767 16.5189 4.3961 16.5189C3.74329 16.5189 3.57405 15.7264 3.57405 15.7264C3.57405 15.7264 2.64502 17.2664 2.64502 18.9461C2.64502 20.0368 3.02792 20.9961 3.02792 20.9961C3.02792 20.9961 4.94915 19.3607 6.88454 19.3607C6.88454 19.3607 6.02047 18.9461 6.02047 18.1628C6.02047 17.94 6.31613 17.2258 7.26854 17.2258C8.74349 17.2258 9.35782 18.1011 11.1398 18.1011C13.6334 18.1011 15.0185 16.5562 15.5059 15.2688L18.7702 6.64163C18.7702 6.64163 21.3549 6.64653 21.3549 4.53703C21.3549 2.60164 19.1856 2.42756 19.1856 2.42756Z" fill="#C8102E"/>
</svg>
