<svg width="40" height="40" viewBox="0 0 40 40" fill="none" xmlns="http://www.w3.org/2000/svg">
<path d="M29.7399 28.4062C29.3727 28.4062 29.0745 28.704 29.0745 29.0715C29.0745 29.4386 29.3727 29.7367 29.7399 29.7367C30.1072 29.7367 30.4049 29.4386 30.4049 29.0715C30.4049 28.704 30.1072 28.4062 29.7399 28.4062ZM29.7399 29.594C29.6713 29.5941 29.6033 29.5806 29.5399 29.5544C29.4765 29.5281 29.4188 29.4897 29.3703 29.4411C29.3218 29.3926 29.2833 29.335 29.257 29.2715C29.2308 29.2081 29.2173 29.1401 29.2174 29.0715C29.2174 28.7828 29.4509 28.5493 29.7399 28.5493C30.0286 28.5493 30.2624 28.7828 30.2624 29.0715C30.2624 29.3603 30.0286 29.594 29.7399 29.594ZM30.0133 28.9173C30.0132 28.8877 30.0074 28.8583 29.996 28.831C29.9847 28.8036 29.968 28.7788 29.9471 28.7578C29.9261 28.7369 29.9012 28.7203 29.8739 28.709C29.8465 28.6977 29.8171 28.6919 29.7875 28.6919H29.467V29.4513H29.6095V29.1429H29.7117L29.8557 29.4513H30.0133L29.863 29.1297C29.9069 29.1141 29.9449 29.0853 29.9718 29.0473C29.9987 29.0093 30.0132 28.9639 30.0133 28.9173ZM29.7875 29.0003H29.6095V28.8341H29.7875C29.8333 28.8341 29.8708 28.8714 29.8708 28.9173C29.8707 28.9394 29.8619 28.9604 29.8463 28.976C29.8307 28.9916 29.8096 29.0003 29.7875 29.0003Z" fill="white"/>
<path d="M33.8779 9.7375C33.8779 5.80888 29.4551 5.80888 28.8597 5.80888L27.788 5.80875C27.788 5.80875 29.3011 7.32987 29.3011 7.87925C29.301 7.93891 29.2773 7.9961 29.2351 8.03824C29.1928 8.08038 29.1356 8.10402 29.0759 8.10396H25.2222C25.1626 8.10399 25.1054 8.08035 25.0631 8.03821C25.0209 7.99608 24.9971 7.9389 24.997 7.87925C24.997 7.32991 26.5101 5.80875 26.5101 5.80875C25.0415 5.80875 22.9357 6.13701 21.4728 7.17674C21.0596 7.13525 20.6446 7.11445 20.2294 7.11443C13.4332 7.11443 7.92356 12.6242 7.92356 19.4208C7.92356 20.7618 8.13873 22.0523 8.53556 23.2606C7.62568 24.3726 6.12207 26.6494 6.12207 29.5518C6.12207 32.0601 7.36154 34.1912 7.36154 34.1912C7.36154 34.1912 9.56855 30.9598 14.5146 30.9598C14.8934 30.9598 14.991 30.6295 15.0065 30.5656C16.5921 31.31 18.362 31.7271 20.2294 31.7271C27.0258 31.7271 32.5354 26.217 32.5354 19.4208C32.5354 17.2377 31.9665 15.188 30.9694 13.4107C32.3319 12.9921 33.8779 11.9081 33.8779 9.7375Z" fill="white"/>
<path d="M33.3709 9.73747C33.3709 7.29782 31.1319 6.23104 28.8787 6.31539C28.8787 6.31539 29.809 7.21245 29.809 7.87873C29.809 8.23262 29.5449 8.6106 28.8049 8.6106H25.4708C24.7211 8.6106 24.2738 8.35294 24.2738 7.92099C24.2738 7.21311 25.387 6.38652 25.387 6.38652C25.387 6.38652 23.1302 6.5224 21.6195 7.70582C21.1632 7.65238 20.7 7.62156 20.2295 7.62156C13.7133 7.62156 8.43064 12.9042 8.43064 19.4207C8.43064 21.6662 9.05816 23.7652 10.1471 25.5518C9.97061 25.6454 9.79247 25.7076 9.54394 25.7076C8.71775 25.7076 8.71287 23.8762 8.71287 23.8762C8.71287 23.8762 6.62915 26.3057 6.62915 29.5517C6.62915 31.5503 7.47353 33.2695 7.47353 33.2695C7.47353 33.2695 9.81171 30.4525 14.5148 30.4525C14.5148 30.4525 12.2843 29.5564 12.2843 28.4745C12.2845 28.4741 12.2942 28.3594 12.3696 28.2182C14.4563 30.0838 17.2099 31.2195 20.2295 31.2195C26.7464 31.2195 32.0289 25.9372 32.0289 19.4207C32.0289 17.0831 31.3461 14.906 30.1736 13.0728C31.3115 12.8912 33.3709 12.1134 33.3709 9.73747ZM9.67158 19.4208C9.67158 13.5896 14.3987 8.86258 20.2295 8.86258C20.3665 8.86258 20.5017 8.86781 20.6372 8.87283C20.4193 9.30388 20.2889 9.80772 20.2889 10.3995C20.2889 13.1118 23.2954 13.1382 23.2954 13.1382L21.8286 17.0135L19.2799 13.7857C18.3749 12.64 17.4375 12.3991 16.8103 12.3991C15.5301 12.3991 14.5379 13.3057 13.8617 15.0933L10.5927 23.7321C10.0027 22.4157 9.67166 20.957 9.67166 19.4207L9.67158 19.4208ZM10.9899 24.5296C11.6729 24.308 12.7183 24.0487 13.874 24.0487C15.3586 24.0487 16.6996 24.4133 16.6996 24.4133L17.998 20.9837L19.2288 23.2176L18.1128 24.3849C17.4344 25.095 15.7424 24.6511 13.874 24.6511C12.577 24.6511 11.7886 24.7976 11.2559 24.9822C11.1635 24.8336 11.0748 24.6827 10.9899 24.5296ZM30.7876 19.4208C30.7876 25.2517 26.061 29.9786 20.2295 29.9786C17.7535 29.9786 15.4786 29.1244 13.678 27.6965C15.4171 27.7721 16.3678 28.8962 18.8173 28.8962C22.4148 28.8962 24.5223 26.7157 25.2949 24.6741L29.3165 14.0463C30.2501 15.6208 30.7876 17.4575 30.7876 19.4208Z" fill="#010101"/>
<path d="M29.8813 6.83673C29.8813 6.83673 30.3157 7.24504 30.3157 7.87877C30.3157 8.51245 29.8222 9.11793 28.805 9.11793H25.4708C24.1752 9.11793 23.767 8.45604 23.767 7.92103C23.767 7.38607 24.0703 7.09958 24.0703 7.09958C24.0703 7.09958 20.7957 7.73774 20.7957 10.3995C20.7957 12.6383 23.2991 12.6315 23.2991 12.6315H24.0291L21.9858 18.0307L18.8822 14.0998C18.6894 13.8559 17.9347 12.9061 16.8104 12.9061C15.2472 12.9061 14.5676 14.6599 14.3357 15.2724L11.0378 23.9871C11.0378 23.9871 12.2582 23.5418 13.874 23.5418C15.2369 23.5418 16.3838 23.8173 16.3838 23.8173L17.9123 19.7783L19.8519 23.299L18.4789 24.7354C17.5757 25.6803 15.6899 25.1577 13.874 25.1577C10.4838 25.1577 10.8112 26.2141 9.54393 26.2141C8.64625 26.2141 8.41351 25.1242 8.41351 25.1242C8.41351 25.1242 7.13599 27.2419 7.13599 29.5518C7.13599 31.0515 7.66253 32.3707 7.66253 32.3707C7.66253 32.3707 10.3044 30.1219 12.9658 30.1219C12.9658 30.1219 11.7776 29.5517 11.7776 28.4746C11.7776 28.1683 12.1842 27.186 13.4939 27.186C15.5221 27.186 16.3669 28.3897 18.8173 28.3897C22.2463 28.3897 24.151 26.2653 24.8213 24.495L29.3101 12.6316C29.3101 12.6316 32.8644 12.6383 32.8644 9.73751C32.8644 7.07612 29.8813 6.83673 29.8813 6.83673Z" fill="#C8102E"/>
</svg>
