<svg width="40" height="40" viewBox="0 0 40 40" fill="none" xmlns="http://www.w3.org/2000/svg">
<path d="M29.7402 28.4062C29.3729 28.4062 29.0747 28.704 29.0747 29.0715C29.0747 29.4386 29.3729 29.7367 29.7402 29.7367C30.1074 29.7367 30.4051 29.4386 30.4051 29.0715C30.4051 28.704 30.1074 28.4062 29.7402 28.4062ZM29.7402 29.594C29.6715 29.5941 29.6036 29.5806 29.5401 29.5544C29.4767 29.5281 29.4191 29.4897 29.3705 29.4411C29.322 29.3926 29.2835 29.335 29.2573 29.2715C29.231 29.2081 29.2176 29.1401 29.2176 29.0715C29.2176 28.7828 29.4511 28.5493 29.7402 28.5493C30.0289 28.5493 30.2626 28.7828 30.2626 29.0715C30.2626 29.3603 30.0289 29.594 29.7402 29.594ZM30.0135 28.9173C30.0135 28.8877 30.0076 28.8583 29.9963 28.831C29.9849 28.8036 29.9683 28.7788 29.9473 28.7578C29.9264 28.7369 29.9015 28.7203 29.8741 28.709C29.8467 28.6977 29.8174 28.6919 29.7878 28.6919H29.4672V29.4513H29.6097V29.1429H29.712L29.8559 29.4513H30.0135L29.8632 29.1297C29.9071 29.1141 29.9451 29.0853 29.972 29.0473C29.9989 29.0093 30.0134 28.9639 30.0135 28.9173ZM29.7878 29.0003H29.6097V28.8341H29.7878C29.8336 28.8341 29.871 28.8714 29.871 28.9173C29.8709 28.9394 29.8621 28.9604 29.8465 28.976C29.8309 28.9916 29.8098 29.0003 29.7878 29.0003Z" fill="white"/>
<path d="M33.8779 9.7375C33.8779 5.80888 29.4551 5.80888 28.8597 5.80888L27.788 5.80875C27.788 5.80875 29.3011 7.32987 29.3011 7.87925C29.3011 7.93891 29.2773 7.9961 29.2351 8.03824C29.1928 8.08038 29.1356 8.10402 29.0759 8.10396H25.2222C25.1626 8.10399 25.1054 8.08035 25.0631 8.03821C25.0209 7.99608 24.9971 7.9389 24.997 7.87925C24.997 7.32991 26.5101 5.80875 26.5101 5.80875C25.0415 5.80875 22.9357 6.13701 21.4728 7.17674C21.0596 7.13525 20.6446 7.11445 20.2294 7.11443C13.4332 7.11443 7.92356 12.6242 7.92356 19.4208C7.92356 20.7618 8.13874 22.0523 8.53556 23.2606C7.62568 24.3726 6.12207 26.6494 6.12207 29.5518C6.12207 32.0601 7.36154 34.1912 7.36154 34.1912C7.36154 34.1912 9.56855 30.9598 14.5146 30.9598C14.8934 30.9598 14.991 30.6295 15.0065 30.5656C16.5921 31.31 18.362 31.7271 20.2294 31.7271C27.0258 31.7271 32.5354 26.217 32.5354 19.4208C32.5354 17.2377 31.9665 15.188 30.9694 13.4107C32.3319 12.9921 33.8779 11.9081 33.8779 9.7375Z" fill="white"/>
<path d="M33.3707 9.73747C33.3707 7.29782 31.1317 6.23104 28.8784 6.31539C28.8784 6.31539 29.8087 7.21245 29.8087 7.87873C29.8087 8.23262 29.5447 8.6106 28.8047 8.6106H25.4705C24.7209 8.6106 24.2735 8.35294 24.2735 7.92099C24.2735 7.21311 25.3867 6.38652 25.3867 6.38652C25.3867 6.38652 23.13 6.5224 21.6193 7.70582C21.163 7.65238 20.6998 7.62156 20.2293 7.62156C13.713 7.62156 8.4304 12.9042 8.4304 19.4207C8.4304 21.6662 9.05792 23.7652 10.1469 25.5518C9.97037 25.6454 9.79222 25.7076 9.5437 25.7076C8.7175 25.7076 8.71262 23.8762 8.71262 23.8762C8.71262 23.8762 6.62891 26.3057 6.62891 29.5517C6.62891 31.5503 7.47329 33.2695 7.47329 33.2695C7.47329 33.2695 9.81147 30.4525 14.5145 30.4525C14.5145 30.4525 12.284 29.5564 12.284 28.4745C12.2843 28.4741 12.2939 28.3594 12.3694 28.2182C14.4561 30.0838 17.2096 31.2195 20.2293 31.2195C26.7462 31.2195 32.0287 25.9372 32.0287 19.4207C32.0287 17.0831 31.3459 14.906 30.1733 13.0728C31.3113 12.8912 33.3707 12.1134 33.3707 9.73747ZM9.67133 19.4208C9.67133 13.5896 14.3985 8.86258 20.2292 8.86258C20.3663 8.86258 20.5015 8.86781 20.637 8.87283C20.4191 9.30388 20.2887 9.80772 20.2887 10.3995C20.2887 13.1118 23.2951 13.1382 23.2951 13.1382L21.8283 17.0135L19.2797 13.7857C18.3747 12.64 17.4372 12.3991 16.8101 12.3991C15.5299 12.3991 14.5377 13.3057 13.8614 15.0933L10.5924 23.7321C10.0025 22.4157 9.67142 20.957 9.67142 19.4207L9.67133 19.4208ZM10.9897 24.5296C11.6726 24.308 12.7181 24.0487 13.8737 24.0487C15.3584 24.0487 16.6993 24.4133 16.6993 24.4133L17.9977 20.9837L19.2286 23.2176L18.1126 24.3849C17.4342 25.095 15.7421 24.6511 13.8737 24.6511C12.5768 24.6511 11.7884 24.7976 11.2557 24.9822C11.1632 24.8336 11.0745 24.6827 10.9897 24.5296ZM30.7874 19.4208C30.7874 25.2517 26.0607 29.9786 20.2292 29.9786C17.7533 29.9786 15.4783 29.1244 13.6777 27.6965C15.4168 27.7722 16.3676 28.8962 18.817 28.8962C22.4146 28.8962 24.522 26.7157 25.2947 24.6741L29.3162 14.0463C30.2498 15.6208 30.7874 17.4575 30.7874 19.4208Z" fill="#010101"/>
<path d="M29.8815 6.83673C29.8815 6.83673 30.3159 7.24504 30.3159 7.87877C30.3159 8.51245 29.8224 9.11793 28.8052 9.11793H25.4711C24.1755 9.11793 23.7672 8.45604 23.7672 7.92103C23.7672 7.38607 24.0705 7.09958 24.0705 7.09958C24.0705 7.09958 20.7959 7.73774 20.7959 10.3995C20.7959 12.6383 23.2993 12.6315 23.2993 12.6315H24.0294L21.986 18.0307L18.8824 14.0998C18.6896 13.8559 17.935 12.9061 16.8106 12.9061C15.2474 12.9061 14.5678 14.6599 14.336 15.2724L11.0381 23.9871C11.0381 23.9871 12.2584 23.5418 13.8743 23.5418C15.2372 23.5418 16.384 23.8173 16.384 23.8173L17.9125 19.7783L19.8522 23.299L18.4792 24.7354C17.576 25.6803 15.6901 25.1577 13.8743 25.1577C10.4841 25.1577 10.8115 26.2141 9.54417 26.2141C8.64649 26.2141 8.41375 25.1242 8.41375 25.1242C8.41375 25.1242 7.13623 27.2419 7.13623 29.5518C7.13623 31.0515 7.66277 32.3707 7.66277 32.3707C7.66277 32.3707 10.3047 30.1219 12.9661 30.1219C12.9661 30.1219 11.7779 29.5517 11.7779 28.4746C11.7779 28.1683 12.1845 27.186 13.4941 27.186C15.5224 27.186 16.3671 28.3897 18.8176 28.3897C22.2466 28.3897 24.1513 26.2653 24.8215 24.495L29.3104 12.6316C29.3104 12.6316 32.8646 12.6383 32.8646 9.73751C32.8646 7.07612 29.8815 6.83673 29.8815 6.83673Z" fill="#C8102E"/>
</svg>
