<svg width="40" height="40" viewBox="0 0 40 40" fill="none" xmlns="http://www.w3.org/2000/svg">
<path d="M31.409 31.0956C31.0305 31.0956 30.7231 31.4024 30.7231 31.7811C30.7231 32.1595 31.0305 32.4668 31.409 32.4668C31.7875 32.4668 32.0943 32.1595 32.0943 31.7812C32.0943 31.4024 31.7875 31.0956 31.409 31.0956ZM31.409 32.3197C31.3382 32.3197 31.2682 32.3059 31.2028 32.2788C31.1375 32.2518 31.0781 32.2121 31.0281 32.1621C30.978 32.1121 30.9384 32.0527 30.9113 31.9873C30.8843 31.922 30.8704 31.8519 30.8705 31.7812C30.8705 31.4837 31.1111 31.2431 31.409 31.2431C31.7065 31.2431 31.9474 31.4837 31.9474 31.7812C31.9474 32.0788 31.7065 32.3197 31.409 32.3197ZM31.6907 31.6223C31.6906 31.5918 31.6846 31.5615 31.6729 31.5333C31.6612 31.5051 31.6441 31.4795 31.6225 31.4579C31.6009 31.4364 31.5752 31.4193 31.547 31.4076C31.5188 31.396 31.4886 31.39 31.458 31.39H31.1277V32.1726H31.2745V31.8547H31.3799L31.5283 32.1726H31.6907L31.5358 31.8412C31.581 31.8251 31.6202 31.7955 31.6479 31.7563C31.6757 31.7171 31.6906 31.6703 31.6907 31.6223ZM31.458 31.7078H31.2745V31.5366H31.458C31.5052 31.5366 31.5438 31.5749 31.5438 31.6223C31.5437 31.645 31.5347 31.6667 31.5186 31.6828C31.5025 31.6988 31.4807 31.7078 31.458 31.7078Z" fill="#003087"/>
<path d="M19.9999 5.3746C11.6269 5.3746 4.83984 11.9227 4.83984 20.0003C4.83984 28.0775 11.6269 34.6254 20 34.6254C28.3725 34.6254 35.1599 28.0775 35.1599 20.0003C35.1599 11.9227 28.3725 5.3746 19.9999 5.3746H19.9999Z" fill="#003087"/>
<path d="M19.9999 6.45218C12.223 6.45218 5.91895 12.5179 5.91895 20.0003C5.91895 27.4822 12.223 33.548 20 33.548C27.7764 33.548 34.0808 27.4822 34.0808 20.0003C34.0808 12.5179 27.7764 6.45218 19.9999 6.45218Z" fill="#FC4C02"/>
<path d="M9.71859 23.2189V22.3345L8.84473 21.5671V23.2741C9.11132 23.2029 9.43975 23.2939 9.71859 23.2189Z" fill="#003087"/>
<path d="M33.1851 19.1956C31.9451 19.6306 30.4011 20.138 29.2044 20.549C28.8015 20.4834 28.5258 20.7091 28.2399 20.8983C27.8135 21.0825 27.2763 21.0086 26.8557 21.1876C26.4635 21.5118 25.8828 21.6487 25.4015 21.4433C25.2721 21.2959 25.1019 21.1174 24.8984 21.1642C24.5784 21.1959 24.5116 21.7758 24.1156 21.4735C23.8713 21.6023 23.6576 21.7812 23.3875 21.8464L22.9808 21.947L22.8278 22.2732L22.6883 22.5695L22.595 22.7686L22.4558 23.065L22.3624 23.2643L22.2226 23.5607L22.1289 23.7599L21.9899 24.0564L20.8701 26.4406C20.8355 26.5143 20.7847 26.5793 20.7215 26.6306C20.6583 26.6819 20.5843 26.7184 20.5051 26.7372L18.6998 27.1674C18.7083 27.176 18.7175 27.1838 18.7229 27.1947L19.9175 29.675V27.4104C19.9174 27.3945 19.9208 27.3787 19.9273 27.3642C19.9338 27.3496 19.9433 27.3366 19.9552 27.326C19.9671 27.3154 19.9812 27.3074 19.9964 27.3027C20.0116 27.2979 20.0277 27.2964 20.0435 27.2983L20.6918 27.3748C20.7192 27.3779 20.7446 27.391 20.7629 27.4117C20.7813 27.4323 20.7914 27.459 20.7913 27.4866V31.5825C20.7913 31.6419 20.745 31.6914 20.6851 31.6948L19.9624 31.7378C19.9406 31.7391 19.9188 31.734 19.8999 31.7231C19.8809 31.7123 19.8655 31.6961 19.8555 31.6766L18.4421 28.9207V31.5459C18.4421 31.562 18.4386 31.578 18.4319 31.5927C18.4252 31.6074 18.4155 31.6204 18.4033 31.631C18.3912 31.6416 18.377 31.6495 18.3616 31.6541C18.3463 31.6588 18.3301 31.66 18.3142 31.6579L17.6659 31.569C17.6389 31.5653 17.6141 31.5519 17.5961 31.5313C17.5782 31.5106 17.5684 31.4842 17.5685 31.4569V27.4369L16.8116 27.6173L17.4112 31.4162C17.4136 31.4314 17.412 31.4469 17.4067 31.4613C17.4014 31.4757 17.3924 31.4885 17.3807 31.4984C17.369 31.5086 17.3549 31.5155 17.3397 31.5185C17.3245 31.5216 17.3087 31.5206 17.294 31.5158L16.5675 31.2793C16.5516 31.2742 16.5375 31.2648 16.5267 31.2521C16.5159 31.2394 16.5089 31.224 16.5064 31.2075L16.3694 30.3467L15.4187 30.0368L15.2395 30.7458C15.2363 30.7577 15.2308 30.7689 15.2233 30.7786C15.2158 30.7884 15.2064 30.7965 15.1957 30.8026C15.1848 30.8085 15.1729 30.8121 15.1606 30.8133C15.1483 30.8144 15.136 30.8131 15.1242 30.8095L14.4291 30.5838C14.4073 30.5768 14.3889 30.5617 14.3779 30.5416C14.3668 30.5215 14.3638 30.4979 14.3696 30.4757L14.991 28.0513L14.3889 28.195C14.3616 28.2014 14.3333 28.2021 14.3057 28.197C14.2781 28.192 14.2518 28.1813 14.2286 28.1657C14.2052 28.15 14.1853 28.1296 14.1702 28.1058C14.1551 28.0821 14.1451 28.0554 14.1409 28.0275L13.7709 25.5997C13.7669 25.5731 13.7682 25.546 13.7747 25.5199C13.7813 25.4938 13.7929 25.4693 13.809 25.4477C13.8251 25.4262 13.8453 25.408 13.8685 25.3943C13.8917 25.3807 13.9173 25.3717 13.944 25.3681L20.0127 24.5326C20.1005 24.5206 20.184 24.4872 20.2559 24.4353C20.3278 24.3835 20.3858 24.3147 20.4248 24.2352L20.8095 23.4543L20.9542 23.1605L21.0513 22.9632L21.1957 22.6693L21.2931 22.4724L21.4374 22.1785L21.4763 22.0999C21.1939 22.0821 20.7795 22.2954 20.5686 22.3427C20.248 22.4399 19.7629 22.2759 19.646 22.6987C19.4585 22.8378 19.1491 22.8777 18.9286 22.7707C18.6675 22.3699 18.2115 22.7039 17.9095 22.709C17.4288 22.7822 17.0467 22.3812 16.5983 22.6102C16.0184 22.9596 15.3262 22.3061 14.8382 22.8577C14.5272 22.8813 14.2354 22.734 13.901 22.7572C13.4111 22.7557 12.9882 22.9099 12.5317 22.9917C12.0158 23.3311 11.3069 23.1673 10.7126 23.1234C10.4135 23.2442 10.0432 23.2106 9.71878 23.2189V26.4781C9.71878 26.6707 9.61933 26.7246 9.46425 26.5012L8.84491 25.6114V23.2741C8.64253 23.1691 8.47238 23.428 8.28499 23.5081C8.09756 23.5969 7.93297 23.4429 7.85377 23.2892C7.85377 23.207 7.7965 23.1334 7.7146 23.0918C7.61743 23.0764 7.44814 23.1322 7.3002 23.1893C7.23819 22.9618 7.183 22.7324 7.1347 22.5015C7.25925 22.4232 7.41126 22.3178 7.36757 22.1773C7.28493 22.0069 7.05956 22.0232 7.0017 21.8178C7.0262 21.6138 7.08603 21.3461 7.32876 21.2978C7.50875 21.1274 7.48562 20.7846 7.43 20.549C7.26738 20.3367 7.04745 20.1641 7.13653 19.8637C7.13653 19.783 7.05417 19.6844 7.13726 19.6107C7.33388 19.5306 7.52899 19.7162 7.66789 19.8483C7.79815 19.875 7.83188 19.726 7.88672 19.6527C7.93572 19.5488 7.85441 19.4252 7.7492 19.4001C7.65971 19.4236 7.57644 19.3586 7.57282 19.2768C7.60564 19.1394 7.6513 19.0088 7.80829 18.9705C7.97758 18.9117 8.14262 18.9769 8.27983 19.0675C8.44198 19.2146 8.42507 19.4506 8.58906 19.5738C8.79989 19.3785 8.63934 18.9786 8.88495 18.7918C9.23527 18.6377 9.57577 18.377 10.0009 18.4435C10.1156 18.6646 10.0387 19.0728 10.4051 19.0893C10.5054 19.0005 10.5134 18.7713 10.7011 18.8618C10.8655 18.9288 10.855 19.2129 11.0504 19.1727C11.2478 18.8065 10.8733 18.5039 10.9213 18.1545C11.1841 17.9824 11.5325 18.1308 11.7192 18.3349C11.8028 18.5056 11.4748 18.6026 11.7015 18.7433C12.0284 18.6209 12.175 18.997 12.4632 18.9236C12.6486 18.5825 13.0473 18.5418 13.3807 18.6326C13.871 18.626 14.1553 19.3604 14.6676 19.0693C14.947 18.8816 15.4898 19.1426 15.5747 18.6959C15.5413 18.5008 15.6802 18.3199 15.846 18.2667C16.1215 18.1826 16.3808 18.7543 16.6109 18.3235C17.0398 18.4958 17.5455 18.4887 18.0173 18.5642C18.7432 18.9489 19.6979 18.8948 20.5172 18.9201C21.2295 19.2986 22.242 18.759 23.0573 18.8886L23.4386 18.1135L20.2444 11.2337V17.6304C20.2444 17.6842 20.223 17.7359 20.1849 17.7739C20.1469 17.812 20.0953 17.8334 20.0414 17.8335H16.9354C16.9003 17.8335 16.8658 17.8245 16.8353 17.8072C16.8048 17.7899 16.7793 17.765 16.7612 17.735L14.722 14.3339V17.6304C14.722 17.6842 14.7006 17.7359 14.6625 17.7739C14.6245 17.812 14.5729 17.8335 14.5191 17.8335H11.7502C11.7235 17.8335 11.6971 17.8283 11.6724 17.8181C11.6478 17.8079 11.6254 17.7929 11.6065 17.7741C11.5876 17.7552 11.5727 17.7328 11.5625 17.7081C11.5522 17.6835 11.547 17.6571 11.547 17.6304V10.2545C8.63755 12.5805 6.78516 16.0823 6.78516 20.0003C6.78516 27.003 12.701 32.6798 19.9998 32.6798C27.298 32.6798 33.2143 27.0029 33.2143 20.0003C33.2143 19.7297 33.2026 19.4619 33.1851 19.1956V19.1956ZM12.2769 25.9987C12.2769 26.1514 12.1816 26.278 11.9869 26.1026L11.5271 25.6891C11.4297 25.6008 11.4031 25.523 11.4031 25.4203V25.2435C11.4031 25.138 11.3611 25.0494 11.298 24.9901L11.053 24.7699C10.9024 24.6341 10.8687 24.8222 10.8687 24.8222V24.952C10.8687 25.0988 10.9548 25.213 10.9548 25.213L11.9164 26.4641C12.1111 26.718 12.2769 27.0938 12.2769 27.4661V28.2166C12.2769 28.8701 12.0025 29.1456 11.6852 28.8626L10.3785 27.6857C10.1117 27.4453 9.99502 27.0876 9.99502 26.9102V26.2292C9.99502 26.0069 10.0386 25.9377 10.125 26.0208L10.6957 26.5424C10.7826 26.6126 10.8687 26.7567 10.8687 26.8385V26.989C10.8687 27.1098 10.8598 27.2497 10.9481 27.3174L11.195 27.5284C11.286 27.6103 11.4032 27.6224 11.4032 27.4895V27.3242C11.4032 27.2226 11.3789 27.1392 11.3145 27.0558L10.1723 25.5642C10.0707 25.4315 9.99506 25.2989 9.99506 25.0735V23.8995C9.99506 23.6172 10.3354 23.2313 10.8239 23.6713L12.0857 24.8071C12.1646 24.8782 12.2769 25.0339 12.2769 25.2932V25.9987ZM14.273 30.3358C14.2729 30.3557 14.2676 30.3752 14.2576 30.3924C14.2476 30.4095 14.2333 30.4238 14.216 30.4336C14.1807 30.4537 14.1374 30.4533 14.1025 30.4328L12.7073 29.6054C12.6904 29.5953 12.6765 29.581 12.6668 29.564C12.6571 29.5469 12.6521 29.5276 12.6521 29.508V25.4267C12.6521 25.386 12.6737 25.349 12.7089 25.3289C12.7262 25.3189 12.7459 25.3138 12.7658 25.3139C12.7858 25.3141 12.8053 25.3196 12.8224 25.3298L13.4703 25.714C13.4872 25.7239 13.5012 25.7381 13.5109 25.7551C13.5206 25.7721 13.5256 25.7913 13.5256 25.8109V29.2611L14.2178 29.6711C14.2347 29.6812 14.2486 29.6955 14.2583 29.7126C14.2679 29.7297 14.273 29.749 14.273 29.7686V30.3358ZM24.0632 30.5171C24.0632 30.6291 24.0632 31.1551 23.1894 31.3109L21.4187 31.6274C21.4024 31.6301 21.3857 31.6294 21.3698 31.6251C21.3539 31.6208 21.339 31.6131 21.3264 31.6026C21.3138 31.592 21.3037 31.5788 21.2967 31.5639C21.2897 31.549 21.286 31.5327 21.2859 31.5163V27.4414C21.2859 27.387 21.3239 27.3411 21.3768 27.3305L23.1894 26.9694C24.0632 26.7957 24.0632 27.319 24.0632 27.319V30.5171ZM22.5821 24.6016V23.5714C22.5821 23.2248 23.4138 22.9438 24.4397 22.9438C25.4656 22.9438 26.2974 23.2248 26.2974 23.5714V24.6017C26.2974 24.9484 25.4656 25.229 24.4397 25.229C23.4138 25.229 22.5821 24.9484 22.5821 24.6016ZM26.3522 26.428C26.3522 26.4623 26.3326 26.4938 26.3015 26.509L25.4616 26.92C25.4465 26.9274 25.4337 26.9389 25.4248 26.9533C25.4159 26.9676 25.4113 26.9842 25.4115 27.0011V27.8309C25.4115 27.8619 25.4273 27.8908 25.4538 27.9074C25.4667 27.9155 25.4815 27.9202 25.4968 27.9209C25.5121 27.9217 25.5273 27.9185 25.541 27.9118L26.222 27.5787C26.2357 27.5719 26.2509 27.5687 26.2662 27.5694C26.2815 27.5701 26.2963 27.5748 26.3093 27.5829C26.3361 27.5997 26.3523 27.6284 26.3523 27.6598V28.2428C26.3523 28.2786 26.3313 28.3108 26.2988 28.325L25.4645 28.7008C25.4486 28.7079 25.4352 28.7195 25.4257 28.7341C25.4163 28.7487 25.4113 28.7658 25.4115 28.7832V29.5597C25.4115 29.5899 25.427 29.6185 25.4526 29.6353C25.4783 29.6522 25.5103 29.6545 25.5386 29.6416L26.2249 29.3326C26.2386 29.3265 26.2537 29.3239 26.2688 29.3252C26.2838 29.3264 26.2983 29.3315 26.3108 29.3398C26.3366 29.3563 26.3522 29.3846 26.3522 29.4154V29.995C26.3522 30.0306 26.3312 30.0628 26.2988 30.0772L24.665 30.8128C24.6513 30.819 24.6362 30.8216 24.6211 30.8205C24.6061 30.8194 24.5916 30.8145 24.5789 30.8064C24.5532 30.7899 24.5377 30.7612 24.5377 30.7302V26.6261C24.5377 26.5918 24.5569 26.5607 24.5881 26.5452L26.222 25.7454C26.2358 25.7387 26.251 25.7357 26.2663 25.7365C26.2817 25.7373 26.2965 25.742 26.3095 25.7501C26.3225 25.7582 26.3333 25.7694 26.3407 25.7828C26.3482 25.7962 26.3522 25.8113 26.3522 25.8266V26.4279V26.428ZM29.0187 28.2066L28.5109 28.5512C28.4711 28.578 28.4177 28.5696 28.3886 28.5312L27.6281 27.5365L27.4848 27.6359V29.2005C27.4848 29.2303 27.4697 29.2584 27.4451 29.2753L26.7517 29.7456C26.7382 29.7549 26.7223 29.7604 26.7059 29.7613C26.6895 29.7622 26.6731 29.7586 26.6586 29.7509C26.6442 29.7431 26.6321 29.7316 26.6237 29.7176C26.6152 29.7035 26.6108 29.6875 26.6107 29.6711V25.613C26.6107 25.5831 26.6252 25.5554 26.6498 25.5385L28.0121 24.5985C28.4285 24.3115 28.7929 24.3645 28.7929 24.9345V26.0101C28.7929 26.7044 28.2818 27.0856 28.2818 27.0856L29.0392 28.0773C29.0468 28.087 29.0522 28.0981 29.0553 28.11C29.0583 28.1219 29.0589 28.1343 29.057 28.1464C29.0551 28.1586 29.0507 28.1702 29.0441 28.1805C29.0375 28.1909 29.0288 28.1998 29.0187 28.2067V28.2066ZM30.8914 23.0728C30.8914 23.1673 30.8819 23.3057 30.7952 23.3947L30.2861 23.9212C30.2275 23.9819 30.191 23.943 30.191 23.8777V23.5579C30.191 23.4002 30.1295 23.3998 30.0437 23.4872L29.9622 23.5711C29.8433 23.6943 29.8433 23.8712 29.8433 23.9379V24.1604C29.8433 24.2994 29.8826 24.4 30.0281 24.4256L30.434 24.4963C30.6263 24.5299 30.8914 24.6578 30.8914 24.9688C30.8914 25.2288 30.8914 25.6806 30.5497 26.1322L29.7177 27.2309C29.3726 27.6851 29.0343 27.5575 29.0343 26.9027V26.5378C29.0343 26.4217 29.0642 26.351 29.1304 26.2907L29.6853 25.7196C29.7804 25.6236 29.8433 25.6235 29.8433 25.7741V25.9546C29.8433 26.1663 30.0083 25.9972 30.0798 25.9262C30.1515 25.8547 30.191 25.8127 30.191 25.6425V25.5369C30.191 25.425 30.1041 25.3819 29.9488 25.3472L29.4677 25.2392C29.0929 25.1606 29.0343 24.9012 29.0343 24.6116V24.1986C29.0343 23.8882 29.0852 23.6191 29.3107 23.3654L30.191 22.3944C30.5122 22.0391 30.8914 21.9863 30.8914 22.5393V23.0728Z" fill="#003087"/>
<path d="M16.2302 29.4739L15.9722 27.8497L15.6116 29.2725L16.2302 29.4739ZM27.8077 25.6143L27.5232 25.8104C27.5112 25.8188 27.5015 25.8299 27.4947 25.8428C27.488 25.8558 27.4845 25.8702 27.4845 25.8848V26.606C27.4845 26.6392 27.5028 26.6704 27.5323 26.6858C27.5621 26.7014 27.5981 26.6991 27.6255 26.6803L27.8217 26.5445C27.9266 26.4724 28.0119 26.3009 28.0119 26.154V25.7335C28.0119 25.6124 27.9213 25.5357 27.8077 25.6143ZM22.8091 27.8767L22.1597 28.0061V30.7472L22.8492 30.624C23.1891 30.563 23.1891 30.1786 23.1891 30.1786V28.1544C23.1891 28.1544 23.1891 27.8009 22.8091 27.8767V27.8767ZM17.1962 8.42447C17.1962 8.37053 17.2176 8.3188 17.2558 8.28065C17.2939 8.24251 17.3457 8.22108 17.3996 8.22108H22.2764C22.3151 8.22109 22.3531 8.23219 22.3857 8.25307C22.4183 8.27395 22.4443 8.30373 22.4606 8.33891L25.2705 14.3919L27.6115 9.63837C25.4592 8.17963 22.8347 7.31998 19.9995 7.31998C18.249 7.31998 16.579 7.64978 15.0498 8.24298L17.1962 12.3887V8.42447ZM26.4738 17.315C27.0333 17.1447 27.5473 16.8434 28.0147 16.4222C28.432 16.285 28.9177 16.2048 29.3663 16.27L29.4081 16.3285C29.3767 16.4992 29.1626 16.6297 29.0154 16.7185C28.6984 16.7248 28.3147 16.6697 28.0693 16.9122C27.7266 17.2698 27.2949 17.5124 26.9745 17.862C26.9996 17.9754 27.1292 18.0659 27.0559 18.1944C26.8114 18.367 26.4204 18.2366 26.2905 18.5855C26.1822 19.2548 25.3439 18.7364 25.0158 19.1692C24.8558 19.3793 24.3808 19.6344 24.0218 19.7295L23.678 20.4611C24.0776 20.6026 24.6295 20.815 24.9963 20.7576C25.8523 20.4835 26.1822 19.1807 27.1829 19.2579C27.7461 19.3568 28.2429 19.1862 28.6351 18.8118C29.0186 18.6663 29.0484 19.2845 29.4016 19.2196C29.4323 18.9936 29.4521 18.7148 29.7112 18.6191C29.8339 18.5709 30.031 18.5874 30.047 18.7497C29.7763 19.1325 30.3635 19.2564 30.2802 19.616C30.3275 19.7698 30.5064 19.7698 30.6304 19.7313C30.835 19.3402 31.2589 19.3065 31.6477 19.2845C31.9525 18.8382 32.6743 19.2548 32.8415 18.6275L33.1233 18.5325C32.725 15.2206 30.9994 12.298 28.467 10.2671L24.7304 18.221C25.2983 18.0261 26.0919 17.7994 26.4738 17.315Z" fill="#003087"/>
<path d="M20.4252 24.2352C20.3862 24.3147 20.3281 24.3835 20.2563 24.4353C20.1844 24.4872 20.1009 24.5206 20.0131 24.5326L13.9443 25.368C13.9177 25.3717 13.892 25.3807 13.8689 25.3943C13.8457 25.408 13.8255 25.4262 13.8094 25.4477C13.7933 25.4693 13.7816 25.4938 13.7751 25.5199C13.7685 25.546 13.7673 25.5732 13.7713 25.5998L14.1413 28.0275C14.1455 28.0554 14.1555 28.082 14.1706 28.1058C14.1856 28.1296 14.2055 28.15 14.2289 28.1656C14.2522 28.1813 14.2785 28.192 14.3061 28.197C14.3337 28.2021 14.362 28.2014 14.3893 28.195L14.9914 28.0513L15.3502 26.6504C15.356 26.6274 15.3708 26.6076 15.3912 26.5954C15.4117 26.5832 15.4361 26.5796 15.4592 26.5854L16.6389 26.874C16.6561 26.8781 16.6717 26.8872 16.6837 26.9002C16.6957 26.9133 16.7036 26.9296 16.7063 26.9471L16.812 27.6173L17.5688 27.4369V27.1328C17.5687 27.1169 17.5721 27.1011 17.5786 27.0865C17.5851 27.0719 17.5947 27.0589 17.6066 27.0483C17.6185 27.0377 17.6326 27.0298 17.6478 27.025C17.6631 27.0203 17.6792 27.0189 17.695 27.0208L18.6349 27.1321C18.6612 27.1345 18.6825 27.1491 18.7002 27.1674L20.5055 26.7372C20.5847 26.7183 20.6587 26.6819 20.7218 26.6306C20.785 26.5792 20.8358 26.5143 20.8705 26.4406L21.9903 24.0564L20.8098 23.4543L20.4252 24.2352ZM20.9546 23.1604L22.1292 23.7598L22.2229 23.5607L21.0517 22.9632L20.9546 23.1604ZM22.6887 22.5695L21.5351 21.9808L21.4766 22.1L21.4378 22.1786L22.5953 22.7686L22.6887 22.5695ZM21.1961 22.6693L22.3627 23.2643L22.4561 23.065L21.2934 22.4724L21.1961 22.6693ZM25.2711 14.3919L22.4612 8.33893C22.445 8.30373 22.419 8.27393 22.3864 8.25303C22.3537 8.23213 22.3158 8.22102 22.277 8.22101H17.4003C17.3736 8.221 17.3471 8.22626 17.3224 8.23648C17.2978 8.2467 17.2753 8.26169 17.2564 8.28058C17.2376 8.29947 17.2226 8.3219 17.2123 8.34658C17.2021 8.37127 17.1969 8.39772 17.1969 8.42444V12.3886L15.0505 8.24299C13.7713 8.73943 12.5913 9.42002 11.5474 10.2545V17.6304C11.5474 17.6571 11.5526 17.6835 11.5628 17.7082C11.573 17.7328 11.588 17.7552 11.6069 17.7741C11.6257 17.7929 11.6481 17.8079 11.6728 17.8181C11.6974 17.8283 11.7238 17.8336 11.7505 17.8335H14.5194C14.6314 17.8335 14.7224 17.7426 14.7224 17.6304V14.3339L16.7616 17.735C16.7796 17.7651 16.8051 17.79 16.8357 17.8072C16.8662 17.8245 16.9007 17.8336 16.9357 17.8335H20.0418C20.1536 17.8335 20.2447 17.7426 20.2447 17.6304V11.2337L23.4389 18.1136L23.0576 18.8885L21.6796 21.6871L22.8282 22.2732L22.9812 21.947L23.6786 20.4611L24.0225 19.7295L24.7311 18.221L28.4677 10.2671C28.1919 10.0459 27.9061 9.83752 27.6121 9.63835L25.2711 14.3919Z" fill="white"/>
<path d="M24.4402 24.1988C25.4661 24.1988 26.2978 23.9179 26.2978 23.5713C26.2978 23.2247 25.4661 22.9438 24.4402 22.9438C23.4142 22.9438 22.5825 23.2247 22.5825 23.5713C22.5825 23.9179 23.4142 24.1988 24.4402 24.1988Z" fill="white"/>
</svg>
