<svg width="24" height="24" viewBox="0 0 24 24" fill="none" xmlns="http://www.w3.org/2000/svg">
<path d="M20.3677 20.1374C20.0901 20.1374 19.8647 20.3624 19.8647 20.6402C19.8647 20.9177 20.0901 21.143 20.3677 21.143C20.6453 21.143 20.8703 20.9177 20.8703 20.6402C20.8703 20.3624 20.6453 20.1374 20.3677 20.1374ZM20.3677 21.0351C20.3159 21.0352 20.2645 21.025 20.2165 21.0051C20.1686 20.9853 20.125 20.9562 20.0884 20.9195C20.0517 20.8829 20.0226 20.8393 20.0028 20.7914C19.9829 20.7434 19.9727 20.6921 19.9728 20.6402C19.9728 20.422 20.1493 20.2455 20.3677 20.2455C20.5859 20.2455 20.7626 20.422 20.7626 20.6402C20.7626 20.8585 20.5859 21.0351 20.3677 21.0351ZM20.5743 20.5236C20.5743 20.5013 20.5699 20.4791 20.5613 20.4584C20.5527 20.4377 20.5401 20.4189 20.5243 20.4031C20.5084 20.3873 20.4896 20.3748 20.4689 20.3662C20.4483 20.3577 20.4261 20.3533 20.4037 20.3533H20.1614V20.9272H20.2691V20.6941H20.3464L20.4552 20.9272H20.5743L20.4607 20.6842C20.4939 20.6724 20.5226 20.6507 20.543 20.6219C20.5633 20.5932 20.5742 20.5589 20.5743 20.5236ZM20.4037 20.5864H20.2691V20.4608H20.4037C20.4383 20.4608 20.4666 20.4889 20.4666 20.5236C20.4666 20.5403 20.4599 20.5562 20.4481 20.568C20.4363 20.5798 20.4204 20.5864 20.4037 20.5864Z" fill="white"/>
<path d="M20.7668 4.83592L22.3202 2.07842H17.1245L16.3797 2.80277L15.6348 2.07842H8.36579L7.62083 2.80277L6.87597 2.07842H1.68018L3.23391 4.83592V18.2295C3.23391 18.4991 3.23391 20.6021 5.77535 20.6021H9.7955C11.2388 20.6021 11.9422 21.9216 11.9422 21.9216H12.0582C12.0582 21.9216 12.7618 20.6021 14.205 20.6021H18.2251C20.7665 20.6021 20.7668 18.4991 20.7668 18.2295V4.83592Z" fill="#0033A0"/>
<path d="M10.6201 8.73923L19.5993 15.2422V8.73923H10.6201Z" fill="#C8102E"/>
<path d="M4.40186 7.82353H19.5995V8.18999H4.40186V7.82353ZM4.40186 18.2295C4.40186 19.2976 5.13592 19.4347 5.77569 19.4347H9.79585C10.7107 19.4347 11.451 19.9148 12.0004 20.3558C12.55 19.9148 13.2903 19.4347 14.2054 19.4347H15.6614L4.40186 11.2802V18.2295V18.2295ZM4.40186 10.5252L16.7038 19.4347H17.2269L4.40186 10.1462V10.5252ZM9.05465 8.73924L19.5995 16.3765V15.9977L9.57795 8.73924H9.05465ZM13.4033 15.9776L14.2928 16.6219L14.5519 16.2644L14.0261 15.8836L14.4454 15.3044L14.9712 15.6854L15.23 15.3275L14.7045 14.947L15.1241 14.3681L15.6495 14.7486L15.9086 14.3909L15.0188 13.7466L13.4033 15.9776ZM8.94936 9.35055L8.12648 8.75496L6.51076 10.9857L6.87458 11.2496L7.59798 10.2505L7.80121 10.3977L7.45965 11.6733L7.82387 11.9368L8.16928 10.6458C8.39728 10.7398 8.66807 10.6694 8.81928 10.4612L9.07141 10.1128C9.24795 9.86886 9.19342 9.5276 8.9494 9.35055H8.94936ZM8.65795 9.91746L8.5043 10.1291C8.4898 10.1492 8.47148 10.1662 8.45039 10.1792C8.42931 10.1922 8.40587 10.2009 8.38143 10.2048C8.35698 10.2087 8.33199 10.2078 8.30791 10.2021C8.28382 10.1963 8.2611 10.1859 8.24104 10.1714L7.85715 9.89296L8.23166 9.37609L8.61578 9.65423C8.65624 9.68358 8.68339 9.72778 8.6913 9.77713C8.6992 9.82647 8.68721 9.87694 8.65795 9.91746ZM16.1471 17.9646L16.4925 16.6735C16.7203 16.7679 16.9912 16.6977 17.1423 16.489L17.3947 16.1407C17.5713 15.8969 17.5167 15.5556 17.2729 15.3787L16.4496 14.7827L14.8336 17.0135L15.198 17.2775L15.9213 16.2787L16.1242 16.4257L15.7831 17.7013L16.1471 17.9646ZM16.5548 15.4041L16.9389 15.6823C16.9794 15.7116 17.0066 15.7558 17.0145 15.8052C17.0224 15.8545 17.0104 15.905 16.9812 15.9455L16.8277 16.1571C16.7668 16.2414 16.6489 16.2602 16.5645 16.1993L16.1802 15.9209L16.5548 15.4041ZM11.5161 11.2098L9.9002 13.4408L10.2644 13.7045L11.2344 12.3651L10.8493 14.128L11.2133 14.3917L12.829 12.1605L12.4651 11.8971L11.4951 13.2361L11.8802 11.4731L11.5161 11.2098ZM8.06909 12.1145L8.43324 12.3783L8.89279 12.009L9.4983 12.4477L9.29102 12.9994L9.65504 13.2631L10.6597 10.5897L10.296 10.3259L8.06912 12.1145L8.06909 12.1145ZM9.63553 12.0826L9.19647 11.7649L9.9965 11.1223L9.63553 12.0826ZM14.0767 13.0641L13.7717 12.8432C13.5273 12.6665 13.1864 12.7209 13.0095 12.9647L12.0339 14.3122C11.8571 14.5561 11.9116 14.8972 12.1559 15.0741L12.4608 15.295C12.5357 15.3492 12.6232 15.3835 12.715 15.3946L12.7086 15.4745L12.9025 15.6153L13.7666 14.4223L13.0577 13.9087L12.8374 14.2132L13.1822 14.4628L12.908 14.8411C12.8935 14.8612 12.8752 14.8782 12.8542 14.8912C12.8331 14.9042 12.8097 14.9129 12.7853 14.9168C12.7609 14.9207 12.7359 14.9198 12.7118 14.9141C12.6878 14.9083 12.6651 14.8979 12.645 14.8834L12.4894 14.7706C12.4053 14.7096 12.3862 14.5916 12.4473 14.5075L13.3238 13.297C13.3532 13.2565 13.3974 13.2293 13.4468 13.2214C13.4962 13.2135 13.5467 13.2256 13.5872 13.2549L13.7427 13.3674C13.7831 13.3967 13.8103 13.4409 13.8183 13.4902C13.8262 13.5395 13.8143 13.59 13.7851 13.6305L13.5712 13.9258L13.9351 14.1896L14.1984 13.826C14.375 13.582 14.3207 13.241 14.0767 13.0641ZM18.6291 16.3612C18.296 16.1197 17.8303 16.1941 17.5892 16.5273C17.1517 17.1314 17.9959 17.8647 17.7663 18.1819C17.6587 18.3305 17.4509 18.3639 17.302 18.256C17.1535 18.1488 17.1202 17.941 17.2279 17.7921L17.3329 17.647L16.969 17.3834L16.8683 17.522C16.6153 17.8718 16.6935 18.3607 17.0432 18.6138C17.3928 18.8668 17.8815 18.7889 18.1347 18.439C18.568 17.841 17.724 17.107 17.9577 16.7845C17.9805 16.7531 18.0092 16.7265 18.0422 16.7062C18.0752 16.6859 18.112 16.6723 18.1502 16.6662C18.1885 16.6601 18.2276 16.6616 18.2654 16.6706C18.3031 16.6797 18.3386 16.696 18.37 16.7188C18.5022 16.8142 18.5318 16.9988 18.4361 17.1312L18.3487 17.2515L18.7126 17.5152L18.7951 17.4009C19.0365 17.068 18.9623 16.6022 18.6291 16.3612ZM7.85591 6.92378H7.20672V6.20873H7.85591V5.76722H7.20672V5.05239H7.85591V4.61034H6.75726V7.3653H7.85591V6.92378ZM16.0416 6.13207H16.2922L16.7641 7.3653H17.2136L16.7358 6.11695C16.9759 6.05937 17.1539 5.84401 17.1539 5.58631V5.15633C17.1539 4.855 16.9098 4.61038 16.6085 4.61038H15.5921V7.3653H16.0416L16.0416 6.13207ZM16.0416 5.05239H16.5159C16.6202 5.05239 16.7047 5.13662 16.7047 5.24057V5.50195C16.7047 5.55202 16.6848 5.60004 16.6494 5.63544C16.614 5.67085 16.566 5.69075 16.5159 5.69076H16.0416V5.05239ZM4.99447 5.71137L5.7168 7.3653H6.16646V4.61038H5.71677V6.2646L4.99447 4.61038H4.54525V7.3653H4.9945L4.99447 5.71137ZM14.283 7.3653H14.6592C14.9609 7.3653 15.2052 7.12078 15.2052 6.81954V5.15633C15.2052 4.855 14.9609 4.61034 14.6592 4.61034H14.283C13.9815 4.61034 13.737 4.85503 13.737 5.15633V6.81954C13.737 7.12078 13.9815 7.3653 14.283 7.3653H14.283ZM14.1866 5.24053C14.1866 5.13662 14.271 5.05239 14.375 5.05239H14.5672C14.5919 5.05236 14.6164 5.05721 14.6393 5.06665C14.6621 5.0761 14.6829 5.08995 14.7004 5.10743C14.7179 5.1249 14.7318 5.14565 14.7413 5.1685C14.7508 5.19134 14.7557 5.21583 14.7557 5.24057V6.73541C14.7557 6.78538 14.7358 6.8333 14.7004 6.86863C14.6651 6.90395 14.6171 6.92379 14.5672 6.92378H14.375C14.325 6.92377 14.2771 6.90391 14.2418 6.86859C14.2065 6.83327 14.1866 6.78536 14.1866 6.73541V5.24053ZM18.1577 6.22478L18.3592 5.90119L19.0067 7.3653H19.4562L18.6225 5.47939L19.1646 4.61034H18.715L18.1577 5.50409V4.61038H17.7083V7.3653H18.1577V6.22478ZM12.4483 7.3653H12.8979V6.22478L13.4912 4.61034H13.0417L12.6729 5.61346L12.3042 4.61034H11.8547L12.4484 6.22478L12.4483 7.3653ZM9.26967 7.3653L9.50524 5.9213L9.74081 7.3653H10.2785L10.7282 4.61038H10.2785L10.01 6.25837L9.74081 4.61034H9.26967L9.00072 6.25837L8.7322 4.61034H8.28251L8.7322 7.3653H9.26967Z" fill="white"/>
<path d="M17.1775 2.20791L16.3798 2.9837L15.5823 2.20791H8.41859L7.62104 2.9837L6.82349 2.20791H1.90234L3.3639 4.8017V18.2295C3.3639 18.904 3.59874 20.4725 5.77555 20.4725H9.79568C11.0866 20.4725 11.8036 21.4647 12.0003 21.7786C12.1973 21.4647 12.9143 20.4725 14.2053 20.4725H18.2253C20.4022 20.4725 20.6374 18.904 20.6374 18.2295V4.8017L22.0986 2.20791H17.1775ZM20.0448 4.64661V18.2295C20.0448 18.9825 19.7291 19.8799 18.2253 19.8799H14.2053C13.1836 19.8799 12.4562 20.4541 12.0003 20.9108C11.5451 20.4541 10.8173 19.8799 9.79568 19.8799H5.77559C4.27196 19.8799 3.95618 18.9825 3.95618 18.2295V4.64664L2.91599 2.80042H6.58296L7.62104 3.80988L8.65929 2.80046H15.3417L16.3799 3.80988L17.4179 2.80046H21.0849L20.0448 4.64664L20.0448 4.64661Z" fill="white"/>
</svg>
