<svg width="40" height="40" viewBox="0 0 40 40" fill="none" xmlns="http://www.w3.org/2000/svg">
<path d="M32.4355 32.0934C32.023 32.0934 31.688 32.4278 31.688 32.8406C31.688 33.253 32.023 33.5879 32.4355 33.5879C32.848 33.5879 33.1824 33.253 33.1824 32.8406C33.1824 32.4278 32.848 32.0934 32.4355 32.0934ZM32.4355 33.4275C32.3584 33.4276 32.2821 33.4125 32.2108 33.383C32.1396 33.3535 32.0748 33.3103 32.0203 33.2558C31.9658 33.2013 31.9226 33.1366 31.8931 33.0653C31.8636 32.9941 31.8485 32.9177 31.8486 32.8406C31.8486 32.5163 32.1108 32.2541 32.4355 32.2541C32.7598 32.2541 33.0223 32.5163 33.0223 32.8406C33.0223 33.165 32.7598 33.4275 32.4355 33.4275ZM32.7425 32.6674C32.7425 32.6341 32.7359 32.6012 32.7232 32.5705C32.7104 32.5397 32.6917 32.5118 32.6682 32.4883C32.6446 32.4648 32.6167 32.4462 32.5859 32.4335C32.5552 32.4208 32.5222 32.4142 32.489 32.4143H32.1289V33.2672H32.289V32.9208H32.4038L32.5655 33.2672H32.7425L32.5737 32.906C32.623 32.8885 32.6657 32.8562 32.6959 32.8135C32.7262 32.7708 32.7424 32.7197 32.7425 32.6674ZM32.489 32.7607H32.289V32.574H32.489C32.5404 32.574 32.5825 32.6158 32.5825 32.6674C32.5824 32.6922 32.5725 32.7159 32.555 32.7334C32.5375 32.7508 32.5137 32.7607 32.489 32.7607ZM26.1282 15.4159L22.8998 11.0041L21.7279 11.5464C21.5501 11.4895 21.2444 11.4015 20.822 11.3149L21.0874 11.0473V8.77242H20.7897C21.2048 7.73161 20.1697 5.803 23.6087 4.05951H15.464C9.76884 5.84843 11.3949 16.2402 11.3949 16.2402L12.0075 16.0086C12.0075 16.0086 11.7746 16.7467 11.9223 17.4428C11.9223 17.4428 11.3299 18.8665 12.0124 20.2581L11.6016 20.8397L11.7042 23.915C10.6324 24.8503 8.65848 24.1389 8.26759 25.8213C7.95062 26.2458 6.90851 26.5751 6.90851 26.5751C5.02693 31.5072 15.993 32.082 18.0447 34.8252C18.0447 34.8252 20.0031 35.9405 22.7691 35.9405C28.5801 35.9405 33.3079 31.2132 33.3079 25.4018C33.3079 20.8521 30.4275 16.8606 26.1282 15.4159Z" fill="white"/>
<path d="M25.8564 15.7768L22.7602 11.5451L21.7529 12.0118C21.7529 12.0118 21.0861 11.7543 19.9272 11.6031L20.655 10.8692V9.20521H20.1435C21.0366 7.75423 19.6261 6.24675 22.2048 4.49185H15.5351C10.5002 6.18972 11.752 15.6428 11.752 15.6428L12.7176 15.2776C12.7176 15.2776 12.1159 16.5381 12.3699 17.4892C12.3699 17.4892 11.707 18.9273 12.5129 20.2989L12.0388 20.9704L12.1414 24.0488C11.4689 25.2181 8.9269 24.5808 8.69312 25.8963C8.59449 26.452 7.2505 26.9145 7.2505 26.9145C5.84256 31.1132 16.5709 31.9032 18.3374 34.4871C19.6753 35.1406 21.1795 35.5082 22.7692 35.5082C28.3509 35.5082 32.8757 30.9834 32.8757 25.4018C32.8757 20.8976 29.9278 17.0814 25.8564 15.7768Z" fill="#010101"/>
<path d="M15.9932 8.75797L15.4992 5.55592C11.96 7.06628 12.4324 14.3163 12.4324 14.3163L16.0308 9.09267H19.3494C19.9238 7.95616 19.2211 6.14427 20.4929 5.36777H16.1143L15.9932 8.75797ZM14.8971 30.4542C16.3463 30.7787 18.2849 32.0061 18.2849 32.0061C18.1422 31.4948 17.7283 31.0008 17.7283 31.0008C15.2921 30.2321 13.8331 28.7159 13.8331 28.7159L10.1189 26.6741C10.1189 26.6741 12.3312 26.6872 12.1329 25.0508C11.1775 25.7533 9.33435 25.4798 9.33435 26.2396C9.33435 27.0729 10.7959 27.9208 13.6739 29.746L9.22446 27.7088L9.4931 27.4186L9.18451 26.8225C9.15367 27.0516 8.02344 27.0553 8.02344 27.8164C8.02344 30.5009 17.5211 31.5014 19.264 34.0401C19.4671 32.7183 16.8688 31.4618 14.8971 30.4542ZM27.4332 26.6718C27.4332 26.9571 25.4221 28.1438 25.4221 28.1438C26.0971 27.2132 26.6423 26.7641 26.6423 26.3611C26.6423 25.9632 25.9303 25.8546 25.7361 25.093C25.009 26.2653 24.9728 27.0174 24.9728 27.0174L25.3309 29.468L24.3569 29.3503C22.3184 31.3885 22.5432 33.6252 22.5432 33.6252C23.8244 29.9174 28.163 29.8639 28.163 26.3615C27.8393 26.1003 26.4743 25.5602 26.4743 25.5602C26.4743 25.5602 27.4332 26.3865 27.4332 26.6718Z" fill="#C8102E"/>
<path d="M25.3147 20.0455L22.4075 18.382L16.5965 20.36C16.5965 20.36 18.7501 19.8019 20.3348 19.8019C22.0566 19.8019 22.3587 20.7316 22.3587 20.7316C22.3587 20.7316 22.8915 19.7703 23.6952 19.7703C24.6661 19.7703 25.3412 20.3361 25.3412 20.3361L25.3147 20.0455ZM19.0903 11.661L19.577 11.1439H17.052L14.9421 12.8444L16.8077 10.6572H19.8697V9.76285H16.5392L13.5635 13.7993L13.7053 14.4949C13.7053 14.4949 15.3466 11.661 19.0903 11.661H19.0903Z" fill="#C69214"/>
<path d="M17.1351 26.8561C17.1351 24.8987 17.6123 22.8665 17.6123 22.8665C17.6123 22.8665 14.7013 23.0677 15.2198 20.6142C15.2198 20.6142 14.5851 21.1307 14.013 20.9061C14.013 20.9061 15.1046 20.6157 15.1046 19.4236L15.3892 20.2919L22.9404 17.2762L25.9136 19.8598L25.8464 18.6965C25.5141 18.8181 24.7987 18.3259 24.7987 18.3259L24.9088 18.2341C24.9088 18.2341 25.3904 18.4825 25.8238 18.305L25.7573 17.1589L22.4852 12.6093L21.7419 12.8879C21.7419 12.8879 20.1413 12.2114 18.5884 12.2114C16.2165 12.2114 13.2618 14.5581 13.2618 17.1508L14.8525 17.2675L19.193 14.0468L14.8296 18.3145C14.8296 18.3145 14.4438 17.5605 13.8908 17.5605C13.5083 17.5605 12.9176 18.0172 12.9176 19.1355C12.9176 20.0149 13.3495 20.4462 13.3495 20.4462L12.8415 21.1347C13.213 26.648 12.5909 27.2084 11.458 26.8964L13.6715 27.9635C13.6715 24.1036 13.5273 22.9304 13.9051 22.9304C14.5276 22.9304 14.4629 26.7704 14.6268 28.5736C14.6268 28.5736 16.2244 30.4254 19.3983 30.7284C19.3983 30.7284 17.1351 29.2903 17.1351 26.8561ZM16.4246 15.5375L14.6171 16.7194L13.6592 16.6759C13.6592 16.6759 13.5531 14.6423 16.485 13.1889C13.0674 15.7347 15.1393 15.8928 16.4246 15.5375ZM24.6274 16.2929C25.4658 17.1632 25.1008 17.5285 25.3605 17.9282L25.3157 18.0019C24.996 17.7204 24.9919 18.4069 24.0733 17.4194L24.1613 17.3696C24.7568 17.8832 24.7984 17.4744 25.0213 17.5778C24.8799 17.3241 25.093 16.9947 24.6235 16.381L24.6274 16.2929ZM23.4954 16.3015C23.8944 16.7726 24.0081 16.5337 24.1275 16.5662C24.0553 16.4107 24.3305 16.2661 24.0069 15.5877L24.0376 15.4537C24.7547 16.483 24.2309 16.583 24.4989 17.0397L24.4614 17.0882C24.2039 16.7147 24.0632 17.3499 23.4271 16.3255L23.4954 16.3016V16.3015ZM21.9256 13.9511C21.4817 14.4312 21.6076 16.7362 23.1821 16.3034C22.3161 17.695 20.1897 15.0627 21.9255 13.9511H21.9256ZM20.2783 15.1507L20.3001 15.2804C19.7455 15.9919 20.1325 16.0392 20.0427 16.2258C20.172 16.1885 20.2268 16.5381 21.084 16.0823L21.1679 16.1091C19.8484 17.1144 19.9386 16.3326 19.4749 16.7123L19.4173 16.6897C19.9386 16.2532 19.0737 16.2192 20.2782 15.1507H20.2783ZM19.3003 15.9167L19.3113 15.9866C18.5675 16.7003 18.8972 16.93 18.7852 17.1201C19.0037 17.0531 19.0011 17.5542 20.1022 17.0383L20.2239 17.0881C18.7297 18.0824 18.699 17.2872 18.2579 17.5692L18.2193 17.5174C18.6272 17.1091 18.0113 16.775 19.3003 15.9167ZM17.7187 16.829L17.7547 16.876C17.3668 17.2637 17.4997 17.5457 17.3553 17.6898C17.7258 17.6898 17.4656 18.2111 18.9896 17.9234L19.2131 18.0632C17.191 18.8152 17.4754 17.8683 16.698 18.1283L16.674 18.0747C17.3239 17.7358 16.7738 17.3907 17.7186 16.829H17.7187ZM16.0622 17.7051L16.0996 17.7516C15.892 17.9589 16.1757 18.1235 15.9082 18.3303C16.2058 18.3155 16.0814 18.6559 16.9438 18.5673C17.1008 18.6291 17.2361 18.7544 17.2361 18.7544C15.7099 19.2365 15.7606 18.5285 15.3243 18.6587L15.3037 18.6042C15.7541 18.4184 15.2857 18.1398 16.0622 17.7051ZM13.2276 19.8277C13.2276 19.8277 13.4275 20.2351 13.7519 20.2351C14.0767 20.2351 14.8808 19.4475 14.4318 18.3259C15.3983 19.4434 14.4605 20.6257 13.9658 20.6257C13.4707 20.6257 13.2276 19.8277 13.2276 19.8277ZM24.3252 27.6889L23.954 28.6757L24.5292 28.7719L24.3252 27.6889ZM26.8256 17.1254V20.4007C28.2806 21.5827 29.2119 23.3855 29.2119 25.4018C29.2119 28.1936 27.4281 30.5748 24.9404 31.4679C23.888 33.1856 24.1817 34.1967 24.3121 34.4911C28.6633 33.7549 31.988 29.9594 31.988 25.4018C31.988 21.7736 29.8805 18.6286 26.8256 17.1254ZM26.9155 18.7132C26.9155 18.7132 28.4699 19.2461 28.1516 19.6611C27.833 20.0766 26.9155 18.7132 26.9155 18.7132L26.9155 18.7132ZM27.8274 20.1102C27.9792 19.9804 28.3496 20.2796 28.5479 20.1102C28.7459 19.9412 28.5084 19.5285 28.6602 19.3987C29.5262 20.4132 28.8338 20.4448 29.2036 20.8778C28.8338 20.4448 28.6937 21.124 27.8274 20.1102ZM24.3688 33.1076C24.3688 33.1076 25.6979 32.142 25.8545 32.6413C26.0113 33.141 24.3688 33.1076 24.3688 33.1076ZM26.1175 33.1176C26.0223 32.9418 26.3916 32.6422 26.2672 32.4133C26.1429 32.1842 25.69 32.3306 25.5953 32.1553C26.7672 31.5193 26.6542 32.2034 27.1549 31.9313C26.6542 32.2034 27.2892 32.4813 26.1175 33.1176ZM27.5282 32.3372C27.401 32.1831 27.7064 31.8175 27.5407 31.6168C27.3753 31.4164 26.9587 31.6462 26.8317 31.4919C27.8605 30.6441 27.8807 31.3373 28.3201 30.9749C27.8807 31.3373 28.5569 31.4891 27.5282 32.3372ZM28.66 31.4053C28.5081 31.2757 28.7457 30.8633 28.5474 30.6938C28.3496 30.525 27.9792 30.8243 27.8274 30.6938C28.6937 29.6801 28.8333 30.3588 29.2036 29.926C28.8333 30.3588 29.5259 30.3913 28.66 31.4053ZM29.6131 30.2913C29.4409 30.1895 29.6031 29.7422 29.3788 29.6101C29.154 29.478 28.8417 29.8367 28.6695 29.7356C29.3464 28.5861 29.6021 29.2305 29.8912 28.7398C29.6021 29.2305 30.2894 29.1424 29.6131 30.2913ZM30.358 29.0284C30.1707 28.9582 30.2531 28.4899 30.0088 28.3986C29.7649 28.3071 29.5192 28.7145 29.3326 28.645C29.7993 27.3956 30.1631 27.9859 30.3625 27.4522C30.1631 27.9859 30.8246 27.7797 30.358 29.0284ZM30.8525 27.7265C30.6562 27.6882 30.6598 27.2123 30.4041 27.1625C30.1485 27.1126 29.9735 27.5551 29.7778 27.5173C30.0319 26.2079 30.4884 26.7302 30.5969 26.1712C30.4884 26.7302 31.1067 26.4175 30.8525 27.7265ZM31.0775 25.4018C31.0775 25.666 30.8639 25.8797 30.6002 25.8797C30.3364 25.8797 30.1222 25.6661 30.1222 25.4018C30.1222 25.1387 30.3364 24.9244 30.6002 24.9244C30.8639 24.9244 31.0775 25.1387 31.0775 25.4018ZM30.8107 22.9374C31.0882 24.2418 30.4642 23.9393 30.5827 24.497C30.4641 23.9393 30.0168 24.4693 29.7395 23.1652C29.9352 23.1237 30.1176 23.5626 30.3725 23.5089C30.6274 23.4548 30.6154 22.9791 30.8107 22.9374ZM30.2936 21.6439C30.7826 22.8848 30.1172 22.6895 30.3258 23.2193C30.1172 22.6895 29.7638 23.2858 29.2749 22.0452C29.4609 21.9725 29.7134 22.3754 29.9558 22.2797C30.1982 22.1848 30.108 21.7173 30.2936 21.6439ZM29.57 20.4539C30.2575 21.5964 29.5685 21.5136 29.8619 22.002C29.5685 21.5136 29.3185 22.1604 28.632 21.0178C28.8028 20.9144 29.1185 21.2704 29.3416 21.1365C29.565 21.0021 29.3992 20.5562 29.57 20.4539Z" fill="#C69214"/>
<path d="M22.5153 25.6856L23.1248 25.3902L22.4599 22.7994L22.7259 22.0058L24.5543 21.3031L25.0849 21.531L25.0105 20.6989C25.0105 20.6989 24.4886 20.1958 23.8806 20.1958C23.2902 20.1958 23.0523 20.621 22.2455 21.6019C22.2455 21.6019 21.78 20.3772 19.8787 20.3772C18.2705 20.3772 16.3419 21.1259 16.3419 21.1259C16.004 21.5895 16.0482 22.576 18.3658 22.4012L18.0362 23.9245L19.3212 24.107C19.3212 24.107 17.6852 27.7165 18.5821 28.5843C19.4347 29.4029 20.313 30.285 20.6131 30.285C21.8102 30.285 22.5616 29.9729 22.7081 29.8263C22.7761 29.759 22.8209 29.6101 22.8209 29.4231C22.8209 28.7556 22.158 28.6796 21.6355 28.6796C20.5089 28.6796 20.1042 29.0739 20.1042 29.0739L20.3172 28.3458C20.4594 27.8135 22.7323 28.0925 22.7323 28.0925L22.678 27.3875L22.2274 27.4565L21.2742 27.3081L19.0225 27.3687L18.9129 27.2859L21.5958 26.8101L22.1816 26.9288L22.6873 26.8024L22.4125 26.5583L22.1199 26.6736L22.0634 26.0778L20.4622 25.8088L21.7217 25.371L22.5153 25.6856ZM20.4072 22.8068L20.9678 22.3643L20.2688 22.1647C19.8072 22.8134 19.1439 22.4088 19.0575 21.9814L16.5053 21.6244L19.4742 21.1383L21.9036 22.1246L21.4824 22.9546L20.4072 22.8068Z" fill="white"/>
<path d="M24.82 22.254L24.312 22.3496C24.1004 23.1959 23.5004 22.8484 23.409 22.6429L23.1676 23.5181L23.5686 24.8351L23.9061 25.5589L23.3273 26.0443L23.776 26.5506L23.9312 26.9145L24.5842 24.7671L25.1083 23.9073C25.2015 23.7608 24.6802 22.7326 24.6802 22.7326L24.82 22.254ZM19.8672 31.6648L21.2967 32.6438L21.6761 31.3426L20.4231 31.1631L19.8672 31.6648Z" fill="white"/>
</svg>
