<svg width="24" height="24" viewBox="0 0 24 24" fill="none" xmlns="http://www.w3.org/2000/svg">
<path d="M20.0506 19.8293C19.7835 19.8293 19.5666 20.0458 19.5666 20.3131C19.5666 20.5801 19.7835 20.7969 20.0506 20.7969C20.3176 20.7969 20.5341 20.5801 20.5341 20.3131C20.5341 20.0458 20.3176 19.8293 20.0506 19.8293ZM20.0506 20.6931C20.0007 20.6931 19.9512 20.6833 19.9051 20.6643C19.859 20.6452 19.8171 20.6172 19.7818 20.5819C19.7465 20.5466 19.7185 20.5047 19.6994 20.4586C19.6803 20.4125 19.6705 20.363 19.6706 20.3131C19.6706 20.1032 19.8404 19.9334 20.0506 19.9334C20.2605 19.9334 20.4305 20.1032 20.4305 20.3131C20.4305 20.5231 20.2605 20.6931 20.0506 20.6931ZM20.2493 20.201C20.2493 20.1794 20.2451 20.1581 20.2368 20.1382C20.2285 20.1183 20.2165 20.1002 20.2012 20.085C20.186 20.0698 20.1679 20.0577 20.148 20.0495C20.1281 20.0413 20.1067 20.0371 20.0852 20.0371H19.8521V20.5893H19.9557V20.365H20.0301L20.1347 20.5893H20.2493L20.14 20.3555C20.172 20.3441 20.1996 20.3232 20.2192 20.2955C20.2387 20.2679 20.2493 20.2349 20.2493 20.201ZM20.0852 20.2613H19.9557V20.1405H20.0852C20.1185 20.1405 20.1457 20.1676 20.1457 20.201C20.1457 20.217 20.1393 20.2323 20.1279 20.2437C20.1166 20.255 20.1012 20.2613 20.0852 20.2613ZM15.9672 9.03221L13.8771 6.17601L13.1184 6.52709C13.0033 6.49026 12.8053 6.43324 12.5319 6.37719L12.7037 6.20394V4.73118H12.511C12.7797 4.05734 12.1096 2.80875 14.3361 1.68H9.06308C5.376 2.83816 6.42874 9.56588 6.42874 9.56588L6.82535 9.41592C6.82535 9.41592 6.67455 9.89376 6.77014 10.3444C6.77014 10.3444 6.38662 11.2661 6.82851 12.1671L6.56251 12.5436L6.62898 14.5346C5.93509 15.1401 4.65714 14.6796 4.40408 15.7687C4.19887 16.0436 3.5242 16.2567 3.5242 16.2567C2.30605 19.4499 9.40558 19.822 10.7339 21.5979C10.7339 21.5979 12.0017 22.32 13.7925 22.32C17.5546 22.32 20.6153 19.2595 20.6153 15.4972C20.6153 12.5517 18.7505 9.96755 15.9672 9.03221Z" fill="white"/>
<path d="M15.7914 9.26589L13.7869 6.52625L13.1347 6.82837C13.1347 6.82837 12.703 6.66167 11.9528 6.56376L12.4239 6.08862V5.01137H12.0928C12.671 4.07199 11.7578 3.09604 13.4273 1.9599H9.10931C5.84967 3.05911 6.66008 9.17914 6.66008 9.17914L7.28522 8.94265C7.28522 8.94265 6.89567 9.7587 7.06008 10.3745C7.06008 10.3745 6.63096 11.3055 7.15267 12.1935L6.84575 12.6282L6.91218 14.6212C6.47677 15.3782 4.83109 14.9657 4.67974 15.8173C4.61588 16.1771 3.74577 16.4765 3.74577 16.4765C2.83426 19.1948 9.77985 19.7062 10.9235 21.379C11.7897 21.8022 12.7635 22.0401 13.7927 22.0401C17.4063 22.0401 20.3357 19.1107 20.3357 15.4972C20.3357 12.5811 18.4272 10.1105 15.7914 9.26589Z" fill="#010101"/>
<path d="M9.40578 4.72183L9.08596 2.64879C6.79469 3.62662 7.10048 8.32032 7.10048 8.32032L9.43009 4.93851H11.5786C11.9505 4.20273 11.4955 3.0297 12.3189 2.52699H9.48421L9.40578 4.72183ZM8.69618 18.7681C9.63437 18.9782 10.8894 19.7728 10.8894 19.7728C10.797 19.4418 10.5291 19.122 10.5291 19.122C8.95189 18.6243 8.00729 17.6427 8.00729 17.6427L5.60272 16.3209C5.60272 16.3209 7.03495 16.3293 6.90659 15.2699C6.28804 15.7247 5.09479 15.5477 5.09479 16.0396C5.09479 16.5791 6.041 17.128 7.90422 18.3096L5.02364 16.9907L5.19757 16.8029L4.99778 16.417C4.97782 16.5652 4.24609 16.5676 4.24609 17.0604C4.24609 18.7984 10.3949 19.4461 11.5233 21.0897C11.6548 20.2339 9.97264 19.4204 8.69618 18.7681ZM16.8121 16.3194C16.8121 16.5041 15.5101 17.2724 15.5101 17.2724C15.9471 16.6699 16.3001 16.3791 16.3001 16.1182C16.3001 15.8606 15.8391 15.7903 15.7134 15.2972C15.2427 16.0562 15.2193 16.5431 15.2193 16.5431L15.4511 18.1297L14.8205 18.0534C13.5008 19.373 13.6463 20.8211 13.6463 20.8211C14.4757 18.4206 17.2846 18.3859 17.2846 16.1185C17.075 15.9494 16.1913 15.5997 16.1913 15.5997C16.1913 15.5997 16.8121 16.1347 16.8121 16.3194Z" fill="#C8102E"/>
<path d="M15.4408 12.0295L13.5587 10.9525L9.79662 12.233C9.79662 12.233 11.1909 11.8717 12.2168 11.8717C13.3315 11.8717 13.5271 12.4736 13.5271 12.4736C13.5271 12.4736 13.8721 11.8512 14.3924 11.8512C15.0209 11.8512 15.458 12.2176 15.458 12.2176L15.4408 12.0295ZM11.4111 6.60123L11.7262 6.26651H10.0915L8.72556 7.36736L9.93332 5.95136H11.9157V5.37238H9.7595L7.83301 7.9856L7.92486 8.43594C7.92486 8.43594 8.98743 6.60123 11.4111 6.60123H11.4111Z" fill="#C69214"/>
<path d="M10.1451 16.4387C10.1451 15.1715 10.4541 13.8558 10.4541 13.8558C10.4541 13.8558 8.56946 13.986 8.90512 12.3976C8.90512 12.3976 8.49426 12.732 8.12383 12.5866C8.12383 12.5866 8.83056 12.3986 8.83056 11.6269L9.0148 12.189L13.9035 10.2366L15.8284 11.9092L15.7849 11.1561C15.5698 11.2349 15.1066 10.9162 15.1066 10.9162L15.1779 10.8567C15.1779 10.8567 15.4896 11.0176 15.7703 10.9026L15.7272 10.1606L13.6088 7.21518L13.1276 7.39555C13.1276 7.39555 12.0914 6.9576 11.086 6.9576C9.55038 6.9576 7.63753 8.4769 7.63753 10.1554L8.66737 10.231L11.4774 8.14588L8.65251 10.9088C8.65251 10.9088 8.40273 10.4207 8.04475 10.4207C7.79711 10.4207 7.41469 10.7163 7.41469 11.4403C7.41469 12.0096 7.69426 12.2889 7.69426 12.2889L7.36544 12.7346C7.60593 16.304 7.20316 16.6668 6.46973 16.4648L7.90279 17.1556C7.90279 14.6567 7.80939 13.8971 8.05401 13.8971C8.45697 13.8971 8.41511 16.3832 8.52125 17.5506C8.52125 17.5506 9.55551 18.7495 11.6104 18.9456C11.6104 18.9456 10.1451 18.0146 10.1451 16.4387ZM9.68515 9.11096L8.51493 9.87613L7.89479 9.84797C7.89479 9.84797 7.82613 8.5314 9.72424 7.59047C7.51166 9.23861 8.85301 9.34094 9.68515 9.11096ZM14.9957 9.59997C15.5385 10.1634 15.3021 10.3999 15.4703 10.6587L15.4413 10.7064C15.2344 10.5242 15.2316 10.9686 14.637 10.3293L14.6939 10.297C15.0795 10.6296 15.1064 10.3649 15.2507 10.4318C15.1591 10.2676 15.2971 10.0544 14.9932 9.65702L14.9957 9.59997ZM14.2629 9.60558C14.5211 9.91054 14.5948 9.75587 14.672 9.77693C14.6253 9.67624 14.8035 9.58265 14.594 9.14347L14.6138 9.05672C15.0781 9.72304 14.739 9.78783 14.9125 10.0835L14.8882 10.1148C14.7215 9.87307 14.6304 10.2843 14.2186 9.6211L14.2629 9.60562V9.60558ZM13.2465 8.0839C12.9591 8.39472 13.0406 9.887 14.06 9.60681C13.4993 10.5077 12.1227 8.80352 13.2465 8.0839H13.2465ZM12.18 8.86054L12.1942 8.94452C11.8351 9.40512 12.0857 9.43572 12.0275 9.55656C12.1112 9.53241 12.1467 9.75871 12.7017 9.46365L12.756 9.48097C11.9017 10.1318 11.9601 9.62571 11.66 9.87152L11.6226 9.85688C11.9601 9.5743 11.4002 9.55227 12.18 8.86054H12.18ZM11.5469 9.35642L11.554 9.40167C11.0725 9.86374 11.2859 10.0125 11.2134 10.1355C11.3549 10.0921 11.3532 10.4166 12.066 10.0826L12.1448 10.1148C11.1775 10.7585 11.1576 10.2437 10.872 10.4262L10.847 10.3928C11.1111 10.1284 10.7123 9.91209 11.5469 9.35642ZM10.5229 9.94708L10.5463 9.97752C10.2951 10.2285 10.3811 10.4111 10.2876 10.5044C10.5276 10.5044 10.3591 10.8418 11.3457 10.6556L11.4904 10.7461C10.1813 11.233 10.3654 10.6199 9.86211 10.7883L9.84663 10.7536C10.2674 10.5341 9.91123 10.3107 10.5229 9.94708H10.5229ZM9.4505 10.5143L9.47475 10.5443C9.34034 10.6786 9.524 10.7852 9.35078 10.919C9.54351 10.9094 9.46292 11.1298 10.0213 11.0724C10.1229 11.1124 10.2105 11.1936 10.2105 11.1936C9.22243 11.5057 9.25523 11.0474 8.97281 11.1317L8.95946 11.0963C9.25107 10.976 8.94782 10.7957 9.4505 10.5143ZM7.61534 11.8884C7.61534 11.8884 7.74476 12.1522 7.95484 12.1522C8.16511 12.1522 8.68569 11.6423 8.39496 10.9162C9.02071 11.6396 8.41353 12.4051 8.09326 12.4051C7.77279 12.4051 7.61534 11.8884 7.61534 11.8884ZM14.8001 16.9778L14.5597 17.6167L14.9321 17.679L14.8001 16.9778ZM16.4188 10.139V12.2594C17.3608 13.0246 17.9637 14.1918 17.9637 15.4972C17.9637 17.3046 16.8089 18.8462 15.1983 19.4244C14.517 20.5364 14.7071 21.1911 14.7916 21.3817C17.6085 20.905 19.761 18.4478 19.761 15.4972C19.761 13.1482 18.3966 11.1121 16.4188 10.139ZM16.477 11.1669C16.477 11.1669 17.4834 11.5119 17.2773 11.7806C17.071 12.0496 16.477 11.1669 16.477 11.1669L16.477 11.1669ZM17.0674 12.0713C17.1657 11.9873 17.4055 12.181 17.5339 12.0713C17.662 11.9619 17.5083 11.6947 17.6065 11.6107C18.1672 12.2675 17.7189 12.288 17.9584 12.5683C17.7189 12.288 17.6282 12.7277 17.0674 12.0713ZM14.8283 20.486C14.8283 20.486 15.6887 19.8608 15.7901 20.1841C15.8916 20.5076 14.8283 20.486 14.8283 20.486ZM15.9604 20.4924C15.8987 20.3786 16.1378 20.1847 16.0573 20.0365C15.9768 19.8881 15.6836 19.9829 15.6223 19.8694C16.381 19.4577 16.3079 19.9006 16.632 19.7244C16.3079 19.9006 16.719 20.0805 15.9604 20.4924ZM16.8737 19.9872C16.7913 19.8874 16.989 19.6507 16.8818 19.5208C16.7747 19.3911 16.505 19.5398 16.4228 19.4399C17.0888 18.8911 17.1019 19.3399 17.3864 19.1053C17.1019 19.3399 17.5397 19.4381 16.8737 19.9872ZM17.6064 19.3839C17.5081 19.2999 17.6619 19.033 17.5336 18.9233C17.4055 18.8139 17.1657 19.0077 17.0674 18.9233C17.6282 18.267 17.7186 18.7064 17.9584 18.4262C17.7186 18.7064 18.167 18.7274 17.6064 19.3839ZM18.2235 18.6627C18.112 18.5967 18.217 18.3072 18.0718 18.2216C17.9262 18.1361 17.7241 18.3683 17.6126 18.3029C18.0508 17.5587 18.2164 17.9759 18.4035 17.6582C18.2164 17.9759 18.6613 17.9188 18.2235 18.6627ZM18.7057 17.8451C18.5845 17.7996 18.6378 17.4964 18.4796 17.4373C18.3217 17.3781 18.1627 17.6418 18.0419 17.5968C18.344 16.788 18.5796 17.1702 18.7087 16.8246C18.5796 17.1701 19.0078 17.0366 18.7057 17.8451ZM19.0259 17.0022C18.8988 16.9774 18.9011 16.6693 18.7356 16.637C18.5701 16.6048 18.4568 16.8912 18.3301 16.8667C18.4946 16.0191 18.7901 16.3572 18.8604 15.9953C18.7901 16.3572 19.1904 16.1548 19.0259 17.0022ZM19.1715 15.4972C19.1715 15.6682 19.0332 15.8066 18.8626 15.8066C18.6918 15.8066 18.5531 15.6683 18.5531 15.4972C18.5531 15.3268 18.6918 15.1881 18.8626 15.1881C19.0332 15.1881 19.1715 15.3268 19.1715 15.4972ZM18.9988 13.9017C19.1784 14.7462 18.7745 14.5503 18.8512 14.9114C18.7744 14.5503 18.4848 14.8935 18.3053 14.0492C18.432 14.0223 18.5501 14.3065 18.7151 14.2717C18.8802 14.2367 18.8724 13.9287 18.9988 13.9017ZM18.664 13.0643C18.9806 13.8676 18.5499 13.7412 18.6849 14.0842C18.5498 13.7412 18.321 14.1272 18.0045 13.3241C18.1249 13.277 18.2884 13.5379 18.4454 13.4759C18.6023 13.4145 18.5439 13.1118 18.664 13.0643ZM18.1956 12.2939C18.6406 13.0335 18.1946 12.9799 18.3846 13.2961C18.1946 12.9799 18.0327 13.3986 17.5883 12.6589C17.6989 12.592 17.9033 12.8225 18.0477 12.7358C18.1923 12.6488 18.085 12.3601 18.1956 12.2939Z" fill="#C69214"/>
<path d="M13.6279 15.6809L14.0226 15.4896L13.5921 13.8124L13.7643 13.2986L14.948 12.8436L15.2915 12.9912L15.2434 12.4525C15.2434 12.4525 14.9055 12.1268 14.5119 12.1268C14.1296 12.1268 13.9756 12.402 13.4533 13.0371C13.4533 13.0371 13.1519 12.2442 11.921 12.2442C10.8798 12.2442 9.63127 12.7289 9.63127 12.7289C9.41245 13.029 9.44112 13.6677 10.9415 13.5546L10.7281 14.5408L11.5601 14.6589C11.5601 14.6589 10.5009 16.9957 11.0816 17.5575C11.6335 18.0875 12.2021 18.6586 12.3964 18.6586C13.1715 18.6586 13.6579 18.4565 13.7528 18.3616C13.7968 18.318 13.8258 18.2217 13.8258 18.1006C13.8258 17.6684 13.3966 17.6192 13.0584 17.6192C12.329 17.6192 12.067 17.8745 12.067 17.8745L12.2049 17.4031C12.2969 17.0585 13.7684 17.2391 13.7684 17.2391L13.7332 16.7827L13.4416 16.8274L12.8244 16.7313L11.3667 16.7705L11.2957 16.717L13.0326 16.4089L13.4119 16.4858L13.7393 16.4039L13.5614 16.2459L13.372 16.3206L13.3353 15.9348L12.2988 15.7607L13.1141 15.4772L13.6279 15.6809ZM12.2632 13.8171L12.6261 13.5307L12.1736 13.4014C11.8747 13.8214 11.4453 13.5595 11.3893 13.2828L9.73702 13.0516L11.6591 12.737L13.232 13.3754L12.9592 13.9128L12.2632 13.8171Z" fill="white"/>
<path d="M15.12 13.4592L14.7912 13.5211C14.6542 14.069 14.2657 13.844 14.2066 13.711L14.0503 14.2776L14.3099 15.1303L14.5284 15.5989L14.1537 15.9131L14.4441 16.2409L14.5447 16.4765L14.9674 15.0862L15.3067 14.5296C15.3671 14.4347 15.0295 13.7691 15.0295 13.7691L15.12 13.4592ZM11.9136 19.5518L12.8391 20.1857L13.0847 19.3433L12.2735 19.2271L11.9136 19.5518Z" fill="white"/>
</svg>
