<svg width="40" height="40" viewBox="0 0 40 40" fill="none" xmlns="http://www.w3.org/2000/svg">
<path d="M18.0949 26.2906C17.7199 26.2906 17.4155 26.5946 17.4155 26.9698C17.4155 27.3446 17.72 27.649 18.0949 27.649C18.4699 27.649 18.7738 27.3446 18.7738 26.9698C18.7738 26.5946 18.4699 26.2906 18.0949 26.2906H18.0949ZM18.0949 27.5033C18.0249 27.5033 17.9555 27.4896 17.8907 27.4628C17.826 27.436 17.7671 27.3967 17.7176 27.3472C17.668 27.2976 17.6287 27.2388 17.6019 27.1741C17.5751 27.1093 17.5614 27.0399 17.5615 26.9698C17.5615 26.6751 17.7998 26.4367 18.0949 26.4367C18.3896 26.4367 18.6282 26.6751 18.6282 26.9698C18.6282 27.2647 18.3896 27.5033 18.0949 27.5033H18.0949ZM18.374 26.8124C18.374 26.7821 18.368 26.7522 18.3564 26.7242C18.3448 26.6963 18.3278 26.6709 18.3064 26.6496C18.285 26.6282 18.2596 26.6113 18.2317 26.5997C18.2037 26.5882 18.1738 26.5822 18.1435 26.5823H17.8163V27.3575H17.9617V27.0427H18.0661L18.2131 27.3575H18.374L18.2205 27.0292C18.2654 27.0133 18.3042 26.9839 18.3316 26.9451C18.3591 26.9063 18.3739 26.8599 18.374 26.8124H18.374ZM18.1435 26.8971H17.9617V26.7275H18.1435C18.1902 26.7275 18.2285 26.7655 18.2285 26.8124C18.2284 26.8349 18.2194 26.8564 18.2035 26.8723C18.1876 26.8882 18.166 26.8971 18.1435 26.8971Z" fill="white"/>
<path d="M25.624 9.47363H4.83984V10.1309C4.83984 11.9567 5.71412 13.5673 7.03849 14.5143H4.83984V15.172C4.83984 16.9972 5.71412 18.6075 7.03849 19.5548H4.83984V20.2125C4.83984 22.0376 5.71412 23.648 7.03849 24.5952H4.83984V25.2532C4.83984 28.1607 7.05687 30.5264 9.78198 30.5264H14.487L17.9581 24.6583C19.7545 27.0918 22.5921 28.5454 25.624 28.5454C30.8821 28.5454 35.1599 24.2677 35.1599 19.0098C35.1599 13.7515 30.8821 9.47363 25.624 9.47363Z" fill="white"/>
<path d="M25.6243 10.1309H5.6875C5.6875 12.6805 7.60579 14.7471 9.97218 14.7471H17.4823C17.5993 14.7471 17.6943 14.8422 17.6943 14.9594C17.6943 15.0766 17.5993 15.172 17.4823 15.172H5.6875C5.6875 17.7212 7.60579 19.7878 9.97218 19.7878H14.5007C14.6177 19.7878 14.7131 19.8829 14.7131 20.0005C14.7131 20.1171 14.6177 20.2125 14.5007 20.2125H5.68754C5.68754 22.7616 7.60579 24.8283 9.97218 24.8283H11.5192C11.5755 24.8283 11.6295 24.8507 11.6693 24.8905C11.7091 24.9303 11.7314 24.9843 11.7314 25.0406C11.7314 25.0969 11.7091 25.1509 11.6693 25.1908C11.6295 25.2307 11.5755 25.2531 11.5192 25.2532H5.68754C5.68754 27.802 7.60579 29.8688 9.97218 29.8688H14.1126L21.8523 16.7831C22.6147 15.4943 24.0183 14.63 25.6242 14.63C28.0431 14.63 30.0039 16.5908 30.0039 19.0098C30.0039 21.4281 28.0431 23.3895 25.6243 23.3895C23.2358 23.3895 21.2941 21.4771 21.2456 19.1L18.3169 24.0522C19.9187 26.369 22.5939 27.888 25.6243 27.888C30.5276 27.888 34.5026 23.9128 34.5026 19.0098C34.5026 14.106 30.5276 10.1309 25.6243 10.1309Z" fill="#010101"/>
<path d="M25.6244 16.49C24.2327 16.49 23.105 17.6181 23.105 19.0098C23.105 20.4009 24.2327 21.5291 25.6244 21.5291C27.0161 21.5291 28.144 20.4009 28.144 19.0098C28.144 17.6181 27.0161 16.49 25.6244 16.49Z" fill="#FA4616"/>
</svg>
