<svg width="24" height="24" viewBox="0 0 24 24" fill="none" xmlns="http://www.w3.org/2000/svg">
<path d="M13.4493 19.4676C13.1951 19.4676 12.9888 19.6736 12.9888 19.9279C12.9888 20.182 13.1951 20.3883 13.4493 20.3883C13.7034 20.3883 13.9094 20.182 13.9094 19.9279C13.9094 19.6736 13.7034 19.4676 13.4493 19.4676ZM13.4493 20.2895C13.4018 20.2895 13.3547 20.2802 13.3108 20.2621C13.2669 20.2439 13.2271 20.2173 13.1935 20.1837C13.1599 20.1501 13.1333 20.1102 13.1151 20.0663C13.0969 20.0224 13.0876 19.9754 13.0876 19.9279C13.0876 19.7281 13.2492 19.5666 13.4493 19.5666C13.649 19.5666 13.8108 19.7281 13.8108 19.9279C13.8108 20.1278 13.649 20.2895 13.4493 20.2895ZM13.6384 19.8212C13.6384 19.8007 13.6343 19.7804 13.6265 19.7615C13.6186 19.7425 13.6071 19.7253 13.5926 19.7108C13.5781 19.6964 13.5609 19.6849 13.5419 19.677C13.523 19.6692 13.5027 19.6652 13.4822 19.6652H13.2604V20.1907H13.359V19.9773H13.4297L13.5294 20.1907H13.6384L13.5344 19.9682C13.5648 19.9574 13.5911 19.9375 13.6097 19.9112C13.6283 19.8848 13.6383 19.8534 13.6384 19.8212ZM13.4822 19.8786H13.359V19.7636H13.4822C13.5139 19.7636 13.5398 19.7894 13.5398 19.8212C13.5398 19.8365 13.5337 19.8511 13.5229 19.8618C13.5121 19.8726 13.4974 19.8786 13.4822 19.8786Z" fill="white"/>
<path d="M20.9063 5.102H19.5752C19.5211 4.94745 19.4306 4.79603 19.2971 4.66284C18.9109 4.27607 18.392 4.21322 18.0898 4.5152C18.026 4.57925 17.9783 4.65554 17.9466 4.74021C17.8576 4.67509 17.7461 4.61616 17.6132 4.5635C17.4263 4.17109 17.1623 3.6163 16.5691 3.6163C16.3573 3.6163 16.1675 3.68206 16.0184 3.75612C15.581 3.40973 14.6327 2.76138 13.6648 2.76138C12.6049 2.76138 11.1343 3.73463 10.703 3.73463C10.3889 3.73463 9.68407 2.17964 8.58987 2.17964C8.00209 2.17964 7.40658 2.57801 6.697 3.00602C6.0201 3.41145 5.83913 3.90179 5.6433 4.41881C5.57656 4.58738 5.28139 4.89577 5.07649 5.102H1.68018L7.46357 15.1591H3.50412L2.24313 17.4299H8.05279C8.25196 17.4299 8.47319 17.3617 8.67031 17.258L11.2935 21.8204L13.8462 17.3808H15.9721V16.1358H15.8294C15.828 15.7033 15.5006 15.2317 15.3364 15.0235L15.3051 14.8437L15.7928 13.9948L18.6357 12.9464C19.0973 12.7762 19.3116 12.3627 19.4114 12.0395C19.4114 12.0395 19.725 12.0364 20.011 11.7079C20.2115 11.7596 20.4665 11.8129 20.6641 11.8129C21.0942 11.8129 21.546 11.567 21.6627 11.1092C21.6627 11.1092 22.1181 10.8294 22.3202 9.96915L18.7813 8.79758L20.9063 5.102Z" fill="white"/>
<path d="M18.1488 9.45787L18.5931 9.60487L18.5902 9.89141C18.3536 9.88242 18.1643 9.83737 18.1643 10.5292C18.1643 11.0454 18.2627 11.2127 18.2627 11.3582C18.2627 11.6052 18.2417 11.6638 17.4654 11.6638C17.4654 11.6638 17.3442 11.5166 16.9183 11.3517C16.9183 11.3517 16.9103 11.3123 16.8929 11.24L20.181 5.52187H19.1849C19.2586 5.38034 19.1859 5.14502 19.0003 4.95935C18.7902 4.74944 18.5153 4.68334 18.3867 4.81195C18.3281 4.87036 18.3103 4.95917 18.3274 5.05848L17.918 5.48781C17.929 5.42297 17.9522 5.08223 17.309 4.89859C17.1152 4.51517 16.9536 4.03584 16.569 4.03584C16.2548 4.03584 15.982 4.27484 15.982 4.27484C15.982 4.27484 14.8071 3.18089 13.6647 3.18089C12.6731 3.18089 11.3051 4.15448 10.7029 4.15448C10.0604 4.15448 9.49268 2.59909 8.58976 2.59909C8.10445 2.59909 7.5314 2.98942 6.91465 3.36499C6.29818 3.73939 6.18322 4.19834 6.03291 4.57467C5.93335 4.82411 5.618 5.15846 5.24961 5.52187H2.40625L8.18154 15.566C8.13766 15.5739 8.095 15.5793 8.05593 15.5793H3.75109L2.95625 17.0099H8.05268C8.26943 17.0099 8.56653 16.8796 8.71285 16.7196L8.79418 16.6316L11.2934 20.978L13.603 16.9609H15.5525V16.5556H15.0841L15.0009 16.295H15.0723L15.4098 16.1389C15.4098 15.7494 14.9415 15.2026 14.9415 15.2026L14.8651 14.7665L15.5048 13.6537L18.4906 12.5525C19.0199 12.3575 19.079 11.5859 19.079 11.5859C19.079 11.5859 19.5644 11.8139 19.8326 11.2216C19.8326 11.2216 20.371 11.3937 20.6639 11.3937C20.9182 11.3937 21.2737 11.2563 21.2737 10.8743C21.2737 10.8743 21.6658 10.6394 21.7939 10.2376L18.2762 9.07242L18.1488 9.45787ZM18.4413 5.2175C18.5639 5.2175 18.6344 5.26495 18.6344 5.33366C18.6344 5.40204 18.3864 5.7278 18.0719 5.7278C18.0056 5.7278 17.9902 5.69155 17.9902 5.67102C17.9902 5.57082 18.318 5.2175 18.4413 5.2175H18.4413ZM18.1762 5.89302C18.4663 6.24296 18.4767 6.62709 18.4767 6.62709L18.0923 5.9525C18.0923 5.88375 18.1762 5.89302 18.1762 5.89302ZM17.9976 6.12313C17.9976 6.12313 18.4213 6.59196 18.4213 6.85637C18.4213 7.00122 18.3056 6.943 18.3056 6.943L17.8951 6.32806L17.9976 6.12313ZM18.0661 7.25931C17.8648 7.25931 17.6731 6.71299 17.6731 6.71299C17.6731 6.71299 17.6933 6.60251 17.8009 6.60251C18.1447 6.89577 18.0661 7.25931 18.0661 7.25931ZM17.3816 6.96894C17.7231 6.96894 17.8575 7.59093 17.8273 7.70384C17.496 7.70384 17.3816 6.96894 17.3816 6.96894ZM17.5017 8.08809C17.0192 8.08809 16.7748 7.21613 16.7748 7.21613C16.7748 7.21613 16.7845 7.09531 17.1261 7.1221C17.1261 7.1221 17.6109 7.61459 17.5017 8.08809ZM17.8223 5.9006C17.8223 6.33884 17.3153 6.87711 17.0641 6.87711C16.9318 6.87711 16.9118 6.77225 16.9118 6.77225C16.9118 6.77225 17.2251 6.106 17.6895 5.80694C17.6895 5.80694 17.8223 5.81041 17.8223 5.9006ZM17.3738 5.22564C17.5839 5.10558 17.8944 5.49386 17.5979 5.64411C17.1601 5.85838 16.6892 6.7639 16.6892 6.7639C16.4781 6.7995 16.3995 6.67012 16.3995 6.67012C16.3995 6.67012 16.4927 5.79641 17.3738 5.22564ZM12.0403 12.8093C11.8773 12.995 11.4198 12.6764 11.5934 12.4946L16.3748 7.46928C16.5519 7.29245 16.7867 7.51139 16.6189 7.6992L12.0404 12.8092L12.0403 12.8093ZM12.3653 13.3952L12.3234 13.5322L12.1611 13.5068L12.187 13.2664C12.282 13.2403 12.3215 13.3692 12.3653 13.3952ZM11.8732 13.1612C12.0377 13.1612 12.031 13.3977 12.031 13.7894C12.031 14.0506 11.9311 14.1555 11.8625 14.1555C11.7393 14.1555 11.7456 13.9665 11.7078 13.8993C11.7078 13.8993 11.7587 13.8328 11.7587 13.6996C11.7587 13.5659 11.6916 13.1612 11.8732 13.1612ZM9.63904 12.6948C9.53166 12.8016 9.33878 12.7882 9.33878 12.7882C9.33878 12.7882 8.81382 12.3263 9.13415 11.8823C9.47356 12.0902 9.639 12.6948 9.639 12.6948H9.63904ZM9.38954 11.7292C9.38954 11.5305 9.81227 11.3909 9.81227 11.7638C9.81227 12.2357 9.90311 12.2281 9.90311 12.2929C9.90311 12.3806 9.73236 12.3181 9.73236 12.3181C9.73236 12.1739 9.38957 11.9275 9.38957 11.7292H9.38954ZM10.2746 12.6378C10.4798 12.6378 10.4084 12.8991 10.4084 12.8991C10.0402 12.8113 9.49357 13.3345 9.49357 13.3345C9.49357 13.3345 9.45653 13.2528 9.45653 13.1611C9.45653 12.9833 9.85732 12.6378 10.2746 12.6378H10.2746ZM9.98084 11.6947C9.98084 11.4245 10.2375 11.2948 10.2375 12.0453C10.1479 12.1345 9.98084 11.9958 9.98084 11.6947V11.6947ZM9.80086 13.3607C10.1422 14.4588 10.4528 15.0495 10.4528 15.0495L10.3315 15.1129C10.3315 15.1129 9.71109 14.6744 9.62163 13.6427L9.80086 13.3607ZM10.0496 13.2241C10.6496 12.8932 10.887 13.8993 10.887 13.8993C10.887 14.8582 10.7932 15.0186 10.7932 15.0186C10.6532 14.9822 10.3212 14.3341 10.0496 13.2241ZM10.6732 12.3947C10.6061 12.4325 10.4605 12.4398 10.4605 12.2213C10.4605 12.0099 10.3912 11.7042 10.4857 11.498C10.8162 11.6542 10.5898 12.2287 10.6732 12.3947ZM10.6371 12.8647C10.6371 12.7928 10.7273 12.6767 10.8982 12.6767C11.0694 12.6767 11.2282 12.7061 11.2282 12.8879C11.2282 13.1099 10.9596 13.2585 10.9126 13.2585C10.8299 13.2585 10.6371 13.0534 10.6371 12.8647ZM10.8187 11.6091C10.8187 11.6091 11.0793 11.5818 11.0793 11.9035C11.0793 12.03 11.0796 12.2418 11.0923 12.3352C11.0336 12.426 10.8617 12.3524 10.8617 12.3524C10.8617 12.3524 10.7756 11.8753 10.8187 11.6091ZM11.1264 13.6427C11.1264 13.6427 11.4769 13.2904 11.4769 14.1379C11.4769 14.8541 10.9947 15.2148 10.9947 14.9326C10.9947 14.759 11.1756 14.7788 11.1263 13.6427H11.1264ZM11.297 11.8569C11.297 11.8569 11.4648 11.7796 11.4648 12.129C11.4648 12.4813 11.4277 12.4604 11.3745 12.49C11.3745 12.49 11.2312 12.2724 11.297 11.8569ZM11.4643 13.422C11.4127 13.422 11.3233 13.3669 11.3233 13.2955C11.3233 13.0764 11.3822 12.9493 11.4886 12.9493C11.5532 12.9493 11.5801 13.0202 11.5801 13.0956C11.5801 13.3403 11.5001 13.422 11.4643 13.422ZM16.2873 7.01914C16.2873 7.01914 16.4559 6.94543 16.5507 7.24556C16.4002 7.23764 16.3087 7.30396 16.3087 7.30396C16.3087 7.30396 16.2197 7.11965 16.2873 7.01914ZM16.7594 4.23768L16.9454 4.63614C16.7482 4.63614 16.6112 4.33849 16.6112 4.28064C16.6112 4.20533 16.7417 4.19935 16.7594 4.23768ZM16.3473 4.26069L16.9369 5.06317C16.9369 5.06317 16.8909 5.1588 16.8095 5.07176L16.1676 4.38833C16.1676 4.38833 16.1982 4.26069 16.3473 4.26069ZM16.0482 4.55841L16.7499 5.36214C16.7878 5.40013 16.6595 5.50183 16.5869 5.43073L15.792 4.6532C15.792 4.6532 15.955 4.4517 16.0482 4.55841ZM15.6299 4.83034C15.7479 4.83034 16.5031 5.4137 16.5031 5.58595C16.5031 5.6059 16.448 5.68376 16.416 5.66108L15.4587 4.97731C15.4587 4.97731 15.512 4.83034 15.6299 4.83034ZM15.2996 5.20732C15.669 5.37481 15.9973 5.58356 16.33 5.80436C16.3853 5.84159 16.2983 6.01452 16.2446 5.98607L15.2379 5.43972C15.2379 5.43972 15.2071 5.33022 15.2996 5.20732ZM15.1852 5.66108C15.3905 5.71969 16.0633 6.09115 16.1504 6.14878C16.2252 6.19739 16.1185 6.30867 16.0826 6.29348L15.1336 5.84951C15.1336 5.84951 15.0703 5.77831 15.1852 5.66108ZM15.0045 6.04555C15.3815 6.15182 15.8598 6.40485 15.8598 6.40485C15.1873 6.43851 14.9794 6.12316 14.9794 6.12316L15.0045 6.04555ZM10.7533 5.94906C12.1836 5.94906 13.7702 7.3093 14.8578 8.81759L11.8848 11.9415C10.2245 11.0645 8.61551 9.6723 8.61551 7.88266C8.61551 6.88865 9.47663 5.94906 10.7533 5.94906ZM6.87902 3.8069C7.11741 3.69314 7.28491 3.92054 7.28491 3.92054C7.25232 4.0085 6.99202 4.19336 6.99202 4.37777C6.99202 4.47708 7.48322 4.48546 7.48322 4.86505C7.48322 5.03092 7.39852 5.11427 7.39852 5.11427L7.20414 5.13044C7.20414 5.13044 7.28783 5.04826 7.28783 4.89239C7.28783 4.75843 7.15289 4.64295 7.05889 4.64295C6.77972 4.64295 6.8453 5.04688 6.6515 4.88662C6.70904 4.57218 6.84321 4.32622 6.87902 3.8069ZM5.939 5.1591C6.45917 5.67971 6.69394 6.25199 6.69394 6.25199C6.58899 6.51217 5.44531 7.03234 5.44531 7.03234L6.12178 5.78402L4.43016 7.24111C4.43016 7.24111 4.45622 6.5644 4.6642 6.33015C4.8726 6.09686 5.939 5.1591 5.939 5.1591ZM3.95253 16.8323H3.25847L3.85561 15.7572H4.55022L3.95253 16.8323ZM8.58175 16.5991C8.4683 16.7232 8.22125 16.8323 8.05268 16.8323H7.54294L8.02936 15.7572H8.05593C8.3185 15.7572 8.66857 15.6112 8.85387 15.4245L9.67549 14.5959L9.99723 15.0552L8.58175 16.5991ZM13.986 16.295H14.5234L14.4487 16.5556H13.8364L13.986 16.295V16.295ZM12.3107 16.0486C12.2667 15.9924 12.3141 15.8821 12.4149 15.8027C12.5173 15.7224 12.6364 15.704 12.6798 15.7608C12.7244 15.8169 12.6776 15.9276 12.5758 16.0075C12.4736 16.0871 12.3548 16.1053 12.3107 16.0486ZM14.9843 16.6929H15.4158V16.8244H11.997C12.0505 16.5368 12.2151 16.3373 12.2526 16.295H12.3713L12.5966 16.6929H12.9685L13.0949 16.295H13.3034L13.4491 16.6929H14.5523L14.6655 16.295H14.8574L14.9843 16.6929ZM15.1242 12.9955C14.6389 12.9955 13.7144 12.7666 12.7115 12.3359L15.2866 9.46125C15.8401 10.3667 16.1852 11.2637 16.1852 11.8996C16.1852 12.8716 15.5732 12.9955 15.1242 12.9955V12.9955ZM19.0518 10.0172L19.1965 9.80456L20.0556 10.0887L20.0633 10.3527L19.0518 10.0172ZM20.6957 11.1659C20.5698 11.1961 20.4542 11.1643 20.4378 11.0939C20.4203 11.0248 20.5093 10.9428 20.635 10.9125C20.7598 10.8823 20.8764 10.9153 20.8926 10.9848C20.9098 11.0546 20.8215 11.1357 20.6957 11.1659ZM20.5442 10.512L20.6964 10.3013L20.8797 10.3622L20.9351 10.6415L20.5442 10.512ZM18.3631 9.24557L21.6114 10.3207C21.4973 10.5413 21.3018 10.6897 21.2302 10.7393L21.0842 10.6911L20.9987 10.2569L20.6447 10.1397L20.4078 10.4666L20.2018 10.3983L20.1891 9.98919L19.1411 9.64216L18.9163 9.97268L18.7267 9.90976L18.731 9.50615L18.3216 9.37069L18.3631 9.24554L18.3631 9.24557Z" fill="#010101"/>
<path d="M9.39921 13.5626C9.21471 13.1181 9.29622 13.0168 9.29622 13.0168C9.29622 13.0168 8.70353 12.5298 8.87938 11.924C8.87938 11.924 7.35385 9.71351 7.35385 8.40289C7.35385 7.72446 7.68307 7.79047 7.68307 7.23587C7.68307 6.78051 7.37152 6.4402 7.14836 6.4402C6.8925 6.4402 6.09389 6.96752 4.92429 7.65682L5.36694 6.64232L4.30021 7.73554C4.30021 7.73554 4.09183 6.66837 4.66583 6.09492C4.75885 6.00111 4.85426 5.90852 4.94902 5.81584H2.91406L8.46744 15.4729C8.56862 15.4246 8.66207 15.3652 8.72731 15.299L9.60277 14.4164C9.46274 14.0885 9.39924 13.7487 9.39924 13.5626H9.39921ZM16.0859 6.79852L15.982 6.56437C15.4439 6.65502 14.9624 6.38223 14.8247 6.31125C14.6868 6.24125 14.8373 5.93979 14.8373 5.93979C14.8373 5.93979 14.8 5.87476 14.7154 5.81581H14.1526C14.0467 5.91095 14.0219 6.0577 14.1085 6.14703C14.7058 6.76685 15.1852 7.43203 15.5672 8.07324L16.1915 7.41693L16.0859 6.79855V6.79852ZM18.3681 5.90527C18.6949 6.29148 18.56 6.68691 18.56 6.68691C18.56 6.98566 18.4021 6.98066 18.4021 6.98066C18.4021 7.67551 18.0374 7.55349 18.0374 7.55349C18.0374 8.46801 17.03 8.09729 17.03 8.09729C16.8657 8.07603 16.7288 8.03046 16.6174 7.97638L15.9354 8.73746C16.3776 9.59824 16.6426 10.3632 16.784 10.8399L19.672 5.81581H18.4485L18.3681 5.90527ZM13.6922 13.1985C13.6922 13.1371 12.7764 12.8939 12.4171 12.7563C12.0887 12.8853 12.5153 12.9512 12.5153 13.3778C12.5153 13.6306 12.3923 13.9272 12.3923 13.9272L12.2094 13.979C12.2094 13.979 11.8454 14.6505 11.6116 14.5516C11.2778 15.1386 11.1412 15.2744 10.611 15.2744C10.4406 15.2744 10.2907 15.2248 10.159 15.1418L9.00216 16.4035L11.2934 20.3883L13.264 16.9609H11.8474C11.8474 16.596 12.0794 16.295 12.0794 16.295C12.0794 15.7141 12.4372 15.5904 12.7037 15.5666C13.27 15.5168 13.5009 15.566 13.5009 15.2893C13.5009 15.0939 13.4838 14.8633 13.4838 14.8633H13.6922C13.6922 14.1024 13.4794 13.9176 13.4794 13.5293C13.4794 13.3805 13.6922 13.3163 13.6922 13.1985ZM13.5263 16.5046L13.6468 16.295H13.4488L13.5263 16.5046Z" fill="#FFB81C"/>
<path d="M12.6758 16.5556H12.8683L12.9513 16.295H12.5283L12.6758 16.5556ZM14.599 14.6384L15.0432 13.8659L14.5478 14.109L14.599 14.6384Z" fill="#FFB81C"/>
</svg>
