<svg width="40" height="40" viewBox="0 0 40 40" fill="none" xmlns="http://www.w3.org/2000/svg">
<path d="M22.0579 30.608C21.6969 30.608 21.4038 30.9007 21.4038 31.2619C21.4038 31.6228 21.6969 31.9159 22.0579 31.9159C22.419 31.9159 22.7116 31.6228 22.7116 31.262C22.7116 30.9007 22.419 30.608 22.0579 30.608ZM22.0579 31.7756C21.9905 31.7757 21.9237 31.7624 21.8613 31.7366C21.799 31.7108 21.7423 31.673 21.6946 31.6253C21.6469 31.5776 21.6091 31.5209 21.5833 31.4586C21.5575 31.3963 21.5442 31.3294 21.5443 31.262C21.5443 30.9782 21.7738 30.7486 22.0579 30.7486C22.3417 30.7486 22.5715 30.9782 22.5715 31.262C22.5715 31.5459 22.3417 31.7756 22.0579 31.7756ZM22.3266 31.1103C22.3266 31.0812 22.3208 31.0524 22.3097 31.0255C22.2985 30.9986 22.2822 30.9742 22.2616 30.9536C22.241 30.933 22.2165 30.9167 22.1896 30.9056C22.1627 30.8945 22.1338 30.8888 22.1047 30.8888H21.7896V31.6353H21.9297V31.3321H22.0302L22.1717 31.6353H22.3267L22.1789 31.3192C22.222 31.3038 22.2594 31.2755 22.2859 31.2382C22.3123 31.2008 22.3265 31.1561 22.3266 31.1103ZM22.1047 31.192H21.9297V31.0286H22.1047C22.1498 31.0286 22.1866 31.0652 22.1866 31.1104C22.1865 31.132 22.1779 31.1528 22.1625 31.1681C22.1472 31.1834 22.1264 31.192 22.1047 31.192Z" fill="white"/>
<path d="M32.6515 10.2011H30.7606C30.6837 9.98154 30.5551 9.76644 30.3655 9.57724C29.8169 9.02782 29.0798 8.93854 28.6505 9.36751C28.5598 9.45849 28.4921 9.56687 28.4471 9.68715C28.3206 9.59464 28.1623 9.51094 27.9734 9.43613C27.7079 8.87868 27.333 8.09058 26.4903 8.09058C26.1893 8.09058 25.9198 8.184 25.7079 8.2892C25.0866 7.79715 23.7396 6.87612 22.3645 6.87612C20.8589 6.87612 18.7698 8.25868 18.1572 8.25868C17.7109 8.25868 16.7098 6.04974 15.1554 6.04974C14.3204 6.04974 13.4745 6.61565 12.4665 7.22366C11.5049 7.79959 11.2478 8.49614 10.9697 9.23058C10.8748 9.47004 10.4555 9.90813 10.1645 10.2011H5.33984L13.5554 24.4877H7.93085L6.13954 27.7134H14.3924C14.6754 27.7134 14.9896 27.6166 15.2696 27.4692L18.9961 33.9503L22.6222 27.6437H25.6422V25.875H25.4394C25.4374 25.2607 24.9724 24.5908 24.7392 24.2951L24.6946 24.0396L25.3875 22.8337L29.4259 21.3445C30.0816 21.1027 30.3862 20.5152 30.5278 20.0561C30.5278 20.0561 30.9734 20.0517 31.3797 19.5851C31.6644 19.6584 32.0267 19.7342 32.3073 19.7342C32.9184 19.7342 33.5602 19.3849 33.7259 18.7346C33.7259 18.7346 34.3728 18.3371 34.6599 17.1151L29.6327 15.4508L32.6515 10.2011Z" fill="white"/>
<path d="M28.7346 16.3888L29.3658 16.5976L29.3617 17.0047C29.0255 16.9919 28.7566 16.9279 28.7566 17.9107C28.7566 18.644 28.8964 18.8816 28.8964 19.0884C28.8964 19.4392 28.8665 19.5224 27.7638 19.5224C27.7638 19.5224 27.5916 19.3134 26.9867 19.0791C26.9867 19.0791 26.9753 19.0231 26.9506 18.9204L31.6214 10.7975H30.2064C30.3111 10.5965 30.2079 10.2622 29.9442 9.99846C29.6457 9.70027 29.2553 9.60637 29.0725 9.78907C28.9892 9.87204 28.964 9.9982 28.9884 10.1393L28.4067 10.7492C28.4224 10.657 28.4552 10.173 27.5416 9.91214C27.2664 9.36747 27.0368 8.68657 26.4904 8.68657C26.044 8.68657 25.6566 9.02608 25.6566 9.02608C25.6566 9.02608 23.9875 7.47207 22.3647 7.47207C20.9561 7.47207 19.0127 8.8551 18.1574 8.8551C17.2447 8.8551 16.4382 6.6456 15.1555 6.6456C14.4661 6.6456 13.6521 7.20008 12.776 7.73359C11.9002 8.26544 11.7369 8.9174 11.5234 9.452C11.382 9.80634 10.934 10.2813 10.4107 10.7975H6.37158L14.5756 25.0656C14.5133 25.0769 14.4527 25.0846 14.3972 25.0846H8.28198L7.15288 27.1168H14.3926C14.7005 27.1168 15.1225 26.9317 15.3304 26.7044L15.4459 26.5794L18.9962 32.7537L22.2771 27.0472H25.0464V26.4715H24.381L24.2629 26.1012H24.3643L24.8437 25.8795C24.8437 25.3262 24.1785 24.5495 24.1785 24.5495L24.07 23.9299L24.9787 22.3492L29.2201 20.7849C29.9721 20.5078 30.056 19.4118 30.056 19.4118C30.056 19.4118 30.7456 19.7357 31.1265 18.8943C31.1265 18.8943 31.8913 19.1387 32.3074 19.1387C32.6686 19.1387 33.1736 18.9436 33.1736 18.401C33.1736 18.401 33.7306 18.0673 33.9127 17.4964L28.9156 15.8413L28.7346 16.3888ZM29.1501 10.3652C29.3243 10.3652 29.4244 10.4326 29.4244 10.5302C29.4244 10.6273 29.0721 11.0901 28.6253 11.0901C28.5311 11.0901 28.5094 11.0386 28.5094 11.0094C28.5094 10.8671 28.9749 10.3652 29.1501 10.3652H29.1501ZM28.7735 11.3248C29.1857 11.8219 29.2003 12.3676 29.2003 12.3676L28.6543 11.4093C28.6543 11.3116 28.7735 11.3248 28.7735 11.3248ZM28.5199 11.6517C28.5199 11.6517 29.1217 12.3176 29.1217 12.6933C29.1217 12.899 28.9573 12.8163 28.9573 12.8163L28.3742 11.9428L28.5199 11.6517ZM28.6172 13.2657C28.3311 13.2657 28.0588 12.4896 28.0588 12.4896C28.0588 12.4896 28.0875 12.3326 28.2405 12.3326C28.7288 12.7492 28.6172 13.2657 28.6172 13.2657ZM27.6448 12.8532C28.1299 12.8532 28.3208 13.7367 28.2779 13.8971C27.8073 13.8971 27.6448 12.8532 27.6448 12.8532ZM27.8153 14.443C27.1299 14.443 26.7828 13.2043 26.7828 13.2043C26.7828 13.2043 26.7966 13.0327 27.2818 13.0707C27.2818 13.0707 27.9704 13.7704 27.8153 14.443ZM28.2708 11.3355C28.2708 11.9581 27.5506 12.7227 27.1938 12.7227C27.0058 12.7227 26.9774 12.5738 26.9774 12.5738C26.9774 12.5738 27.4224 11.6273 28.0821 11.2025C28.0821 11.2025 28.2708 11.2074 28.2708 11.3355ZM27.6337 10.3767C27.9322 10.2062 28.3732 10.7577 27.9521 10.9712C27.3301 11.2756 26.6612 12.5619 26.6612 12.5619C26.3612 12.6125 26.2496 12.4287 26.2496 12.4287C26.2496 12.4287 26.3821 11.1875 27.6337 10.3767ZM20.0572 21.1496C19.8257 21.4134 19.1757 20.9608 19.4224 20.7026L26.2146 13.5639C26.4661 13.3127 26.7996 13.6237 26.5612 13.8905L20.0573 21.1496L20.0572 21.1496ZM20.5189 21.982L20.4594 22.1766L20.2287 22.1405L20.2656 21.7989C20.4005 21.7619 20.4566 21.945 20.5189 21.982ZM19.8198 21.6496C20.0534 21.6496 20.044 21.9855 20.044 22.5419C20.044 22.9131 19.9021 23.062 19.8046 23.062C19.6297 23.062 19.6386 22.7936 19.5849 22.6981C19.5849 22.6981 19.6571 22.6036 19.6571 22.4144C19.6571 22.2244 19.5618 21.6496 19.8198 21.6496ZM16.6461 20.9871C16.4935 21.1388 16.2196 21.1197 16.2196 21.1197C16.2196 21.1197 15.4738 20.4636 15.9289 19.8328C16.411 20.1282 16.646 20.9871 16.646 20.9871H16.6461ZM16.2917 19.6153C16.2917 19.333 16.8922 19.1348 16.8922 19.6645C16.8922 20.3348 17.0212 20.324 17.0212 20.4161C17.0212 20.5407 16.7787 20.4518 16.7787 20.4518C16.7787 20.2471 16.2917 19.897 16.2917 19.6153H16.2917ZM17.5489 20.906C17.8405 20.906 17.739 21.2773 17.739 21.2773C17.216 21.1526 16.4394 21.8958 16.4394 21.8958C16.4394 21.8958 16.3868 21.7797 16.3868 21.6494C16.3868 21.3968 16.9562 20.906 17.5489 20.906H17.5489ZM17.1316 19.5663C17.1316 19.1825 17.4962 18.9982 17.4962 20.0644C17.3689 20.1911 17.1316 19.994 17.1316 19.5663V19.5663ZM16.876 21.933C17.3609 23.4929 17.8021 24.332 17.8021 24.332L17.6297 24.422C17.6297 24.422 16.7484 23.7991 16.6214 22.3335L16.876 21.933ZM17.2294 21.739C18.0817 21.2688 18.4189 22.6981 18.4189 22.6981C18.4189 24.0603 18.2857 24.288 18.2857 24.288C18.0867 24.2364 17.6152 23.3156 17.2294 21.739ZM18.1151 20.5607C18.0198 20.6144 17.813 20.6247 17.813 20.3143C17.813 20.0141 17.7145 19.5799 17.8488 19.2869C18.3183 19.5088 17.9966 20.325 18.1151 20.5607ZM18.0639 21.2284C18.0639 21.1262 18.1921 20.9614 18.4348 20.9614C18.6779 20.9614 18.9035 21.0031 18.9035 21.2613C18.9035 21.5767 18.522 21.7878 18.4553 21.7878C18.3378 21.7878 18.0639 21.4964 18.0639 21.2284ZM18.3219 19.4448C18.3219 19.4448 18.6921 19.406 18.6921 19.863C18.6921 20.0426 18.6924 20.3435 18.7105 20.4762C18.6272 20.6052 18.3829 20.5006 18.3829 20.5006C18.3829 20.5006 18.2607 19.8229 18.3219 19.4448ZM18.7589 22.3335C18.7589 22.3335 19.2568 21.833 19.2568 23.037C19.2568 24.0544 18.5718 24.5668 18.5718 24.1659C18.5718 23.9193 18.8289 23.9474 18.7589 22.3335H18.7589ZM19.0013 19.7967C19.0013 19.7967 19.2397 19.6869 19.2397 20.1832C19.2397 20.6838 19.187 20.6541 19.1114 20.6961C19.1114 20.6961 18.9078 20.387 19.0013 19.7967ZM19.2389 22.0201C19.1657 22.0201 19.0386 21.9417 19.0386 21.8403C19.0386 21.5291 19.1223 21.3485 19.2734 21.3485C19.3652 21.3485 19.4034 21.4492 19.4034 21.5564C19.4034 21.904 19.2898 22.0201 19.2389 22.0201ZM26.0903 12.9245C26.0903 12.9245 26.3298 12.8198 26.4644 13.2461C26.2507 13.2349 26.1207 13.3291 26.1207 13.3291C26.1207 13.3291 25.9942 13.0673 26.0903 12.9245ZM26.7609 8.97329L27.0251 9.53932C26.745 9.53932 26.5504 9.1165 26.5504 9.03432C26.5504 8.92734 26.7358 8.91884 26.7609 8.97329ZM26.1754 9.00598L27.0131 10.1459C27.0131 10.1459 26.9477 10.2818 26.832 10.1581L25.9202 9.18729C25.9202 9.18729 25.9637 9.00598 26.1754 9.00598ZM25.7506 9.4289L26.7473 10.5706C26.8012 10.6246 26.6189 10.7691 26.5159 10.6681L25.3867 9.56356C25.3867 9.56356 25.6182 9.27732 25.7506 9.4289ZM25.1563 9.81519C25.3239 9.81519 26.3968 10.6439 26.3968 10.8886C26.3968 10.9169 26.3185 11.0275 26.273 10.9953L24.9131 10.024C24.9131 10.024 24.9889 9.81519 25.1563 9.81519ZM24.6871 10.3507C25.212 10.5886 25.6783 10.8852 26.1509 11.1988C26.2294 11.2517 26.1059 11.4974 26.0296 11.457L24.5995 10.6808C24.5995 10.6808 24.5557 10.5253 24.6871 10.3507ZM24.5247 10.9953C24.8163 11.0786 25.772 11.6062 25.8957 11.6881C26.0021 11.7572 25.8505 11.9152 25.7995 11.8936L24.4513 11.263C24.4513 11.263 24.3614 11.1618 24.5247 10.9953ZM24.2679 11.5414C24.8035 11.6924 25.4829 12.0519 25.4829 12.0519C24.5276 12.0997 24.2324 11.6517 24.2324 11.6517L24.2679 11.5414ZM18.2289 11.4044C20.2608 11.4044 22.5146 13.3367 24.0595 15.4793L19.8363 19.917C17.4778 18.6712 15.1921 16.6934 15.1921 14.1511C15.1921 12.7391 16.4154 11.4044 18.2289 11.4044ZM12.7254 8.36135C13.064 8.19975 13.3019 8.52278 13.3019 8.52278C13.2556 8.64772 12.8859 8.91034 12.8859 9.1723C12.8859 9.31337 13.5837 9.32527 13.5837 9.86449C13.5837 10.1001 13.4633 10.2185 13.4633 10.2185L13.1872 10.2415C13.1872 10.2415 13.3061 10.1248 13.3061 9.90334C13.3061 9.71305 13.1144 9.549 12.9809 9.549C12.5843 9.549 12.6775 10.1228 12.4022 9.89514C12.4839 9.44847 12.6745 9.09906 12.7254 8.36135ZM11.39 10.2822C12.1289 11.0218 12.4624 11.8347 12.4624 11.8347C12.3133 12.2043 10.6887 12.9432 10.6887 12.9432L11.6497 11.1699L9.24665 13.2398C9.24665 13.2398 9.28366 12.2785 9.5791 11.9457C9.87515 11.6143 11.39 10.2822 11.39 10.2822ZM8.56814 26.8645H7.5822L8.43047 25.3373H9.41719L8.56814 26.8645ZM15.1442 26.5333C14.983 26.7095 14.6321 26.8645 14.3926 26.8645H13.6685L14.3595 25.3373H14.3972C14.7702 25.3373 15.2675 25.1299 15.5307 24.8647L16.6979 23.6877L17.1549 24.3401L15.1442 26.5333ZM22.8211 26.1013H23.5846L23.4785 26.4715H22.6086L22.8211 26.1012V26.1013ZM20.4413 25.7512C20.3787 25.6715 20.4461 25.5148 20.5894 25.402C20.7348 25.2878 20.904 25.2618 20.9656 25.3424C21.029 25.4221 20.9626 25.5794 20.8179 25.6929C20.6727 25.8059 20.5039 25.8318 20.4413 25.7512ZM24.2393 26.6665H24.8522V26.8533H19.9957C20.0717 26.4448 20.3055 26.1614 20.3588 26.1013H20.5274L20.8475 26.6665H21.3757L21.5553 26.1012H21.8515L22.0584 26.6665H23.6255L23.7864 26.1012H24.059L24.2393 26.6665ZM24.4381 21.4142C23.7486 21.4142 22.4353 21.089 21.0106 20.4772L24.6688 16.3936C25.455 17.6798 25.9452 18.9541 25.9452 19.8574C25.9452 21.2382 25.0758 21.4141 24.4381 21.4141V21.4142ZM30.0173 17.1834L30.2228 16.8813L31.4434 17.285L31.4543 17.6599L30.0173 17.1834ZM32.3526 18.8152C32.1738 18.858 32.0096 18.8128 31.9863 18.7129C31.9614 18.6147 32.0879 18.4983 32.2663 18.4551C32.4436 18.4122 32.6092 18.4591 32.6324 18.5578C32.6567 18.6571 32.5313 18.7723 32.3526 18.8152ZM32.1374 17.8862L32.3536 17.587L32.614 17.6735L32.6926 18.0702L32.1374 17.8862ZM29.0391 16.0872L33.6534 17.6145C33.4913 17.9278 33.2136 18.1386 33.1119 18.2091L32.9045 18.1407L32.783 17.5238L32.2802 17.3574L31.9436 17.8217L31.651 17.7248L31.6329 17.1436L30.1442 16.6506L29.8248 17.1201L29.5556 17.0307L29.5616 16.4574L28.9801 16.265L29.039 16.0872L29.0391 16.0872Z" fill="#010101"/>
<path d="M16.3052 22.2197C16.0431 21.5883 16.1589 21.4444 16.1589 21.4444C16.1589 21.4444 15.317 20.7527 15.5668 19.8921C15.5668 19.8921 13.3997 16.7519 13.3997 14.8902C13.3997 13.9264 13.8674 14.0202 13.8674 13.2323C13.8674 12.5855 13.4248 12.1021 13.1078 12.1021C12.7443 12.1021 11.6099 12.8511 9.94839 13.8303L10.5772 12.3892L9.06185 13.9421C9.06185 13.9421 8.76585 12.4262 9.58124 11.6116C9.71338 11.4783 9.84891 11.3468 9.98353 11.2151H7.09277L14.9816 24.9335C15.1253 24.8649 15.2581 24.7805 15.3508 24.6864L16.5944 23.4326C16.3955 22.9668 16.3053 22.4842 16.3053 22.2197H16.3052ZM25.804 12.6111L25.6564 12.2784C24.892 12.4072 24.208 12.0197 24.0124 11.9189C23.8165 11.8194 24.0303 11.3912 24.0303 11.3912C24.0303 11.3912 23.9773 11.2988 23.8572 11.2151H23.0576C22.9071 11.3502 22.872 11.5587 22.995 11.6856C23.8434 12.5661 24.5245 13.511 25.0672 14.4219L25.954 13.4895L25.804 12.6111V12.6111ZM29.046 11.3422C29.5101 11.8908 29.3186 12.4525 29.3186 12.4525C29.3186 12.8769 29.0943 12.8698 29.0943 12.8698C29.0943 13.8569 28.5761 13.6835 28.5761 13.6835C28.5761 14.9827 27.1452 14.456 27.1452 14.456C26.9117 14.4258 26.7173 14.3611 26.5591 14.2843L25.5902 15.3654C26.2183 16.5882 26.5948 17.6748 26.7956 18.3521L30.8982 11.2151H29.1601L29.046 11.3422ZM22.4035 21.7025C22.4035 21.6153 21.1027 21.2698 20.5923 21.0743C20.1257 21.2577 20.7318 21.3513 20.7318 21.9573C20.7318 22.3164 20.557 22.7377 20.557 22.7377L20.2972 22.8113C20.2972 22.8113 19.7802 23.7651 19.448 23.6246C18.9738 24.4585 18.7798 24.6515 18.0266 24.6515C17.7846 24.6515 17.5717 24.581 17.3845 24.4631L15.7412 26.2554L18.9961 31.9159L21.7954 27.0472H19.7829C19.7829 26.5288 20.1126 26.1012 20.1126 26.1012C20.1126 25.2761 20.6208 25.1003 20.9994 25.0665C21.8039 24.9958 22.1318 25.0656 22.1318 24.6726C22.1318 24.395 22.1076 24.0675 22.1076 24.0675H22.4035C22.4035 22.9865 22.1013 22.7241 22.1013 22.1724C22.1013 21.9611 22.4035 21.8699 22.4035 21.7025ZM22.1679 26.399L22.3391 26.1012H22.0578L22.1679 26.399Z" fill="#FFB81C"/>
<path d="M20.9595 26.4714H21.2329L21.3509 26.1012H20.75L20.9595 26.4714ZM23.6915 23.748L24.3224 22.6505L23.6187 22.9959L23.6915 23.748Z" fill="#FFB81C"/>
</svg>
