<svg width="25" height="25" viewBox="0 0 25 25" fill="none" xmlns="http://www.w3.org/2000/svg">
<path d="M1.89148 9.48487C1.61534 9.48412 1.39088 9.70737 1.39014 9.98352C1.38939 10.2597 1.61265 10.4841 1.88879 10.4849L1.89148 9.48487ZM1.88879 10.4849L6.41711 10.4971L6.41981 9.49707L1.89148 9.48487L1.88879 10.4849Z" fill="#E5E5E5"/>
<path d="M4.00313 11.4921C3.727 11.4904 3.50174 11.7129 3.50001 11.989C3.49828 12.2651 3.72073 12.4904 3.99687 12.4921L4.00313 11.4921ZM3.99687 12.4921L6.41117 12.5072L6.41743 11.5073L4.00313 11.4921L3.99687 12.4921Z" fill="#E5E5E5"/>
<path d="M0.63328 13.4955C0.357143 13.4938 0.131878 13.7162 0.130137 13.9923C0.128396 14.2685 0.350837 14.4937 0.626974 14.4955L0.63328 13.4955ZM0.626974 14.4955L6.40699 14.5319L6.41329 13.5319L0.63328 13.4955L0.626974 14.4955Z" fill="#E5E5E5"/>
<ellipse cx="15.4104" cy="13.9064" rx="8" ry="3.125" transform="rotate(0.116781 15.4104 13.9064)" fill="#E5E5E5"/>
<mask id="path-5-inside-1_72_4992" fill="white">
<path d="M7.41841 10.0151C7.41898 9.73893 7.64329 9.51553 7.91943 9.51609L22.9194 9.54667C23.1955 9.54723 23.4189 9.77154 23.4184 10.0477L23.4102 14.0477C23.4097 14.3238 23.1854 14.5472 22.9092 14.5467L7.90924 14.5161C7.6331 14.5155 7.4097 14.2912 7.41026 14.0151L7.41841 10.0151Z"/>
</mask>
<path d="M7.41841 10.0151C7.41898 9.73893 7.64329 9.51553 7.91943 9.51609L22.9194 9.54667C23.1955 9.54723 23.4189 9.77154 23.4184 10.0477L23.4102 14.0477C23.4097 14.3238 23.1854 14.5472 22.9092 14.5467L7.90924 14.5161C7.6331 14.5155 7.4097 14.2912 7.41026 14.0151L7.41841 10.0151Z" fill="#E5E5E5"/>
<path d="M7.41943 9.51508L23.4194 9.54769L7.41943 9.51508ZM23.4092 14.5477L7.40924 14.5151L23.4092 14.5477ZM7.90924 14.5161C7.08082 14.5144 6.41061 13.8415 6.4123 13.013L6.41638 11.013C6.41807 10.1846 7.09101 9.51441 7.91943 9.51609L8.41943 9.51711C8.41943 9.51711 8.41898 9.74097 8.41841 10.0171L8.41026 14.0171C8.4097 14.2932 8.40924 14.5171 8.40924 14.5171L7.90924 14.5161ZM22.9194 9.54667C23.7478 9.54836 24.418 10.2213 24.4163 11.0497L24.4123 13.0497C24.4106 13.8781 23.7376 14.5483 22.9092 14.5467L22.4092 14.5456C22.4092 14.5456 22.4097 14.3218 22.4102 14.0456L22.4184 10.0456C22.4189 9.76951 22.4194 9.54565 22.4194 9.54565L22.9194 9.54667Z" fill="#E5E5E5" mask="url(#path-5-inside-1_72_4992)"/>
<path d="M22.9182 10.1716C22.9177 10.4168 22.7919 10.7039 22.4485 11.0197C22.1046 11.336 21.5798 11.6435 20.8895 11.9115C19.5121 12.4463 17.5759 12.7857 15.4128 12.7813C13.2498 12.7769 11.315 12.4296 9.9397 11.8892C9.2505 11.6183 8.72697 11.3088 8.38437 10.9911C8.04231 10.6739 7.91769 10.3862 7.91819 10.1411C7.91869 9.89591 8.04448 9.60875 8.38783 9.29294C8.73172 8.97664 9.25651 8.66924 9.94681 8.40121C11.3243 7.86636 13.2605 7.52694 15.4235 7.53135C17.5866 7.53576 19.5214 7.88307 20.8966 8.42353C21.5858 8.69437 22.1094 9.00391 22.452 9.3216C22.794 9.63881 22.9187 9.92648 22.9182 10.1716Z" fill="#A3A3A3" stroke="#A3A3A3"/>
</svg>
