<svg width="40" height="40" viewBox="0 0 40 40" fill="none" xmlns="http://www.w3.org/2000/svg">
<path d="M22.0102 31.2154C21.6578 31.2154 21.3716 31.5011 21.3716 31.8538C21.3716 32.2061 21.6578 32.4922 22.0102 32.4922C22.3627 32.4922 22.6484 32.2061 22.6484 31.8538C22.6484 31.5011 22.3627 31.2154 22.0102 31.2154ZM22.0102 32.3553C21.9443 32.3553 21.8791 32.3424 21.8182 32.3172C21.7574 32.292 21.7021 32.2551 21.6555 32.2085C21.6089 32.162 21.572 32.1067 21.5468 32.0458C21.5216 31.9849 21.5087 31.9197 21.5088 31.8538C21.5088 31.5768 21.7328 31.3527 22.0102 31.3527C22.2873 31.3527 22.5115 31.5768 22.5115 31.8538C22.5115 32.131 22.2873 32.3553 22.0102 32.3553ZM22.2725 31.7058C22.2725 31.6774 22.2669 31.6492 22.256 31.623C22.2451 31.5967 22.2291 31.5729 22.209 31.5528C22.1889 31.5327 22.165 31.5168 22.1388 31.5059C22.1125 31.4951 22.0843 31.4895 22.0559 31.4895H21.7483V32.2183H21.885V31.9223H21.9832L22.1213 32.2183H22.2725L22.1283 31.9097C22.1704 31.8947 22.2069 31.8671 22.2327 31.8306C22.2586 31.7941 22.2724 31.7505 22.2725 31.7058ZM22.0559 31.7855H21.885V31.626H22.0559C22.0998 31.626 22.1358 31.6618 22.1358 31.7059C22.1357 31.727 22.1273 31.7472 22.1123 31.7622C22.0973 31.7771 22.077 31.7855 22.0559 31.7855Z" fill="white"/>
<path d="M34.2856 17.0039L33.8432 17.7916L33.9161 18.2492C32.7453 20.5423 31.4684 22.6704 31.0111 23.4193C30.8337 23.0173 30.6 22.7798 30.1477 22.5378C30.1477 22.5378 32.2253 18.7681 32.7872 15.7784C31.2157 16.5567 29.5696 17.3265 29.5696 17.3265L32.3852 12.7716C32.3852 12.7716 26.9711 13.9559 22.6879 14.3832C18.0706 7.58073 13.8724 6.38089 13.8724 6.38089C13.8724 6.38089 16.7802 11.1423 17.3209 14.4715C11.4324 13.9187 6.63037 12.7716 6.63037 12.7716L11.7573 21.0646C8.75729 21.2427 3.70996 21.406 3.70996 21.406C4.99654 22.6924 9.13501 24.3231 14.6082 25.6753L15.5848 27.2559C12.3659 29.6823 10.4255 33.023 10.4255 33.023L10.7507 33.6191C10.7507 33.6191 12.3483 33.5236 14.3079 33.4538C14.3079 33.4538 14.8412 31.7319 17.0342 29.6007L19.5082 33.6027L22.6107 28.5844L22.9485 28.5452L23.136 28.6578C23.0847 28.709 23.0502 28.808 22.9764 28.9257C23.2339 29.1007 23.2413 29.1298 23.2536 29.4414C23.2536 29.4414 23.5963 29.5622 24.0197 29.4232L24.1376 29.2105L24.2818 29.2758C24.2999 29.4265 24.3418 29.5907 24.3418 29.5907C24.7364 29.7763 25.0705 29.5297 25.0705 29.5297C26.1241 29.7463 26.8368 29.6228 27.073 29.5655C28.1155 29.8525 28.7904 29.6583 29.0701 29.537C29.5494 29.7351 30.046 29.8637 31.422 29.8637C32.0563 29.8637 32.7323 29.8245 32.7323 29.3513C32.7323 28.6869 32.0971 26.2478 31.4529 24.8981C31.4529 24.8981 31.9259 25.2309 32.3503 25.3158L32.9394 24.8896C32.6719 24.5751 32.7227 24.4831 32.7585 24.2394C32.5484 24.0614 32.2543 24.0201 32.2543 24.0201C32.8302 23.3589 34.0334 21.8165 35.4717 19.056C35.7741 19.0102 36.1616 18.8326 36.2081 18.3563C36.2594 17.8377 36.29 17.6141 36.29 17.1213C35.3795 16.7043 34.2856 17.0038 34.2856 17.0038V17.0039Z" fill="white"/>
<path d="M30.7223 13.9409L28.1234 18.0923C28.4075 17.9604 28.7072 17.8237 29.006 17.6875L31.7794 13.2013C31.7794 13.2013 27.0615 14.2318 22.7671 14.6673C22.8693 14.8265 22.9692 14.9869 23.0683 15.1495C26.0171 14.8382 29.0937 14.267 30.7223 13.9409Z" fill="#010101"/>
<path d="M31.1377 24.9118C30.7788 23.4192 30.7202 23.1467 29.9277 22.7458L29.7963 22.5775C31.2573 19.9613 32.315 16.8392 32.315 16.4655C32.315 16.375 32.2732 16.3481 32.2188 16.3764C29.8943 17.5548 27.3416 18.6061 26.777 19.0005L26.6256 19.2097C25.3757 18.096 24.3035 17.3129 23.8886 17.021C21.2901 11.9224 17.3037 8.33854 14.7355 7.05481C14.7355 7.58723 17.2774 11.5004 17.6669 14.7887C13.0687 14.4753 7.23645 13.2013 7.23645 13.2013L12.2582 21.3249C8.13412 21.5776 4.51611 21.663 4.51611 21.663C4.51611 21.9497 9.12142 24.1519 15.9207 25.6895C17.4075 26.0266 18.5152 25.9732 19.2393 25.9732C19.1058 25.8266 18.9707 25.6813 18.8341 25.5376C19.8198 26.1386 20.7187 26.7377 21.5281 27.2762C21.325 27.2789 21.1037 27.2798 20.8598 27.2798C19.2249 27.2798 17.989 27.1946 17.2066 27.1357C17.0127 27.1208 16.8457 27.1084 16.7089 27.0987C16.6394 27.0944 16.5783 27.0911 16.524 27.0881L15.7548 25.8594C15.4446 25.7909 15.148 25.7187 14.9434 25.6687L15.9712 27.3305C15.0112 28.021 12.546 30.1136 10.7604 33.0305L10.9165 33.3184C10.9165 33.3184 12.6417 33.2113 14.1002 33.1701C14.1002 33.1701 14.7543 31.3044 17.0933 29.1456L19.5081 33.0503L22.4375 28.3116C22.6272 28.2913 22.8185 28.2688 23.0149 28.2452C23.2177 28.3723 23.4134 28.4915 23.5998 28.5989C23.4997 28.6586 23.4155 28.7354 23.3508 28.8504C23.3508 28.8504 23.5194 28.966 23.5304 29.1935C23.5304 29.1935 23.6752 29.2169 23.8264 29.1741C23.8264 29.1741 23.9296 29.0176 24.0189 28.8285C24.211 28.9266 24.3916 29.0118 24.5609 29.0794C24.5594 29.2429 24.5869 29.364 24.5869 29.364C24.5869 29.364 24.7739 29.421 24.9985 29.2208C26.297 29.5166 27.0728 29.2657 27.0728 29.2657C28.3906 29.6559 29.0607 29.2196 29.0607 29.2196C29.5768 29.4441 30.0084 29.5736 31.4219 29.5736C32.189 29.5736 32.4423 29.4805 32.4423 29.3513C32.4423 28.7348 31.7896 26.2101 31.1377 24.9117V24.9118ZM19.5081 30.7841L18.1278 28.5962C18.6634 28.5865 19.6834 28.5546 20.9798 28.4503L19.5081 30.7841Z" fill="#010101"/>
<path d="M31.5183 24.4527L31.5651 24.6248C31.5651 24.6248 31.988 24.9133 32.2935 24.9986L32.5376 24.8226C32.5376 24.8226 32.3971 24.643 32.4413 24.3798C32.1238 24.1739 31.5183 24.4527 31.5183 24.4527ZM34.4768 17.2559L34.1461 17.8453L34.2181 18.2963C32.7342 21.2152 31.082 23.8569 31.082 23.8569L31.2861 24.3525L31.5277 24.1849L31.6927 24.1993C31.6927 24.1993 33.2745 22.6865 35.2898 18.7803C35.2898 18.7803 35.8729 18.7999 35.9206 18.3271C35.9678 17.8489 36.0007 17.5166 36.0007 17.3252C35.2749 17.0614 34.4768 17.2558 34.4768 17.2558V17.2559Z" fill="#010101"/>
<path d="M17.67 28.6366C17.6306 28.6693 17.5947 28.7027 17.5561 28.7361L19.5081 31.8538L21.6763 28.3896C21.6138 28.396 21.5504 28.4015 21.4885 28.4066L19.5081 31.5729L17.67 28.6366ZM30.4026 14.1617L27.8676 18.2119C27.9517 18.1724 28.0366 18.1335 28.1235 18.0924L30.7224 13.9409C29.0939 14.267 26.0172 14.8383 23.0684 15.1495C23.0979 15.198 23.1269 15.247 23.1563 15.2957C25.932 14.9966 28.8001 14.4753 30.4026 14.1617ZM16.7089 27.0987L15.9609 25.9047C15.8925 25.8898 15.8233 25.8752 15.7548 25.8595L16.524 27.0881C16.5783 27.0912 16.6394 27.0945 16.7089 27.0987ZM23.63 29.0782C23.8301 28.8082 23.9658 28.636 23.998 28.5276C23.8214 28.6044 23.5953 28.6466 23.4721 28.8341C23.4721 28.8341 23.5621 28.9217 23.63 29.0782ZM24.6584 29.2636C24.6584 29.2636 24.7919 29.2463 24.9087 29.1292C24.9087 29.1292 24.7848 28.9375 24.7108 28.7591C24.6228 28.9833 24.6585 29.2636 24.6585 29.2636H24.6584ZM24.0417 24.5365C24.1485 25.3865 24.3526 25.747 24.3526 25.747C24.3526 25.747 24.673 25.9978 25.2831 26.2475C24.6669 25.1077 24.0417 24.5365 24.0417 24.5365ZM17.3681 28.3295L17.6136 28.1921C17.6136 28.1921 18.6215 28.3547 24.6616 27.7316C24.5178 27.6269 24.4465 27.6475 24.4465 27.4073C24.4465 27.3305 24.4596 27.3178 24.3279 27.3178C24.1965 27.3178 24.1401 27.2829 23.9846 27.2829C23.791 27.2829 23.502 27.4771 20.5424 27.4771C18.1875 27.4771 16.5375 27.2793 16.4286 27.2793C16.321 27.2793 16.109 27.481 15.4783 27.9882C15.4783 27.9882 16.7185 27.9722 17.3681 28.3296V28.3295ZM14.2894 32.1132C13.3818 31.9397 11.5076 32.253 11.5076 32.253L11.0054 32.9772L13.939 32.8395L14.2894 32.1132ZM34.4704 18.1923C33.4896 19.9537 32.4226 22.2884 31.2554 23.7326L31.5918 23.5218L31.6655 23.4488L31.6047 23.6469L31.7473 23.5791L31.5328 23.9571L31.7326 23.7968C31.7326 23.7968 32.731 22.6741 35.2558 18.1133C34.6943 18.0282 34.4704 18.1923 34.4704 18.1923ZM34.5735 17.5081L34.3689 17.8317C34.3689 17.8317 34.8632 17.7374 35.5211 17.7925L35.7592 17.457C35.0346 17.3203 34.5735 17.508 34.5735 17.508V17.5081Z" fill="#E57200"/>
<path d="M31.459 23.766C31.459 23.766 31.3657 23.8417 31.2207 23.882L31.3439 24.1429L31.4199 24.0842L31.3895 23.9903L31.5164 23.7487L31.459 23.766ZM32.3347 24.443C32.1295 24.3362 31.7298 24.4943 31.7298 24.4943C31.7298 24.4943 32.1354 24.5892 32.3646 24.6936C32.3646 24.6936 32.3239 24.6002 32.3347 24.443Z" fill="#E57200"/>
<path d="M16.7093 27.0988C16.8461 27.1085 17.0131 27.1209 17.207 27.1358L16.4968 26.01C16.3314 25.9814 16.1485 25.9442 15.9613 25.9047L16.7093 27.0988ZM18.1281 28.5962C17.8599 28.6005 17.7124 28.6001 17.7124 28.6001C17.6975 28.6123 17.6846 28.6247 17.6704 28.6366L19.5085 31.5729L21.4889 28.4066C21.3148 28.423 21.1458 28.4381 20.9802 28.4503L19.5085 30.7841L18.1281 28.5962ZM29.6793 14.657L27.2501 18.5096C27.4329 18.4183 27.6426 18.3179 27.8681 18.2119L30.403 14.1617C28.8005 14.4753 25.9324 14.9966 23.1567 15.2957C23.2235 15.4055 23.2892 15.516 23.3538 15.6272C25.6346 15.3758 27.9712 14.9785 29.6793 14.657H29.6793ZM17.7188 15.5918C17.7188 15.4122 17.7106 15.2307 17.6944 15.0462C16.1144 15.2134 15.1727 15.5865 14.811 15.7559C15.3654 15.6014 16.3491 15.554 17.7188 15.5918ZM29.7255 22.8762C29.7255 22.8762 27.8036 20.1787 24.1079 17.4571C24.4219 18.1066 24.7142 18.7775 24.9772 19.4704C25.0145 19.5678 25.009 19.6528 24.926 19.6528C24.1166 19.6528 21.2588 18.081 18.4516 18.3626C19.9096 19.751 21.3591 21.6993 19.9536 20.989C19.9536 20.989 21.4211 21.8946 23.1447 23.711C24.4287 23.711 24.684 23.9276 24.7595 24.1071C24.9058 24.4538 25.1186 25.0695 25.9592 26.0609C26.3451 26.0609 26.4157 26.0357 26.557 25.689C26.557 25.689 26.6621 26.1316 26.4689 26.4562C28.221 27.8405 31.6232 29.2351 32.1433 29.2351C32.3526 29.2351 31.9215 27.3312 30.9362 25.0416C30.6143 23.5914 30.4367 23.1849 29.7255 22.8762ZM13.7556 21.2274C13.7556 21.2274 14.2567 21.5223 15.0796 22.1433C14.8776 21.7936 14.3445 21.4131 13.761 21.0589L12.4805 21.1528L12.575 21.3057C12.9662 21.2807 13.3598 21.2541 13.7556 21.2274V21.2274ZM21.297 23.4702C21.0942 24.5659 21.3064 25.4454 21.3064 25.4454C21.2717 25.0792 21.5604 23.8511 21.5604 23.8511L21.297 23.4702V23.4702ZM20.6536 22.8447C20.4517 24.102 20.7361 25.105 20.7361 25.105C20.6754 24.643 20.9164 23.2825 20.9164 23.2825L20.6536 22.8447ZM20.0169 22.2758C19.8087 23.6196 20.1333 24.6927 20.1333 24.6927C20.0729 24.0814 20.2803 22.6569 20.2803 22.6569L20.0169 22.2758ZM18.5685 20.0584C18.5685 20.0584 16.0974 18.0135 13.0297 17.4985C12.9188 17.4985 12.6971 17.9648 12.6971 17.9648C12.6971 17.9648 13.0218 17.6719 13.1206 17.6719C15.7476 18.1776 18.5685 20.0584 18.5685 20.0584Z" fill="#006272"/>
<path d="M25.6124 28.8083C25.9702 28.5963 26.2325 28.3945 26.2325 28.3945C25.0523 28.4461 24.6076 28.3023 24.6076 28.3023C24.8187 28.0915 25.0825 27.9097 25.2495 27.7429C25.1224 27.7629 24.9918 27.7769 24.8642 27.7878C24.8627 27.8451 24.7998 27.9103 24.6197 28.0195C24.2729 28.0754 23.9253 28.1266 23.577 28.1733C23.674 28.2765 23.7774 28.3769 23.8923 28.4722C23.9722 28.4461 24.0574 28.4203 24.1485 28.3894C24.1485 28.4616 24.1292 28.545 24.1016 28.6284C24.2512 28.7298 24.4111 28.8153 24.5785 28.8835C24.597 28.7679 24.6317 28.6472 24.7018 28.538C24.7615 28.5547 24.794 28.7294 24.8276 28.7774C24.9151 28.9054 25.0301 28.9263 25.0514 29.0319C25.5462 29.1457 26.1739 29.1772 27.0016 29.0731L27.2313 28.8869C26.0203 28.9087 25.6123 28.8083 25.6123 28.8083L25.6124 28.8083ZM23.6509 27.0333C23.1217 27.2023 22.8943 27.0839 22.8943 27.0839C22.998 26.9805 23.0651 26.7775 23.0651 26.7775C22.5967 26.9083 22.4514 26.7782 22.4514 26.7782C22.5257 26.7333 22.6008 26.5536 22.6008 26.5536C21.9928 26.5536 21.6606 26.6538 21.6606 26.6538C22.1656 26.7172 22.4964 26.9389 22.7775 27.2256C23.1736 27.1974 23.4159 27.1619 23.5857 27.1343L23.6509 27.0333Z" fill="white"/>
<path d="M22.626 26.7268C22.626 26.7268 22.8825 26.7422 23.1796 26.6363C23.1796 26.6363 23.1954 26.8354 23.0609 27.014C23.0609 27.014 23.3122 27.0122 23.8288 26.8927C23.8288 26.8927 23.7842 26.9959 23.7219 27.1111C23.8154 27.0957 23.8857 27.0857 23.9599 27.0857C24.126 27.0857 24.1459 27.1206 24.2916 27.1206C24.5665 27.1206 24.6003 27.1776 24.641 27.4976C24.6966 27.5792 24.7611 27.6345 24.8051 27.6821C25.0085 27.6663 25.2429 27.6442 25.4785 27.6108C25.4785 27.6108 25.2163 27.9748 24.8206 28.243C24.8206 28.243 25.9187 28.3464 26.4876 28.2752C26.4876 28.2752 26.242 28.5749 25.9042 28.7472C25.9042 28.7472 26.6632 28.7957 27.4785 28.7818C27.4785 28.7818 27.3185 28.9587 27.1591 29.0873C27.1591 29.0873 28.1666 29.3145 28.8832 29.144C26.2951 28.1147 24.8708 26.5565 22.7047 26.5565C22.6725 26.6479 22.626 26.7268 22.626 26.7268ZM12.1847 31.3856L11.6025 32.131C11.6025 32.131 13.3142 31.864 14.3406 32.0199L14.6256 31.5312C14.0659 31.2412 12.1847 31.3856 12.1847 31.3856H12.1847Z" fill="white"/>
<path d="M12.4508 31.0517L12.2705 31.2777C12.2705 31.2777 14.0375 31.1433 14.6821 31.4412L15.1014 30.8102C14.5301 30.7177 12.4508 31.0517 12.4508 31.0517ZM12.7568 30.6773L12.5511 30.927C12.5511 30.927 14.6674 30.5972 15.168 30.7188L15.2051 30.6679C14.6812 30.4953 12.7568 30.6773 12.7568 30.6773L12.7568 30.6773ZM13.4697 29.8582L12.8525 30.5617C12.8525 30.5617 14.5681 30.3836 15.2723 30.5814L15.9839 29.7593C15.2613 29.6404 13.4697 29.8582 13.4697 29.8582ZM14.3901 28.9326L13.577 29.7395C13.577 29.7395 15.0771 29.5363 16.0665 29.6662L16.4555 29.2366C16.0849 28.9205 14.3901 28.9326 14.3901 28.9326Z" fill="white"/>
<path d="M14.5442 28.7919L14.5016 28.8304C14.5016 28.8304 15.9649 28.8079 16.5264 29.1586L16.6108 29.0698C16.1568 28.8119 14.5442 28.7919 14.5442 28.7919ZM15.3529 28.0929L14.6542 28.693C14.6542 28.693 16.2842 28.7227 16.6843 28.9918L17.285 28.3993C16.757 28.0996 15.3529 28.0929 15.3529 28.0929ZM14.4185 32.0853L14.4406 32.233L14.6741 31.8232L14.6513 31.6814L14.4185 32.0853ZM14.7294 31.5516L14.7534 31.6933L15.1463 31.1194L15.1206 30.9573L14.7294 31.5516ZM15.2021 30.8421L15.2297 31.0113L15.2675 30.9628L15.235 30.7968L15.2021 30.8421ZM15.3157 30.6901L15.3489 30.8624L16.0171 30.1104L15.989 29.9052L15.3157 30.6901ZM16.0756 29.8079L16.1049 30.0145L16.5088 29.5827L16.4577 29.3853L16.0756 29.8079ZM16.5381 29.2979L16.5897 29.4978L16.6683 29.4159L16.6404 29.1869L16.5381 29.2979ZM16.7282 29.094L16.757 29.3258L17.2877 28.8052L17.2812 28.5355L16.7282 29.094Z" fill="white"/>
</svg>
