<svg width="24" height="24" viewBox="0 0 24 24" fill="none" xmlns="http://www.w3.org/2000/svg">
<path d="M13.2732 19.1051C13.0499 19.1051 12.8687 19.2861 12.8687 19.5096C12.8687 19.7327 13.0499 19.914 13.2732 19.914C13.4965 19.914 13.6775 19.7327 13.6775 19.5096C13.6775 19.2861 13.4965 19.1051 13.2732 19.1051ZM13.2732 19.8273C13.2315 19.8273 13.1902 19.8191 13.1516 19.8031C13.1131 19.7872 13.078 19.7638 13.0485 19.7343C13.019 19.7048 12.9956 19.6697 12.9797 19.6312C12.9637 19.5926 12.9555 19.5513 12.9556 19.5096C12.9556 19.3341 13.0975 19.1921 13.2732 19.1921C13.4487 19.1921 13.5908 19.3341 13.5908 19.5096C13.5908 19.6852 13.4487 19.8273 13.2732 19.8273ZM13.4394 19.4158C13.4394 19.3978 13.4358 19.38 13.4289 19.3633C13.422 19.3467 13.4119 19.3316 13.3992 19.3189C13.3864 19.3061 13.3713 19.2961 13.3547 19.2892C13.338 19.2823 13.3202 19.2788 13.3022 19.2788H13.1073V19.7405H13.1939V19.553H13.2561L13.3436 19.7405H13.4394L13.348 19.545C13.3747 19.5355 13.3978 19.518 13.4142 19.4949C13.4306 19.4717 13.4394 19.4441 13.4394 19.4158ZM13.3022 19.4663H13.1939V19.3653H13.3022C13.33 19.3653 13.3528 19.3879 13.3528 19.4158C13.3527 19.4292 13.3474 19.4421 13.3379 19.4515C13.3284 19.461 13.3156 19.4663 13.3022 19.4663Z" fill="white"/>
<path d="M21.0504 10.1019L20.7701 10.6009L20.8163 10.8909C20.0745 12.3435 19.2656 13.6917 18.9759 14.1661C18.8635 13.9115 18.7155 13.761 18.4289 13.6078C18.4289 13.6078 19.7451 11.2196 20.101 9.32556C19.1055 9.81862 18.0627 10.3063 18.0627 10.3063L19.8464 7.42067C19.8464 7.42067 16.4165 8.17098 13.703 8.44165C10.7779 4.13219 8.11825 3.37207 8.11825 3.37207C8.11825 3.37207 9.9604 6.3885 10.3029 8.4976C6.57248 8.14741 3.5303 7.42067 3.5303 7.42067L6.77831 12.6745C4.87774 12.7873 1.68018 12.8907 1.68018 12.8907C2.49525 13.7057 5.11703 14.7388 8.58441 15.5954L9.20308 16.5967C7.16384 18.1339 5.93461 20.2503 5.93461 20.2503L6.14063 20.6279C6.14063 20.6279 7.15271 20.5674 8.39413 20.5232C8.39413 20.5232 8.73202 19.4323 10.1213 18.0822L11.6886 20.6175L13.6541 17.4383L13.8681 17.4135L13.9869 17.4849C13.9544 17.5173 13.9325 17.58 13.8858 17.6546C14.0489 17.7654 14.0536 17.7839 14.0614 17.9813C14.0614 17.9813 14.2785 18.0578 14.5467 17.9697L14.6214 17.835L14.7128 17.8763C14.7242 17.9718 14.7508 18.0758 14.7508 18.0758C15.0008 18.1934 15.2124 18.0372 15.2124 18.0372C15.8799 18.1744 16.3314 18.0962 16.481 18.0599C17.1415 18.2417 17.569 18.1187 17.7462 18.0418C18.0499 18.1673 18.3645 18.2488 19.2362 18.2488C19.638 18.2488 20.0663 18.224 20.0663 17.9242C20.0663 17.5033 19.6639 15.9581 19.2558 15.103C19.2558 15.103 19.5554 15.3139 19.8243 15.3677L20.1975 15.0976C20.028 14.8984 20.0602 14.8401 20.0829 14.6857C19.9498 14.5729 19.7635 14.5468 19.7635 14.5468C20.1283 14.1279 20.8906 13.1508 21.8017 11.402C21.9933 11.373 22.2388 11.2604 22.2683 10.9587C22.3008 10.6302 22.3202 10.4885 22.3202 10.1763C21.7433 9.91212 21.0504 10.1019 21.0504 10.1019V10.1019Z" fill="white"/>
<path d="M18.7932 8.16146L17.1468 10.7915C17.3267 10.7079 17.5165 10.6213 17.7058 10.535L19.4628 7.69291C19.4628 7.69291 16.474 8.34577 13.7534 8.62162C13.8182 8.72252 13.8815 8.82411 13.9443 8.92711C15.8123 8.72993 17.7614 8.36804 18.7932 8.16146Z" fill="#010101"/>
<path d="M19.0561 15.1117C18.8287 14.1661 18.7916 13.9935 18.2896 13.7395L18.2063 13.6329C19.1319 11.9755 19.802 9.99756 19.802 9.76086C19.802 9.70349 19.7755 9.68647 19.741 9.70438C18.2684 10.4509 16.6512 11.117 16.2936 11.3668L16.1977 11.4993C15.4058 10.7938 14.7265 10.2977 14.4637 10.1128C12.8175 6.88272 10.292 4.61228 8.66504 3.79902C8.66504 4.13632 10.2754 6.61539 10.5222 8.69855C7.60915 8.5 3.91429 7.69291 3.91429 7.69291L7.09563 12.8393C4.48298 12.9994 2.19092 13.0535 2.19092 13.0535C2.19092 13.2352 5.10845 14.6303 9.41592 15.6044C10.3578 15.818 11.0595 15.7841 11.5183 15.7841C11.4337 15.6912 11.3482 15.5992 11.2616 15.5081C11.8861 15.8889 12.4555 16.2684 12.9683 16.6096C12.8396 16.6113 12.6994 16.6119 12.5449 16.6119C11.5092 16.6119 10.7262 16.5579 10.2305 16.5206C10.1077 16.5112 10.0019 16.5033 9.91523 16.4971C9.87123 16.4944 9.83251 16.4923 9.79811 16.4904L9.31079 15.7121C9.11429 15.6686 8.92642 15.6229 8.79678 15.5912L9.44792 16.644C8.83973 17.0814 7.278 18.4072 6.14677 20.255L6.24567 20.4374C6.24567 20.4374 7.33864 20.3696 8.26258 20.3435C8.26258 20.3435 8.67696 19.1615 10.1588 17.7939L11.6886 20.2675L13.5444 17.2655C13.6646 17.2527 13.7857 17.2384 13.9102 17.2235C14.0387 17.304 14.1627 17.3795 14.2807 17.4475C14.2173 17.4854 14.164 17.534 14.123 17.6069C14.123 17.6069 14.2298 17.6801 14.2367 17.8242C14.2367 17.8242 14.3285 17.839 14.4243 17.8119C14.4243 17.8119 14.4897 17.7128 14.5463 17.593C14.6679 17.6551 14.7824 17.7091 14.8896 17.752C14.8886 17.8556 14.9061 17.9322 14.9061 17.9322C14.9061 17.9322 15.0245 17.9684 15.1668 17.8415C15.9894 18.0289 16.481 17.87 16.481 17.87C17.3158 18.1171 17.7403 17.8408 17.7403 17.8408C18.0673 17.983 18.3407 18.0651 19.2362 18.0651C19.7221 18.0651 19.8826 18.006 19.8826 17.9242C19.8826 17.5336 19.4691 15.9342 19.0561 15.1117V15.1117ZM11.6886 18.8319L10.8141 17.4458C11.1534 17.4397 11.7997 17.4195 12.6209 17.3534L11.6886 18.8319Z" fill="#010101"/>
<path d="M19.2969 14.8208L19.3266 14.9299C19.3266 14.9299 19.5945 15.1127 19.788 15.1666L19.9426 15.0552C19.9426 15.0552 19.8536 14.9414 19.8816 14.7746C19.6805 14.6442 19.2969 14.8208 19.2969 14.8208ZM21.1711 10.2615L20.9616 10.635L21.0073 10.9206C20.0672 12.7698 19.0205 14.4434 19.0205 14.4434L19.1498 14.7573L19.3028 14.6511L19.4074 14.6603C19.4074 14.6603 20.4095 13.7019 21.6862 11.2273C21.6862 11.2273 22.0556 11.2397 22.0858 10.9401C22.1157 10.6372 22.1366 10.4267 22.1366 10.3054C21.6768 10.1383 21.1711 10.2615 21.1711 10.2615V10.2615Z" fill="#010101"/>
<path d="M10.5239 17.4714C10.4989 17.4922 10.4762 17.5133 10.4517 17.5344L11.6884 19.5096L13.062 17.3149C13.0224 17.319 12.9822 17.3225 12.943 17.3257L11.6884 19.3316L10.5239 17.4714ZM18.5902 8.30137L16.9843 10.8672C17.0375 10.8422 17.0913 10.8175 17.1464 10.7915L18.7928 8.16146C17.7611 8.36807 15.812 8.72996 13.9439 8.92714C13.9626 8.95787 13.9809 8.98893 13.9995 9.01978C15.758 8.83026 17.575 8.5 18.5902 8.30137ZM9.91505 16.4972L9.44119 15.7407C9.39786 15.7313 9.35402 15.7221 9.31061 15.7121L9.7979 16.4905C9.83231 16.4924 9.87102 16.4945 9.91505 16.4972ZM14.2997 17.7512C14.4264 17.5802 14.5124 17.471 14.5328 17.4024C14.4209 17.451 14.2777 17.4777 14.1996 17.5965C14.1996 17.5965 14.2566 17.6521 14.2997 17.7512ZM14.9512 17.8687C14.9512 17.8687 15.0358 17.8577 15.1097 17.7835C15.1097 17.7835 15.0312 17.6621 14.9844 17.5491C14.9286 17.6911 14.9512 17.8687 14.9512 17.8687H14.9512ZM14.5605 14.8739C14.6281 15.4125 14.7575 15.6408 14.7575 15.6408C14.7575 15.6408 14.9604 15.7997 15.3469 15.9579C14.9566 15.2358 14.5605 14.8739 14.5605 14.8739ZM10.3327 17.2769L10.4882 17.1898C10.4882 17.1898 11.1267 17.2928 14.9532 16.8981C14.8621 16.8318 14.817 16.8449 14.817 16.6926C14.817 16.644 14.8252 16.6359 14.7418 16.6359C14.6586 16.6359 14.6228 16.6138 14.5243 16.6138C14.4016 16.6138 14.2186 16.7368 12.3436 16.7368C10.8518 16.7368 9.80645 16.6115 9.73745 16.6115C9.66932 16.6115 9.53497 16.7393 9.13541 17.0607C9.13541 17.0607 9.92109 17.0505 10.3327 17.2769V17.2769ZM8.38222 19.6739C7.80728 19.564 6.61994 19.7625 6.61994 19.7625L6.30176 20.2213L8.16024 20.134L8.38222 19.6739ZM21.1672 10.8548C20.5458 11.9707 19.8699 13.4498 19.1305 14.3647L19.3436 14.2311L19.3903 14.1849L19.3518 14.3104L19.4421 14.2674L19.3062 14.5069L19.4328 14.4053C19.4328 14.4053 20.0653 13.6941 21.6648 10.8048C21.309 10.7508 21.1672 10.8548 21.1672 10.8548ZM21.2325 10.4213L21.1029 10.6264C21.1029 10.6264 21.4161 10.5666 21.8329 10.6015L21.9837 10.3889C21.5247 10.3023 21.2325 10.4213 21.2325 10.4213V10.4213Z" fill="#E57200"/>
<path d="M19.2594 14.3858C19.2594 14.3858 19.2003 14.4338 19.1084 14.4593L19.1864 14.6246L19.2346 14.5874L19.2154 14.528L19.2957 14.3749L19.2594 14.3858ZM19.8141 14.8147C19.6841 14.7471 19.4309 14.8472 19.4309 14.8472C19.4309 14.8472 19.6879 14.9074 19.8331 14.9735C19.8331 14.9735 19.8073 14.9143 19.8141 14.8147Z" fill="#E57200"/>
<path d="M9.91538 16.4972C10.002 16.5033 10.1078 16.5112 10.2307 16.5206L9.78073 15.8074C9.67598 15.7893 9.5601 15.7657 9.44152 15.7407L9.91538 16.4972ZM10.8142 17.4458C10.6443 17.4485 10.5509 17.4483 10.5509 17.4483C10.5414 17.456 10.5332 17.4639 10.5242 17.4714L11.6887 19.3316L12.9433 17.3257C12.833 17.3361 12.726 17.3457 12.621 17.3534L11.6887 18.8319L10.8142 17.4458ZM18.1321 8.61513L16.5931 11.0558C16.7089 10.998 16.8418 10.9344 16.9846 10.8672L18.5905 8.30137C17.5753 8.5 15.7583 8.83026 13.9999 9.01978C14.0422 9.08933 14.0839 9.15932 14.1247 9.22973C15.5697 9.07052 17.05 8.81883 18.1321 8.61513H18.1321ZM10.5549 9.20735C10.5549 9.09357 10.5497 8.97855 10.5394 8.8617C9.53848 8.96761 8.94191 9.20398 8.71273 9.31132C9.06397 9.21342 9.68714 9.18341 10.5549 9.20735ZM18.1613 13.8221C18.1613 13.8221 16.9438 12.1132 14.6025 10.389C14.8014 10.8005 14.9866 11.2255 15.1532 11.6645C15.1769 11.7262 15.1733 11.78 15.1207 11.78C14.608 11.78 12.7975 10.7843 11.0191 10.9627C11.9428 11.8423 12.8611 13.0765 11.9707 12.6265C11.9707 12.6265 12.9004 13.2003 13.9923 14.3509C14.8057 14.3509 14.9675 14.4882 15.0153 14.6019C15.108 14.8215 15.2428 15.2116 15.7753 15.8397C16.0198 15.8397 16.0645 15.8237 16.154 15.604C16.154 15.604 16.2206 15.8845 16.0982 16.0901C17.2082 16.9671 19.3635 17.8506 19.693 17.8506C19.8257 17.8506 19.5526 16.6444 18.9283 15.194C18.7244 14.2752 18.6119 14.0177 18.1613 13.8221ZM8.04412 12.7776C8.04412 12.7776 8.3616 12.9644 8.88291 13.3578C8.75492 13.1363 8.41725 12.8952 8.04757 12.6708L7.23633 12.7303L7.29618 12.8271C7.54402 12.8113 7.79337 12.7945 8.04412 12.7776V12.7776ZM12.8218 14.1984C12.6933 14.8926 12.8277 15.4498 12.8277 15.4498C12.8057 15.2178 12.9886 14.4397 12.9886 14.4397L12.8218 14.1984V14.1984ZM12.4141 13.8022C12.2862 14.5987 12.4664 15.2341 12.4664 15.2341C12.428 14.9414 12.5807 14.0795 12.5807 14.0795L12.4141 13.8022ZM12.0108 13.4418C11.8789 14.2931 12.0845 14.9729 12.0845 14.9729C12.0463 14.5856 12.1777 13.6832 12.1777 13.6832L12.0108 13.4418ZM11.0932 12.037C11.0932 12.037 9.52772 10.7415 7.58428 10.4153C7.51404 10.4153 7.37354 10.7107 7.37354 10.7107C7.37354 10.7107 7.57929 10.5251 7.64184 10.5251C9.30611 10.8455 11.0932 12.037 11.0932 12.037Z" fill="#006272"/>
<path d="M15.5552 17.5802C15.7819 17.4458 15.9481 17.318 15.9481 17.318C15.2004 17.3507 14.9187 17.2596 14.9187 17.2596C15.0525 17.126 15.2196 17.0109 15.3254 16.9052C15.2448 16.9179 15.1621 16.9267 15.0813 16.9336C15.0803 16.97 15.0404 17.0113 14.9264 17.0805C14.7066 17.1158 14.4864 17.1483 14.2658 17.1779C14.3272 17.2433 14.3928 17.3069 14.4655 17.3672C14.5162 17.3507 14.5701 17.3343 14.6278 17.3148C14.6278 17.3605 14.6156 17.4133 14.5981 17.4662C14.6929 17.5304 14.7942 17.5846 14.9002 17.6278C14.912 17.5546 14.934 17.4781 14.9784 17.4089C15.0162 17.4195 15.0368 17.5302 15.058 17.5606C15.1135 17.6417 15.1863 17.6549 15.1999 17.7218C15.5133 17.7939 15.911 17.8139 16.4354 17.7479L16.5809 17.63C15.8136 17.6438 15.5552 17.5802 15.5552 17.5802L15.5552 17.5802ZM14.3126 16.4557C13.9773 16.5627 13.8333 16.4878 13.8333 16.4878C13.899 16.4222 13.9415 16.2936 13.9415 16.2936C13.6448 16.3765 13.5527 16.294 13.5527 16.294C13.5998 16.2656 13.6474 16.1518 13.6474 16.1518C13.2622 16.1518 13.0518 16.2153 13.0518 16.2153C13.3717 16.2554 13.5812 16.3959 13.7593 16.5775C14.0102 16.5596 14.1638 16.5372 14.2713 16.5197L14.3126 16.4557Z" fill="white"/>
<path d="M13.6637 16.2614C13.6637 16.2614 13.8262 16.2712 14.0145 16.2041C14.0145 16.2041 14.0244 16.3302 13.9392 16.4434C13.9392 16.4434 14.0984 16.4422 14.4257 16.3665C14.4257 16.3665 14.3975 16.4318 14.358 16.5049C14.4172 16.4951 14.4618 16.4887 14.5088 16.4887C14.614 16.4887 14.6266 16.5108 14.7189 16.5108C14.893 16.5108 14.9145 16.547 14.9402 16.7497C14.9755 16.8014 15.0163 16.8364 15.0442 16.8666C15.1731 16.8566 15.3215 16.8426 15.4708 16.8214C15.4708 16.8214 15.3047 17.052 15.054 17.2219C15.054 17.2219 15.7497 17.2875 16.1101 17.2423C16.1101 17.2423 15.9545 17.4322 15.7405 17.5413C15.7405 17.5413 16.2214 17.5721 16.7379 17.5633C16.7379 17.5633 16.6365 17.6753 16.5355 17.7568C16.5355 17.7568 17.1738 17.9008 17.6277 17.7927C15.9881 17.1406 15.0858 16.1535 13.7136 16.1535C13.6932 16.2114 13.6637 16.2614 13.6637 16.2614ZM7.04897 19.2128L6.68018 19.6851C6.68018 19.6851 7.76452 19.5159 8.41479 19.6147L8.59533 19.3051C8.24078 19.1214 7.04899 19.2128 7.04899 19.2128H7.04897Z" fill="white"/>
<path d="M7.21775 19.0014L7.10352 19.1446C7.10352 19.1446 8.22291 19.0595 8.63131 19.2482L8.89691 18.8484C8.53502 18.7898 7.21775 19.0014 7.21775 19.0014ZM7.41156 18.7643L7.28128 18.9224C7.28128 18.9224 8.622 18.7135 8.93911 18.7906L8.96265 18.7583C8.63074 18.6489 7.41159 18.7642 7.41159 18.7642L7.41156 18.7643ZM7.86323 18.2453L7.47222 18.691C7.47222 18.691 8.55907 18.5782 9.00522 18.7035L9.45603 18.1827C8.99821 18.1074 7.86323 18.2453 7.86323 18.2453ZM8.44632 17.659L7.93118 18.1702C7.93118 18.1702 8.88154 18.0414 9.50836 18.1237L9.75477 17.8515C9.52001 17.6513 8.44632 17.659 8.44632 17.659Z" fill="white"/>
<path d="M8.54403 17.5698L8.51704 17.5942C8.51704 17.5942 9.44406 17.58 9.7998 17.8021L9.85324 17.7458C9.56563 17.5825 8.54403 17.5698 8.54403 17.5698ZM9.05631 17.127L8.6137 17.5072C8.6137 17.5072 9.64635 17.526 9.89983 17.6964L10.2804 17.3211C9.94588 17.1312 9.05631 17.127 9.05631 17.127ZM8.46436 19.6562L8.47838 19.7498L8.62629 19.4902L8.61189 19.4004L8.46436 19.6562ZM8.66137 19.3182L8.67655 19.4079L8.92544 19.0443L8.90918 18.9417L8.66137 19.3182ZM8.96078 18.8686L8.97831 18.9759L9.00223 18.9451L8.98165 18.84L8.96078 18.8686ZM9.03277 18.7723L9.0538 18.8815L9.47711 18.4051L9.45934 18.2751L9.03277 18.7723ZM9.51421 18.2135L9.53276 18.3443L9.78863 18.0708L9.75628 17.9457L9.51421 18.2135ZM9.80721 17.8904L9.83989 18.017L9.88966 17.9651L9.87197 17.82L9.80721 17.8904ZM9.92762 17.7612L9.94588 17.9081L10.2821 17.5783L10.278 17.4074L9.92762 17.7612Z" fill="white"/>
</svg>
