<svg width="40" height="40" viewBox="0 0 40 40" fill="none" xmlns="http://www.w3.org/2000/svg">
<path d="M8.35889 29.1791C14.054 29.6808 17.6588 31.2788 19.424 34.6048C25.4443 33.6293 31.0094 29.7737 31.0094 24.7939C31.0094 18.1697 22.9823 17.1199 22.7686 15.1967C26.1504 16.4231 29.8666 15.1317 31.6411 10.9231C26.3919 10.5329 22.5549 8.61901 20.8919 5.39517C14.4535 6.53792 9.30653 10.7094 9.30653 15.206C9.30653 21.7745 17.7517 23.5211 18.6993 24.9147C14.0912 23.1681 10.1148 25.1563 8.36818 29.1884L8.35889 29.1791Z" fill="#001628"/>
<path d="M18.3466 14.853C17.6312 14.1191 17.3246 13.5523 17.3246 12.7905C17.3246 11.9265 17.7427 11.4991 17.7427 11.016C17.7427 10.5979 17.4825 10.2728 16.9808 10.1706C17.2596 9.86398 17.6405 9.67816 18.0585 9.65958C20.2047 9.65958 20.8457 14.4071 25.3238 14.2306C26.9218 14.0819 28.4268 13.3015 29.3745 11.9358C25.4631 11.4248 21.8863 9.76178 20.1396 6.93744C18.328 7.2719 10.7376 9.88256 10.9234 15.364C11.1278 21.0684 19.5729 22.6664 21.9327 25.1098C23.8001 27.0423 22.4902 28.9933 21.2824 29.6994C19.4243 24.8776 13.3296 24.5338 10.9048 28.0178C14.8161 28.5288 18.393 30.1918 20.1396 33.0161C24.4505 32.1057 26.5409 28.3244 25.7419 25.593C24.4319 21.0777 15.9124 20.2787 13.6548 16.0515C12.447 13.6731 13.4411 11.1275 15.643 9.65029C14.8254 10.6723 14.3795 11.9451 14.3795 13.255C14.5746 13.4687 14.6582 13.9704 14.6582 13.9797C14.6861 14.1562 14.7418 14.5186 14.6489 14.7508C14.7418 15.0017 14.8719 15.2525 15.0205 15.4755C15.3178 15.5498 15.6523 15.9307 15.6523 15.94C15.9774 16.3116 16.0239 16.5532 16.0332 16.6368C16.2376 16.8133 16.4513 16.9899 16.6742 17.1571C16.8693 17.1385 17.1574 17.2221 17.4454 17.4172C17.7891 17.6402 17.9563 17.8632 18.0028 18.0211C18.2351 18.1605 18.4859 18.2998 18.7275 18.4299C18.9133 18.3742 19.2292 18.4392 19.545 18.5971C19.8609 18.7551 20.0932 18.978 20.1582 19.1639C20.4091 19.2846 20.6599 19.4147 20.9108 19.5355C21.0966 19.4797 21.4124 19.5355 21.7283 19.6934C21.9885 19.8049 22.2021 20 22.3415 20.2509C22.6016 20.3902 22.8525 20.5203 23.1033 20.6596C23.3356 20.6132 23.7072 20.7526 23.9116 20.8733C24.1625 21.0034 24.3576 21.2171 24.4783 21.4679C24.7292 21.6352 24.98 21.8024 25.2123 21.9789C25.5003 21.9975 25.7697 22.1183 25.9741 22.3134C26.2621 22.5735 26.4201 22.8522 26.4201 23.0473C26.6245 23.261 26.8103 23.484 26.9775 23.7255C27.2191 23.7813 27.4606 24.06 27.5907 24.3387C27.7765 24.7475 27.7579 25.0355 27.7022 25.1749C28.0274 26.1875 28.1203 27.4604 27.5907 28.9283C27.5814 28.9469 27.5814 28.9654 27.5721 28.984C28.6591 27.7948 29.4024 26.3362 29.3373 24.5803C29.1422 18.8759 20.6971 17.2872 18.328 14.8344L18.3466 14.853Z" fill="#95D8D8"/>
<path d="M21.5797 15.4476C20.6135 14.3327 20.0003 12.3724 18.9319 11.6013C18.4488 13.2922 19.4521 15.1503 21.5797 15.4476Z" fill="#C80F2D"/>
<path d="M20.8266 31.3717C20.6408 31.9384 20.4086 32.4865 20.1484 33.0254C18.4018 30.2011 14.8342 28.538 10.9136 28.0271C14.955 26.0017 19.1357 28.1293 20.8266 31.3717ZM29.374 11.945C25.3326 13.9704 21.1425 11.8428 19.4609 8.60972C19.6467 8.04299 19.879 7.49485 20.1391 6.95599C18.4297 7.26258 10.7371 9.85466 10.9229 15.3826C11.1273 21.087 19.5724 22.685 21.9322 25.1377C23.7996 27.0701 22.4897 29.0212 21.2819 29.7272C21.1611 30.2847 21.0032 30.8421 20.8266 31.381C21.7092 31.2323 24.3756 29.8109 24.3942 27.098C24.4221 23.3539 19.5817 22.3691 15.9026 20.0929C12.8832 18.2255 12.2979 16.3674 12.1492 15.1875C11.7869 12.4282 13.7379 9.90111 16.5715 8.71192C16.2278 8.99063 15.9212 9.3158 15.6518 9.66885C14.8342 10.6908 14.3883 11.9636 14.3883 13.2736C14.5834 13.4873 14.667 13.989 14.667 13.9983C14.6948 14.1748 14.7506 14.5371 14.6577 14.7694C14.7506 15.0202 14.8807 15.2711 15.0293 15.494C15.3266 15.5684 15.6611 15.9493 15.6611 15.9586C15.9862 16.3302 16.0327 16.5718 16.042 16.6554C16.2464 16.8319 16.4601 17.0084 16.683 17.1756C16.8781 17.1571 17.1661 17.2407 17.4542 17.4358C17.7979 17.6588 17.9651 17.8817 18.0116 18.0397C18.2439 18.179 18.4947 18.3184 18.7363 18.4485C18.9221 18.3927 19.2379 18.4577 19.5538 18.6157C19.8697 18.7736 20.102 18.9966 20.167 19.1824C20.4179 19.3032 20.6687 19.4333 20.9195 19.554C21.1054 19.4983 21.4212 19.554 21.7371 19.712C21.9973 19.8235 22.2109 20.0186 22.3503 20.2694C22.6104 20.4088 22.8613 20.5388 23.1121 20.6782C23.3444 20.6317 23.716 20.7711 23.9204 20.8919C24.1713 21.022 24.3664 21.2356 24.4871 21.4865C24.738 21.6537 24.9888 21.8209 25.2211 21.9975C25.5091 22.016 25.7785 22.1368 25.9829 22.3319C26.2709 22.5921 26.4289 22.8708 26.4289 23.0659C26.6333 23.2796 26.8191 23.5025 26.9863 23.7441C27.2279 23.7998 27.4694 24.0786 27.5995 24.3573C27.7853 24.7661 27.7667 25.0541 27.711 25.1934C28.0361 26.2061 28.129 27.4789 27.5995 28.9468C28.9931 26.5777 28.8537 24.2365 27.3022 22.2576C24.0505 18.114 15.8562 17.6216 15.8933 12.8741C15.9026 11.8707 16.2928 10.9045 16.9803 10.1612C17.259 9.85466 17.64 9.66885 18.058 9.65027C20.2042 9.65027 20.8452 14.3978 25.3233 14.2212C26.9213 14.0726 28.4263 13.2922 29.374 11.9265V11.9358V11.945Z" fill="#629EB5"/>
</svg>
