<svg width="40" height="40" viewBox="0 0 40 40" fill="none" xmlns="http://www.w3.org/2000/svg">
<path d="M19.1781 30.8623V31.3744H19.0501V30.8623H18.9019V30.7352H19.3263V30.8623H19.1781H19.1781ZM19.8719 31.3744V30.9971L19.7641 31.2321H19.651L19.5432 30.9971V31.3744H19.4152V30.7352H19.5432L19.7076 31.0765L19.8719 30.7352H19.9999V31.3744H19.8719H19.8719Z" fill="white"/>
<path d="M35.1688 7.87564H10.1012C11.7617 10.4658 12.3138 11.3177 10.9015 11.2771L8.8191 7.87564H4.83105L13.8893 22.6731C13.7673 22.668 13.6435 22.6605 13.5231 22.6605C9.81014 22.6605 6.90176 24.7388 6.90176 27.3927C6.90176 30.0461 9.81014 32.1243 13.5231 32.1243C17.2362 32.1243 20.1448 30.0461 20.1448 27.3927C20.1448 26.7212 19.9577 26.0741 19.5887 25.4684L17.5587 22.1529C17.5587 22.1529 19.1928 22.4813 20.4191 21.9149L19.8273 21.1528C19.8273 21.1528 22.3185 21.3839 24.6138 20.6997L23.8357 19.8748C23.8357 19.8748 27.3292 19.7858 29.7504 16.6798H29.509C29.509 16.6798 31.3125 15.8099 32.0726 13.8862H31.8377C31.8377 13.8862 32.9935 13.0258 33.3871 11.2574H33.0463C33.0463 11.2574 34.8823 9.96302 35.1688 7.87564Z" fill="#041E42"/>
<path d="M34.549 8.31235H10.9137C12.8503 11.2467 12.2789 11.7193 10.6597 11.7193L8.5743 8.31235H5.61133L14.7126 23.1807C14.3238 23.1291 13.9282 23.0973 13.5234 23.0973C10.0554 23.0973 7.33922 24.9839 7.33922 27.3927C7.33922 29.8009 10.0554 31.6869 13.5234 31.6869C16.9914 31.6869 19.7081 29.8009 19.7081 27.3927C19.7081 26.8026 19.5427 26.2319 19.2156 25.6962L16.6385 21.4864C16.6385 21.4864 18.4312 22.0768 19.6876 21.6849L18.8936 20.6621C18.8936 20.6621 21.8534 20.9081 23.8328 20.5083L22.891 19.5093C22.891 19.5093 27.2989 19.4655 28.9439 16.7436H28.1894C28.1894 16.7436 30.2675 16.4535 31.3163 14.2089H30.5481C30.5481 14.2089 32.3364 13.385 32.8214 11.5112H31.9914C31.9914 11.5112 33.8476 10.2789 34.549 8.31235Z" fill="white"/>
<path d="M34.0553 8.61945H11.4609C12.7996 10.6573 13.0541 12.1579 10.4821 12.0171L8.40196 8.61945H6.15869L15.3291 23.5995C14.7359 23.4698 14.1304 23.4043 13.5232 23.4042C10.2824 23.4042 7.64579 25.193 7.64579 27.3927C7.64579 29.591 10.2824 31.3803 13.5232 31.3803C16.7642 31.3803 19.4012 29.591 19.4012 27.3927C19.4012 26.86 19.2508 26.3431 18.9537 25.8563L15.9665 20.9758C15.9665 20.9758 17.8491 21.6341 19.1511 21.4962C19.1511 21.4962 18.5606 20.7653 18.2972 20.3111C18.2972 20.3111 20.4395 20.5686 23.2375 20.3245L22.1879 19.2112C22.2736 19.213 22.3649 19.2143 22.4633 19.2143C27.0021 19.2143 28.3689 16.8882 28.3689 16.8882H27.132C27.132 16.8882 30.1969 16.1071 30.852 14.3533H29.7154C29.7154 14.3533 32.1402 13.1646 32.377 11.8181H30.9933C30.9933 11.8181 33.4111 10.4536 34.0553 8.61945Z" fill="#FFB81C"/>
<path d="M33.5319 8.94492H12.0415C13.8225 11.8541 12.0391 12.5091 10.2936 12.3328L8.2196 8.94492H6.73926L16.0315 24.1245C15.2778 23.8725 14.4258 23.7294 13.5229 23.7294C10.4563 23.7294 7.97053 25.3693 7.97053 27.3927C7.97053 29.4151 10.4563 31.0548 13.5229 31.0548C16.5895 31.0548 19.0752 29.4151 19.0752 27.3927C19.0752 26.9093 18.9331 26.4483 18.6753 26.0253L15.2308 20.3984C15.2308 20.3984 17.4561 21.1705 18.483 21.1705C18.483 21.1705 18.0152 20.5742 17.733 19.9323C17.733 19.9323 20.3987 20.2196 22.5338 20.0528L21.3729 18.8221C21.3729 18.8221 21.7191 18.889 22.4631 18.889C26.2197 18.889 27.6597 17.2138 27.6597 17.2138H16.4894L16.3261 16.9469H25.5942C25.5942 16.9469 29.371 16.2256 30.2825 14.6787H14.9374L14.7742 14.4123H28.8985C28.8985 14.4123 31.5281 13.1431 31.9058 12.1438H13.3858L13.2225 11.8768H30.243C30.243 11.8768 32.7233 10.5867 33.5319 8.94496L33.5319 8.94492Z" fill="#041E42"/>
</svg>
