<svg width="40" height="40" viewBox="0 0 40 40" fill="none" xmlns="http://www.w3.org/2000/svg">
<path d="M29.0512 27.5977C28.719 27.5977 28.4492 27.867 28.4492 28.1995C28.4492 28.5316 28.719 28.8014 29.0512 28.8014C29.3835 28.8014 29.6528 28.5316 29.6528 28.1995C29.6528 27.867 29.3835 27.5977 29.0512 27.5977ZM29.0512 28.6722C28.9258 28.6723 28.8055 28.6226 28.7168 28.5339C28.6282 28.4452 28.5784 28.3249 28.5785 28.1995C28.5785 27.9384 28.7897 27.7271 29.0512 27.7271C29.3124 27.7271 29.5238 27.9384 29.5238 28.1995C29.5238 28.4608 29.3124 28.6722 29.0512 28.6722ZM29.2985 28.06C29.2985 28.0332 29.2932 28.0067 29.2829 27.9819C29.2726 27.9572 29.2576 27.9347 29.2386 27.9158C29.2197 27.8968 29.1972 27.8818 29.1724 27.8716C29.1476 27.8613 29.1211 27.8561 29.0943 27.8561H28.8043V28.5431H28.9332V28.2641H29.0257L29.1559 28.5431H29.2985L29.1625 28.2522C29.2439 28.2233 29.2983 28.1464 29.2985 28.06ZM29.0943 28.1351H28.9332V27.9848H29.0943C29.1357 27.9848 29.1696 28.0185 29.1696 28.06C29.1694 28.1015 29.1358 28.1351 29.0943 28.1351Z" fill="#00205B"/>
<path d="M33.5047 18.8119C33.5047 16.0764 31.7998 13.443 28.9012 11.8094L28.0309 12.5C30.0761 13.8721 31.2373 15.8574 31.2373 18.0641C31.2373 23.4337 24.6545 28.245 17.3603 28.245C16.644 28.245 15.9356 28.1949 15.2447 28.0963L13.1762 29.627C14.6094 30.069 16.1791 30.2983 17.8027 30.2983C26.0877 30.2983 33.5047 24.7254 33.5047 18.8119ZM33.8887 18.8119C33.8887 24.9652 26.2798 30.6823 17.8027 30.6823C16.0036 30.6823 14.2674 30.4069 12.7002 29.8767L12.3523 29.759L15.1437 27.6933L15.2223 27.7049C15.9193 27.8084 16.6356 27.861 17.3603 27.861C24.4638 27.861 30.8533 23.1909 30.8533 18.0641C30.8533 15.9158 29.6788 13.9859 27.6002 12.678L27.3707 12.5336L28.863 11.3495L28.9748 11.4109C32.0583 13.1038 33.8887 15.8941 33.8887 18.8119Z" fill="white"/>
<path d="M19.1203 21.2871L23.6108 20.4091L5.13403 34.0879L9.95738 28.57C7.42864 26.9362 5.98453 24.5208 5.98453 21.6744C5.98453 15.4019 13.3866 9.70943 21.7702 9.70943C21.889 9.70943 22.0111 9.71091 22.1565 9.71385L33.3023 6.78125L24.2956 13.9244L28.8186 13.318L19.1203 21.2871ZM22.0156 21.1123L17.7018 21.9557L27.5324 13.8779L22.964 14.4904L31.6283 7.61877L22.2022 10.0989C22.0204 10.0951 21.8933 10.0934 21.7702 10.0934C13.5799 10.0934 6.36853 15.6393 6.36853 21.6744C6.36853 24.452 7.81178 26.7967 10.3504 28.3641L10.5433 28.4831L7.76296 31.6639L22.0156 21.1123ZM20.749 10.9866C13.8716 11.1112 7.5436 15.6821 7.5436 20.7806C7.5526 23.2793 9.0735 25.357 11.658 26.6249L13.343 24.6976L10.1941 25.2664L17.7724 17.9372L14.003 18.5334L20.749 10.9866ZM21.0368 10.5999C21.0583 10.5999 21.0803 10.6001 21.1079 10.6004C21.1609 10.6011 21.1609 10.6011 21.1813 10.6014L21.6042 10.606L15.0076 17.9858L18.9134 17.368L11.3695 24.6639L14.3538 24.1248L11.7554 27.097L11.6242 27.0349C8.8273 25.7104 7.15956 23.4694 7.15956 20.7806V20.5886C7.31827 15.2532 13.9446 10.5999 21.0368 10.5999Z" fill="white"/>
<path d="M33.6967 18.8119C33.6967 16.0209 31.9617 13.2698 28.8824 11.5792L27.7024 12.5155C29.8068 13.8397 31.0453 15.8185 31.0453 18.0641C31.0453 23.3056 24.5683 28.053 17.3603 28.053C16.6204 28.053 15.8949 27.9989 15.1941 27.8948L12.7617 29.6948C14.2976 30.2145 16.0115 30.4903 17.8027 30.4903C26.3593 30.4903 33.6967 24.7134 33.6967 18.8119Z" fill="#00205B"/>
<path d="M22.8134 20.7607L18.4113 21.6214L28.1757 13.598L23.63 14.2074L32.4655 7.20001L22.1796 9.90637C22.044 9.90352 21.908 9.90144 21.7704 9.90144C13.341 9.90144 6.17676 15.6302 6.17676 21.6744C6.17676 24.6399 7.77404 26.9989 10.2498 28.5274L6.44872 32.8759L22.8134 20.7607ZM7.35183 20.7806C7.35183 15.3607 14.1339 10.7919 21.037 10.7919C21.0847 10.7919 21.1317 10.7928 21.1794 10.7934L14.5055 18.2596L18.3431 17.6526L10.782 24.9651L13.8486 24.4112L11.7066 26.8614C9.10397 25.6289 7.35183 23.5034 7.35183 20.7806Z" fill="#00205B"/>
</svg>
