<svg width="40" height="40" viewBox="0 0 40 40" fill="none" xmlns="http://www.w3.org/2000/svg">
<path d="M29.0512 27.5977C28.719 27.5977 28.4492 27.8671 28.4492 28.1995C28.4492 28.5316 28.719 28.8014 29.0512 28.8014C29.3835 28.8014 29.6528 28.5316 29.6528 28.1996C29.6528 27.8671 29.3835 27.5977 29.0512 27.5977ZM29.0512 28.6722C28.9258 28.6723 28.8055 28.6226 28.7168 28.5339C28.6282 28.4452 28.5784 28.325 28.5785 28.1996C28.5785 27.9384 28.7897 27.7272 29.0512 27.7272C29.3124 27.7272 29.5238 27.9384 29.5238 28.1996C29.5238 28.4608 29.3124 28.6722 29.0512 28.6722ZM29.2985 28.06C29.2985 28.0332 29.2932 28.0067 29.2829 27.982C29.2726 27.9572 29.2576 27.9347 29.2386 27.9158C29.2197 27.8969 29.1972 27.8818 29.1724 27.8716C29.1476 27.8614 29.1211 27.8561 29.0943 27.8562H28.8043V28.5431H28.9332V28.2641H29.0257L29.1559 28.5431H29.2985L29.1625 28.2522C29.2439 28.2233 29.2983 28.1464 29.2985 28.06ZM29.0943 28.1351H28.9332V27.9848H29.0943C29.1357 27.9848 29.1696 28.0185 29.1696 28.0601C29.1694 28.1016 29.1358 28.1351 29.0943 28.1351Z" fill="white"/>
<path d="M33.505 18.8119C33.505 16.0763 31.8 13.4429 28.9015 11.8094L28.0312 12.4999C30.0763 13.872 31.2375 15.8573 31.2375 18.0641C31.2375 23.4336 24.6548 28.245 17.3606 28.245C16.6443 28.245 15.9358 28.1949 15.245 28.0962L13.1764 29.627C14.6097 30.069 16.1793 30.2983 17.8029 30.2983C26.088 30.2983 33.505 24.7254 33.505 18.8119ZM33.889 18.8119C33.889 24.9652 26.28 30.6823 17.8029 30.6823C16.0039 30.6823 14.2677 30.4069 12.7005 29.8767L12.3525 29.759L15.144 27.6932L15.2226 27.7049C15.9196 27.8084 16.6358 27.861 17.3606 27.861C24.4641 27.861 30.8535 23.1909 30.8535 18.0641C30.8535 15.9158 29.679 13.9859 27.6005 12.678L27.371 12.5336L28.8632 11.3495L28.975 11.4109C32.0586 13.1038 33.889 15.8941 33.889 18.8119Z" fill="white"/>
<path d="M19.1206 21.2871L23.611 20.4091L5.13428 34.0879L9.95762 28.57C7.42889 26.9362 5.98478 24.5208 5.98478 21.6744C5.98478 15.4019 13.3869 9.70943 21.7705 9.70943C21.8893 9.70943 22.0113 9.71091 22.1567 9.71385L33.3025 6.78125L24.2958 13.9244L28.8189 13.318L19.1206 21.2871ZM22.0158 21.1123L17.702 21.9557L27.5326 13.8779L22.9642 14.4904L31.6285 7.61877L22.2025 10.0989C22.0206 10.0951 21.8935 10.0934 21.7705 10.0934C13.5802 10.0934 6.36878 15.6393 6.36878 21.6744C6.36878 24.452 7.81203 26.7967 10.3507 28.3641L10.5435 28.4831L7.7632 31.6639L22.0158 21.1123ZM20.7492 10.9866C13.8718 11.1112 7.54385 15.6821 7.54385 20.7806C7.55284 23.2793 9.07374 25.357 11.6583 26.6249L13.3432 24.6976L10.1943 25.2664L17.7727 17.9372L14.0032 18.5334L20.7492 10.9866ZM21.037 10.5999C21.0586 10.5999 21.0806 10.6001 21.1082 10.6004C21.1611 10.6011 21.1611 10.6011 21.1815 10.6014L21.6044 10.606L15.0078 17.9858L18.9136 17.368L11.3697 24.6639L14.354 24.1248L11.7556 27.097L11.6244 27.0349C8.82754 25.7104 7.15981 23.4694 7.15981 20.7806V20.5886C7.31852 15.2533 13.9448 10.5999 21.037 10.5999Z" fill="white"/>
<path d="M33.6967 18.8119C33.6967 16.0209 31.9617 13.2698 28.8824 11.5792L27.7024 12.5155C29.8068 13.8397 31.0453 15.8185 31.0453 18.0641C31.0453 23.3056 24.5683 28.053 17.3603 28.053C16.6204 28.053 15.8949 27.9989 15.1941 27.8948L12.7617 29.6948C14.2976 30.2145 16.0115 30.4903 17.8027 30.4903C26.3593 30.4903 33.6967 24.7134 33.6967 18.8119Z" fill="white"/>
<path d="M22.8134 20.7607L18.4113 21.6214L28.1757 13.5979L23.63 14.2074L32.4655 7.19998L22.1796 9.90634C22.044 9.90349 21.908 9.9014 21.7704 9.9014C13.341 9.9014 6.17676 15.6302 6.17676 21.6744C6.17676 24.6398 7.77404 26.9989 10.2498 28.5274L6.44872 32.8759L22.8134 20.7607ZM7.35183 20.7806C7.35183 15.3607 14.1339 10.7919 21.037 10.7919C21.0847 10.7919 21.1317 10.7928 21.1794 10.7933L14.5055 18.2596L18.3431 17.6526L10.782 24.9651L13.8486 24.4112L11.7066 26.8613C9.10397 25.6288 7.35183 23.5034 7.35183 20.7806Z" fill="white"/>
</svg>
