<svg width="40" height="40" viewBox="0 0 40 40" fill="none" xmlns="http://www.w3.org/2000/svg">
<path d="M25.979 31.993V32.5069H25.8505V31.993H25.7017V31.8653H26.1278V31.993H25.979ZM26.6755 32.5069V32.1282L26.5673 32.3642H26.4537L26.3455 32.1282V32.507H26.217V31.8652H26.3455L26.5105 32.2079L26.6755 31.8652H26.804V32.5069L26.6755 32.5069Z" fill="#00205B"/>
<path d="M32.3062 17.0272C32.3094 17.0217 32.3113 17.0155 32.3119 17.0091C32.3124 17.0028 32.3116 16.9964 32.3094 16.9904C32.3073 16.9844 32.3039 16.9789 32.2994 16.9743C32.2949 16.9698 32.2895 16.9662 32.2836 16.9639C31.9128 16.8248 31.5632 16.7286 31.2093 16.6782C31.2027 16.6774 31.1964 16.6749 31.1909 16.6711C31.1854 16.6673 31.181 16.6622 31.1779 16.6563C31.1748 16.6504 31.1731 16.6439 31.1731 16.6372C31.173 16.6305 31.1746 16.6239 31.1776 16.618C31.4676 16.0364 31.6553 15.3683 31.7952 14.6444C31.8012 14.6132 31.7728 14.5857 31.7421 14.5937C31.0901 14.763 30.3437 15.0696 29.7227 15.3663C29.7172 15.369 29.7112 15.3703 29.705 15.3704C29.6989 15.3704 29.6928 15.369 29.6873 15.3663C29.6817 15.3636 29.6769 15.3597 29.6731 15.3549C29.6693 15.3501 29.6666 15.3444 29.6653 15.3384C29.574 14.9363 29.4656 14.4827 29.2429 14.0896C29.2398 14.0843 29.2356 14.0798 29.2307 14.0762C29.2257 14.0726 29.2201 14.0701 29.2141 14.0688C29.2081 14.0675 29.2019 14.0675 29.1959 14.0688C29.1899 14.0701 29.1842 14.0726 29.1793 14.0762C28.5223 14.5515 27.9352 15.0742 27.4238 15.6482C27.4194 15.6532 27.4139 15.6571 27.4077 15.6595C27.4015 15.6619 27.3948 15.6629 27.3882 15.6622C27.3816 15.6616 27.3752 15.6594 27.3696 15.6558C27.364 15.6522 27.3593 15.6473 27.356 15.6416C27.2242 15.4241 27.0525 15.2296 26.826 15.0666C26.8173 15.0604 26.8066 15.0577 26.796 15.0591C26.7854 15.0605 26.7758 15.0659 26.769 15.0742C25.9254 16.1175 24.8638 17.3026 23.4937 18.2839C23.4652 18.3043 23.4263 18.2765 23.4365 18.243C23.7475 17.2257 24.2158 16.2561 24.6723 15.3659C24.6753 15.3602 24.6769 15.354 24.677 15.3476C24.6772 15.3413 24.6759 15.335 24.6732 15.3292C24.6706 15.3234 24.6667 15.3183 24.6617 15.3143C24.6568 15.3103 24.651 15.3075 24.6449 15.306C24.4527 15.2625 24.1965 15.2381 23.9537 15.2243C23.9464 15.224 23.9393 15.2217 23.9332 15.2177C23.9271 15.2137 23.9222 15.2081 23.919 15.2016C23.9157 15.195 23.9143 15.1877 23.9148 15.1805C23.9154 15.1732 23.9178 15.1662 23.9219 15.1602C24.4994 14.3039 24.9409 13.2624 25.2208 12.326C25.2227 12.3198 25.223 12.3132 25.2219 12.3069C25.2207 12.3005 25.218 12.2945 25.214 12.2894C25.21 12.2843 25.2049 12.2802 25.199 12.2774C25.1931 12.2747 25.1867 12.2734 25.1802 12.2737C24.6975 12.2953 24.1146 12.4038 23.632 12.5713C23.6254 12.5736 23.6183 12.5742 23.6113 12.573C23.6044 12.5717 23.5979 12.5686 23.5926 12.564C23.5872 12.5595 23.5832 12.5536 23.5808 12.5469C23.5785 12.5403 23.5779 12.5331 23.5793 12.5262C23.7203 11.7171 23.655 10.8097 23.5007 9.96882C23.4997 9.96278 23.4973 9.95705 23.4937 9.95202C23.4902 9.947 23.4856 9.94282 23.4803 9.93977C23.475 9.93672 23.469 9.93487 23.4629 9.93436C23.4568 9.93385 23.4507 9.93469 23.4449 9.93682C23.1043 10.0651 22.714 10.2616 22.359 10.4761C22.3525 10.4801 22.3451 10.4823 22.3375 10.4823C22.3299 10.4823 22.3224 10.4802 22.3159 10.4763C22.3094 10.4723 22.3041 10.4666 22.3007 10.4598C22.2973 10.453 22.2958 10.4454 22.2964 10.4379C22.3498 9.67714 22.2656 8.83637 22.1025 8.15906C22.1012 8.15363 22.0988 8.14853 22.0954 8.14409C22.0921 8.13964 22.0878 8.13596 22.0829 8.13326C22.078 8.13057 22.0726 8.12893 22.0671 8.12844C22.0615 8.12796 22.0559 8.12865 22.0506 8.13046C21.8027 8.21667 21.5112 8.36933 21.233 8.53534C21.2277 8.53859 21.2217 8.54058 21.2154 8.54118C21.2092 8.54178 21.2029 8.54097 21.197 8.53881C21.1911 8.53665 21.1858 8.53319 21.1814 8.52869C21.177 8.5242 21.1737 8.51877 21.1718 8.51283C20.9099 7.74645 20.4898 7.00106 20.037 6.26063C20.0331 6.25432 20.0277 6.24911 20.0212 6.2455C20.0147 6.24189 20.0074 6.23999 20 6.23999C19.9926 6.23999 19.9853 6.24189 19.9788 6.2455C19.9724 6.24911 19.9669 6.25432 19.963 6.26063C19.5102 7.00106 19.0901 7.74645 18.8283 8.51283C18.8263 8.51877 18.823 8.5242 18.8186 8.52869C18.8142 8.53319 18.8089 8.53665 18.803 8.53881C18.7971 8.54097 18.7909 8.54178 18.7846 8.54118C18.7784 8.54058 18.7723 8.53859 18.767 8.53534C18.4888 8.36929 18.1973 8.21671 17.9494 8.13046C17.9441 8.12865 17.9385 8.12797 17.933 8.12846C17.9274 8.12894 17.922 8.13059 17.9171 8.13328C17.9122 8.13597 17.908 8.13966 17.9046 8.1441C17.9012 8.14854 17.8988 8.15364 17.8975 8.15907C17.7344 8.83633 17.6502 9.67714 17.7037 10.4378C17.7043 10.4454 17.7028 10.453 17.6993 10.4598C17.6959 10.4666 17.6906 10.4722 17.6841 10.4762C17.6776 10.4802 17.6702 10.4823 17.6626 10.4822C17.655 10.4822 17.6475 10.4801 17.6411 10.4761C17.286 10.2616 16.8958 10.0651 16.5551 9.93683C16.5493 9.93471 16.5432 9.93387 16.5371 9.93438C16.531 9.93489 16.525 9.93674 16.5197 9.93979C16.5144 9.94284 16.5098 9.94702 16.5063 9.95204C16.5028 9.95706 16.5004 9.96278 16.4993 9.96882C16.3451 10.8097 16.2797 11.7171 16.4208 12.5262C16.4221 12.5331 16.4215 12.5402 16.4192 12.5469C16.4168 12.5535 16.4128 12.5594 16.4074 12.564C16.4021 12.5686 16.3956 12.5717 16.3887 12.5729C16.3818 12.5742 16.3746 12.5736 16.368 12.5713C15.8854 12.4039 15.3025 12.2952 14.8198 12.2737C14.8133 12.2734 14.8069 12.2747 14.801 12.2774C14.7951 12.2802 14.79 12.2843 14.786 12.2894C14.782 12.2945 14.7793 12.3005 14.7782 12.3069C14.777 12.3132 14.7773 12.3198 14.7792 12.326C15.0591 13.2624 15.5006 14.3039 16.0781 15.1602C16.0822 15.1662 16.0847 15.1732 16.0852 15.1805C16.0857 15.1877 16.0843 15.195 16.081 15.2016C16.0778 15.2081 16.0729 15.2137 16.0668 15.2177C16.0607 15.2217 16.0536 15.224 16.0463 15.2243C15.8035 15.2381 15.5473 15.2625 15.3552 15.3061C15.349 15.3075 15.3432 15.3104 15.3383 15.3144C15.3334 15.3184 15.3295 15.3235 15.3268 15.3292C15.3241 15.335 15.3228 15.3413 15.323 15.3477C15.3231 15.354 15.3247 15.3602 15.3277 15.3659C15.785 16.2576 16.254 17.2288 16.565 18.248C16.5749 18.2803 16.5379 18.3075 16.5102 18.2883C15.2964 17.4396 14.1317 16.1946 13.231 15.0744C13.2243 15.0661 13.2146 15.0606 13.204 15.0592C13.1934 15.0578 13.1827 15.0604 13.174 15.0667C12.9475 15.2296 12.7759 15.4241 12.6441 15.6416C12.6407 15.6473 12.636 15.6522 12.6304 15.6558C12.6248 15.6594 12.6185 15.6616 12.6118 15.6622C12.6052 15.6629 12.5985 15.6619 12.5924 15.6595C12.5862 15.6571 12.5807 15.6532 12.5762 15.6482C12.0649 15.0742 11.4778 14.5515 10.8207 14.0762C10.8157 14.0726 10.8101 14.0701 10.8041 14.0688C10.7981 14.0676 10.7919 14.0676 10.786 14.0688C10.78 14.0701 10.7743 14.0726 10.7694 14.0762C10.7644 14.0798 10.7603 14.0844 10.7572 14.0896C10.5344 14.4827 10.426 14.9364 10.3347 15.3385C10.3334 15.3445 10.3307 15.3501 10.3269 15.3549C10.3231 15.3597 10.3182 15.3636 10.3127 15.3663C10.3072 15.369 10.3011 15.3703 10.295 15.3703C10.2889 15.3703 10.2828 15.3689 10.2773 15.3663C9.65635 15.0696 8.90996 14.763 8.25791 14.5937C8.22717 14.5857 8.19879 14.6132 8.20483 14.6444C8.3448 15.3683 8.53242 16.0364 8.82249 16.618C8.82552 16.6239 8.82708 16.6305 8.82703 16.6372C8.82698 16.6439 8.82533 16.6505 8.82221 16.6564C8.81909 16.6623 8.8146 16.6674 8.80911 16.6712C8.80363 16.675 8.79731 16.6774 8.79068 16.6783C8.43683 16.7286 8.08715 16.8248 7.71644 16.9639C7.71048 16.9662 7.70508 16.9697 7.70061 16.9743C7.69615 16.9789 7.69273 16.9843 7.69058 16.9904C7.68843 16.9964 7.6876 17.0028 7.68816 17.0091C7.68871 17.0155 7.69064 17.0217 7.6938 17.0272C8.12971 17.7769 8.63275 18.3954 9.2116 18.8781C9.21678 18.8823 9.22084 18.8878 9.22345 18.894C9.22606 18.9002 9.22713 18.9069 9.22658 18.9136C9.22603 18.9203 9.22387 18.9267 9.22029 18.9324C9.2167 18.9381 9.2118 18.9428 9.20599 18.9462C8.97416 19.0848 8.75937 19.2501 8.56603 19.4387C8.56192 19.4427 8.55866 19.4476 8.55643 19.4529C8.55421 19.4582 8.55306 19.464 8.55307 19.4697C8.55307 19.4755 8.55422 19.4812 8.55645 19.4866C8.55868 19.4919 8.56195 19.4967 8.56607 19.5008C9.30035 20.2232 10.105 20.8703 10.9681 21.4326C10.9739 21.4364 10.9788 21.4415 10.9822 21.4476C10.9856 21.4536 10.9875 21.4604 10.9878 21.4674C10.9881 21.4743 10.9866 21.4812 10.9837 21.4875C10.9807 21.4938 10.9763 21.4993 10.9708 21.5035C10.6506 21.7513 10.3685 22.0084 10.1266 22.2976C10.1194 22.3064 10.1158 22.3175 10.1167 22.3288C10.1176 22.3401 10.1228 22.3506 10.1312 22.3581C10.7608 22.9152 11.4816 23.3666 12.3184 23.7082C12.3255 23.7111 12.3317 23.7158 12.3364 23.7219C12.341 23.7279 12.344 23.7351 12.3449 23.7427C12.3459 23.7503 12.3448 23.758 12.3418 23.7651C12.3388 23.7721 12.3339 23.7782 12.3278 23.7827C12.0301 24.0065 11.7882 24.2539 11.5656 24.5218C11.5615 24.5268 11.5585 24.5326 11.5569 24.5389C11.5553 24.5451 11.5552 24.5517 11.5564 24.558C11.5577 24.5644 11.5604 24.5703 11.5642 24.5755C11.5681 24.5807 11.5731 24.585 11.5788 24.588C12.1768 24.8953 12.9027 25.094 13.6555 25.2302C13.6897 25.2364 13.6925 25.2837 13.6592 25.294C12.6978 25.5915 11.8148 25.9759 10.9694 26.4467C10.9631 26.4502 10.9578 26.4553 10.9539 26.4614C10.9501 26.4675 10.9478 26.4745 10.9473 26.4817C10.9469 26.4889 10.9482 26.4962 10.9512 26.5027C10.9542 26.5093 10.9589 26.515 10.9646 26.5193C11.5843 26.9796 12.2162 27.3808 12.9516 27.6675C12.9586 27.6702 12.9648 27.6746 12.9695 27.6805C12.9743 27.6863 12.9774 27.6933 12.9786 27.7007C12.9797 27.7081 12.9789 27.7157 12.9763 27.7227C12.9736 27.7297 12.9691 27.7359 12.9632 27.7406C11.9583 28.5597 11.1365 29.5026 10.4188 30.5284C10.3973 30.559 10.423 30.601 10.4602 30.5963C11.4844 30.466 12.4374 30.306 13.2587 30.0809C13.2664 30.0787 13.2746 30.0788 13.2822 30.0812C13.2899 30.0836 13.2967 30.0882 13.3017 30.0944C13.3068 30.1006 13.31 30.1081 13.3108 30.1161C13.3116 30.1241 13.3101 30.1321 13.3064 30.1392C13.1305 30.4903 12.9719 30.864 12.8271 31.256C12.8159 31.2863 12.841 31.3181 12.8731 31.3146C13.7965 31.2145 14.6359 31.0973 15.3055 30.9454C15.343 30.9368 15.371 30.978 15.3499 31.0101C15.0666 31.4417 14.8659 31.9087 14.7046 32.4217C14.6948 32.453 14.7224 32.4838 14.7545 32.4776C16.3734 32.1684 17.8467 31.7052 19.1536 31.078C19.1889 31.061 19.2293 31.0853 19.2319 31.1244C19.3107 32.2852 19.7507 33.0925 20.353 33.7411C20.3754 33.7651 20.4132 33.7663 20.4372 33.7441L21.283 32.9634C21.3086 32.9397 21.311 32.9002 21.2881 32.874C21.1208 32.6827 20.351 31.8091 20.4872 31.1449C20.5034 31.0658 20.5913 31.0235 20.6648 31.0568C21.64 31.498 23.661 32.1717 25.2478 32.478C25.2791 32.4841 25.3055 32.4539 25.296 32.4234C25.1346 31.9097 24.9337 31.4421 24.6501 31.0102C24.629 30.978 24.657 30.9368 24.6945 30.9454C25.3642 31.0973 26.2035 31.2145 27.127 31.3146C27.159 31.3181 27.1841 31.2863 27.1729 31.256C27.0282 30.864 26.8695 30.4903 26.6937 30.1392C26.69 30.1321 26.6884 30.1241 26.6893 30.1161C26.6901 30.1082 26.6933 30.1006 26.6983 30.0944C26.7034 30.0882 26.7102 30.0836 26.7178 30.0812C26.7255 30.0788 26.7336 30.0787 26.7413 30.0809C27.5626 30.306 28.5156 30.4661 29.5398 30.5963C29.577 30.601 29.6027 30.559 29.5812 30.5283C28.8635 29.5027 28.0418 28.5597 27.0368 27.7406C27.031 27.7358 27.0265 27.7297 27.0238 27.7227C27.0211 27.7157 27.0203 27.7081 27.0215 27.7007C27.0227 27.6932 27.0258 27.6863 27.0305 27.6805C27.0353 27.6746 27.0414 27.6702 27.0485 27.6675C27.7838 27.3808 28.4157 26.9796 29.0354 26.5193C29.0412 26.515 29.0458 26.5093 29.0488 26.5027C29.0519 26.4962 29.0532 26.4889 29.0527 26.4817C29.0523 26.4745 29.05 26.4675 29.0461 26.4614C29.0423 26.4553 29.037 26.4502 29.0307 26.4467C28.1853 25.9759 27.3022 25.5915 26.3408 25.294C26.3075 25.2837 26.3103 25.2364 26.3445 25.2302C27.0974 25.094 27.8232 24.8953 28.4212 24.588C28.4269 24.585 28.4319 24.5807 28.4358 24.5755C28.4397 24.5704 28.4423 24.5644 28.4436 24.558C28.4449 24.5517 28.4447 24.5451 28.4431 24.5389C28.4415 24.5326 28.4386 24.5268 28.4344 24.5218C28.2118 24.2539 27.9699 24.0065 27.6722 23.7827C27.6661 23.7782 27.6612 23.7721 27.6582 23.765C27.6552 23.758 27.6541 23.7503 27.6551 23.7427C27.656 23.7351 27.659 23.7279 27.6637 23.7219C27.6683 23.7158 27.6745 23.7111 27.6816 23.7082C28.5184 23.3666 29.2392 22.9152 29.8688 22.358C29.8863 22.3426 29.8884 22.3156 29.8734 22.2976C29.6315 22.0084 29.3495 21.7512 29.0292 21.5035C29.0237 21.4993 29.0193 21.4938 29.0163 21.4875C29.0133 21.4812 29.0119 21.4743 29.0122 21.4674C29.0124 21.4604 29.0144 21.4536 29.0178 21.4476C29.0212 21.4415 29.026 21.4364 29.0319 21.4326C29.895 20.8703 30.6997 20.2232 31.434 19.5008C31.4512 19.4838 31.4513 19.4556 31.434 19.4387C31.2406 19.2501 31.0259 19.0848 30.794 18.9462C30.7882 18.9429 30.7833 18.9381 30.7797 18.9325C30.7761 18.9268 30.7739 18.9203 30.7734 18.9136C30.7728 18.9069 30.7739 18.9002 30.7765 18.894C30.7791 18.8878 30.7832 18.8823 30.7884 18.8781C31.3673 18.3954 31.8704 17.7769 32.3062 17.0272Z" fill="#00205B" stroke="white" stroke-width="0.25"/>
<path d="M19.8389 17.0637C19.8426 17.0659 19.8456 17.0691 19.8476 17.0728C19.8497 17.0766 19.8509 17.0808 19.8509 17.0851C19.8567 17.4071 19.8647 17.7038 19.8751 17.9923C19.8753 17.9975 19.8775 18.0025 19.8813 18.0062C19.8851 18.0098 19.8901 18.0118 19.8954 18.0119L20.1249 18.0129H20.125C20.1278 18.0129 20.1306 18.0123 20.1332 18.0112C20.1357 18.0101 20.1381 18.0085 20.14 18.0064C20.1419 18.0044 20.1434 18.002 20.1444 17.9994C20.1454 17.9968 20.1458 17.994 20.1457 17.9912C20.1373 17.7887 20.1294 17.5838 20.1224 17.3823C20.1223 17.3769 20.1234 17.3716 20.1257 17.3667C20.1281 17.3618 20.1316 17.3576 20.1359 17.3543C21.2241 16.5302 22.0837 15.5682 22.4943 14.7147L22.4824 14.7082C21.9777 15.5525 21.1863 16.363 20.1303 17.1171C20.124 17.1213 20.1136 17.1179 20.1133 17.1086C20.0726 15.8162 20.0729 14.7507 20.1142 13.851C20.1177 13.7297 20.1208 13.6026 20.1239 13.4623C20.124 13.4551 20.1261 13.448 20.1298 13.4418C20.1335 13.4356 20.1388 13.4305 20.1451 13.4269C20.61 13.1658 21.0348 12.8258 21.4439 12.3874L21.4344 12.3777C20.9841 12.7719 20.5625 13.0631 20.1454 13.2681C20.1431 13.2692 20.1405 13.2696 20.138 13.2691C20.1355 13.2687 20.1331 13.2675 20.1313 13.2657C20.1302 13.2645 20.1293 13.2631 20.1287 13.2616C20.1281 13.2601 20.1278 13.2585 20.1278 13.2569C20.1558 11.6622 20.1185 9.80116 20.0411 8.92789L20.0275 8.92854C20.0354 9.8702 20.0246 10.8119 19.9953 11.7531C19.9952 11.7553 19.9943 11.7574 19.9927 11.7589C19.9911 11.7604 19.989 11.7612 19.9868 11.7611C19.9868 11.7611 19.9829 11.7607 19.9809 11.7585C19.5974 11.3536 19.245 10.902 18.9333 10.4166L18.9216 10.4234C19.1796 10.9194 19.5214 11.421 19.9666 11.9569C19.9805 11.9736 19.9878 11.9949 19.987 12.0166C19.9662 12.6196 19.9376 13.2224 19.901 13.8246C19.8911 14.0256 19.8824 14.238 19.8734 14.4935C19.873 14.5022 19.8633 14.5055 19.8576 14.5016C19.3672 14.1534 18.9161 13.675 18.5529 13.1182L18.5412 13.1251C18.8633 13.7301 19.2992 14.2449 19.837 14.6552C19.8559 14.6697 19.8667 14.6923 19.8661 14.7159C19.8445 15.4184 19.8381 16.1212 19.8469 16.824C19.8469 16.8256 19.8463 16.8272 19.8452 16.8284C19.8442 16.8294 19.8429 16.83 19.8415 16.8302C19.8402 16.8304 19.8388 16.8301 19.8375 16.8294C18.8726 16.2405 18.0735 15.4771 17.4624 14.5604L17.4509 14.5675C18.0001 15.5394 18.8706 16.4492 19.8389 17.0637ZM12.8809 19.6131C12.884 19.6132 12.8871 19.6125 12.8899 19.6111L13.0467 19.537C13.0493 19.5358 13.0516 19.534 13.0533 19.5317C13.0551 19.5295 13.0562 19.5268 13.0567 19.524C13.0573 19.5212 13.0571 19.5183 13.0563 19.5156C13.0555 19.5128 13.0541 19.5103 13.0521 19.5083C12.9947 19.4484 12.937 19.3888 12.8789 19.3296C12.8666 19.3171 12.8597 19.3003 12.8594 19.2827C12.8488 18.6738 12.6456 18.1339 12.2555 17.6778L12.2447 17.686C12.5393 18.1295 12.6821 18.6011 12.6814 19.1275C12.6814 19.1287 12.6803 19.129 12.6792 19.1285C12.3059 18.7566 11.8989 18.3759 11.4697 17.9971C11.4631 17.9912 11.458 17.9839 11.4547 17.9757C11.4514 17.9675 11.4501 17.9587 11.4509 17.9499C11.4886 17.501 11.4124 17.077 11.2244 16.6898L11.2119 16.695C11.3431 17.0712 11.3753 17.4491 11.3103 17.8502L11.3037 17.8526C10.8288 17.4156 10.3045 16.8966 9.70104 16.2661L9.69092 16.2751C10.1983 16.88 10.7976 17.5181 11.5231 18.2261C11.6401 18.3354 11.7551 18.4468 11.8681 18.5603C11.7968 18.5656 11.7254 18.5682 11.654 18.5682C11.1556 18.5682 10.6513 18.4436 10.1125 18.1871L10.106 18.1991C10.6756 18.5473 11.2756 18.7165 11.9402 18.7165C11.9625 18.7165 11.9849 18.7163 12.0081 18.7159C12.0185 18.7159 12.0281 18.7199 12.0351 18.727C12.276 18.972 12.5474 19.2596 12.865 19.6062C12.867 19.6084 12.8695 19.6101 12.8722 19.6113C12.8749 19.6125 12.8779 19.6131 12.8809 19.6131ZM28.5984 18.0227C29.1492 17.4658 29.6711 16.8999 30.1496 16.3409L30.1396 16.3317C29.5727 16.9015 28.9951 17.4648 28.3739 18.0539C28.3729 18.0549 28.3715 18.0554 28.37 18.0554C28.3677 18.0554 28.3648 18.0539 28.3644 18.0507C28.3055 17.655 28.3186 17.2232 28.4021 16.8018L28.3891 16.7982C28.241 17.2071 28.1875 17.6509 28.2255 18.1549C28.2269 18.1738 28.2193 18.1927 28.2052 18.2054C27.7341 18.6258 27.2897 19.0512 26.8843 19.47C26.8824 19.4719 26.881 19.4743 26.8802 19.4769C26.8794 19.4796 26.8792 19.4824 26.8796 19.4851C26.8801 19.4878 26.8812 19.4903 26.8828 19.4926C26.8844 19.4948 26.8865 19.4966 26.889 19.4978L27.0487 19.5801C27.0535 19.5826 27.059 19.5834 27.0643 19.5824C27.0696 19.5815 27.0745 19.5788 27.0782 19.5748C27.2449 19.3922 27.4139 19.2117 27.5853 19.0335C27.5925 19.026 27.6011 19.0201 27.6106 19.016C27.6202 19.0119 27.6304 19.0098 27.6408 19.0096C28.309 19.0017 28.8828 18.8457 29.3947 18.5326L29.3884 18.5206C28.8902 18.7405 28.4445 18.843 27.9858 18.843C27.9198 18.8429 27.8538 18.8408 27.7879 18.8367C27.7867 18.8366 27.7857 18.8362 27.7848 18.8355C27.7839 18.8349 27.7832 18.8339 27.7828 18.8329C27.7824 18.8319 27.7823 18.8308 27.7825 18.8298C27.7827 18.8288 27.7832 18.8278 27.7839 18.827C28.0504 18.5539 28.3219 18.2857 28.5984 18.0227ZM20.5885 29.238C20.1161 29.238 19.6676 29.3675 19.4503 29.6868C19.4478 29.6906 19.4432 29.6919 19.4394 29.6894C19.2971 29.5965 18.8285 29.3129 18.2825 29.3129C17.9887 29.3129 17.6685 29.4555 17.345 29.6385C17.3411 29.6407 17.3366 29.6415 17.3322 29.6409C16.4723 29.5142 15.6479 29.6808 14.8413 29.9942C15.684 29.7809 16.4784 29.6449 17.11 29.7683C17.1139 29.7691 17.1147 29.7742 17.1113 29.7762C16.7367 30.0039 16.3655 30.253 16.0341 30.3654C16.7178 30.2862 17.6097 29.5091 18.3013 29.5091C18.7624 29.5091 19.2268 29.7966 19.3493 29.8783C19.3532 29.8809 19.3545 29.8854 19.3531 29.8899C19.3195 29.9985 19.3062 30.1221 19.3181 30.2626C19.5434 29.6391 20.0004 29.4953 20.6265 29.4953C21.108 29.4953 21.5904 29.6667 22.1535 29.7949C22.1588 29.7961 22.1637 29.7985 22.1678 29.8021C22.5118 30.1014 23.1438 30.4007 23.4454 30.4513L23.5748 30.473L23.4526 30.4252C23.1944 30.3244 22.7368 30.0967 22.5071 29.8731C22.5043 29.8704 22.5069 29.8658 22.5107 29.8665C22.7452 29.9061 22.9945 29.9323 23.2635 29.9323C24.2657 29.9323 24.7168 29.7534 25.0003 29.6369C24.699 29.7008 24.4122 29.7922 23.4058 29.7922C22.4886 29.7922 21.3358 29.238 20.5885 29.238ZM13.5996 20.9136C13.7689 20.8279 13.9391 20.744 14.1102 20.6619L13.9114 20.2781C13.4122 20.5177 12.9204 20.7723 12.4365 21.0416L12.6353 21.4255C12.8011 21.3332 12.9678 21.2427 13.1355 21.1538L13.1658 21.1377L14.16 23.0579C14.2938 22.9873 14.4282 22.9177 14.5631 22.8492L13.569 20.929L13.5996 20.9136ZM15.6121 22.3549C15.668 22.3549 15.7237 22.3453 15.7775 22.3264C15.9774 22.2559 16.1781 22.1878 16.3796 22.1221C16.5061 22.0809 16.608 21.9939 16.6664 21.8772C16.7238 21.7625 16.7325 21.6318 16.6908 21.5089L16.1737 19.9842C16.1053 19.7823 15.909 19.6414 15.6964 19.6414C15.6452 19.6414 15.5943 19.6495 15.5457 19.6653C15.3447 19.7309 15.1444 19.7988 14.945 19.869C14.6888 19.9592 14.5522 20.2441 14.6404 20.5041L15.1575 22.0288C15.2235 22.2238 15.4064 22.3549 15.6121 22.3549ZM15.2445 20.2225C15.3371 20.1905 15.4299 20.159 15.5229 20.128C15.6259 20.0941 15.7369 20.1494 15.7718 20.252L16.2014 21.5191C16.2097 21.5434 16.2131 21.569 16.2114 21.5946C16.2097 21.6202 16.203 21.6451 16.1915 21.6681C16.1801 21.6911 16.1642 21.7117 16.1447 21.7286C16.1253 21.7455 16.1027 21.7583 16.0782 21.7664C15.9854 21.7973 15.8928 21.8287 15.8004 21.8606C15.7798 21.8677 15.7582 21.8714 15.7365 21.8714H15.7364C15.6957 21.8714 15.6561 21.8586 15.623 21.835C15.59 21.8113 15.5652 21.7778 15.5521 21.7393L15.1224 20.4722C15.0876 20.3697 15.1423 20.2577 15.2445 20.2225ZM20.3736 21.5683C20.6518 21.5683 20.8651 21.357 20.8651 21.0874V19.4774C20.8652 19.2029 20.6443 18.977 20.3727 18.9738C20.1613 18.9713 19.9499 18.9713 19.7385 18.9738C19.4669 18.9768 19.246 19.2028 19.246 19.4774V21.0874C19.246 21.3571 19.4593 21.5683 19.7316 21.5683C19.7838 21.568 20.0258 21.5642 20.3736 21.5683ZM19.7128 19.602C19.7127 19.4937 19.8006 19.4052 19.9086 19.4046C20.0066 19.4041 20.1046 19.4041 20.2027 19.4046C20.3106 19.4053 20.3984 19.4938 20.3984 19.602V20.94C20.398 21.0475 20.3108 21.1345 20.2032 21.1346C20.1051 21.134 20.007 21.134 19.9089 21.1346C19.8004 21.1346 19.7128 21.0473 19.7128 20.94V19.602ZM19.6003 27.7142H20.2957L20.4038 28.1383H20.8631L20.2523 25.8817H19.6437L19.0329 28.1383H19.4922L19.6003 27.7142ZM19.948 26.3498L20.1876 27.2901H19.7084L19.948 26.3498ZM21.1344 24.0738V23.3681C21.1344 23.1218 20.9347 22.9227 20.6884 22.9227H19.7139V25.1793H20.1562V24.5199H20.6884C20.9347 24.5199 21.1344 24.3201 21.1344 24.0738ZM20.6925 23.9586C20.6925 24.0343 20.6312 24.0957 20.5555 24.0957H20.1562V23.3468H20.5555C20.6312 23.3468 20.6925 23.4082 20.6925 23.4839V23.9586ZM15.1717 25.8817V28.1383H16.4926V27.7142H15.6185V25.8817H15.1717ZM16.8546 22.9227H16.5031L16.0131 24.0538L15.5233 22.9227H15.1716V25.1793H15.614V24.1381L16.0131 25.0415L16.4123 24.1382V25.1793H16.8546V22.9227ZM17.7643 21.7786L17.6402 21.0104L17.6735 21.0046C17.7363 20.9937 17.7992 20.9831 17.8622 20.9727L17.8831 20.9692L17.8954 20.9865C18.0593 21.2168 18.2228 21.4473 18.386 21.678C18.5329 21.6561 18.68 21.6354 18.8272 21.616C18.6665 21.387 18.5055 21.1581 18.3442 20.9295L18.3199 20.895L18.3586 20.8786C18.5623 20.7926 18.6809 20.5785 18.6458 20.3602L18.5131 19.5382C18.474 19.297 18.2618 19.115 18.0193 19.115C17.9951 19.115 17.9707 19.1168 17.9466 19.1205C17.5979 19.1729 17.2503 19.2324 16.9041 19.2991L17.3177 21.8604C17.4663 21.8319 17.6152 21.8046 17.7643 21.7786ZM17.4527 19.6382C17.5887 19.6147 17.7248 19.5923 17.8611 19.5709C17.9679 19.5542 18.0687 19.6299 18.0856 19.7343L18.1749 20.2873C18.1791 20.3126 18.1782 20.3385 18.1723 20.3634C18.1663 20.3883 18.1555 20.4118 18.1404 20.4325C18.1253 20.4534 18.1062 20.471 18.0843 20.4844C18.0623 20.4978 18.0379 20.5067 18.0125 20.5106C17.8765 20.5319 17.7408 20.5542 17.6052 20.5777L17.5713 20.5835L17.4196 19.644L17.4527 19.6382ZM18.6865 25.1793H19.1412L18.5855 22.9227H17.983L17.4273 25.1793H17.882L17.9774 24.7553H18.5911L18.6865 25.1793ZM18.0728 24.3312L18.2842 23.3909L18.4957 24.3312L18.0728 24.3312ZM22.8162 26.3058V25.8817H21.4009V28.1383H21.8477V27.222H22.538V26.798H21.8477V26.3058L22.8162 26.3058ZM21.755 19.0589L21.322 21.617C21.4707 21.6376 21.6215 21.6597 21.7711 21.6829L22.0197 20.2134L22.0631 20.3401C22.2319 20.8325 22.3991 21.3254 22.5649 21.8187C22.6829 21.8407 22.8007 21.8635 22.9184 21.8871L23.3513 19.329C23.203 19.2993 23.0545 19.2708 22.9057 19.2436L22.6569 20.7138L22.6137 20.5854C22.448 20.0933 22.2807 19.6018 22.112 19.1107C21.9931 19.0926 21.8741 19.0754 21.755 19.0589ZM23.8539 28.1383H24.4891C24.7378 28.1383 24.9396 27.9387 24.9396 27.6923V27.3693C24.9396 27.2018 24.8746 27.0485 24.7241 26.9722C24.7241 26.9722 23.9335 26.6205 23.9228 26.6146C23.8851 26.5943 23.8486 26.5441 23.8486 26.493V26.4432C23.8486 26.3673 23.9107 26.3058 23.9874 26.3058H24.3541C24.4306 26.3058 24.4927 26.3672 24.4927 26.443V26.5372H24.9396V26.3277C24.9396 26.0814 24.7378 25.8817 24.4891 25.8817H23.8539C23.6051 25.8817 23.4034 26.0814 23.4034 26.3277V26.5602C23.4034 26.7275 23.4683 26.8809 23.6189 26.9571C23.6189 26.9571 24.4095 27.309 24.4202 27.3148C24.4579 27.3351 24.4944 27.3854 24.4944 27.4364V27.5768C24.4944 27.6527 24.4322 27.7142 24.3556 27.7142H23.9888C23.9123 27.7142 23.8503 27.6528 23.8503 27.577V27.4814H23.4034V27.6924C23.4034 27.9387 23.6051 28.1383 23.8539 28.1383ZM24.9395 24.7552H24.0788V24.2631H24.6642V23.839H24.0787V23.3469H24.9395V22.9228H23.6364V25.1794H24.9395L24.9395 24.7552ZM23.0638 24.7552H22.2474V22.9227H21.805V25.1793H23.0638V24.7552ZM24.2164 22.2847L24.9053 20.2351L24.9378 20.2464C25.117 20.3085 25.2957 20.3725 25.4736 20.4383L25.6113 20.0286C25.092 19.8364 24.5669 19.66 24.037 19.4994L23.8993 19.9092C24.0809 19.9642 24.2619 20.0211 24.4422 20.0798L24.475 20.0905L23.7861 22.1401C23.9299 22.1871 24.0733 22.2353 24.2164 22.2847ZM18.4952 26.3058V25.8817H17.0799V28.1383H18.4952V27.7142H17.5267V27.222H18.217V26.798H17.5267V26.3058H18.4952ZM27.213 20.7906C27.0262 20.6914 26.8384 20.5943 26.6493 20.4995C26.5815 20.4653 26.5065 20.4475 26.4305 20.4477C26.243 20.4477 26.0665 20.5549 25.9807 20.7209L25.2417 22.1512C25.1822 22.2666 25.1712 22.3972 25.2108 22.5192C25.2511 22.6433 25.3388 22.7445 25.4577 22.8042C25.6472 22.8992 25.8355 22.9965 26.0226 23.096C26.0939 23.1341 26.1735 23.1541 26.2544 23.1544C26.4342 23.1544 26.5972 23.0548 26.6801 22.8945L27.4192 21.4641C27.5452 21.2202 27.4527 20.9181 27.213 20.7906ZM26.9473 21.3605L26.3331 22.5493C26.3167 22.581 26.292 22.6076 26.2615 22.6262C26.231 22.6447 26.196 22.6545 26.1603 22.6545C26.129 22.6545 26.0976 22.6468 26.0696 22.6321C25.9829 22.5867 25.896 22.5418 25.8089 22.4974C25.786 22.4858 25.7656 22.4698 25.7489 22.4502C25.7323 22.4307 25.7196 22.4081 25.7117 22.3836C25.7038 22.3592 25.7009 22.3335 25.703 22.3079C25.7051 22.2823 25.7123 22.2573 25.7241 22.2345L26.3382 21.0458C26.3878 20.9494 26.506 20.9111 26.6027 20.9603C26.69 21.0049 26.7771 21.0499 26.864 21.0954C26.9596 21.1455 26.997 21.2645 26.9473 21.3605Z" fill="white"/>
</svg>
