<svg width="24" height="24" viewBox="0 0 24 24" fill="none" xmlns="http://www.w3.org/2000/svg">
<circle cx="12" cy="12" r="12" fill="#E5E5E5"/>
<circle cx="12" cy="8" r="3" fill="#262626"/>
<path d="M6 18C6 17.2121 6.15519 16.4319 6.45672 15.7039C6.75825 14.9759 7.20021 14.3145 7.75736 13.7574C8.31451 13.2002 8.97595 12.7582 9.7039 12.4567C10.4319 12.1552 11.2121 12 12 12C12.7879 12 13.5682 12.1552 14.2961 12.4567C15.0241 12.7583 15.6855 13.2002 16.2426 13.7574C16.7998 14.3145 17.2418 14.976 17.5433 15.7039C17.8448 16.4319 18 17.2121 18 18L12 18L6 18Z" fill="#262626"/>
</svg>
