<svg width="24" height="24" viewBox="0 0 24 24" fill="none" xmlns="http://www.w3.org/2000/svg">
<path d="M22.5269 18.1658C22.1679 18.1658 21.8765 18.4568 21.8765 18.816C21.8765 19.1748 22.1679 19.4663 22.5269 19.4663C22.8858 19.4663 23.1768 19.1749 23.1768 18.8161C23.1768 18.4568 22.8858 18.1658 22.5269 18.1658ZM22.5269 19.3267C22.4598 19.3268 22.3933 19.3136 22.3314 19.288C22.2694 19.2623 22.2131 19.2247 22.1656 19.1773C22.1182 19.1299 22.0806 19.0735 22.0549 19.0115C22.0293 18.9496 22.0161 18.8831 22.0162 18.8161C22.0162 18.5339 22.2443 18.3057 22.5269 18.3057C22.809 18.3057 23.0375 18.5339 23.0375 18.8161C23.0375 19.0983 22.809 19.3267 22.5269 19.3267ZM22.794 18.6653C22.794 18.6363 22.7883 18.6077 22.7772 18.5809C22.7661 18.5542 22.7498 18.5299 22.7294 18.5095C22.7089 18.489 22.6845 18.4728 22.6578 18.4617C22.631 18.4507 22.6024 18.445 22.5734 18.445H22.2601V19.1872H22.3994V18.8858H22.4993L22.64 19.1872H22.794L22.6471 18.8729C22.735 18.8417 22.7938 18.7586 22.794 18.6653ZM22.5734 18.7464H22.3994V18.584H22.5734C22.6181 18.584 22.6548 18.6204 22.6548 18.6653C22.6546 18.7102 22.6182 18.7464 22.5734 18.7464Z" fill="#00205B"/>
<path d="M11.6067 14.5015L16.2229 12.1987C19.384 13.0857 20.3207 14.2848 20.3207 14.2848L22.1295 12.2389C22.2278 12.1348 22.5261 11.7643 22.5261 11.0929C22.5261 10.3671 21.7683 9.80436 21.2371 9.42384C20.3373 7.06024 15.3559 6.37713 14.9875 5.55444C14.861 5.27049 14.1339 2.81318 14.1339 2.81318C13.7008 1.54031 12.4197 1.54031 11.9373 1.54031C11.4526 1.54031 10.4143 1.70433 10.4143 1.70433C10.4143 3.4764 10.1737 5.63727 9.92307 6.03171C9.92307 6.03171 9.02323 6.5033 7.96791 6.88465L5.4487 5.18519L6.10993 7.47258C1.85832 9.8093 0.823242 13.8811 0.823242 13.8811C0.823242 13.8811 1.91523 22.4597 12.6694 22.4597C18.3554 22.4597 21.6382 19.7103 21.6382 19.7103L19.8064 15.6146C19.8064 15.6146 17.0079 17.0697 13.4336 17.0697C10.1377 17.0697 8.84894 15.5326 8.37825 14.6376C11.1692 14.7208 11.6067 14.5015 11.6067 14.5015Z" fill="#97999B"/>
<path d="M5.56265 12.9031L5.72229 13.2494L4.76294 13.5962L3.93679 14.1385L5.61562 14.4487L5.26929 15.6481L5.98869 15.4352L6.68151 17.1942L7.50788 17.0878L7.78369 18.3224C7.78369 18.3224 9.33977 19.4021 11.9767 19.6375C15.4593 19.9476 18.5767 18.7594 18.5767 18.7594C18.5767 18.7594 14.8594 20.2183 11.479 19.8589C8.89822 19.5854 7.2147 18.5358 7.2147 18.5358L7.19346 17.4217L6.17546 17.4341L5.69564 15.7281L4.78947 16.1545L5.18932 14.6271L3.44781 14.4134L3.80333 13.3475L4.21788 12.5164L3.66129 12.5301L5.98869 10.7981L4.97615 10.398L6.62855 10.0787L6.05397 8.91814L7.07205 9.49831L7.4772 8.2319C6.25188 8.65855 3.61898 10.0092 2.09424 13.9898C2.2785 14.9027 3.87355 21.2222 12.6694 21.2222C16.4661 21.2222 19.2393 19.7832 20.0913 19.2806L19.1823 17.2472C18.3412 17.5724 16.1422 18.307 13.4336 18.307C8.08914 18.307 6.74528 14.6463 6.74528 13.269C6.74528 12.9633 6.76521 12.7068 6.79178 12.496L5.56265 12.9031Z" fill="#00205B"/>
<path d="M20.8283 9.72454C19.95 7.35071 15.1048 6.91817 14.5692 5.79792C14.3543 5.34987 14.0793 4.27639 13.677 2.9685C13.3551 2.02341 12.4101 2.02341 11.9375 2.02341C11.4851 2.02341 10.8973 2.11642 10.8973 2.11642C10.8973 3.08388 10.7152 5.89155 10.2651 6.37801C10.1551 6.51728 9.32948 6.85055 8.43042 7.19692L8.69929 7.37806L8.42522 7.65274L7.90803 8.17175L7.33951 9.9482L6.60009 9.56303L6.8638 10.2207L5.54261 10.4387L6.29005 10.6964L4.13893 12.3491L4.71984 12.3943L3.95371 13.7794C5.05927 13.2796 5.39506 13.1825 5.39506 13.1825L5.07795 12.8542L7.30601 11.9578C7.30601 11.9578 7.13727 12.4046 7.13727 13.269C7.13727 13.3934 7.15651 13.5756 7.19977 13.7905C7.4744 15.1369 8.78814 17.9148 13.4337 17.9148C16.7927 17.9148 19.3851 16.7402 19.3851 16.7402L20.5887 19.4326C20.5887 19.4326 17.4358 21.6154 12.6695 21.6154C2.92549 21.6154 1.68864 13.9525 1.68864 13.9525C3.0329 10.3591 5.29437 8.7833 6.73251 8.11783L6.28229 8.06763L6.24371 7.93457C2.43963 10.0338 1.31592 13.9159 1.31592 13.9159C1.31592 13.9159 2.47123 21.9773 12.6695 21.9773C17.8863 21.9773 21.0417 19.5588 21.0417 19.5588L19.5672 16.2599C19.5672 16.2599 16.8109 17.5526 13.4337 17.5526C8.40398 17.5526 7.65914 14.1208 7.65914 14.1208C7.65914 14.1208 10.5241 14.2923 11.4392 14.0463L16.1729 11.6819C19.3806 12.5872 20.3056 13.5661 20.3056 13.5661L21.7733 11.913C21.7733 11.913 22.0436 11.6616 22.0436 11.0929C22.0436 10.5609 21.2492 10.0278 20.8283 9.72454Z" fill="#00205B"/>
<path d="M20.5282 9.95531C19.7205 7.62881 15.2719 7.46536 14.2716 6.00407C13.994 5.5991 13.5337 3.00101 13.0723 2.64571C12.5635 2.25465 11.2596 2.43267 11.2596 2.43267C11.2596 2.7917 11.1712 5.97989 10.5134 6.64372C10.0671 7.0183 9.31907 7.18141 8.42565 7.65265L7.90846 8.17171L7.33994 9.94811L6.60052 9.56299L6.86423 10.2207L5.54304 10.4387L6.29048 10.6963L4.13936 12.3491L4.72027 12.3942L3.9541 13.7793C5.05966 13.2795 5.39549 13.1824 5.39549 13.1824L5.07838 12.8541L7.30644 11.9577C7.30644 11.9577 7.1377 12.4045 7.1377 13.2689C7.1377 13.3933 7.15694 13.5756 7.2002 13.7904C7.29573 13.6082 9.04981 10.3732 12.8052 10.1527L11.2327 11.368L8.11443 13.7775C8.11443 13.7775 10.6829 13.8869 11.3127 13.7067C13.2976 12.7827 14.887 11.9199 16.1336 11.2954C17.3292 10.6969 18.2105 10.3186 18.8208 10.3186C19.5754 10.3186 20.6209 11.0473 21.513 11.6625C21.513 11.6625 21.5674 11.6151 21.6159 11.5187C21.6555 11.4404 21.6918 11.3301 21.6918 11.1853C21.6918 10.7074 21.0617 10.3835 20.5282 9.95531Z" fill="#041C2C"/>
<path d="M12.7383 5.93769C12.5542 5.7058 12.3384 3.3924 12.3384 3.3924C12.3384 3.3924 12.3012 5.75447 12.165 5.96435C12.0289 6.17397 11.3525 6.56377 11.3525 6.56377C11.3525 6.56377 12.1027 6.31939 12.4719 6.29707C12.7425 6.28098 13.6043 6.45735 13.6043 6.45735C13.6043 6.45735 12.9226 6.16933 12.7383 5.93769ZM7.19971 13.7904C7.29333 13.6956 9.21641 11.781 11.2322 11.368L12.8048 10.1528C9.04932 10.3733 7.29528 13.6082 7.19971 13.7904ZM21.6912 11.1853C21.6912 10.7075 21.0612 10.3835 20.5278 9.95533C18.4204 9.71836 17.8439 9.21054 17.8439 8.88714C17.8439 8.75966 17.9517 8.7298 18.0534 8.7298C18.5326 8.7298 19.162 9.06854 19.5225 9.45426C19.3133 8.90235 18.0477 8.25235 17.2275 8.25235C17.0733 8.25235 16.8452 8.30077 16.8452 8.54853C16.8452 9.06654 17.6259 9.72482 19.6347 9.88793C20.7114 10.1426 21.8291 10.7443 21.6154 11.5187C21.655 11.4405 21.6913 11.3301 21.6913 11.1854L21.6912 11.1853ZM17.7394 11.181L18.5211 11.4585C18.666 11.3956 18.8212 11.3206 18.8348 11.301C18.8448 11.2789 18.8442 11.2619 18.8115 11.2331C18.7877 11.2117 18.438 11.0808 18.2201 11.0014L17.7394 11.181ZM18.3982 10.9336C18.6064 11.0169 18.8955 11.1323 18.918 11.1364C18.9512 11.1429 19.0052 11.1454 19.0388 11.1364C19.0635 11.1298 19.2354 11.0436 19.3609 10.979C19.2385 10.919 18.9944 10.8064 18.831 10.8064C18.6731 10.8064 18.3982 10.9336 18.3982 10.9336ZM19.1714 11.2029C19.1652 11.221 19.1703 11.2312 19.1974 11.2516C19.2272 11.2738 19.6328 11.483 19.6651 11.4879C19.6974 11.4917 19.7253 11.4923 19.7574 11.4837C19.7797 11.4786 19.9197 11.3879 20.0166 11.3224L19.4755 11.0321C19.3346 11.1009 19.1845 11.1828 19.1714 11.2029ZM19.5572 11.6334C19.5665 11.6141 19.5706 11.5999 19.5653 11.5813C19.5388 11.5512 19.1365 11.3422 19.0932 11.3363C19.0479 11.3294 19.0211 11.3294 18.9814 11.3485C18.9464 11.3645 18.7412 11.4786 18.6684 11.5198L19.2982 11.8061C19.4163 11.7326 19.545 11.6489 19.5572 11.6334V11.6334ZM20.3279 11.8545C20.3428 11.8578 20.3836 11.8485 20.4274 11.8321C20.4493 11.8238 20.5418 11.7484 20.6049 11.695L20.1206 11.3856C20.0042 11.4597 19.8814 11.5435 19.8681 11.56C19.8676 11.5646 19.8702 11.576 19.8955 11.612L20.3279 11.8545ZM20.529 11.9042C20.5147 11.9323 20.5127 11.9428 20.5194 11.9508C20.5347 11.9676 20.7867 12.1348 20.9583 12.2476L21.1545 12.0526L20.7071 11.7627C20.6245 11.8215 20.5371 11.8892 20.529 11.9041V11.9042ZM20.2513 11.9866C20.2606 11.971 20.2552 11.9493 20.2372 11.931C20.2125 11.9084 19.8242 11.6981 19.795 11.6926C19.7632 11.6864 19.7033 11.695 19.6723 11.7043C19.6546 11.7094 19.5414 11.788 19.4356 11.8647L20.0293 12.1413C20.1324 12.0749 20.2417 11.9998 20.2513 11.9866ZM20.3544 12.0647C20.3384 12.0703 20.2267 12.1549 20.143 12.2216L20.6803 12.5537L20.8809 12.3342C20.7176 12.2216 20.4804 12.0598 20.46 12.0516C20.4409 12.0457 20.3817 12.0551 20.3544 12.0647Z" fill="white"/>
<path d="M16.1328 11.2954C19.0291 12.0657 20.2639 13.0687 20.2639 13.0687L20.5724 12.7217C20.4277 12.6148 19.3603 11.8787 17.2698 11.1934C17.892 10.9473 18.6459 10.6564 18.8497 10.6564C19.3116 10.6564 20.2612 11.256 21.2796 11.9243L21.5122 11.6625C20.6201 11.0474 19.5746 10.3187 18.82 10.3187C18.2097 10.3187 17.3284 10.697 16.1328 11.2954Z" fill="white"/>
<path d="M9.32037 9.60426L8.11214 10.2797L10.5143 10.6028L9.32037 9.60426ZM7.76191 11.4941L7.97226 10.004L5.18311 11.8811L7.76191 11.4941ZM10.1133 7.36528L8.09666 8.49363L8.62101 9.74669L10.1133 7.36528Z" fill="#97999B"/>
<path d="M7.74978 10.3393L5.86159 11.6191L7.57211 11.3525L7.74978 10.3393ZM10.0887 10.4052L9.16924 9.86854L8.52062 10.2149L10.0887 10.4052ZM8.57597 9.33574L9.67806 7.84312L8.40095 8.56282L8.57597 9.33574ZM8.29831 7.4847L5.84473 5.79018L6.54765 7.85677L7.79429 8.16348L8.29831 7.4847Z" fill="#00205B"/>
</svg>
