<svg width="40" height="40" viewBox="0 0 40 40" fill="none" xmlns="http://www.w3.org/2000/svg">
<path d="M30.5979 29.5157C30.2412 29.5157 29.9517 29.8049 29.9517 30.1618C29.9517 30.5183 30.2412 30.8079 30.5979 30.8079C30.9546 30.8079 31.2438 30.5184 31.2438 30.1618C31.2438 29.8049 30.9546 29.5157 30.5979 29.5157ZM30.5979 30.6693C30.5313 30.6693 30.4653 30.6563 30.4037 30.6308C30.3421 30.6053 30.2861 30.5679 30.239 30.5208C30.1918 30.4737 30.1545 30.4177 30.129 30.3561C30.1035 30.2945 30.0904 30.2285 30.0905 30.1618C30.0905 29.8815 30.3172 29.6547 30.5979 29.6547C30.8783 29.6547 31.1053 29.8815 31.1053 30.1618C31.1053 30.4423 30.8783 30.6693 30.5979 30.6693ZM30.8634 30.012C30.8634 29.9833 30.8577 29.9548 30.8467 29.9282C30.8356 29.9016 30.8195 29.8775 30.7991 29.8572C30.7788 29.8369 30.7546 29.8207 30.728 29.8098C30.7014 29.7988 30.6729 29.7931 30.6442 29.7932H30.3329V30.5306H30.4713V30.2311H30.5706L30.7104 30.5306H30.8634L30.7174 30.2183C30.8048 30.1873 30.8632 30.1047 30.8634 30.012ZM30.6442 30.0927H30.4713V29.9313H30.6442C30.6886 29.9313 30.725 29.9675 30.725 30.0121C30.7249 30.0566 30.6887 30.0926 30.6442 30.0927Z" fill="#00205B"/>
<path d="M19.747 25.8747L24.3339 23.5865C27.475 24.4679 28.4058 25.6593 28.4058 25.6593L30.2031 23.6264C30.3007 23.523 30.5972 23.1548 30.5972 22.4877C30.5972 21.7665 29.8441 21.2073 29.3163 20.8292C28.4223 18.4806 23.4724 17.8019 23.1064 16.9844C22.9807 16.7022 22.2582 14.2605 22.2582 14.2605C21.8278 12.9957 20.5549 12.9957 20.0756 12.9957C19.5939 12.9957 18.5622 13.1587 18.5622 13.1587C18.5622 14.9195 18.3231 17.0667 18.0741 17.4586C18.0741 17.4586 17.1799 17.9272 16.1313 18.3062L13.6281 16.6175L14.2851 18.8904C10.0605 21.2123 9.03198 25.2582 9.03198 25.2582C9.03198 25.2582 10.117 33.7824 20.803 33.7824C26.4529 33.7824 29.7149 31.0504 29.7149 31.0504L27.8947 26.9807C27.8947 26.9807 25.114 28.4266 21.5623 28.4266C18.2874 28.4266 17.0068 26.8992 16.5391 26.0099C19.3123 26.0925 19.747 25.8747 19.747 25.8747Z" fill="#97999B"/>
<path d="M13.5381 12.4075L12.6434 9.42632L14.6723 12.0674L15.3176 11.8739L13.8396 6.94859L13.124 7.1633L14.0005 10.0839L11.9889 7.50381L11.3445 7.69723L12.8226 12.6223L13.5381 12.4075ZM15.909 11.2673C15.9501 11.568 16.1334 11.7125 16.4263 11.6724L18.0141 11.4552C18.3139 11.4143 18.4579 11.2247 18.4168 10.925L18.2444 9.66389L17.484 9.76769L17.6313 10.8415L16.6443 10.977L16.1259 7.18927L17.1129 7.05399L17.2509 8.06087L18.0109 7.95708L17.8474 6.76339C17.806 6.46363 17.6163 6.31883 17.3171 6.36043L15.7292 6.57768C15.4358 6.61734 15.2988 6.80595 15.3397 7.10696L15.909 11.2673ZM19.5886 11.3588L21.2576 11.3892C21.5544 11.3948 21.725 11.23 21.7306 10.9261L21.8077 6.72834C21.8129 6.42512 21.6488 6.25383 21.3518 6.24854L19.6831 6.21779C19.3868 6.21227 19.2223 6.3774 19.217 6.68092L19.1398 10.8797C19.1343 11.1828 19.2926 11.3533 19.5886 11.3588ZM19.9804 6.88261L21.0372 6.90242L20.9669 10.7247L19.9105 10.7053L19.9804 6.88261ZM22.8889 11.5495L24.4986 11.8372C24.7968 11.8902 24.9925 11.7547 25.0456 11.4565L25.8666 6.85772L25.1111 6.72274L24.3233 11.1357L23.3025 10.9539L24.0902 6.54098L23.3347 6.40574L22.5141 11.0047C22.4611 11.3024 22.5911 11.4968 22.8889 11.5495ZM29.6779 11.1794L30.7233 11.6758L31.0089 11.0747L29.9636 10.5777L30.6079 9.22238L31.8236 9.79917L32.1156 9.18543L30.2064 8.27863L28.0001 12.9233L29.927 13.839L30.2188 13.225L28.9849 12.6386L29.6779 11.1794ZM34.9319 10.9154L33.23 9.79267L30.397 14.0836L31.0376 14.5063L32.3057 12.5853L32.511 12.7206L31.9254 15.0923L32.5938 15.5332L32.6083 15.5114L33.1688 13.123L33.3876 13.2675C33.6393 13.4252 33.8629 13.3793 34.0294 13.1266L35.0601 11.5646C35.2268 11.3122 35.185 11.083 34.9319 10.9154ZM33.42 12.6568L32.6109 12.1231L33.5065 10.7651L34.3162 11.2996L33.42 12.6568ZM29.3507 7.93205L29.3552 7.91879L28.6256 7.6822L26.9278 10.9693L27.4922 7.31396L26.7562 7.07522L26.7522 7.08788L26.101 12.2689L26.8333 12.5065L29.3507 7.93205ZM9.78465 14.026L10.4712 13.6954L10.1902 12.7566L11.0578 12.3391L11.6159 13.1457L12.3026 12.8161L12.2999 12.8105L9.18374 8.60928L8.45539 8.95927L9.78207 14.0202L9.78465 14.026ZM10.6753 11.791L9.99548 12.1179L9.32962 9.86167L10.6753 11.791ZM7.13611 9.62905L6.4911 10.0456L7.96659 13.4375L5.49007 10.6914L4.83984 11.1111L4.84691 11.1221L8.45185 14.8998L9.09907 14.482L7.14339 9.64111L7.13611 9.62905ZM13.7415 24.2864L13.9002 24.6305L12.9469 24.9751L12.126 25.5139L13.7942 25.8222L13.45 27.0139L14.1649 26.8024L14.8533 28.5502L15.6744 28.4445L15.9485 29.6713C15.9485 29.6713 17.4947 30.7442 20.1149 30.978C23.5754 31.2862 26.673 30.1055 26.673 30.1055C26.673 30.1055 22.9793 31.5552 19.6203 31.1981C17.0559 30.9263 15.3831 29.8833 15.3831 29.8833L15.362 28.7763L14.3504 28.7886L13.8737 27.0935L12.9732 27.5172L13.3706 25.9994L11.6401 25.7871L11.9934 24.7279L12.4053 23.9021L11.8522 23.9157L14.1649 22.1947L13.1587 21.7972L14.8007 21.4799L14.2297 20.3267L15.2413 20.9032L15.6439 19.6448C14.4264 20.0688 11.8102 21.4109 10.2951 25.3662C10.4782 26.2733 12.0631 32.5527 20.8032 32.5527C24.5757 32.5527 27.3314 31.1228 28.1779 30.6234L27.2748 28.6029C26.439 28.9261 24.2539 29.656 21.5625 29.656C16.252 29.656 14.9166 26.0186 14.9166 24.65C14.9166 24.3462 14.9365 24.0913 14.9629 23.8819L13.7415 24.2864Z" fill="#00205B"/>
<path d="M28.9105 21.128C28.0378 18.7692 23.2234 18.3394 22.6911 17.2263C22.4776 16.7811 22.2043 15.7144 21.8046 14.4148C21.4848 13.4757 20.5457 13.4757 20.0761 13.4757C19.6267 13.4757 19.0426 13.5681 19.0426 13.5681C19.0426 14.5295 18.8616 17.3193 18.4144 17.8027C18.305 17.9411 17.4847 18.2722 16.5913 18.6164L16.8585 18.7964L16.5862 19.0693L16.0723 19.585L15.5073 21.3502L14.7726 20.9675L15.0347 21.621L13.7218 21.8376L14.4645 22.0936L12.3271 23.7359L12.9043 23.7808L12.143 25.1571C13.2416 24.6604 13.5752 24.564 13.5752 24.564L13.2601 24.2377L15.4741 23.3471C15.4741 23.3471 15.3064 23.791 15.3064 24.6499C15.3064 24.7735 15.3255 24.9546 15.3685 25.1681C15.6414 26.506 16.9468 29.2662 21.5629 29.2662C24.9006 29.2662 27.4765 28.0991 27.4765 28.0991L28.6725 30.7744C28.6725 30.7744 25.5396 32.9434 20.8036 32.9434C11.1213 32.9434 9.89233 25.3291 9.89233 25.3291C11.2281 21.7585 13.4752 20.1927 14.9042 19.5315L14.4568 19.4816L14.4185 19.3494C10.6386 21.4352 9.52197 25.2927 9.52197 25.2927C9.52197 25.2927 10.67 33.303 20.8036 33.303C25.9872 33.303 29.1226 30.8998 29.1226 30.8998L27.6575 27.6219C27.6575 27.6219 24.9186 28.9063 21.5629 28.9063C16.5651 28.9063 15.8249 25.4963 15.8249 25.4963C15.8249 25.4963 18.6717 25.6668 19.581 25.4223L24.2847 23.0729C27.472 23.9725 28.3912 24.9451 28.3912 24.9451L29.8495 23.3026C29.8495 23.3026 30.1181 23.0527 30.1181 22.4877C30.1181 21.959 29.3288 21.4293 28.9105 21.128Z" fill="#00205B"/>
<path d="M28.6118 21.3573C27.8092 19.0456 23.3888 18.8832 22.3949 17.4311C22.119 17.0287 21.6617 14.4471 21.2031 14.0941C20.6976 13.7055 19.402 13.8824 19.402 13.8824C19.402 14.2391 19.3142 17.4071 18.6605 18.0667C18.2171 18.4389 17.4738 18.601 16.586 19.0693L16.0721 19.585L15.5072 21.3502L14.7725 20.9675L15.0345 21.621L13.7217 21.8376L14.4644 22.0936L12.3269 23.7359L12.9041 23.7808L12.1428 25.1571C13.2414 24.6604 13.5751 24.5639 13.5751 24.5639L13.26 24.2377L15.4739 23.347C15.4739 23.347 15.3062 23.791 15.3062 24.6499C15.3062 24.7735 15.3253 24.9546 15.3683 25.1681C15.4633 24.987 17.2062 21.7726 20.9378 21.5535L19.3752 22.761L16.2768 25.1552C16.2768 25.1552 18.8289 25.264 19.4547 25.0849C21.427 24.1668 23.0063 23.3094 24.2451 22.6888C25.4331 22.0942 26.3087 21.7183 26.9152 21.7183C27.665 21.7183 28.7039 22.4423 29.5903 23.0537C29.5903 23.0537 29.6444 23.0065 29.6926 22.9107C29.7319 22.833 29.768 22.7234 29.768 22.5795C29.768 22.1046 29.1419 21.7828 28.6118 21.3573Z" fill="#041C2C"/>
<path d="M20.8711 17.3652C20.6882 17.1348 20.4737 14.8361 20.4737 14.8361C20.4737 14.8361 20.4368 17.1832 20.3015 17.3917C20.1662 17.6 19.4942 17.9873 19.4942 17.9873C19.4942 17.9873 20.2395 17.7445 20.6064 17.7223C20.8753 17.7063 21.7317 17.8816 21.7317 17.8816C21.7317 17.8816 21.0543 17.5954 20.8711 17.3652ZM15.3677 25.1681C15.4607 25.0739 17.3716 23.1714 19.3746 22.761L20.9372 21.5535C17.2056 21.7726 15.4626 24.9871 15.3677 25.1681ZM29.7673 22.5795C29.7673 22.1047 29.1412 21.7828 28.6112 21.3574C26.5171 21.1219 25.9443 20.6173 25.9443 20.2959C25.9443 20.1693 26.0515 20.1396 26.1525 20.1396C26.6286 20.1396 27.2541 20.4762 27.6123 20.8595C27.4045 20.3111 26.1468 19.6652 25.3318 19.6652C25.1786 19.6652 24.952 19.7133 24.952 19.9595C24.952 20.4742 25.7277 21.1283 27.7238 21.2904C28.7937 21.5435 29.9043 22.1414 29.6919 22.9108C29.7312 22.8331 29.7673 22.7234 29.7673 22.5796L29.7673 22.5795ZM25.8405 22.5752L26.6173 22.851C26.7613 22.7885 26.9155 22.7139 26.9289 22.6945C26.9389 22.6725 26.9383 22.6557 26.9058 22.627C26.8821 22.6057 26.5347 22.4757 26.3181 22.3968L25.8405 22.5752ZM26.4951 22.3294C26.702 22.4122 26.9893 22.5269 27.0116 22.5309C27.0446 22.5374 27.0983 22.5399 27.1317 22.5309C27.1562 22.5243 27.327 22.4388 27.4517 22.3746C27.3301 22.3149 27.0875 22.203 26.9252 22.203C26.7683 22.203 26.4951 22.3294 26.4951 22.3294ZM27.2634 22.597C27.2572 22.615 27.2623 22.6252 27.2892 22.6454C27.3188 22.6674 27.7219 22.8753 27.754 22.8802C27.7861 22.884 27.8138 22.8845 27.8457 22.876C27.8678 22.871 28.007 22.7808 28.1033 22.7158L27.5656 22.4273C27.4256 22.4957 27.2765 22.577 27.2634 22.597ZM27.6468 23.0248C27.656 23.0056 27.6601 22.9915 27.6548 22.973C27.6285 22.9431 27.2287 22.7355 27.1857 22.7296C27.1407 22.7227 27.114 22.7227 27.0746 22.7417C27.0398 22.7576 26.836 22.871 26.7636 22.9119L27.3894 23.1964C27.5067 23.1233 27.6346 23.0401 27.6468 23.0248V23.0248ZM28.4126 23.2445C28.4274 23.2478 28.4679 23.2386 28.5115 23.2222C28.5332 23.214 28.6251 23.139 28.6879 23.086L28.2066 22.7785C28.0909 22.8522 27.9689 22.9354 27.9557 22.9518C27.9551 22.9564 27.9578 22.9677 27.9829 23.0035L28.4126 23.2445ZM28.6123 23.2938C28.5982 23.3218 28.5962 23.3322 28.6029 23.3402C28.6181 23.3569 28.8684 23.523 29.039 23.6351L29.2339 23.4413L28.7894 23.1533C28.7073 23.2117 28.6204 23.279 28.6123 23.2938V23.2938ZM28.3365 23.3757C28.3457 23.3602 28.3403 23.3387 28.3224 23.3205C28.2979 23.298 27.912 23.0891 27.8831 23.0836C27.8515 23.0775 27.7919 23.086 27.7611 23.0953C27.7435 23.1003 27.631 23.1784 27.526 23.2546L28.1159 23.5294C28.2183 23.4635 28.3269 23.3889 28.3365 23.3757ZM28.4389 23.4533C28.423 23.4589 28.312 23.5429 28.2288 23.6093L28.7627 23.9392L28.962 23.7211C28.7998 23.6092 28.5642 23.4485 28.5438 23.4403C28.5249 23.4344 28.466 23.4438 28.4389 23.4533Z" fill="white"/>
<path d="M24.2446 22.6889C27.1226 23.4543 28.3495 24.451 28.3495 24.451L28.6561 24.1061C28.5123 23.9999 27.4517 23.2685 25.3744 22.5875C25.9927 22.343 26.7418 22.0539 26.9442 22.0539C27.4033 22.0539 28.3468 22.6497 29.3588 23.3137L29.5899 23.0537C28.7035 22.4424 27.6645 21.7184 26.9148 21.7184C26.3083 21.7184 25.4327 22.0942 24.2446 22.6889Z" fill="white"/>
<path d="M17.4755 21.0085L16.2749 21.6796L18.6619 22.0007L17.4755 21.0085ZM15.9269 22.8863L16.136 21.4057L13.3645 23.2708L15.9269 22.8863ZM18.2634 18.7837L16.2596 19.9049L16.7806 21.15L18.2634 18.7837Z" fill="#97999B"/>
<path d="M15.9144 21.7388L14.0382 23.0105L15.7379 22.7456L15.9144 21.7388ZM18.2385 21.8043L17.3249 21.2711L16.6804 21.6152L18.2385 21.8043ZM16.7354 20.7416L17.8305 19.2585L16.5615 19.9736L16.7354 20.7416ZM16.4595 18.9023L14.0215 17.2186L14.7199 19.2721L15.9587 19.5768L16.4595 18.9023Z" fill="#00205B"/>
</svg>
