<svg width="40" height="40" viewBox="0 0 40 40" fill="none" xmlns="http://www.w3.org/2000/svg">
<path d="M33.5459 27.9343C33.084 27.9343 32.709 28.3087 32.709 28.7709C32.709 29.2327 33.084 29.6077 33.5459 29.6077C34.0079 29.6077 34.3823 29.2327 34.3823 28.771C34.3823 28.3087 34.0079 27.9343 33.5459 27.9343ZM33.5459 29.4282C33.4596 29.4282 33.3741 29.4113 33.2943 29.3783C33.2146 29.3453 33.1421 29.2969 33.0811 29.2359C33.02 29.1748 32.9716 29.1023 32.9386 29.0226C32.9056 28.9428 32.8887 28.8573 32.8888 28.771C32.8888 28.4079 33.1824 28.1142 33.5459 28.1142C33.909 28.1142 34.203 28.4079 34.203 28.771C34.203 29.1342 33.909 29.4282 33.5459 29.4282ZM33.8897 28.577C33.8897 28.5398 33.8823 28.5029 33.8681 28.4685C33.8538 28.4341 33.8329 28.4028 33.8065 28.3765C33.7801 28.3501 33.7488 28.3293 33.7144 28.315C33.68 28.3008 33.6431 28.2935 33.6058 28.2936H33.2027V29.2486H33.3819V28.8607H33.5105L33.6916 29.2486H33.8897L33.7007 28.8442C33.8138 28.804 33.8895 28.6971 33.8897 28.577ZM33.6058 28.6814H33.3819V28.4724H33.6058C33.6634 28.4724 33.7105 28.5193 33.7105 28.5771C33.7103 28.6347 33.6635 28.6814 33.6058 28.6814Z" fill="#00205B"/>
<path d="M19.494 23.219L25.4342 20.2557C29.502 21.3972 30.7073 22.9401 30.7073 22.9401L33.0349 20.3074C33.1614 20.1735 33.5453 19.6967 33.5453 18.8327C33.5453 17.8987 32.5701 17.1746 31.8866 16.685C30.7287 13.6434 24.3185 12.7644 23.8444 11.7058C23.6817 11.3404 22.746 8.17826 22.746 8.17826C22.1887 6.54031 20.5402 6.54031 19.9195 6.54031C19.2957 6.54031 17.9596 6.75137 17.9596 6.75137C17.9596 9.0317 17.65 11.8123 17.3275 12.3199C17.3275 12.3199 16.1695 12.9268 14.8115 13.4175L11.5698 11.2306L12.4207 14.174C6.94963 17.181 5.61768 22.4206 5.61768 22.4206C5.61768 22.4206 7.02286 33.4597 20.8615 33.4597C28.1783 33.4597 32.4027 29.9218 32.4027 29.9218L30.0455 24.6513C30.0455 24.6513 26.4444 26.5238 21.8449 26.5238C17.6037 26.5238 15.9453 24.5458 15.3396 23.3941C18.931 23.5011 19.494 23.219 19.494 23.219Z" fill="#97999B"/>
<path d="M11.7161 21.1621L11.9216 21.6078L10.6871 22.054L9.62395 22.7518L11.7843 23.1511L11.3386 24.6944L12.2644 24.4204L13.1559 26.6839L14.2193 26.547L14.5742 28.1358C14.5742 28.1358 16.5766 29.5252 19.9699 29.828C24.4513 30.2271 28.4628 28.6981 28.4628 28.6981C28.4628 28.6981 23.6794 30.5755 19.3293 30.113C16.0084 29.761 13.842 28.4103 13.842 28.4103L13.8147 26.9767L12.5047 26.9926L11.8873 24.7974L10.7212 25.3461L11.2357 23.3805L8.99473 23.1057L9.45221 21.7339L9.98566 20.6645L9.26943 20.6821L12.2644 18.4534L10.9614 17.9385L13.0877 17.5277L12.3484 16.0342L13.6585 16.7808L14.1798 15.1512C12.603 15.7002 9.21499 17.4382 7.25293 22.5606C7.49004 23.7352 9.54257 31.8673 20.8612 31.8673C25.7468 31.8673 29.3155 30.0156 30.4118 29.3688L29.2421 26.7522C28.1598 27.1707 25.33 28.1159 21.8446 28.1159C14.9673 28.1159 13.238 23.4053 13.238 21.633C13.238 21.2396 13.2636 20.9096 13.2978 20.6383L11.7161 21.1621Z" fill="#00205B"/>
<path d="M31.3607 17.0719C30.2306 14.0172 23.9957 13.4606 23.3065 12.0191C23.03 11.4425 22.676 10.0611 22.1583 8.37812C21.7442 7.16196 20.5281 7.16196 19.9199 7.16196C19.3379 7.16196 18.5815 7.28165 18.5815 7.28165C18.5815 8.52659 18.3471 12.1395 17.7679 12.7655C17.6263 12.9447 16.5639 13.3736 15.407 13.8193L15.753 14.0524L15.4003 14.4059L14.7348 15.0737L14.0032 17.3597L13.0517 16.8641L13.3911 17.7104L11.6909 17.9909L12.6527 18.3225L9.88464 20.4492L10.6322 20.5074L9.64631 22.2897C11.069 21.6465 11.5011 21.5216 11.5011 21.5216L11.093 21.0991L13.9601 19.9457C13.9601 19.9457 13.743 20.5206 13.743 21.6329C13.743 21.793 13.7677 22.0275 13.8234 22.304C14.1768 24.0366 15.8673 27.6112 21.8453 27.6112C26.1678 27.6112 29.5036 26.0998 29.5036 26.0998L31.0525 29.5643C31.0525 29.5643 26.9953 32.3733 20.862 32.3733C8.32317 32.3733 6.73158 22.5125 6.73158 22.5125C8.46139 17.8884 11.3715 15.8607 13.2221 15.0044L12.6428 14.9398L12.5931 14.7685C7.69797 17.4698 6.25195 22.4653 6.25195 22.4653C6.25195 22.4653 7.73863 32.839 20.862 32.839C27.575 32.839 31.6355 29.7268 31.6355 29.7268L29.738 25.4818C29.738 25.4818 26.1911 27.1451 21.8453 27.1451C15.373 27.1451 14.4145 22.729 14.4145 22.729C14.4145 22.729 18.1011 22.9498 19.2788 22.6332L25.3701 19.5906C29.4978 20.7556 30.6882 22.0152 30.6882 22.0152L32.5768 19.8881C32.5768 19.8881 32.9246 19.5645 32.9246 18.8328C32.9246 18.1481 31.9024 17.4622 31.3607 17.0719Z" fill="#00205B"/>
<path d="M30.9743 17.3689C29.935 14.3751 24.2104 14.1648 22.9232 12.2844C22.566 11.7632 21.9737 8.41997 21.3799 7.96277C20.7252 7.45955 19.0473 7.68862 19.0473 7.68862C19.0473 8.15062 18.9336 12.2532 18.087 13.1075C17.5128 13.5895 16.5502 13.7994 15.4005 14.4058L14.735 15.0737L14.0034 17.3596L13.0519 16.864L13.3913 17.7104L11.6912 17.9909L12.653 18.3224L9.88487 20.4492L10.6324 20.5073L9.64648 22.2897C11.0691 21.6465 11.5013 21.5215 11.5013 21.5215L11.0932 21.0991L13.9603 19.9456C13.9603 19.9456 13.7432 20.5205 13.7432 21.6328C13.7432 21.7929 13.7679 22.0275 13.8236 22.3039C13.9465 22.0695 16.2037 17.9067 21.0362 17.6229L19.0126 19.1867L15.0001 22.2873C15.0001 22.2873 18.3052 22.4282 19.1156 22.1962C21.6698 21.0072 23.7151 19.8969 25.3193 19.0933C26.8578 18.3232 27.9918 17.8364 28.7772 17.8364C29.7482 17.8364 31.0936 18.774 32.2415 19.5657C32.2415 19.5657 32.3116 19.5047 32.374 19.3806C32.4249 19.2799 32.4716 19.138 32.4716 18.9517C32.4716 18.3367 31.6608 17.9199 30.9743 17.3689Z" fill="#041C2C"/>
<path d="M20.9499 12.1989C20.713 11.9005 20.4353 8.92361 20.4353 8.92361C20.4353 8.92361 20.3874 11.9632 20.2122 12.2332C20.037 12.503 19.1667 13.0046 19.1667 13.0046C19.1667 13.0046 20.132 12.6901 20.6071 12.6614C20.9553 12.6407 22.0643 12.8677 22.0643 12.8677C22.0643 12.8677 21.1871 12.497 20.9499 12.1989ZM13.8228 22.304C13.9432 22.1819 16.4179 19.7182 19.0118 19.1867L21.0354 17.623C16.2029 17.9067 13.9457 22.0695 13.8228 22.304ZM32.4707 18.9517C32.4707 18.3367 31.66 17.9199 30.9735 17.3689C28.2617 17.064 27.5199 16.4105 27.5199 15.9943C27.5199 15.8303 27.6586 15.7919 27.7894 15.7919C28.4061 15.7919 29.2161 16.2278 29.6799 16.7241C29.4108 16.0139 27.7821 15.1775 26.7267 15.1775C26.5282 15.1775 26.2347 15.2398 26.2347 15.5586C26.2347 16.2252 27.2394 17.0723 29.8244 17.2822C31.2099 17.6099 32.6481 18.3842 32.3731 19.3807C32.424 19.28 32.4707 19.138 32.4707 18.9517L32.4707 18.9517ZM27.3855 18.9461L28.3913 19.3032C28.5778 19.2223 28.7775 19.1257 28.7949 19.1006C28.8079 19.0721 28.8071 19.0502 28.765 19.0131C28.7343 18.9856 28.2844 18.8171 28.0039 18.715L27.3855 18.9461ZM28.2332 18.6278C28.501 18.735 28.8731 18.8835 28.902 18.8887C28.9448 18.8971 29.0143 18.9003 29.0575 18.8887C29.0893 18.8802 29.3105 18.7693 29.472 18.6862C29.3144 18.6089 29.0004 18.4641 28.7901 18.4641C28.5869 18.4641 28.2332 18.6278 28.2332 18.6278ZM29.2281 18.9743C29.2201 18.9975 29.2267 19.0107 29.2616 19.037C29.2999 19.0655 29.8219 19.3347 29.8635 19.341C29.905 19.3459 29.9409 19.3466 29.9822 19.3356C30.0109 19.3291 30.191 19.2123 30.3158 19.1281L29.6195 18.7545C29.4381 18.8431 29.245 18.9484 29.2281 18.9743ZM29.7246 19.5283C29.7366 19.5035 29.7418 19.4852 29.735 19.4613C29.7009 19.4225 29.1831 19.1536 29.1275 19.146C29.0693 19.1371 29.0347 19.1371 28.9836 19.1616C28.9386 19.1823 28.6746 19.3291 28.5809 19.3821L29.3913 19.7505C29.5432 19.6559 29.7088 19.5482 29.7246 19.5282V19.5283ZM30.7163 19.8128C30.7355 19.8171 30.788 19.8051 30.8444 19.7839C30.8725 19.7733 30.9916 19.6762 31.0728 19.6076L30.4496 19.2094C30.2998 19.3048 30.1418 19.4126 30.1246 19.4338C30.1239 19.4397 30.1274 19.4544 30.1599 19.5007L30.7163 19.8128ZM30.975 19.8767C30.9567 19.9129 30.9541 19.9264 30.9628 19.9368C30.9825 19.9583 31.3067 20.1735 31.5275 20.3187L31.78 20.0677L31.2043 19.6947C31.098 19.7704 30.9855 19.8574 30.975 19.8766V19.8767ZM30.6178 19.9828C30.6297 19.9627 30.6227 19.9348 30.5995 19.9113C30.5679 19.8821 30.0681 19.6116 30.0306 19.6045C29.9897 19.5965 29.9125 19.6076 29.8727 19.6196C29.8499 19.6261 29.7042 19.7273 29.5681 19.8259L30.3321 20.1818C30.4647 20.0964 30.6054 19.9998 30.6178 19.9828ZM30.7504 20.0833C30.7298 20.0905 30.586 20.1993 30.4783 20.2852L31.1698 20.7125L31.4279 20.43C31.2178 20.2851 30.9126 20.077 30.8863 20.0664C30.8617 20.0588 30.7855 20.071 30.7504 20.0833Z" fill="white"/>
<path d="M25.3184 19.0933C29.0454 20.0846 30.6343 21.3753 30.6343 21.3753L31.0313 20.9287C30.8451 20.7911 29.4716 19.8439 26.7814 18.962C27.5821 18.6454 28.5522 18.2711 28.8145 18.2711C29.4089 18.2711 30.6308 19.0426 31.9414 19.9025L32.2406 19.5658C31.0927 18.7741 29.7473 17.8365 28.7763 17.8365C27.9909 17.8365 26.8569 18.3232 25.3184 19.0933Z" fill="white"/>
<path d="M16.5519 16.9171L14.9971 17.7863L18.0883 18.2021L16.5519 16.9171ZM14.5465 19.349L14.8172 17.4316L11.228 19.847L14.5465 19.349ZM17.5723 14.036L14.9772 15.488L15.652 17.1004L17.5723 14.036Z" fill="#97999B"/>
<path d="M14.5306 17.8629L12.1008 19.5098L14.3019 19.1668L14.5306 17.8629ZM17.5403 17.9478L16.3571 17.2572L15.5225 17.7029L17.5403 17.9478ZM15.5937 16.5716L17.0119 14.6509L15.3685 15.577L15.5937 16.5716ZM15.2364 14.1896L12.0791 12.0091L12.9836 14.6684L14.5878 15.0631L15.2364 14.1896Z" fill="#00205B"/>
</svg>
