<svg width="40" height="40" viewBox="0 0 40 40" fill="none" xmlns="http://www.w3.org/2000/svg">
<path d="M24.8504 33.5533V34.1191H24.7089V33.5533H24.5451V33.4128H25.0141V33.5534L24.8504 33.5533ZM25.617 34.1191V33.7022L25.4979 33.9619H25.3729L25.2538 33.7022V34.1191H25.1124V33.4128H25.2538L25.4354 33.79L25.617 33.4128H25.7585V34.1191H25.617ZM21.7852 6.36485L19.9999 4.68875C19.9999 4.68875 18.5217 6.07648 18.2146 6.36485H8.6875V27.2883C12.2441 31.2309 15.2299 33.1141 19.9999 35.3112C24.7605 33.1184 27.7498 31.2375 31.3123 27.2883V6.36485H21.7852Z" fill="white"/>
<path d="M21.6292 6.75879C21.6126 6.74252 19.9999 5.229 19.9999 5.229C19.9999 5.229 18.3874 6.74252 18.3708 6.75879H9.08154V27.137C12.414 30.8321 15.385 32.7514 20 34.8775C24.6051 32.7559 27.5755 30.8437 30.9184 27.137V6.75879H21.6292ZM12.6268 15.4992V26.2781C12.494 26.1469 12.3627 26.0141 12.2329 25.8799V15.4993C12.2329 11.1044 14.761 8.07493 18.37 6.7596C18.4137 6.79013 18.4914 6.98133 18.5105 7.03104C18.5665 7.17707 18.6121 7.34243 18.6478 7.49612C18.6478 7.49612 18.4507 7.33124 18.254 7.23688C14.4001 8.84705 12.6268 11.8137 12.6268 15.4993V15.4992ZM19.7413 24.4783L17.9992 18.8437L18.5847 18.2582L18.4457 18.9542L20 23.9815L19.7413 24.4783ZM21.8086 29.9992L21.1156 30.7957L26.2732 15.9236L26.7735 15.6832L21.8086 29.9992Z" fill="#B9975B"/>
<path d="M30.1308 7.5466V26.8342C27.0874 30.209 23.8984 32.214 20.0002 34.0101C16.102 32.214 12.913 30.209 9.86963 26.8342V7.5466H16.6835C13.9981 9.10887 12.2332 11.8273 12.2332 15.4993V25.8798C14.0643 27.7776 16.5394 29.6875 18.8847 30.7957L13.7268 15.9236L18.5849 18.2581L17.9994 18.8437L19.7416 24.4783H20.2589L22.0011 18.8437L21.4155 18.2582L26.2735 15.9236L21.1158 30.7956C23.4451 29.695 25.9215 27.7928 27.7673 25.8798V15.4993C27.7673 11.8273 26.0024 9.10887 23.3169 7.5466H30.1308Z" fill="#010101"/>
<path d="M21.3518 7.49601C21.4901 6.90074 21.6296 6.75954 21.6296 6.75954C21.0864 6.24921 20.5431 5.73901 19.9996 5.22894V20.1055L21.0807 16.6264L26.8408 13.8545C26.3263 10.8761 24.3858 8.60177 21.3518 7.49601ZM27.3728 16.9865L23.087 29.3899L23.8297 28.4305C23.8297 28.4305 25.7829 26.9354 26.9789 25.5585V19.2209L27.3728 16.9865ZM12.6265 16.9865L16.1933 27.3089L14.2105 22.6363L13.0204 19.2209L12.6265 16.9865ZM18.5276 15.9717L13.9405 14.2308L18.9186 16.6264V9.33685L18.5276 15.9717Z" fill="#333F48"/>
</svg>
