<svg width="40" height="40" viewBox="0 0 40 40" fill="none" xmlns="http://www.w3.org/2000/svg">
<path d="M24.8504 33.5533V34.1191H24.7089V33.5533H24.5451V33.4128H25.0141V33.5534L24.8504 33.5533ZM25.617 34.1191V33.7023L25.4979 33.962H25.3729L25.2538 33.7023V34.1191H25.1124V33.4128H25.2538L25.4354 33.79L25.617 33.4128H25.7585V34.1191H25.617ZM21.7852 6.36488L19.9999 4.68878C19.9999 4.68878 18.5217 6.07651 18.2146 6.36488H8.6875V27.2884C12.2441 31.231 15.2299 33.1142 19.9999 35.3113C24.7605 33.1184 27.7498 31.2375 31.3123 27.2884V6.36488H21.7852Z" fill="white"/>
<path d="M21.6292 6.75879C21.6126 6.74252 19.9999 5.229 19.9999 5.229C19.9999 5.229 18.3874 6.74252 18.3708 6.75879H9.08154V27.137C12.414 30.8321 15.385 32.7514 20 34.8775C24.6051 32.7559 27.5755 30.8437 30.9184 27.137V6.75879H21.6292ZM12.6268 15.4992V26.2781C12.494 26.1469 12.3627 26.0141 12.2329 25.8799V15.4993C12.2329 11.1044 14.761 8.07493 18.37 6.7596C18.4137 6.79013 18.4914 6.98133 18.5105 7.03104C18.5665 7.17707 18.6121 7.34243 18.6478 7.49612C18.6478 7.49612 18.4507 7.33124 18.254 7.23688C14.4001 8.84705 12.6268 11.8137 12.6268 15.4993V15.4992ZM19.7413 24.4783L17.9992 18.8437L18.5847 18.2582L18.4457 18.9542L20 23.9815L19.7413 24.4783ZM21.8086 29.9992L21.1156 30.7957L26.2732 15.9236L26.7735 15.6832L21.8086 29.9992Z" fill="#B9975B"/>
<path d="M30.1306 7.54663V26.8342C27.0872 30.209 23.8982 32.214 20 34.0101C16.1018 32.214 12.9128 30.209 9.86938 26.8342V7.54663H16.6833C13.9978 9.1089 12.2329 11.8274 12.2329 15.4993V25.8798C14.0641 27.7777 16.5392 29.6876 18.8845 30.7957L13.7266 15.9237L18.5847 18.2581L17.9992 18.8437L19.7413 24.4783H20.2587L22.0008 18.8437L21.4153 18.2582L26.2732 15.9237L21.1155 30.7957C23.4448 29.695 25.9213 27.7928 27.7671 25.8798V15.4993C27.7671 11.8274 26.0021 9.1089 23.3167 7.54663H30.1306Z" fill="#010101"/>
<path d="M21.3521 7.49607C21.4903 6.9008 21.6298 6.7596 21.6298 6.7596C21.0866 6.24927 20.5433 5.73907 19.9999 5.229V20.1056L21.081 16.6265L26.841 13.8545C26.3266 10.8762 24.3861 8.60183 21.3521 7.49607ZM27.3731 16.9866L23.0872 29.39L23.83 28.4306C23.83 28.4306 25.7831 26.9355 26.9791 25.5586V19.2209L27.3731 16.9866ZM12.6267 16.9866L16.1935 27.3089L14.2107 22.6364L13.0206 19.2209L12.6267 16.9866ZM18.5279 15.9718L13.9407 14.2309L18.9188 16.6265V9.33691L18.5279 15.9718Z" fill="#333F48"/>
</svg>
