<svg width="24" height="24" viewBox="0 0 24 24" fill="none" xmlns="http://www.w3.org/2000/svg">
<path d="M15.2695 21.1351V21.5165H15.1741V21.1351H15.0638V21.0404H15.3799V21.1352L15.2695 21.1351ZM15.7862 21.5165V21.2355L15.7059 21.4105H15.6217L15.5414 21.2355V21.5165H15.4461V21.0404H15.5414L15.6638 21.2946L15.7862 21.0404H15.8816V21.5165H15.7862ZM13.2035 2.80971L12.0002 1.67999C12.0002 1.67999 11.0039 2.61534 10.7969 2.80971H4.37549V16.9124C6.7727 19.5698 8.78519 20.8391 12.0002 22.32C15.2089 20.842 17.2237 19.5742 19.6249 16.9124V2.80971H13.2035Z" fill="white"/>
<path d="M13.0984 3.07523C13.0873 3.06426 12.0003 2.04413 12.0003 2.04413C12.0003 2.04413 10.9134 3.06426 10.9022 3.07523H4.64111V16.8104C6.88726 19.301 8.88973 20.5946 12.0003 22.0276C15.1042 20.5977 17.1063 19.3088 19.3595 16.8104V3.07523H13.0984ZM7.03068 8.9664V16.2315C6.94113 16.1431 6.85263 16.0536 6.76519 15.9631V8.96646C6.76519 6.0042 8.46912 3.96233 10.9017 3.07577C10.9311 3.09635 10.9835 3.22522 10.9964 3.25873C11.0341 3.35715 11.0649 3.46861 11.0889 3.5722C11.0889 3.5722 10.9561 3.46106 10.8235 3.39747C8.22593 4.48274 7.03068 6.48234 7.03068 8.96643V8.9664ZM11.826 15.0184L10.6517 11.2206L11.0464 10.826L10.9527 11.2951L12.0003 14.6836L11.826 15.0184ZM13.2194 18.7396L12.7522 19.2764L16.2285 9.25246L16.5658 9.0904L13.2194 18.7396Z" fill="#B9975B"/>
<path d="M18.8282 3.60622V16.6063C16.7769 18.881 14.6275 20.2324 12 21.443C9.3726 20.2324 7.22317 18.881 5.17188 16.6063V3.60622H9.76453C7.9545 4.65921 6.76493 6.4915 6.76493 8.96642V15.9631C7.99917 17.2422 9.66743 18.5295 11.2482 19.2764L7.77168 9.25245L11.0461 10.8259L10.6515 11.2206L11.8257 15.0184H12.1744L13.3486 11.2206L12.954 10.826L16.2283 9.25245L12.7519 19.2764C14.3219 18.5345 15.9911 17.2524 17.2352 15.9631V8.96642C17.2352 6.4915 16.0456 4.65921 14.2355 3.60622H18.8282Z" fill="#010101"/>
<path d="M12.9118 3.57214C13.005 3.17091 13.099 3.07574 13.099 3.07574C12.7329 2.73177 12.3667 2.38789 12.0004 2.0441V12.0711L12.729 9.72614L16.6114 7.85784C16.2647 5.85037 14.9567 4.31743 12.9118 3.57214ZM16.97 9.96886L14.0813 18.3289L14.5819 17.6823C14.5819 17.6823 15.8984 16.6746 16.7045 15.7465V11.4749L16.97 9.96886ZM7.03076 9.96886L9.43484 16.9263L8.0984 13.7769L7.29628 11.4749L7.03076 9.96886ZM11.0082 9.2849L7.91641 8.11148L11.2717 9.72618V4.81289L11.0082 9.2849Z" fill="#333F48"/>
</svg>
