<svg width="40" height="40" viewBox="0 0 40 40" fill="none" xmlns="http://www.w3.org/2000/svg">
<path d="M34.1425 22.1509C33.8787 22.1509 33.6646 22.3647 33.6646 22.6287C33.6646 22.8924 33.8787 23.1065 34.1425 23.1065C34.4063 23.1065 34.6201 22.8924 34.6201 22.6287C34.6201 22.3647 34.4062 22.1509 34.1425 22.1509ZM34.1425 23.0041C33.9354 23.0042 33.7673 22.8365 33.7672 22.6294V22.6287C33.7672 22.4212 33.9349 22.2536 34.1425 22.2536C34.3499 22.2536 34.5177 22.4212 34.5177 22.6287C34.5177 22.8362 34.3498 23.0041 34.1425 23.0041ZM34.3388 22.518C34.3387 22.4285 34.2662 22.356 34.1767 22.3561H33.9463V22.9015H34.0488V22.6801H34.1221L34.2256 22.9015H34.3387L34.2307 22.6706C34.2623 22.6594 34.2896 22.6388 34.3089 22.6114C34.3283 22.5841 34.3387 22.5515 34.3388 22.518ZM34.1767 22.5776H34.0488V22.4582H34.1767C34.2096 22.4582 34.2365 22.485 34.2365 22.518C34.2363 22.5509 34.2096 22.5776 34.1767 22.5776Z" fill="#041E42"/>
<path d="M11.2465 23.0708H13.4352L12.69 24.8708H14.5233L15.2686 23.0708H20.6592L20.5027 23.449C20.1451 24.3124 20.1938 25.4214 20.5604 26.0091L22.6477 29.3538L24.2631 27.0084H26.9092L28.354 25.2321H25.0037L23.9928 26.4755L21.9807 24.8027C21.9358 24.7603 21.8837 24.5419 21.9673 24.3407L22.8834 22.1282C22.8834 22.1282 23.0764 23.0708 24.2998 23.0708H31.5694C31.9146 23.0708 32.9658 23.0708 33.3709 22.092C33.7393 21.2014 33.1896 20.7131 33.1896 20.7131H33.769L34.43 19.1187H30.8758C30.4265 19.1187 30.0104 19.2331 29.6832 19.4294L31.3613 15.3774H29.5277L27.6854 19.8266C27.6854 19.8266 27.3568 19.1187 26.2787 19.1187H24.1299L27.6225 10.684H25.789L22.2962 19.1187H17.8119C16.6424 19.1187 15.5613 19.6116 14.7997 20.4383C14.7997 20.4383 14.7909 19.1187 13.2255 19.1187H9.23535C7.64027 19.1187 5.99617 20.0709 5.4927 21.2864C5.13712 22.1446 5.63767 23.0707 6.77429 23.0707H8.32884C8.97566 23.0707 9.66307 22.6403 9.95941 22.4307C9.95941 22.4307 10.2893 23.0708 11.2465 23.0708Z" fill="white"/>
<path d="M26.8605 26.9065H23.7742L25.0525 25.3342H28.139L26.8605 26.9065ZM25.2033 26.2265H26.5369L26.7096 26.0142H25.376L25.2033 26.2265ZM17.9235 18.9199C17.6753 18.9199 17.5087 18.8565 17.3975 18.7763L17.3481 18.8954H16.5953L16.5652 18.8039L16.5273 18.8954H13.9786C13.895 18.9115 13.8056 18.9198 13.7111 18.9198C13.6242 18.9198 13.5486 18.9108 13.483 18.8954H12.6118L12.5911 18.6875H12.5177L12.3336 18.8954H10.2607L10.352 17.2879H12.4825L12.8316 16.2131L11.5495 15.2824H13.1342L13.6235 13.7751L14.113 15.2824H17.2453L17.7341 13.7757L18.2244 15.2824H21.3565L21.8458 13.7748L22.3352 15.2824H23.9196L22.6378 16.2131L23.1274 17.7193L22.7506 17.4456L22.1503 18.8954H21.3966L21.3667 18.8045L21.329 18.8954H20.4057L20.4076 18.8908C20.3203 18.91 20.2281 18.9199 20.1321 18.9199C19.7616 18.9199 19.5822 18.7678 19.497 18.6402C19.4894 18.6289 19.4822 18.6172 19.4755 18.6053L19.3553 18.8954H18.4107L18.4282 18.853C18.2463 18.9016 18.0509 18.9199 17.9235 18.9199ZM13.1698 17.2878H13.385L13.4108 17.5547C13.5764 17.371 13.8326 17.2634 14.1272 17.2634C14.1887 17.2634 14.2443 17.2679 14.2947 17.2761L13.6235 16.7885L13.1594 17.1258L13.1698 17.2878ZM17.0389 17.294L17.0605 17.3608L17.0907 17.2878H18.0142L18.0091 17.3C18.1051 17.276 18.2056 17.2633 18.3087 17.2633C18.3376 17.2633 18.3654 17.2642 18.392 17.2659L17.7346 16.7884L17.0389 17.294ZM21.1584 17.2878H21.8392L21.8625 17.3597L21.8923 17.2878H22.5334L21.8458 16.7883L21.1584 17.2878ZM18.8759 17.2878H20.2827C20.3635 17.2716 20.4483 17.2633 20.5364 17.2633C20.5991 17.2633 20.6563 17.2677 20.7085 17.2755L21.0538 16.213L19.7905 15.2955L18.5265 16.2131L18.8759 17.2878ZM16.2694 17.2878H16.5937L16.9428 16.2131L15.6788 15.2955L14.4155 16.2131L14.7646 17.2879H16.2694V17.2878Z" fill="white"/>
<path d="M25.2144 25.6741L24.4889 26.5665H26.6988L27.4245 25.6741H25.2144ZM12.9892 16.8291L13.6237 16.3681L14.2582 16.8291L14.016 16.083L14.6503 15.6223H13.8661L13.6237 14.876L13.3814 15.6223H12.5969L13.2316 16.083L12.9892 16.8291ZM17.1002 16.8291L17.7346 16.3681L18.3694 16.8291L18.127 16.083L18.7617 15.6223H17.9774L17.7346 14.876L17.4925 15.6223H16.7079L17.3426 16.083L17.1002 16.8291ZM22.0881 15.6223L21.8458 14.876L21.6035 15.6223H20.8193L21.4537 16.083L21.2112 16.8291L21.8458 16.3681L22.4805 16.8291L22.238 16.083L22.8726 15.6223H22.0881ZM11.4275 17.8156H11.4299L11.3817 18.5553H11.6373L12.3504 17.6277H12.1424L11.6017 18.3524H11.599L11.6488 17.6277H11.3867L10.8448 18.3524H10.8425L10.8971 17.6277H10.6735L10.6208 18.5553H10.8715L11.4275 17.8156ZM12.8991 18.3474L12.9198 18.5553H13.1663L13.0765 17.6277H12.8146L11.9573 18.5553H12.1807L12.3648 18.3474H12.8991ZM12.8617 17.7924L12.8876 18.1956H12.5019L12.8617 17.7924ZM13.4049 18.2647C13.3226 18.4638 13.4428 18.5797 13.7112 18.5797C14.0261 18.5797 14.2377 18.4666 14.3169 18.275C14.486 17.8665 13.7178 18.1077 13.8173 17.8676C13.8523 17.7829 13.9652 17.7405 14.0514 17.7405C14.1953 17.7405 14.2605 17.7843 14.2184 17.905H14.4265C14.4979 17.7172 14.3986 17.6033 14.1274 17.6033C13.9118 17.6033 13.6754 17.6893 13.587 17.9037C13.4324 18.2761 14.1764 18.0933 14.0903 18.3008C14.0625 18.3679 13.9688 18.442 13.7967 18.442C13.6322 18.442 13.5788 18.375 13.613 18.2647H13.4049ZM14.6236 18.5553L14.7885 18.157H15.2934L15.1284 18.5553H15.3366L15.7207 17.6277H15.5129L15.3561 18.0056H14.8513L15.0075 17.6277H14.7994L14.4149 18.5553H14.6236ZM15.8271 18.5553L16.2116 17.6277H16.0034L15.6191 18.5553H15.8271ZM16.3003 18.5553L16.6006 17.8307H16.6029L16.8415 18.5553H17.1211L17.5054 17.6277H17.3181L17.0233 18.3395H17.0203L16.7899 17.6277H16.4969L16.1129 18.5553H16.3003ZM18.6642 17.9267C18.7539 17.7098 18.5887 17.6033 18.3089 17.6033C17.9436 17.6033 17.661 17.811 17.5456 18.0886C17.4066 18.4254 17.5777 18.5797 17.9235 18.5797C18.0581 18.5797 18.2719 18.5537 18.4275 18.4975L18.6073 18.0642H18.1074L18.0476 18.208H18.3442L18.2712 18.3854C18.1549 18.4174 18.0801 18.4278 17.9991 18.4278C17.714 18.4278 17.6908 18.2595 17.7625 18.0874C17.8624 17.8461 18.0845 17.7471 18.2798 17.7471C18.3827 17.7471 18.4953 17.7971 18.4481 17.9267H18.6642ZM18.9199 18.5553H19.1282L19.4496 17.7792H19.803L19.8659 17.6277H18.9511L18.8882 17.7792H19.2419L18.9199 18.5553ZM20.1321 18.5797C20.4741 18.5797 20.7403 18.4167 20.8753 18.0909C21.0102 17.766 20.8785 17.6033 20.5365 17.6033C20.1949 17.6033 19.9282 17.766 19.7935 18.0909C19.6586 18.4166 19.7904 18.5797 20.1321 18.5797ZM20.0093 18.0909C20.0996 17.8725 20.2734 17.7543 20.4738 17.7543C20.6755 17.7543 20.7501 17.8725 20.6594 18.091C20.569 18.3099 20.3965 18.4279 20.1948 18.4279C19.9947 18.4278 19.9187 18.3099 20.0093 18.0909ZM21.8249 18.3396H21.8222L21.592 17.6278H21.2987L20.9146 18.5554H21.102L21.4023 17.8308H21.4048L21.6428 18.5554H21.9232L22.3072 17.6278H22.1196L21.8249 18.3396Z" fill="#C8102E"/>
<path d="M8.97671 20.2712H10.1367L10.4307 19.5609H9.23545C7.82738 19.5609 6.33471 20.4092 5.90107 21.4553C5.63941 22.0879 6.02375 22.6287 6.7744 22.6287H8.32901C9.00473 22.6287 9.82733 21.9786 9.82733 21.9786L9.10068 21.6723C9.10068 21.6723 8.77101 21.9185 8.41367 21.9185H6.92386C6.7372 21.9185 6.66023 21.7391 6.75821 21.5012C7.03987 20.8216 8.03308 20.2712 8.97671 20.2712ZM11.2466 22.6287H12.1474C12.471 22.6287 12.7483 22.4403 12.7483 22.4403L12.6705 22.6287H13.5468L14.2641 20.8965C14.5696 20.1589 14.1047 19.5609 13.2256 19.5609H10.9476L10.6535 20.2711H13.1203C13.647 20.2711 13.4864 20.6581 13.4864 20.6581H11.7098C11.004 20.6581 10.4833 20.9833 10.3169 21.385C10.0328 22.0713 10.4488 22.6287 11.2466 22.6287ZM11.0863 21.6431C11.1493 21.4917 11.3233 21.3685 11.4753 21.3685H12.7049C12.9859 21.3685 13.2366 21.2617 13.2366 21.2617L13.0925 21.6094C13.022 21.78 12.7759 21.9186 12.5839 21.9186H11.2474C11.0954 21.9185 11.0233 21.7952 11.0863 21.6431ZM23.7061 19.5609L23.4121 20.2711H26.1732C26.7002 20.2711 26.5395 20.6581 26.5395 20.6581H24.7631C24.0573 20.6581 23.5365 20.9833 23.3706 21.385C23.0859 22.0712 23.5019 22.6286 24.3 22.6286H25.2004C25.5242 22.6286 25.802 22.4402 25.802 22.4402L25.7236 22.6286H26.6001L27.3174 20.8964C27.6229 20.1588 27.1581 19.5607 26.2789 19.5607H23.7061V19.5609ZM26.146 21.6094C26.0752 21.7799 25.8295 21.9185 25.6376 21.9185H24.3007C24.1489 21.9185 24.0767 21.7952 24.1396 21.643C24.2025 21.4916 24.3766 21.3684 24.5285 21.3684H25.7583C26.039 21.3684 26.2899 21.2617 26.2899 21.2617L26.146 21.6094ZM27.8801 22.6287L30.6996 15.8198H29.8235L27.0036 22.6287H27.8801ZM21.2227 19.5609H20.3464L20.0522 20.2711H20.9282L21.2227 19.5609ZM19.9521 22.6287L20.7682 20.6582H19.8916L19.0755 22.6287H19.9521ZM29.4831 20.2665C29.2128 20.9198 29.5641 21.4498 30.2689 21.4498H32.0476C32.1772 21.4498 32.2388 21.5547 32.1848 21.6842C32.1312 21.8137 31.9829 21.9185 31.8537 21.9185H28.6L28.3061 22.6286H31.5694C32.1774 22.6286 32.7278 22.4895 32.9621 21.923C33.2327 21.2693 32.8812 20.7396 32.1766 20.7396H30.3981C30.2684 20.7396 30.2067 20.6347 30.2606 20.5054C30.3144 20.3756 30.4628 20.2711 30.5922 20.2711H33.4738L33.768 19.5609H30.8759C30.2681 19.5609 29.6671 19.8222 29.4831 20.2665ZM14.2283 24.4285L15.2462 21.9704C15.6348 21.032 16.4909 20.2712 17.8453 20.2712H18.7145L18.1639 21.6006C18.0915 21.7755 17.8888 21.9187 17.7141 21.9187H15.689L15.3947 22.6288H17.8186C18.2564 22.6288 18.6972 22.4289 18.9439 21.8328L19.8851 19.561H17.8121C16.1857 19.561 14.948 20.5741 14.4305 21.8236L13.352 24.4286H14.2283V24.4285Z" fill="#041E42"/>
<path d="M20.9114 23.6178C20.6218 24.3184 20.6328 25.2889 20.9358 25.775L22.6662 28.5477L23.8052 26.894L21.6985 25.1425C21.4766 24.9589 21.4138 24.5217 21.5592 24.1714L26.9611 11.126H26.0845L22.5918 19.5609H21.553L21.2588 20.2712H22.298L20.9114 23.6178Z" fill="#041E42"/>
</svg>
