<svg width="40" height="40" viewBox="0 0 40 40" fill="none" xmlns="http://www.w3.org/2000/svg">
<path d="M34.1425 22.1508C33.8787 22.1508 33.6646 22.3647 33.6646 22.6287C33.6646 22.8923 33.8787 23.1065 34.1425 23.1065C34.4063 23.1065 34.6201 22.8923 34.6201 22.6287C34.6201 22.3647 34.4062 22.1508 34.1425 22.1508ZM34.1425 23.004C33.9354 23.0042 33.7673 22.8364 33.7672 22.6294V22.6287C33.7672 22.4212 33.9349 22.2536 34.1425 22.2536C34.3499 22.2536 34.5177 22.4212 34.5177 22.6287C34.5177 22.8362 34.3498 23.004 34.1425 23.004ZM34.3388 22.518C34.3387 22.4285 34.2662 22.356 34.1767 22.3561H33.9463V22.9015H34.0488V22.68H34.1221L34.2256 22.9015H34.3387L34.2307 22.6706C34.2623 22.6594 34.2896 22.6387 34.3089 22.6114C34.3283 22.5841 34.3387 22.5515 34.3388 22.518ZM34.1767 22.5776H34.0488V22.4582H34.1767C34.2096 22.4582 34.2365 22.485 34.2365 22.518C34.2363 22.5509 34.2096 22.5775 34.1767 22.5776Z" fill="#041E42"/>
<path d="M11.2465 23.0708H13.4352L12.69 24.8708H14.5233L15.2686 23.0708H20.6592L20.5027 23.449C20.1451 24.3124 20.1938 25.4214 20.5604 26.0091L22.6477 29.3538L24.2631 27.0084H26.9092L28.354 25.2321H25.0037L23.9928 26.4755L21.9807 24.8027C21.9358 24.7603 21.8837 24.5419 21.9673 24.3407L22.8834 22.1282C22.8834 22.1282 23.0764 23.0708 24.2998 23.0708H31.5694C31.9146 23.0708 32.9658 23.0708 33.3709 22.092C33.7393 21.2014 33.1896 20.7131 33.1896 20.7131H33.769L34.43 19.1187H30.8758C30.4265 19.1187 30.0104 19.2331 29.6832 19.4294L31.3613 15.3774H29.5277L27.6854 19.8266C27.6854 19.8266 27.3568 19.1187 26.2787 19.1187H24.1299L27.6225 10.684H25.789L22.2962 19.1187H17.8119C16.6424 19.1187 15.5613 19.6116 14.7997 20.4383C14.7997 20.4383 14.7909 19.1187 13.2255 19.1187H9.23535C7.64027 19.1187 5.99617 20.0709 5.4927 21.2864C5.13712 22.1446 5.63767 23.0707 6.77429 23.0707H8.32884C8.97566 23.0707 9.66307 22.6403 9.95941 22.4307C9.95941 22.4307 10.2893 23.0708 11.2465 23.0708Z" fill="white"/>
<path d="M26.8605 26.9065H23.7742L25.0525 25.3341H28.139L26.8605 26.9065ZM25.2033 26.2265H26.5369L26.7096 26.0141H25.376L25.2033 26.2265ZM17.9235 18.9198C17.6753 18.9198 17.5087 18.8565 17.3975 18.7763L17.3481 18.8954H16.5953L16.5652 18.8038L16.5273 18.8954H13.9786C13.895 18.9115 13.8056 18.9198 13.7111 18.9198C13.6242 18.9198 13.5486 18.9107 13.483 18.8954H12.6118L12.5911 18.6875H12.5177L12.3336 18.8954H10.2607L10.352 17.2878H12.4825L12.8316 16.2131L11.5495 15.2824H13.1342L13.6235 13.775L14.113 15.2824H17.2453L17.7341 13.7757L18.2244 15.2824H21.3565L21.8458 13.7747L22.3352 15.2824H23.9196L22.6378 16.213L23.1274 17.7193L22.7506 17.4456L22.1503 18.8954H21.3966L21.3667 18.8045L21.329 18.8954H20.4057L20.4076 18.8907C20.3203 18.91 20.2281 18.9198 20.1321 18.9198C19.7616 18.9198 19.5822 18.7678 19.497 18.6402C19.4894 18.6288 19.4822 18.6172 19.4755 18.6053L19.3553 18.8954H18.4107L18.4282 18.853C18.2463 18.9016 18.0509 18.9198 17.9235 18.9198ZM13.1698 17.2878H13.385L13.4108 17.5547C13.5764 17.3709 13.8326 17.2634 14.1272 17.2634C14.1887 17.2634 14.2443 17.2679 14.2947 17.2761L13.6235 16.7884L13.1594 17.1257L13.1698 17.2878ZM17.0389 17.294L17.0605 17.3607L17.0907 17.2878H18.0142L18.0091 17.3C18.1051 17.2759 18.2056 17.2633 18.3087 17.2633C18.3376 17.2633 18.3654 17.2642 18.392 17.2659L17.7346 16.7884L17.0389 17.294ZM21.1584 17.2878H21.8392L21.8625 17.3596L21.8923 17.2878H22.5334L21.8458 16.7883L21.1584 17.2878ZM18.8759 17.2878H20.2827C20.3635 17.2716 20.4483 17.2633 20.5364 17.2633C20.5991 17.2633 20.6563 17.2676 20.7085 17.2755L21.0538 16.213L19.7905 15.2955L18.5265 16.213L18.8759 17.2878ZM16.2694 17.2878H16.5937L16.9428 16.213L15.6788 15.2954L14.4155 16.213L14.7646 17.2878H16.2694V17.2878Z" fill="white"/>
<path d="M25.2142 25.6741L24.4887 26.5665H26.6986L27.4242 25.6741H25.2142ZM12.9889 16.8292L13.6234 16.3681L14.258 16.8292L14.0157 16.0831L14.6501 15.6224H13.8658L13.6235 14.876L13.3812 15.6224H12.5966L13.2313 16.0831L12.9889 16.8292ZM17.1 16.8292L17.7344 16.3681L18.3692 16.8292L18.1267 16.0831L18.7614 15.6224H17.9772L17.7344 14.876L17.4922 15.6224H16.7077L17.3423 16.0831L17.1 16.8292ZM22.0879 15.6224L21.8456 14.876L21.6033 15.6224H20.819L21.4535 16.0831L21.211 16.8292L21.8456 16.3681L22.4803 16.8292L22.2378 16.0831L22.8724 15.6224H22.0879ZM11.4273 17.8156H11.4297L11.3815 18.5553H11.6371L12.3501 17.6278H12.1422L11.6015 18.3524H11.5988L11.6486 17.6278H11.3864L10.8446 18.3524H10.8422L10.8969 17.6278H10.6732L10.6206 18.5553H10.8713L11.4273 17.8156ZM12.8988 18.3475L12.9195 18.5554H13.166L13.0762 17.6278H12.8144L11.957 18.5554H12.1805L12.3645 18.3475H12.8988ZM12.8615 17.7924L12.8874 18.1956H12.5016L12.8615 17.7924ZM13.4047 18.2647C13.3224 18.4638 13.4425 18.5798 13.7109 18.5798C14.0258 18.5798 14.2375 18.4667 14.3167 18.2751C14.4858 17.8666 13.7175 18.1077 13.817 17.8677C13.8521 17.7829 13.965 17.7405 14.0512 17.7405C14.1951 17.7405 14.2602 17.7844 14.2181 17.905H14.4262C14.4976 17.7173 14.3983 17.6034 14.1272 17.6034C13.9115 17.6034 13.6752 17.6893 13.5868 17.9037C13.4321 18.2761 14.1762 18.0934 14.09 18.3008C14.0623 18.3679 13.9685 18.442 13.7965 18.442C13.632 18.442 13.5785 18.375 13.6127 18.2647H13.4047ZM14.6234 18.5554L14.7883 18.157H15.2932L15.1281 18.5554H15.3363L15.7205 17.6278H15.5127L15.3559 18.0056H14.8511L15.0073 17.6278H14.7991L14.4147 18.5554H14.6234ZM15.8268 18.5554L16.2114 17.6278H16.0031L15.6188 18.5554H15.8268ZM16.3 18.5554L16.6003 17.8307H16.6027L16.8412 18.5554H17.1209L17.5052 17.6278H17.3179L17.023 18.3395H17.0201L16.7896 17.6278H16.4967L16.1127 18.5554H16.3ZM18.6639 17.9267C18.7537 17.7098 18.5884 17.6033 18.3086 17.6033C17.9433 17.6033 17.6608 17.811 17.5454 18.0886C17.4063 18.4255 17.5774 18.5798 17.9233 18.5798C18.0578 18.5798 18.2717 18.5537 18.4273 18.4975L18.6071 18.0643H18.1071L18.0474 18.208H18.344L18.2709 18.3854C18.1547 18.4174 18.0799 18.4279 17.9988 18.4279C17.7138 18.4279 17.6906 18.2596 17.7622 18.0874C17.8621 17.8461 18.0843 17.7472 18.2795 17.7472C18.3825 17.7472 18.4951 17.7971 18.4479 17.9267H18.6639ZM18.9197 18.5554H19.1279L19.4493 17.7793H19.8027L19.8657 17.6278H18.9508L18.888 17.7793H19.2416L18.9197 18.5554ZM20.1319 18.5798C20.4739 18.5798 20.7401 18.4167 20.875 18.091C21.0099 17.7661 20.8783 17.6033 20.5363 17.6033C20.1947 17.6033 19.928 17.7661 19.7933 18.091C19.6583 18.4166 19.7902 18.5798 20.1319 18.5798ZM20.009 18.091C20.0993 17.8725 20.2731 17.7543 20.4736 17.7543C20.6753 17.7543 20.7498 17.8725 20.6592 18.091C20.5687 18.3099 20.3962 18.4279 20.1946 18.4279C19.9944 18.4279 19.9185 18.3099 20.009 18.091ZM21.8246 18.3396H21.822L21.5917 17.6278H21.2984L20.9143 18.5554H21.1018L21.4021 17.8308H21.4046L21.6426 18.5554H21.923L22.3069 17.6278H22.1193L21.8246 18.3396Z" fill="#C8102E"/>
<path d="M8.97696 20.2712H10.1369L10.4309 19.5609H9.2357C7.82762 19.5609 6.33495 20.4092 5.90132 21.4553C5.63965 22.0879 6.02399 22.6287 6.77464 22.6287H8.32926C9.00497 22.6287 9.82757 21.9786 9.82757 21.9786L9.10092 21.6723C9.10092 21.6723 8.77126 21.9185 8.41392 21.9185H6.92411C6.73745 21.9185 6.66047 21.7391 6.75846 21.5012C7.04011 20.8216 8.03332 20.2712 8.97696 20.2712ZM11.2469 22.6287H12.1477C12.4712 22.6287 12.7486 22.4403 12.7486 22.4403L12.6708 22.6287H13.547L14.2644 20.8965C14.5699 20.1589 14.105 19.5609 13.2259 19.5609H10.9479L10.6538 20.2711H13.1205C13.6472 20.2711 13.4867 20.6581 13.4867 20.6581H11.7101C11.0042 20.6581 10.4836 20.9833 10.3172 21.385C10.0331 22.0713 10.4491 22.6287 11.2469 22.6287ZM11.0866 21.6431C11.1496 21.4917 11.3235 21.3685 11.4756 21.3685H12.7051C12.9862 21.3685 13.2368 21.2617 13.2368 21.2617L13.0927 21.6094C13.0223 21.78 12.7762 21.9186 12.5842 21.9186H11.2476C11.0956 21.9185 11.0236 21.7952 11.0866 21.6431ZM23.7064 19.5609L23.4123 20.2711H26.1735C26.7004 20.2711 26.5397 20.6581 26.5397 20.6581H24.7634C24.0576 20.6581 23.5368 20.9833 23.3709 21.385C23.0861 22.0712 23.5021 22.6286 24.3003 22.6286H25.2007C25.5244 22.6286 25.8022 22.4402 25.8022 22.4402L25.7239 22.6286H26.6004L27.3176 20.8964C27.6232 20.1588 27.1584 19.5607 26.2792 19.5607H23.7064V19.5609ZM26.1462 21.6094C26.0755 21.7799 25.8297 21.9185 25.6378 21.9185H24.301C24.1492 21.9185 24.0769 21.7952 24.1398 21.643C24.2027 21.4916 24.3769 21.3684 24.5288 21.3684H25.7585C26.0392 21.3684 26.2901 21.2617 26.2901 21.2617L26.1462 21.6094ZM27.8803 22.6287L30.6998 15.8198H29.8237L27.0038 22.6287H27.8803ZM21.2229 19.5609H20.3466L20.0525 20.2711H20.9284L21.2229 19.5609ZM19.9523 22.6287L20.7684 20.6582H19.8918L19.0758 22.6287H19.9523ZM29.4833 20.2665C29.2131 20.9198 29.5644 21.4498 30.2692 21.4498H32.0479C32.1774 21.4498 32.239 21.5547 32.1851 21.6842C32.1314 21.8137 31.9831 21.9185 31.8539 21.9185H28.6003L28.3063 22.6286H31.5697C32.1777 22.6286 32.7281 22.4895 32.9624 21.923C33.233 21.2693 32.8815 20.7396 32.1769 20.7396H30.3983C30.2686 20.7396 30.207 20.6347 30.2608 20.5054C30.3146 20.3756 30.4631 20.2711 30.5925 20.2711H33.4741L33.7682 19.5609H30.8762C30.2684 19.5609 29.6673 19.8222 29.4833 20.2665ZM14.2285 24.4285L15.2464 21.9704C15.635 21.032 16.4912 20.2712 17.8456 20.2712H18.7147L18.1641 21.6006C18.0917 21.7755 17.889 21.9187 17.7143 21.9187H15.6892L15.3949 22.6288H17.8189C18.2566 22.6288 18.6975 22.4289 18.9441 21.8328L19.8853 19.561H17.8123C16.186 19.561 14.9482 20.5741 14.4308 21.8236L13.3522 24.4286H14.2285V24.4285Z" fill="#041E42"/>
<path d="M20.9114 23.6178C20.6218 24.3184 20.6328 25.2889 20.9358 25.775L22.6662 28.5477L23.8052 26.894L21.6985 25.1425C21.4766 24.9588 21.4138 24.5217 21.5592 24.1713L26.9611 11.1259H26.0845L22.5918 19.5609H21.553L21.2588 20.2711H22.298L20.9114 23.6178Z" fill="#041E42"/>
</svg>
