<svg width="24" height="24" viewBox="0 0 24 24" fill="none" xmlns="http://www.w3.org/2000/svg">
<g clip-path="url(#clip0_193_6083)">
<path d="M21.9829 13.5182C21.7967 13.5182 21.6455 13.6692 21.6455 13.8555C21.6455 14.0416 21.7967 14.1928 21.9829 14.1928C22.1691 14.1928 22.32 14.0416 22.32 13.8555C22.32 13.6692 22.169 13.5182 21.9829 13.5182ZM21.9829 14.1205C21.8367 14.1206 21.718 14.0022 21.7179 13.856V13.8555C21.7179 13.7091 21.8363 13.5908 21.9829 13.5908C22.1293 13.5908 22.2478 13.7091 22.2478 13.8555C22.2477 14.002 22.1292 14.1205 21.9829 14.1205ZM22.1214 13.7774C22.1214 13.7142 22.0702 13.6631 22.007 13.6631H21.8444V14.0481H21.9167V13.8918H21.9685L22.0415 14.0481H22.1214L22.0452 13.8851C22.0674 13.8772 22.0867 13.8626 22.1004 13.8433C22.114 13.8241 22.1214 13.801 22.1214 13.7774ZM22.007 13.8195H21.9168V13.7352H22.007C22.0302 13.7352 22.0492 13.7541 22.0492 13.7774C22.0491 13.8006 22.0302 13.8194 22.007 13.8195Z" fill="#041E42"/>
<path d="M5.82133 14.1676H7.36626L6.84027 15.4382H8.13435L8.66048 14.1676H12.4656L12.3551 14.4346C12.1027 15.0441 12.137 15.8268 12.3958 16.2417L13.8692 18.6026L15.0095 16.9471H16.8774L17.8972 15.6932H15.5323L14.8187 16.5709L13.3984 15.3901C13.3667 15.3602 13.3299 15.2061 13.389 15.064L14.0356 13.5023C14.0356 13.5023 14.1718 14.1676 15.0354 14.1676H20.1669C20.4106 14.1676 21.1526 14.1676 21.4386 13.4767C21.6986 12.8481 21.3105 12.5033 21.3105 12.5033H21.7196L22.1861 11.3779H19.6773C19.3602 11.3779 19.0665 11.4587 18.8355 11.5972L20.02 8.737H18.7257L17.4252 11.8776C17.4252 11.8776 17.1933 11.3779 16.4323 11.3779H14.9155L17.3808 5.424H16.0866L13.6211 11.3779H10.4557C9.63018 11.3779 8.86707 11.7258 8.32947 12.3094C8.32947 12.3094 8.32323 11.3779 7.21827 11.3779H4.40168C3.27574 11.3779 2.1152 12.05 1.75981 12.908C1.50882 13.5138 1.86214 14.1675 2.66447 14.1675H3.76179C4.21837 14.1675 4.7036 13.8637 4.91279 13.7158C4.91279 13.7158 5.14563 14.1676 5.82133 14.1676Z" fill="white"/>
<path d="M16.843 16.8752H14.6644L15.5667 15.7653H17.7455L16.843 16.8752ZM15.6732 16.3952H16.6145L16.7364 16.2453H15.7951L15.6732 16.3952ZM10.5345 11.2375C10.3593 11.2375 10.2417 11.1928 10.1632 11.1362L10.1283 11.2202H9.59698L9.57571 11.1556L9.54893 11.2202H7.74984C7.69085 11.2316 7.62773 11.2375 7.56101 11.2375C7.49966 11.2375 7.44634 11.2311 7.40002 11.2202H6.78509L6.77045 11.0735H6.71861L6.58867 11.2202H5.12549L5.1899 10.0855H6.69379L6.94022 9.32688L6.03518 8.66991H7.15382L7.49918 7.60589L7.84474 8.66991H10.0558L10.4008 7.60637L10.7469 8.66991H12.9578L13.3032 7.6057L13.6486 8.66991H14.7671L13.8622 9.32683L14.2078 10.3901L13.9418 10.1969L13.5181 11.2202H12.9861L12.965 11.1561L12.9384 11.2202H12.2866L12.288 11.217C12.2263 11.2306 12.1613 11.2375 12.0935 11.2375C11.832 11.2375 11.7053 11.1302 11.6452 11.0401C11.6398 11.0321 11.6348 11.0239 11.63 11.0155L11.5452 11.2202H10.8784L10.8908 11.1903C10.7624 11.2247 10.6244 11.2375 10.5345 11.2375ZM7.17898 10.0855H7.33085L7.34909 10.2739C7.46597 10.1442 7.64683 10.0682 7.85477 10.0682C7.89816 10.0682 7.93742 10.0715 7.97299 10.0772L7.49918 9.73301L7.17158 9.97109L7.17898 10.0855ZM9.91008 10.0898L9.92534 10.137L9.94666 10.0855H10.5985L10.5949 10.0941C10.6627 10.0771 10.7336 10.0682 10.8064 10.0682C10.8268 10.0682 10.8464 10.0688 10.8652 10.07L10.4011 9.73296L9.91008 10.0898ZM12.8179 10.0855H13.2985L13.315 10.1362L13.336 10.0855H13.7885L13.3032 9.73291L12.8179 10.0855ZM11.2068 10.0855H12.1998C12.2568 10.074 12.3167 10.0682 12.3789 10.0682C12.4231 10.0682 12.4635 10.0713 12.5004 10.0768L12.7441 9.32679L11.8524 8.67917L10.9601 9.32683L11.2068 10.0855ZM9.36691 10.0855H9.59582L9.84221 9.32683L8.95003 8.67912L8.05824 9.32683L8.30467 10.0855H9.36691V10.0855Z" fill="white"/>
<path d="M15.6807 16.0053L15.1686 16.6352H16.7286L17.2408 16.0053H15.6807ZM7.05114 9.76176L7.49903 9.43632L7.94696 9.76176L7.77594 9.2351L8.22373 8.9099H7.67015L7.49907 8.38306L7.32805 8.9099H6.77423L7.22226 9.2351L7.05114 9.76176ZM9.95307 9.76176L10.4009 9.43632L10.849 9.76176L10.6778 9.2351L11.1259 8.9099H10.5723L10.4009 8.38306L10.2299 8.9099H9.67616L10.1241 9.2351L9.95307 9.76176ZM13.4739 8.9099L13.3029 8.38306L13.1319 8.9099H12.5783L13.0261 9.2351L12.855 9.76176L13.3029 9.43632L13.7509 9.76176L13.5798 9.2351L14.0277 8.9099H13.4739ZM5.94882 10.4581H5.9505L5.91647 10.9802H6.0969L6.60023 10.3255H6.45344L6.07179 10.837H6.06987L6.10501 10.3255H5.91997L5.53751 10.837H5.53583L5.57442 10.3255H5.41655L5.37939 10.9802H5.55632L5.94882 10.4581ZM6.98754 10.8335L7.00218 10.9802H7.17618L7.11277 10.3255H6.92792L6.32274 10.9802H6.48047L6.6104 10.8335H6.98754ZM6.96119 10.4417L6.97947 10.7263H6.70717L6.96119 10.4417ZM7.34461 10.7751C7.28653 10.9156 7.37135 10.9975 7.5608 10.9975C7.78309 10.9975 7.93247 10.9176 7.98839 10.7824C8.10776 10.494 7.56546 10.6643 7.63568 10.4948C7.66045 10.435 7.74013 10.4051 7.80099 10.4051C7.90256 10.4051 7.94855 10.436 7.91883 10.5212H8.06571C8.11611 10.3886 8.04603 10.3082 7.85461 10.3082C7.7024 10.3082 7.53555 10.3689 7.47315 10.5203C7.364 10.7832 7.88922 10.6541 7.8284 10.8006C7.80882 10.848 7.74263 10.9002 7.62119 10.9002C7.50507 10.9002 7.46735 10.8529 7.49149 10.7751H7.34461ZM8.20487 10.9802L8.32127 10.6991H8.67767L8.56117 10.9802H8.70815L8.9793 10.3255H8.83261L8.72192 10.5922H8.36562L8.47587 10.3255H8.32895L8.05755 10.9802H8.20487ZM9.05437 10.9802L9.32581 10.3255H9.17883L8.90754 10.9802H9.05437ZM9.3884 10.9802L9.60037 10.4688H9.60205L9.77043 10.9802H9.96781L10.2391 10.3255H10.1069L9.89874 10.8279H9.89667L9.734 10.3255H9.52722L9.25616 10.9802H9.3884ZM11.057 10.5365C11.1204 10.3834 11.0037 10.3082 10.8062 10.3082C10.5484 10.3082 10.3489 10.4548 10.2675 10.6508C10.1693 10.8886 10.2901 10.9975 10.5342 10.9975C10.6292 10.9975 10.7802 10.9791 10.89 10.9394L11.0169 10.6336H10.664L10.6218 10.7351H10.8312L10.7796 10.8603C10.6976 10.8829 10.6448 10.8902 10.5875 10.8902C10.3863 10.8902 10.37 10.7714 10.4205 10.65C10.4911 10.4796 10.6479 10.4098 10.7857 10.4098C10.8584 10.4098 10.9378 10.445 10.9045 10.5365H11.057ZM11.2376 10.9802H11.3846L11.6114 10.4324H11.8609L11.9053 10.3255H11.2595L11.2152 10.4324H11.4648L11.2376 10.9802ZM12.0933 10.9975C12.3346 10.9975 12.5226 10.8824 12.6178 10.6524C12.713 10.4231 12.6201 10.3082 12.3787 10.3082C12.1376 10.3082 11.9493 10.4231 11.8542 10.6524C11.759 10.8823 11.8521 10.9975 12.0933 10.9975ZM12.0065 10.6524C12.0703 10.4982 12.1929 10.4148 12.3345 10.4148C12.4768 10.4148 12.5294 10.4982 12.4654 10.6525C12.4016 10.807 12.2798 10.8903 12.1375 10.8903C11.9962 10.8902 11.9426 10.807 12.0065 10.6524ZM13.2881 10.8279H13.2862L13.1237 10.3255H12.9167L12.6455 10.9803H12.7779L12.9898 10.4688H12.9916L13.1596 10.9803H13.3575L13.6286 10.3255H13.4961L13.2881 10.8279Z" fill="#C8102E"/>
<path d="M4.21914 12.1914H5.03793L5.24548 11.6901H4.40178C3.40785 11.6901 2.3542 12.2888 2.0481 13.0273C1.8634 13.4738 2.1347 13.8556 2.66457 13.8556H3.76194C4.23892 13.8556 4.81958 13.3966 4.81958 13.3966L4.30665 13.1804C4.30665 13.1804 4.07394 13.3543 3.8217 13.3543H2.77007C2.63831 13.3543 2.58398 13.2276 2.65314 13.0597C2.85196 12.58 3.55305 12.1914 4.21914 12.1914ZM5.82143 13.8556H6.45729C6.68567 13.8556 6.88146 13.7226 6.88146 13.7226L6.82655 13.8556H7.44508L7.95143 12.6328C8.1671 12.1122 7.83892 11.69 7.21838 11.69H5.61038L5.40278 12.1914H7.14402C7.51578 12.1914 7.40246 12.4645 7.40246 12.4645H6.14841C5.65017 12.4645 5.28263 12.6941 5.16518 12.9776C4.96463 13.4621 5.2583 13.8556 5.82143 13.8556ZM5.7083 13.1598C5.75274 13.053 5.87553 12.966 5.98286 12.966H6.85079C7.04918 12.966 7.2261 12.8906 7.2261 12.8906L7.12439 13.136C7.07466 13.2564 6.90095 13.3543 6.7654 13.3543H5.82196C5.71468 13.3543 5.6638 13.2672 5.7083 13.1598ZM14.6164 11.69L14.4088 12.1914H16.3579C16.7298 12.1914 16.6164 12.4645 16.6164 12.4645H15.3625C14.8643 12.4645 14.4967 12.6941 14.3795 12.9776C14.1786 13.462 14.4722 13.8555 15.0356 13.8555H15.6712C15.8997 13.8555 16.0958 13.7225 16.0958 13.7225L16.0405 13.8555H16.6592L17.1655 12.6327C17.3812 12.1121 17.0531 11.6899 16.4325 11.6899H14.6164V11.69ZM16.3386 13.136C16.2887 13.2564 16.1152 13.3543 15.9798 13.3543H15.0361C14.929 13.3543 14.8779 13.2672 14.9223 13.1598C14.9667 13.0529 15.0897 12.9659 15.1969 12.9659H16.065C16.2631 12.9659 16.4402 12.8906 16.4402 12.8906L16.3386 13.136ZM17.5627 13.8556L19.5529 9.04924H18.9345L16.944 13.8556H17.5627ZM12.8634 11.69H12.2448L12.0371 12.1914H12.6555L12.8634 11.69ZM11.9664 13.8556L12.5425 12.4646H11.9238L11.3477 13.8556H11.9664ZM18.6942 12.1881C18.5035 12.6492 18.7514 13.0234 19.249 13.0234H20.5045C20.5959 13.0234 20.6394 13.0975 20.6014 13.1889C20.5635 13.2802 20.4588 13.3542 20.3676 13.3542H18.0709L17.8634 13.8555H20.167C20.5961 13.8555 20.9846 13.7573 21.15 13.3574C21.341 12.896 21.0929 12.5221 20.5955 12.5221H19.3401C19.2486 12.5221 19.205 12.448 19.243 12.3567C19.281 12.2651 19.3858 12.1914 19.4771 12.1914H21.5112L21.7188 11.69H19.6774C19.2484 11.69 18.8241 11.8745 18.6942 12.1881ZM7.92614 15.126L8.64465 13.3909C8.91897 12.7284 9.52329 12.1915 10.4794 12.1915H11.0928L10.7042 13.1298C10.6531 13.2533 10.51 13.3544 10.3867 13.3544H8.95722L8.74948 13.8556H10.4605C10.7695 13.8556 11.0807 13.7145 11.2548 13.2937L11.9192 11.6901H10.4559C9.30786 11.6901 8.43417 12.4052 8.06889 13.2872L7.30756 15.126H7.92614V15.126Z" fill="#041E42"/>
<path d="M12.6435 14.5537C12.4391 15.0482 12.4468 15.7333 12.6608 16.0764L13.8822 18.0336L14.6862 16.8663L13.1991 15.63C13.0425 15.5003 12.9982 15.1918 13.1008 14.9445L16.9139 5.73595H16.2951L13.8297 11.69H13.0964L12.8888 12.1914H13.6223L12.6435 14.5537Z" fill="#041E42"/>
</g>
<defs>
<clipPath id="clip0_193_6083">
<rect width="24" height="24" fill="white"/>
</clipPath>
</defs>
</svg>
