<svg width="40" height="40" viewBox="0 0 40 40" fill="none" xmlns="http://www.w3.org/2000/svg">
<path d="M28.9467 31.7409C28.5803 31.7409 28.2827 32.038 28.2827 32.4047C28.2827 32.771 28.5803 33.0685 28.9467 33.0685C29.3132 33.0685 29.6102 32.771 29.6102 32.4047C29.6102 32.038 29.3132 31.7409 28.9467 31.7409ZM28.9467 32.9261C28.8782 32.9262 28.8104 32.9127 28.7471 32.8865C28.6838 32.8604 28.6263 32.822 28.5779 32.7735C28.5295 32.7251 28.4911 32.6676 28.4649 32.6043C28.4387 32.541 28.4253 32.4732 28.4253 32.4047C28.4253 32.1167 28.6583 31.8837 28.9467 31.8837C29.2348 31.8837 29.468 32.1166 29.468 32.4047C29.468 32.6929 29.2348 32.9261 28.9467 32.9261ZM29.2194 32.2508C29.2194 32.2213 29.2136 32.192 29.2023 32.1647C29.1909 32.1374 29.1743 32.1126 29.1534 32.0917C29.1325 32.0709 29.1077 32.0543 29.0804 32.043C29.053 32.0317 29.0238 32.0259 28.9942 32.026H28.6744V32.7837H28.8165V32.4759H28.9186L29.0622 32.7837H29.2194L29.0695 32.4628C29.1133 32.4472 29.1512 32.4185 29.1781 32.3806C29.2049 32.3426 29.2194 32.2973 29.2195 32.2508H29.2194ZM28.9942 32.3337H28.8165V32.1679H28.9942C29.0399 32.1679 29.0773 32.205 29.0773 32.2509C29.0772 32.2729 29.0684 32.2939 29.0528 32.3094C29.0373 32.325 29.0162 32.3337 28.9942 32.3337Z" fill="#041E42"/>
<path d="M34.1597 20.0001C34.1597 27.8207 27.8229 34.1601 20.0019 34.1601C12.1814 34.1601 5.83984 27.8208 5.83984 20.0001C5.83984 12.1792 12.1796 5.83997 20 5.83997C27.821 5.83997 34.1597 12.1792 34.1597 20.0001Z" fill="#A2AAAD"/>
<path d="M20 6.79031C12.7043 6.79031 6.79102 12.7051 6.79102 20.0001C6.79102 27.2948 12.7063 33.2097 20.0019 33.2097C27.2976 33.2097 33.2088 27.2948 33.2088 20.0001C33.2088 12.705 27.2956 6.79031 20 6.79031ZM25.9789 22.5423L25.3924 22.2501L21.6721 22.4989V23.0485L23.3616 25.4789V26.9531L21.0313 25.8041L20.8396 25.3202L19.9998 27.179L19.1861 25.3199L18.9937 25.8041L16.6638 26.9531V25.4793L18.3536 23.0486V22.4989L14.6333 22.2501L14.0465 22.5423V19.1369L14.0394 18.1791L14.8491 20.127L18.5396 18.366L18.7386 16.1053L20.0015 10.2314L21.287 16.1053L21.486 18.366L25.1762 20.127L25.9642 18.1543L25.9788 19.1369L25.9789 22.5423Z" fill="#041E42"/>
<path d="M21.2782 10.3454L20.0008 7.12607L18.6461 10.3456C13.8792 10.9887 10.2031 15.0708 10.2031 20.0142C10.2031 25.4037 14.6109 29.7735 20.0008 29.7735C25.3907 29.7735 29.721 25.4038 29.721 20.0143C29.721 15.0708 26.0453 10.9884 21.2782 10.3454ZM25.979 22.5423L25.3925 22.2501L21.6722 22.499V23.0486L23.3617 25.4789V26.9531L21.0314 25.8041L20.8397 25.3203L19.9999 27.179L19.1862 25.3199L18.9938 25.8041L16.6639 26.9531V25.4793L18.3537 23.0486V22.499L14.6334 22.2501L14.0466 22.5423V19.1369L14.0395 18.1791L14.8492 20.127L18.5398 18.366L18.7388 16.1054L20.0017 10.2314L21.2871 16.1054L21.4861 18.366L25.1763 20.1271L25.9643 18.1543L25.9789 19.1369L25.979 22.5423Z" fill="white"/>
<path d="M14.0386 18.1792L14.8485 20.1271L18.539 18.3659L18.7381 16.1054L19.0122 14.8394L17.1528 13.6202L17.9012 18.052L15.9222 16.0775L15.8679 17.6355L12.972 16.5429L14.046 19.3865V19.1369L14.0386 18.1792ZM18.3529 22.499L15.7275 22.3233L16.7894 23.2497L16.1652 24.0268L17.5196 24.2471L18.3529 23.0486V22.499ZM20.0009 27.1702L19.1853 25.3199L19.1699 25.3591L20.001 29.3954L20.8423 25.3291L20.8388 25.3203L20.0009 27.1702ZM21.6714 23.0486L22.5051 24.2481L23.876 24.0274L23.2514 23.2497L24.3146 22.3221L21.6714 22.4989L21.6714 23.0486ZM21.4854 18.366L25.1757 20.1271L25.9636 18.1543L25.9782 19.1368V19.432L27.0699 16.5424L24.173 17.6355L24.1184 16.0775L22.1396 18.0523C22.1903 17.7446 22.888 13.6201 22.888 13.6201L21.0142 14.8507L21.2865 16.1053L21.4854 18.3661V18.366ZM27.5734 19.4791L25.9782 19.4716V20.8709L27.5734 19.4791ZM12.4673 19.4791L14.0459 20.8562V19.4716L12.4673 19.4791Z" fill="#782F40"/>
<path d="M18.3503 22.499L15.9433 22.3381L16.9607 23.2259C16.9445 23.2709 16.4089 23.9335 16.4089 23.9335L17.6004 24.1274L18.3503 23.0486V22.499ZM18.9803 14.975L17.3325 13.893L17.3358 13.9126L18.6465 17.1156L18.7354 16.1054L18.9803 14.975ZM17.9006 18.2348C17.899 18.2335 17.8975 18.2327 17.8959 18.2314L16.0431 16.3834L15.989 17.8181L13.2189 16.7761L15.9235 19.6128L18.1977 18.5276L17.9006 18.2348ZM19.4013 25.8112L20.0028 28.8495L19.9999 27.1803L19.4013 25.8112ZM12.8154 19.6084L14.0434 20.6799V19.6027L12.8154 19.6084ZM22.697 13.9029L21.0426 14.9942L21.2282 15.8489L22.697 13.9029ZM26.8435 16.7732L24.0772 17.8198L23.2683 19.2182L23.8215 19.4822L26.8435 16.7732Z" fill="#A6192E"/>
<path d="M25.9639 18.1543L25.1759 20.127L21.4857 18.3659L21.2868 16.1053L20.0013 10.2314L18.7383 16.1053L18.5393 18.3659L14.8488 20.127L14.0391 18.1791L14.0462 19.1369V22.5423L14.633 22.25L18.3533 22.4989V23.0485L16.6634 25.4792V26.953L18.9934 25.8041L19.1857 25.3199L19.9995 27.179L20.8392 25.3202L21.031 25.8041L23.3612 26.953V25.4789L21.6718 23.0485V22.4989L25.3921 22.25L25.9785 22.5423V19.1369L25.9639 18.1543V18.1543ZM19.9998 26.5446L19.1944 24.7153L18.9206 24.0805L19.0828 24.8885L18.7928 25.6189L16.9184 26.5435V25.559L18.6078 23.1287V22.261L14.5808 21.9915L14.3013 22.1307V19.4743L14.7165 20.4724L18.4234 18.7037L18.6654 19.8888L18.7793 18.5338L18.7805 18.5336L18.9907 16.1406L20.0004 11.2609L19.9998 26.5446V26.5446Z" fill="#53565A"/>
</svg>
